<svg width="106" height="61" viewBox="0 0 106 61" fill="none" xmlns="http://www.w3.org/2000/svg">
<path d="M59.3435 26.1042V26.0023C59.3435 25.7983 59.3435 25.6964 59.2415 25.4924C59.2415 25.2885 59.1395 24.9826 59.1395 24.7786C59.1395 24.5747 59.0376 24.4727 59.0376 24.4727V24.3708C58.8336 23.555 58.4257 22.8412 57.8138 22.3314C57.5078 21.9235 57.0999 21.5156 56.6919 21.2097C51.4908 17.2329 47.0036 14.0718 41.8024 10.4009L41.4965 10.197C38.029 7.7497 34.0517 4.89455 29.1565 1.32561C27.9327 0.407879 26.505 0 24.9752 0C24.4653 0 24.0574 3.87464e-07 23.5475 0.10197C7.94405 3.365 -1.84632 18.4565 1.11118 34.4658C3.55878 47.5179 14.165 57.7149 27.1169 59.4483C28.3407 59.6523 29.5645 59.6523 30.7883 59.6523C32.42 59.6523 34.0517 59.5503 35.5815 59.2444C36.3973 59.1424 37.3152 58.9385 38.131 58.7345C38.7429 59.7542 39.7628 60.57 41.0885 60.672C41.2925 60.672 41.3945 60.672 41.5985 60.672C41.9044 60.672 42.2104 60.672 42.5163 60.57C42.8223 60.468 44.148 60.1621 46.0857 59.0405C46.6976 59.9582 47.7174 60.468 48.8392 60.672C49.0432 60.672 49.1452 60.672 49.3492 60.672C49.9611 60.672 50.573 60.57 51.0829 60.2641C51.8987 59.8562 56.08 57.6129 58.2217 49.5573C60.9752 39.1564 59.9554 29.7751 59.3435 26.1042ZM49.2472 58.1227C49.1452 58.1227 49.1452 58.1227 49.0432 58.1227C48.5333 58.0208 48.1254 57.8168 47.9214 57.307C47.5135 56.5932 47.8194 55.6755 48.6353 55.3695C48.6353 55.3695 51.0829 54.0439 52.6126 48.9455C52.5106 49.1494 52.3067 49.3533 52.2047 49.5573C47.2075 56.7971 42.1084 58.0208 41.9044 58.1227C41.8024 58.1227 41.7004 58.1227 41.5985 58.1227C41.4965 58.1227 41.4965 58.1227 41.3945 58.1227C40.8846 58.0208 40.3747 57.6129 40.2727 57.103C40.0687 56.3892 40.5786 55.6755 41.2925 55.4715C41.2925 55.4715 44.046 54.7577 47.3095 51.1888C43.9441 53.942 39.7628 55.8794 35.1735 56.5932C33.7458 56.7971 32.216 57.0011 30.7883 57.0011C29.6664 57.0011 28.5446 56.8991 27.4228 56.7971C15.7967 55.2676 5.90439 46.1923 3.66076 33.9559C0.907217 19.2723 9.98371 5.40439 24.1594 2.44727C24.4653 2.3453 24.7712 2.3453 25.0772 2.3453C25.995 2.3453 27.0149 2.65121 27.7288 3.26303C32.7259 6.93394 36.8052 9.78909 40.3747 12.3383C45.4738 16.0092 49.9611 19.1703 55.1622 23.1471C55.4681 23.3511 55.7741 23.657 55.9781 23.9629C56.284 24.1668 56.488 24.4727 56.488 24.7786C56.488 24.7786 56.488 24.9826 56.59 25.2885C56.59 25.4924 56.6919 25.5944 56.6919 25.7983C56.6919 26.0023 56.7939 26.2062 56.7939 26.4102C57.4058 29.9791 58.3237 38.9524 55.6721 48.8435C53.8364 55.8794 50.267 57.7149 49.8591 57.9188C49.7571 58.1227 49.4511 58.1227 49.2472 58.1227Z" fill="white"/>
<path d="M50.6716 25.901L49.8557 25.2892C45.5724 22.0261 42.105 19.5789 37.7197 16.4178C34.9662 14.4804 31.4987 12.0331 27.3174 8.87205L26.3996 8.15826L25.2778 8.3622C14.3656 10.7075 7.43074 21.5163 9.57239 33.0389C11.5101 43.5418 20.3826 51.1895 30.6829 51.1895C31.8047 51.1895 32.9265 51.0875 34.0483 50.8836C45.1645 49.0481 52.6092 38.4433 50.8755 26.8187L50.6716 25.901Z" fill="white"/>
<path d="M87.3856 6.11876C86.9776 6.01679 86.5697 6.01679 86.1618 6.01679C84.938 6.01679 83.6122 6.42467 82.5924 7.13846C78.921 9.78967 75.9635 11.931 73.3119 13.7665L73.0059 13.9704C69.1306 16.7236 65.7651 19.1709 61.7878 22.128C61.4819 22.4339 61.0739 22.7398 60.87 23.0457C60.3601 23.5556 59.9521 24.1674 59.8501 24.8812L59.7481 25.1871C59.6462 25.391 59.6462 25.595 59.6462 25.7989C59.6462 25.9009 59.6462 26.1048 59.5442 26.2068V26.3088C59.1363 29.0619 58.3204 36.3018 60.462 44.2554C62.1957 50.5776 65.5612 52.515 66.1731 52.8209C66.683 53.0248 67.1929 53.1268 67.8048 53.1268C68.0088 53.1268 68.1108 53.1268 68.3147 53.1268C69.1306 53.0248 69.9465 52.617 70.4564 52.1071C71.7821 52.8209 72.7 53.0248 72.904 53.1268C73.2099 53.2288 73.4139 53.2288 73.7198 53.2288C73.9238 53.2288 74.0258 53.2288 74.2297 53.2288C75.2496 53.1268 76.0654 52.617 76.6773 51.8012C77.1873 51.9032 77.6972 52.0051 78.2071 52.1071C79.4309 52.311 80.6547 52.413 81.9805 52.413C82.8983 52.413 83.9181 52.311 84.836 52.2091C94.8303 50.8835 103.193 42.9298 105.029 32.8348C107.272 20.3945 99.5215 8.66801 87.3856 6.11876ZM102.377 32.4269C100.643 41.7062 93.0966 48.6401 84.3261 49.7618C83.5102 49.8638 82.5924 49.9657 81.7765 49.9657C80.6547 49.9657 79.5329 49.8638 78.513 49.6598C75.0456 49.048 71.8841 47.6204 69.3346 45.581C71.8841 48.2323 73.9238 48.7421 73.9238 48.7421C74.5357 48.8441 74.8416 49.4559 74.7397 49.9657C74.6377 50.3736 74.2297 50.6795 73.8218 50.6795H73.7198C73.6178 50.6795 73.5159 50.6795 73.5159 50.6795C73.3119 50.6795 69.5385 49.6598 65.7652 44.2554C65.6632 44.1535 65.5612 43.9495 65.4592 43.7456C66.683 47.6204 68.4167 48.6401 68.4167 48.6401C69.0286 48.946 69.2326 49.5579 68.9266 50.1697C68.7227 50.4756 68.4167 50.6795 68.0088 50.7815C67.9068 50.7815 67.9068 50.7815 67.8048 50.7815C67.6009 50.7815 67.4989 50.7815 67.2949 50.6795C66.989 50.5776 64.3374 49.15 62.9096 43.8476C60.87 36.3018 61.6858 29.5718 62.0938 26.8186C62.0938 26.6147 62.0938 26.5127 62.1958 26.4107C62.1958 26.3088 62.1957 26.2068 62.2977 26.0029C62.2977 25.7989 62.3997 25.6969 62.3997 25.595C62.5017 25.2891 62.6037 25.0851 62.8076 24.9832C63.0116 24.7792 63.2156 24.4733 63.4195 24.3713C67.2949 21.4142 70.6603 18.9669 74.6377 16.2138C77.3912 14.2763 80.4507 12.135 84.2241 9.27982C84.836 8.87195 85.5499 8.56604 86.2637 8.56604C86.4677 8.56604 86.7736 8.56604 86.9776 8.66801C97.6858 10.9113 104.519 21.3123 102.377 32.4269Z" fill="white"/>
<path d="M86.2652 14.4791L85.1434 14.2752L84.2255 14.989C81.37 17.0283 79.0244 18.7618 77.1887 20.0874C74.2312 22.2288 71.8856 23.8603 69.0301 26.1036L68.2142 26.7155L68.1122 27.7352C66.8884 35.9947 72.1915 43.5405 80.1462 44.8661C80.9621 44.968 81.7779 45.07 82.5938 45.07C89.9366 45.07 96.2595 39.6656 97.6873 32.2218C99.0131 23.8603 94.0159 16.1106 86.2652 14.4791Z" fill="white"/>
</svg>
