<svg width="17" height="16" viewBox="0 0 17 16" fill="none" xmlns="http://www.w3.org/2000/svg">
<path d="M13.1667 7.33337H3.83333C3.09695 7.33337 2.5 7.93033 2.5 8.66671V13.3334C2.5 14.0698 3.09695 14.6667 3.83333 14.6667H13.1667C13.903 14.6667 14.5 14.0698 14.5 13.3334V8.66671C14.5 7.93033 13.903 7.33337 13.1667 7.33337Z" stroke="#45E5E5" stroke-width="2" stroke-linecap="round" stroke-linejoin="round"/>
<path d="M5.16602 7.33337V4.66671C5.16602 3.78265 5.51721 2.93481 6.14233 2.30968C6.76745 1.68456 7.61529 1.33337 8.49935 1.33337C9.3834 1.33337 10.2312 1.68456 10.8564 2.30968C11.4815 2.93481 11.8327 3.78265 11.8327 4.66671V7.33337" stroke="#45E5E5" stroke-width="2" stroke-linecap="round" stroke-linejoin="round"/>
</svg>
