<svg width="21" height="20" viewBox="0 0 21 20" fill="none" xmlns="http://www.w3.org/2000/svg">
<path d="M13.834 10H15.5007V13.3333H13.834V10Z" fill="#45E5E5"/>
<path d="M17.166 5.83333V4.16667C17.166 3.2475 16.4185 2.5 15.4993 2.5H4.66602C3.28768 2.5 2.16602 3.62167 2.16602 5V15C2.16602 16.8342 3.66102 17.5 4.66602 17.5H17.166C18.0852 17.5 18.8327 16.7525 18.8327 15.8333V7.5C18.8327 6.58083 18.0852 5.83333 17.166 5.83333ZM4.66602 4.16667H15.4993V5.83333H4.66602C4.45145 5.82374 4.24885 5.73174 4.10041 5.57651C3.95197 5.42129 3.86913 5.21478 3.86913 5C3.86913 4.78522 3.95197 4.57871 4.10041 4.42349C4.24885 4.26826 4.45145 4.17626 4.66602 4.16667ZM17.166 15.8333H4.67602C4.29102 15.8233 3.83268 15.6708 3.83268 15V7.34583C4.09435 7.44 4.37185 7.5 4.66602 7.5H17.166V15.8333Z" fill="#45E5E5"/>
</svg>
