<svg width="17" height="16" viewBox="0 0 17 16" fill="none" xmlns="http://www.w3.org/2000/svg">
<path d="M2.5 3.75H3.83333H14.5" stroke="#45E5E5" stroke-width="1.5" stroke-linecap="round" stroke-linejoin="round"/>
<path d="M5.83398 4.00004V2.66671C5.83398 2.31309 5.97446 1.97395 6.22451 1.7239C6.47456 1.47385 6.8137 1.33337 7.16732 1.33337H9.83398C10.1876 1.33337 10.5267 1.47385 10.7768 1.7239C11.0268 1.97395 11.1673 2.31309 11.1673 2.66671V4.00004M13.1673 4.00004V13.3334C13.1673 13.687 13.0268 14.0261 12.7768 14.2762C12.5267 14.5262 12.1876 14.6667 11.834 14.6667H5.16732C4.8137 14.6667 4.47456 14.5262 4.22451 14.2762C3.97446 14.0261 3.83398 13.687 3.83398 13.3334V4.00004H13.1673Z" stroke="#45E5E5" stroke-width="2" stroke-linecap="round" stroke-linejoin="round"/>
</svg>
