<svg viewBox="0 0 1298 12" xmlns="http://www.w3.org/2000/svg"><g fill="#FDFDFD"><path d="M4.5 0H1.7L2.5 8.4L1.9 7.3H0L3.1 11.4L6.1 7.3H4.2L3.6 8.4L4.5 0Z" /><path d="M327.4 0H324.6L325.4 8.4L324.8 7.3H322.9L326 11.4L329 7.3H327.1L326.5 8.4L327.4 0Z" /><path d="M650.3 0H647.5L648.3 8.4L647.7 7.3H645.8L648.9 11.4L651.9 7.3H650L649.4 8.4L650.3 0Z" /><path d="M973.2 0H970.3L971.1 8.4L970.6 7.3H968.7L971.8 11.4L974.8 7.3H972.8L972.3 8.4L973.2 0Z" /><path d="M1296.1 0H1293.2L1294 8.4L1293.5 7.3H1291.6L1294.7 11.4L1297.7 7.3H1295.7L1295.2 8.4L1296.1 0Z" /></g></svg>