<svg xmlns="http://www.w3.org/2000/svg" viewBox="0 0 24 25"><path fill="currentColor" d="M15.858 4.737c2.052 0 3.789 1.658 3.789 3.79 0 2.052-1.737 3.71-3.79 3.71-.789 0-1.579-.237-2.21-.632 1.027-1.026 1.659-2.448 1.659-4.026 0-.947-.237-1.895-.711-2.684.394-.08.79-.158 1.263-.158zM9.778 3c2.527 0 4.58 2.052 4.58 4.579 0 2.605-2.053 4.658-4.58 4.658-2.526 0-4.578-2.053-4.578-4.658C5.2 5.052 7.252 3 9.779 3zm8.764 17.368c.079.316-.158.632-.474.632H1.489c-.315 0-.553-.237-.474-.553.79-4.105 4.658-6.869 8.764-6.869 4.104 0 7.973 2.684 8.763 6.79zm4.421-1.658c0 .316-.158.553-.474.553h-3.316c-.79-2.684-2.842-4.736-5.368-5.763.631-.236 1.341-.315 2.052-.315 3.316 0 6.395 2.21 7.105 5.526h.001z" transform="translate(-455 -1073) translate(0 731) translate(455 343)"/></svg>
