<svg width="21" height="22" viewBox="0 0 21 22" fill="none" xmlns="http://www.w3.org/2000/svg">
<g clip-path="url(#clip0_760_8679)">
<path d="M5.87017 21.0562C5.87017 20.2283 5.87017 19.3975 5.87017 18.5456C4.19957 18.5456 2.5496 18.5456 0.873114 18.5456C0.867221 18.4406 0.861328 18.3596 0.861328 18.2786C0.861328 13.5543 0.861328 8.82997 0.861328 4.10564C0.861328 3.96766 0.884899 3.82668 0.926148 3.6977C1.29739 2.55486 1.67453 1.41803 2.04283 0.27519C2.08997 0.125211 2.15184 0.0742188 2.31095 0.0742188C8.42468 0.0802179 14.5384 0.0772183 20.6521 0.0772183C20.7111 0.0772183 20.7729 0.0772183 20.8584 0.0772183C20.8584 0.176204 20.8584 0.257193 20.8584 0.341181C20.8584 4.4116 20.8584 8.48502 20.8613 12.5554C20.8613 12.7264 20.8112 12.8434 20.6934 12.9634C18.9197 14.7631 17.1489 16.5659 15.3811 18.3716C15.2632 18.4916 15.1483 18.5426 14.9833 18.5396C13.9079 18.5306 12.8295 18.5396 11.7541 18.5306C11.5478 18.5306 11.4005 18.5846 11.2532 18.7376C10.5431 19.4754 9.8242 20.2043 9.0994 20.9302C9.03163 20.9992 8.92261 21.0682 8.83128 21.0682C7.87076 21.0772 6.90729 21.0742 5.94677 21.0742C5.92615 21.0742 5.90552 21.0652 5.86427 21.0592L5.87017 21.0562ZM3.96681 1.96695C3.96681 6.43631 3.96681 10.8907 3.96681 15.375C5.43116 15.375 6.88372 15.375 8.35691 15.375V17.9157C8.42468 17.8497 8.46298 17.8137 8.49834 17.7777C9.23788 17.0248 9.98036 16.2749 10.717 15.519C10.823 15.411 10.9261 15.366 11.0764 15.369C12.6115 15.375 14.1436 15.375 15.6787 15.366C15.7906 15.366 15.932 15.306 16.0116 15.2251C16.9692 14.2652 17.915 13.2933 18.8666 12.3305C18.9727 12.2225 19.011 12.1145 19.011 11.9645C19.0081 8.70998 19.011 5.45245 19.011 2.19792V1.96395C13.9845 1.96395 8.98154 1.96395 3.96681 1.96395V1.96695Z" fill="white"/>
<path d="M10.8523 5.82812V11.4943H8.99609C8.99609 9.61058 8.99609 7.72685 8.99609 5.82812H10.8523Z" fill="white"/>
<path d="M15.8443 11.5033H14.0234C14.0234 9.61058 14.0234 7.72685 14.0234 5.82812H15.8443C15.8443 7.71186 15.8443 9.59559 15.8443 11.5033Z" fill="white"/>
</g>
<defs>
<clipPath id="clip0_760_8679">
<rect width="20" height="21" fill="white" transform="translate(0.861328 0.0742188)"/>
</clipPath>
</defs>
</svg>
