<svg xmlns="http://www.w3.org/2000/svg" viewBox="0 0 74 74"><path d="M69.653,15.642,34.579,50.736a3.492,3.492,0,0,1-4.945,0L19.707,40.8a3.5,3.5,0,0,1,0-4.948h0a3.492,3.492,0,0,1,4.945,0l7.436,7.44,32.584-32.6a3.492,3.492,0,0,1,4.945,0h0A3.465,3.465,0,0,1,69.653,15.642ZM50.292,4.588A35.089,35.089,0,1,0,70.951,46.209a33.958,33.958,0,0,0,.737-14.81,3.527,3.527,0,0,0-5.963-1.9h0a3.534,3.534,0,0,0-.947,3.123,26.4,26.4,0,0,1-1.824,14.95c-4.069,9.51-12.907,16.494-23.184,17.442A28.084,28.084,0,1,1,49.871,12.1a3.512,3.512,0,0,0,4.1-.632h0a3.521,3.521,0,0,0-.842-5.615C52.186,5.43,51.239,4.974,50.292,4.588Z" fill="currentColor"/></svg>
