<svg xmlns="http://www.w3.org/2000/svg" viewBox="0 0 150 150"><g fill="#fdfdfd"><path d="M76.62,111.5,61.38,95.63l-19.7,0a30.07,30.07,0,0,1-21.42-8.34,29,29,0,0,1,0-40.41A30.08,30.08,0,0,1,41.69,38.5l24.3,0,14.66,16.1,27.67.13a30,30,0,0,1,21.42,8.34,28.18,28.18,0,0,1,8.2,20.2c0,16.27-12.46,28.08-29.63,28.08ZM41.68,49.13C36,49.13,31.23,51,27.76,54.39a18.36,18.36,0,0,0,0,25.31C31.23,83.14,36,85,41.69,85l22,0h2.26l15.22,15.84,27.15-.11c5.73,0,10.56-1.76,14-5.08a16.91,16.91,0,0,0,5-12.36,17.59,17.59,0,0,0-5.06-12.65c-3.46-3.44-8.28-5.26-13.93-5.26h0l-32.36-.15L61.29,49.16Z"/><rect x="75.85" y="61.58" width="10.8" height="43.87"/></g></svg>