<svg width="41" height="46" viewBox="0 0 41 46" fill="none" xmlns="http://www.w3.org/2000/svg">
<path d="M35.6337 0.600586H4.76112C2.15769 0.600586 0.0380859 2.66132 0.0380859 5.21483V35.4986C0.0380859 38.0521 2.15769 40.1128 4.76112 40.1128H30.8876L29.6665 35.969L32.6155 38.6345L35.4033 41.1432L40.3567 45.3991V5.21483C40.3567 2.66132 38.2371 0.600586 35.6337 0.600586ZM26.7405 29.854C26.7405 29.854 25.9111 28.8908 25.2199 28.0396C28.2381 27.2109 29.39 25.3741 29.39 25.3741C28.4454 25.9789 27.5469 26.4045 26.7405 26.6957C25.5886 27.1661 24.4827 27.4797 23.3998 27.6589C21.1881 28.062 19.1606 27.9501 17.4327 27.6365C16.1195 27.3901 14.9905 27.0317 14.0459 26.6733C13.516 26.4717 12.94 26.2253 12.3641 25.9117C12.2949 25.8669 12.2258 25.8445 12.1567 25.7997C12.1106 25.7773 12.0876 25.7549 12.0646 25.7325C11.6498 25.5085 11.4195 25.3517 11.4195 25.3517C11.4195 25.3517 12.5253 27.1437 15.4513 27.9949C14.7601 28.846 13.9077 29.854 13.9077 29.854C8.81603 29.6972 6.88073 26.4493 6.88073 26.4493C6.88073 19.2367 10.1984 13.3905 10.1984 13.3905C13.516 10.9714 16.6724 11.0386 16.6724 11.0386L16.9028 11.3074C12.7557 12.4722 10.8435 14.2417 10.8435 14.2417C10.8435 14.2417 11.3503 13.9729 12.2028 13.5921C14.668 12.5394 16.6263 12.2482 17.4327 12.181C17.5709 12.1586 17.6861 12.1362 17.8244 12.1362C19.2297 11.957 20.8195 11.9122 22.4783 12.0914C24.667 12.3378 27.017 12.965 29.4131 14.2417C29.4131 14.2417 27.593 12.5618 23.6763 11.397L23.9989 11.0386C23.9989 11.0386 27.1552 10.9714 30.4729 13.3905C30.4729 13.3905 33.7905 19.2367 33.7905 26.4493C33.7905 26.4493 31.8322 29.6972 26.7405 29.854Z" fill="url(#paint0_linear_1257_1262)"/>
<defs>
<linearGradient id="paint0_linear_1257_1262" x1="20.1974" y1="0.600586" x2="20.1974" y2="45.3991" gradientUnits="userSpaceOnUse">
<stop stop-color="#FF9E59"/>
<stop offset="1" stop-color="#FF7733"/>
</linearGradient>
</defs>
</svg>
