<svg width="28" height="22" viewBox="0 0 28 22" fill="none" xmlns="http://www.w3.org/2000/svg">
<path d="M23.1527 2.54113C26.15 6.97923 27.6302 11.9853 27.0769 17.7484C27.0746 17.7728 27.062 17.7952 27.042 17.8099C24.7722 19.4884 22.5731 20.507 20.4048 21.1826C20.3879 21.1877 20.3699 21.1875 20.3532 21.1818C20.3364 21.1761 20.3219 21.1653 20.3116 21.1508C19.8107 20.4489 19.3555 19.7089 18.9568 18.9318C18.9339 18.886 18.9548 18.8309 19.0019 18.8128C19.7247 18.5386 20.4121 18.2098 21.0733 17.8206C21.1254 17.7898 21.1287 17.7147 21.0806 17.6786C20.9403 17.5737 20.8013 17.4634 20.6682 17.3532C20.6433 17.3328 20.6098 17.3288 20.5816 17.3425C16.2892 19.3387 11.587 19.3387 7.24383 17.3425C7.21563 17.3298 7.18213 17.3341 7.15791 17.3542C7.02521 17.4644 6.88588 17.5737 6.74688 17.6786C6.69877 17.7147 6.70275 17.7898 6.75517 17.8206C7.41634 18.2025 8.10371 18.5386 8.82559 18.8142C8.87237 18.8322 8.89459 18.886 8.87137 18.9318C8.48124 19.7099 8.02608 20.4499 7.51586 21.1518C7.49363 21.1802 7.45714 21.1933 7.42264 21.1826C5.26464 20.507 3.0655 19.4884 0.7957 17.8099C0.77679 17.7952 0.763189 17.7718 0.761198 17.7474C0.298746 12.7624 1.24123 7.71491 4.68176 2.54012C4.69006 2.52643 4.70266 2.51573 4.71726 2.50939C6.41015 1.72694 8.22381 1.15129 10.1194 0.822545C10.1539 0.817199 10.1884 0.833236 10.2063 0.863973C10.4405 1.28159 10.7082 1.81714 10.8894 2.25481C12.8875 1.94744 14.9168 1.94744 16.9567 2.25481C17.1378 1.8265 17.3962 1.28159 17.6294 0.863973C17.6377 0.848724 17.6506 0.836508 17.6662 0.829069C17.6818 0.821629 17.6994 0.819346 17.7164 0.822545C19.6129 1.1523 21.4266 1.72794 23.1182 2.50939C23.1331 2.51573 23.1454 2.52642 23.1527 2.54113ZM11.9052 12.0194C11.9261 10.5457 10.8592 9.32624 9.51993 9.32624C8.19163 9.32624 7.13502 10.535 7.13502 12.0194C7.13502 13.5034 8.21253 14.7122 9.51993 14.7122C10.8486 14.7122 11.9052 13.5034 11.9052 12.0194ZM20.7236 12.0194C20.7445 10.5457 19.6776 9.32624 18.3387 9.32624C17.0101 9.32624 15.9535 10.535 15.9535 12.0194C15.9535 13.5034 17.031 14.7122 18.3387 14.7122C19.6776 14.7122 20.7236 13.5034 20.7236 12.0194Z" fill="#98FEFE"/>
</svg>
