<svg width="19" height="21" viewBox="0 0 19 21" fill="none" xmlns="http://www.w3.org/2000/svg">
<path d="M7.41926 8.89062C6.83297 8.89062 6.37012 9.39062 6.37012 10.0006C6.37012 10.6106 6.84326 11.1106 7.41926 11.1106C8.00555 11.1106 8.4684 10.6106 8.4684 10.0006C8.47869 9.39062 8.00555 8.89062 7.41926 8.89062ZM11.1735 8.89062C10.5873 8.89062 10.1244 9.39062 10.1244 10.0006C10.1244 10.6106 10.5975 11.1106 11.1735 11.1106C11.7598 11.1106 12.2227 10.6106 12.2227 10.0006C12.2227 9.39062 11.7598 8.89062 11.1735 8.89062Z" fill="#FDFDFD"/>
<path d="M16.1727 0.5H2.38982C1.22754 0.5 0.28125 1.42 0.28125 2.56V16.08C0.28125 17.22 1.22754 18.14 2.38982 18.14H14.0538L13.5087 16.29L14.8252 17.48L16.0698 18.6L18.2812 20.5V2.56C18.2812 1.42 17.335 0.5 16.1727 0.5ZM12.2024 13.56C12.2024 13.56 11.8321 13.13 11.5235 12.75C12.871 12.38 13.3853 11.56 13.3853 11.56C12.9635 11.83 12.5624 12.02 12.2024 12.15C11.6881 12.36 11.1944 12.5 10.711 12.58C9.72354 12.76 8.81839 12.71 8.04696 12.57C7.46068 12.46 6.95668 12.3 6.53496 12.14C6.29839 12.05 6.04125 11.94 5.78411 11.8C5.75325 11.78 5.72239 11.77 5.69154 11.75C5.67096 11.74 5.66068 11.73 5.65039 11.72C5.46525 11.62 5.36239 11.55 5.36239 11.55C5.36239 11.55 5.85611 12.35 7.16239 12.73C6.85382 13.11 6.47325 13.56 6.47325 13.56C4.20011 13.49 3.33611 12.04 3.33611 12.04C3.33611 8.82 4.81725 6.21 4.81725 6.21C6.29839 5.13 7.70754 5.16 7.70754 5.16L7.81039 5.28C5.95896 5.8 5.10525 6.59 5.10525 6.59C5.10525 6.59 5.33154 6.47 5.71211 6.3C6.81268 5.83 7.68696 5.7 8.04696 5.67C8.10868 5.66 8.16011 5.65 8.22182 5.65C8.84925 5.57 9.55896 5.55 10.2995 5.63C11.2767 5.74 12.3258 6.02 13.3955 6.59C13.3955 6.59 12.583 5.84 10.8344 5.32L10.9784 5.16C10.9784 5.16 12.3875 5.13 13.8687 6.21C13.8687 6.21 15.3498 8.82 15.3498 12.04C15.3498 12.04 14.4755 13.49 12.2024 13.56Z" fill="#FDFDFD"/>
</svg>
