<svg  xmlns="http://www.w3.org/2000/svg" viewBox="0 0 16 16"><path fill="currentColor" d="M13.434 8.936L12.186 7.93c-.114-.1-.255-.142-.411-.142H8.073v-1.29h2.44c.354 0 .652-.285.652-.654V3.716c0-.354-.284-.652-.653-.652H8.073V1.645c0-.17-.142-.312-.312-.312h-.595c-.17 0-.312.142-.312.312v1.433H3.903c-.142 0-.298.057-.411.142L2.243 4.227c-.312.256-.326.724-.028.993l1.262 1.135c.114.114.27.17.44.17h2.95v1.291H5.166c-.354 0-.652.284-.652.653v2.142c0 .354.283.653.652.653h1.703v2.44H5.705c-.242 0-.426.184-.426.425v.112c0 .241.184.426.425.426h3.702c.241 0 .426-.185.426-.426v-.156c0-.241-.185-.426-.426-.426H8.073v-2.44h3.688c.156 0 .312-.056.44-.17l1.262-1.134c.298-.255.284-.738-.029-.979z" transform="translate(-126 -2719) translate(110 2363) translate(0 102) translate(16 254)"/></svg>
