<svg xmlns="http://www.w3.org/2000/svg" viewBox="0 0 178 440"><path fill="currentColor" d="M930.364 437.273c.753 0 1.363.61 1.363 1.363s-.61 1.364-1.363 1.364-1.364-.61-1.364-1.364c0-.753.61-1.363 1.364-1.363zm-43.637 0c.753 0 1.364.61 1.364 1.363s-.61 1.364-1.364 1.364c-.753 0-1.363-.61-1.363-1.364 0-.753.61-1.363 1.363-1.363zm-43.636 0c.753 0 1.364.61 1.364 1.363S843.844 440 843.09 440c-.753 0-1.364-.61-1.364-1.364 0-.753.61-1.363 1.364-1.363zm-44.546 0c.754 0 1.364.61 1.364 1.363S799.3 440 798.545 440c-.753 0-1.363-.61-1.363-1.364 0-.753.61-1.363 1.363-1.363zm-43.636 0c.753 0 1.364.61 1.364 1.363s-.61 1.364-1.364 1.364c-.753 0-1.364-.61-1.364-1.364 0-.753.611-1.363 1.364-1.363zm-43.636 0c.753 0 1.363.61 1.363 1.363s-.61 1.364-1.363 1.364-1.364-.61-1.364-1.364c0-.753.61-1.363 1.364-1.363zm-43.637 0c.753 0 1.364.61 1.364 1.363s-.61 1.364-1.364 1.364c-.753 0-1.363-.61-1.363-1.364 0-.753.61-1.363 1.363-1.363zm-43.636 0c.753 0 1.364.61 1.364 1.363S624.754 440 624 440c-.753 0-1.364-.61-1.364-1.364 0-.753.61-1.363 1.364-1.363zm-43.636 0c.753 0 1.363.61 1.363 1.363s-.61 1.364-1.363 1.364-1.364-.61-1.364-1.364c0-.753.61-1.363 1.364-1.363zm350-43.637c.753 0 1.363.61 1.363 1.364 0 .753-.61 1.364-1.363 1.364S929 395.754 929 395c0-.753.61-1.364 1.364-1.364zm-43.637 0c.753 0 1.364.61 1.364 1.364 0 .753-.61 1.364-1.364 1.364-.753 0-1.363-.61-1.363-1.364 0-.753.61-1.364 1.363-1.364zm-43.636 0c.753 0 1.364.61 1.364 1.364 0 .753-.611 1.364-1.364 1.364-.753 0-1.364-.61-1.364-1.364 0-.753.61-1.364 1.364-1.364zm-44.546 0c.754 0 1.364.61 1.364 1.364 0 .753-.61 1.364-1.364 1.364-.753 0-1.363-.61-1.363-1.364 0-.753.61-1.364 1.363-1.364zm-43.636 0c.753 0 1.364.61 1.364 1.364 0 .753-.61 1.364-1.364 1.364-.753 0-1.364-.61-1.364-1.364 0-.753.611-1.364 1.364-1.364zm-43.636 0c.753 0 1.363.61 1.363 1.364 0 .753-.61 1.364-1.363 1.364s-1.364-.61-1.364-1.364c0-.753.61-1.364 1.364-1.364zm-43.637 0c.753 0 1.364.61 1.364 1.364 0 .753-.61 1.364-1.364 1.364-.753 0-1.363-.61-1.363-1.364 0-.753.61-1.364 1.363-1.364zm-43.636 0c.753 0 1.364.61 1.364 1.364 0 .753-.61 1.364-1.364 1.364-.753 0-1.364-.61-1.364-1.364 0-.753.61-1.364 1.364-1.364zm-43.636 0c.753 0 1.363.61 1.363 1.364 0 .753-.61 1.364-1.363 1.364S579 395.754 579 395c0-.753.61-1.364 1.364-1.364zM624 350c.753 0 1.364.61 1.364 1.364 0 .753-.61 1.363-1.364 1.363-.753 0-1.364-.61-1.364-1.363S623.246 350 624 350zm-43.636 0c.753 0 1.363.61 1.363 1.364 0 .753-.61 1.363-1.363 1.363s-1.364-.61-1.364-1.363.61-1.364 1.364-1.364zm350 0c.753 0 1.363.61 1.363 1.364 0 .753-.61 1.363-1.363 1.363s-1.364-.61-1.364-1.363.61-1.364 1.364-1.364zm-43.637 0c.753 0 1.364.61 1.364 1.364 0 .753-.61 1.363-1.364 1.363-.753 0-1.363-.61-1.363-1.363s.61-1.364 1.363-1.364zm-43.636 0c.753 0 1.364.61 1.364 1.364 0 .753-.611 1.363-1.364 1.363-.753 0-1.364-.61-1.364-1.363s.61-1.364 1.364-1.364zm-44.546 0c.754 0 1.364.61 1.364 1.364 0 .753-.61 1.363-1.364 1.363-.753 0-1.363-.61-1.363-1.363s.61-1.364 1.363-1.364zm-43.636 0c.753 0 1.364.61 1.364 1.364 0 .753-.61 1.363-1.364 1.363-.753 0-1.364-.61-1.364-1.363s.611-1.364 1.364-1.364zm-43.636 0c.753 0 1.363.61 1.363 1.364 0 .753-.61 1.363-1.363 1.363s-1.364-.61-1.364-1.363.61-1.364 1.364-1.364zm-43.637 0c.753 0 1.364.61 1.364 1.364 0 .753-.61 1.363-1.364 1.363-.753 0-1.363-.61-1.363-1.363s.61-1.364 1.363-1.364zm262.728-43.636c.753 0 1.363.61 1.363 1.363s-.61 1.364-1.363 1.364-1.364-.61-1.364-1.364c0-.753.61-1.363 1.364-1.363zm-350 0c.753 0 1.363.61 1.363 1.363s-.61 1.364-1.363 1.364-1.364-.61-1.364-1.364c0-.753.61-1.363 1.364-1.363zm306.363 0c.753 0 1.364.61 1.364 1.363s-.61 1.364-1.364 1.364c-.753 0-1.363-.61-1.363-1.364 0-.753.61-1.363 1.363-1.363zm-43.636 0c.753 0 1.364.61 1.364 1.363s-.611 1.364-1.364 1.364c-.753 0-1.364-.61-1.364-1.364 0-.753.61-1.363 1.364-1.363zm-44.546 0c.754 0 1.364.61 1.364 1.363s-.61 1.364-1.364 1.364c-.753 0-1.363-.61-1.363-1.364 0-.753.61-1.363 1.363-1.363zm-43.636 0c.753 0 1.364.61 1.364 1.363s-.61 1.364-1.364 1.364c-.753 0-1.364-.61-1.364-1.364 0-.753.611-1.363 1.364-1.363zm-43.636 0c.753 0 1.363.61 1.363 1.363s-.61 1.364-1.363 1.364-1.364-.61-1.364-1.364c0-.753.61-1.363 1.364-1.363zm-43.637 0c.753 0 1.364.61 1.364 1.363s-.61 1.364-1.364 1.364c-.753 0-1.363-.61-1.363-1.364 0-.753.61-1.363 1.363-1.363zm-43.636 0c.753 0 1.364.61 1.364 1.363s-.61 1.364-1.364 1.364c-.753 0-1.364-.61-1.364-1.364 0-.753.61-1.363 1.364-1.363zm306.364-43.637c.753 0 1.363.61 1.363 1.364 0 .753-.61 1.364-1.363 1.364S929 264.844 929 264.09c0-.753.61-1.364 1.364-1.364zm-87.273 0c.753 0 1.364.61 1.364 1.364 0 .753-.611 1.364-1.364 1.364-.753 0-1.364-.611-1.364-1.364 0-.753.61-1.364 1.364-1.364zm-44.546 0c.754 0 1.364.61 1.364 1.364 0 .753-.61 1.364-1.364 1.364-.753 0-1.363-.611-1.363-1.364 0-.753.61-1.364 1.363-1.364zm-43.636 0c.753 0 1.364.61 1.364 1.364 0 .753-.61 1.364-1.364 1.364-.753 0-1.364-.611-1.364-1.364 0-.753.611-1.364 1.364-1.364zm-43.636 0c.753 0 1.363.61 1.363 1.364 0 .753-.61 1.364-1.363 1.364s-1.364-.611-1.364-1.364c0-.753.61-1.364 1.364-1.364zm-43.637 0c.753 0 1.364.61 1.364 1.364 0 .753-.61 1.364-1.364 1.364-.753 0-1.363-.611-1.363-1.364 0-.753.61-1.364 1.363-1.364zm-43.636 0c.753 0 1.364.61 1.364 1.364 0 .753-.61 1.364-1.364 1.364-.753 0-1.364-.611-1.364-1.364 0-.753.61-1.364 1.364-1.364zm-43.636 0c.753 0 1.363.61 1.363 1.364 0 .753-.61 1.364-1.363 1.364S579 264.844 579 264.09c0-.753.61-1.364 1.364-1.364zm306.363 0c.753 0 1.364.61 1.364 1.364 0 .753-.61 1.364-1.364 1.364-.753 0-1.363-.611-1.363-1.364 0-.753.61-1.364 1.363-1.364zM624 219.091c.753 0 1.364.61 1.364 1.364 0 .753-.61 1.363-1.364 1.363-.753 0-1.364-.61-1.364-1.363 0-.754.61-1.364 1.364-1.364zm306.364 0c.753 0 1.363.61 1.363 1.364 0 .753-.61 1.363-1.363 1.363s-1.364-.61-1.364-1.363c0-.754.61-1.364 1.364-1.364zm-87.273 0c.753 0 1.364.61 1.364 1.364 0 .753-.611 1.363-1.364 1.363-.753 0-1.364-.61-1.364-1.363 0-.754.61-1.364 1.364-1.364zm-88.182 0c.753 0 1.364.61 1.364 1.364 0 .753-.61 1.363-1.364 1.363-.753 0-1.364-.61-1.364-1.363 0-.754.611-1.364 1.364-1.364zm-87.273 0c.753 0 1.364.61 1.364 1.364 0 .753-.61 1.363-1.364 1.363-.753 0-1.363-.61-1.363-1.363 0-.754.61-1.364 1.363-1.364zm-87.272 0c.753 0 1.363.61 1.363 1.364 0 .753-.61 1.363-1.363 1.363s-1.364-.61-1.364-1.363c0-.754.61-1.364 1.364-1.364zm218.181 0c.754 0 1.364.61 1.364 1.364 0 .753-.61 1.363-1.364 1.363-.753 0-1.363-.61-1.363-1.363 0-.754.61-1.364 1.363-1.364zm88.182 0c.753 0 1.364.61 1.364 1.364 0 .753-.61 1.363-1.364 1.363-.753 0-1.363-.61-1.363-1.363 0-.754.61-1.364 1.363-1.364zm-175.454 0c.753 0 1.363.61 1.363 1.364 0 .753-.61 1.363-1.363 1.363s-1.364-.61-1.364-1.363c0-.754.61-1.364 1.364-1.364zm87.272-43.636c.754 0 1.364.61 1.364 1.363s-.61 1.364-1.364 1.364c-.753 0-1.363-.61-1.363-1.364 0-.753.61-1.363 1.363-1.363zm-174.545 0c.753 0 1.364.61 1.364 1.363s-.61 1.364-1.364 1.364c-.753 0-1.364-.61-1.364-1.364 0-.753.61-1.363 1.364-1.363zm219.09 0c.754 0 1.365.61 1.365 1.363s-.611 1.364-1.364 1.364c-.753 0-1.364-.61-1.364-1.364 0-.753.61-1.363 1.364-1.363zm43.637 0c.753 0 1.364.61 1.364 1.363s-.61 1.364-1.364 1.364c-.753 0-1.363-.61-1.363-1.364 0-.753.61-1.363 1.363-1.363zm-219.09 0c.752 0 1.363.61 1.363 1.363s-.61 1.364-1.364 1.364c-.753 0-1.363-.61-1.363-1.364 0-.753.61-1.363 1.363-1.363zm43.636 0c.753 0 1.363.61 1.363 1.363s-.61 1.364-1.363 1.364-1.364-.61-1.364-1.364c0-.753.61-1.363 1.364-1.363zm43.636 0c.753 0 1.364.61 1.364 1.363s-.61 1.364-1.364 1.364c-.753 0-1.364-.61-1.364-1.364 0-.753.611-1.363 1.364-1.363zm-174.545 0c.753 0 1.363.61 1.363 1.363s-.61 1.364-1.363 1.364-1.364-.61-1.364-1.364c0-.753.61-1.363 1.364-1.363zm350 0c.753 0 1.363.61 1.363 1.363s-.61 1.364-1.363 1.364-1.364-.61-1.364-1.364c0-.753.61-1.363 1.364-1.363zm-131.819-43.637c.754 0 1.364.61 1.364 1.364 0 .753-.61 1.363-1.364 1.363-.753 0-1.363-.61-1.363-1.363s.61-1.364 1.363-1.364zm-174.545 0c.753 0 1.364.61 1.364 1.364 0 .753-.61 1.363-1.364 1.363-.753 0-1.364-.61-1.364-1.363s.61-1.364 1.364-1.364zm219.09 0c.754 0 1.365.61 1.365 1.364 0 .753-.611 1.363-1.364 1.363-.753 0-1.364-.61-1.364-1.363s.61-1.364 1.364-1.364zm43.637 0c.753 0 1.364.61 1.364 1.364 0 .753-.61 1.363-1.364 1.363-.753 0-1.363-.61-1.363-1.363s.61-1.364 1.363-1.364zm-219.09 0c.752 0 1.363.61 1.363 1.364 0 .753-.61 1.363-1.364 1.363-.753 0-1.363-.61-1.363-1.363s.61-1.364 1.363-1.364zm43.636 0c.753 0 1.363.61 1.363 1.364 0 .753-.61 1.363-1.363 1.363s-1.364-.61-1.364-1.363.61-1.364 1.364-1.364zm43.636 0c.753 0 1.364.61 1.364 1.364 0 .753-.61 1.363-1.364 1.363-.753 0-1.364-.61-1.364-1.363s.611-1.364 1.364-1.364zm-174.545 0c.753 0 1.363.61 1.363 1.364 0 .753-.61 1.363-1.363 1.363s-1.364-.61-1.364-1.363.61-1.364 1.364-1.364zm350 0c.753 0 1.363.61 1.363 1.364 0 .753-.61 1.363-1.363 1.363s-1.364-.61-1.364-1.363.61-1.364 1.364-1.364zM798.545 87.273c.754 0 1.364.61 1.364 1.363S799.3 90 798.545 90c-.753 0-1.363-.61-1.363-1.364 0-.753.61-1.363 1.363-1.363zm88.182 0c.753 0 1.364.61 1.364 1.363S887.48 90 886.727 90c-.753 0-1.363-.61-1.363-1.364 0-.753.61-1.363 1.363-1.363zm-43.636 0c.753 0 1.364.61 1.364 1.363S843.844 90 843.09 90c-.753 0-1.364-.61-1.364-1.364 0-.753.61-1.363 1.364-1.363zm87.273 0c.753 0 1.363.61 1.363 1.363S931.117 90 930.364 90 929 89.39 929 88.636c0-.753.61-1.363 1.364-1.363zm-175.455 0c.753 0 1.364.61 1.364 1.363S755.663 90 754.909 90c-.753 0-1.364-.61-1.364-1.364 0-.753.611-1.363 1.364-1.363zm-174.545 0c.753 0 1.363.61 1.363 1.363S581.117 90 580.364 90 579 89.39 579 88.636c0-.753.61-1.363 1.364-1.363zm43.636 0c.753 0 1.364.61 1.364 1.363S624.754 90 624 90c-.753 0-1.364-.61-1.364-1.364 0-.753.61-1.363 1.364-1.363zm87.273 0c.753 0 1.363.61 1.363 1.363S712.026 90 711.273 90s-1.364-.61-1.364-1.364c0-.753.61-1.363 1.364-1.363zm-43.637 0c.753 0 1.364.61 1.364 1.363S668.39 90 667.636 90c-.753 0-1.363-.61-1.363-1.364 0-.753.61-1.363 1.363-1.363zm-87.272-43.637c.753 0 1.363.61 1.363 1.364 0 .753-.61 1.364-1.363 1.364S579 45.754 579 45c0-.753.61-1.364 1.364-1.364zm43.636 0c.753 0 1.364.61 1.364 1.364 0 .753-.61 1.364-1.364 1.364-.753 0-1.364-.61-1.364-1.364 0-.753.61-1.364 1.364-1.364zm174.545 0c.754 0 1.364.61 1.364 1.364 0 .753-.61 1.364-1.364 1.364-.753 0-1.363-.61-1.363-1.364 0-.753.61-1.364 1.363-1.364zm-43.636 0c.753 0 1.364.61 1.364 1.364 0 .753-.61 1.364-1.364 1.364-.753 0-1.364-.61-1.364-1.364 0-.753.611-1.364 1.364-1.364zm88.182 0c.753 0 1.364.61 1.364 1.364 0 .753-.611 1.364-1.364 1.364-.753 0-1.364-.61-1.364-1.364 0-.753.61-1.364 1.364-1.364zm-131.818 0c.753 0 1.363.61 1.363 1.364 0 .753-.61 1.364-1.363 1.364s-1.364-.61-1.364-1.364c0-.753.61-1.364 1.364-1.364zm175.454 0c.753 0 1.364.61 1.364 1.364 0 .753-.61 1.364-1.364 1.364-.753 0-1.363-.61-1.363-1.364 0-.753.61-1.364 1.363-1.364zm-219.09 0c.752 0 1.363.61 1.363 1.364 0 .753-.61 1.364-1.364 1.364-.753 0-1.363-.61-1.363-1.364 0-.753.61-1.364 1.363-1.364zm262.727 0c.753 0 1.363.61 1.363 1.364 0 .753-.61 1.364-1.363 1.364S929 45.754 929 45c0-.753.61-1.364 1.364-1.364zm0-43.636c.753 0 1.363.61 1.363 1.364 0 .753-.61 1.363-1.363 1.363S929 2.117 929 1.364 929.61 0 930.364 0zm-43.637 0c.753 0 1.364.61 1.364 1.364 0 .753-.61 1.363-1.364 1.363-.753 0-1.363-.61-1.363-1.363S885.974 0 886.727 0zm-43.636 0c.753 0 1.364.61 1.364 1.364 0 .753-.611 1.363-1.364 1.363-.753 0-1.364-.61-1.364-1.363S842.337 0 843.091 0zm-44.546 0c.754 0 1.364.61 1.364 1.364 0 .753-.61 1.363-1.364 1.363-.753 0-1.363-.61-1.363-1.363S797.792 0 798.545 0zM754.91 0c.753 0 1.364.61 1.364 1.364 0 .753-.61 1.363-1.364 1.363-.753 0-1.364-.61-1.364-1.363S754.156 0 754.91 0zm-43.636 0c.753 0 1.363.61 1.363 1.364 0 .753-.61 1.363-1.363 1.363s-1.364-.61-1.364-1.363S710.52 0 711.273 0zm-43.637 0C668.39 0 669 .61 669 1.364c0 .753-.61 1.363-1.364 1.363-.753 0-1.363-.61-1.363-1.363S666.883 0 667.636 0zM624 0c.753 0 1.364.61 1.364 1.364 0 .753-.61 1.363-1.364 1.363-.753 0-1.364-.61-1.364-1.363S623.246 0 624 0zm-43.636 0c.753 0 1.363.61 1.363 1.364 0 .753-.61 1.363-1.363 1.363S579 2.117 579 1.364 579.61 0 580.364 0z" transform="translate(-1381 -90) translate(0 90) translate(802)"/></svg>
