<svg xmlns="http://www.w3.org/2000/svg" viewBox="0 0 353 440"><path d="M351.364 437.273c.753 0 1.363.61 1.363 1.363s-.61 1.364-1.363 1.364-1.364-.61-1.364-1.364.61-1.363 1.364-1.363zm-43.637 0c.753 0 1.364.61 1.364 1.363s-.61 1.364-1.364 1.364-1.363-.61-1.363-1.364.61-1.363 1.363-1.363zm-43.636 0c.753 0 1.364.61 1.364 1.363s-.611 1.364-1.364 1.364-1.364-.61-1.364-1.364.61-1.363 1.364-1.363zm-44.546 0c.754 0 1.364.61 1.364 1.363s-.61 1.364-1.364 1.364-1.363-.61-1.363-1.364.61-1.363 1.363-1.363zm-43.636 0c.753 0 1.364.61 1.364 1.363s-.61 1.364-1.364 1.364-1.364-.61-1.364-1.364.611-1.363 1.364-1.363zm-43.636 0c.753 0 1.363.61 1.363 1.363s-.61 1.364-1.363 1.364-1.364-.61-1.364-1.364.61-1.363 1.364-1.363zm-43.637 0c.753 0 1.364.61 1.364 1.363S89.39 440 88.636 440s-1.363-.61-1.363-1.364.61-1.363 1.363-1.363zm-43.636 0c.753 0 1.364.61 1.364 1.363S45.754 440 45 440s-1.364-.61-1.364-1.364.61-1.363 1.364-1.363zm-43.636 0c.753 0 1.363.61 1.363 1.363S2.117 440 1.364 440 0 439.39 0 438.636s.61-1.363 1.364-1.363zm350-43.637c.753 0 1.363.61 1.363 1.364s-.61 1.364-1.363 1.364S350 395.754 350 395s.61-1.364 1.364-1.364zm-43.637 0c.753 0 1.364.61 1.364 1.364s-.61 1.364-1.364 1.364-1.363-.61-1.363-1.364.61-1.364 1.363-1.364zm-43.636 0c.753 0 1.364.61 1.364 1.364s-.611 1.364-1.364 1.364-1.364-.61-1.364-1.364.61-1.364 1.364-1.364zm-44.546 0c.754 0 1.364.61 1.364 1.364s-.61 1.364-1.364 1.364-1.363-.61-1.363-1.364.61-1.364 1.363-1.364zm-43.636 0c.753 0 1.364.61 1.364 1.364s-.61 1.364-1.364 1.364-1.364-.61-1.364-1.364.611-1.364 1.364-1.364zm-43.636 0c.753 0 1.363.61 1.363 1.364s-.61 1.364-1.363 1.364-1.364-.61-1.364-1.364.61-1.364 1.364-1.364zm-43.637 0c.753 0 1.364.61 1.364 1.364s-.61 1.364-1.364 1.364-1.363-.61-1.363-1.364.61-1.364 1.363-1.364zm-43.636 0c.753 0 1.364.61 1.364 1.364s-.61 1.364-1.364 1.364-1.364-.61-1.364-1.364.61-1.364 1.364-1.364zm-43.636 0c.753 0 1.363.61 1.363 1.364s-.61 1.364-1.363 1.364S0 395.754 0 395s.61-1.364 1.364-1.364zM45 350c.753 0 1.364.61 1.364 1.364s-.61 1.363-1.364 1.363-1.364-.61-1.364-1.363S44.246 350 45 350zm-43.636 0c.753 0 1.363.61 1.363 1.364s-.61 1.363-1.363 1.363S0 352.117 0 351.364.61 350 1.364 350zm350 0c.753 0 1.363.61 1.363 1.364s-.61 1.363-1.363 1.363-1.364-.61-1.364-1.363.61-1.364 1.364-1.364zm-43.637 0c.753 0 1.364.61 1.364 1.364s-.61 1.363-1.364 1.363-1.363-.61-1.363-1.363.61-1.364 1.363-1.364zm-43.636 0c.753 0 1.364.61 1.364 1.364s-.611 1.363-1.364 1.363-1.364-.61-1.364-1.363.61-1.364 1.364-1.364zm-44.546 0c.754 0 1.364.61 1.364 1.364s-.61 1.363-1.364 1.363-1.363-.61-1.363-1.363.61-1.364 1.363-1.364zm-43.636 0c.753 0 1.364.61 1.364 1.364s-.61 1.363-1.364 1.363-1.364-.61-1.364-1.363.611-1.364 1.364-1.364zm-43.636 0c.753 0 1.363.61 1.363 1.364s-.61 1.363-1.363 1.363-1.364-.61-1.364-1.363.61-1.364 1.364-1.364zm-43.637 0c.753 0 1.364.61 1.364 1.364s-.61 1.363-1.364 1.363-1.363-.61-1.363-1.363.61-1.364 1.363-1.364zm262.728-43.636c.753 0 1.363.61 1.363 1.363s-.61 1.364-1.363 1.364-1.364-.61-1.364-1.364.61-1.363 1.364-1.363zm-350 0c.753 0 1.363.61 1.363 1.363s-.61 1.364-1.363 1.364S0 308.481 0 307.727s.61-1.363 1.364-1.363zm306.363 0c.753 0 1.364.61 1.364 1.363s-.61 1.364-1.364 1.364-1.363-.61-1.363-1.364.61-1.363 1.363-1.363zm-43.636 0c.753 0 1.364.61 1.364 1.363s-.611 1.364-1.364 1.364-1.364-.61-1.364-1.364.61-1.363 1.364-1.363zm-44.546 0c.754 0 1.364.61 1.364 1.363s-.61 1.364-1.364 1.364-1.363-.61-1.363-1.364.61-1.363 1.363-1.363zm-43.636 0c.753 0 1.364.61 1.364 1.363s-.61 1.364-1.364 1.364-1.364-.61-1.364-1.364.611-1.363 1.364-1.363zm-43.636 0c.753 0 1.363.61 1.363 1.363s-.61 1.364-1.363 1.364-1.364-.61-1.364-1.364.61-1.363 1.364-1.363zm-43.637 0c.753 0 1.364.61 1.364 1.363s-.61 1.364-1.364 1.364-1.363-.61-1.363-1.364.61-1.363 1.363-1.363zm-43.636 0c.753 0 1.364.61 1.364 1.363s-.61 1.364-1.364 1.364-1.364-.61-1.364-1.364.61-1.363 1.364-1.363zm306.364-43.637c.753 0 1.363.61 1.363 1.364s-.61 1.364-1.363 1.364-1.364-.611-1.364-1.364.61-1.364 1.364-1.364zm-87.273 0c.753 0 1.364.61 1.364 1.364s-.611 1.364-1.364 1.364-1.364-.611-1.364-1.364.61-1.364 1.364-1.364zm-44.546 0c.754 0 1.364.61 1.364 1.364s-.61 1.364-1.364 1.364-1.363-.611-1.363-1.364.61-1.364 1.363-1.364zm-43.636 0c.753 0 1.364.61 1.364 1.364s-.61 1.364-1.364 1.364-1.364-.611-1.364-1.364.611-1.364 1.364-1.364zm-43.636 0c.753 0 1.363.61 1.363 1.364s-.61 1.364-1.363 1.364-1.364-.611-1.364-1.364.61-1.364 1.364-1.364zm-43.637 0c.753 0 1.364.61 1.364 1.364s-.61 1.364-1.364 1.364-1.363-.611-1.363-1.364.61-1.364 1.363-1.364zm-43.636 0c.753 0 1.364.61 1.364 1.364s-.61 1.364-1.364 1.364-1.364-.611-1.364-1.364.61-1.364 1.364-1.364zm-43.636 0c.753 0 1.363.61 1.363 1.364s-.61 1.364-1.363 1.364S0 264.844 0 264.09s.61-1.364 1.364-1.364zm306.363 0c.753 0 1.364.61 1.364 1.364s-.61 1.364-1.364 1.364-1.363-.611-1.363-1.364.61-1.364 1.363-1.364zM45 219.091c.753 0 1.364.61 1.364 1.364s-.61 1.363-1.364 1.363-1.364-.61-1.364-1.363.61-1.364 1.364-1.364zm306.364 0c.753 0 1.363.61 1.363 1.364s-.61 1.363-1.363 1.363-1.364-.61-1.364-1.363.61-1.364 1.364-1.364zm-87.273 0c.753 0 1.364.61 1.364 1.364s-.611 1.363-1.364 1.363-1.364-.61-1.364-1.363.61-1.364 1.364-1.364zm-88.182 0c.753 0 1.364.61 1.364 1.364s-.61 1.363-1.364 1.363-1.364-.61-1.364-1.363.611-1.364 1.364-1.364zm-87.273 0c.753 0 1.364.61 1.364 1.364s-.61 1.363-1.364 1.363-1.363-.61-1.363-1.363.61-1.364 1.363-1.364zm-87.272 0c.753 0 1.363.61 1.363 1.364s-.61 1.363-1.363 1.363S0 221.208 0 220.455s.61-1.364 1.364-1.364zm218.181 0c.754 0 1.364.61 1.364 1.364s-.61 1.363-1.364 1.363-1.363-.61-1.363-1.363.61-1.364 1.363-1.364zm88.182 0c.753 0 1.364.61 1.364 1.364s-.61 1.363-1.364 1.363-1.363-.61-1.363-1.363.61-1.364 1.363-1.364zm-175.454 0c.753 0 1.363.61 1.363 1.364s-.61 1.363-1.363 1.363-1.364-.61-1.364-1.363.61-1.364 1.364-1.364zm87.272-43.636c.754 0 1.364.61 1.364 1.363s-.61 1.364-1.364 1.364-1.363-.61-1.363-1.364.61-1.363 1.363-1.363zm-174.545 0c.753 0 1.364.61 1.364 1.363s-.61 1.364-1.364 1.364-1.364-.61-1.364-1.364.61-1.363 1.364-1.363zm219.09 0c.754 0 1.365.61 1.365 1.363s-.611 1.364-1.364 1.364-1.364-.61-1.364-1.364.61-1.363 1.364-1.363zm43.637 0c.753 0 1.364.61 1.364 1.363s-.61 1.364-1.364 1.364-1.363-.61-1.363-1.364.61-1.363 1.363-1.363zm-219.09 0c.752 0 1.363.61 1.363 1.363s-.61 1.364-1.364 1.364-1.363-.61-1.363-1.364.61-1.363 1.363-1.363zm43.636 0c.753 0 1.363.61 1.363 1.363s-.61 1.364-1.363 1.364-1.364-.61-1.364-1.364.61-1.363 1.364-1.363zm43.636 0c.753 0 1.364.61 1.364 1.363s-.61 1.364-1.364 1.364-1.364-.61-1.364-1.364.611-1.363 1.364-1.363zm-174.545 0c.753 0 1.363.61 1.363 1.363s-.61 1.364-1.363 1.364S0 177.572 0 176.818s.61-1.363 1.364-1.363zm350 0c.753 0 1.363.61 1.363 1.363s-.61 1.364-1.363 1.364-1.364-.61-1.364-1.364.61-1.363 1.364-1.363zm-131.819-43.637c.754 0 1.364.61 1.364 1.364s-.61 1.363-1.364 1.363-1.363-.61-1.363-1.363.61-1.364 1.363-1.364zm-174.545 0c.753 0 1.364.61 1.364 1.364s-.61 1.363-1.364 1.363-1.364-.61-1.364-1.363.61-1.364 1.364-1.364zm219.09 0c.754 0 1.365.61 1.365 1.364s-.611 1.363-1.364 1.363-1.364-.61-1.364-1.363.61-1.364 1.364-1.364zm43.637 0c.753 0 1.364.61 1.364 1.364s-.61 1.363-1.364 1.363-1.363-.61-1.363-1.363.61-1.364 1.363-1.364zm-219.09 0c.752 0 1.363.61 1.363 1.364s-.61 1.363-1.364 1.363-1.363-.61-1.363-1.363.61-1.364 1.363-1.364zm43.636 0c.753 0 1.363.61 1.363 1.364s-.61 1.363-1.363 1.363-1.364-.61-1.364-1.363.61-1.364 1.364-1.364zm43.636 0c.753 0 1.364.61 1.364 1.364s-.61 1.363-1.364 1.363-1.364-.61-1.364-1.363.611-1.364 1.364-1.364zm-174.545 0c.753 0 1.363.61 1.363 1.364s-.61 1.363-1.363 1.363S0 133.935 0 133.182s.61-1.364 1.364-1.364zm350 0c.753 0 1.363.61 1.363 1.364s-.61 1.363-1.363 1.363-1.364-.61-1.364-1.363.61-1.364 1.364-1.364zM219.545 87.273c.754 0 1.364.61 1.364 1.363S220.3 90 219.545 90s-1.363-.61-1.363-1.364.61-1.363 1.363-1.363zm88.182 0c.753 0 1.364.61 1.364 1.363S308.481 90 307.727 90s-1.363-.61-1.363-1.364.61-1.363 1.363-1.363zm-43.636 0c.753 0 1.364.61 1.364 1.363S264.844 90 264.09 90s-1.364-.61-1.364-1.364.61-1.363 1.364-1.363zm87.273 0c.753 0 1.363.61 1.363 1.363S352.117 90 351.364 90 350 89.39 350 88.636s.61-1.363 1.364-1.363zm-175.455 0c.753 0 1.364.61 1.364 1.363S176.663 90 175.909 90s-1.364-.61-1.364-1.364.611-1.363 1.364-1.363zm-174.545 0c.753 0 1.363.61 1.363 1.363S2.117 90 1.364 90 0 89.39 0 88.636s.61-1.363 1.364-1.363zm43.636 0c.753 0 1.364.61 1.364 1.363S45.754 90 45 90s-1.364-.61-1.364-1.364.61-1.363 1.364-1.363zm87.273 0c.753 0 1.363.61 1.363 1.363S133.026 90 132.273 90s-1.364-.61-1.364-1.364.61-1.363 1.364-1.363zm-43.637 0c.753 0 1.364.61 1.364 1.363S89.39 90 88.636 90s-1.363-.61-1.363-1.364.61-1.363 1.363-1.363zM1.364 43.636c.753 0 1.363.61 1.363 1.364s-.61 1.364-1.363 1.364S0 45.754 0 45s.61-1.364 1.364-1.364zm43.636 0c.753 0 1.364.61 1.364 1.364s-.61 1.364-1.364 1.364-1.364-.61-1.364-1.364.61-1.364 1.364-1.364zm174.545 0c.754 0 1.364.61 1.364 1.364s-.61 1.364-1.364 1.364-1.363-.61-1.363-1.364.61-1.364 1.363-1.364zm-43.636 0c.753 0 1.364.61 1.364 1.364s-.61 1.364-1.364 1.364-1.364-.61-1.364-1.364.611-1.364 1.364-1.364zm88.182 0c.753 0 1.364.61 1.364 1.364s-.611 1.364-1.364 1.364-1.364-.61-1.364-1.364.61-1.364 1.364-1.364zm-131.818 0c.753 0 1.363.61 1.363 1.364s-.61 1.364-1.363 1.364-1.364-.61-1.364-1.364.61-1.364 1.364-1.364zm175.454 0c.753 0 1.364.61 1.364 1.364s-.61 1.364-1.364 1.364-1.363-.61-1.363-1.364.61-1.364 1.363-1.364zm-219.09 0c.752 0 1.363.61 1.363 1.364s-.61 1.364-1.364 1.364-1.363-.61-1.363-1.364.61-1.364 1.363-1.364zm262.727 0c.753 0 1.363.61 1.363 1.364s-.61 1.364-1.363 1.364S350 45.754 350 45s.61-1.364 1.364-1.364zm0-43.636c.753 0 1.363.61 1.363 1.364s-.61 1.363-1.363 1.363S350 2.117 350 1.364 350.61 0 351.364 0zm-43.637 0c.753 0 1.364.61 1.364 1.364s-.61 1.363-1.364 1.363-1.363-.61-1.363-1.363S306.974 0 307.727 0zm-43.636 0c.753 0 1.364.61 1.364 1.364s-.611 1.363-1.364 1.363-1.364-.61-1.364-1.363S263.337 0 264.091 0zm-44.546 0c.754 0 1.364.61 1.364 1.364s-.61 1.363-1.364 1.363-1.363-.61-1.363-1.363S218.792 0 219.545 0zm-43.636 0c.753 0 1.364.61 1.364 1.364s-.61 1.363-1.364 1.363-1.364-.61-1.364-1.363S175.156 0 175.91 0zm-43.636 0c.753 0 1.363.61 1.363 1.364s-.61 1.363-1.363 1.363-1.364-.61-1.364-1.363S131.52 0 132.273 0zM88.636 0C89.39 0 90 .61 90 1.364s-.61 1.363-1.364 1.363-1.363-.61-1.363-1.363S87.883 0 88.636 0zM45 0c.753 0 1.364.61 1.364 1.364S45.754 2.727 45 2.727s-1.364-.61-1.364-1.363S44.246 0 45 0zM1.364 0c.753 0 1.363.61 1.363 1.364s-.61 1.363-1.363 1.363S0 2.117 0 1.364.61 0 1.364 0z" fill="#FDFDFD" fill-rule="evenodd"/></svg>