<svg width="5" height="5" viewBox="0 0 5 5" fill="none" xmlns="http://www.w3.org/2000/svg">
<path d="M2.23624 4.49006C1.8352 4.49006 1.46896 4.39228 1.13752 4.19673C0.806078 3.99787 0.540927 3.73272 0.342063 3.40128C0.146514 3.06984 0.0487394 2.7036 0.0487394 2.30256C0.0487394 1.8982 0.146514 1.53196 0.342063 1.20384C0.540927 0.872396 0.806078 0.608901 1.13752 0.413352C1.46896 0.214488 1.8352 0.115057 2.23624 0.115057C2.6406 0.115057 3.00684 0.214488 3.33496 0.413352C3.6664 0.608901 3.92989 0.872396 4.12544 1.20384C4.32431 1.53196 4.42374 1.8982 4.42374 2.30256C4.42374 2.7036 4.32431 3.06984 4.12544 3.40128C3.92989 3.73272 3.6664 3.99787 3.33496 4.19673C3.00684 4.39228 2.6406 4.49006 2.23624 4.49006Z" fill="white"/>
</svg>
