<svg viewBox="0 0 26 26" fill="none" xmlns="http://www.w3.org/2000/svg"><g stroke="currentColor" stroke-linecap="round" stroke-linejoin="round" stroke-width="2"><path d="M18.6109 4.39932L21.601 7.38805L18.6109 4.39932ZM20.5337 1.76635L12.4485 9.85161C12.0307 10.2688 11.7458 10.8003 11.6296 11.3792L10.8828 15.1175L14.6212 14.3693C15.2 14.2535 15.7309 13.9698 16.1487 13.5519L24.234 5.46662C24.477 5.22366 24.6697 4.93522 24.8012 4.61777C24.9327 4.30033 25.0004 3.96009 25.0004 3.61649C25.0004 3.27289 24.9327 2.93265 24.8012 2.6152C24.6697 2.29775 24.477 2.00931 24.234 1.76635C23.991 1.52339 23.7026 1.33066 23.3852 1.19917C23.0677 1.06768 22.7275 1 22.3839 1C22.0403 1 21.7 1.06768 21.3826 1.19917C21.0651 1.33066 20.7767 1.52339 20.5337 1.76635V1.76635Z" /><path d="M22.1767 17.941V22.1764C22.1767 22.9252 21.8792 23.6434 21.3497 24.1729C20.8202 24.7024 20.102 24.9999 19.3531 24.9999H3.82356C3.0747 24.9999 2.35652 24.7024 1.827 24.1729C1.29748 23.6434 1 22.9252 1 22.1764V6.6468C1 5.89795 1.29748 5.17976 1.827 4.65024C2.35652 4.12072 3.0747 3.82324 3.82356 3.82324H8.05889" /></g></svg>