<svg width="28" height="21" viewBox="0 0 28 21" fill="none" xmlns="http://www.w3.org/2000/svg">
<path fill-rule="evenodd" clip-rule="evenodd" d="M10.0406 12.3676L14.0026 15.0766L17.8218 12.4418L26.3828 20.888C26.1574 20.9608 25.9166 21 25.666 21H2.33356C2.02556 21 1.73156 20.9398 1.46136 20.832L10.0406 12.3676ZM27.9998 5.4264V18.6662C27.9998 19.012 27.9242 19.3396 27.7898 19.635L19.3982 11.3554L27.9998 5.4264ZM-0.00024282 5.5006L8.45856 11.2854L0.148157 19.4866C0.0497313 19.2243 -0.000541267 18.9464 -0.00024282 18.6662V5.5006ZM25.666 0C26.954 0 27.9998 1.0444 27.9998 2.3338V3.1542L13.997 12.8072L-0.00024282 3.234V2.3338C-0.00024282 1.0458 1.04416 0 2.33356 0H25.666Z" fill="#98FEFE"/>
</svg>
