<svg width="37" height="38" viewBox="0 0 37 38" fill="none" xmlns="http://www.w3.org/2000/svg">
<path d="M35.5102 0.5H1.47023C0.651609 0.5 -0.00976562 1.16137 -0.00976562 1.98V36.02C-0.00976562 36.8386 0.651609 37.5 1.47023 37.5H35.5102C36.3289 37.5 36.9902 36.8386 36.9902 36.02V1.98C36.9902 1.16137 36.3289 0.5 35.5102 0.5ZM31.2367 11.2994H28.2814C25.9642 11.2994 25.5156 12.4001 25.5156 14.0189V17.5847H31.0471L30.3256 23.1671H25.5156V37.5H19.7482V23.1718H14.9244V17.5847H19.7482V13.4685C19.7482 8.69088 22.6666 6.087 26.9309 6.087C28.9751 6.087 30.728 6.23963 31.2414 6.309V11.2994H31.2367Z" fill="url(#paint0_linear_653_11902)"/>
<defs>
<linearGradient id="paint0_linear_653_11902" x1="18.4902" y1="0.5" x2="18.4902" y2="37.5" gradientUnits="userSpaceOnUse">
<stop stop-color="#FF9E59"/>
<stop offset="1" stop-color="#FF7733"/>
</linearGradient>
</defs>
</svg>
