<svg width="153" height="86" viewBox="0 0 153 86" fill="none" xmlns="http://www.w3.org/2000/svg">
<path fill-rule="evenodd" clip-rule="evenodd" d="M82.4207 36.365C82.4558 36.5051 82.4909 36.6628 82.4909 36.8029C83.3686 42.1967 84.8256 56.0317 80.595 71.4779C77.6634 82.2656 72.2567 85.0326 71.6774 85.3128C71.2386 85.4529 70.7997 85.4529 70.3608 85.4529C69.6236 85.4529 68.9038 85.0151 68.6054 84.2796C68.0261 83.1062 68.465 81.8103 69.6236 81.2149C69.6236 81.2149 69.6411 81.1798 69.7289 81.1273C70.3608 80.6545 73.5557 78.2552 75.6096 71.3027C75.5394 71.4428 75.434 71.6004 75.3112 71.7405C75.2058 71.8806 75.1005 72.0383 75.0127 72.1784C67.9559 82.4583 60.6358 84.8225 59.407 85.2253C59.3192 85.2603 59.249 85.2778 59.2314 85.2778H58.4942C57.6164 85.1377 56.8792 84.5423 56.7387 83.6666C56.4403 82.4933 57.1776 81.4776 58.3537 81.1974C58.3713 81.1798 58.4766 81.1448 58.6346 81.0748C59.6527 80.6895 63.304 79.2885 67.7102 74.6301C62.6019 78.8507 56.2999 81.7753 49.1377 82.9311C45.188 83.6666 41.2383 83.6666 37.3062 83.2288C19.471 80.8997 4.26898 67.0472 0.758123 48.2561C-3.47246 25.8224 10.413 4.6847 32.1803 0.166438C34.0761 -0.271377 36.13 0.166438 37.7274 1.33978C45.4689 7.01388 51.6129 11.392 57.16 15.3324C65.0595 20.8664 71.9232 25.8224 79.8226 31.7942C80.2088 32.092 80.4721 32.3722 80.7354 32.6699C80.8583 32.81 80.9987 32.9676 81.1392 33.1077C81.578 33.4054 81.8764 33.8432 82.0169 34.4211C82.0169 34.4211 82.0169 34.7189 82.1573 35.1567C82.1573 35.2968 82.1925 35.4194 82.2276 35.5244C82.2627 35.6295 82.2978 35.7346 82.2978 35.8922C82.2978 36.0498 82.3329 36.1899 82.368 36.33L82.4207 36.365ZM34.8485 13.0557C41.2734 17.7141 46.3993 21.3567 50.9283 24.5615C57.6516 29.3775 62.9179 33.1602 69.3427 38.1163C71.6774 53.7025 61.7417 67.9928 46.6801 70.4621C31.4781 72.9314 16.5745 62.1611 13.643 46.2772C10.8694 30.831 20.0678 16.2605 34.831 13.0557H34.8485Z" fill="black"/>
<path fill-rule="evenodd" clip-rule="evenodd" d="M90.6712 36.6628C90.5307 36.9605 90.5307 37.1006 90.5307 37.3983C89.9514 41.4787 88.7753 51.8287 91.9877 63.4746C94.182 71.6355 98.2722 73.8246 98.711 73.9647C99.0095 74.1048 99.4483 74.1048 99.7292 74.1048C100.308 74.1048 100.747 73.807 101.046 73.2291C101.344 72.3535 101.046 71.3378 100.168 70.8999C100.168 70.8999 97.3945 69.4464 95.639 63.4746C95.7093 63.6147 95.7795 63.7373 95.8497 63.8424C95.9199 63.9474 95.9901 64.0525 96.0603 64.2101C101.906 72.6687 107.751 74.1223 108.05 74.1223H108.629C109.208 73.9822 109.805 73.5443 109.946 72.9489C110.244 72.0733 109.647 71.1977 108.77 71.0576C108.77 71.0576 105.557 70.1819 101.748 66.1015C105.698 69.3063 110.367 71.4954 115.774 72.371C118.846 72.8088 121.918 72.9489 124.832 72.5111C138.278 70.7598 149.829 60.2698 152.462 45.997C155.534 28.9572 145.16 12.9156 128.641 9.57072C127.184 9.273 125.569 9.57072 124.411 10.4464C120.549 13.2309 117.143 15.6476 114.089 17.8017C112.509 18.905 111.034 19.9557 109.647 20.9364C103.661 25.157 98.5355 28.9572 92.5495 33.4755C92.1106 33.7732 91.8122 34.0534 91.5313 34.4912C91.2329 34.7889 91.0925 35.0691 90.952 35.5069C90.952 35.5595 90.9345 35.6295 90.8994 35.6996C90.8643 35.8046 90.8116 35.9272 90.8116 36.0848C90.8116 36.1549 90.7765 36.26 90.7414 36.3826C90.7063 36.4876 90.6712 36.5927 90.6712 36.6803V36.6628ZM118.249 28.3267C117.459 28.8871 116.704 29.43 115.967 29.9554C114.387 31.1288 112.912 32.1795 111.491 33.2128C108.822 35.1392 106.312 36.943 103.538 39.132C101.923 49.6221 108.647 59.2365 118.74 60.9878C128.975 62.7391 139.051 55.4538 141.105 44.666C143 34.176 136.716 24.4039 126.78 22.2323C123.55 24.5615 120.759 26.5405 118.249 28.3267Z" fill="black"/>
<path fill-rule="evenodd" clip-rule="evenodd" d="M34.8309 13.0557C41.2558 17.7141 46.3817 21.3567 50.9107 24.5615C57.634 29.3775 62.9002 33.1602 69.3251 38.1163C71.6598 53.7025 61.7241 67.9928 46.6625 70.4621C31.4605 72.9314 16.5569 62.1611 13.6254 46.2772C10.8518 30.831 20.0502 16.2605 34.8134 13.0557H34.8309Z" fill="white"/>
<path fill-rule="evenodd" clip-rule="evenodd" d="M118.249 28.3267C117.459 28.8871 116.704 29.43 115.967 29.9554C114.387 31.1288 112.912 32.1795 111.491 33.2128C108.822 35.1392 106.312 36.943 103.538 39.132C101.923 49.6221 108.647 59.2365 118.74 60.9878C128.975 62.7391 139.051 55.4538 141.105 44.666C143 34.176 136.716 24.4039 126.78 22.2323C123.55 24.5615 120.759 26.5405 118.249 28.3267Z" fill="white"/>
</svg>
