<svg width="26" height="20" viewBox="0 0 26 20" fill="none" xmlns="http://www.w3.org/2000/svg">
<path d="M2.43586 19.8751L6.4438 19.8403L6.35915 10.1067L0.596191 5.8623L0.703241 18.1724C0.711506 19.1228 1.48827 19.8834 2.43586 19.8751Z" fill="#98FEFE"/>
<path d="M20.1852 19.7211L24.1932 19.6863C25.1436 19.678 25.9041 18.9012 25.8959 17.9536L25.7889 5.64357L20.1006 9.98757" fill="#98FEFE"/>
<path d="M20.0357 2.54482L20.1005 9.98812L25.7887 5.64412L25.7688 3.35387C25.7503 1.22967 23.315 0.0397908 21.6284 1.3285" fill="#98FEFE" fill-opacity="0.8"/>
<path d="M6.35892 10.1074L6.29419 2.66406L13.2097 7.75736L20.0357 2.54457L20.1004 9.98786L13.2745 15.2007" fill="#98FEFE"/>
<path d="M0.576159 3.57261L0.596075 5.86285L6.35904 10.1073L6.29431 2.66398L4.68068 1.47554C2.96909 0.216379 0.557687 1.44841 0.576159 3.57261Z" fill="#98FEFE" fill-opacity="0.8"/>
</svg>
