<svg xmlns="http://www.w3.org/2000/svg" viewBox="0 0 24 25"><path fill="currentColor" d="M12.008 21.412l8.136-7.67.02-.02C21.34 12.54 22 10.942 22 9.277c0-1.667-.66-3.265-1.836-4.445-2.105-2.107-5.59-2.143-8.156-.218C10.712 3.541 9.456 3 8.283 3c-1.667 0-3.263.663-4.441 1.84C2.662 6.019 2 7.616 2 9.283c0 1.665.66 3.263 1.838 4.442l8.17 7.688zM5.318 6.297c.787-.79 1.861-1.233 2.978-1.228.822 0 1.858.578 2.997 1.669l.715.696.717-.71c1.554-1.527 4.264-2.126 5.958-.427.786.793 1.227 1.863 1.227 2.98 0 1.115-.44 2.186-1.227 2.978l-6.676 6.31-6.701-6.32c-.786-.792-1.228-1.864-1.228-2.98 0-1.116.442-2.186 1.228-2.979l.011.011z" transform="translate(-222 -223) translate(0 125) translate(110 99) translate(112)"/></svg>