<svg width="40" height="40" viewBox="0 0 40 40" fill="none" xmlns="http://www.w3.org/2000/svg">
<circle cx="20" cy="20" r="20" fill="#242A34"/>
<path d="M15.0006 34.15V27.25L9.85059 31.05C11.3006 32.4 13.0506 33.45 15.0006 34.15Z" fill="#2A5F9E"/>
<path d="M25 34.1502C26.95 33.4502 28.7 32.4002 30.15 31.0502L25 27.2002V34.1502Z" fill="#2A5F9E"/>
<path d="M5.84961 25C5.99961 25.5 6.19961 25.95 6.44961 26.45L8.39961 25H5.84961Z" fill="#2A5F9E"/>
<path d="M31.6006 25L33.5506 26.45C33.7506 26 33.9506 25.5 34.1506 25H31.6006Z" fill="#2A5F9E"/>
<path d="M15.7508 23H5.30078C5.45078 23.7 5.65078 24.35 5.85078 25H8.40078L6.45078 26.45C6.85078 27.3 7.30078 28.05 7.85078 28.8L13.0008 25H15.0008V26L9.15078 30.3L9.85078 31L15.0008 27.25V34.15C15.6508 34.4 16.3008 34.55 17.0008 34.7V23H15.7508Z" fill="white"/>
<path d="M34.7 23H23V34.7C23.7 34.55 24.35 34.35 25 34.15V27.25L30.15 31C30.85 30.35 31.45 29.65 32.05 28.9L26.7 25H30.1L33.15 27.25C33.3 27 33.45 26.7 33.55 26.45L31.6 25H34.15C34.35 24.35 34.55 23.7 34.7 23Z" fill="white"/>
<path d="M7.84961 28.7998C8.24961 29.3498 8.64961 29.8498 9.09961 30.3498L14.9996 26.0498V25.0498H12.9996L7.84961 28.7998Z" fill="#ED4C5C"/>
<path d="M26.75 25L32.1 28.9C32.3 28.65 32.45 28.4 32.65 28.15C32.7 28.1 32.7 28.05 32.75 28.05C32.9 27.8 33.1 27.5 33.25 27.25L30.1 25H26.75Z" fill="#ED4C5C"/>
<path d="M25 5.84961V12.7496L30.15 8.94961C28.7 7.59961 26.95 6.54961 25 5.84961Z" fill="#2A5F9E"/>
<path d="M14.9986 5.84961C13.0486 6.54961 11.2986 7.59961 9.84863 8.94961L14.9986 12.7996V5.84961Z" fill="#2A5F9E"/>
<path d="M34.1496 14.9998C33.9996 14.4998 33.7996 14.0498 33.5496 13.5498L31.5996 14.9998H34.1496Z" fill="#2A5F9E"/>
<path d="M8.39961 14.9998L6.44961 13.5498C6.24961 14.0498 6.04961 14.4998 5.84961 14.9998H8.39961Z" fill="#2A5F9E"/>
<path d="M24.25 16.9998H34.65C34.5 16.2998 34.3 15.6498 34.1 14.9998H31.55L33.5 13.5498C33.1 12.6998 32.65 11.9498 32.1 11.1998L27 14.9998H25V13.9998L30.85 9.6998L30.15 8.9998L25 12.7498V5.8498C24.35 5.5998 23.7 5.4498 23 5.2998V16.9998H24.25Z" fill="white"/>
<path d="M5.30078 16.9998H17.0008V5.2998C16.3008 5.4498 15.6508 5.6498 15.0008 5.8498V12.7498L9.85078 8.9998C9.15078 9.6498 8.55078 10.3498 7.95078 11.0998L13.3008 14.9998H9.90078L6.85078 12.7498C6.70078 12.9998 6.55078 13.2998 6.45078 13.5498L8.40078 14.9998H5.85078C5.65078 15.6498 5.45078 16.2998 5.30078 16.9998Z" fill="white"/>
<path d="M32.15 11.2004C31.75 10.6504 31.35 10.1504 30.9 9.65039L25 13.9504V14.9504H27L32.15 11.2004Z" fill="#ED4C5C"/>
<path d="M13.2508 15.0006L7.95078 11.1006C7.75078 11.3506 7.60078 11.6006 7.40078 11.8506C7.35078 11.9006 7.35078 11.9506 7.30078 11.9506C7.15078 12.2006 6.95078 12.5006 6.80078 12.7506L9.85078 15.0006H13.2508Z" fill="#ED4C5C"/>
<path d="M34.7 17H23V5.3C22.05 5.1 21.05 5 20 5C18.95 5 17.95 5.1 17 5.3V17H5.3C5.1 17.95 5 18.95 5 20C5 21.05 5.1 22.05 5.3 23H17V34.7C17.95 34.9 18.95 35 20 35C21.05 35 22.05 34.9 23 34.7V23H34.7C34.9 22.05 35 21.05 35 20C35 18.95 34.9 17.95 34.7 17Z" fill="#ED4C5C"/>
</svg>
