<svg viewBox="0 0 128 128" xmlns="http://www.w3.org/2000/svg"><g fill="#fff"><path d="M93.696 57.5146C90.7947 54.6133 86.6987 53.0773 82.0907 53.0773H67.072L59.2214 44.3733H46.08C41.472 44.3733 37.376 45.9093 34.4747 48.8106C31.5734 51.712 30.0374 55.4666 30.0374 59.7333C30.0374 64 31.5734 67.7546 34.4747 70.656C37.376 73.5573 41.472 75.0933 46.08 75.0933H56.6614L64.8533 83.6266H81.92C91.136 83.6266 97.9627 77.312 97.9627 68.4373C98.1334 64.3413 96.4267 60.416 93.696 57.5146ZM57.856 69.4613H45.9094C42.8374 69.4613 40.2774 68.4373 38.4 66.56C36.6934 64.8533 35.6694 62.2933 35.6694 59.7333C35.6694 57.0026 36.6934 54.6133 38.4 52.9066C40.2774 51.0293 42.8374 50.0053 45.9094 50.0053H56.4907L64.3414 58.7093V75.0933L59.0507 69.4613H57.856ZM89.6 75.0933C87.7227 76.9706 85.1627 77.824 82.0907 77.824H70.3147V58.7093H82.0907C85.1627 58.7093 87.7227 59.7333 89.6 61.6106C91.3067 63.3173 92.3307 65.8773 92.3307 68.4373C92.3307 71.168 91.3067 73.5573 89.6 75.0933Z" /><path d="M16.0427 48.128C15.5307 48.2987 15.0187 48.2987 14.5067 48.128C13.9947 48.128 13.6533 47.7867 13.4827 47.2747C13.312 46.7627 13.312 46.2507 13.4827 45.7387C13.6533 45.2267 13.9947 44.8853 14.5067 44.544C14.848 44.3733 15.36 44.3733 15.872 44.544C16.384 44.7147 16.7253 45.056 16.896 45.568C17.0667 46.08 17.0667 46.592 16.896 47.104C16.896 47.616 16.5547 47.9573 16.0427 48.128Z" /><path d="M24.7467 32.4266L20.1387 39.4239L8.87469 31.7439L13.4827 24.7466L15.5307 26.1119L12.6294 30.3786L15.1894 32.0852L18.0907 27.8186L20.1387 29.1839L17.2374 33.4506L19.7974 35.1572L22.6987 30.8906L24.7467 32.4266Z" /><path d="M25.7707 30.0372C24.576 30.0372 23.3813 29.5252 22.1867 28.5012L24.4053 26.2825C24.9173 26.7945 25.4293 27.1358 26.112 27.1358C26.624 27.1358 27.3067 26.9652 27.648 26.4532C27.9893 26.1118 28.3307 25.5998 28.3307 25.2585C28.3307 24.9172 28.16 24.4052 27.8187 24.0638C27.4773 23.7225 27.136 23.5518 26.7947 23.5518C26.4533 23.5518 25.9413 23.7225 25.2587 23.8932L22.8693 24.9172C22.016 25.2585 21.1627 25.4292 20.3093 25.2585C19.456 25.0878 18.7733 24.7465 18.2613 24.0638C17.7493 23.5518 17.408 22.8692 17.2373 22.1865C17.0667 21.5038 17.2373 20.8212 17.408 19.9678C17.7493 19.2852 18.2613 18.4318 18.944 17.7492C19.6267 17.0665 20.48 16.5545 21.1627 16.3838C22.016 16.0425 22.6987 16.0425 23.552 16.2132C24.2347 16.3838 24.9173 16.7252 25.6 17.4078L23.3813 19.6265C22.8693 19.1145 22.528 18.9438 22.016 18.9438C21.504 18.9438 21.1627 19.1145 20.6507 19.6265C20.3093 19.9678 20.1387 20.3092 19.968 20.6505C19.968 20.9918 19.968 21.3332 20.3093 21.6745C20.6507 22.0158 20.8213 22.0158 21.3333 22.0158C21.6747 22.0158 22.1867 21.8452 22.8693 21.5038L25.088 20.6505C25.9413 20.3092 26.7947 20.1385 27.648 20.3092C28.3307 20.4798 29.184 20.8212 29.696 21.5038C30.208 22.1865 30.72 22.8692 30.72 23.5518C30.8907 24.2345 30.72 25.0878 30.5493 25.7705C30.208 26.6238 29.696 27.3065 29.0133 27.9892C28.3307 29.3545 26.9653 29.8665 25.7707 30.0372Z" /><path d="M31.9147 8.70415C32.768 8.19215 33.6213 8.02148 34.4747 8.02148C35.328 8.02148 36.1813 8.19215 36.864 8.70415C37.5467 9.04548 38.2293 9.72815 38.7413 10.5815C39.2533 11.4348 39.424 12.2882 39.5947 13.1415C39.5947 13.9948 39.424 14.8482 39.0827 15.5308C38.7413 16.2135 38.0587 16.8962 37.2053 17.4082L34.9867 18.7735L36.864 22.0162L34.1333 23.7228L27.136 11.9468L31.9147 8.70415ZM35.328 15.1895C35.84 14.8482 36.1813 14.3362 36.352 13.8242C36.5227 13.3122 36.352 12.6295 36.0107 12.1175C35.6693 11.6055 35.1573 11.0935 34.6453 10.9228C34.1333 10.7522 33.4507 10.7522 32.9387 11.0935L31.0613 12.2882L33.4507 16.3842L35.328 15.1895Z" /><path d="M46.7626 16.0426C45.568 15.7012 44.544 15.0186 43.6906 14.1652C42.8373 13.3119 42.1546 12.1172 41.8133 10.9226C41.472 9.7279 41.472 8.36256 41.6426 7.1679C41.984 5.97323 42.496 4.94923 43.3493 3.92523C44.2026 3.0719 45.3973 2.38923 46.7626 1.87723C48.128 1.5359 49.4933 1.36523 50.688 1.70656C51.8826 2.0479 52.9066 2.73056 53.76 3.5839C54.6133 4.43723 55.2959 5.6319 55.6373 6.82656C55.9786 8.02123 55.9786 9.38656 55.808 10.5812C55.4666 11.7759 54.9546 12.7999 54.1013 13.8239C53.248 14.6772 52.0533 15.3599 50.688 15.8719C49.3226 16.3839 47.9573 16.3839 46.7626 16.0426ZM51.8826 12.1172C52.3946 11.6052 52.736 10.9226 52.736 10.2399C52.9066 9.55723 52.736 8.7039 52.5653 8.02123C52.3946 7.1679 52.0533 6.48523 51.5413 5.97323C51.0293 5.46123 50.5173 4.94923 49.8346 4.77856C49.152 4.6079 48.4693 4.6079 47.616 4.77856C46.7626 4.94923 46.2506 5.46123 45.7386 5.97323C45.2266 6.48523 44.8853 7.1679 44.8853 7.85056C44.7146 8.53323 44.8853 9.38656 45.056 10.0692C45.2266 10.9226 45.568 11.6052 46.08 12.1172C46.592 12.6292 47.104 13.1412 47.7866 13.3119C48.4693 13.4826 49.152 13.4826 50.0053 13.3119C50.688 12.9706 51.3706 12.6292 51.8826 12.1172Z" /><path d="M69.12 7.67999C68.608 8.53332 68.096 9.04532 67.2427 9.38665L69.632 13.824H66.048L64 10.0693H62.2933V13.824H59.0507L59.2213 0.170654L65.024 0.341321C65.8773 0.341321 66.7307 0.511988 67.584 1.02399C68.2667 1.53599 68.9493 2.04799 69.2907 2.73065C69.8027 3.24265 69.9733 4.09599 69.9733 5.11999C69.9733 6.14399 69.632 6.99732 69.12 7.67999ZM62.464 2.55999V7.33865H64.6827C65.3653 7.33865 65.8773 7.16799 66.2187 6.65599C66.56 6.14399 66.9013 5.63199 66.9013 4.94932C66.9013 4.26665 66.7307 3.75465 66.3893 3.24265C66.048 2.73065 65.536 2.55999 64.8533 2.55999H62.464Z" /><path d="M76.6293 15.36L73.5573 14.6773L75.9467 4.09596L72.3627 3.24263L73.0453 0.511963L83.456 2.9013L82.7733 5.63196L79.0187 4.77863L76.6293 15.36Z" /><path d="M93.0133 22.6987L85.8453 18.432L92.672 6.65601L99.84 10.9227L98.4747 13.1413L94.0373 10.5813L92.5013 13.312L96.9387 15.872L95.744 18.0907L91.3067 15.36L89.7707 17.92L94.208 20.48L93.0133 22.6987Z" /><path d="M99.4987 28.5014L97.1094 26.2827L103.083 13.1414L105.643 15.36L101.035 24.4054L109.739 19.2854L112.299 21.6747L99.4987 28.5014Z" /><path d="M108.032 39.4239L103.253 32.4266L114.517 24.7466L119.125 31.7439L117.077 33.1092L114.347 28.8426L111.787 30.5492L114.688 34.8159L112.64 36.3519L109.739 32.0852L107.179 33.7919L110.08 38.0586L108.032 39.4239Z" /><path d="M110.08 44.0321L109.056 41.1307L121.856 36.3521L123.051 39.4241L116.395 46.9334L124.757 43.8614L125.781 46.7627L112.981 51.5414L111.787 48.4694L118.443 40.9601L110.08 44.0321Z" /><path d="M114.005 59.392L113.664 56.32L124.416 54.9546L123.904 51.2L126.635 50.8586L127.829 61.44L125.099 61.7813L124.587 58.0266L114.005 59.392Z" /><path d="M115.2 64.8533C116.053 64 117.419 63.6586 118.955 63.8293L118.613 66.9013C117.931 66.9013 117.248 66.9013 116.907 67.4133C116.395 67.7546 116.224 68.2666 116.224 68.9493C116.224 69.4613 116.224 69.9733 116.565 70.3146C116.736 70.656 117.077 70.8266 117.589 70.8266C117.931 70.8266 118.272 70.8266 118.613 70.4853C118.955 70.3146 119.125 69.8026 119.467 69.2906L120.661 66.9013C121.003 66.048 121.685 65.3653 122.368 65.0239C123.051 64.6826 123.733 64.512 124.757 64.512C125.611 64.512 126.293 64.8533 126.805 65.3653C127.317 65.8773 127.829 66.3893 128 67.2426C128.341 67.9253 128.341 68.9493 128.341 69.8026C128.171 70.8266 128 71.68 127.659 72.3626C127.317 73.0453 126.635 73.5573 125.952 73.8986C125.269 74.24 124.416 74.4106 123.563 74.24L123.904 70.9973C124.587 70.9973 125.099 70.9973 125.44 70.656C125.781 70.3146 125.952 69.9733 126.123 69.2906C126.123 68.7786 126.123 68.4373 125.952 68.096C125.781 67.7546 125.44 67.584 124.928 67.584C124.587 67.584 124.245 67.584 123.904 67.9253C123.563 68.2666 123.221 68.608 123.051 69.2906L122.027 71.5093C121.515 72.3626 121.003 73.0453 120.32 73.3866C119.637 73.728 118.784 73.8986 117.931 73.8986C117.077 73.8986 116.395 73.5573 115.712 73.0453C115.029 72.5333 114.688 72.0213 114.347 71.168C114.005 70.3146 114.005 69.4613 114.005 68.4373C113.664 66.9013 114.176 65.7066 115.2 64.8533Z" /><path d="M111.787 80.2132C112.299 80.0425 112.811 80.0425 113.323 80.2132C113.835 80.3839 114.176 80.7252 114.347 81.2372C114.517 81.7492 114.517 82.2612 114.347 82.7732C114.176 83.2852 113.835 83.6265 113.323 83.7972C112.811 83.9679 112.299 83.9679 111.787 83.7972C111.275 83.6265 110.933 83.2852 110.763 82.7732C110.592 82.2612 110.592 81.7492 110.763 81.2372C111.104 80.8959 111.445 80.5545 111.787 80.2132Z" /><path d="M102.4 96.5974L107.179 89.7708L118.272 97.7921L113.493 104.619L111.445 103.083L114.517 98.8161L111.957 96.9388L108.885 101.205L106.837 99.8401L109.909 95.5734L107.52 93.8668L104.448 98.1334L102.4 96.5974Z" /><path d="M101.376 98.9866C102.571 98.9866 103.765 99.4986 104.789 100.693L102.4 102.912C101.888 102.4 101.376 102.059 100.864 102.059C100.352 102.059 99.6694 102.229 99.1574 102.741C98.6454 103.083 98.4747 103.595 98.4747 103.936C98.4747 104.277 98.4747 104.789 98.8161 105.131C99.1574 105.472 99.4987 105.643 99.8401 105.643C100.181 105.643 100.693 105.472 101.376 105.301L103.765 104.277C104.619 103.936 105.472 103.765 106.325 103.936C107.179 104.107 107.861 104.448 108.373 105.131C108.885 105.643 109.227 106.325 109.397 107.008C109.568 107.691 109.397 108.373 109.056 109.227C108.715 109.909 108.203 110.592 107.52 111.275C106.837 111.957 105.984 112.469 105.301 112.64C104.448 112.811 103.765 112.981 102.912 112.64C102.229 112.469 101.547 111.957 100.864 111.445L103.253 109.227C103.765 109.739 104.107 109.909 104.619 109.909C105.131 109.909 105.472 109.739 105.984 109.397C106.325 109.056 106.496 108.715 106.667 108.373C106.667 108.032 106.667 107.691 106.325 107.349C105.984 107.008 105.813 107.008 105.301 107.008C104.96 107.008 104.448 107.179 103.765 107.349L101.547 108.203C100.693 108.544 99.8401 108.715 98.9867 108.544C98.3041 108.373 97.4507 108.032 96.9387 107.349C96.4267 106.667 96.0854 105.984 95.9147 105.301C95.7441 104.619 95.9147 103.765 96.2561 103.083C96.5974 102.4 97.1094 101.547 97.7921 100.864C98.8161 99.4986 100.181 98.9866 101.376 98.9866Z" /><path d="M94.72 119.979C93.8667 120.491 93.0134 120.661 92.16 120.661C91.3067 120.661 90.4534 120.491 89.7707 119.979C89.088 119.467 88.4054 118.955 87.8934 118.101C87.3814 117.248 87.2107 116.395 87.2107 115.541C87.2107 114.688 87.3814 113.835 87.8934 113.152C88.4054 112.469 88.9174 111.787 89.7707 111.275L92.16 109.909L90.2827 106.667L93.0134 105.131L99.84 117.077L94.72 119.979ZM91.4774 113.493C90.9654 113.835 90.624 114.347 90.4534 114.859C90.2827 115.371 90.4534 116.053 90.7947 116.565C91.136 117.248 91.648 117.589 92.16 117.76C92.672 117.931 93.3547 117.931 93.8667 117.589L95.744 116.565L93.3547 112.469L91.4774 113.493Z" /><path d="M80.0427 112.299C81.2374 112.64 82.2614 113.323 83.1147 114.176C83.968 115.029 84.48 116.224 84.8214 117.419C85.1627 118.613 85.1627 119.979 84.8214 121.173C84.48 122.368 83.968 123.392 82.944 124.416C82.0907 125.269 80.896 125.952 79.36 126.293C77.9947 126.635 76.6294 126.635 75.4347 126.293C74.24 125.952 73.216 125.269 72.3627 124.416C71.5094 123.563 70.9974 122.368 70.656 121.173C70.3147 119.979 70.3147 118.613 70.656 117.419C70.9974 116.224 71.5094 115.2 72.5334 114.176C73.3867 113.323 74.5814 112.64 76.1174 112.299C77.4827 111.957 78.848 111.957 80.0427 112.299ZM74.752 116.224C74.24 116.736 73.8987 117.419 73.728 118.101C73.5574 118.784 73.5574 119.637 73.728 120.32C73.8987 121.173 74.24 121.856 74.752 122.368C75.264 122.88 75.776 123.392 76.4587 123.563C77.1414 123.733 77.824 123.733 78.6774 123.563C79.5307 123.392 80.2134 123.051 80.5547 122.539C81.0667 122.027 81.408 121.344 81.5787 120.661C81.7494 119.979 81.7494 119.125 81.5787 118.443C81.408 117.589 81.0667 116.907 80.5547 116.395C80.0427 115.883 79.5307 115.371 78.848 115.2C78.1654 115.029 77.4827 114.859 76.6294 115.2C75.9467 115.2 75.264 115.712 74.752 116.224Z" /><path d="M57.5147 120.149C58.0267 119.467 58.7094 118.784 59.392 118.443L57.1734 114.005L60.7574 114.176L62.8054 118.101H64.512L64.6827 114.347H67.9254L67.584 128L61.44 127.829C60.5867 127.829 59.7334 127.488 58.88 127.147C58.1974 126.635 57.5147 126.123 57.1734 125.269C56.832 124.587 56.6614 123.733 56.6614 122.709C56.6614 121.856 57.0027 120.832 57.5147 120.149ZM64.1707 125.269L64.3414 120.491H62.1227C61.44 120.491 60.928 120.661 60.5867 121.173C60.2454 121.685 59.904 122.197 59.904 122.88C59.904 123.563 60.0747 124.075 60.416 124.587C60.7574 125.099 61.2694 125.269 61.952 125.269H64.1707Z" /><path d="M50.176 112.299L53.248 113.152L50.5174 123.733L54.1014 124.587L53.4187 127.317L43.1787 124.587L43.8614 121.856L47.4454 122.709L50.176 112.299Z" /><path d="M33.9627 104.448L41.1307 108.885L33.9627 120.491L26.7947 116.053L28.16 113.835L32.5973 116.565L34.304 114.005L29.8667 111.275L31.232 109.227L35.6693 111.957L37.2053 109.397L32.768 106.667L33.9627 104.448Z" /><path d="M27.648 98.6453L30.0374 101.035L23.7227 114.005L21.3334 111.616L26.112 102.741L17.2374 107.52L14.848 105.131L27.648 98.6453Z" /><path d="M19.456 87.3813L23.8933 94.3787L12.288 101.717L7.85065 94.72L10.0693 93.3547L12.8 97.792L15.36 96.0853L12.6293 91.648L14.848 90.4533L17.5786 94.8907L20.1386 93.184L17.2373 88.7467L19.456 87.3813Z" /><path d="M17.408 82.7733L18.432 85.6746L5.46132 90.1119L4.43732 87.0399L11.264 79.7013L2.90132 82.6026L1.87732 79.7013L14.848 75.0933L15.872 78.1653L9.04532 85.5039L17.408 82.7733Z" /><path d="M13.9947 67.2426L14.336 70.3146L3.41333 71.3386L3.75467 75.0933L1.024 75.4346L0 64.6826L2.73067 64.3413L3.072 68.2666L13.9947 67.2426Z" /><path d="M12.9707 61.9519C11.9467 62.8053 10.752 63.1466 9.21604 62.9759L9.55737 59.7333C10.24 59.7333 10.9227 59.7333 11.4347 59.3919C11.9467 59.0506 12.1174 58.5386 12.288 57.8559C12.288 57.3439 12.288 56.8319 12.1174 56.4906C11.9467 56.1493 11.6054 55.9786 11.0934 55.8079C10.752 55.8079 10.4107 55.8079 10.0694 55.9786C9.72804 56.1493 9.55737 56.6613 9.21604 57.1733L8.02137 59.5626C7.50937 60.4159 6.99737 61.0986 6.3147 61.4399C5.63204 61.7813 4.7787 61.9519 3.92537 61.9519C3.07204 61.7813 2.38937 61.6106 1.87737 61.0986C1.36537 60.5866 0.853371 60.0746 0.682704 59.2213C0.512038 58.3679 0.341371 57.5146 0.512038 56.6613C0.682704 55.6373 0.853371 54.7839 1.36537 54.1013C1.87737 53.4186 2.38937 52.9066 3.07204 52.5653C3.41337 52.2239 4.2667 52.0533 5.12004 52.2239L4.7787 55.2959C4.09604 55.2959 3.58404 55.2959 3.2427 55.6373C2.90137 55.9786 2.7307 56.3199 2.56004 57.0026C2.56004 57.5146 2.56004 57.8559 2.7307 58.1973C2.90137 58.5386 3.2427 58.7093 3.58404 58.7093C3.92537 58.7093 4.2667 58.7093 4.60804 58.3679C4.94937 58.1973 5.2907 57.6853 5.63204 57.0026L6.8267 54.9546C7.3387 54.1013 7.8507 53.4186 8.53337 53.0773C9.21604 52.7359 10.0694 52.5653 10.9227 52.7359C11.776 52.9066 12.4587 53.0773 13.1414 53.5893C13.6534 53.9306 14.1654 54.6133 14.336 55.4666C14.6774 56.3199 14.6774 57.1733 14.5067 58.1973C14.5067 59.7333 13.824 61.0986 12.9707 61.9519Z" /></g></svg>
