<svg width="65" height="45" viewBox="0 0 65 45" fill="none" xmlns="http://www.w3.org/2000/svg">
<path d="M27.7805 20.5224V20.4747C27.7805 20.3794 27.7805 20.3318 27.7332 20.2365C27.7332 20.1412 27.6858 19.9983 27.6858 19.903C27.6858 19.8077 27.6385 19.7601 27.6385 19.7601V19.7124C27.5438 19.3313 27.3544 18.9978 27.0703 18.7596C26.9283 18.5691 26.7389 18.3785 26.5495 18.2356C24.1347 16.3776 22.0513 14.9007 19.6365 13.1856L19.4945 13.0903C17.8846 11.9469 16.038 10.613 13.7652 8.94551C13.197 8.51674 12.5341 8.32617 11.8239 8.32617C11.5871 8.32617 11.3978 8.32617 11.161 8.37381C3.91659 9.89834 -0.628921 16.9493 0.744203 24.4289C1.88058 30.527 6.80489 35.2912 12.8182 36.1011C13.3864 36.1963 13.9546 36.1963 14.5228 36.1963C15.2804 36.1963 16.038 36.1487 16.7482 36.0058C17.127 35.9581 17.5531 35.8629 17.9319 35.7676C18.216 36.244 18.6895 36.6251 19.3051 36.6728C19.3998 36.6728 19.4471 36.6728 19.5418 36.6728C19.6838 36.6728 19.8259 36.6728 19.9679 36.6251C20.11 36.5775 20.7255 36.4346 21.6252 35.9105C21.9093 36.3393 22.3827 36.5775 22.9036 36.6728C22.9983 36.6728 23.0456 36.6728 23.1403 36.6728C23.4244 36.6728 23.7085 36.6251 23.9453 36.4822C24.3241 36.2916 26.2654 35.2435 27.2597 31.4799C28.5381 26.6204 28.0646 22.2374 27.7805 20.5224ZM23.093 35.4817C23.0456 35.4817 23.0456 35.4817 22.9983 35.4817C22.7615 35.4341 22.5721 35.3388 22.4774 35.1006C22.288 34.7671 22.4301 34.3383 22.8089 34.1954C22.8089 34.1954 23.9453 33.5761 24.6555 31.194C24.6082 31.2893 24.5135 31.3846 24.4661 31.4799C22.146 34.8624 19.7785 35.4341 19.6838 35.4817C19.6365 35.4817 19.5891 35.4817 19.5418 35.4817C19.4945 35.4817 19.4944 35.4817 19.4471 35.4817C19.2104 35.4341 18.9736 35.2435 18.9263 35.0053C18.8316 34.6718 19.0683 34.3383 19.3998 34.2431C19.3998 34.2431 20.6782 33.9096 22.1933 32.2421C20.6308 33.5284 18.6895 34.4336 16.5588 34.7671C15.8959 34.8624 15.1857 34.9577 14.5228 34.9577C14.002 34.9577 13.4811 34.91 12.9603 34.8624C7.56248 34.1478 2.96961 29.9077 1.92793 24.1907C0.649505 17.3304 4.86358 10.8512 11.4451 9.46956C11.5872 9.42192 11.7292 9.42192 11.8712 9.42192C12.2974 9.42192 12.7709 9.56485 13.1023 9.85069C15.4224 11.5658 17.3164 12.8997 18.9736 14.0908C21.3411 15.8059 23.4244 17.2827 25.8392 19.1408C25.9813 19.236 26.1233 19.379 26.218 19.5219C26.3601 19.6172 26.4548 19.7601 26.4548 19.903C26.4548 19.903 26.4548 19.9983 26.5021 20.1412C26.5021 20.2365 26.5495 20.2841 26.5495 20.3794C26.5495 20.4747 26.5968 20.57 26.5968 20.6653C26.8809 22.3327 27.3071 26.5252 26.076 31.1464C25.2237 34.4336 23.5665 35.2912 23.3771 35.3864C23.3297 35.4817 23.1877 35.4817 23.093 35.4817Z" fill="white"/>
<path d="M23.7559 20.4273L23.3771 20.1414C21.3884 18.6169 19.7786 17.4735 17.7426 15.9966C16.4641 15.0915 14.8543 13.9481 12.9129 12.4712L12.4868 12.1377L11.966 12.233C6.89961 13.3287 3.67987 18.3787 4.6742 23.7622C5.57383 28.6692 9.6932 32.2423 14.4755 32.2423C14.9963 32.2423 15.5171 32.1947 16.038 32.0994C21.199 31.2419 24.6555 26.2872 23.8506 20.8561L23.7559 20.4273Z" fill="white"/>
<path d="M40.8018 11.1844C40.6124 11.1367 40.423 11.1367 40.2337 11.1367C39.6655 11.1367 39.0499 11.3273 38.5764 11.6608C36.8719 12.8994 35.4987 13.8999 34.2677 14.7575L34.1256 14.8527C32.3264 16.1391 30.7638 17.2825 28.9172 18.6641C28.7752 18.807 28.5858 18.9499 28.4911 19.0928C28.2543 19.331 28.0649 19.6169 28.0176 19.9504L27.9702 20.0933C27.9229 20.1886 27.9229 20.2839 27.9229 20.3791C27.9229 20.4268 27.9229 20.5221 27.8755 20.5697V20.6173C27.6861 21.9037 27.3073 25.2862 28.3017 29.0022C29.1066 31.956 30.6691 32.8612 30.9532 33.0041C31.19 33.0994 31.4267 33.147 31.7108 33.147C31.8055 33.147 31.8529 33.147 31.9476 33.147C32.3264 33.0994 32.7051 32.9088 32.9419 32.6706C33.5574 33.0041 33.9836 33.0994 34.0783 33.147C34.2203 33.1947 34.315 33.1947 34.4571 33.1947C34.5518 33.1947 34.5991 33.1947 34.6938 33.1947C35.1673 33.147 35.5461 32.9088 35.8302 32.5277C36.0669 32.5753 36.3037 32.623 36.5404 32.6706C37.1086 32.7659 37.6768 32.8135 38.2923 32.8135C38.7185 32.8135 39.192 32.7659 39.6181 32.7182C44.2583 32.0989 48.1409 28.3829 48.9932 23.6664C50.0349 17.8541 46.4364 12.3754 40.8018 11.1844ZM47.7622 23.4758C46.9572 27.8112 43.4534 31.0508 39.3814 31.5749C39.0026 31.6225 38.5764 31.6701 38.1976 31.6701C37.6768 31.6701 37.156 31.6225 36.6825 31.5272C35.0726 31.2414 33.6048 30.5744 32.4211 29.6216C33.6048 30.8602 34.5518 31.0984 34.5518 31.0984C34.8359 31.1461 34.9779 31.4319 34.9305 31.6701C34.8832 31.8607 34.6938 32.0036 34.5044 32.0036H34.4571C34.4097 32.0036 34.3624 32.0036 34.3624 32.0036C34.2677 32.0036 32.5158 31.5272 30.7638 29.0022C30.7165 28.9546 30.6691 28.8593 30.6218 28.764C31.19 30.5744 31.9949 31.0508 31.9949 31.0508C32.279 31.1937 32.3737 31.4796 32.2317 31.7654C32.137 31.9083 31.9949 32.0036 31.8055 32.0513C31.7582 32.0513 31.7582 32.0513 31.7108 32.0513C31.6161 32.0513 31.5688 32.0513 31.4741 32.0036C31.332 31.956 30.1009 31.289 29.4381 28.8117C28.4911 25.2862 28.8699 22.1419 29.0593 20.8556C29.0593 20.7603 29.0593 20.7126 29.1066 20.665C29.1066 20.6173 29.1066 20.5697 29.154 20.4744C29.154 20.3791 29.2013 20.3315 29.2013 20.2839C29.2487 20.1409 29.296 20.0456 29.3907 19.998C29.4854 19.9027 29.5801 19.7598 29.6748 19.7122C31.4741 18.3306 33.0366 17.1872 34.8832 15.9009C36.1616 14.9957 37.5821 13.9952 39.334 12.6612C39.6181 12.4707 39.9496 12.3278 40.281 12.3278C40.3757 12.3278 40.5177 12.3278 40.6124 12.3754C45.5841 13.4235 48.7565 18.2829 47.7622 23.4758Z" fill="white"/>
<path d="M40.2811 15.0914L39.7602 14.9961L39.3341 15.3296C38.0083 16.2824 36.9193 17.0923 36.067 17.7116C34.6939 18.7121 33.6049 19.4744 32.2791 20.5225L31.9003 20.8083L31.8529 21.2847C31.2847 25.1437 33.7469 28.6692 37.4401 29.2885C37.8189 29.3361 38.1977 29.3838 38.5765 29.3838C41.9856 29.3838 44.9213 26.8588 45.5842 23.381C46.1997 19.4744 43.8796 15.8536 40.2811 15.0914Z" fill="white"/>
</svg>
