<svg viewBox="0 0 182 76" xmlns="http://www.w3.org/2000/svg"><path d="M89.0758 16.7575V16.694C89.0758 16.567 89.0758 16.5035 89.0123 16.3765C89.0123 16.2495 88.9488 16.059 88.9488 15.9319C88.9488 15.8049 88.8853 15.7414 88.8853 15.7414V15.6779C88.7582 15.1699 88.5042 14.7253 88.1231 14.4078C87.9325 14.1538 87.6785 13.8998 87.4244 13.7092C84.1852 11.2325 81.3906 9.26384 78.1513 6.97763L77.9608 6.85062C75.8013 5.32648 73.3243 3.54832 70.2756 1.32561C69.5134 0.754061 68.6242 0.500038 67.6715 0.500038C67.3539 0.500038 67.0999 0.500038 66.7823 0.563544C57.0646 2.59573 50.9673 11.9946 52.8092 21.965C54.3335 30.0937 60.939 36.4443 69.0053 37.5239C69.7675 37.6509 70.5296 37.6509 71.2918 37.6509C72.308 37.6509 73.3243 37.5874 74.277 37.3969C74.7851 37.3334 75.3567 37.2064 75.8648 37.0794C76.2459 37.7144 76.8811 38.2225 77.7068 38.286C77.8338 38.286 77.8973 38.286 78.0243 38.286C78.2149 38.286 78.4054 38.286 78.596 38.2225C78.7865 38.159 79.6122 37.9685 80.8189 37.2699C81.2 37.8414 81.8352 38.159 82.5338 38.286C82.6609 38.286 82.7244 38.286 82.8514 38.286C83.2325 38.286 83.6136 38.2225 83.9311 38.032C84.4393 37.7779 87.0433 36.3808 88.3771 31.3638C90.092 24.8863 89.4569 19.0437 89.0758 16.7575ZM82.7879 36.6983C82.7244 36.6983 82.7244 36.6983 82.6609 36.6983C82.3433 36.6348 82.0892 36.5078 81.9622 36.1903C81.7081 35.7457 81.8987 35.1742 82.4068 34.9837C82.4068 34.9837 83.9311 34.1581 84.8839 30.9828C84.8203 31.1098 84.6933 31.2368 84.6298 31.3638C81.5176 35.8728 78.3419 36.6348 78.2149 36.6983C78.1513 36.6983 78.0878 36.6983 78.0243 36.6983C77.9608 36.6983 77.9608 36.6983 77.8973 36.6983C77.5797 36.6348 77.2621 36.3808 77.1986 36.0633C77.0716 35.6187 77.3892 35.1742 77.8338 35.0472C77.8338 35.0472 79.5487 34.6026 81.5811 32.3799C79.4851 34.0946 76.8811 35.3012 74.0229 35.7458C73.1337 35.8728 72.181 35.9998 71.2918 35.9998C70.5932 35.9998 69.8945 35.9363 69.1958 35.8728C61.9552 34.9202 55.7943 29.2682 54.397 21.6475C52.6821 12.5026 58.3349 3.86584 67.1634 2.02418C67.3539 1.96067 67.5445 1.96067 67.735 1.96067C68.3066 1.96067 68.9418 2.15119 69.3864 2.53222C72.4986 4.81843 75.0392 6.59659 77.2621 8.18424C80.4379 10.4704 83.2325 12.4391 86.4717 14.9159C86.6623 15.0429 86.8528 15.2334 86.9798 15.4239C87.1704 15.5509 87.2974 15.7414 87.2974 15.9319C87.2974 15.9319 87.2974 16.059 87.3609 16.2495C87.3609 16.3765 87.4244 16.44 87.4244 16.567C87.4244 16.694 87.4879 16.821 87.4879 16.948C87.869 19.1707 88.4407 24.7593 86.7893 30.9193C85.646 35.3012 83.423 36.4443 83.169 36.5713C83.1055 36.6983 82.9149 36.6983 82.7879 36.6983Z" fill="#fff"/><path d="M83.6773 16.6307L83.1692 16.2496C80.5016 14.2175 78.3421 12.6933 75.611 10.7246C73.8961 9.51803 71.7366 7.99389 69.1325 6.02521L68.5609 5.58067L67.8623 5.70769C61.0662 7.16832 56.7473 13.8999 58.0811 21.0761C59.2878 27.6172 64.8136 32.3801 71.2285 32.3801C71.9272 32.3801 72.6258 32.3166 73.3245 32.1896C80.2475 31.0465 84.8841 24.4419 83.8043 17.2022L83.6773 16.6307Z" fill="#fff"/><path d="M106.542 4.31049C106.288 4.24699 106.034 4.24699 105.78 4.24699C105.017 4.24699 104.192 4.50101 103.557 4.94555C101.27 6.5967 99.4281 7.93032 97.7767 9.07343L97.5862 9.20044C95.1726 10.9151 93.0767 12.4392 90.5996 14.2809C90.4091 14.4714 90.155 14.6619 90.028 14.8525C89.7104 15.17 89.4564 15.551 89.3928 15.9956L89.3293 16.1861C89.2658 16.3131 89.2658 16.4401 89.2658 16.5671C89.2658 16.6306 89.2658 16.7576 89.2023 16.8211V16.8846C88.9482 18.5993 88.4401 23.1082 89.7739 28.0617C90.8537 31.999 92.9496 33.2056 93.3307 33.3962C93.6483 33.5232 93.9659 33.5867 94.347 33.5867C94.474 33.5867 94.5375 33.5867 94.6645 33.5867C95.1726 33.5232 95.6807 33.2691 95.9983 32.9516C96.824 33.3961 97.3956 33.5232 97.5227 33.5867C97.7132 33.6502 97.8402 33.6502 98.0308 33.6502C98.1578 33.6502 98.2213 33.6502 98.3483 33.6502C98.9835 33.5867 99.4916 33.2691 99.8727 32.7611C100.19 32.8246 100.508 32.8881 100.825 32.9516C101.588 33.0786 102.35 33.1421 103.175 33.1421C103.747 33.1421 104.382 33.0786 104.954 33.0151C111.178 32.1895 116.386 27.2361 117.53 20.949C118.927 13.2013 114.1 5.89814 106.542 4.31049ZM115.878 20.695C114.799 26.474 110.098 30.7924 104.636 31.491C104.128 31.5545 103.557 31.618 103.048 31.618C102.35 31.618 101.651 31.5545 101.016 31.4275C98.8565 31.0464 96.8875 30.1574 95.2997 28.8872C96.8875 30.5384 98.1578 30.8559 98.1578 30.8559C98.5389 30.9194 98.7294 31.3005 98.6659 31.618C98.6024 31.872 98.3483 32.0625 98.0943 32.0625H98.0308C97.9673 32.0625 97.9037 32.0625 97.9037 32.0625C97.7767 32.0625 95.4267 31.4275 93.0767 28.0617C93.0132 27.9982 92.9496 27.8711 92.8861 27.7441C93.6483 30.1574 94.728 30.7924 94.728 30.7924C95.1091 30.9829 95.2361 31.364 95.0456 31.745C94.9186 31.9355 94.728 32.0625 94.474 32.126C94.4105 32.126 94.4105 32.126 94.347 32.126C94.2199 32.126 94.1564 32.126 94.0294 32.0625C93.8388 31.999 92.1875 31.1099 91.2983 27.8076C90.028 23.1082 90.5361 18.9168 90.7902 17.2022C90.7902 17.0752 90.7902 17.0117 90.8537 16.9481C90.8537 16.8846 90.8537 16.8211 90.9172 16.6941C90.9172 16.5671 90.9807 16.5036 90.9807 16.4401C91.0442 16.2496 91.1077 16.1226 91.2348 16.0591C91.3618 15.9321 91.4888 15.7415 91.6158 15.678C94.0294 13.8364 96.1254 12.3122 98.6024 10.5976C100.317 9.39096 102.223 8.05734 104.573 6.27917C104.954 6.02515 105.398 5.83463 105.843 5.83463C105.97 5.83463 106.161 5.83463 106.288 5.89814C112.957 7.29527 117.212 13.7729 115.878 20.695Z" fill="#fff"/><path d="M105.844 9.51769L105.145 9.39068L104.573 9.83522C102.795 11.1053 101.334 12.1849 100.191 13.0105C98.3489 14.3441 96.8881 15.3602 95.1097 16.7573L94.6016 17.1384L94.5381 17.7734C93.7759 22.9174 97.0787 27.6168 102.033 28.4424C102.541 28.5059 103.049 28.5694 103.557 28.5694C108.13 28.5694 112.068 25.2036 112.957 20.5677C113.783 15.3602 110.671 10.5338 105.844 9.51769Z" fill="#fff"/><path d="M82.9771 53.908C81.9609 53.908 81.0717 54.2255 80.3095 54.8605C79.5473 55.4956 79.2298 56.2577 79.1663 57.2103C79.1663 59.6235 79.1663 62.1002 79.1663 64.5134C79.1663 65.4025 79.5473 66.2281 80.3095 66.8631C81.0717 67.4982 81.9609 67.8157 82.9771 67.8157C83.9933 67.8157 84.8825 67.4982 85.6447 66.8631C86.4069 66.2281 86.7244 65.4025 86.788 64.5134C86.788 62.1002 86.788 59.687 86.788 57.2738C86.788 56.3847 86.4069 55.5591 85.6447 54.9241C84.8825 54.2255 83.9933 53.908 82.9771 53.908ZM83.6122 63.9419C83.6122 64.1324 83.5487 64.2594 83.4217 64.3229C83.2947 64.4499 83.1676 64.5134 82.9771 64.5134C82.7866 64.5134 82.6595 64.4499 82.5325 64.3229C82.4055 64.1959 82.342 64.0689 82.342 63.9419C82.342 61.8462 82.342 59.814 82.342 57.7183C82.342 57.5913 82.4055 57.4008 82.5325 57.3373C82.6595 57.2103 82.7866 57.1468 82.9771 57.1468C83.1676 57.1468 83.2947 57.2103 83.4217 57.3373C83.5487 57.4643 83.6122 57.5913 83.6122 57.7183C83.6122 59.814 83.6122 61.9097 83.6122 63.9419Z" fill="#fff"/><path d="M87.2336 67.562C88.2498 67.562 89.266 67.562 90.2822 67.562C90.2822 66.2284 90.2822 64.8948 90.2822 63.5612C91.2985 63.5612 92.3147 63.5612 93.3309 63.5612C93.3309 62.6721 93.3309 61.783 93.3309 60.8939C92.3147 60.8939 91.2985 60.8939 90.2822 60.8939C90.2822 59.5603 90.2822 58.2267 90.2822 56.8931C91.489 56.8931 92.6958 56.8931 93.9025 56.8931C93.9025 56.004 93.9025 55.1149 93.9025 54.2258C91.6795 54.2258 89.4565 54.2258 87.2336 54.2258C87.2336 58.6077 87.2336 63.1166 87.2336 67.562Z" fill="#fff"/><path d="M16.2878 67.0537C16.0972 65.5931 15.4621 64.3229 14.4458 63.1163C15.6526 61.7192 16.2878 60.0681 16.2878 58.2264C16.2878 56.2577 16.2878 54.289 16.2878 52.2568C16.2878 50.2247 15.5256 48.51 14.0648 47.1129C12.6039 45.7157 10.762 44.9537 8.66606 44.9537C6.12549 44.9537 3.5214 44.9537 0.980835 44.9537C0.980835 55.1146 0.980835 65.339 0.980835 75.5C3.01329 75.373 5.04574 75.1824 7.0782 75.0554C7.0782 72.0706 7.0782 69.0224 7.0782 66.0376C7.5228 66.0376 7.90388 65.9741 8.34848 65.9741C8.72957 65.9741 9.11065 66.1011 9.49174 66.3551C9.80931 66.6091 10.0634 66.9902 10.1269 67.3712C10.1269 67.4347 10.1269 67.5617 10.1269 67.6252C10.4445 69.975 10.8255 72.3882 11.1431 74.7379C13.1756 74.6109 15.208 74.4839 17.2405 74.3569C16.9229 71.9436 16.5418 69.5939 16.2242 67.1807C16.2878 67.1172 16.2878 67.0537 16.2878 67.0537ZM10.1904 58.4169C10.1904 58.8614 10.0634 59.179 9.7458 59.4965C9.42822 59.814 9.11065 59.941 8.66606 60.0045C8.15794 60.0045 7.64983 60.0681 7.14171 60.0681C7.14171 57.0833 7.14171 54.035 7.14171 51.0502C7.64983 51.0502 8.15794 51.0502 8.66606 51.0502C9.11065 51.0502 9.42822 51.1772 9.7458 51.4948C10.0634 51.8123 10.1904 52.1298 10.1904 52.5109C10.1904 54.416 10.1904 56.3847 10.1904 58.4169Z" fill="#fff"/><path d="M18.2566 74.2934C22.7661 74.0393 27.2121 73.7218 31.7216 73.5313C31.7216 71.6261 31.7216 69.7209 31.7216 67.8158C29.3081 67.9428 26.831 68.0063 24.4175 68.1333C24.4175 67.1807 24.4175 66.1646 24.4175 65.212C26.4499 65.1485 28.4824 65.0215 30.5148 64.958C30.5148 63.0528 30.5148 61.1477 30.5148 59.2425C28.4824 59.306 26.4499 59.3695 24.4175 59.433C24.4175 56.5117 24.4175 53.654 24.4175 50.7327C26.831 50.7327 29.3081 50.6692 31.7216 50.6692C31.7216 48.764 31.7216 46.8588 31.7216 44.9537C27.2121 44.9537 22.7661 44.9537 18.2566 44.9537C18.2566 54.7336 18.2566 64.5135 18.2566 74.2934Z" fill="#fff"/><path d="M33.5629 73.4676C35.5954 73.3406 37.6278 73.2771 39.6603 73.15C39.6603 63.7512 39.6603 54.2888 39.6603 44.89C37.6278 44.89 35.5954 44.89 33.5629 44.89C33.5629 54.4158 33.5629 63.9417 33.5629 73.4676Z" fill="#fff"/><path d="M49.9504 44.3187C49.8233 44.3187 49.7598 44.3187 49.6328 44.3187C47.5368 44.3187 45.7584 45.0172 44.2341 46.3509C42.7733 47.748 42.0111 49.3991 42.0111 51.3043C42.0111 56.3213 42.0111 61.4017 42.0111 66.4187C42.0111 68.3239 42.7733 69.975 44.2341 71.3086C45.6949 72.5788 47.4733 73.2138 49.6328 73.1503C49.7598 73.1503 49.8233 73.1503 49.9504 73.1503C52.4274 72.9598 54.841 72.7693 57.318 72.5788C57.318 68.0699 57.318 63.5609 57.318 59.052C54.7775 59.1155 52.3004 59.1155 49.7598 59.179C49.7598 61.0207 49.7598 62.8624 49.7598 64.7675C50.2679 64.7675 50.7125 64.7675 51.2207 64.704C51.2207 65.6566 51.2207 66.5457 51.2207 67.4983C50.7125 67.4983 50.2044 67.4983 49.6963 67.5618C49.2517 67.5618 48.9341 67.4348 48.6166 67.1808C48.299 66.9267 48.172 66.6092 48.172 66.2282C48.172 61.2747 48.172 56.2578 48.172 51.3043C48.172 51.2408 48.172 51.1773 48.172 51.1773C48.172 51.1773 48.172 51.1773 48.172 51.1138C48.172 51.0503 48.172 51.0503 48.172 50.9868C48.172 50.9868 48.172 50.9868 48.172 50.9233C48.172 50.8598 48.172 50.8598 48.172 50.8598V50.7963C48.172 50.7328 48.2355 50.7328 48.2355 50.7328C48.2355 50.6693 48.2355 50.6693 48.299 50.6058L48.3625 50.5423C48.3625 50.4787 48.426 50.4787 48.426 50.4152C48.426 50.4152 48.4895 50.3517 48.5531 50.2882C48.5531 50.2247 48.6166 50.2247 48.6801 50.1612C48.9341 49.9707 49.3152 49.8437 49.6328 49.8437C50.0139 49.8437 50.395 49.9707 50.7125 50.2247C51.0301 50.4787 51.1571 50.7963 51.1571 51.2408C51.1571 52.1934 51.1571 53.146 51.1571 54.0986C53.1896 54.0986 55.2221 54.0351 57.2545 54.0351C57.2545 53.0825 57.2545 52.1934 57.2545 51.2408C57.2545 49.3991 56.5559 47.8115 55.095 46.4144C53.6977 45.0808 51.9828 44.3822 49.9504 44.3187Z" fill="#fff"/><path d="M68.6877 51.431C67.6715 49.3354 66.6553 47.1762 65.6391 45.017C65.6391 44.9535 65.6391 44.9535 65.6391 44.89C63.6066 44.89 61.5741 44.89 59.5417 44.89C59.5417 54.0348 59.5417 63.1796 59.5417 72.388C61.5741 72.3245 63.6066 72.261 65.6391 72.261C65.6391 66.9265 65.6391 61.592 65.6391 56.194C66.6553 58.2897 67.6715 60.4489 68.6877 62.5446C68.6877 65.7199 68.6877 68.9587 68.6877 72.1339C70.7202 72.0704 72.7526 72.0704 74.7851 72.0069C74.7851 62.9891 74.7851 53.9078 74.7851 44.89C72.7526 44.89 70.7202 44.89 68.6877 44.89C68.6877 47.1127 68.6877 49.2719 68.6877 51.431Z" fill="#fff"/><path d="M96.7606 50.3515C98.2849 50.3515 99.8092 50.3515 101.27 50.3515C101.27 57.5911 101.27 64.7673 101.27 72.0069C103.303 72.0069 105.335 72.0704 107.367 72.0704C107.367 64.8308 107.367 57.5911 107.367 50.3515C109.4 50.3515 111.432 50.3515 113.465 50.3515C113.465 48.5098 113.465 46.7316 113.465 44.89C107.876 44.89 102.35 44.89 96.7606 44.89C96.7606 46.7316 96.7606 48.5098 96.7606 50.3515Z" fill="#fff"/><path d="M110.416 72.1342C112.449 72.1977 114.481 72.1977 116.513 72.2612C116.513 65.5931 116.513 58.925 116.513 52.2569C114.481 52.2569 112.449 52.2569 110.416 52.1934C110.416 58.8615 110.416 65.5296 110.416 72.1342Z" fill="#fff"/><path d="M115.878 50.3517C117.085 50.3517 118.355 50.3517 119.562 50.3517C119.562 57.6548 119.562 64.958 119.562 72.2612C121.595 72.3247 123.627 72.3882 125.659 72.4517C125.659 65.085 125.659 57.7183 125.659 50.4152C127.184 50.4152 128.772 50.4152 130.296 50.4787C130.296 48.637 130.296 46.7953 130.296 44.9537C125.469 44.9537 120.705 44.9537 115.878 44.9537C115.878 46.7318 115.878 48.5735 115.878 50.3517Z" fill="#fff"/><path d="M138.617 44.3187C136.521 44.3187 134.679 45.0172 133.218 46.3509C131.757 47.6845 130.995 49.3356 130.995 51.2408C130.995 58.3535 130.995 65.5296 130.995 72.6423C133.027 72.7058 135.06 72.7693 137.092 72.8963C137.092 71.0546 137.092 69.1495 137.092 67.3078C138.109 67.3713 139.125 67.3713 140.141 67.4348C140.141 69.34 140.141 71.1816 140.141 73.0868C142.173 73.1503 144.206 73.2773 146.238 73.3408C146.238 66.0377 146.238 58.7345 146.238 51.4313C146.238 49.4626 145.476 47.748 144.015 46.4144C142.491 45.0172 140.713 44.3187 138.617 44.3187ZM140.141 61.7828C139.125 61.7828 138.109 61.7193 137.092 61.7193C137.092 58.29 137.092 54.7971 137.092 51.3678C137.092 50.9868 137.219 50.6693 137.537 50.3517C137.854 50.0977 138.172 49.9707 138.617 49.9707C138.998 49.9707 139.379 50.0977 139.696 50.4152C140.014 50.6693 140.141 51.0503 140.141 51.4313C140.141 54.8606 140.141 58.29 140.141 61.7828Z" fill="#fff"/><path d="M157.67 51.8758C156.654 49.5896 155.638 47.3034 154.621 45.0807C154.621 45.0172 154.621 45.0172 154.621 44.9537C152.589 44.9537 150.557 44.9537 148.524 44.9537C148.524 54.416 148.524 63.9419 148.524 73.4043C150.557 73.5313 152.589 73.5948 154.621 73.7218C154.621 68.0698 154.621 62.4813 154.621 56.8293C155.638 59.1155 156.654 61.4017 157.67 63.6879C157.67 67.1172 157.67 70.483 157.67 73.9123C159.703 74.0393 161.735 74.1663 163.767 74.2934C163.767 64.5135 163.767 54.7336 163.767 44.9537C161.735 44.9537 159.703 44.9537 157.67 44.9537C157.67 47.2399 157.67 49.5896 157.67 51.8758Z" fill="#fff"/><path d="M181.17 55.1149C181.17 54.0988 181.17 53.0192 181.17 52.0031C181.17 49.9709 180.472 48.1927 179.011 46.6686C177.55 45.208 175.835 44.4459 173.803 44.3824C173.676 44.3824 173.612 44.3824 173.485 44.3824C171.389 44.3824 169.611 45.1445 168.087 46.5416C166.626 47.9387 165.864 49.6534 165.864 51.6856C165.864 53.8448 165.864 56.0675 165.864 58.2267C165.864 60.1954 166.626 61.91 168.023 63.4341C169.42 64.8948 171.199 65.7839 173.168 65.9109C173.295 65.9109 173.358 65.9109 173.485 65.9109C173.93 65.9109 174.247 66.1014 174.565 66.4189C174.883 66.7365 175.01 67.1175 175.01 67.4985C175.01 67.8796 174.883 68.2606 174.565 68.5146C174.247 68.7686 173.93 68.8956 173.485 68.8956C170.945 68.7686 168.404 68.6416 165.864 68.4511C165.864 70.4198 165.864 72.3885 165.864 74.3571C168.404 74.5477 170.945 74.6747 173.485 74.8652C175.581 74.9922 177.423 74.4207 178.884 73.0235C180.345 71.6264 181.107 69.9117 181.107 67.816C181.107 65.7839 180.408 63.9422 178.947 62.4181C177.487 60.8939 175.772 60.0683 173.739 59.9413C173.676 59.9413 173.549 59.9413 173.485 59.9413C173.104 59.9413 172.723 59.7508 172.405 59.4968C172.088 59.1793 171.961 58.8617 171.961 58.4172C171.961 56.1945 171.961 54.0353 171.961 51.8126C171.961 51.7491 171.961 51.7491 171.961 51.6856V51.6221C171.961 51.5586 171.961 51.5586 171.961 51.5586V51.4951V51.4315V51.368V51.3045C171.961 51.3045 172.024 51.241 172.024 51.1775C172.024 51.1775 172.088 51.114 172.088 51.0505C172.088 51.0505 172.151 50.987 172.151 50.9235C172.151 50.86 172.215 50.86 172.215 50.7965C172.215 50.733 172.278 50.733 172.342 50.6695C172.596 50.479 172.914 50.3519 173.295 50.3519C173.739 50.3519 174.057 50.5425 174.374 50.7965C174.692 51.114 174.819 51.4315 174.819 51.8761C174.819 52.8922 174.819 53.9083 174.819 54.9879C177.106 54.9879 179.138 55.0514 181.17 55.1149Z" fill="#fff"/></svg>