<svg width="114" height="49" viewBox="0 0 114 49" fill="none" xmlns="http://www.w3.org/2000/svg">
<g clip-path="url(#clip0_562_1078)">
<path d="M58.0847 11.2184C58.0724 11.1337 58.0624 11.0491 58.0501 10.9645C58.038 10.8963 58.0235 10.8282 58.0022 10.7625C57.9804 10.6497 57.9636 10.5769 57.9588 10.5558C57.9252 10.4078 57.8387 10.2862 57.7224 10.2024C57.622 10.0692 57.5031 9.94782 57.3659 9.84311C55.2036 8.19328 53.3489 6.87262 51.2015 5.34269C49.7047 4.27545 48.0082 3.06874 45.9092 1.53603C45.4768 1.21972 44.9307 1.10444 44.412 1.21721C38.5359 2.51802 34.8568 8.38669 36.0355 14.5803C37.023 19.7706 41.1788 23.5683 45.9835 24.1596C47.0309 24.2893 48.1116 24.2635 49.1955 24.0681C51.1095 23.722 52.8092 22.8952 54.2034 21.7276C52.8467 23.2197 51.7154 23.5379 51.7039 23.5403C51.3927 23.616 51.2037 23.9212 51.2825 24.2241C51.3423 24.4566 51.5423 24.6173 51.7712 24.6459C51.8406 24.6547 51.9121 24.6493 51.9836 24.6322C52.0735 24.6103 54.1798 24.0671 56.2179 20.9899C56.2749 20.9046 56.3296 20.8171 56.382 20.7296C55.7587 22.8931 54.7658 23.4619 54.7681 23.4619C54.4554 23.6152 54.3292 23.9858 54.4866 24.2904C54.5853 24.4802 54.7711 24.5986 54.9746 24.6251C55.0948 24.6405 55.2217 24.6229 55.339 24.5631C55.5023 24.484 56.9483 23.6995 57.7029 20.7039C58.7612 16.5055 58.3309 12.7083 58.0847 11.2184ZM48.5185 20.5838C44.3906 21.3281 40.353 18.3742 39.5204 13.9969C38.7072 9.73001 41.1781 5.69345 45.1544 4.77866C46.8838 6.03922 48.2782 7.03439 49.5123 7.91328C51.3414 9.21534 52.787 10.2477 54.5448 11.5857C55.2175 15.9032 52.5795 19.8518 48.5185 20.5838Z" fill="#044348"/>
<path d="M70.4838 3.58097C70.0905 3.50202 69.6802 3.59737 69.3567 3.8426C67.7872 5.03064 66.5203 5.96658 65.4004 6.79299C63.7962 7.97898 62.4101 9.00304 60.7951 10.2786C60.6919 10.3595 60.6026 10.452 60.5296 10.5562C60.4447 10.6229 60.3809 10.7152 60.3564 10.826C60.3543 10.8425 60.3432 10.8968 60.3278 10.9816C60.3144 11.0335 60.3009 11.0831 60.2945 11.1349C60.2858 11.1985 60.2794 11.2645 60.2707 11.3281C60.105 12.4592 59.8275 15.3376 60.6842 18.5003C61.2951 20.7567 62.3995 21.3308 62.5247 21.3885C62.6152 21.4301 62.71 21.4434 62.8022 21.4308C62.9545 21.4083 63.0946 21.3177 63.1672 21.1711C63.283 20.9395 63.1813 20.6603 62.9424 20.547C62.9424 20.547 62.1858 20.13 61.6843 18.501C61.7264 18.5666 61.7686 18.6321 61.813 18.6952C63.3944 20.9973 64.996 21.3812 65.0655 21.397C65.121 21.4083 65.1741 21.4102 65.2272 21.405C65.4002 21.38 65.5493 21.2563 65.5916 21.0794C65.6474 20.8507 65.4999 20.6213 65.2638 20.5669C65.2569 20.5669 64.3957 20.3391 63.349 19.2279C64.419 20.0941 65.7153 20.6971 67.1679 20.9339C67.9913 21.068 68.8067 21.0727 69.6002 20.9598C73.2289 20.4505 76.3239 17.5217 77.0033 13.5808C77.8147 8.8785 74.9517 4.48587 70.4884 3.57858L70.4838 3.58097ZM73.9099 13.2358C73.3998 16.1986 70.7106 18.2413 67.9142 17.7855C65.1664 17.3387 63.3397 14.7069 63.7416 11.7851C64.9115 10.8617 65.8754 10.1497 67.094 9.24708C67.9155 8.6398 68.8473 7.95153 69.9992 7.08013C72.6926 7.64979 74.4068 10.3461 73.9099 13.2358Z" fill="#044348"/>
<path d="M52.1216 34.421C51.4796 34.4266 50.9317 34.6385 50.4757 35.0543C50.0196 35.4654 49.793 35.964 49.7935 36.5476C49.8069 38.0914 49.8203 39.6352 49.8337 41.179C49.8434 41.7578 50.0786 42.2477 50.5417 42.6461C51.0049 43.0492 51.5563 43.2468 52.1983 43.2389C52.845 43.2309 53.3928 43.0191 53.8442 42.6056C54.3003 42.1921 54.5269 41.6936 54.5264 41.1099C54.5131 39.5756 54.4997 38.0388 54.4864 36.5045C54.4767 35.9209 54.2414 35.4263 53.7783 35.0232C53.3198 34.6177 52.7683 34.4177 52.1217 34.4257L52.1216 34.421ZM52.5812 40.7879C52.5821 40.8891 52.5436 40.9765 52.4657 41.0478C52.3877 41.1191 52.2934 41.1576 52.1802 41.1586C52.067 41.1595 51.972 41.1251 51.8929 41.0552C51.8138 40.9852 51.7738 40.9009 51.7729 40.7997C51.7615 39.4912 51.7501 38.1804 51.7387 36.872C51.7379 36.7708 51.7764 36.6857 51.8543 36.6121C51.9322 36.5408 52.0266 36.5047 52.1397 36.5037C52.2529 36.5027 52.3479 36.5372 52.427 36.6071C52.5016 36.6771 52.5416 36.7638 52.5471 36.8649C52.5585 38.1734 52.5699 39.4842 52.5812 40.7926L52.5812 40.7879Z" fill="#044348"/>
<path d="M54.8616 43.0431C55.4874 43.0376 56.1156 43.0322 56.7415 43.0267C56.7341 42.1772 56.7268 41.33 56.7194 40.4804C57.3452 40.475 57.9734 40.4695 58.5993 40.4664C58.5944 39.9016 58.5895 39.3368 58.5846 38.772C57.9587 38.7775 57.3305 38.7806 56.7046 38.786C56.6973 37.9388 56.6899 37.094 56.6825 36.2468C57.4331 36.2403 58.1861 36.2337 58.9367 36.2296C58.9318 35.6648 58.9268 35.1 58.9219 34.5328C57.5431 34.5424 56.1666 34.5544 54.7878 34.5664C54.8124 37.3904 54.837 40.2167 54.8615 43.0407L54.8616 43.0431Z" fill="#044348"/>
<path d="M10.7332 43.0909C10.5936 42.179 10.2076 41.3563 9.57531 40.6204C10.3365 39.7101 10.711 38.683 10.7033 37.5275C10.6924 36.2732 10.6814 35.0165 10.6705 33.7622C10.6593 32.4773 10.1926 31.394 9.26556 30.4984C8.3316 29.6051 7.2144 29.1535 5.91638 29.1577C4.32743 29.1716 2.73621 29.1901 1.14728 29.2063L1.3155 48.5506C2.58026 48.4408 3.84502 48.3309 5.10984 48.2281C5.09326 46.3219 5.07669 44.4157 5.06011 42.5095C5.32558 42.4931 5.58875 42.4767 5.85424 42.4626C6.11049 42.4486 6.34445 42.5266 6.55844 42.6989C6.77243 42.8712 6.90136 43.089 6.94751 43.3498C6.95262 43.4062 6.95773 43.4627 6.96286 43.5215C7.19075 45.0257 7.42092 46.5276 7.64876 48.0272C8.90898 47.9268 10.1716 47.8311 11.4318 47.7377C11.2039 46.2288 10.976 44.7151 10.7457 43.1991C10.7407 43.1638 10.7358 43.1309 10.7309 43.0957L10.7332 43.0909ZM6.91426 37.6664C6.91655 37.93 6.82615 38.159 6.64074 38.3513C6.45757 38.5365 6.23212 38.6396 5.969 38.6607C5.655 38.6752 5.34332 38.6897 5.02933 38.7042C5.01275 36.798 4.99618 34.8918 4.9796 32.9856C5.29365 32.9782 5.6054 32.9708 5.91945 32.9633C6.18501 32.9563 6.40981 33.0438 6.59615 33.2234C6.78248 33.403 6.87679 33.6234 6.879 33.8776C6.88999 35.1413 6.90098 36.405 6.91197 37.6688L6.91426 37.6664Z" fill="#044348"/>
<path d="M12.0133 47.7041C14.797 47.501 17.5809 47.3144 20.3649 47.1419C20.3544 45.9323 20.3439 44.7227 20.3357 43.5131C18.8165 43.5898 17.2998 43.6713 15.7807 43.7574C15.7754 43.1432 15.77 42.5266 15.7647 41.9124C17.0322 41.8473 18.2973 41.7868 19.5649 41.7287C19.5543 40.5168 19.5438 39.3048 19.5356 38.0928C18.2679 38.1392 17.0026 38.1855 15.735 38.2365C15.7191 36.3986 15.7054 34.563 15.6917 32.725C17.2112 32.6929 18.7284 32.6609 20.248 32.6312C20.2374 31.4216 20.2269 30.212 20.2187 29.0024C17.4311 29.029 14.6459 29.0579 11.8583 29.0845C11.9077 35.2903 11.9593 41.496 12.0087 47.7041L12.0133 47.7041Z" fill="#044348"/>
<path d="M21.5166 47.0716C22.784 46.9947 24.0491 46.9225 25.3165 46.8526C25.2692 40.8869 25.2243 34.9188 25.177 28.9531C23.9091 28.9642 22.6412 28.9775 21.3756 28.9909C21.4234 35.0178 21.4689 41.0447 21.5166 47.0716Z" fill="#044348"/>
<path d="M31.5349 28.5244L31.3363 28.5261C30.0292 28.5446 28.9197 28.9849 28.008 29.8566C27.0964 30.7353 26.6413 31.7865 26.6404 33.0057C26.6658 36.1968 26.6889 39.3856 26.7144 42.5767C26.7319 43.8027 27.2051 44.8318 28.1292 45.6522C29.0533 46.4679 30.1698 46.8418 31.4766 46.7904C31.5436 46.7875 31.6082 46.7846 31.6752 46.7816C33.1984 46.646 34.7217 46.5151 36.245 46.3889C36.2202 43.5367 36.2 40.6867 36.1775 37.8345C34.6096 37.874 33.0417 37.9159 31.4738 37.9601C31.484 39.1368 31.4942 40.3134 31.5022 41.4901C31.8023 41.4805 32.1025 41.4684 32.4027 41.4588C32.4078 42.0471 32.4129 42.6378 32.418 43.2261C32.104 43.2382 31.79 43.2504 31.4783 43.2625C31.2128 43.2742 30.9881 43.1962 30.8019 43.0307C30.6156 42.8652 30.5215 42.6589 30.5193 42.4142C30.4942 39.2631 30.4692 36.1143 30.4464 32.9632C30.4461 32.9326 30.4458 32.8973 30.4455 32.8643C30.4456 32.8737 30.4501 32.8643 30.4591 32.8383C30.4589 32.8054 30.4587 32.7842 30.4586 32.7771C30.4587 32.7842 30.4632 32.7724 30.4721 32.7394C30.4812 32.7134 30.4857 32.6992 30.4856 32.6898C30.4901 32.678 30.4946 32.6662 30.4991 32.652C30.5173 32.6189 30.5241 32.6048 30.5242 32.6142C30.5332 32.5906 30.5422 32.5646 30.549 32.541C30.5535 32.5362 30.5581 32.5315 30.5627 32.5291C30.5718 32.5126 30.5855 32.496 30.6015 32.4793L30.6014 32.4676C30.6197 32.4415 30.6356 32.4179 30.6539 32.3918C30.6722 32.3752 30.6928 32.3538 30.7203 32.33C30.7386 32.3063 30.7592 32.2826 30.7868 32.2683C30.9635 32.1349 31.1638 32.0649 31.3947 32.0606C31.6511 32.0584 31.8736 32.1411 32.0598 32.309C32.246 32.4792 32.3402 32.6854 32.3424 32.9302C32.3476 33.5279 32.3527 34.1257 32.3579 34.7211C33.6257 34.6936 34.8935 34.6684 36.1613 34.6433C36.1562 34.0502 36.151 33.4572 36.1459 32.8642C36.1356 31.6852 35.6834 30.6771 34.7845 29.8329C33.8949 28.9958 32.8125 28.5604 31.5419 28.529L31.5349 28.5244Z" fill="#044348"/>
<path d="M43.2302 32.9336C42.5834 31.593 41.9366 30.2477 41.2897 28.9001C41.2894 28.8719 41.2892 28.8436 41.2889 28.8154C40.0256 28.8264 38.7623 28.8374 37.499 28.8483C37.5449 34.6517 37.5907 40.455 37.6365 46.2583C38.8995 46.2097 40.1626 46.1658 41.4256 46.1242C41.3984 42.7354 41.3713 39.3466 41.3441 35.9578C41.991 37.3007 42.6378 38.6389 43.2846 39.9748C43.3022 42.0057 43.3175 44.0343 43.3329 46.0652C44.596 46.0284 45.8591 45.9938 47.1245 45.9617C47.077 40.2289 47.0294 34.4939 46.9842 28.7611C45.7209 28.7721 44.4576 28.7831 43.1943 28.7941C43.2062 30.1732 43.2182 31.5522 43.2279 32.9313L43.2302 32.9336Z" fill="#044348"/>
<path d="M60.6978 32.0727C61.6378 32.0646 62.5801 32.0587 63.5201 32.0529C63.5599 36.6278 63.602 41.2026 63.6441 45.7775C64.9075 45.7806 66.1709 45.7861 67.4367 45.7962C67.3968 41.2073 67.3523 36.6207 67.3101 32.0317C68.5712 32.0255 69.8322 32.0192 71.0933 32.0153C71.0832 30.8622 71.0732 29.7067 71.0632 28.5536C67.5989 28.5837 64.1346 28.6115 60.6703 28.6416C60.6802 29.7853 60.6902 30.929 60.7001 32.0751L60.6978 32.0727Z" fill="#044348"/>
<path d="M69.2986 45.8248C70.5667 45.8374 71.8349 45.8546 73.1031 45.8718C73.064 41.6499 73.025 37.4281 72.9837 33.2063C71.7157 33.2079 70.4477 33.2119 69.1797 33.2158C69.2185 37.4188 69.2574 41.6195 69.2962 45.8225L69.2986 45.8248Z" fill="#044348"/>
<path d="M72.5879 32.01C73.35 32.008 74.1122 32.0038 74.8767 32.0018C74.9193 36.6332 74.9641 41.2621 75.0067 45.8934C76.2703 45.9154 77.534 45.9421 78.7976 45.9711C78.7525 41.3115 78.7097 36.6543 78.6645 31.9948C79.6231 31.9935 80.5816 31.9922 81.5401 31.991C81.5299 30.819 81.5197 29.6447 81.5072 28.4728C78.5233 28.4987 75.5393 28.52 72.5554 28.5459C72.5655 29.7014 72.5755 30.8569 72.5879 32.0147L72.5879 32.01Z" fill="#044348"/>
<path d="M86.67 28.0446C85.3536 28.0561 84.2372 28.4988 83.3163 29.3658C82.3976 30.2329 81.9424 31.2724 81.9553 32.4914C81.9992 37.0121 82.0409 41.5328 82.0848 46.0511C83.3531 46.0848 84.6215 46.1232 85.8899 46.1663C85.8796 44.9826 85.8693 43.7988 85.8567 42.6151C86.4873 42.6308 87.1203 42.6465 87.751 42.6646C87.7614 43.853 87.7717 45.0414 87.7844 46.2322C89.0528 46.2776 90.3212 46.3254 91.5874 46.3756C91.5426 41.7537 91.4978 37.1319 91.4553 32.5099C91.4444 31.2627 90.9686 30.2007 90.0326 29.331C89.0965 28.4613 87.9749 28.0356 86.6677 28.047L86.67 28.0446ZM87.7177 39.0969C87.0871 39.086 86.4541 39.075 85.8235 39.064C85.8044 36.8731 85.7808 34.6845 85.7594 32.4936C85.7573 32.2465 85.8478 32.0362 86.0311 31.8628C86.2144 31.6894 86.4399 31.6027 86.7033 31.6028C86.9596 31.6029 87.1821 31.6881 87.3684 31.863C87.5547 32.0355 87.6512 32.2488 87.6534 32.4959C87.6725 34.6963 87.6962 36.8943 87.7177 39.0946L87.7177 39.0969Z" fill="#044348"/>
<path d="M98.5573 32.733C97.9073 31.2936 97.2574 29.8636 96.6098 28.443C96.6096 28.4124 96.6093 28.3842 96.6091 28.3536C95.3458 28.3646 94.0824 28.3732 92.8191 28.3818C92.876 34.3945 92.9352 40.4072 92.9921 46.4199C94.256 46.4725 95.5176 46.5298 96.7815 46.5894C96.7481 43.0194 96.7125 39.4494 96.6791 35.8795C97.3291 37.3165 97.9791 38.7606 98.6269 40.2142C98.6457 42.3698 98.6668 44.5278 98.6878 46.6834C99.9518 46.7477 101.213 46.8144 102.477 46.8834C102.419 40.6919 102.363 34.5027 102.304 28.3111C101.041 28.3221 99.7778 28.3307 98.5144 28.3394C98.5272 29.8031 98.5399 31.2693 98.555 32.733L98.5573 32.733Z" fill="#044348"/>
<path d="M113.199 34.6453L113.182 32.6614C113.17 31.3577 112.719 30.2319 111.827 29.303C110.927 28.3741 109.84 27.8988 108.569 27.8675L108.384 27.8691C107.077 27.8898 105.968 28.3608 105.059 29.2724C104.148 30.1841 103.695 31.2753 103.699 32.5603C103.711 33.9464 103.723 35.3302 103.738 36.7163C103.758 37.9658 104.215 39.0539 105.106 39.9922C105.996 40.9212 107.075 41.4437 108.337 41.5504C108.399 41.5522 108.459 41.5564 108.522 41.5582C108.787 41.57 109.012 41.6716 109.199 41.8653C109.385 42.059 109.48 42.2912 109.482 42.5571C109.484 42.8136 109.394 43.031 109.211 43.2091C109.027 43.3848 108.802 43.4668 108.538 43.455C106.958 43.3769 105.377 43.3012 103.797 43.2326C103.808 44.4799 103.818 45.7248 103.829 46.972C105.41 47.0618 106.991 47.1587 108.571 47.2579C109.886 47.343 111.003 46.952 111.922 46.0709C112.831 45.1898 113.281 44.0751 113.269 42.7431C113.258 41.437 112.807 40.2971 111.916 39.3329C111.016 38.371 109.931 37.8533 108.657 37.7726C108.6 37.766 108.542 37.7595 108.484 37.7553C108.228 37.7481 108.007 37.6535 107.819 37.4716C107.632 37.2825 107.538 37.0551 107.533 36.7915C107.521 35.396 107.509 34.0005 107.497 32.605C107.497 32.5791 107.496 32.5461 107.496 32.5132L107.496 32.4732C107.505 32.4472 107.509 32.4283 107.509 32.4213C107.514 32.4071 107.518 32.3953 107.523 32.3812C107.527 32.3623 107.532 32.3458 107.536 32.3293C107.541 32.3128 107.545 32.2939 107.549 32.2774C107.554 32.2632 107.559 32.2514 107.563 32.2372C107.572 32.2207 107.586 32.197 107.602 32.171C107.611 32.1545 107.611 32.1497 107.602 32.1569C107.611 32.138 107.622 32.1167 107.64 32.0907C107.645 32.0906 107.649 32.0906 107.654 32.0905L107.654 32.0764C107.663 32.0575 107.674 32.0362 107.693 32.0102C107.697 32.0101 107.702 32.0101 107.707 32.0101C107.725 31.984 107.741 31.9627 107.759 31.9437C107.764 31.9437 107.768 31.9436 107.773 31.9436C107.791 31.9175 107.812 31.8938 107.839 31.8771C108.007 31.7368 108.205 31.6668 108.433 31.6695C108.699 31.6696 108.924 31.7665 109.11 31.9531C109.297 32.1398 109.393 32.3625 109.396 32.619C109.401 33.2709 109.407 33.9228 109.413 34.5747C110.676 34.5966 111.937 34.6186 113.201 34.6429L113.199 34.6453Z" fill="#044348"/>
</g>
<defs>
<clipPath id="clip0_562_1078">
<rect width="112" height="47" fill="white" transform="translate(0.906494 1.55273) rotate(-0.498237)"/>
</clipPath>
</defs>
</svg>
