<svg fill="none" viewBox="0 0 20 25" xmlns="http://www.w3.org/2000/svg"><path d="M19 10.41C19 17.726 10 24 10 24s-9-6.273-9-13.59c0-2.496.948-4.89 2.636-6.654C5.324 1.99 7.613 1 10 1s4.676.991 6.364 2.756C18.052 5.52 19 7.914 19 10.409Z" stroke="currentColor" stroke-width="2" stroke-linecap="round" stroke-linejoin="round"/><path d="M10 12.5a2.46 2.46 0 0 0 2.454-2.464A2.46 2.46 0 0 0 10 7.57a2.46 2.46 0 0 0-2.455 2.465A2.46 2.46 0 0 0 10 12.5Z" stroke="currentColor" stroke-width="2" stroke-linecap="round" stroke-linejoin="round"/></svg>
