<svg xmlns="http://www.w3.org/2000/svg" viewBox="0 0 24 25"><path fill="currentColor" d="M21.578 19.4l-1.544 1.544c-.684.685-1.591 1.056-2.54 1.056-.149 0-.297-.01-.449-.03-3.22-.398-6.766-2.326-9.73-5.289-2.963-2.96-4.889-6.507-5.287-9.727-.137-1.11.237-2.196 1.03-2.989L4.6 2.421c.562-.561 1.477-.561 2.037 0l3.395 3.396c.271.27.423.634.423 1.017 0 .385-.149.747-.423 1.018L8.165 9.721l6.113 6.113 1.869-1.868c.562-.562 1.474-.562 2.036 0l3.396 3.395c.561.563.561 1.477 0 2.04V19.4z" transform="translate(-455 -881) translate(0 731) translate(455 151)"/></svg>
