<svg width="18" height="30" viewBox="0 0 18 30" fill="none" xmlns="http://www.w3.org/2000/svg">
<g filter="url(#filter0_b_3050_1690)">
<path d="M0.778677 13.2971C0.921413 13.1714 1.0651 13.0495 1.20404 12.9314C1.27422 12.8715 1.34441 12.8116 1.41459 12.7518L3.74769 10.7487C7.48018 7.54384 11.3402 4.22957 15.1348 0.967558C15.5009 0.65295 15.8632 0.5 16.2421 0.5C16.4849 0.5 16.7244 0.564772 16.9534 0.692684C17.3176 0.896254 17.9279 1.41171 17.9208 2.57162C17.9189 2.87807 17.9199 3.19267 17.9208 3.49694C17.9218 3.91769 17.9227 4.35204 17.917 4.78477C17.9023 5.87229 17.5026 6.78345 16.7614 7.4192C14.5008 9.35856 12.2028 11.3317 9.98068 13.2394L7.93921 14.9921L9.98115 16.7453C12.237 18.6819 14.4923 20.618 16.7486 22.5541C17.3831 23.0984 17.7529 23.7756 17.8487 24.5675C17.8985 24.9801 17.9123 25.378 17.9255 25.7628C17.9312 25.9223 17.9365 26.0731 17.944 26.2227L18 27.3173L17.9208 27.3222C17.9208 27.3304 17.9208 27.3386 17.9213 27.3467C17.9488 28.4881 17.3679 29.0352 17.0193 29.26C16.7718 29.4194 16.5115 29.5 16.2445 29.5C15.7584 29.5 15.3881 29.2349 15.1192 29.0041C13.2854 27.4273 11.4194 25.8254 9.61506 24.2763C8.97014 23.7228 8.32522 23.1692 7.68077 22.6156L6.08838 21.2489C4.35183 19.758 2.55648 18.2166 0.791481 16.6985C0.291666 16.2685 0.0033493 15.6524 2.86102e-05 15.0073C-0.00329018 14.3602 0.28076 13.7369 0.779627 13.2982L0.778677 13.2971Z" fill="url(#paint0_linear_3050_1690)"/>
<path d="M0.778677 13.2971C0.921413 13.1714 1.0651 13.0495 1.20404 12.9314C1.27422 12.8715 1.34441 12.8116 1.41459 12.7518L3.74769 10.7487C7.48018 7.54384 11.3402 4.22957 15.1348 0.967558C15.5009 0.65295 15.8632 0.5 16.2421 0.5C16.4849 0.5 16.7244 0.564772 16.9534 0.692684C17.3176 0.896254 17.9279 1.41171 17.9208 2.57162C17.9189 2.87807 17.9199 3.19267 17.9208 3.49694C17.9218 3.91769 17.9227 4.35204 17.917 4.78477C17.9023 5.87229 17.5026 6.78345 16.7614 7.4192C14.5008 9.35856 12.2028 11.3317 9.98068 13.2394L7.93921 14.9921L9.98115 16.7453C12.237 18.6819 14.4923 20.618 16.7486 22.5541C17.3831 23.0984 17.7529 23.7756 17.8487 24.5675C17.8985 24.9801 17.9123 25.378 17.9255 25.7628C17.9312 25.9223 17.9365 26.0731 17.944 26.2227L18 27.3173L17.9208 27.3222C17.9208 27.3304 17.9208 27.3386 17.9213 27.3467C17.9488 28.4881 17.3679 29.0352 17.0193 29.26C16.7718 29.4194 16.5115 29.5 16.2445 29.5C15.7584 29.5 15.3881 29.2349 15.1192 29.0041C13.2854 27.4273 11.4194 25.8254 9.61506 24.2763C8.97014 23.7228 8.32522 23.1692 7.68077 22.6156L6.08838 21.2489C4.35183 19.758 2.55648 18.2166 0.791481 16.6985C0.291666 16.2685 0.0033493 15.6524 2.86102e-05 15.0073C-0.00329018 14.3602 0.28076 13.7369 0.779627 13.2982L0.778677 13.2971Z" fill="#00E6E6" fill-opacity="0.65"/>
<path d="M1.52788 13.3123L1.52855 13.3118L1.52896 13.3114L1.52937 13.3111L1.52979 13.3107L1.5302 13.3104L1.53061 13.31L1.53102 13.3097L1.53143 13.3093L1.53184 13.309L1.53225 13.3086L1.53266 13.3082L1.53307 13.3079L1.53349 13.3075L1.5339 13.3072L1.53431 13.3068L1.53472 13.3065L1.53513 13.3061L1.53554 13.3058L1.53595 13.3054L1.53636 13.3051L1.53678 13.3047L1.53719 13.3044L1.5376 13.304L1.53801 13.3037L1.53842 13.3033L1.53883 13.303L1.53924 13.3026L1.53965 13.3023L1.54007 13.3019L1.54048 13.3016L1.54089 13.3012L1.5413 13.3009L1.54171 13.3005L1.54212 13.3002L1.54253 13.2998L1.54294 13.2995L1.54335 13.2991L1.54377 13.2988L1.54418 13.2984L1.54459 13.2981L1.545 13.2977L1.54541 13.2974L1.54582 13.297L1.54623 13.2967L1.54664 13.2963L1.54706 13.296L1.54747 13.2956L1.54788 13.2953L1.54829 13.2949L1.5487 13.2946L1.54911 13.2942L1.54952 13.2939L1.54993 13.2935L1.55035 13.2932L1.55076 13.2928L1.55117 13.2925L1.55158 13.2921L1.55199 13.2918L1.5524 13.2914L1.55281 13.2911L1.55322 13.2907L1.55364 13.2904L1.55405 13.29L1.55446 13.2897L1.55487 13.2893L1.55528 13.289L1.55569 13.2886L1.5561 13.2883L1.55651 13.2879L1.55692 13.2875L1.55734 13.2872L1.55775 13.2868L1.55816 13.2865L1.55857 13.2861L1.55898 13.2858L1.55939 13.2854L1.5598 13.2851L1.56021 13.2847L1.56063 13.2844L1.56104 13.284L1.56145 13.2837L1.56186 13.2833L1.56227 13.283L1.56268 13.2826L1.56309 13.2823L1.56351 13.2819L1.56392 13.2816L1.56433 13.2812L1.56474 13.2809L1.56515 13.2805L1.56556 13.2802L1.56597 13.2798L1.56638 13.2795L1.5668 13.2791L1.56721 13.2788L1.56762 13.2784L1.56803 13.2781L1.56844 13.2777L1.56885 13.2774L1.56926 13.277L1.56967 13.2767L1.57009 13.2763L1.5705 13.276L1.57091 13.2756L1.57132 13.2753L1.57173 13.2749L1.57214 13.2746L1.57255 13.2742L1.57296 13.2739L1.57337 13.2735L1.57379 13.2732L1.5742 13.2728L1.57461 13.2725L1.57502 13.2721L1.57543 13.2718L1.57584 13.2714L1.57625 13.2711L1.57666 13.2707L1.57708 13.2704L1.57749 13.27L1.5779 13.2697L1.57831 13.2693L1.57872 13.269L1.57913 13.2686L1.57954 13.2683L1.57995 13.2679L1.58037 13.2676L1.58078 13.2672L1.58119 13.2669L1.5816 13.2665L1.58201 13.2662L1.58242 13.2658L1.58283 13.2654L1.58324 13.2651L1.58365 13.2647L1.58407 13.2644L1.58448 13.264L1.58489 13.2637L1.5853 13.2633L1.58571 13.263L1.58612 13.2626L1.58653 13.2623L1.58694 13.2619L1.58736 13.2616L1.58777 13.2612L1.58818 13.2609L1.58859 13.2605L1.589 13.2602L1.58941 13.2598L1.58982 13.2595L1.59023 13.2591L1.59065 13.2588L1.59106 13.2584L1.59147 13.2581L1.59188 13.2577L1.59229 13.2574L1.5927 13.257L1.59311 13.2567L1.59352 13.2563L1.59394 13.256L1.59435 13.2556L1.59476 13.2553L1.59517 13.2549L1.59558 13.2546L1.59599 13.2542L1.5964 13.2539L1.59682 13.2535L1.59723 13.2532L1.59764 13.2528L1.59805 13.2525L1.59846 13.2521L1.59887 13.2518L1.59928 13.2514L1.59969 13.2511L1.60011 13.2507L1.60052 13.2504L1.60093 13.25L1.60134 13.2497L1.60175 13.2493L1.60216 13.249L1.60257 13.2486L1.60298 13.2483L1.60339 13.2479L1.60381 13.2476L1.60422 13.2472L1.60463 13.2469L1.60504 13.2465L1.60545 13.2462L1.60586 13.2458L1.60627 13.2455L1.60668 13.2451L1.6071 13.2448L1.60751 13.2444L1.60792 13.244L1.60833 13.2437L1.60874 13.2433L1.60915 13.243L1.60956 13.2426L1.60997 13.2423L1.61039 13.2419L1.6108 13.2416L1.61121 13.2412L1.61162 13.2409L1.61203 13.2405L1.61244 13.2402L1.61285 13.2398L1.61326 13.2395L1.61367 13.2391L1.61409 13.2388L1.6145 13.2384L1.61491 13.2381L1.61532 13.2377L1.61573 13.2374L1.61614 13.237L1.61655 13.2367L1.61696 13.2363L1.61738 13.236L1.61779 13.2356L1.6182 13.2353L1.61861 13.2349L1.61902 13.2346L1.61943 13.2342L1.61984 13.2339L1.62025 13.2335L1.62067 13.2332L1.62108 13.2328L1.62149 13.2325L1.6219 13.2321L1.62231 13.2318L1.62272 13.2314L1.62313 13.2311L1.62354 13.2307L1.62395 13.2304L1.62437 13.23L1.62478 13.2297L1.62519 13.2293L1.6256 13.229L1.62601 13.2286L1.62642 13.2283L1.62683 13.2279L1.62724 13.2276L1.62766 13.2272L1.62807 13.2269L1.62848 13.2265L1.62889 13.2262L1.6293 13.2258L1.62971 13.2255L1.63012 13.2251L1.63054 13.2248L1.63095 13.2244L1.63136 13.2241L1.63177 13.2237L1.63218 13.2234L1.63259 13.223L1.633 13.2226L1.63341 13.2223L1.63383 13.2219L1.63424 13.2216L1.63465 13.2212L1.63506 13.2209L1.63547 13.2205L1.63588 13.2202L1.63629 13.2198L1.6367 13.2195L1.63712 13.2191L1.63753 13.2188L1.63794 13.2184L1.63835 13.2181L1.63876 13.2177L1.63917 13.2174L1.63958 13.217L1.63999 13.2167L1.6404 13.2163L1.64082 13.216L1.64123 13.2156L1.64164 13.2153L1.64205 13.2149L1.64246 13.2146L1.64287 13.2142L1.64328 13.2139L1.64369 13.2135L1.64411 13.2132L1.64452 13.2128L1.64493 13.2125L1.64534 13.2121L1.64575 13.2118L1.64616 13.2114L1.64657 13.2111L1.64698 13.2107L1.6474 13.2104L1.64781 13.21L1.64822 13.2097L1.64863 13.2093L1.64904 13.209L1.64945 13.2086L1.64986 13.2083L1.65027 13.2079L1.65069 13.2076L1.6511 13.2072L1.65151 13.2069L1.65192 13.2065L1.65233 13.2062L1.65274 13.2058L1.65315 13.2055L1.65356 13.2051L1.65397 13.2048L1.65439 13.2044L1.6548 13.2041L1.65521 13.2037L1.65562 13.2034L1.65603 13.203L1.65644 13.2027L1.65685 13.2023L1.65726 13.202L1.65768 13.2016L1.65809 13.2012L1.6585 13.2009L1.65891 13.2005L1.65932 13.2002L1.65973 13.1998L1.66014 13.1995L1.66055 13.1991L1.66097 13.1988L1.66138 13.1984L1.66179 13.1981L1.6622 13.1977L1.66261 13.1974L1.66302 13.197L1.66343 13.1967L1.66385 13.1963L1.66426 13.196L1.66467 13.1956L1.66508 13.1953L1.66549 13.1949L1.6659 13.1946L1.66631 13.1942L1.66672 13.1939L1.66714 13.1935L1.66755 13.1932L1.66796 13.1928L1.66837 13.1925L1.66878 13.1921L1.66919 13.1918L1.6696 13.1914L1.67001 13.1911L1.67042 13.1907L1.67084 13.1904L1.67125 13.19L1.67166 13.1897L1.67207 13.1893L1.67248 13.189L1.67289 13.1886L1.6733 13.1883L1.67371 13.1879L1.67413 13.1876L1.67454 13.1872L1.67495 13.1869L1.67536 13.1865L1.67577 13.1862L1.67618 13.1858L1.67659 13.1855L1.677 13.1851L1.67742 13.1848L1.67783 13.1844L1.67824 13.1841L1.67865 13.1837L1.67906 13.1834L1.67947 13.183L1.67988 13.1827L1.68029 13.1823L1.6807 13.182L1.68112 13.1816L1.68153 13.1813L1.68194 13.1809L1.68235 13.1805L1.68276 13.1802L1.68317 13.1798L1.68358 13.1795L1.68399 13.1791L1.68441 13.1788L1.68482 13.1784L1.68523 13.1781L1.68564 13.1777L1.68605 13.1774L1.68646 13.177L1.68687 13.1767L1.68728 13.1763L1.6877 13.176L1.68811 13.1756L1.68852 13.1753L1.68893 13.1749L1.68934 13.1746L1.68975 13.1742L1.69016 13.1739L1.69057 13.1735L1.69098 13.1732L1.6914 13.1728L1.69181 13.1725L1.69222 13.1721L1.69263 13.1718L1.69304 13.1714L1.69345 13.1711L1.69386 13.1707L1.69427 13.1704L1.69469 13.17L1.6951 13.1697L1.69551 13.1693L1.69592 13.169L1.69633 13.1686L1.69674 13.1683L1.69715 13.1679L1.69757 13.1676L1.69798 13.1672L1.69839 13.1669L1.6988 13.1665L1.69921 13.1662L1.69962 13.1658L1.70003 13.1655L1.70044 13.1651L1.70086 13.1648L1.70127 13.1644L1.70168 13.1641L1.70209 13.1637L1.7025 13.1634L1.70291 13.163L1.70332 13.1627L1.70373 13.1623L1.70415 13.162L1.70456 13.1616L1.70497 13.1613L1.70538 13.1609L1.70579 13.1606L1.7062 13.1602L1.70661 13.1599L1.70702 13.1595L1.70744 13.1592L1.70785 13.1588L1.70826 13.1584L1.70867 13.1581L1.70908 13.1577L1.70949 13.1574L1.7099 13.157L1.71031 13.1567L1.71072 13.1563L1.71114 13.156L1.71155 13.1556L1.71196 13.1553L1.71237 13.1549L1.71278 13.1546L1.71319 13.1542L1.7136 13.1539L1.71401 13.1535L1.71443 13.1532L1.71484 13.1528L1.71525 13.1525L1.71566 13.1521L1.71607 13.1518L1.71648 13.1514L1.71689 13.1511L1.7173 13.1507L1.71772 13.1504L1.71813 13.15L1.71854 13.1497L1.71895 13.1493L1.71936 13.149L1.71977 13.1486L1.72018 13.1483L1.72059 13.1479L1.721 13.1476L1.72142 13.1472L1.72183 13.1469L1.72224 13.1465L1.72265 13.1462L1.72306 13.1458L1.72347 13.1455L1.72388 13.1451L1.72429 13.1448L1.72471 13.1444L1.72512 13.1441L1.72553 13.1437L1.72594 13.1434L1.72635 13.143L1.72676 13.1427L1.72717 13.1423L1.72758 13.142L1.728 13.1416L1.72841 13.1413L1.72882 13.1409L1.72923 13.1406L1.72964 13.1402L1.73005 13.1399L1.73046 13.1395L1.73088 13.1392L1.73129 13.1388L1.7317 13.1385L1.73211 13.1381L1.73252 13.1377L1.73293 13.1374L1.73334 13.137L1.73375 13.1367L1.73417 13.1363L1.73458 13.136L1.73499 13.1356L1.7354 13.1353L1.73581 13.1349L1.73622 13.1346L1.73663 13.1342L1.73704 13.1339L1.73745 13.1335L1.73787 13.1332L1.73828 13.1328L1.73869 13.1325L1.7391 13.1321L1.74029 13.1311L4.07339 11.1281L4.07341 11.1281L4.41374 10.8358C8.04022 7.722 11.7813 4.5098 15.4608 1.34672L1.52788 13.3123ZM1.52788 13.3123L1.50976 13.3277C1.43711 13.3895 1.36438 13.4513 1.29183 13.5136L1.10982 13.6737C0.716413 14.0197 0.497467 14.5064 0.500023 15.0048C0.502579 15.5014 0.724712 15.9815 1.11757 16.3195C2.88235 17.8373 4.6775 19.3786 6.41403 20.8695C6.41404 20.8695 6.41406 20.8695 6.41407 20.8695L8.00642 22.2362L8.00656 22.2364C8.64935 22.7885 9.29262 23.3406 9.93598 23.8928L9.94072 23.8969L9.94076 23.8969M1.52788 13.3123L9.94076 23.8969M16.4358 7.03968L16.4358 7.03972C14.3985 8.78755 12.3308 10.5628 10.3157 12.2929L9.65497 12.8601L7.61351 14.6127L7.17165 14.9921L7.6135 15.3715L9.65544 17.1247L9.65545 17.1247C11.9113 19.0613 14.1666 20.9974 16.423 22.9336L16.423 22.9336C16.9676 23.4008 17.2723 23.966 17.3523 24.6276C17.3992 25.0156 17.4125 25.3926 17.4258 25.7801L17.4259 25.7806L17.427 25.8119C17.4322 25.9593 17.4374 26.104 17.4447 26.2481L17.4447 26.2483L17.4754 26.8488L17.4208 26.8522V27.3222L17.4208 27.3236C17.4208 27.3299 17.4208 27.346 17.4216 27.3649C17.4418 28.2873 16.9876 28.6854 16.7485 28.8396L16.4358 7.03968ZM16.4358 7.03968C17.0549 6.50867 17.404 5.74032 17.4171 4.77819L16.4358 7.03968ZM9.94076 23.8969L10.1949 24.1151C11.92 25.5961 13.6972 27.1219 15.4452 28.625C15.6955 28.8398 15.9474 29 16.2445 29C16.4058 29 16.5731 28.9526 16.7483 28.8398L9.94076 23.8969ZM17.4208 2.56853C17.4266 1.63174 16.9538 1.26575 16.7096 1.12922L17.4208 2.56853ZM17.4171 4.77801C17.4227 4.3499 17.4218 3.91951 17.4208 3.49831L17.4171 4.77801Z" stroke="url(#paint1_linear_3050_1690)"/>
</g>
<defs>
<filter id="filter0_b_3050_1690" x="-15.8203" y="-15.3203" width="49.6406" height="60.6406" filterUnits="userSpaceOnUse" color-interpolation-filters="sRGB">
<feFlood flood-opacity="0" result="BackgroundImageFix"/>
<feGaussianBlur in="BackgroundImageFix" stdDeviation="7.91016"/>
<feComposite in2="SourceAlpha" operator="in" result="effect1_backgroundBlur_3050_1690"/>
<feBlend mode="normal" in="SourceGraphic" in2="effect1_backgroundBlur_3050_1690" result="shape"/>
</filter>
<linearGradient id="paint0_linear_3050_1690" x1="9" y1="0.5" x2="9" y2="29.5" gradientUnits="userSpaceOnUse">
<stop stop-color="#00A3FF" stop-opacity="0.3"/>
<stop offset="1" stop-color="#00F0FF" stop-opacity="0"/>
</linearGradient>
<linearGradient id="paint1_linear_3050_1690" x1="9" y1="0.5" x2="9" y2="29.5" gradientUnits="userSpaceOnUse">
</linearGradient>
</defs>
</svg>
