<svg width="46" height="48" viewBox="0 0 46 48" fill="none" xmlns="http://www.w3.org/2000/svg">
<g clip-path="url(#clip0_653_11895)">
<path d="M11.9108 47.479C11.9108 45.6246 11.9108 43.7635 11.9108 41.8554C8.16882 41.8554 4.47301 41.8554 0.717805 41.8554C0.704606 41.6202 0.691406 41.4388 0.691406 41.2574C0.691406 30.6753 0.691406 20.0932 0.691406 9.51104C0.691406 9.20197 0.744204 8.88619 0.836599 8.59728C1.66816 6.03741 2.51291 3.49098 3.33787 0.931117C3.44346 0.595177 3.58206 0.480957 3.93844 0.480957C17.6327 0.494395 31.327 0.487676 45.0213 0.487676C45.1533 0.487676 45.2919 0.487676 45.4833 0.487676C45.4833 0.709397 45.4833 0.890804 45.4833 1.07893C45.4833 10.1964 45.4833 19.3205 45.4899 28.4379C45.4899 28.8209 45.3777 29.0829 45.1137 29.3517C41.1407 33.383 37.1743 37.421 33.2145 41.4657C32.9505 41.7345 32.6931 41.8487 32.3236 41.842C29.9147 41.8218 27.4992 41.842 25.0903 41.8218C24.6284 41.8218 24.2984 41.9427 23.9684 42.2854C22.3779 43.9382 20.7676 45.5709 19.144 47.1968C18.9923 47.3514 18.7481 47.5059 18.5435 47.5059C16.392 47.5261 14.2339 47.5194 12.0824 47.5194C12.0362 47.5194 11.99 47.4992 11.8976 47.4858L11.9108 47.479ZM7.64744 4.72053C7.64744 14.7316 7.64744 24.709 7.64744 34.7536C10.9275 34.7536 14.1811 34.7536 17.4809 34.7536V40.4444C17.6327 40.2966 17.7185 40.216 17.7977 40.1354C19.4542 38.449 21.1173 36.7693 22.7673 35.0761C23.0048 34.8342 23.2358 34.7335 23.5724 34.7402C27.0108 34.7536 30.4427 34.7536 33.8811 34.7335C34.1319 34.7335 34.4487 34.5991 34.6268 34.4177C36.7717 32.2677 38.8902 30.0908 41.0219 27.934C41.2595 27.6921 41.3453 27.4503 41.3453 27.1143C41.3387 19.8244 41.3453 12.5278 41.3453 5.23787V4.71381C30.0863 4.71381 18.8801 4.71381 7.64744 4.71381V4.72053Z" fill="url(#paint0_linear_653_11895)"/>
<path d="M23.0709 13.3745V26.0663H18.9131C18.9131 21.8469 18.9131 17.6275 18.9131 13.3745H23.0709Z" fill="url(#paint1_linear_653_11895)"/>
<path d="M34.2505 26.0865H30.1719C30.1719 21.8469 30.1719 17.6275 30.1719 13.3745H34.2505C34.2505 17.5939 34.2505 21.8133 34.2505 26.0865Z" fill="url(#paint2_linear_653_11895)"/>
</g>
<defs>
<linearGradient id="paint0_linear_653_11895" x1="23.0906" y1="0.480957" x2="23.0906" y2="47.5204" gradientUnits="userSpaceOnUse">
<stop stop-color="#FF9E59"/>
<stop offset="1" stop-color="#FF7733"/>
</linearGradient>
<linearGradient id="paint1_linear_653_11895" x1="20.992" y1="13.3745" x2="20.992" y2="26.0663" gradientUnits="userSpaceOnUse">
<stop stop-color="#FF9E59"/>
<stop offset="1" stop-color="#FF7733"/>
</linearGradient>
<linearGradient id="paint2_linear_653_11895" x1="32.2112" y1="13.3745" x2="32.2112" y2="26.0865" gradientUnits="userSpaceOnUse">
<stop stop-color="#FF9E59"/>
<stop offset="1" stop-color="#FF7733"/>
</linearGradient>
<clipPath id="clip0_653_11895">
<rect width="44.7985" height="47.0384" fill="white" transform="translate(0.691406 0.480957)"/>
</clipPath>
</defs>
</svg>
