<svg xmlns="http://www.w3.org/2000/svg" viewBox="0 0 24 25"><path fill="currentColor" d="M12 2C6.486 2 2 6.486 2 12s4.486 10 10 10 10-4.486 10-10S17.514 2 12 2zm.714 1.557c.785.282 1.553 1.028 2.193 2.215.146.27.281.563.408.872-.81.176-1.685.292-2.6.331V3.557zm-1.428 0v3.416c-.915-.04-1.79-.154-2.6-.33.127-.31.262-.601.408-.87.64-1.188 1.407-1.933 2.192-2.215zm4.348.675c.84.392 1.603.916 2.267 1.546-.368.177-.77.339-1.2.484-.162-.411-.341-.802-.538-1.166-.163-.304-.34-.592-.53-.863zm-7.269 0c-.19.27-.366.56-.53.863-.196.365-.375.755-.538 1.167-.428-.145-.83-.307-1.199-.484.663-.63 1.428-1.153 2.267-1.546zm10.515 2.65c.929 1.247 1.525 2.76 1.66 4.403h-2.841c-.051-1.305-.24-2.54-.546-3.662.62-.208 1.22-.497 1.729-.742h-.002zm-13.762 0c.527.283 1.107.531 1.728.741-.306 1.123-.495 2.357-.546 3.662H3.459c.135-1.644.731-3.155 1.66-4.404l-.001.001zm3.107 1.129c.956.218 1.985.352 3.06.394v2.88H7.73c.091-1.138.237-2.307.495-3.275h-.001zm7.548 0c.269.99.444 2.099.495 3.275l-3.554-.001v-2.88c1.075-.043 2.104-.177 3.06-.394h-.001zM6.3 12.713c.05 1.3.238 2.53.542 3.65-.623.21-1.203.46-1.731.744-.925-1.246-1.654-2.74-1.654-4.39l2.843-.004zm1.43 0h3.555v2.867c-1.077.042-2.106.177-3.064.395-.267-.988-.44-2.091-.49-3.262zm4.983 0h3.555c-.051 1.17-.224 2.274-.491 3.262-.957-.218-1.988-.353-3.064-.395v-2.867zm4.985 0h2.843c-.135 1.64-.728 3.148-1.653 4.395-.529-.284-1.11-.534-1.733-.745.305-1.118.492-2.349.543-3.649zm-4.985 4.297c.918.04 1.794.156 2.606.333-.127.313-.266.61-.413.884-.64 1.187-1.408 1.932-2.193 2.215V17.01zm-1.428 0v3.431c-.785-.282-1.553-1.028-2.192-2.214-.148-.274-.286-.57-.414-.884.812-.177 1.689-.293 2.607-.333h-.001zm5.421.715c.43.146.835.308 1.205.488-.666.633-1.434 1.16-2.277 1.554.19-.27.366-.559.53-.863.198-.37.38-.764.543-1.179zm-9.414 0c.163.415.344.81.543 1.179.163.303.34.592.53.862-.843-.394-1.61-.92-2.277-1.554.37-.179.773-.342 1.204-.488v.001z" transform="translate(-455 -929) translate(0 731) translate(455 199)"/></svg>
