<svg width="57" height="56" viewBox="0 0 57 56" fill="none" xmlns="http://www.w3.org/2000/svg">
<path d="M47.1996 16.1747C40.6178 5.99966 27.1798 2.97464 16.7585 9.29969C6.61149 15.6247 3.32056 29.3748 9.90242 39.5499L10.4509 40.3749L8.25695 48.625L16.4843 46.425L17.307 46.975C20.8722 48.9 24.7116 50 28.551 50C32.6647 50 36.7784 48.9 40.3435 46.7C50.4906 40.0999 53.5073 26.6248 47.1996 16.1747ZM41.4405 37.3499C40.3435 38.9999 38.9723 40.0999 37.0526 40.3749C35.9556 40.3749 34.5844 40.9249 29.0995 38.7249C24.4374 36.5249 20.5979 32.9499 17.8555 28.8248C16.21 26.8998 15.3873 24.4248 15.1131 21.9498C15.1131 19.7498 15.9358 17.8248 17.307 16.4497C17.8555 15.8997 18.404 15.6247 18.9525 15.6247H20.3237C20.8722 15.6247 21.4207 15.6247 21.6949 16.7247C22.2434 18.0998 23.6146 21.3998 23.6146 21.6748C23.8889 21.9498 23.8889 22.4998 23.6146 22.7748C23.8889 23.3248 23.6146 23.8748 23.3404 24.1498C23.0661 24.4248 22.7919 24.9748 22.5177 25.2498C21.9692 25.5248 21.6949 26.0748 21.9692 26.6248C23.0661 28.2748 24.4374 29.9248 25.8086 31.2999C27.4541 32.6749 29.0995 33.7749 31.0192 34.5999C31.5677 34.8749 32.1162 34.8749 32.3904 34.3249C32.6647 33.7749 34.0359 32.3999 34.5844 31.8499C35.1329 31.2999 35.4071 31.2999 35.9556 31.5749L40.3435 33.7749C40.892 34.0499 41.4405 34.3249 41.7148 34.5999C41.989 35.4249 41.989 36.5249 41.4405 37.3499Z" fill="url(#paint0_linear_653_11899)"/>
<defs>
<linearGradient id="paint0_linear_653_11899" x1="28.4902" y1="6" x2="28.4902" y2="50" gradientUnits="userSpaceOnUse">
<stop stop-color="#FF9E59"/>
<stop offset="1" stop-color="#FF7733"/>
</linearGradient>
</defs>
</svg>
