<svg width="45" height="44" viewBox="0 0 45 44" fill="none" xmlns="http://www.w3.org/2000/svg">
<path d="M41.1996 10.1747C34.6178 -0.000336352 21.1798 -3.02536 10.7585 3.29969C0.611486 9.62474 -2.67944 23.3748 3.90242 33.5499L4.45091 34.3749L2.25695 42.625L10.4843 40.425L11.307 40.975C14.8722 42.9 18.7116 44 22.551 44C26.6647 44 30.7784 42.9 34.3435 40.7C44.4906 34.0999 47.5073 20.6248 41.1996 10.1747ZM35.4405 31.3499C34.3435 32.9999 32.9723 34.0999 31.0526 34.3749C29.9556 34.3749 28.5844 34.9249 23.0995 32.7249C18.4374 30.5249 14.5979 26.9499 11.8555 22.8248C10.21 20.8998 9.3873 18.4248 9.11306 15.9498C9.11306 13.7498 9.93579 11.8248 11.307 10.4497C11.8555 9.89974 12.404 9.62474 12.9525 9.62474H14.3237C14.8722 9.62474 15.4207 9.62474 15.6949 10.7247C16.2434 12.0998 17.6146 15.3998 17.6146 15.6748C17.8889 15.9498 17.8889 16.4998 17.6146 16.7748C17.8889 17.3248 17.6146 17.8748 17.3404 18.1498C17.0661 18.4248 16.7919 18.9748 16.5177 19.2498C15.9692 19.5248 15.6949 20.0748 15.9692 20.6248C17.0661 22.2748 18.4374 23.9248 19.8086 25.2999C21.4541 26.6749 23.0995 27.7749 25.0192 28.5999C25.5677 28.8749 26.1162 28.8749 26.3904 28.3249C26.6647 27.7749 28.0359 26.3999 28.5844 25.8499C29.1329 25.2999 29.4071 25.2999 29.9556 25.5749L34.3435 27.7749C34.892 28.0499 35.4405 28.3249 35.7148 28.5999C35.989 29.4249 35.989 30.5249 35.4405 31.3499Z" fill="url(#paint0_linear_653_11900)"/>
<defs>
<linearGradient id="paint0_linear_653_11900" x1="22.4902" y1="0" x2="22.4902" y2="44" gradientUnits="userSpaceOnUse">
<stop stop-color="#FF9E59"/>
<stop offset="1" stop-color="#FF7733"/>
</linearGradient>
</defs>
</svg>
