<svg width="19" height="18" viewBox="0 0 19 18" fill="none" xmlns="http://www.w3.org/2000/svg">
<path d="M17.2167 15.5607L11.1831 7.69418L10.501 6.80449L6.18495 1.17728L5.82736 0.710938H0.523926L1.81738 2.39781L7.55601 9.88072L8.23814 10.7695L12.849 16.7818L13.2067 17.2477H18.5102L17.2167 15.5609V15.5607ZM13.837 16.171L9.04668 9.9248L8.36456 9.03566L2.80586 1.78754H5.19693L9.69227 7.64916L10.3744 8.5383L16.2281 16.1709H13.837V16.171Z" fill="white"/>
<path d="M8.36433 9.03516L9.04645 9.9243L8.23776 10.769L2.03301 17.2472H0.50293L7.55563 9.88023L8.36433 9.03516Z" fill="white"/>
<path d="M17.8712 0.710938L11.1827 7.69418L10.374 8.5383L9.69189 7.64916L10.5006 6.80449L15.0313 2.07186L16.3411 0.710938H17.8712Z" fill="white"/>
</svg>
