<svg width="400" height="400" viewBox="0 0 400 400" fill="none" xmlns="http://www.w3.org/2000/svg">
<path d="M179.978 221.535L205.596 245.053L211.673 238.437C211.673 238.437 207.216 253.323 216.36 262.252C226.933 272.574 236.291 265.922 246.306 273.903C256.322 281.877 254.981 291.01 254.981 291.01C284.232 290.435 296.548 320.744 296.548 320.744C334.309 328.599 365.94 292.917 365.94 292.917L370.934 297.508C336.429 346.292 280.17 338.523 280.17 338.523C280.17 338.523 281.53 328.187 268.004 315.771C250.951 300.11 234.356 311.695 234.356 311.695C234.356 311.695 243.819 296.657 233.846 288.056C222.961 278.668 211.076 293.97 194.389 292.666C176.529 291.272 167.8 276.179 167.8 276.179C167.8 276.179 179.728 276.766 185.499 270.48C193.702 261.549 191.118 254.916 185.832 250.055C181.113 245.721 168.448 234.09 168.448 234.09C168.448 234.09 155.79 222.46 151.064 218.124C145.77 213.267 138.941 211.262 130.746 220.189C124.975 226.475 126.574 238.303 126.574 238.303C126.574 238.303 110.794 230.891 107.883 213.215C105.169 196.699 119.402 183.556 109.12 173.505C99.7028 164.297 85.5267 175.003 85.5267 175.003C85.5267 175.003 95.6538 157.478 78.6045 141.826C65.0783 129.41 54.9025 131.647 54.9025 131.647C54.9025 131.647 42.3724 76.2497 88.0492 37.7202L93.0432 42.3114C93.0432 42.3114 60.5479 78.4255 71.5893 115.383C71.5893 115.383 102.472 123.514 104.385 152.706C104.385 152.706 113.368 150.589 122.17 159.895C130.974 169.193 125.145 179.083 136.321 188.741C145.994 197.098 160.449 191.384 160.449 191.384L154.373 198L179.991 221.518L179.978 221.535Z" fill="#86B506" stroke="black" stroke-width="4" stroke-linecap="round" stroke-linejoin="round"/>
<path d="M164.745 220.342C164.745 220.342 147.468 200.212 132.076 211.067C120.044 219.557 122.26 227.658 122.26 227.658C122.26 227.658 113.158 218.692 114.538 207.152C116.491 190.854 123.347 179.268 113.052 169.818C103.347 160.91 93.412 166.419 93.412 166.419C93.412 166.419 99.0134 152.052 81.9641 136.4C68.4379 123.983 59.1456 127.027 59.1456 127.027C59.1456 127.027 46.0302 89.3776 85.5423 44.5841L87.0155 45.9329C87.0155 45.9329 55.6668 84.2017 63.7154 121.471C63.7154 121.471 94.9713 125.786 99.7973 159.481C99.7973 159.481 109.059 158.235 117.006 165.526C125.827 173.628 120.577 184.654 131.753 194.312C141.426 202.669 149.273 199.424 150.154 200.237C153.829 208.134 164.745 220.342 164.745 220.342Z" fill="#2B5400" stroke="#BCED35" stroke-width="2" stroke-linecap="round" stroke-linejoin="round"/>
<path d="M89.9519 46.2861L362.367 296.435" stroke="black" stroke-width="4" stroke-linecap="round" stroke-linejoin="round"/>
<path d="M132.098 197.683C132.098 197.683 117.579 207.518 118.142 198.277C118.142 198.277 114.797 209.226 122.3 206.364C122.3 206.364 122.296 213.674 130.434 210.785C130.434 210.785 122.021 207.33 132.098 197.683Z" fill="#00EDFF"/>
<path d="M182.46 236.612C182.46 236.612 203.988 252.116 194.477 268.377C187.044 281.088 178.568 280.219 178.568 280.219C178.568 280.219 188.28 288.524 199.655 286.168C215.734 282.84 226.902 274.371 237.196 283.822C246.902 292.73 242.252 303.1 242.252 303.1C242.252 303.1 256.086 296.292 273.139 311.952C286.665 324.369 284.424 333.892 284.424 333.892C284.424 333.892 323.048 343.757 364.327 300.576L362.854 299.227C362.854 299.227 327.392 333.717 289.572 328.868C289.572 328.868 282.613 298.092 248.627 296.151C248.627 296.151 249.084 286.817 241.139 279.519C232.318 271.418 221.78 277.589 211.204 267.274C202.059 258.352 204.618 250.252 203.734 249.446C196.157 247.479 182.458 236.618 182.458 236.618L182.46 236.612Z" fill="#2B5400" stroke="#BCED35" stroke-width="2" stroke-linecap="round" stroke-linejoin="round"/>
<path d="M207.812 267.208C207.812 267.208 199.248 282.51 208.406 281.165C208.406 281.165 197.784 285.429 199.993 277.709C199.993 277.709 192.709 278.34 194.894 269.978C194.894 269.978 199.053 278.065 207.805 267.206L207.812 267.208Z" fill="#00EDFF"/>
<path d="M68.1046 65.2368C68.1046 65.2368 82.0082 43.2171 90.5056 39.4475L88.0364 37.7375L78.0376 46.6967L71.6368 54.6525L65.7979 62.4356L68.1046 65.2368Z" fill="white"/>
<path d="M78.5895 141.85C78.5895 141.85 90.5351 145.231 91.3942 159.925C92.2533 174.618 85.5181 175.029 85.5181 175.029L88.1511 165.628L87.7872 155.775L84.2632 149.326L78.596 141.852L78.5895 141.85Z" fill="white"/>
<path d="M113.211 176.57C113.211 176.57 117.964 179.597 112.122 201.419C108.942 213.302 113.618 224.889 124.748 235.85L119.641 234.146L110.034 222.829L106.512 209.076L111.701 189.753L113.218 176.572L113.211 176.57Z" fill="white"/>
<path d="M103.063 155.175C103.063 155.175 111.923 154.53 123.804 162.097C123.804 162.097 114.397 153.483 110.787 152.494C107.177 151.506 103.063 155.175 103.063 155.175Z" fill="white"/>
<path d="M130.063 182.194C130.063 182.194 131.788 194.295 147.56 196.677C156.346 198.003 163.552 189.769 163.552 189.769L152.261 193.513L144.107 192.413L130.063 182.194Z" fill="white"/>
<path d="M211.672 238.437L206.962 249.637L205.596 245.053L211.672 238.437Z" fill="white"/>
<path d="M192.271 259.601C192.271 259.601 192.623 277.259 170.727 280.404L167.796 276.191L179.852 274.927L185.488 270.491L192.264 259.599L192.271 259.601Z" fill="white"/>
<path d="M210.85 255.256C210.85 255.256 211.061 267.572 227.05 271.467C236.556 273.783 243.006 273.299 248.964 278.111L246.301 273.894L239.109 269.953L230.713 268.368L219.699 265.413L210.843 255.254L210.85 255.256Z" fill="white"/>
<path d="M233.095 285.73C233.095 285.73 240.872 290.487 241.657 298.795C242.232 304.843 238.644 309.142 234.356 311.695L237.883 302.809L238.374 296.482L233.095 285.73Z" fill="white"/>
<path d="M252.972 293.084C252.972 293.084 263.136 293.364 278.038 299.173L272.318 294.426L265.504 291.749L258.082 290.893L252.972 293.084Z" fill="white"/>
<path d="M300.659 322.541C300.659 322.541 314.472 331.012 342.273 315.741C370.075 300.47 365.933 292.914 365.933 292.914L353.112 303.943L336.561 313.431L320.738 319.51L300.659 322.541Z" fill="white"/>
<path d="M260.528 309.293C260.528 309.293 283.646 315.567 280.163 338.522L276.933 325.58L269.878 318.766L260.526 309.299L260.528 309.293Z" fill="white"/>
<path d="M179.978 221.535L205.596 245.053L211.673 238.437C211.673 238.437 207.216 253.323 216.36 262.252C226.933 272.574 236.291 265.922 246.306 273.903C256.322 281.877 254.981 291.01 254.981 291.01C284.232 290.435 296.548 320.744 296.548 320.744C334.309 328.599 365.94 292.917 365.94 292.917L370.934 297.508C336.429 346.292 280.17 338.523 280.17 338.523C280.17 338.523 281.53 328.187 268.004 315.771C250.951 300.11 234.356 311.695 234.356 311.695C234.356 311.695 243.819 296.657 233.846 288.056C222.961 278.668 211.076 293.97 194.389 292.666C176.529 291.272 167.8 276.179 167.8 276.179C167.8 276.179 179.728 276.766 185.499 270.48C193.702 261.549 191.118 254.916 185.832 250.055C181.113 245.721 168.448 234.09 168.448 234.09C168.448 234.09 155.79 222.46 151.064 218.124C145.77 213.267 138.941 211.262 130.746 220.189C124.975 226.475 126.574 238.303 126.574 238.303C126.574 238.303 110.794 230.891 107.883 213.215C105.169 196.699 119.402 183.556 109.12 173.505C99.7028 164.297 85.5267 175.003 85.5267 175.003C85.5267 175.003 95.6538 157.478 78.6045 141.826C65.0783 129.41 54.9025 131.647 54.9025 131.647C54.9025 131.647 42.3724 76.2497 88.0492 37.7202L93.0432 42.3114C93.0432 42.3114 60.5479 78.4255 71.5893 115.383C71.5893 115.383 102.472 123.514 104.385 152.706C104.385 152.706 113.368 150.589 122.17 159.895C130.974 169.193 125.145 179.083 136.321 188.741C145.994 197.098 160.449 191.384 160.449 191.384L154.373 198L179.991 221.518L179.978 221.535Z" stroke="black" stroke-width="4" stroke-linecap="round" stroke-linejoin="round"/>
<path d="M58.1289 130.095C58.1289 130.095 37.1355 122.678 31.9714 110.006C26.8052 97.3397 31.1741 85.5003 31.1741 85.5003C31.1741 85.5003 50.9304 96.257 58.1289 130.095Z" fill="#F7E69C" stroke="black" stroke-width="4" stroke-linecap="round" stroke-linejoin="round"/>
<path d="M59.2107 126.854C59.2107 126.854 66.3309 106.813 68.1488 86.5374C69.728 68.9408 68.584 59.5044 55.9478 47.8967C55.9478 47.8967 53.0803 60.5469 51.6672 72.6164C48.8974 96.2842 59.2128 126.847 59.2128 126.847L59.2107 126.854Z" fill="#F7E69C" stroke="black" stroke-width="4" stroke-linecap="round" stroke-linejoin="round"/>
<path d="M60.0736 130.744C60.0736 130.744 70.5106 104.563 72.6921 101.07C77.2884 93.7081 86.8987 89.7336 95.1902 93.682C95.1902 93.682 94.5094 100.384 89.0123 106.906C82.9294 114.125 68.4489 130.103 60.0801 130.746L60.0736 130.744Z" fill="#F7E69C" stroke="black" stroke-width="4" stroke-linecap="round" stroke-linejoin="round"/>
<path d="M281.478 337.173C281.478 337.173 290.629 355.448 303.691 359.519C316.754 363.59 328.175 358.225 328.175 358.225C328.175 358.225 315.802 341.468 281.471 337.171L281.478 337.173Z" fill="#F7E69C" stroke="black" stroke-width="4" stroke-linecap="round" stroke-linejoin="round"/>
<path d="M283.423 335.662C283.423 335.662 303.949 325.008 324.002 321.471C341.399 318.403 350.898 318.734 363.541 330.344C363.541 330.344 351.18 334.272 339.273 336.71C315.927 341.481 283.429 335.664 283.429 335.664L283.423 335.662Z" fill="#F7E69C" stroke="black" stroke-width="4" stroke-linecap="round" stroke-linejoin="round"/>
<path d="M281.046 334.148C281.046 334.148 305.835 320.652 309.137 318.181C316.082 312.979 319.225 303.064 314.58 295.139C314.58 295.139 307.961 296.388 301.928 302.421C295.256 309.097 280.967 325.751 281.046 334.148Z" fill="#F7E69C" stroke="black" stroke-width="4" stroke-linecap="round" stroke-linejoin="round"/>
<path d="M62.2349 128.584C62.2349 128.584 86.3235 96.4856 93.7939 94.4549" stroke="#AA8941" stroke-width="2" stroke-linecap="round" stroke-linejoin="round"/>
<path d="M59.2122 122.533C59.2122 122.533 60.7431 70.459 56.6448 50.3625" stroke="#AA8941" stroke-width="2" stroke-linecap="round" stroke-linejoin="round"/>
<path d="M56.617 128.15C55.9688 127.933 34.8008 107.183 31.9988 87.5188" stroke="#AA8941" stroke-width="2" stroke-linecap="round" stroke-linejoin="round"/>
<path d="M282.556 331.569C282.556 331.569 312.498 303.967 313.834 296.338" stroke="#AA8941" stroke-width="2" stroke-linecap="round" stroke-linejoin="round"/>
<path d="M31.9988 87.5188C31.9988 87.5188 29.8327 102.643 35.6637 111.072C41.4948 119.501 46.2474 122.528 46.2474 122.528L37.4653 118.56L28.7894 101.604L31.9988 87.5188Z" fill="white"/>
<path d="M288.862 334.019C288.862 334.019 340.573 327.678 360.959 329.9" stroke="#AA8941" stroke-width="2" stroke-linecap="round" stroke-linejoin="round"/>
<path d="M56.6452 50.3624C56.6452 50.3624 51.3727 87.7675 57.9887 125.142L52.8881 103.969L50.4644 83.6898C50.4644 83.6898 52.4006 65.1102 52.5826 63.5718C52.7647 62.0334 55.9546 47.8989 55.9546 47.8989L56.6517 50.3646L56.6452 50.3624Z" fill="white"/>
<path d="M283.511 337.125C283.785 337.749 306.406 356.91 326.246 357.876" stroke="#AA8941" stroke-width="2" stroke-linecap="round" stroke-linejoin="round"/>
<path d="M58.1289 130.095C58.1289 130.095 37.1355 122.678 31.9714 110.006C26.8052 97.3397 31.1741 85.5003 31.1741 85.5003C31.1741 85.5003 50.9304 96.257 58.1289 130.095Z" stroke="black" stroke-width="4" stroke-linecap="round" stroke-linejoin="round"/>
<path d="M62.2353 128.584C62.2353 128.584 72.745 104.56 76.7223 100.283C82.3424 94.2348 90.0956 92.9109 95.1839 93.6798L88.4172 91.4863L78.9239 94.8084L72.6857 101.068L66.9077 113.784L62.2288 128.581L62.2353 128.584Z" fill="white"/>
<path d="M59.2107 126.854C59.2107 126.854 66.3309 106.813 68.1488 86.5374C69.728 68.9408 68.584 59.5044 55.9478 47.8967C55.9478 47.8967 53.0803 60.5469 51.6672 72.6164C48.8974 96.2842 59.2128 126.847 59.2128 126.847L59.2107 126.854Z" stroke="black" stroke-width="4" stroke-linecap="round" stroke-linejoin="round"/>
<path d="M60.0736 130.744C60.0736 130.744 70.5106 104.563 72.6921 101.07C77.2884 93.7081 86.8987 89.7336 95.1902 93.682C95.1902 93.682 94.5094 100.384 89.0123 106.906C82.9294 114.125 68.4489 130.103 60.0801 130.746L60.0736 130.744Z" stroke="black" stroke-width="4" stroke-linecap="round" stroke-linejoin="round"/>
<path d="M286.178 335.155C286.178 335.155 315.838 324.869 331.612 322.93C347.386 320.991 363.534 330.342 363.534 330.342L352.788 322.073L341.503 320.079L329.742 320.484L308.078 326.234L286.174 335.146L286.178 335.155Z" fill="white"/>
<path d="M281.478 337.173C281.478 337.173 290.629 355.448 303.691 359.519C316.754 363.59 328.175 358.225 328.175 358.225C328.175 358.225 315.802 341.468 281.471 337.171L281.478 337.173Z" stroke="black" stroke-width="4" stroke-linecap="round" stroke-linejoin="round"/>
<path d="M283.423 335.662C283.423 335.662 303.949 325.008 324.002 321.471C341.399 318.403 350.898 318.734 363.541 330.344C363.541 330.344 351.18 334.272 339.273 336.71C315.927 341.481 283.429 335.664 283.429 335.664L283.423 335.662Z" stroke="black" stroke-width="4" stroke-linecap="round" stroke-linejoin="round"/>
<path d="M281.046 334.148C281.046 334.148 288.821 320.997 297.692 310.17C303.719 302.817 310.569 297.1 314.58 295.139L304.667 299.978L295.11 310.007L285.452 322.739L281.046 334.148Z" fill="white"/>
<path d="M281.046 334.148C281.046 334.148 305.835 320.652 309.137 318.181C316.082 312.979 319.225 303.064 314.58 295.139C314.58 295.139 307.961 296.388 301.928 302.421C295.256 309.097 280.967 325.751 281.046 334.148Z" stroke="black" stroke-width="4" stroke-linecap="round" stroke-linejoin="round"/>
<g style="mix-blend-mode:multiply">
<path d="M292.748 330.857L316.766 321.289L304.191 321.696L284.958 332.313L292.748 330.857Z" fill="#AEAFA3"/>
</g>
<mask id="mask0_5616_7620" style="mask-type:luminance" maskUnits="userSpaceOnUse" x="53" y="37" width="318" height="302">
<path d="M179.978 221.535L205.596 245.053L211.673 238.437C211.673 238.437 207.216 253.323 216.36 262.252C226.933 272.574 236.291 265.922 246.306 273.903C256.322 281.877 254.981 291.01 254.981 291.01C284.232 290.435 296.548 320.744 296.548 320.744C334.309 328.599 365.94 292.917 365.94 292.917L370.934 297.508C336.429 346.292 280.17 338.523 280.17 338.523C280.17 338.523 281.53 328.187 268.004 315.771C250.951 300.11 234.356 311.695 234.356 311.695C234.356 311.695 243.819 296.657 233.846 288.056C222.961 278.668 211.076 293.97 194.389 292.666C176.529 291.272 167.8 276.179 167.8 276.179C167.8 276.179 179.728 276.766 185.499 270.48C193.702 261.549 191.118 254.916 185.832 250.055C181.113 245.721 168.448 234.09 168.448 234.09C168.448 234.09 155.79 222.46 151.064 218.124C145.77 213.267 138.941 211.262 130.746 220.189C124.975 226.475 126.574 238.303 126.574 238.303C126.574 238.303 110.794 230.891 107.883 213.215C105.169 196.699 119.402 183.556 109.12 173.505C99.7028 164.297 85.5267 175.003 85.5267 175.003C85.5267 175.003 95.6538 157.478 78.6045 141.826C65.0783 129.41 54.9025 131.647 54.9025 131.647C54.9025 131.647 42.3724 76.2497 88.0492 37.7202L93.0432 42.3114C93.0432 42.3114 60.5479 78.4255 71.5893 115.383C71.5893 115.383 102.472 123.514 104.385 152.706C104.385 152.706 113.368 150.589 122.17 159.895C130.974 169.193 125.145 179.083 136.321 188.741C145.994 197.098 160.449 191.384 160.449 191.384L154.373 198L179.991 221.518L179.978 221.535Z" fill="white"/>
</mask>
<g mask="url(#mask0_5616_7620)">
<g style="mix-blend-mode:multiply">
<path d="M147.124 210.938C147.124 210.938 140.211 207.911 131.782 213.742C126.949 217.085 120.706 225.951 126.561 238.321L191.401 263.892C191.401 263.892 196.156 258.276 192.485 252.009C189.786 247.405 147.124 210.938 147.124 210.938Z" fill="#AEAFA3"/>
</g>
<g style="mix-blend-mode:multiply">
<path d="M65.0453 132.36C65.0453 132.36 79.5222 126.429 82.571 120.358C83.5592 118.39 79.0041 118.894 79.0041 118.894C79.0041 118.894 67.9142 127.864 65.9432 128.87C63.9723 129.876 60.0826 130.739 60.0826 130.739L65.0539 132.355L65.0453 132.36Z" fill="#AEAFA3"/>
</g>
<g style="mix-blend-mode:multiply">
<path d="M62.1266 124.895C62.2371 124.262 69.6785 106.324 69.6785 106.324L67.9771 96.8313L60.585 127.896L62.1266 124.895Z" fill="#AEAFA3"/>
</g>
<g style="mix-blend-mode:multiply">
<path d="M85.5552 175.264C85.5552 175.264 91.5648 167.574 99.1709 166.842C105.869 166.196 111.267 172.125 113.212 176.57C115.158 181.016 85.5552 175.264 85.5552 175.264Z" fill="#AEAFA3"/>
</g>
<g style="mix-blend-mode:multiply">
<path d="M230.628 285.246C230.628 285.246 226.615 279.246 209.327 285.722C192.039 292.198 180.868 286.302 172.812 280.74L169.352 288.949L202.405 308.624L230.628 285.246Z" fill="#AEAFA3"/>
</g>
</g>
<path d="M60.1125 81.5001L66.1418 79.1038" stroke="#E0BB79" stroke-linecap="round" stroke-linejoin="round"/>
<path d="M58.3594 89.4726L54.7146 88.3499" stroke="#E0BB79" stroke-linecap="round" stroke-linejoin="round"/>
<path d="M60.0627 100.277L64.8388 98.1179" stroke="#E0BB79" stroke-linecap="round" stroke-linejoin="round"/>
<path d="M57.932 75.6439L55.0264 74.0547" stroke="#E0BB79" stroke-linecap="round" stroke-linejoin="round"/>
<path d="M59.0428 63.8335L64.2036 61.1689" stroke="#E0BB79" stroke-linecap="round" stroke-linejoin="round"/>
<path d="M51.4768 121.752L53.6083 119.013" stroke="#E0BB79" stroke-linecap="round" stroke-linejoin="round"/>
<path d="M41.4981 111.938L36.5757 112.313" stroke="#E0BB79" stroke-linecap="round" stroke-linejoin="round"/>
<path d="M40.231 106.841L45.3903 102.433" stroke="#E0BB79" stroke-linecap="round" stroke-linejoin="round"/>
<path d="M34.3721 98.7555L31.4121 98.0198" stroke="#E0BB79" stroke-linecap="round" stroke-linejoin="round"/>
<path d="M88.3919 96.6139L87.0769 94.0789" stroke="#E0BB79" stroke-linecap="round" stroke-linejoin="round"/>
<path d="M83.7891 103.325L87.7405 105.04" stroke="#E0BB79" stroke-linecap="round" stroke-linejoin="round"/>
<path d="M76.0705 109.79L74.1172 103.75" stroke="#E0BB79" stroke-linecap="round" stroke-linejoin="round"/>
<path d="M74.6605 113.67L79.3099 115.193" stroke="#E0BB79" stroke-linecap="round" stroke-linejoin="round"/>
<path d="M70.097 119.444L74.1223 119.945" stroke="#E0BB79" stroke-linecap="round" stroke-linejoin="round"/>
<path d="M345.871 328.769L347.748 324.872" stroke="#E0BB79" stroke-linecap="round" stroke-linejoin="round"/>
<path d="M333.265 330.584L337.874 335.465" stroke="#E0BB79" stroke-linecap="round" stroke-linejoin="round"/>
<path d="M322.56 329.85L325.423 323.71" stroke="#E0BB79" stroke-linecap="round" stroke-linejoin="round"/>
<path d="M320.431 331.373L324.477 336.756" stroke="#E0BB79" stroke-linecap="round" stroke-linejoin="round"/>
<path d="M308.489 330.701L311.059 327.229" stroke="#E0BB79" stroke-linecap="round" stroke-linejoin="round"/>
<path d="M311.739 301.495L314.55 301.749" stroke="#E0BB79" stroke-linecap="round" stroke-linejoin="round"/>
<path d="M305.533 307.334L303.22 303.925" stroke="#E0BB79" stroke-linecap="round" stroke-linejoin="round"/>
<path d="M302.852 312.324L310.007 315.36" stroke="#E0BB79" stroke-linecap="round" stroke-linejoin="round"/>
<path d="M295.306 319.739L300.844 321.385" stroke="#E0BB79" stroke-linecap="round" stroke-linejoin="round"/>
<path d="M291.233 322.233L290.808 318.648" stroke="#E0BB79" stroke-linecap="round" stroke-linejoin="round"/>
<path d="M318.852 355.769L321.014 353.609" stroke="#E0BB79" stroke-linecap="round" stroke-linejoin="round"/>
<path d="M313.913 355.763L314.962 358.793" stroke="#E0BB79" stroke-linecap="round" stroke-linejoin="round"/>
<path d="M304.424 351.991L303.726 357.924" stroke="#E0BB79" stroke-linecap="round" stroke-linejoin="round"/>
<path d="M302.292 349.248L306.54 345.177" stroke="#E0BB79" stroke-linecap="round" stroke-linejoin="round"/>
<path d="M293.717 345.782L293.141 350.79" stroke="#E0BB79" stroke-linecap="round" stroke-linejoin="round"/>
<path d="M295.087 344.957L300.058 343.014" stroke="#E0BB79" stroke-linecap="round" stroke-linejoin="round"/>
<path d="M163.977 212.24C164.486 214.103 170.672 222.398 169.161 218.292C167.65 214.186 162.682 207.486 163.977 212.24Z" fill="#6B8410"/>
<path d="M183.849 230.398C183.849 230.398 178.448 229.316 179.311 231.045C180.175 232.774 186.874 232.128 183.849 230.398Z" fill="#6B8410"/>
<path d="M249.95 282.711C249.95 282.711 246.495 277.957 246.062 279.253C245.629 280.549 245.629 282.71 247.141 282.494C248.654 282.279 250.597 285.088 249.95 282.711Z" fill="#6B8410"/>
<path d="M278.681 302.384C277.997 304.432 283.215 312.541 283.864 310.597C284.513 308.652 279.546 299.792 278.681 302.384Z" fill="#6B8410"/>
<path d="M97.6668 141.128C98.9639 139.4 96.8047 135.078 95.7239 136.158C94.6432 137.238 96.3698 142.856 97.6668 141.128Z" fill="#6B8410"/>
<path d="M74.7654 134.206C73.3996 134.888 76.4928 137.664 76.9254 136.368C77.358 135.071 76.4943 133.342 74.7654 134.206Z" fill="#6B8410"/>
<path d="M87.0842 127.512C85.7165 127.509 87.0827 131.833 87.7316 129.889C88.3805 127.945 89.245 127.513 87.0842 127.512Z" fill="#6B8410"/>
<path d="M118.187 161.663C117.106 162.743 120.994 168.362 121.211 165.553C121.428 162.744 119.268 160.583 118.187 161.663Z" fill="#6B8410"/>
<path d="M253.615 304.104C252.088 304.106 254.263 306.481 255.992 305.618C257.721 304.754 255.776 304.105 253.615 304.104Z" fill="#6B8410"/>
</svg>
