<svg width="400" height="400" viewBox="0 0 400 400" fill="none" xmlns="http://www.w3.org/2000/svg">
<path d="M167.972 221.565L193.59 245.083L199.666 238.467C199.666 238.467 195.21 253.353 204.353 262.282C214.926 272.603 224.285 265.951 234.299 273.932C244.316 281.907 242.975 291.04 242.975 291.04C272.225 290.465 284.542 320.774 284.542 320.774C322.302 328.628 353.933 292.946 353.933 292.946L358.927 297.537C324.422 346.321 268.163 338.553 268.163 338.553C268.163 338.553 269.524 328.216 255.998 315.8C238.944 300.14 222.35 311.724 222.35 311.724C222.35 311.724 231.813 296.686 221.84 288.085C210.955 278.697 199.07 294 182.383 292.695C164.522 291.302 155.794 276.208 155.794 276.208C155.794 276.208 167.721 276.796 173.493 270.51C181.696 261.578 179.112 254.946 173.826 250.084C169.106 245.75 156.442 234.119 156.442 234.119C156.442 234.119 143.784 222.49 139.058 218.154C133.764 213.297 126.934 211.291 118.74 220.219C112.968 226.504 114.567 238.333 114.567 238.333C114.567 238.333 98.7878 230.92 95.8771 213.244C93.1625 196.729 107.396 183.586 97.1141 173.534C87.6965 164.326 73.5203 175.032 73.5203 175.032C73.5203 175.032 83.6474 157.508 66.5982 141.856C53.0719 129.44 42.8962 131.677 42.8962 131.677C42.8962 131.677 30.3661 76.2792 76.0428 37.7497L81.0369 42.3409C81.0369 42.3409 48.5416 78.4551 59.5829 115.412C59.5829 115.412 90.4658 123.543 92.3786 152.736C92.3786 152.736 101.362 150.619 110.163 159.924C118.967 169.223 113.138 179.113 124.315 188.771C133.988 197.128 148.443 191.413 148.443 191.413L142.367 198.03L167.985 221.548L167.972 221.565Z" fill="#FFCA1B" stroke="black" stroke-width="4" stroke-linecap="round" stroke-linejoin="round"/>
<path d="M71.6909 144.458L73.6909 123.958C75.1909 124.958 79.2909 127.758 83.6909 130.958C88.0909 134.158 89.5243 141.958 89.6909 145.458L88.6909 168.458L75.6909 171.958C76.0243 169.292 77.7909 161.158 76.1909 155.958C74.5909 150.758 72.0243 145.958 71.6909 144.458Z" fill="#DBA326"/>
<path d="M224.19 290.958L226.19 270.458C227.69 271.458 231.79 274.258 236.19 277.458C240.59 280.658 242.023 288.458 242.19 291.958L242.191 307.458L225.191 308.458C224.691 306.958 228.29 305.158 226.69 299.958C225.09 294.758 224.523 292.458 224.19 290.958Z" fill="#DBA326"/>
<path d="M152.739 220.371C152.739 220.371 135.463 200.242 120.07 211.096C108.038 219.586 110.254 227.688 110.254 227.688C110.254 227.688 101.152 218.722 102.533 207.181C104.485 190.884 111.341 179.298 101.046 169.847C91.341 160.94 81.4061 166.448 81.4061 166.448C81.4061 166.448 87.0075 152.081 69.9583 136.429C56.432 124.013 47.1397 127.056 47.1397 127.056C47.1397 127.056 34.0243 89.4072 73.5365 44.6137L75.0096 45.9625C75.0096 45.9625 43.6609 84.2313 51.7095 121.501C51.7095 121.501 82.9654 125.816 87.7914 159.51C87.7914 159.51 97.0529 158.264 105 165.555C113.821 173.657 108.571 184.684 119.747 194.342C129.42 202.699 137.267 199.454 138.148 200.267C141.823 208.163 152.739 220.371 152.739 220.371Z" fill="#DBA326" stroke="#FFDD55" stroke-width="2" stroke-linecap="round" stroke-linejoin="round"/>
<path d="M77.9458 46.3157L350.361 296.465" stroke="black" stroke-width="4" stroke-linecap="round" stroke-linejoin="round"/>
<path d="M120.092 197.713C120.092 197.713 105.573 207.548 106.136 198.307C106.136 198.307 102.791 209.256 110.294 206.394C110.294 206.394 110.29 213.703 118.428 210.815C118.428 210.815 110.015 207.359 120.092 197.713Z" fill="white"/>
<path d="M170.454 236.641C170.454 236.641 191.982 252.146 182.471 268.406C175.038 281.117 166.562 280.248 166.562 280.248C166.562 280.248 176.274 288.553 187.649 286.197C203.728 282.869 214.896 274.401 225.19 283.851C234.895 292.759 230.246 303.129 230.246 303.129C230.246 303.129 244.08 296.321 261.133 311.982C274.659 324.398 272.417 333.922 272.417 333.922C272.417 333.922 311.042 343.786 352.321 300.605L350.848 299.256C350.848 299.256 315.386 333.747 277.566 328.898C277.566 328.898 270.606 298.122 236.621 296.18C236.621 296.18 237.078 286.846 229.133 279.548C220.311 271.447 209.773 277.619 199.198 267.304C190.053 258.381 192.612 250.281 191.728 249.475C184.151 247.508 170.451 236.648 170.451 236.648L170.454 236.641Z" fill="#DBA326" stroke="#FFDD55" stroke-width="2" stroke-linecap="round" stroke-linejoin="round"/>
<path d="M195.806 267.238C195.806 267.238 187.242 282.539 196.399 281.194C196.399 281.194 185.778 285.458 187.987 277.738C187.987 277.738 180.703 278.369 182.888 270.008C182.888 270.008 187.047 278.095 195.799 267.236L195.806 267.238Z" fill="white"/>
<path d="M56.0987 65.2663C56.0987 65.2663 70.0023 43.2467 78.4997 39.477L76.0305 37.767L66.0318 46.7263L59.631 54.682L53.792 62.4652L56.0987 65.2663Z" fill="white"/>
<path d="M66.5834 141.879C66.5834 141.879 78.529 145.261 79.3881 159.954C80.2472 174.648 73.512 175.058 73.512 175.058L76.145 165.658L75.7811 155.804L72.257 149.356L66.5899 141.882L66.5834 141.879Z" fill="white"/>
<path d="M101.206 176.6C101.206 176.6 105.958 179.626 100.116 201.448C96.9359 213.331 101.612 224.918 112.742 235.88L107.635 234.175L98.0281 222.858L94.5066 209.106L99.6949 189.782L101.212 176.602L101.206 176.6Z" fill="white"/>
<path d="M91.0573 155.205C91.0573 155.205 99.9166 154.56 111.798 162.127C111.798 162.127 102.391 153.513 98.7807 152.524C95.1705 151.535 91.0573 155.205 91.0573 155.205Z" fill="white"/>
<path d="M118.058 182.224C118.058 182.224 119.782 194.324 135.555 196.707C144.34 198.032 151.547 189.798 151.547 189.798L140.255 193.543L132.101 192.442L118.058 182.224Z" fill="white"/>
<path d="M199.666 238.467L194.956 249.666L193.589 245.083L199.666 238.467Z" fill="white"/>
<path d="M180.264 259.631C180.264 259.631 180.616 277.289 158.72 280.434L155.79 276.221L167.845 274.957L173.482 270.521L180.257 259.629L180.264 259.631Z" fill="white"/>
<path d="M198.844 255.286C198.844 255.286 199.056 267.602 215.044 271.497C224.55 273.813 231 273.329 236.958 278.141L234.295 273.924L227.103 269.982L218.707 268.398L207.693 265.442L198.837 255.284L198.844 255.286Z" fill="white"/>
<path d="M221.088 285.76C221.088 285.76 228.865 290.516 229.651 298.825C230.226 304.873 226.638 309.171 222.35 311.724L225.877 302.838L226.368 296.511L221.088 285.76Z" fill="white"/>
<path d="M240.966 293.114C240.966 293.114 251.13 293.394 266.033 299.203L260.313 294.456L253.499 291.779L246.077 290.922L240.966 293.114Z" fill="white"/>
<path d="M288.653 322.571C288.653 322.571 302.466 331.042 330.267 315.771C358.068 300.5 353.926 292.944 353.926 292.944L341.105 303.972L324.555 313.461L308.732 319.54L288.653 322.571Z" fill="white"/>
<path d="M248.522 309.322C248.522 309.322 271.64 315.596 268.157 338.551L264.927 325.609L257.872 318.796L248.52 309.328L248.522 309.322Z" fill="white"/>
<path d="M167.972 221.565L193.59 245.083L199.666 238.467C199.666 238.467 195.21 253.353 204.353 262.282C214.926 272.603 224.285 265.951 234.299 273.932C244.316 281.907 242.975 291.04 242.975 291.04C272.225 290.465 284.542 320.774 284.542 320.774C322.302 328.628 353.933 292.946 353.933 292.946L358.927 297.537C324.422 346.321 268.163 338.553 268.163 338.553C268.163 338.553 269.524 328.216 255.998 315.8C238.944 300.14 222.35 311.724 222.35 311.724C222.35 311.724 231.813 296.686 221.84 288.085C210.955 278.697 199.07 294 182.383 292.695C164.522 291.302 155.794 276.208 155.794 276.208C155.794 276.208 167.721 276.796 173.493 270.51C181.696 261.578 179.112 254.946 173.826 250.084C169.106 245.751 156.442 234.119 156.442 234.119C156.442 234.119 143.784 222.49 139.058 218.154C133.764 213.297 126.934 211.291 118.74 220.219C112.968 226.504 114.567 238.333 114.567 238.333C114.567 238.333 98.7878 230.92 95.8771 213.244C93.1625 196.729 107.396 183.586 97.1141 173.534C87.6965 164.326 73.5203 175.032 73.5203 175.032C73.5203 175.032 83.6474 157.508 66.5982 141.856C53.0719 129.44 42.8962 131.677 42.8962 131.677C42.8962 131.677 30.3661 76.2792 76.0428 37.7497L81.0369 42.3409C81.0369 42.3409 48.5416 78.4551 59.5829 115.412C59.5829 115.412 90.4658 123.543 92.3786 152.736C92.3786 152.736 101.362 150.619 110.163 159.924C118.967 169.223 113.138 179.113 124.315 188.771C133.988 197.128 148.443 191.413 148.443 191.413L142.367 198.03L167.985 221.548L167.972 221.565Z" stroke="black" stroke-width="4" stroke-linecap="round" stroke-linejoin="round"/>
<path d="M46.1228 130.124C46.1228 130.124 25.1294 122.708 19.9653 110.035C14.7991 97.3692 19.168 85.5299 19.168 85.5299C19.168 85.5299 38.9243 96.2866 46.1228 130.124Z" fill="#F7E69C" stroke="black" stroke-width="4" stroke-linecap="round" stroke-linejoin="round"/>
<path d="M47.2038 126.883C47.2038 126.883 54.3241 106.843 56.142 86.5669C57.7212 68.9704 56.5772 59.534 43.9409 47.9263C43.9409 47.9263 41.0734 60.5764 39.6604 72.6459C36.8906 96.3138 47.206 126.877 47.206 126.877L47.2038 126.883Z" fill="#F7E69C" stroke="black" stroke-width="4" stroke-linecap="round" stroke-linejoin="round"/>
<path d="M48.067 130.773C48.067 130.773 58.504 104.593 60.6855 101.1C65.2818 93.7377 74.8921 89.7631 83.1836 93.7116C83.1836 93.7116 82.5028 100.414 77.0057 106.935C70.9228 114.154 56.4423 130.132 48.0735 130.775L48.067 130.773Z" fill="#F7E69C" stroke="black" stroke-width="4" stroke-linecap="round" stroke-linejoin="round"/>
<path d="M269.471 337.203C269.471 337.203 278.622 355.478 291.684 359.549C304.747 363.62 316.168 358.255 316.168 358.255C316.168 358.255 303.795 341.498 269.465 337.201L269.471 337.203Z" fill="#F7E69C" stroke="black" stroke-width="4" stroke-linecap="round" stroke-linejoin="round"/>
<path d="M271.417 335.691C271.417 335.691 291.943 325.037 311.996 321.501C329.394 318.432 338.892 318.764 351.535 330.374C351.535 330.374 339.174 334.302 327.267 336.74C303.921 341.511 271.423 335.694 271.423 335.694L271.417 335.691Z" fill="#F7E69C" stroke="black" stroke-width="4" stroke-linecap="round" stroke-linejoin="round"/>
<path d="M269.04 334.178C269.04 334.178 293.828 320.682 297.131 318.211C304.075 313.008 307.218 303.094 302.573 295.169C302.573 295.169 295.955 296.418 289.922 302.45C283.249 309.127 268.961 325.781 269.04 334.178Z" fill="#F7E69C" stroke="black" stroke-width="4" stroke-linecap="round" stroke-linejoin="round"/>
<path d="M50.2283 128.613C50.2283 128.613 74.3169 96.5151 81.7873 94.4845" stroke="#AA8941" stroke-width="2" stroke-linecap="round" stroke-linejoin="round"/>
<path d="M47.2056 122.562C47.2056 122.562 48.7365 70.4885 44.6382 50.3921" stroke="#AA8941" stroke-width="2" stroke-linecap="round" stroke-linejoin="round"/>
<path d="M44.6109 128.179C43.9627 127.963 22.7947 107.212 19.9927 87.5483" stroke="#AA8941" stroke-width="2" stroke-linecap="round" stroke-linejoin="round"/>
<path d="M270.55 331.598C270.55 331.598 300.492 303.997 301.828 296.368" stroke="#AA8941" stroke-width="2" stroke-linecap="round" stroke-linejoin="round"/>
<path d="M19.9927 87.5483C19.9927 87.5483 17.8266 102.673 23.6576 111.102C29.4887 119.531 34.2413 122.558 34.2413 122.558L25.4592 118.589L16.7833 101.633L19.9927 87.5483Z" fill="white"/>
<path d="M276.855 334.049C276.855 334.049 328.566 327.708 348.952 329.93" stroke="#AA8941" stroke-width="2" stroke-linecap="round" stroke-linejoin="round"/>
<path d="M44.6383 50.392C44.6383 50.392 39.3659 87.797 45.9818 125.172L40.8813 103.999L38.4576 83.7193C38.4576 83.7193 40.3937 65.1397 40.5758 63.6013C40.7578 62.0629 43.9478 47.9285 43.9478 47.9285L44.6448 50.3941L44.6383 50.392Z" fill="white"/>
<path d="M271.504 337.154C271.779 337.778 294.399 356.939 314.239 357.906" stroke="#AA8941" stroke-width="2" stroke-linecap="round" stroke-linejoin="round"/>
<path d="M46.1228 130.124C46.1228 130.124 25.1294 122.708 19.9653 110.035C14.7991 97.3692 19.168 85.5299 19.168 85.5299C19.168 85.5299 38.9243 96.2866 46.1228 130.124Z" stroke="black" stroke-width="4" stroke-linecap="round" stroke-linejoin="round"/>
<path d="M50.2289 128.613C50.2289 128.613 60.7386 104.589 64.7159 100.312C70.336 94.2644 78.0892 92.9404 83.1775 93.7093L76.4108 91.5159L66.9175 94.8379L60.6794 101.098L54.9014 113.814L50.2224 128.611L50.2289 128.613Z" fill="white"/>
<path d="M47.2038 126.883C47.2038 126.883 54.3241 106.843 56.142 86.5669C57.7212 68.9704 56.5772 59.534 43.9409 47.9263C43.9409 47.9263 41.0734 60.5764 39.6604 72.6459C36.8906 96.3138 47.206 126.877 47.206 126.877L47.2038 126.883Z" stroke="black" stroke-width="4" stroke-linecap="round" stroke-linejoin="round"/>
<path d="M48.067 130.773C48.067 130.773 58.504 104.593 60.6855 101.1C65.2818 93.7377 74.8921 89.7631 83.1836 93.7116C83.1836 93.7116 82.5028 100.414 77.0057 106.935C70.9228 114.154 56.4423 130.132 48.0735 130.775L48.067 130.773Z" stroke="black" stroke-width="4" stroke-linecap="round" stroke-linejoin="round"/>
<path d="M274.171 335.185C274.171 335.185 303.831 324.899 319.605 322.96C335.38 321.021 351.528 330.372 351.528 330.372L340.781 322.103L329.496 320.109L317.735 320.513L296.072 326.264L274.167 335.176L274.171 335.185Z" fill="white"/>
<path d="M269.471 337.203C269.471 337.203 278.622 355.478 291.684 359.549C304.747 363.62 316.168 358.255 316.168 358.255C316.168 358.255 303.795 341.498 269.465 337.201L269.471 337.203Z" stroke="black" stroke-width="4" stroke-linecap="round" stroke-linejoin="round"/>
<path d="M271.417 335.691C271.417 335.691 291.943 325.037 311.996 321.501C329.394 318.432 338.892 318.764 351.535 330.374C351.535 330.374 339.174 334.302 327.267 336.74C303.921 341.511 271.423 335.694 271.423 335.694L271.417 335.691Z" stroke="black" stroke-width="4" stroke-linecap="round" stroke-linejoin="round"/>
<path d="M269.04 334.178C269.04 334.178 276.814 321.026 285.686 310.199C291.713 302.846 298.562 297.129 302.573 295.169L292.66 300.007L283.104 310.036L273.445 322.768L269.04 334.178Z" fill="white"/>
<path d="M269.04 334.178C269.04 334.178 293.828 320.682 297.131 318.211C304.075 313.008 307.218 303.094 302.573 295.169C302.573 295.169 295.955 296.418 289.922 302.45C283.249 309.127 268.961 325.781 269.04 334.178Z" stroke="black" stroke-width="4" stroke-linecap="round" stroke-linejoin="round"/>
<g style="mix-blend-mode:multiply">
<path d="M280.742 330.887L304.76 321.319L292.184 321.725L272.952 332.342L280.742 330.887Z" fill="#AEAFA3"/>
</g>
<path d="M48.1064 81.5297L54.1357 79.1334" stroke="#E0BB79" stroke-linecap="round" stroke-linejoin="round"/>
<path d="M46.3525 89.5021L42.7077 88.3794" stroke="#E0BB79" stroke-linecap="round" stroke-linejoin="round"/>
<path d="M48.0562 100.307L52.8322 98.1475" stroke="#E0BB79" stroke-linecap="round" stroke-linejoin="round"/>
<path d="M45.9257 75.6734L43.02 74.0842" stroke="#E0BB79" stroke-linecap="round" stroke-linejoin="round"/>
<path d="M47.0367 63.863L52.1975 61.1985" stroke="#E0BB79" stroke-linecap="round" stroke-linejoin="round"/>
<path d="M39.4703 121.781L41.6017 119.042" stroke="#E0BB79" stroke-linecap="round" stroke-linejoin="round"/>
<path d="M29.492 111.968L24.5696 112.342" stroke="#E0BB79" stroke-linecap="round" stroke-linejoin="round"/>
<path d="M28.2242 106.87L33.3835 102.462" stroke="#E0BB79" stroke-linecap="round" stroke-linejoin="round"/>
<path d="M22.3662 98.7851L19.4062 98.0493" stroke="#E0BB79" stroke-linecap="round" stroke-linejoin="round"/>
<path d="M76.3858 96.6434L75.0708 94.1084" stroke="#E0BB79" stroke-linecap="round" stroke-linejoin="round"/>
<path d="M71.7827 103.355L75.7341 105.07" stroke="#E0BB79" stroke-linecap="round" stroke-linejoin="round"/>
<path d="M64.0642 109.82L62.1108 103.78" stroke="#E0BB79" stroke-linecap="round" stroke-linejoin="round"/>
<path d="M62.654 113.7L67.3033 115.223" stroke="#E0BB79" stroke-linecap="round" stroke-linejoin="round"/>
<path d="M58.0912 119.474L62.1165 119.974" stroke="#E0BB79" stroke-linecap="round" stroke-linejoin="round"/>
<path d="M333.865 328.799L335.742 324.902" stroke="#E0BB79" stroke-linecap="round" stroke-linejoin="round"/>
<path d="M321.258 330.614L325.868 335.494" stroke="#E0BB79" stroke-linecap="round" stroke-linejoin="round"/>
<path d="M310.553 329.879L313.416 323.74" stroke="#E0BB79" stroke-linecap="round" stroke-linejoin="round"/>
<path d="M308.425 331.402L312.47 336.786" stroke="#E0BB79" stroke-linecap="round" stroke-linejoin="round"/>
<path d="M296.483 330.73L299.053 327.259" stroke="#E0BB79" stroke-linecap="round" stroke-linejoin="round"/>
<path d="M299.732 301.524L302.544 301.778" stroke="#E0BB79" stroke-linecap="round" stroke-linejoin="round"/>
<path d="M293.526 307.363L291.213 303.955" stroke="#E0BB79" stroke-linecap="round" stroke-linejoin="round"/>
<path d="M290.846 312.353L298.002 315.389" stroke="#E0BB79" stroke-linecap="round" stroke-linejoin="round"/>
<path d="M283.3 319.768L288.838 321.415" stroke="#E0BB79" stroke-linecap="round" stroke-linejoin="round"/>
<path d="M279.226 322.263L278.801 318.678" stroke="#E0BB79" stroke-linecap="round" stroke-linejoin="round"/>
<path d="M306.846 355.799L309.008 353.639" stroke="#E0BB79" stroke-linecap="round" stroke-linejoin="round"/>
<path d="M301.907 355.792L302.956 358.822" stroke="#E0BB79" stroke-linecap="round" stroke-linejoin="round"/>
<path d="M292.417 352.021L291.72 357.954" stroke="#E0BB79" stroke-linecap="round" stroke-linejoin="round"/>
<path d="M290.286 349.278L294.533 345.207" stroke="#E0BB79" stroke-linecap="round" stroke-linejoin="round"/>
<path d="M281.71 345.812L281.134 350.82" stroke="#E0BB79" stroke-linecap="round" stroke-linejoin="round"/>
<path d="M283.081 344.986L288.051 343.043" stroke="#E0BB79" stroke-linecap="round" stroke-linejoin="round"/>
<path d="M151.97 212.27C152.479 214.133 158.665 222.428 157.154 218.322C155.643 214.216 150.675 207.516 151.97 212.27Z" fill="#D28F00"/>
<path d="M171.843 230.427C171.843 230.427 166.441 229.345 167.305 231.074C168.168 232.803 174.867 232.157 171.843 230.427Z" fill="#D28F00"/>
<path d="M237.944 282.741C237.944 282.741 234.488 277.986 234.056 279.283C233.623 280.579 233.622 282.74 235.135 282.524C236.647 282.309 238.591 285.118 237.944 282.741Z" fill="#D28F00"/>
<path d="M266.674 302.414C265.991 304.462 271.208 312.571 271.857 310.627C272.506 308.682 267.539 299.821 266.674 302.414Z" fill="#D28F00"/>
<path d="M85.6607 141.158C86.9578 139.43 84.7986 135.107 83.7178 136.187C82.6371 137.267 84.3637 142.886 85.6607 141.158Z" fill="#D28F00"/>
<path d="M62.7588 134.236C61.393 134.918 64.4862 137.693 64.9188 136.397C65.3514 135.101 64.4877 133.372 62.7588 134.236Z" fill="#D28F00"/>
<path d="M156.191 230.958L159.191 216.458L163.191 219.958L160.191 234.958L156.191 230.958Z" fill="#FFE577"/>
<path d="M75.0779 127.541C73.7101 127.539 75.0764 131.863 75.7253 129.919C76.3742 127.974 77.2386 127.542 75.0779 127.541Z" fill="#D28F00"/>
<path d="M106.181 161.692C105.1 162.772 108.988 168.392 109.205 165.583C109.422 162.774 107.262 160.612 106.181 161.692Z" fill="#D28F00"/>
<path d="M241.609 304.134C240.082 304.135 242.257 306.511 243.986 305.647C245.714 304.783 243.77 304.134 241.609 304.134Z" fill="#D28F00"/>
<path d="M162.191 235.958L165.191 221.458L178.191 232.958L175.191 247.958L162.191 235.958Z" fill="#FFE577"/>
</svg>
