<svg width="400" height="400" viewBox="0 0 400 400" fill="none" xmlns="http://www.w3.org/2000/svg">
<path d="M211.647 223.335C231.27 170.743 287.855 177.978 287.855 177.978C287.855 177.978 284.171 129.018 217.898 100.442C151.626 71.8659 120.925 82.6604 120.925 82.6604C120.925 82.6604 155.566 120.827 129.461 178.66C105.552 231.668 53.0581 239.301 53.0581 239.301C53.0581 239.301 53.6868 274.421 120.5 301.845C193.113 331.634 223.22 312.773 223.22 312.773C223.22 312.773 193.546 271.799 211.647 223.335Z" fill="#A8A8A8" stroke="black" stroke-width="10" stroke-linecap="round" stroke-linejoin="round"/>
<path d="M303.608 238.335L345.077 252.043C345.077 252.043 347.335 265.388 346.636 269.222C346.174 271.953 345.878 274.709 345.75 277.476L333.131 275.341L343.306 284.011L333.3 300.242L288.882 277.582C288.882 277.582 294.709 269.515 300.597 259.801C304.343 253.62 303.608 238.335 303.608 238.335Z" fill="#FF7300" stroke="black" stroke-width="8.71" stroke-linecap="round" stroke-linejoin="round"/>
<path d="M303.608 238.335L345.077 252.043C345.077 252.043 347.335 265.388 346.636 269.222C346.174 271.953 345.878 274.709 345.75 277.476L333.131 275.341L343.306 284.011L333.3 300.242L288.882 277.582C288.882 277.582 294.709 269.515 300.597 259.801C304.343 253.62 303.608 238.335 303.608 238.335Z" fill="#5B2801"/>
<path d="M305.672 240.027L170.178 186.488L154.3 221.661L293.717 278.99C293.717 278.99 297.41 273.438 303.015 260.837C305.826 254.745 306.922 246.618 305.672 240.027Z" fill="#5B2801" stroke="black" stroke-width="10" stroke-linecap="round" stroke-linejoin="round"/>
<path d="M312.756 241.355L170.178 186.488L154.3 221.661L299.473 282.975C299.473 282.975 303.794 276.891 309.4 264.29C312.211 258.199 314.006 247.946 312.756 241.355Z" fill="#5B2801"/>
<path d="M212.249 246.226L307.442 257.295C307.442 257.295 301.934 271.552 300.155 274.35C298.375 277.148 294.602 281.647 294.602 281.647L212.249 246.226Z" fill="#381700"/>
<path d="M305.884 256.241L346.999 260.181L345.75 277.476L333.131 275.341L343.306 284.011L333.3 300.242L292.831 280.079C292.831 280.079 301.155 267.992 302.961 264.476C304.208 261.835 305.187 259.076 305.884 256.241Z" fill="#381700"/>
<path d="M211.647 223.335C231.27 170.743 287.855 177.978 287.855 177.978C287.855 177.978 284.171 129.018 217.898 100.442C151.626 71.8659 120.925 82.6604 120.925 82.6604C120.925 82.6604 155.566 120.827 129.461 178.66C105.552 231.668 53.0581 239.301 53.0581 239.301C53.0581 239.301 53.6868 274.421 120.5 301.845C193.113 331.634 223.22 312.773 223.22 312.773C223.22 312.773 193.546 271.799 211.647 223.335Z" fill="#A8A8A8"/>
<path d="M120.88 82.6604C120.88 82.6604 121.199 83.0146 121.766 83.6876C126.955 90.1254 153.042 126.352 129.434 178.66C105.525 231.668 53.0312 239.301 53.0312 239.301C53.0312 239.301 116.045 257.897 147.552 194.006C179.059 130.116 120.88 82.6604 120.88 82.6604Z" fill="#606060"/>
<path d="M142.939 173.683C142.939 173.683 142.009 187.763 138.582 195.476C135.155 203.189 125.087 210.264 125.087 210.264L83.6883 195.37C83.6883 195.37 81.6162 183.132 82.9888 180.44C84.3614 177.748 86.5309 173.126 86.5309 173.126L92.8801 171.009L89.5239 166.582C89.5239 166.582 94.5449 158.143 98.574 155.158C102.603 152.174 108.864 152.803 108.864 152.803L142.939 173.683Z" fill="#5B2801" stroke="black" stroke-width="8" stroke-linecap="round" stroke-linejoin="round"/>
<path d="M142.939 173.683C142.939 173.683 142.009 187.763 138.582 195.476C135.155 203.189 125.087 210.264 125.087 210.264L83.6883 195.37C83.6883 195.37 81.6162 183.132 82.9888 180.44C84.3614 177.748 86.5309 173.126 86.5309 173.126L92.8801 171.009L89.5239 166.582C89.5239 166.582 94.5449 158.143 98.574 155.158C102.603 152.174 108.864 152.803 108.864 152.803L142.939 173.683Z" fill="#5B2801"/>
<path d="M111.246 158.204C111.246 158.204 114.053 164.403 107.172 179.059C103.586 186.701 91.5783 189.853 91.5783 189.853L83.6883 195.37C83.6883 195.37 81.6162 183.132 82.9888 180.44C84.3614 177.748 86.5309 173.126 86.5309 173.126L92.8801 171.009L89.5239 166.582C89.5239 166.582 94.5449 158.143 98.574 155.158C102.603 152.174 108.864 152.803 108.864 152.803L111.246 158.204Z" fill="#AD4702"/>
<g style="mix-blend-mode:multiply" opacity="0.46">
<path d="M143.506 109.164C143.506 109.164 153.592 107.774 182.008 113.273C200.347 116.815 206.449 122.456 206.449 122.456L207.139 112.157L212.249 125.033C212.249 125.033 224.584 128.654 242.755 145.665C262.148 163.81 266.266 179.014 266.266 179.014L287.855 177.766C287.855 177.766 289.059 156.451 264.495 131.993C242.357 109.908 215.658 96.1026 176.828 86.1847C138.821 76.4882 120.872 82.6426 120.872 82.6426L143.506 109.164Z" fill="#5B0202"/>
</g>
<g style="mix-blend-mode:multiply" opacity="0.46">
<path d="M88.0716 240.753C88.0716 240.753 114.186 268.302 137.803 275.979C161.419 283.657 172.063 282.877 172.063 282.877L178.811 299.702L177.926 283.763C177.926 283.763 188.251 284.392 196.947 284.595C205.643 284.799 209.495 284.073 209.495 284.073C209.495 284.073 212.93 294.823 215.693 299.357C218.456 303.891 223.149 312.843 223.149 312.843C223.149 312.843 208.193 320.291 187.206 319.237C163.934 318.059 107.819 304.511 83.2012 283.435C51.4906 256.197 53.0137 239.141 53.0137 239.141C59.0814 241.131 65.3971 242.263 71.7779 242.506C77.2585 242.551 82.7259 241.962 88.0716 240.753Z" fill="#5B0202"/>
</g>
<path d="M84.8394 195.671L136.758 198.327C136.758 198.327 134.225 203.641 131.825 205.412C129.425 207.183 125.086 210.3 125.086 210.3L84.8394 195.671Z" fill="#381700"/>
<path d="M157.7 81.8015L171.833 119.729L167.273 143.673L175.703 147.959" stroke="#381700" stroke-miterlimit="10"/>
<path d="M167.981 107.322L193.29 120.18L191.545 131.355" stroke="#381700" stroke-miterlimit="10"/>
<path d="M188.127 116.682L201.817 104.63L202.012 99.3438" stroke="#381700" stroke-miterlimit="10"/>
<path d="M140.539 308.673L130.745 287.801L144.019 269.125L140.043 251.778" stroke="#381700" stroke-miterlimit="10"/>
<path d="M142.965 261.811L157.576 251.158L162.314 240.053" stroke="#381700" stroke-miterlimit="10"/>
<path d="M131.843 293.796L117.099 281.336" stroke="#381700" stroke-miterlimit="10"/>
</svg>
