<svg width="400" height="400" viewBox="0 0 400 400" fill="none" xmlns="http://www.w3.org/2000/svg">
<path d="M58.7976 312.112C58.7976 312.112 102.65 293.668 204.243 185.625C236.326 151.513 253.562 124.135 253.562 124.135L258.782 88.5549L293.407 73.7855C293.407 73.7855 297.499 106.007 297.447 112.558C297.399 119.119 299.159 125.592 303.504 125.014C307.849 124.436 333.684 123.936 333.684 123.936C333.684 123.936 337.134 135.896 336.146 144.945C334.623 158.859 322.478 163.804 322.478 163.804C322.478 163.804 295.359 160.362 291.51 163.463C287.66 166.565 200.888 255.354 162.404 279.612C126.545 302.217 110.34 308.824 92.147 311.149C76.0653 313.209 58.798 312.09 58.798 312.09L58.7976 312.112Z" fill="#D5AE95" stroke="black" stroke-width="7.32" stroke-linecap="round" stroke-linejoin="round"/>
<path d="M110.639 304.947C110.639 304.947 158.652 270.499 222.633 209.8C263.747 170.79 284.47 145.981 284.47 145.981C284.47 145.981 312.61 147.915 316.867 145.528C321.124 143.141 318.912 128.251 318.912 128.251L331.304 127.886C331.304 127.886 334.017 137.817 332.293 148.525C331.38 154.202 322.226 160.19 322.226 160.19L291.44 159.419C291.44 159.419 245.62 203.89 215.514 231.583C181.669 262.702 167.996 272.244 158.466 278.534C148.936 284.823 110.643 304.956 110.643 304.956L110.639 304.947Z" fill="#A48474"/>
<path d="M74.5686 310.422C74.5686 310.422 98.5673 297.557 114.402 286.462C133.934 272.782 147.62 261.294 147.62 261.294" fill="#D5AE95"/>
<path d="M74.5686 310.422C74.5686 310.422 98.5673 297.557 114.402 286.462C133.934 272.782 147.62 261.294 147.62 261.294" stroke="black" stroke-width="8.4" stroke-linecap="round" stroke-linejoin="round"/>
<path d="M101.225 308.555C101.225 308.555 123.193 296.937 146.498 280.158C162.193 268.864 173.602 258.154 173.602 258.154" fill="#D5AE95"/>
<path d="M101.225 308.555C101.225 308.555 123.193 296.937 146.498 280.158C162.193 268.864 173.602 258.154 173.602 258.154" stroke="black" stroke-width="8.4" stroke-linecap="round" stroke-linejoin="round"/>
</svg>
