<svg width="400" height="400" viewBox="0 0 400 400" fill="none" xmlns="http://www.w3.org/2000/svg">
<path d="M233.372 219.268C212.692 219.268 196.582 212.058 195.912 211.748C195.252 211.448 194.372 211.078 193.312 210.618C184.812 206.998 164.922 198.498 150.112 183.438C131.352 164.358 127.242 141.718 137.892 116.158C149.192 89.0379 171.532 74.1079 200.792 74.1079C212.412 74.1079 225.062 76.4379 238.392 81.0379C249.162 84.7479 260.072 90.4879 269.102 97.1779C280.742 105.808 289.182 115.778 294.182 126.798C301.362 142.628 301.162 160.088 293.592 178.678C279.922 212.218 253.302 219.268 233.382 219.268H233.372ZM204.472 127.408C192.182 127.408 183.692 131.428 180.572 138.718C173.242 155.828 180.832 169.798 202.522 179.088C208.912 181.828 215.292 183.218 221.482 183.218C232.642 183.218 245.612 177.768 248.822 167.338C250.802 160.898 250.102 154.478 246.752 148.258C242.012 139.468 232.612 132.718 226.172 130.848C218.352 128.568 211.042 127.408 204.472 127.408Z" fill="#D28F00"/>
<path d="M200.782 76.1079C211.972 76.1079 224.342 78.3079 237.732 82.9279C266.732 92.9279 313.732 123.928 291.732 177.928C278.942 209.328 254.482 217.268 233.372 217.268C216.432 217.268 201.632 212.148 196.732 209.928C185.732 204.928 113.872 178.988 139.732 116.928C150.562 90.9379 171.732 76.1079 200.782 76.1079ZM221.482 185.218C236.612 185.218 247.872 177.208 250.732 167.928C256.962 147.678 237.072 131.948 226.732 128.928C218.602 126.558 211.072 125.408 204.472 125.408C191.592 125.408 182.222 129.778 178.732 137.928C171.232 155.428 178.482 170.958 201.732 180.928C208.742 183.928 215.422 185.218 221.482 185.218ZM200.782 72.1079C170.662 72.1079 147.672 87.4779 136.042 115.388C130.102 129.648 128.652 143.248 131.742 155.818C134.302 166.248 140.002 176.018 148.682 184.838C163.772 200.188 183.922 208.788 192.522 212.458C193.562 212.898 194.452 213.278 195.082 213.568C201.372 216.428 216.522 221.268 233.372 221.268C253.912 221.268 281.352 214.008 295.442 179.438C303.232 160.318 303.422 142.328 296.002 125.978C282.432 96.0779 248.972 82.5779 239.042 79.1479C225.492 74.4779 212.622 72.1079 200.792 72.1079H200.782ZM221.482 181.218C215.562 181.218 209.452 179.888 203.312 177.248C189.022 171.128 173.802 159.608 182.412 139.498C185.202 132.988 193.042 129.408 204.472 129.408C210.862 129.408 217.972 130.538 225.612 132.768C230.432 134.178 239.962 139.888 244.992 149.208C248.082 154.938 248.732 160.848 246.912 166.748C244.702 173.938 235.252 181.208 221.482 181.208V181.218Z" fill="black"/>
<path d="M170.172 86.238C170.172 86.238 144.232 98.428 137.232 138.428C130.232 178.428 164.162 189.098 164.162 189.098L148.022 182.338L137.232 168.428L131.232 136.428L140.232 108.428L157.382 89.4581L172.052 80.228L186.692 77.228L170.172 86.238Z" fill="white"/>
<path d="M252.232 216.428C252.232 216.428 274.232 208.428 284.232 188.428C294.232 168.428 303.322 122.258 262.232 99.4279C226.232 79.4279 217.232 82.4279 193.232 79.4279C169.232 76.4279 157.382 89.458 157.382 89.458C157.382 89.458 186.232 62.4279 236.232 80.4279C286.232 98.4279 299.232 123.408 299.232 153.428C299.232 187.428 276.232 210.428 252.232 216.428Z" fill="#773D04" stroke="black" stroke-width="4" stroke-miterlimit="10"/>
<mask id="mask0_6399_9718" style="mask-type:luminance" maskUnits="userSpaceOnUse" x="135" y="81" width="158" height="136">
<path d="M239.647 89.2496C191.507 72.6496 156.147 80.7496 141.147 116.75C115.287 178.81 187.147 204.75 198.147 209.75C209.147 214.75 265.647 231.25 286.647 181.25C293.927 163.93 293.647 138.25 286.647 125.25C275.887 105.27 257.157 95.2896 239.647 89.2496ZM252.147 167.75C248.147 180.75 227.647 191.25 203.147 180.75C178.647 170.25 172.647 155.25 180.147 137.75C185.427 125.42 204.147 121.75 228.147 128.75C238.487 131.77 258.377 147.5 252.147 167.75Z" fill="white"/>
</mask>
<g mask="url(#mask0_6399_9718)">
<path d="M222.571 83.82C222.571 83.82 225.571 118.82 225.571 138.82L177.571 109.82L207.991 81L222.571 83.82Z" fill="#773D04"/>
<path d="M289.847 143.001C290.812 150.862 292.071 152.631 289.571 167.631C287.071 182.631 283.243 193.631 281.157 192.131C279.071 190.631 269.571 79.1313 269.571 79.1313C269.571 79.1313 287.916 114.505 289.847 143.001Z" fill="#773D04"/>
</g>
<path d="M209.862 101.858C192.022 99.078 165.462 100.748 155.232 131.428C145.872 159.498 164.652 177.478 180.332 187.128" stroke="white" stroke-width="4" stroke-miterlimit="10"/>
<path d="M223.562 105.128C220.462 104.128 215.612 102.758 209.862 101.858" stroke="white" stroke-width="4" stroke-miterlimit="10"/>
<path d="M194.082 194.178C195.402 194.728 196.472 195.148 197.232 195.428C205.232 198.428 261.232 214.428 273.412 169.198C287.032 118.628 227.232 106.428 227.232 106.428C227.232 106.428 225.892 105.878 223.562 105.128" stroke="white" stroke-width="4" stroke-miterlimit="10"/>
<path d="M180.332 187.128C185.482 190.298 191.222 192.748 195.232 194.428" stroke="#773D04" stroke-width="4" stroke-miterlimit="10"/>
<path d="M200.19 75C211.38 75 223.75 77.2 237.14 81.82C266.14 91.82 313.14 122.82 291.14 176.82C278.35 208.22 253.89 216.16 232.78 216.16C215.84 216.16 201.04 211.04 196.14 208.82C185.14 203.82 113.28 177.88 139.14 115.82C149.97 89.83 171.14 75 200.19 75ZM220.89 184.11C236.02 184.11 247.28 176.1 250.14 166.82C256.37 146.57 236.48 130.84 226.14 127.82C218.01 125.45 210.48 124.3 203.88 124.3C191 124.3 181.63 128.67 178.14 136.82C170.64 154.32 177.89 169.85 201.14 179.82C208.15 182.82 214.83 184.11 220.89 184.11ZM200.19 71C170.07 71 147.08 86.37 135.45 114.28C129.51 128.54 128.06 142.14 131.15 154.71C133.71 165.14 139.41 174.91 148.09 183.73C163.18 199.08 183.33 207.68 191.93 211.35C192.97 211.79 193.86 212.17 194.49 212.46C200.78 215.32 215.93 220.16 232.78 220.16C253.32 220.16 280.76 212.9 294.85 178.33C302.64 159.21 302.83 141.22 295.41 124.87C281.84 94.97 248.38 81.47 238.45 78.04C224.9 73.37 212.03 71 200.2 71H200.19ZM220.89 180.11C214.97 180.11 208.86 178.78 202.72 176.14C188.43 170.02 173.21 158.5 181.82 138.39C184.61 131.88 192.45 128.3 203.88 128.3C210.27 128.3 217.38 129.43 225.02 131.66C229.84 133.07 239.37 138.78 244.4 148.1C247.49 153.83 248.14 159.74 246.32 165.64C244.11 172.83 234.66 180.1 220.89 180.1V180.11Z" fill="black"/>
<path d="M178.732 71.9279C174.462 81.1879 145.732 195.928 126.732 252.928C107.732 309.928 100.732 319.928 98.7321 323.928C96.7321 327.928 113.732 313.928 127.732 296.928C141.732 279.928 169.732 226.928 181.732 197.928C193.732 168.928 217.902 97.0179 218.732 77.9279C219.732 54.9279 190.732 45.9279 178.732 71.9279Z" fill="#FFCA1B" stroke="black" stroke-width="4" stroke-miterlimit="10"/>
<path d="M116.232 289.428C120.642 278.928 125.342 268.548 130.052 258.188C130.582 260.988 131.212 263.968 131.692 266.768L129.912 266.398C133.532 260.678 137.322 255.098 141.732 249.928C138.472 256.798 134.412 263.218 130.172 269.508C129.692 266.758 129.272 263.828 128.902 261.068L130.482 261.288C125.832 270.718 121.152 280.128 116.222 289.428H116.232Z" fill="white"/>
<path d="M170.571 211.631L136.571 229.631L148.071 197.631L183.571 185.131L170.571 211.631Z" fill="#FFE98F"/>
<path d="M201.571 102.631L167.571 120.631L179.071 88.6313L214.571 76.1313L201.571 102.631Z" fill="#FFE98F"/>
<path d="M187.071 180.131L148.571 193.631L152.571 185.631L188.071 173.131L187.071 180.131Z" fill="#FFE98F"/>
<path d="M140.232 236.428C138.232 236.428 134.232 244.428 139.232 243.428C144.232 242.428 142.232 236.428 140.232 236.428Z" fill="#D28F00"/>
<path d="M187.232 64.4278C187.232 64.4278 158.212 171.088 151.232 193.428C146.232 209.428 113.712 307.808 102.972 318.618L111.602 294.968L131.502 240.538L158.912 142.928L174.302 87.3678L178.732 71.9378L186.692 60.7178L187.232 64.4378V64.4278Z" fill="white"/>
<path d="M253.192 92.1879C248.802 101.398 218.662 215.768 198.952 272.528C179.252 329.288 172.122 339.198 170.072 343.178C168.022 347.158 185.192 333.368 199.402 316.538C213.612 299.708 242.262 247.068 254.622 218.218C266.982 189.368 292.042 117.758 293.102 98.6879C294.382 75.6979 265.502 66.3479 253.182 92.1979L253.192 92.1879Z" fill="#FFCA1B" stroke="black" stroke-width="4" stroke-miterlimit="10"/>
<path d="M210.342 63.1478C210.342 63.1478 171.232 227.428 98.7319 323.928C98.7319 323.928 142.642 297.998 183.312 192.668C199.232 151.428 219.232 96.4278 218.732 77.9278C218.232 59.4278 210.342 63.1478 210.342 63.1478Z" fill="#D28F00"/>
<path d="M228.232 198.428C222.842 198.428 225.232 209.428 230.232 206.428C235.232 203.428 237.232 198.428 228.232 198.428Z" fill="#D28F00"/>
<path d="M227.571 269.631L193.571 287.631L205.071 255.631L240.571 243.131L227.571 269.631Z" fill="#FFE98F"/>
<path d="M241.571 241.631L207.571 252.631L212.571 244.631L248.071 232.131L241.571 241.631Z" fill="#FFE98F"/>
<path d="M268.571 154.631L234.571 165.631L239.571 157.631L275.071 145.131L268.571 154.631Z" fill="#EAA10F"/>
<path d="M243.382 131.288C246.262 127.218 249.452 123.368 252.622 119.548C252.412 130.998 251.892 142.478 250.142 153.818C249.692 145.828 249.932 137.838 250.352 129.858C250.492 127.198 250.692 124.548 250.902 121.898L252.362 122.498C249.462 125.508 246.522 128.488 243.382 131.298V131.288Z" fill="white"/>
<path d="M178.732 71.9279C174.462 81.1879 145.732 195.928 126.732 252.928C107.732 309.928 100.732 319.928 98.7321 323.928C96.7321 327.928 113.732 313.928 127.732 296.928C141.732 279.928 169.732 226.928 181.732 197.928C193.732 168.928 217.902 97.0179 218.732 77.9279C219.732 54.9279 190.732 45.9279 178.732 71.9279Z" stroke="black" stroke-width="4" stroke-miterlimit="10"/>
<path d="M285.342 83.1478C285.342 83.1478 242.732 246.928 170.232 343.428C170.232 343.428 224.232 304.428 258.312 212.668C273.702 171.228 294.232 116.428 293.732 97.9278C293.232 79.4278 285.342 83.1478 285.342 83.1478Z" fill="#D28F00"/>
<path d="M263.232 81.4277C263.232 81.4277 239.512 167.658 228.232 201.428C220.882 223.448 184.972 328.618 174.232 339.428L185.232 310.428L206.232 249.428L234.232 155.428L249.232 104.428L255.232 87.4277L265.042 76.6777L263.232 81.4277Z" fill="white"/>
<path d="M253.192 92.1879C248.802 101.398 218.662 215.768 198.952 272.528C179.252 329.288 172.122 339.198 170.072 343.178C168.022 347.158 185.192 333.368 199.402 316.538C213.612 299.708 242.262 247.068 254.622 218.218C266.982 189.368 292.042 117.758 293.102 98.6879C294.382 75.6979 265.502 66.3479 253.182 92.1979L253.192 92.1879Z" stroke="black" stroke-width="4" stroke-miterlimit="10"/>
<path d="M218.732 105.928L224.732 104.928C224.732 104.928 221.232 88.5479 212.732 77.9279C204.732 67.9279 181.732 67.9279 175.732 82.9279L172.732 91.9279C172.732 91.9279 179.542 76.0479 199.732 78.9279C213.732 80.9279 218.732 105.928 218.732 105.928Z" fill="#212020" stroke="black" stroke-width="3" stroke-miterlimit="10"/>
<path d="M287.772 122.838C287.772 122.838 287.862 104.418 272.732 100.928C259.732 97.9277 248.732 105.928 238.732 113.928V106.928C238.732 106.928 251.732 96.9277 256.732 94.9277C261.732 92.9277 269.512 91.5177 276.732 93.9277C282.732 95.9277 289.732 103.928 290.022 114.518L287.772 122.838Z" fill="#212020" stroke="black" stroke-width="3" stroke-miterlimit="10"/>
<path d="M171.232 127.428C171.662 132.548 171.532 137.618 171.262 142.718C171.152 143.728 171.332 144.198 171.842 145.138C172.292 145.938 172.942 146.878 173.422 147.698C173.712 148.198 174.222 149.028 174.042 149.708C172.932 152.858 171.052 155.658 169.222 158.418C170.142 155.398 171.422 152.548 172.312 149.588C172.332 149.508 172.362 149.388 172.342 149.428V149.438C171.362 147.648 169.632 146.078 169.252 143.848C169.462 138.318 170.122 132.848 171.212 127.408L171.232 127.428Z" fill="white"/>
<path d="M177.732 202.928C175.822 204.798 173.782 206.478 171.702 208.098L171.942 207.848C169.172 212.988 166.152 217.978 162.792 222.758C161.662 224.348 160.502 225.918 159.242 227.428C159.982 225.608 160.822 223.838 161.692 222.098C164.362 216.818 167.382 211.748 170.662 206.828C172.952 205.428 175.282 204.078 177.742 202.928H177.732Z" fill="white"/>
<path d="M285.052 125.658C283.892 124.318 282.862 122.908 281.842 121.488L282.972 121.528C281.602 123.918 280.102 126.218 278.552 128.498L277.732 126.928L280.732 126.968L281.982 126.988C280.932 130.868 279.832 134.728 278.232 138.428C278.452 134.798 279.082 131.248 279.802 127.708L280.732 128.888C279.542 128.898 276.922 128.948 275.752 128.958C276.932 127.368 278.132 125.588 279.322 124.018C280.352 122.628 281.482 121.248 282.572 119.898C283.452 121.788 284.342 123.678 285.042 125.658H285.052Z" fill="white"/>
<path d="M227.732 266.928C227.232 263.608 227.022 260.278 226.872 256.928L228.412 257.468C227.282 259.018 225.622 261.158 224.422 262.678C219.682 265.688 214.862 268.598 209.742 270.928C213.942 267.268 218.542 264.118 223.202 261.088L222.962 261.308C224.702 259.148 226.872 256.618 228.672 254.508C228.582 258.648 228.352 262.838 227.742 266.928H227.732Z" fill="white"/>
<path d="M246.732 171.928C245.742 171.768 240.732 175.928 242.732 175.928C244.732 175.928 252.732 172.928 246.732 171.928Z" fill="#D28F00"/>
<path d="M241.232 225.428C240.602 226.688 240.232 230.428 242.232 228.428C244.232 226.428 242.232 223.428 241.232 225.428Z" fill="#D28F00"/>
<path d="M199.232 120.428C197.312 121.578 194.672 127.128 197.952 125.278C201.232 123.428 204.232 117.428 199.232 120.428Z" fill="#D28F00"/>
<path d="M182.752 79.8581L184.812 74.7881L178.432 79.4781L177.122 83.0481L182.752 79.8581Z" fill="white"/>
<path d="M259.522 95.438L258.022 100.318L251.232 103.428L253.892 97.688L259.522 95.438Z" fill="white"/>
</svg>
