<svg width="400" height="400" viewBox="0 0 400 400" fill="none" xmlns="http://www.w3.org/2000/svg">
<path fill-rule="evenodd" clip-rule="evenodd" d="M215.582 159.838C227.158 172.963 293.141 236.372 297.485 248.799C307.87 278.33 311.691 321.519 322.738 328.122C333.785 334.724 354.948 340.35 354.948 340.35C354.948 340.35 325.773 356.718 305.83 332.284C285.887 307.851 292.16 275.967 275.057 249.667C269.822 241.611 209.972 184.39 202.186 176.453" fill="#F9FF00"/>
<path d="M215.582 159.838C227.158 172.963 293.141 236.372 297.485 248.799C307.87 278.33 311.691 321.519 322.738 328.122C333.785 334.724 354.948 340.35 354.948 340.35C354.948 340.35 325.773 356.718 305.83 332.284C285.887 307.851 292.16 275.967 275.057 249.667C269.822 241.611 209.972 184.39 202.186 176.453" stroke="black" stroke-width="8" stroke-linecap="round" stroke-linejoin="round"/>
<path fill-rule="evenodd" clip-rule="evenodd" d="M216.611 161.162C216.611 161.162 172.282 111.723 142.587 101.806C112.891 91.8895 69.6936 88.7439 62.8857 77.7895C56.0778 66.835 50.1376 45.7336 50.1376 45.7336C50.1376 45.7336 34.2278 75.1638 58.9691 94.7163C83.7105 114.269 115.51 107.517 142.054 124.199C168.597 140.881 202.921 177.189 202.921 177.189L216.611 161.162Z" fill="#F9FF00" stroke="black" stroke-width="8" stroke-linecap="round" stroke-linejoin="round"/>
<path fill-rule="evenodd" clip-rule="evenodd" d="M201.304 174.687C209.099 182.597 269.862 241.605 275.089 249.687C292.189 275.996 285.928 307.874 305.862 332.305C325.796 356.736 354.98 340.37 354.98 340.37C354.98 340.37 333.785 334.724 322.77 328.142C311.755 321.56 307.902 278.35 297.517 248.82C293.167 236.41 226.858 172.392 215.288 159.249L201.304 174.687Z" fill="#FFCA1B"/>
<path d="M310.407 298.59L296.407 310.09L297.907 313.59L311.407 303.09L310.907 301.09L310.407 298.59Z" fill="#D28F00"/>
<path d="M301.406 259.09L285.406 270.09L289.906 293.09L305.906 281.59L303.406 268.09L301.406 259.09Z" fill="#FFE98F"/>
<path d="M306.906 284.09L290.906 297.09L293.906 309.09L309.906 297.59L308.406 290.09L306.906 284.09Z" fill="#FFE98F"/>
<path fill-rule="evenodd" clip-rule="evenodd" d="M203.216 176.307C211.011 184.216 269.863 241.605 275.089 249.687C292.189 275.996 285.928 307.874 305.863 332.305C325.797 356.736 354.98 340.37 354.98 340.37C354.98 340.37 325.321 344.914 315.234 336.906C299.188 324.24 295.227 294.333 284.279 258.445C280.443 245.874 219.679 183.874 208.103 170.749L203.216 176.307Z" fill="#90531F"/>
<path fill-rule="evenodd" clip-rule="evenodd" d="M216.611 161.162C216.611 161.162 172.282 111.723 142.587 101.806C112.891 91.8895 69.6936 88.7439 62.8857 77.7895C56.0778 66.835 50.1376 45.7336 50.1376 45.7336C50.1376 45.7336 34.2278 75.1638 58.9691 94.7163C83.7105 114.269 115.51 107.517 142.054 124.199C168.597 140.881 202.333 176.012 202.333 176.012L216.611 161.162Z" fill="#FFCA1B"/>
<path d="M121.406 96.0552L99.4058 109.555L127.406 115.555L145.406 102.555L133.406 99.0552L121.406 96.0552Z" fill="#FFE98F"/>
<path d="M106.406 93.0552L86.9058 105.555L95.4058 108.555L114.906 94.5552L111.406 94.0552L106.406 93.0552Z" fill="#D28F00"/>
<path fill-rule="evenodd" clip-rule="evenodd" d="M208.317 171.395C208.317 171.395 165.55 124.89 135.819 114.962C106.088 105.033 73.6287 108.151 55.1066 84.0155C47.2715 73.8167 49.9061 46.0906 49.9061 46.0906C49.9061 46.0906 34.6659 75.5381 59.4072 95.0906C84.1486 114.643 117.166 108.517 143.71 125.199C170.253 141.881 203.46 177.13 203.46 177.13L208.317 171.395Z" fill="#90531F"/>
<path d="M57.4111 95.4795L307.197 338.313" stroke="black" stroke-width="3" stroke-linecap="round" stroke-linejoin="round"/>
<path d="M42.9069 78.5905L62.9064 68.5904" stroke="#D28F00" stroke-width="3" stroke-linecap="round" stroke-linejoin="round"/>
<path d="M65.4067 74.5904C65.2973 75.5348 49.9066 91.5904 49.9066 91.5904" stroke="#D28F00" stroke-width="3" stroke-linecap="round" stroke-linejoin="round"/>
<path d="M56.4062 97.5906L73.4069 80.5905" stroke="#D28F00" stroke-width="3" stroke-linecap="round" stroke-linejoin="round"/>
<path d="M295.407 322.091L317.906 312.091" stroke="#D28F00" stroke-width="3" stroke-linecap="round" stroke-linejoin="round"/>
<path d="M319.907 317.59C319.806 318.537 303.907 336.59 303.907 336.59" stroke="#D28F00" stroke-width="3" stroke-linecap="round" stroke-linejoin="round"/>
<path d="M310.407 341.091L325.907 325.591" stroke="#D28F00" stroke-width="3" stroke-linecap="round" stroke-linejoin="round"/>
<path d="M270.276 213.415C265.862 214.883 248.057 222.67 248.057 222.67L257.483 203.257L236.736 212.514L246.603 193.248L226.298 201.181L235.723 181.768L216.448 189.554L225.037 171.176L203.803 178.955L214.1 157.567L193.805 167.769L203.561 146.269L180.601 156.336L190.736 132.903L166.421 144.754L178.09 122.304L154.114 134.111L166.256 113.585L144.324 126.487L151.916 103.754" stroke="#D28F00" stroke-width="3" stroke-linecap="round" stroke-linejoin="round"/>
<path d="M271.728 214.881L258.652 233.535L279.193 223.279L267.42 243.614L290.007 236.542L276.089 256.779L298.804 246.945" stroke="#D28F00" stroke-width="3" stroke-linecap="round" stroke-linejoin="round"/>
</svg>
