<svg width="400" height="400" viewBox="0 0 400 400" fill="none" xmlns="http://www.w3.org/2000/svg">
<path fill-rule="evenodd" clip-rule="evenodd" d="M215.421 160.32C226.997 173.445 292.98 236.854 297.325 249.281C307.709 278.812 311.53 322.001 322.577 328.604C333.624 335.206 354.787 340.831 354.787 340.831C354.787 340.831 325.612 357.2 305.67 332.766C285.727 308.333 291.999 276.449 274.896 250.149C269.661 242.093 209.812 184.872 202.025 176.935" fill="#F9FF00"/>
<path d="M215.421 160.32C226.997 173.445 292.98 236.854 297.325 249.281C307.709 278.812 311.53 322.001 322.577 328.604C333.624 335.206 354.787 340.831 354.787 340.831C354.787 340.831 325.612 357.2 305.67 332.766C285.727 308.333 291.999 276.449 274.896 250.149C269.661 242.093 209.812 184.872 202.025 176.935" stroke="black" stroke-width="8" stroke-linecap="round" stroke-linejoin="round"/>
<path fill-rule="evenodd" clip-rule="evenodd" d="M216.45 161.644C216.45 161.644 172.121 112.205 142.426 102.288C112.731 92.3714 69.533 89.2258 62.7251 78.2714C55.9172 67.317 49.9769 46.2156 49.9769 46.2156C49.9769 46.2156 34.0671 75.6458 58.8085 95.1982C83.5499 114.751 115.349 107.999 141.893 124.681C168.436 141.362 202.76 177.671 202.76 177.671L216.45 161.644Z" fill="#F9FF00" stroke="black" stroke-width="8" stroke-linecap="round" stroke-linejoin="round"/>
<path fill-rule="evenodd" clip-rule="evenodd" d="M201.143 175.169C208.938 183.079 269.702 242.087 274.928 250.169C292.028 276.478 285.767 308.356 305.701 332.787C325.636 357.218 354.819 340.852 354.819 340.852C354.819 340.852 333.624 335.206 322.609 328.624C311.595 322.042 307.741 278.832 297.357 249.302C293.006 236.892 226.697 172.874 215.127 159.731L201.143 175.169Z" fill="#F9FF00"/>
<path fill-rule="evenodd" clip-rule="evenodd" d="M203.055 176.788C210.85 184.698 269.702 242.087 274.929 250.169C292.029 276.478 285.768 308.356 305.702 332.787C325.636 357.218 354.819 340.852 354.819 340.852C354.819 340.852 325.16 345.396 315.073 337.388C299.028 324.722 295.067 294.815 284.118 258.927C280.283 246.356 219.518 184.356 207.942 171.23L203.055 176.788Z" fill="#FFC200"/>
<path fill-rule="evenodd" clip-rule="evenodd" d="M216.45 161.644C216.45 161.644 172.121 112.205 142.426 102.288C112.731 92.3714 69.533 89.2258 62.7251 78.2714C55.9172 67.317 49.9769 46.2156 49.9769 46.2156C49.9769 46.2156 34.0671 75.6458 58.8085 95.1982C83.5499 114.751 115.349 107.999 141.893 124.681C168.436 141.362 202.172 176.494 202.172 176.494L216.45 161.644Z" fill="#F9FF00"/>
<path fill-rule="evenodd" clip-rule="evenodd" d="M208.207 171.643C208.207 171.643 165.439 125.138 135.708 115.209C105.977 105.281 73.5178 108.399 54.9957 84.2634C47.1606 74.0645 51.683 46.9817 51.683 46.9817C51.683 46.9817 35.7732 76.4119 60.5146 95.9644C85.2559 115.517 117.055 108.765 143.599 125.447C170.143 142.129 203.349 177.377 203.349 177.377L208.207 171.643Z" fill="#FFC200"/>
<path d="M57.2505 95.9614L307.037 338.795" stroke="black" stroke-width="3" stroke-linecap="round" stroke-linejoin="round"/>
<path d="M45.826 77.3261L59.6456 71.3671" stroke="black" stroke-width="3" stroke-linecap="round" stroke-linejoin="round"/>
<path d="M62.725 78.2711C62.6156 79.2154 51.5113 91.0543 51.5113 91.0543" stroke="black" stroke-width="3" stroke-linecap="round" stroke-linejoin="round"/>
<path d="M58.8087 95.1982L70.7425 83.7834" stroke="black" stroke-width="3" stroke-linecap="round" stroke-linejoin="round"/>
<path d="M299.618 321.338L313.437 315.379" stroke="black" stroke-width="3" stroke-linecap="round" stroke-linejoin="round"/>
<path d="M316.52 322.274C316.419 323.222 305.306 335.058 305.306 335.058" stroke="black" stroke-width="3" stroke-linecap="round" stroke-linejoin="round"/>
<path d="M312.6 339.21L324.534 327.795" stroke="black" stroke-width="3" stroke-linecap="round" stroke-linejoin="round"/>
<path d="M270.115 213.897C265.701 215.365 247.897 223.152 247.897 223.152L257.322 203.739L236.575 212.995L246.442 193.73L226.137 201.662L235.563 182.25L216.287 190.036L224.877 171.658L203.642 179.437L213.939 158.049L193.645 168.251L203.401 146.751L180.441 156.818L190.575 133.385L166.26 145.236L177.93 122.786L153.953 134.593L166.095 114.067L144.163 126.969L151.755 104.236" stroke="black" stroke-width="3" stroke-linecap="round" stroke-linejoin="round"/>
<path d="M271.567 215.363L258.491 234.017L279.033 223.761L267.259 244.096L289.847 237.024L275.928 257.261L298.644 247.426" stroke="black" stroke-width="3" stroke-linecap="round" stroke-linejoin="round"/>
</svg>
