<svg width="400" height="400" viewBox="0 0 400 400" fill="none" xmlns="http://www.w3.org/2000/svg">
<path d="M230.196 240.727C233.997 241.273 239.608 243.436 239.124 248.608C238.387 256.466 219.589 257.918 209.108 259.814C195.811 262.224 183.841 273.429 187.522 283.688C193.936 301.551 218.002 288.724 224.642 285.739C231.279 282.762 249.924 277.477 260.009 285.721C270.086 293.962 272.714 312.015 276.927 325.775C280.367 336.994 298.392 374.358 325.592 366.446C353.38 358.363 346.522 326.525 344.596 314.133C342.775 302.425 344.064 293.687 349.343 289.395C353.75 285.812 364.024 287.043 364.024 287.043C364.024 287.043 357.591 279.699 347.824 278.519C340.499 277.635 331.468 283.379 330.128 294.875C329.208 302.775 330.664 326.597 316.985 331.801C309.184 334.764 293.585 327.227 286.409 309.755C278.757 291.135 275.473 284.516 269.074 279.076C262.054 273.116 252.13 271.715 243.523 271.666C238.915 271.643 235.489 271.414 234.477 268.189C233.498 265.037 236.86 262.225 238.939 260.846C241.016 259.474 248.965 254.372 247.672 245.978C246.569 238.785 240.999 235.768 229.486 232.9C217.973 230.032 205.226 223.726 194.801 214.018C184.382 204.314 178.174 191.545 174.926 180.13C171.679 168.716 168.471 163.253 161.244 162.39C152.816 161.383 147.979 169.491 146.682 171.622C145.378 173.75 142.683 177.206 139.495 176.333C136.232 175.43 135.894 172.015 135.712 167.414C135.377 158.821 133.639 148.939 127.449 142.131C121.798 135.916 115.069 132.85 96.203 125.833C78.5031 119.244 70.441 103.908 73.1436 96.0146C77.8814 82.1684 101.743 82.8204 109.608 81.6421C121.049 79.9177 126.485 70.7023 125.359 63.4126C123.858 53.6869 116.302 47.5048 116.302 47.5048C116.302 47.5048 117.876 57.7341 114.45 62.2535C110.339 67.6782 101.646 69.2569 89.8857 67.8292C77.4362 66.3207 45.385 60.5269 38.2389 88.575C31.2435 116.023 69.189 132.79 80.5123 135.847C94.3993 139.598 112.536 141.621 121.106 151.416C129.684 161.215 125.028 180.027 122.274 186.766C119.521 193.506 107.51 217.981 125.569 223.799C135.945 227.137 146.748 214.8 148.703 201.428C150.242 190.891 151.064 172.056 158.896 171.049C164.047 170.392 166.391 175.924 167.068 179.702C168.12 185.608 168.988 207.973 185.593 224.028C202.066 239.95 224.238 239.877 230.185 240.732L230.196 240.727Z" fill="#DBA326"/>
<path d="M139.503 176.336C139.503 176.336 144.668 179.289 149.674 171.705C156.398 161.508 164.187 164.274 170.17 168.309C176.028 172.259 167.637 151.454 167.637 151.454L151.416 158.205L139.503 176.336Z" fill="white"/>
<mask id="mask0_5624_7256" style="mask-type:luminance" maskUnits="userSpaceOnUse" x="37" y="47" width="328" height="321">
<path d="M230.196 240.727C233.997 241.273 239.608 243.436 239.124 248.608C238.387 256.466 219.589 257.918 209.108 259.814C195.811 262.224 183.841 273.429 187.522 283.688C193.936 301.551 218.002 288.724 224.642 285.739C231.279 282.762 249.924 277.477 260.009 285.721C270.086 293.962 272.714 312.015 276.927 325.775C280.367 336.994 298.392 374.358 325.592 366.446C353.38 358.363 346.522 326.525 344.596 314.133C342.775 302.425 344.064 293.687 349.343 289.395C353.75 285.812 364.024 287.043 364.024 287.043C364.024 287.043 357.591 279.699 347.824 278.519C340.499 277.635 331.468 283.379 330.128 294.875C329.208 302.775 330.664 326.597 316.985 331.801C309.184 334.764 293.585 327.227 286.409 309.755C278.757 291.135 275.473 284.516 269.074 279.076C262.054 273.116 252.13 271.715 243.523 271.666C238.915 271.643 235.489 271.414 234.477 268.189C233.498 265.037 236.86 262.225 238.939 260.846C241.016 259.474 248.965 254.372 247.672 245.978C246.569 238.785 240.999 235.768 229.486 232.9C217.973 230.032 205.226 223.726 194.801 214.018C184.382 204.314 178.174 191.545 174.926 180.13C171.679 168.716 168.471 163.253 161.244 162.39C152.816 161.383 147.979 169.491 146.682 171.622C145.378 173.75 142.683 177.206 139.495 176.333C136.232 175.43 135.894 172.015 135.712 167.414C135.377 158.821 133.639 148.939 127.449 142.131C121.798 135.916 115.069 132.85 96.203 125.833C78.5031 119.244 70.441 103.908 73.1436 96.0146C77.8814 82.1684 101.743 82.8204 109.608 81.6421C121.049 79.9177 126.485 70.7023 125.359 63.4126C123.858 53.6869 116.302 47.5048 116.302 47.5048C116.302 47.5048 117.876 57.7341 114.45 62.2535C110.339 67.6782 101.646 69.2569 89.8857 67.8292C77.4362 66.3207 45.385 60.5269 38.2389 88.575C31.2435 116.023 69.189 132.79 80.5123 135.847C94.3993 139.598 112.536 141.621 121.106 151.416C129.684 161.215 125.028 180.027 122.274 186.766C119.521 193.506 107.51 217.981 125.569 223.799C135.945 227.137 146.748 214.8 148.703 201.428C150.242 190.891 151.064 172.056 158.896 171.049C164.047 170.392 166.391 175.924 167.068 179.702C168.12 185.608 168.988 207.973 185.593 224.028C202.066 239.95 224.238 239.877 230.185 240.732L230.196 240.727Z" fill="white"/>
</mask>
<g mask="url(#mask0_5624_7256)">
<path d="M232.917 106.465L205.198 341.543L271.355 356.983L296.247 117.807L232.917 106.465Z" fill="#F9D748"/>
<path d="M149.827 30.3093L120.506 273.166L129.387 273.236L158.368 28.7582L149.827 30.3093Z" fill="#F9D748"/>
<path d="M339.325 131.489C340.097 133.283 310.612 383.997 310.612 383.997L315.821 384.585L344.705 129.173L339.325 131.489Z" fill="#F9D748"/>
<path d="M347.87 132.42C348.643 134.214 318.653 388.693 318.653 388.693L322.496 387.743L351.372 132.328L347.87 132.42Z" fill="#F9D748"/>
<path d="M66.5266 -24.0871C67.267 -22.2799 32.5165 231.588 32.5165 231.588L36.3733 230.714L70.0297 -24.1173L66.5266 -24.0871Z" fill="#F9D748"/>
<path d="M86.5852 15.0367L58.8658 250.115L100.398 257.739L125.29 18.5633L86.5852 15.0367Z" fill="#F9D748"/>
<path d="M228.486 235.764C228.486 235.764 240.431 237.037 244.958 243.315C249.639 249.804 244.694 256.418 244.694 256.418L270.534 244.588C270.534 244.588 247.036 225.658 246.126 226.289C245.215 226.92 228.483 235.772 228.483 235.772L228.486 235.764Z" fill="white"/>
<path d="M62.5095 127.766C62.5095 127.766 83.1927 134.68 97.1576 136.933C111.112 139.19 120.468 145.552 124.009 149.934C127.55 154.316 132.016 169.627 122.88 191.739C113.745 213.851 121.731 218.683 126.513 219.927C131.301 221.173 139.499 218.826 144.265 206.855C149.03 194.884 147.7 182.475 150.197 177.858C152.694 173.242 156.163 167.025 160.26 168.33C164.357 169.636 169.329 176.232 168.089 185.974C166.849 195.716 150.858 239.203 150.858 239.203L118.163 236.75C118.163 236.75 63.7496 155.336 62.0891 150.383C60.4286 145.431 62.5065 127.774 62.5065 127.774L62.5095 127.766Z" fill="#9B6D13"/>
<path d="M185.899 277.247C185.899 277.247 187.427 287.924 198.905 289.354C207.215 290.393 212.802 285.968 219.284 282.938C225.774 279.911 243.472 272.763 258.699 281.788C273.922 290.82 275.66 309.671 277.045 317.811C278.43 325.952 300.43 372.681 325.363 361.474C350.296 350.268 344.329 325.45 343.405 319.463C342.486 313.487 337.214 295.208 347.34 288.018C357.466 280.828 370.416 290.599 370.416 290.599L354.499 380.336L303.235 412.094L164.34 290.781L185.907 277.25L185.899 277.247Z" fill="#9B6D13"/>
<path d="M173.186 167.557C173.186 167.557 169.32 176.606 161.798 183.619C154.268 190.629 182.068 229.545 182.068 229.545L222.117 246.463C222.117 246.463 232.215 232.913 240.966 230.856C245.284 229.84 173.191 167.568 173.191 167.568L173.186 167.557Z" fill="#325F03"/>
<path d="M175.617 175.543L164.789 184.652L164.672 184.35L178.547 183.603C178.824 183.591 178.975 183.941 178.778 184.126C178.778 184.126 167.956 194.724 167.953 194.731L167.542 193.996L180.209 190.649C180.714 190.507 181.072 191.177 180.698 191.521L169.727 202.226L169.177 201.199L183.638 198.073C184.013 197.994 184.377 198.227 184.457 198.601C184.501 198.821 184.442 199.035 184.309 199.193L173.716 211.755L172.925 210.605L188.752 205.086C189.448 204.818 190.072 205.726 189.587 206.28L179.125 219.22L178.185 218.002L193.481 210.97C193.89 210.781 194.371 210.964 194.555 211.362C194.668 211.609 194.644 211.89 194.523 212.106L186.448 226.118L185.375 225.058L200.029 216.434C200.385 216.224 200.839 216.343 201.052 216.692C201.172 216.898 201.181 217.139 201.107 217.347L195.214 232.219L194.082 231.417L205.922 221.313C206.346 220.91 207.095 221.305 207.026 221.875L205.668 237.436L204.644 237.028L213.441 225.73C213.689 225.372 214.299 225.562 214.317 225.982L215.486 239.99L214.754 239.796L222.2 229.419C222.321 229.204 222.685 229.305 222.695 229.546L224.05 241.517L223.775 241.434L232.017 231.841L224.02 241.637C223.941 241.746 223.753 241.689 223.745 241.554L222.15 229.61L222.645 229.737L215.406 240.257C215.197 240.561 214.694 240.431 214.674 240.063L213.331 226.073L214.207 226.325L205.547 237.74C205.219 238.19 204.457 237.895 204.52 237.34L205.689 221.765L206.793 222.328L195.014 232.5C194.717 232.76 194.266 232.722 194.006 232.425C193.824 232.22 193.789 231.934 193.882 231.698L199.723 216.805L200.794 217.715L186.178 226.398C185.517 226.821 184.695 225.992 185.105 225.338L193.123 211.293L194.163 212.437L178.849 219.427C178.451 219.611 177.984 219.434 177.8 219.035C177.674 218.756 177.723 218.433 177.902 218.205L188.419 205.305L189.254 206.499L173.407 211.957C172.74 212.22 172.136 211.328 172.616 210.807L183.261 198.292L183.932 199.412L169.438 202.375C168.868 202.527 168.445 201.734 168.889 201.348L179.989 190.782L180.478 191.653L167.765 194.85C167.351 194.984 167.022 194.396 167.354 194.115L178.357 183.704L178.586 184.234L164.703 184.714C164.612 184.722 164.528 184.645 164.52 184.554C164.516 184.499 164.547 184.441 164.578 184.409L175.626 175.564L175.617 175.543Z" fill="#74B618"/>
<path d="M316.985 331.802C316.985 331.802 324.852 332.893 330.815 318.752C336.775 304.619 329.577 294.49 337.252 285.99C344.927 277.49 364.023 287.043 364.023 287.043L351.903 264.095L308.409 278.809L316.977 331.799L316.985 331.802Z" fill="white"/>
<path d="M120.303 49.7572C120.303 49.7572 126.597 65.4708 120.401 71.9125C114.202 78.3618 107.998 78.1961 101.442 78.8928C94.8856 79.5896 71.1414 80.3651 69.9713 97.3989C68.8011 114.433 88.865 122.085 88.865 122.085L147.236 83.2541L124.902 42.3365L120.299 49.7465L120.303 49.7572Z" fill="white"/>
<path d="M114.312 44.0658C114.312 44.0658 122.018 55.3909 116.281 63.9938C110.541 72.6043 94.4763 71.4948 81.487 69.2877C68.4947 67.0883 46.3449 70.4858 41.0214 88.8299C35.6949 107.182 50.3045 120.252 50.3045 120.252L20.8959 107.886C20.8959 107.886 42.8962 47.6473 45.1192 47.8727C47.3423 48.0981 76.9076 52.6033 81.011 52.2581C85.1069 51.9099 114.315 44.0582 114.315 44.0582L114.312 44.0658Z" fill="white"/>
<path d="M234.928 237.01C234.928 237.01 196.918 227.164 186.002 204C176.374 183.583 243.126 234.663 243.126 234.663L234.928 237.01Z" fill="#FAFCF5"/>
<path d="M235.722 270.672C235.722 270.672 239.769 272.942 246.607 274.011C253.446 275.08 260.394 274.214 266.324 279.221C272.257 284.221 279.105 293.551 279.105 293.551C279.105 293.551 292.117 276.614 290.347 275.25C288.577 273.886 266.516 263.785 266.516 263.785L235.714 270.669L235.722 270.672Z" fill="white"/>
<path d="M98.9013 126.74C98.9013 126.74 119.708 135.023 125.644 143.33C129.809 149.147 134.783 158.523 134.783 158.523C134.783 158.523 150.221 128.024 148.628 127.056C147.034 126.088 114.437 118.397 114.437 118.397L98.9013 126.74Z" fill="white"/>
</g>
<path d="M115.613 53.5004C115.347 53.3946 115.118 53.1978 114.978 52.931C114.663 52.3307 114.897 51.5884 115.497 51.2734L119.29 49.3008C119.89 48.9857 120.632 49.2196 120.947 49.8199C121.262 50.4202 121.029 51.1625 120.428 51.4775L116.636 53.4501C116.305 53.6176 115.939 53.6303 115.613 53.5004Z" fill="black"/>
<path d="M115.889 54.7713C115.456 54.5991 115.139 54.1824 115.118 53.6817C115.09 53.0021 115.614 52.4368 116.293 52.4084L121.771 52.1883C122.443 52.1569 123.016 52.6839 123.045 53.3636C123.073 54.0432 122.549 54.6085 121.87 54.6369L116.391 54.857C116.212 54.8648 116.041 54.8317 115.889 54.7713Z" fill="black"/>
<path d="M351.907 289.184C351.626 289.073 351.392 288.865 351.253 288.573L346.718 279.046C346.424 278.437 346.688 277.707 347.298 277.413C347.907 277.119 348.637 277.383 348.931 277.993L353.467 287.519C353.761 288.128 353.496 288.859 352.887 289.152C352.57 289.308 352.21 289.305 351.907 289.184Z" fill="black"/>
<path d="M356.293 287.088C354.709 283.802 349.095 278.331 349.095 278.331L356.293 287.088Z" fill="white"/>
<path d="M355.841 288.227C355.567 288.118 355.326 287.907 355.195 287.618C353.721 284.56 348.302 279.264 348.246 279.206C347.765 278.733 347.75 277.954 348.223 277.473C348.696 276.993 349.468 276.975 349.956 277.451C350.191 277.677 355.739 283.112 357.403 286.554C357.697 287.163 357.441 287.896 356.831 288.19C356.507 288.342 356.152 288.351 355.848 288.23L355.841 288.227Z" fill="black"/>
<path d="M356.98 288.082C356.494 287.889 356.17 287.399 356.212 286.853L356.591 281.614C356.64 280.939 357.228 280.434 357.903 280.483C358.578 280.532 359.083 281.12 359.034 281.795L358.654 287.034C358.606 287.709 358.018 288.214 357.342 288.165C357.213 288.158 357.094 288.128 356.98 288.082Z" fill="black"/>
<path d="M359.027 282.961C359.027 282.961 360.595 285.23 361.451 286.811L359.027 282.961Z" fill="white"/>
<path d="M360.991 287.946C360.733 287.844 360.508 287.657 360.368 287.391C359.551 285.887 358.028 283.681 358.011 283.656C357.627 283.099 357.763 282.335 358.321 281.95C358.879 281.566 359.642 281.702 360.027 282.26C360.094 282.357 361.645 284.601 362.52 286.225C362.846 286.821 362.62 287.566 362.027 287.884C361.69 288.067 361.317 288.076 360.991 287.946Z" fill="black"/>
<path d="M350.503 289.593C350.359 289.536 350.227 289.448 350.104 289.338L114.204 61.2145C113.836 60.857 113.728 60.3125 113.93 59.8479C114.133 59.3833 114.603 59.0867 115.114 59.1056L116.58 59.179L115.499 58.8015C114.978 58.6294 114.618 58.055 114.69 57.4768C114.769 56.9017 115.237 56.4548 115.821 56.4235L123.075 55.9168C123.754 55.8701 124.335 56.3744 124.382 57.0525C124.429 57.7306 123.917 58.3095 123.246 58.3592L121.898 58.4555L125.292 59.6484C125.836 59.8296 126.207 60.4434 126.085 61.0368C125.971 61.6333 125.434 62.0529 124.82 62.0281L118.244 61.7144L351.809 287.572C352.297 288.047 352.308 288.816 351.84 289.307C351.482 289.675 350.951 289.772 350.503 289.593Z" fill="black"/>
<path d="M116.306 47.4974C116.306 47.4974 123.861 53.6795 125.362 63.4052C126.488 70.6949 121.049 79.9178 109.611 81.6347C101.754 82.816 77.8922 82.164 73.1468 96.0072C70.4941 103.754 78.2126 118.672 95.2392 125.449C95.558 125.576 95.8844 125.706 96.2063 125.825C100.182 127.303 103.619 128.609 106.618 129.803C117.852 134.275 122.987 137.216 127.445 142.121C133.642 148.932 135.373 158.81 135.707 167.403C135.875 171.753 136.184 175.041 138.978 176.153C139.137 176.217 139.307 176.276 139.491 176.322C142.668 177.2 145.373 173.739 146.678 171.612C147.982 169.484 152.819 161.376 161.239 162.38C162.414 162.522 163.488 162.782 164.468 163.172C169.508 165.179 172.192 170.565 174.915 180.117C178.162 191.531 184.371 204.3 194.789 214.005C202.359 221.055 211.155 226.306 219.817 229.754C223.081 231.053 226.323 232.098 229.477 232.879C232.766 233.695 235.565 234.528 237.919 235.465C243.809 237.81 246.877 240.816 247.663 245.957C248.948 254.348 241.007 259.452 238.93 260.824C236.854 262.196 233.482 265.013 234.469 268.167C234.911 269.575 235.807 270.415 237.06 270.914C238.684 271.56 240.913 271.639 243.511 271.653C249.355 271.684 255.803 272.342 261.541 274.626C264.251 275.705 266.806 277.153 269.062 279.062C275.461 284.503 278.753 291.124 286.397 309.741C290.997 320.938 299.058 328.06 306.307 330.945C310.369 332.562 314.167 332.852 316.966 331.785C330.642 326.588 329.188 302.759 330.108 294.859C331.445 283.37 340.476 277.626 347.804 278.503C349.961 278.763 351.955 279.32 353.754 280.036C360.1 282.562 364.007 287.019 364.007 287.019C364.007 287.019 353.734 285.788 349.326 289.371C344.047 293.663 342.759 302.401 344.579 314.109C346.505 326.501 353.371 358.342 325.576 366.422C319.36 368.23 313.628 367.672 308.436 365.605C290.901 358.625 279.568 334.407 276.911 325.751C272.697 311.991 270.07 293.938 259.993 285.697C258.601 284.554 257.034 283.675 255.364 283.01C244.979 278.876 230.341 283.154 224.625 285.715C219.627 287.955 204.744 295.784 194.96 291.889C191.749 290.611 189.083 288.073 187.498 283.661C183.814 273.409 195.779 262.194 209.084 259.786C219.565 257.891 238.363 256.439 239.1 248.58C239.44 244.987 236.826 242.848 233.927 241.694C232.659 241.189 231.334 240.872 230.171 240.7C226.221 240.13 215.097 239.976 203.248 235.259C197.266 232.878 191.105 229.335 185.587 223.999C168.982 207.944 168.122 185.583 167.062 179.673C166.526 176.69 164.955 172.617 161.782 171.354C160.932 171.016 159.975 170.881 158.89 171.021C151.058 172.028 150.239 190.854 148.697 201.4C146.742 214.771 135.932 227.106 125.564 223.77C125.149 223.64 124.751 223.491 124.372 223.339C108.051 216.843 119.579 193.318 122.269 186.738C125.022 179.998 129.678 161.187 121.1 151.388C118.018 147.866 113.708 145.35 108.804 143.398C100.052 139.914 89.4087 138.218 80.5064 135.818C78.855 135.372 76.6326 134.637 74.0669 133.615C59.0595 127.641 32.2581 111.995 38.233 88.5463C45.3792 60.4983 77.4303 66.292 89.8798 67.8006C101.64 69.2283 110.333 67.6496 114.444 62.2248C117.881 57.7009 116.296 47.4762 116.296 47.4762M110.636 37.5724L112.26 48.0944C112.78 51.5375 112.8 57.6305 111.187 59.7588C108.226 63.6629 101.028 65.0449 90.3676 63.7473C89.7045 63.668 88.9852 63.5752 88.2173 63.4718C80.9651 62.5371 70.0087 61.1217 59.4939 63.4348C46.0778 66.3869 37.5921 74.4937 34.2639 87.538C28.3583 110.724 50.1702 128.5 72.5484 137.408C75.0762 138.414 77.4596 139.231 79.4373 139.763C82.4776 140.586 85.7499 141.335 88.9251 142.062C95.2269 143.507 101.741 144.992 107.29 147.201C112.156 149.138 115.666 151.388 118.022 154.084C124.812 161.835 121.265 178.389 118.478 185.194C118.293 185.657 118.058 186.205 117.792 186.829C114.911 193.579 108.917 207.62 113.221 217.951C114.991 222.208 118.235 225.302 122.85 227.14C123.321 227.327 123.805 227.502 124.303 227.665C128.948 229.162 133.858 228.426 138.487 225.546C145.71 221.052 151.298 211.809 152.741 201.998C152.995 200.279 153.222 198.382 153.469 196.37C154.085 191.242 154.787 185.436 156.086 180.959C157.3 176.781 158.642 175.178 159.419 175.083C159.872 175.026 160.132 175.103 160.284 175.163C161.407 175.611 162.593 177.868 163.051 180.407C163.167 181.042 163.288 181.996 163.434 183.11C164.555 191.716 167.175 211.886 182.758 226.953C188.072 232.093 194.469 236.17 201.749 239.068C211.868 243.096 221.565 243.984 226.773 244.465C227.937 244.568 228.946 244.662 229.593 244.761C230.565 244.902 231.57 245.161 232.42 245.5C235.191 246.603 235.078 247.771 235.034 248.211C234.961 248.991 233.412 250.388 229.269 251.737C224.841 253.185 219.061 254.076 213.954 254.866C211.956 255.179 210.066 255.464 208.358 255.778C198.607 257.542 189.556 263.445 185.305 270.811C182.579 275.538 182.011 280.456 183.663 285.054C185.541 290.277 188.838 293.858 193.453 295.696C203.959 299.878 217.958 293.341 224.688 290.198C225.302 289.915 225.844 289.656 226.293 289.457C232.503 286.67 245.482 283.491 253.847 286.821C255.19 287.356 256.383 288.05 257.399 288.877C264.304 294.527 267.4 306.233 270.392 317.563C271.224 320.708 272.083 323.961 273.006 326.967C274.478 331.774 278.164 340.32 283.697 348.599C290.7 359.064 298.516 366.071 306.927 369.419C313.379 371.987 320.04 372.308 326.725 370.361C339.643 366.604 347.465 357.846 349.966 344.341C351.926 333.76 350.145 322.858 348.966 315.636C348.839 314.873 348.727 314.16 348.623 313.494C346.973 302.882 348.106 295.639 351.911 292.554C354.003 290.855 360.079 290.679 363.528 291.094L374.105 292.358L367.087 284.341C366.9 284.126 362.451 279.11 355.27 276.251C352.985 275.342 350.634 274.731 348.3 274.453C343.583 273.886 338.552 275.391 334.49 278.593C329.809 282.288 326.813 287.893 326.056 294.389C325.889 295.826 325.799 297.62 325.69 299.705C325.224 309.007 324.445 324.57 315.512 327.97C313.708 328.659 310.832 328.35 307.818 327.15C300.44 324.213 293.842 317.128 290.171 308.192C282.592 289.742 279.038 282.189 271.698 275.952C269.232 273.863 266.321 272.141 263.045 270.828C257.64 268.676 251.249 267.61 243.527 267.57C242.07 267.562 239.638 267.552 238.56 267.123C238.469 267.087 238.416 267.065 238.389 267.046C238.389 267.046 238.379 267.025 238.375 267.014C238.482 266.634 239.266 265.504 241.172 264.25L241.266 264.19C246.787 260.549 253.079 254.33 251.701 245.357C250.427 237.067 244.479 233.697 239.431 231.688C237.04 230.736 234.197 229.859 230.458 228.934C227.435 228.179 224.365 227.185 221.321 225.974C212.523 222.472 204.31 217.303 197.565 211.03C186.753 200.966 181.406 188.065 178.836 179.013C175.961 168.917 172.804 162.111 165.965 159.389C164.659 158.869 163.236 158.513 161.706 158.335C156.727 157.743 149.482 159.177 143.233 169.396L143.178 169.489C141.983 171.431 140.888 172.262 140.508 172.375C140.493 172.368 140.486 172.365 140.478 172.362C139.952 171.652 139.825 168.348 139.779 167.248C139.294 154.858 136.249 145.74 130.457 139.371C125.631 134.065 120.198 130.812 108.113 126.001C105.343 124.898 102.106 123.663 97.6109 121.988C97.3148 121.87 97.0157 121.759 96.7273 121.645C89.7588 118.871 83.8887 114.309 80.1867 108.808C76.7022 103.622 76.29 99.3777 76.9951 97.3192C80.0917 88.2807 95.621 86.9788 104.899 86.2047C106.974 86.0283 108.766 85.8797 110.196 85.6664C116.659 84.6952 122.164 81.5136 125.705 76.7058C128.769 72.5436 130.104 67.4648 129.379 62.7703C127.658 51.6295 119.229 44.616 118.87 44.3237L110.625 37.5769L110.636 37.5724Z" fill="black"/>
</svg>
