<svg width="400" height="400" viewBox="0 0 400 400" fill="none" xmlns="http://www.w3.org/2000/svg">
<path d="M345.624 334.219L300.234 281.453L261.207 261.478L234.067 228.104L213.844 222.75C213.844 222.75 204.598 206.243 203.625 204.701C202.651 203.159 131.177 155.168 131.177 155.168L143.556 143.668L213.822 199.063L220.824 210.561L243.81 218.919L269.654 255.7L305.197 270.589L353.256 320.318L345.626 334.207L345.624 334.219Z" fill="#41423C"/>
<mask id="mask0_5624_7371" style="mask-type:luminance" maskUnits="userSpaceOnUse" x="131" y="143" width="223" height="192">
<path d="M345.624 334.219L300.234 281.453L261.207 261.478L234.067 228.104L213.844 222.75C213.844 222.75 204.598 206.243 203.625 204.701C202.651 203.159 131.177 155.168 131.177 155.168L143.556 143.668L213.822 199.063L220.824 210.561L243.81 218.919L269.654 255.7L305.197 270.589L353.256 320.318L345.626 334.207L345.624 334.219Z" fill="white"/>
</mask>
<g mask="url(#mask0_5624_7371)">
<path d="M172.962 172.694L195.284 181.886L176.007 159.894L172.962 172.694Z" fill="#ADAC9A"/>
<path d="M202.16 197.884L205.393 197.806L195.659 189.111L202.16 197.884Z" fill="#ADAC9A"/>
<path d="M232.579 219.563L240.5 221.114L234.7 216.05L232.579 219.563Z" fill="#ADAC9A"/>
<path d="M285.328 267.767L290.077 269.052L285.241 263.638L285.328 267.767Z" fill="#ADAC9A"/>
<path d="M327.521 301.396L333.199 302.507L322.354 290.377L327.521 301.396Z" fill="#ADAC9A"/>
<path d="M305.727 278.549L315.315 284.354L311.582 279.695L305.727 278.549Z" fill="#ADAC9A"/>
<path d="M349.714 336.828C349.714 336.828 336.022 319.141 335.534 317.972C335.045 316.804 302.152 278.56 302.152 278.56L262.044 258.919L235.425 225.121L215.733 219.839L205.892 202.549L124.718 148.065L188.581 223.46C188.581 223.46 358.391 356.397 357.897 353.445C357.402 350.492 349.712 336.835 349.712 336.835L349.714 336.828Z" fill="#181918"/>
<path d="M351.992 323.339L304.678 272.982L268.364 257.656L243.348 220.243L219.244 211.953L212.934 200.355L156.248 154.954L201.293 153.94L354.013 271.025L372.285 314.625L351.992 323.339Z" fill="#ADAC9A"/>
<path d="M213.97 217.888L213.075 208.778L209.985 210.851L213.97 217.888Z" fill="#181918"/>
<path d="M172.274 180.777L180.876 181.572L178.508 182.714L173.346 182.599L172.274 180.777Z" fill="#181918"/>
<path d="M256.825 253.615L257.002 246.32L258.317 246.932L257.988 251.336L256.825 253.615Z" fill="#181918"/>
<path d="M245.019 232.716L250.873 235.652L251.785 239.225L245.019 232.716Z" fill="#181918"/>
<path d="M321.539 301.837L331.986 308.705L328.96 307.757L321.725 304.551L321.539 301.837Z" fill="#181918"/>
<path d="M338.166 322.778L340.919 315.098L339.508 314.105L337.44 321.918L338.166 322.778Z" fill="#181918"/>
<path d="M219.053 216.561L223.897 215.542L223.253 217.021L221.262 218.954L219.053 216.561Z" fill="#ADAC9A"/>
<path d="M246.601 224.631L243.951 225.362L243.691 227.634L247.458 232.121L246.601 224.631Z" fill="#ADAC9A"/>
</g>
<path d="M167.111 165.92L156.807 142.955L30.782 47.246L134.42 163.05L167.111 165.92Z" fill="#B0AFA8"/>
<mask id="mask1_5624_7371" style="mask-type:luminance" maskUnits="userSpaceOnUse" x="30" y="47" width="138" height="119">
<path d="M167.111 165.92L156.916 143.046L30.782 47.246L134.42 163.05L167.111 165.92Z" fill="white"/>
</mask>
<g mask="url(#mask1_5624_7371)">
<path d="M176.961 174.568L21.9124 39.5195L134.951 172.654L176.961 174.568Z" fill="#4F5956"/>
<path opacity="0.15" d="M55.8073 133.15L73.0492 135.452L73.4548 84.4215L56.8652 69.9675L55.8073 133.15Z" fill="#FFFDF3"/>
<path opacity="0.3" d="M57.7173 19.3477L56.8654 69.9675L73.455 84.4215L73.9986 15.5665L57.7173 19.3477Z" fill="#FFFDF3"/>
<path opacity="0.15" d="M105.727 179.372L132.383 188.339L133.677 136.886L106.83 113.495L105.727 179.372Z" fill="#FFFDF3"/>
<path opacity="0.3" d="M107.631 65.5681L106.83 113.495L133.677 136.886L135.398 68.8579L107.631 65.5681Z" fill="#FFFDF3"/>
<path opacity="0.3" d="M159.605 84.8536L152.173 84.4714L150.246 151.317L156.92 157.129L159.605 84.8536Z" fill="#FFFDF3"/>
<path opacity="0.15" d="M150.246 151.317L148.833 200.133L155.333 199.799L156.92 157.129L150.246 151.317Z" fill="#FFFDF3"/>
<path d="M25.1763 43.1726L167.27 154.408L162.575 104.371L25.1763 43.1726Z" fill="#FFFEF8"/>
</g>
<path d="M369.224 352.768L363.282 318.086L343.013 308.229L340.023 343.803L369.224 352.768Z" fill="#AEAEA0"/>
<mask id="mask2_5624_7371" style="mask-type:luminance" maskUnits="userSpaceOnUse" x="340" y="308" width="30" height="45">
<path d="M369.224 352.768L363.282 318.086L343.013 308.229L340.023 343.803L369.224 352.768Z" fill="white"/>
</mask>
<g mask="url(#mask2_5624_7371)">
<path d="M337.643 304.767L353.249 320.323L345.624 334.219L331.005 318.355L337.643 304.767Z" fill="#939286"/>
<path d="M334.898 340.712L334.627 340.152C334.893 340.02 361.673 326.953 366.651 324.932L366.886 325.511C361.929 327.53 335.171 340.582 334.904 340.714L334.898 340.712Z" fill="#726F52"/>
<path d="M347.962 333.91L347.547 334.374L372.026 356.264L372.441 355.8L347.962 333.91Z" fill="#726F52"/>
<path d="M359.391 314.472L358.779 314.354L355.726 330.249L356.337 330.367L359.391 314.472Z" fill="#726F52"/>
<path d="M339.555 321.875L339.582 321.252C340.539 321.294 356.824 322.679 357.518 322.732L357.467 323.35C357.298 323.336 340.501 321.908 339.557 321.869L339.555 321.875Z" fill="#726F52"/>
<path d="M354.101 312.087L346.774 322.252L347.28 322.616L354.607 312.451L354.101 312.087Z" fill="#726F52"/>
<path d="M342.657 310.793L370.5 323.744L372.234 294.784L344.617 302.597L342.657 310.793Z" fill="white"/>
<path d="M373.155 350.352C372.189 349.807 332.116 339.102 332.116 339.102L353.037 358.205L370.595 363.431L373.155 350.352Z" fill="#848277"/>
</g>
<path d="M370.403 354.103L339.029 344.472L342.197 306.788L364.123 317.451L370.404 354.097L370.403 354.103ZM341.018 343.129L368.052 351.428L362.448 318.716L343.837 309.66L341.024 343.13L341.018 343.129Z" fill="black"/>
<path d="M30.7821 47.246L156.807 142.955L167.112 165.914L134.421 163.044L30.7821 47.246ZM31.141 45.4125C30.5237 45.2917 29.8637 45.4861 29.4053 45.9802C28.7523 46.6901 28.7433 47.7735 29.3887 48.4963L133.028 164.294C133.298 164.601 133.664 164.806 134.061 164.883C134.128 164.896 134.189 164.908 134.259 164.909L166.95 167.779C167.611 167.839 168.253 167.54 168.638 166.999C169.023 166.459 169.091 165.755 168.822 165.151L158.517 142.192C158.389 141.907 158.19 141.658 157.941 141.47L31.9106 45.7598C31.6791 45.5813 31.416 45.4663 31.141 45.4125Z" fill="black"/>
<path d="M30.782 47.246L156.807 142.955L164.561 160.236L213.815 199.068L220.816 210.566L243.803 218.924L269.647 255.705L305.189 270.594L342.895 309.609L343.014 308.223L363.282 318.086L369.225 352.762L340.024 343.797L341.257 329.132L300.229 281.446L261.202 261.471L234.062 228.097L213.839 222.743C213.839 222.743 204.593 206.236 203.62 204.694C202.907 203.571 164.797 177.804 144.149 163.888L134.423 163.031L30.782 47.246ZM31.3801 44.1901C30.3472 43.9879 29.2481 44.3186 28.4917 45.1351C27.4047 46.3121 27.3914 48.1308 28.4589 49.3234L132.098 165.121C132.551 165.628 133.157 165.969 133.823 166.099C133.933 166.121 134.037 166.141 134.15 166.145L143.072 166.926C176.806 189.66 198.319 204.38 201.185 206.692C202.415 208.773 207.665 218.101 211.122 224.267C211.537 225.002 212.226 225.537 213.04 225.753L232.287 230.846L258.788 263.429C259.059 263.761 259.399 264.037 259.785 264.233L298.264 283.93L338.04 330.165L336.917 343.525C336.796 344.987 337.706 346.333 339.107 346.765L368.308 355.73C368.409 355.762 368.518 355.79 368.622 355.81C369.563 355.995 370.546 355.736 371.275 355.092C372.088 354.376 372.471 353.296 372.287 352.225L366.344 317.549C366.176 316.558 365.541 315.717 364.638 315.273L344.37 305.411C344.127 305.293 343.871 305.205 343.608 305.154C343.37 305.107 343.126 305.091 342.883 305.101L307.43 268.418C307.135 268.113 306.782 267.873 306.395 267.708L271.686 253.166L246.358 217.12C245.991 216.598 245.471 216.204 244.873 215.985L222.911 208L216.483 197.432C216.291 197.115 216.04 196.838 215.75 196.603L167.095 158.251L159.655 141.666C159.443 141.193 159.111 140.779 158.697 140.463L32.6637 44.765C32.2716 44.4661 31.8324 44.2786 31.3801 44.1901Z" fill="black"/>
</svg>
