<svg width="400" height="400" viewBox="0 0 400 400" fill="none" xmlns="http://www.w3.org/2000/svg">
<path d="M115.172 80.8302C100.846 73.6034 87.5567 63.1456 87.5567 63.1456C99.3947 74.7605 110.527 90.2383 107.158 93.9227C104.797 96.5021 100.268 94.0558 96.0717 91.2358C91.8751 88.4158 32.0094 46.209 32.0094 46.209L28.5518 43.747L31.2937 46.9966C31.2937 46.9966 78.6934 102.843 81.8811 106.768C85.0636 110.691 87.9085 114.986 85.5511 117.572C82.1797 121.262 65.7682 111.565 53.1393 100.81C53.1393 100.81 64.7464 113.111 73.2278 126.731C81.7507 140.414 87.792 158.327 87.792 158.327C87.792 158.327 87.2956 151.234 87.7878 147.712C88.7264 141.01 94.3541 135.094 102.523 134.554C113.228 133.84 126.487 143.03 134.973 150.902C144.318 159.57 278.939 282.84 282.072 285.702C287.081 290.283 290.249 296.064 291.267 299.527C292.623 304.138 293.665 313.569 289.003 327.929C289.003 327.929 329.38 322.67 365.817 352.781C367.746 354.377 371.158 357.054 371.158 357.054C371.158 357.054 368.378 353.873 366.529 352.004C333.972 319.104 334.897 277.725 334.897 277.725C321.015 283.654 311.529 283.462 306.814 282.523C303.272 281.82 297.232 279.181 292.223 274.6C289.085 271.735 154.251 148.695 144.782 140.169C136.178 132.42 125.843 120.043 125.592 109.311C125.403 101.126 130.788 94.9872 137.376 93.4539C140.837 92.6491 147.943 92.509 147.943 92.509C147.943 92.509 129.562 88.093 115.17 80.8354L115.172 80.8302ZM112.689 128.85L82.7403 123.594L106.994 123.645L112.689 128.85ZM114.495 127.119L88.9473 99.0236L119.444 121.707L114.497 127.114L114.495 127.119ZM121.081 119.668L115.386 114.464L113.161 90.31L121.081 119.668Z" fill="#EDAF40"/>
<mask id="mask0_5624_7295" style="mask-type:luminance" maskUnits="userSpaceOnUse" x="28" y="43" width="344" height="315">
<path d="M115.172 80.8302C100.846 73.6034 87.5567 63.1456 87.5567 63.1456C99.3947 74.7605 110.527 90.2383 107.158 93.9227C104.797 96.5021 100.268 94.0558 96.0717 91.2358C91.8751 88.4158 32.0094 46.209 32.0094 46.209L28.5518 43.747L31.2937 46.9966C31.2937 46.9966 78.6934 102.843 81.8811 106.768C85.0636 110.691 87.9085 114.986 85.5511 117.572C82.1797 121.262 65.7682 111.565 53.1393 100.81C53.1393 100.81 64.7464 113.111 73.2278 126.731C81.7507 140.414 87.792 158.327 87.792 158.327C87.792 158.327 87.2956 151.234 87.7878 147.712C88.7264 141.01 94.3541 135.094 102.523 134.554C113.228 133.84 126.487 143.03 134.973 150.902C144.318 159.57 278.939 282.84 282.072 285.702C287.081 290.283 290.249 296.064 291.267 299.527C292.623 304.138 293.665 313.569 289.003 327.929C289.003 327.929 329.38 322.67 365.817 352.781C367.746 354.377 371.158 357.054 371.158 357.054C371.158 357.054 368.378 353.873 366.529 352.004C333.972 319.104 334.897 277.725 334.897 277.725C321.015 283.654 311.529 283.462 306.814 282.523C303.272 281.82 297.232 279.181 292.223 274.6C289.085 271.735 154.251 148.695 144.782 140.169C136.178 132.42 125.843 120.043 125.592 109.311C125.403 101.126 130.788 94.9872 137.376 93.4539C140.837 92.6491 147.943 92.509 147.943 92.509C147.943 92.509 129.562 88.093 115.17 80.8354L115.172 80.8302ZM112.689 128.85L82.7403 123.594L106.994 123.645L112.689 128.85ZM114.495 127.119L88.9473 99.0236L119.444 121.707L114.497 127.114L114.495 127.119ZM121.081 119.668L115.386 114.464L113.161 90.31L121.081 119.668Z" fill="white"/>
</mask>
<g mask="url(#mask0_5624_7295)">
<path d="M59.5255 -12.4453L43.8431 198.287L52.8546 199.698L68.9986 -14.8828L59.5255 -12.4453Z" fill="#FFE6A1"/>
<path d="M98.3446 30.952C98.8473 33.1547 94.1582 223.765 94.1582 223.765L126.672 219.353L129.968 28.8857L98.3446 30.952Z" fill="#FFE6A1"/>
<path d="M185.492 115.668L183.164 268.296L202.076 271.455L204.059 112.667L185.492 115.668Z" fill="#FFE6A1"/>
<path d="M216.704 123.505L211.809 275.825L221.405 278.797L225.798 124.275L216.704 123.505Z" fill="#FFE6A1"/>
<path d="M284.179 194.714L275.027 330.001L297.725 339.961L310.819 195.612L284.179 194.714Z" fill="#FFE6A1"/>
<path d="M337.616 202.272L327.837 348.047L336.041 351.162L343.859 199.953L337.616 202.272Z" fill="#FFE6A1"/>
<path d="M329.113 213.625L319.335 359.4L322.341 359.869L332.752 211.99L329.113 213.625Z" fill="#FFE6A1"/>
<path d="M93.1128 31.483L83.3345 177.258L86.3407 177.727L96.7518 29.8473L93.1128 31.483Z" fill="#FFE6A1"/>
<path d="M88.4408 157.906C84.9744 136.316 97.6443 132.075 101.994 131.216C110.496 129.534 123.042 136.698 132.419 143.777C135.771 146.312 272.154 272.263 278.622 277.737C285.09 283.211 293.861 290.566 295.1 296.567C298.511 313.07 289.659 327.505 289.659 327.505L88.4408 157.906Z" fill="#AF7117"/>
<path d="M23.5615 40.762C23.5615 40.762 96.9912 94.3642 98.6592 95.4263C102.975 98.1843 106.566 98.4293 109.002 94.6642C110.572 92.237 108.589 87.8053 105.964 84.1238C103.336 80.4474 84.7299 57.9586 78.9101 54.7423C73.0903 51.5259 23.5563 40.76 23.5563 40.76L23.5615 40.762Z" fill="#FFFAF3"/>
<path d="M51.2266 98.5295C51.2266 98.5295 63.512 112.915 75.2421 117.371C77.8794 118.372 83.784 121.24 85.5344 117.571C87.2848 113.903 51.2266 98.5295 51.2266 98.5295Z" fill="#FFFAF3"/>
<path d="M87.5523 63.1435C87.5523 63.1435 105.339 84.8923 149.719 93.3676C194.094 101.841 87.5523 63.1435 87.5523 63.1435Z" fill="#FFFAF3"/>
<path d="M152.004 107.646L129.653 120.608C129.653 120.608 132.642 130.683 139.777 137.191C140.909 138.222 145.494 142.356 152.397 148.627L155.485 143.49L160.399 151.725L156.834 152.663C163.483 158.712 171.664 166.164 180.694 174.391L181.853 173.784L184.812 176.586L183.644 177.077C191.687 184.406 200.332 192.284 209.114 200.286L209.8 199.481L212.43 201.819L211.585 202.54C220.278 210.46 229.069 218.471 237.512 226.172L239.611 225.553L241.603 227.815L240.115 228.536C248.883 236.526 257.222 244.128 264.647 250.889L266.153 250.544L268.436 252.917L267.389 253.388C279.63 264.537 289.001 273.072 293.044 276.733L294.659 276.227L297.414 278.392L296.107 279.372C300.777 282.67 317.626 291.122 339.87 274.852L151.996 107.637L152.004 107.646Z" fill="#FFFAF3"/>
</g>
<path d="M82.6454 124.141L82.7438 123.036L107.212 123.085L114.476 129.725L82.6474 124.136L82.6454 124.141ZM106.777 124.199L89.208 124.163L110.903 127.975L106.775 124.205L106.777 124.199Z" fill="black"/>
<path d="M114.497 127.947L88.5356 99.4028L89.2809 98.5847L120.269 121.634L114.497 127.947ZM93.2204 102.896L114.495 126.291L118.611 121.784L93.2152 102.894L93.2204 102.896Z" fill="black"/>
<path d="M122.12 121.367L114.857 114.727L112.611 90.3629L113.704 90.165L122.12 121.367ZM115.921 114.197L120.049 117.967L114.311 96.6991L115.921 114.197Z" fill="black"/>
<path d="M270.239 274.559C270.239 274.559 269.046 273.642 268.411 273.228C268.411 273.228 266.906 277.097 270.102 279.34C272.657 281.138 275.629 280.333 277.636 279.797C279.643 279.262 294.093 276.054 294.093 276.054C294.093 276.054 295.383 277.234 296.844 278.23C297.304 278.649 297.127 274.962 294.012 272.256C290.239 268.978 284.855 271.165 281.169 271.86C278.636 272.338 270.239 274.559 270.239 274.559Z" fill="#B76C08"/>
<mask id="mask1_5624_7295" style="mask-type:luminance" maskUnits="userSpaceOnUse" x="268" y="270" width="30" height="11">
<path d="M270.239 274.559C270.239 274.559 269.046 273.642 268.411 273.228C268.411 273.228 266.906 277.097 270.102 279.34C272.657 281.138 275.629 280.333 277.636 279.797C279.643 279.262 294.093 276.054 294.093 276.054C294.093 276.054 295.383 277.234 296.844 278.23C297.304 278.649 297.127 274.962 294.012 272.256C290.239 268.978 284.855 271.165 281.169 271.86C278.636 272.338 270.239 274.559 270.239 274.559Z" fill="white"/>
</mask>
<g mask="url(#mask1_5624_7295)">
<path d="M284.178 194.714L275.026 330.001L309.226 342.323L318.343 198.304L284.178 194.714Z" fill="#D69C47"/>
<path d="M282.944 279.159C282.944 279.159 276.141 280.599 272.729 278.41C269.316 276.221 268.956 273.626 268.503 271.888C268.045 270.149 261.831 282.985 261.831 282.985C261.831 282.985 270.995 290.042 272.833 288.729C274.671 287.415 282.947 279.166 282.947 279.166L282.944 279.159Z" fill="#96580C"/>
<path d="M285.227 270.062C285.227 270.062 290.227 271.532 292.743 273.214C294.481 274.374 296.285 276.238 296.9 278.614L305.852 276.217L294.81 263.809L285.229 270.056L285.227 270.062Z" fill="white"/>
</g>
<path d="M242.391 249.102C242.391 249.102 241.198 248.185 240.564 247.771C240.564 247.771 239.058 251.64 242.254 253.883C244.809 255.681 247.782 254.876 249.788 254.34C251.795 253.805 261.066 251.445 265.723 250.797L268.572 253.231C268.572 253.231 269.274 249.503 266.159 246.797C262.386 243.519 257.002 245.706 253.316 246.401C250.783 246.879 242.386 249.1 242.386 249.1L242.391 249.102Z" fill="#B76C08"/>
<mask id="mask2_5624_7295" style="mask-type:luminance" maskUnits="userSpaceOnUse" x="240" y="244" width="29" height="11">
<path d="M242.592 248.994C242.592 248.994 241.399 248.077 240.765 247.663C240.765 247.663 239.26 251.532 242.455 253.775C245.01 255.573 247.983 254.768 249.99 254.232C252.002 253.699 261.267 251.337 265.924 250.689L268.773 253.123C268.773 253.123 269.475 249.395 266.36 246.689C262.587 243.411 257.203 245.598 253.517 246.293C250.984 246.771 242.587 248.992 242.587 248.992L242.592 248.994Z" fill="white"/>
</mask>
<g mask="url(#mask2_5624_7295)">
<path d="M257.105 244.572C257.105 244.572 262.136 245.84 264.595 247.607C266.567 249.029 267.7 250.465 268.779 253.125L277.731 250.727L266.688 238.319L257.107 244.567L257.105 244.572Z" fill="white"/>
<path d="M254.736 253.695C254.736 253.695 247.933 255.135 244.52 252.947C241.108 250.758 240.748 248.163 240.295 246.425C239.842 244.688 233.622 257.521 233.622 257.521C233.622 257.521 242.787 264.579 244.625 263.266C246.463 261.952 254.739 253.703 254.739 253.703L254.736 253.695Z" fill="#96580C"/>
</g>
<path d="M215.095 224.152C215.095 224.152 213.902 223.235 213.267 222.821C213.267 222.821 211.762 226.69 214.958 228.933C217.513 230.731 220.485 229.926 222.492 229.39C224.504 228.857 233.77 226.495 238.427 225.847L241.276 228.281C241.276 228.281 241.977 224.553 238.863 221.847C235.09 218.569 229.706 220.756 226.02 221.451C223.487 221.929 215.09 224.15 215.09 224.15L215.095 224.152Z" fill="#B76C08"/>
<mask id="mask3_5624_7295" style="mask-type:luminance" maskUnits="userSpaceOnUse" x="212" y="220" width="30" height="11">
<path d="M215.095 224.152C215.095 224.152 213.902 223.235 213.267 222.821C213.267 222.821 211.762 226.69 214.958 228.933C217.513 230.731 220.485 229.926 222.492 229.39C224.504 228.857 233.77 226.495 238.427 225.847L241.276 228.281C241.276 228.281 241.977 224.553 238.863 221.847C235.09 218.569 229.706 220.756 226.02 221.451C223.487 221.929 215.09 224.15 215.09 224.15L215.095 224.152Z" fill="white"/>
</mask>
<g mask="url(#mask3_5624_7295)">
<path d="M216.703 123.505L211.808 275.825L221.405 278.797L225.797 124.275L216.703 123.505Z" fill="#D69C47"/>
<path d="M227.775 228.486C227.775 228.486 220.972 229.926 217.56 227.738C214.147 225.549 213.788 222.954 213.334 221.216C212.876 219.477 206.662 232.312 206.662 232.312C206.662 232.312 215.826 239.37 217.664 238.057C219.502 236.743 227.778 228.494 227.778 228.494L227.775 228.486Z" fill="#96580C"/>
<path d="M229.692 219.774C229.692 219.774 234.486 220.583 237.028 222.227C238.911 223.442 240.57 225.251 241.364 228.332L250.315 225.935L239.273 213.527L229.692 219.774Z" fill="white"/>
</g>
<path d="M186.324 197.851C186.324 197.851 185.131 196.933 184.496 196.52C184.496 196.52 182.991 200.388 186.187 202.632C188.742 204.429 191.714 203.624 193.721 203.089C195.733 202.555 204.999 200.194 209.655 199.546L212.505 201.979C212.505 201.979 213.206 198.252 210.092 195.545C206.319 192.267 200.935 194.454 197.248 195.149C194.716 195.627 186.319 197.849 186.319 197.849L186.324 197.851Z" fill="#B76C08"/>
<mask id="mask4_5624_7295" style="mask-type:luminance" maskUnits="userSpaceOnUse" x="184" y="193" width="29" height="11">
<path d="M186.324 197.851C186.324 197.851 185.131 196.933 184.496 196.52C184.496 196.52 182.991 200.388 186.187 202.632C188.742 204.429 191.714 203.624 193.721 203.089C195.733 202.555 204.999 200.194 209.655 199.546L212.505 201.979C212.505 201.979 213.206 198.252 210.092 195.545C206.319 192.267 200.935 194.454 197.248 195.149C194.716 195.627 186.319 197.849 186.319 197.849L186.324 197.851Z" fill="white"/>
</mask>
<g mask="url(#mask4_5624_7295)">
<path d="M185.491 115.668L183.163 268.296L202.075 271.455L204.058 112.667L185.491 115.668Z" fill="#D69C47"/>
<path d="M198.334 201.882C198.334 201.882 191.531 203.322 188.119 201.133C184.706 198.944 184.346 196.349 183.893 194.612C183.44 192.874 177.221 205.708 177.221 205.708C177.221 205.708 186.385 212.766 188.223 211.452C190.061 210.139 198.337 201.889 198.337 201.889L198.334 201.882Z" fill="#96580C"/>
<path d="M200.696 193.375C200.696 193.375 206.265 194.651 208.809 196.29C210.583 197.434 211.967 199.965 212.37 201.928L221.322 199.53L210.279 187.122L200.698 193.37L200.696 193.375Z" fill="white"/>
</g>
<path d="M131.365 147.615C131.365 147.615 130.171 146.697 129.537 146.284C129.537 146.284 128.032 150.152 131.227 152.396C133.782 154.194 136.755 153.388 138.762 152.853C140.769 152.317 150.039 149.958 154.696 149.31L157.546 151.743C157.546 151.743 158.247 148.016 155.132 145.309C151.36 142.031 145.976 144.218 142.289 144.913C139.756 145.391 131.359 147.613 131.359 147.613L131.365 147.615Z" fill="#B76C08"/>
<mask id="mask5_5624_7295" style="mask-type:luminance" maskUnits="userSpaceOnUse" x="129" y="143" width="29" height="11">
<path d="M131.365 147.615C131.365 147.615 130.171 146.697 129.537 146.284C129.537 146.284 128.032 150.152 131.227 152.396C133.782 154.194 136.755 153.388 138.762 152.853C140.769 152.317 150.039 149.958 154.696 149.31L157.546 151.743C157.546 151.743 158.247 148.016 155.132 145.309C151.36 142.031 145.976 144.218 142.289 144.913C139.756 145.391 131.359 147.613 131.359 147.613L131.365 147.615Z" fill="white"/>
</mask>
<g mask="url(#mask5_5624_7295)">
<path d="M145.877 143.192C145.877 143.192 150.828 144.418 153.292 146.175C155.796 147.966 157.075 149.457 157.551 151.745L166.503 149.348L155.46 136.94L145.879 143.187L145.877 143.192Z" fill="white"/>
<path d="M144.113 153.135C144.113 153.135 137.31 154.575 133.898 152.386C130.485 150.197 130.125 147.602 129.672 145.865C129.219 144.127 123 156.961 123 156.961C123 156.961 132.164 164.019 134.002 162.705C135.84 161.392 144.116 153.142 144.116 153.142L144.113 153.135Z" fill="#96580C"/>
</g>
<path d="M158.661 172.565C158.661 172.565 157.468 171.647 156.834 171.234C156.834 171.234 155.328 175.102 158.524 177.346C161.079 179.144 164.052 178.338 166.064 177.805C168.076 177.271 177.341 174.91 181.998 174.262L184.847 176.695C184.847 176.695 185.549 172.968 182.434 170.261C178.662 166.983 173.277 169.17 169.591 169.865C167.058 170.343 158.661 172.565 158.661 172.565Z" fill="#B76C08"/>
<mask id="mask6_5624_7295" style="mask-type:luminance" maskUnits="userSpaceOnUse" x="156" y="168" width="29" height="11">
<path d="M158.676 172.541C158.676 172.541 157.483 171.623 156.848 171.21C156.848 171.21 155.343 175.079 158.539 177.322C161.094 179.12 164.066 178.314 166.073 177.779C168.085 177.245 177.351 174.884 182.008 174.236L184.857 176.669C184.857 176.669 185.559 172.942 182.444 170.235C178.671 166.957 173.287 169.144 169.601 169.839C167.068 170.318 158.671 172.539 158.671 172.539L158.676 172.541Z" fill="white"/>
</mask>
<g mask="url(#mask6_5624_7295)">
<path d="M173.189 168.119C173.189 168.119 178.632 169.037 181.317 171.229C183.348 172.888 184.527 175.127 184.858 176.669L193.81 174.272L182.767 161.864L173.186 168.111L173.189 168.119Z" fill="white"/>
<path d="M171.195 177.724C171.195 177.724 164.392 179.164 160.98 176.975C157.567 174.786 157.208 172.191 156.755 170.454C156.296 168.714 150.082 181.55 150.082 181.55C150.082 181.55 159.246 188.608 161.084 187.294C162.923 185.981 171.198 177.731 171.198 177.731L171.195 177.724Z" fill="#96580C"/>
</g>
<path d="M87.5516 63.1433C87.5516 63.1433 100.841 73.6012 115.167 80.8279C118.899 82.7095 122.893 84.3994 126.769 85.8713C137.849 90.0794 147.94 92.5016 147.94 92.5016C147.94 92.5016 140.828 92.6397 137.373 93.4464C130.78 94.9778 125.395 101.117 125.589 109.303C125.837 120.028 136.177 132.407 144.778 140.162C145.452 140.769 146.755 141.948 148.6 143.625C150.124 143.466 151.656 143.524 153.071 144.061C153.799 144.338 154.492 144.738 155.142 145.3C158.256 148.007 157.555 151.735 157.555 151.735L156.999 151.256C162.174 155.965 168.665 161.882 175.992 168.558C177.488 168.412 178.985 168.481 180.374 169.008C181.103 169.285 181.796 169.685 182.445 170.247C185.385 172.804 184.921 176.265 184.86 176.646C190.846 182.104 197.204 187.9 203.715 193.843C205.189 193.706 206.667 193.78 208.035 194.299C208.763 194.576 209.457 194.976 210.106 195.538C212.947 198.01 212.611 201.323 212.53 201.881C219.209 207.977 225.955 214.129 232.542 220.136C233.997 220.004 235.456 220.082 236.803 220.594C237.531 220.87 238.224 221.271 238.874 221.833C241.64 224.234 241.393 227.438 241.305 228.125C247.843 234.09 254.116 239.812 259.885 245.074C261.325 244.949 262.764 245.031 264.096 245.537C264.824 245.813 265.517 246.213 266.167 246.776C268.873 249.131 268.694 252.253 268.602 253.027C276.944 260.636 283.658 266.763 287.777 270.524C289.203 270.405 290.624 270.487 291.946 270.988C292.674 271.265 293.367 271.665 294.017 272.227C296.817 274.666 297.242 277.887 296.961 278.203C299.207 279.639 301.446 280.734 303.413 281.48C304.682 281.962 305.839 282.301 306.806 282.496C311.521 283.435 321.007 283.627 334.89 277.698C334.89 277.698 333.965 319.077 366.521 351.977C368.37 353.846 371.15 357.027 371.15 357.027C371.15 357.027 367.739 354.35 365.809 352.754C355.489 344.228 344.857 338.541 334.911 334.764C309.74 325.203 288.994 327.907 288.994 327.907C293.656 313.547 292.611 304.121 291.257 299.506C290.239 296.042 287.072 290.262 282.062 285.68C281.701 285.347 279.554 283.383 276.038 280.166C274.622 280.462 272.981 280.613 271.405 280.014C270.963 279.846 270.525 279.62 270.097 279.321C266.902 277.077 268.407 273.209 268.407 273.209C268.431 273.224 268.46 273.241 268.487 273.263C262.95 268.19 256.011 261.84 248.225 254.711C246.795 255.013 245.14 255.17 243.554 254.567C243.111 254.399 242.673 254.173 242.245 253.874C239.05 251.631 240.555 247.762 240.555 247.762C240.641 247.818 240.735 247.884 240.834 247.951C234.528 242.175 227.825 236.035 220.971 229.759C219.534 230.064 217.863 230.233 216.255 229.622C215.813 229.454 215.375 229.229 214.947 228.929C211.752 226.686 213.257 222.817 213.257 222.817C213.404 222.915 213.589 223.039 213.776 223.175C206.577 216.584 199.309 209.925 192.25 203.452C190.803 203.766 189.111 203.944 187.482 203.326C187.04 203.158 186.602 202.932 186.174 202.633C182.979 200.389 184.484 196.521 184.484 196.521C184.714 196.667 185.018 196.884 185.311 197.102C177.971 190.38 170.97 183.959 164.638 178.156C163.178 178.476 161.461 178.67 159.812 178.043C159.37 177.875 158.932 177.65 158.504 177.35C155.309 175.107 156.814 171.238 156.814 171.238C157.148 171.454 157.637 171.813 158.027 172.104C148.611 163.468 141.27 156.734 137.42 153.188C135.943 153.52 134.191 153.729 132.516 153.093C132.074 152.925 131.636 152.7 131.208 152.4C128.013 150.157 129.518 146.288 129.518 146.288C129.585 146.331 129.66 146.384 129.74 146.438C124.741 142.456 118.894 138.67 113.109 136.473C109.468 135.09 105.855 134.337 102.491 134.559C94.3203 135.104 88.6894 141.013 87.756 147.718C87.2657 151.234 87.7601 158.332 87.7601 158.332C87.7601 158.332 81.7169 140.424 73.196 126.736C64.7146 113.116 53.1074 100.815 53.1074 100.815C61.517 107.979 71.6101 114.676 78.4036 117.256C81.8108 118.55 84.3907 118.81 85.5121 117.581C87.8727 115.001 85.0278 110.707 81.8421 106.777C78.6596 102.854 31.2546 47.0053 31.2546 47.0053L28.5128 43.7557L31.9704 46.2177C31.9704 46.2177 91.8413 88.4264 96.0326 91.2445C97.9485 92.5316 99.931 93.737 101.746 94.4265C103.91 95.2484 105.837 95.3314 107.121 93.9261C110.492 90.2366 99.3648 74.7607 87.5196 63.1491M295.52 277.28C294.667 276.611 294.061 276.06 294.061 276.06C294.061 276.06 294.01 276.07 293.924 276.091C294.449 276.511 294.979 276.902 295.513 277.284M88.5394 60.5424C87.4834 60.1414 86.2481 60.4162 85.4629 61.3084C84.4872 62.4199 84.5465 64.0972 85.6064 65.1306C91.0363 70.4547 96.265 76.5595 99.9516 81.8822C104.315 88.1819 105.06 91.2805 104.986 92.1334C104.465 92.4236 103.177 91.976 102.766 91.8199C101.029 91.16 98.9959 89.8522 97.6145 88.9287C93.4933 86.1611 34.199 44.3619 33.6036 43.9393L30.1564 41.4813C29.9596 41.3411 29.7459 41.2301 29.5274 41.1471C28.487 40.752 27.2804 41.0139 26.4934 41.8638C25.5421 42.8953 25.5036 44.4699 26.4121 45.5411L29.154 48.7907C29.6361 49.3548 76.579 104.665 79.7025 108.523C83.7597 113.529 83.7452 115.118 83.5557 115.57C83.2032 115.621 82.0431 115.65 79.411 114.651C73.2053 112.294 63.3663 105.884 54.9242 98.6959C54.6777 98.4832 54.3989 98.3238 54.1076 98.2132C53.0881 97.8259 51.8966 98.0638 51.1031 98.8993C50.0833 99.9703 50.0827 101.649 51.0968 102.724C51.2115 102.845 62.6207 114.994 70.8459 128.206C79.0912 141.445 85.0785 159.046 85.1364 159.222C85.411 160.035 86.0304 160.645 86.7847 160.932C87.2581 161.111 87.786 161.163 88.3205 161.057C89.6932 160.78 90.6448 159.529 90.549 158.135C90.4176 156.24 90.1529 150.747 90.5261 148.103C91.2049 143.26 95.2981 137.827 102.694 137.332C105.442 137.15 108.625 137.734 112.136 139.067C117.515 141.11 122.671 144.521 126.452 147.386C126.218 149.648 126.744 152.651 129.624 154.673C130.222 155.091 130.864 155.436 131.541 155.693C133.346 156.379 135.118 156.367 136.566 156.173C140.065 159.389 145.843 164.69 153.788 171.981C153.457 174.278 153.877 177.497 156.919 179.629C157.516 180.046 158.159 180.391 158.835 180.648C160.614 181.324 162.352 181.323 163.779 181.139C169.264 186.163 175.218 191.626 181.45 197.332C181.138 199.625 181.574 202.802 184.587 204.916C185.184 205.334 185.827 205.679 186.503 205.936C188.261 206.604 189.98 206.608 191.385 206.433L210.213 223.685C209.914 225.976 210.369 229.119 213.358 231.218C213.955 231.636 214.598 231.981 215.274 232.238C217.016 232.899 218.708 232.911 220.1 232.743L237.504 248.68C237.214 250.963 237.69 254.084 240.654 256.168C241.251 256.586 241.894 256.931 242.57 257.188C244.297 257.844 245.975 257.862 247.352 257.7L265.351 274.185C265.074 276.467 265.559 279.561 268.505 281.632C269.102 282.05 269.745 282.395 270.421 282.652C272.133 283.302 273.796 283.327 275.158 283.171C278.082 285.847 279.857 287.474 280.188 287.778C284.619 291.83 287.65 297.124 288.592 300.333C289.514 303.468 291.136 312.346 286.352 327.088C286.056 327.993 286.249 328.989 286.856 329.726C287.167 330.1 287.565 330.382 288.008 330.55C288.45 330.718 288.895 330.768 289.352 330.709C289.552 330.684 309.771 328.239 333.923 337.412C344.837 341.557 354.97 347.459 364.035 354.95C365.97 356.547 369.289 359.153 369.431 359.267C369.656 359.442 369.905 359.584 370.16 359.681C371.185 360.07 372.379 359.827 373.165 358.995C374.155 357.954 374.184 356.328 373.242 355.25C373.126 355.117 370.381 351.985 368.494 350.072C352.107 333.509 344.595 314.704 341.18 301.836C337.483 287.921 337.66 277.911 337.662 277.811C337.682 276.866 337.224 275.972 336.443 275.443C336.263 275.321 336.068 275.223 335.87 275.148C335.204 274.895 334.457 274.903 333.788 275.191C319.537 281.277 310.545 280.457 307.341 279.818C306.489 279.649 305.473 279.346 304.391 278.935C302.841 278.347 301.237 277.571 299.687 276.667C299.334 274.777 298.183 272.227 295.834 270.186C294.97 269.435 293.99 268.849 292.929 268.446C291.681 267.971 290.322 267.741 288.8 267.752C284.805 264.104 278.774 258.605 271.415 251.888C271.337 250.025 270.715 247.104 267.989 244.736C267.126 243.985 266.146 243.399 265.085 242.996C263.821 242.516 262.449 242.286 260.903 242.3L244.122 226.993C244.03 224.666 243.104 221.886 240.693 219.786C239.829 219.035 238.85 218.449 237.788 218.046C236.514 217.562 235.12 217.33 233.559 217.35L215.354 200.746C215.29 198.894 214.702 195.897 211.927 193.486C211.064 192.735 210.084 192.149 209.018 191.744C207.728 191.254 206.309 191.025 204.723 191.047C198.86 185.702 193.136 180.48 187.698 175.522C187.634 173.212 186.73 170.345 184.261 168.193C183.397 167.442 182.418 166.856 181.351 166.451C180.041 165.953 178.604 165.723 176.99 165.759C170.725 160.046 165.092 154.913 160.407 150.651C160.363 148.51 159.595 145.533 156.963 143.248C156.099 142.497 155.12 141.911 154.053 141.506C152.716 140.998 151.25 140.769 149.589 140.817C148.199 139.556 147.194 138.645 146.632 138.134C137.94 130.303 128.578 118.611 128.36 109.278C128.187 101.868 133.236 97.3034 137.996 96.1947C140.596 95.587 146.093 95.3594 147.99 95.3178C149.387 95.2892 150.548 94.2241 150.7 92.8356C150.837 91.5662 150.092 90.3784 148.927 89.9358C148.817 89.8944 148.706 89.8581 148.586 89.8302C148.488 89.805 138.523 87.3951 127.75 83.3035C123.531 81.7013 119.72 80.0454 116.413 78.3786C102.497 71.3554 89.3954 61.0937 89.2624 60.9896C89.0339 60.8076 88.7876 60.6724 88.5275 60.5736L88.5394 60.5424Z" fill="black"/>
<path d="M271.215 280.561C270.731 280.377 270.254 280.13 269.785 279.797C266.274 277.333 267.882 273.069 267.898 273.027L268.141 272.388L268.719 272.762C269.206 273.078 269.988 273.667 270.367 273.954C271.836 273.565 278.776 271.749 281.078 271.313C281.714 271.192 282.4 271.03 283.128 270.854C286.658 270.004 291.054 268.948 294.385 271.838C297.025 274.132 297.551 276.695 297.386 277.507C297.3 277.921 297.051 278.059 296.908 278.106C296.698 278.174 296.478 278.127 296.294 277.985C295.305 277.312 294.703 276.798 294.395 276.526C292.307 276.995 279.602 279.854 277.783 280.335C276.022 280.803 273.568 281.449 271.217 280.556L271.215 280.561ZM268.735 274.131C268.5 275.25 268.369 277.444 270.421 278.89C272.747 280.524 275.46 279.804 277.446 279.279C279.492 278.734 293.833 275.515 294.437 275.381L294.743 275.313L294.961 275.539C294.961 275.539 295.351 275.937 296.225 276.584C296.017 275.69 295.337 274.158 293.647 272.682C290.752 270.166 286.835 271.107 283.382 271.939C282.642 272.116 281.934 272.287 281.274 272.412C278.793 272.88 270.464 275.079 270.383 275.102L270.118 275.174L269.901 275.009C269.901 275.009 269.299 274.542 268.738 274.138L268.735 274.131Z" fill="black"/>
<path d="M243.367 255.104C242.884 254.92 242.406 254.673 241.937 254.341C238.427 251.876 240.034 247.612 240.05 247.571L240.293 246.931L240.871 247.305C241.358 247.621 242.141 248.21 242.52 248.497C243.989 248.108 250.928 246.292 253.225 245.855C253.861 245.733 254.547 245.571 255.275 245.395C258.806 244.546 263.203 243.484 266.532 246.379C269.767 249.191 270.375 253.374 270.403 253.551L270.602 255.002L266.827 251.776C262.194 252.439 251.945 254.35 249.933 254.883C248.174 255.346 245.724 255.999 243.367 255.104ZM240.887 248.674C240.652 249.793 240.521 251.987 242.573 253.433C244.899 255.067 247.618 254.349 249.603 253.824C251.72 253.265 262.392 251.276 266.923 250.646L267.174 250.611L268.885 252.076C268.431 250.701 267.523 248.72 265.804 247.228C262.914 244.713 258.992 245.652 255.54 246.484C254.798 246.666 254.092 246.832 253.432 246.957C250.95 247.425 242.621 249.624 242.541 249.647L242.276 249.719L242.059 249.554C242.059 249.554 241.456 249.087 240.89 248.681L240.887 248.674Z" fill="black"/>
<path d="M216.066 230.152C215.582 229.968 215.105 229.721 214.636 229.388C211.125 226.924 212.733 222.66 212.749 222.618L212.992 221.979L213.57 222.353C214.057 222.669 214.839 223.258 215.219 223.544C216.687 223.156 223.627 221.339 225.924 220.902C226.56 220.781 227.246 220.619 227.974 220.443C231.504 219.593 235.9 218.537 239.23 221.427C242.505 224.277 242.399 227.94 242.395 228.093L242.351 229.243L238.819 226.223C234.071 226.925 224.526 229.425 222.634 229.926C220.873 230.394 218.419 231.04 216.068 230.147L216.066 230.152ZM213.586 223.722C213.351 224.841 213.22 227.035 215.272 228.481C217.593 230.113 220.312 229.395 222.297 228.87C224.287 228.346 234.197 225.747 238.91 225.091L239.162 225.055L241.135 226.739C240.883 225.554 240.227 223.769 238.505 222.27C235.615 219.756 231.693 220.695 228.241 221.526C227.499 221.709 226.793 221.875 226.132 221.999C223.651 222.468 215.322 224.667 215.242 224.69L214.976 224.762L214.76 224.596C214.76 224.596 214.157 224.129 213.591 223.724L213.586 223.722Z" fill="black"/>
<path d="M187.3 203.852C186.817 203.668 186.339 203.422 185.87 203.089C182.36 200.625 183.968 196.36 183.983 196.319L184.226 195.679L184.804 196.053C185.291 196.369 186.074 196.958 186.453 197.245C187.922 196.856 194.862 195.04 197.158 194.603C197.794 194.481 198.48 194.319 199.215 194.14C202.746 193.291 207.141 192.234 210.472 195.124C213.724 197.954 213.958 202.15 213.963 202.324L214.025 203.634L210.22 200.284C205.438 200.98 195.814 203.11 193.875 203.623C192.116 204.086 189.661 204.737 187.31 203.844L187.3 203.852ZM184.82 197.422C184.586 198.541 184.454 200.736 186.506 202.182C188.832 203.815 191.551 203.098 193.531 202.57C195.57 202.029 205.583 199.814 210.309 199.157L210.561 199.122L212.6 200.914C212.267 199.549 211.501 197.508 209.732 195.974C206.837 193.458 202.92 194.398 199.468 195.23C198.721 195.41 198.02 195.579 197.36 195.703C194.878 196.171 186.549 198.371 186.469 198.394L186.204 198.466L185.987 198.3C185.987 198.3 185.384 197.833 184.818 197.428L184.82 197.422Z" fill="black"/>
<path d="M132.336 153.614C131.852 153.431 131.375 153.184 130.906 152.851C127.444 150.417 128.248 146.639 128.284 146.48L128.461 145.702L129.129 146.135C129.646 146.468 131.338 147.575 131.978 147.99C133.407 147.408 139.878 144.806 142.194 144.365C142.83 144.243 143.516 144.081 144.251 143.902C147.782 143.053 152.177 141.996 155.508 144.886C158.779 147.729 158.727 151.721 158.723 151.887L158.695 153.043L154.693 149.695C150.321 150.344 142.143 152.524 139.427 153.248L138.911 153.385C137.15 153.853 134.696 154.499 132.345 153.606L132.336 153.614ZM129.287 147.57C129.274 148.654 129.574 150.559 131.542 151.944C133.868 153.577 136.582 152.858 138.567 152.332L139.13 152.183C141.918 151.438 150.401 149.178 154.776 148.566L155.021 148.534L157.465 150.576C157.226 149.294 156.564 147.293 154.77 145.731C151.875 143.214 147.963 144.157 144.505 144.987C143.758 145.167 143.057 145.336 142.397 145.46C139.953 145.924 132.205 149.101 132.128 149.131L131.86 149.243L131.616 149.085C131.616 149.085 130.251 148.197 129.292 147.572L129.287 147.57Z" fill="black"/>
<path d="M159.632 178.565C159.149 178.381 158.671 178.134 158.202 177.801C154.687 175.335 156.227 171.295 156.243 171.253L156.484 170.619L157.062 170.993C157.592 171.337 158.849 172.446 159.408 172.95C160.927 172.318 167.199 169.754 169.488 169.32C170.124 169.199 170.81 169.037 171.545 168.857C175.076 168.008 179.471 166.951 182.802 169.841C186.095 172.705 185.733 176.448 185.719 176.61L185.607 177.656L182.147 174.7C177.443 175.395 168.069 177.852 166.21 178.343C164.451 178.806 162.001 179.458 159.645 178.563L159.632 178.565ZM157.079 172.405C156.88 173.478 156.841 175.492 158.838 176.894C161.166 178.522 163.883 177.81 165.87 177.279C168.591 176.557 177.677 174.198 182.235 173.56L182.486 173.525L184.57 175.31C184.42 174.122 183.879 172.256 182.072 170.683C179.176 168.167 175.259 169.107 171.807 169.939C171.06 170.119 170.359 170.288 169.699 170.412C167.254 170.877 159.592 174.079 159.515 174.109L159.189 174.247L158.927 174.011C158.561 173.676 157.715 172.926 157.079 172.405Z" fill="black"/>
<path d="M312.695 303.6C303.479 313.683 313.928 323.235 313.928 323.235C313.34 323.261 332.707 302.94 332.707 302.94C332.707 302.94 321.909 293.523 312.695 303.6ZM314.352 318.2C314.352 318.2 308.764 313.089 315.365 305.864C321.973 298.636 327.79 303.631 327.79 303.631C327.79 303.631 313.987 318.269 314.352 318.2Z" fill="#64E2FF"/>
</svg>
