<svg width="400" height="400" viewBox="0 0 400 400" fill="none" xmlns="http://www.w3.org/2000/svg">
<path d="M111.255 109.678C110.728 108.435 110.6 91.4722 110.6 91.4722C110.6 91.4722 129.821 93.9113 128.855 94.7613C127.889 95.6113 111.251 109.682 111.251 109.682L111.255 109.678Z" fill="#70787A" stroke="black" stroke-width="5.73" stroke-linecap="round" stroke-linejoin="round"/>
<path d="M109.226 124.042L106.597 113.84C106.597 113.84 111.601 106.591 119.264 100.424C126.922 94.2523 133.261 89.8163 133.261 89.8163L142.295 93.2862L109.229 124.047L109.226 124.042Z" fill="#70787A" stroke="black" stroke-width="5.73" stroke-linecap="round" stroke-linejoin="round"/>
<path d="M106.43 125.935C106.43 125.935 156.983 162.831 196.23 211.975C225.972 249.214 264.428 310.177 264.428 310.177L297.842 280.538C297.842 280.538 235.275 223.725 219.655 205.595C179.25 158.697 143.759 91.3959 143.759 91.3959C143.759 91.3959 133.604 99.5479 124.263 108.332C114.922 117.116 106.434 125.939 106.434 125.939L106.43 125.935Z" fill="#6F7877"/>
<path d="M161.699 168.485C176.611 183.96 187.049 196.07 197.816 208.113C222.589 235.832 261.567 296.099 261.567 296.099L263.033 304.556L279.355 325.653L275.183 329.323L260.29 306.574L259.675 301.995C259.675 301.995 226.759 243.881 201.527 217.14C190.297 205.239 176.835 190.231 158.813 171.857" fill="white"/>
<path d="M125.359 108.021C125.359 108.021 163.369 163.739 208.836 212.926C254.306 262.11 285.358 294.912 285.358 294.912L298.842 281.071C298.842 281.071 254.468 244.799 217.273 204.184C180.082 163.572 143.268 93.4056 143.268 93.4056L125.362 108.025L125.359 108.021Z" fill="#636363"/>
<path d="M137.824 98.3453C137.824 98.3453 168.633 158.449 213.979 207.735C259.325 257.021 295.797 285.721 295.797 285.721L299.659 280.345C299.659 280.345 255.76 243.39 218.867 202.775C177.728 157.489 144.412 92.2847 144.412 92.2847L137.828 98.3417L137.824 98.3453Z" fill="#414242"/>
<path d="M128.182 141.187C114.143 129.534 107.977 125.313 107.977 125.313L106.864 112.064L111.416 107.155L111.652 93.5081L114.539 104.33L109.344 110.987L112.013 123.29C112.013 123.29 118.463 125.404 129.634 136.977" fill="white"/>
<path d="M159.314 116.61C150.553 103.448 143.938 91.2738 143.756 91.3843C143.756 91.3843 133.601 99.5363 124.26 108.32C114.919 117.104 106.431 125.928 106.431 125.928C105.857 126.067 114.665 131.937 126.718 141.643" stroke="black" stroke-width="5.73" stroke-linecap="round" stroke-linejoin="round"/>
<path d="M159.702 171.913C175.465 187.981 187.146 200.753 198.417 214.046C229.238 250.4 264.425 310.165 264.425 310.165L298.16 278.25C298.16 278.25 230.895 216.978 215.276 198.848C202.078 183.529 191.26 168.004 180.587 151.03" stroke="black" stroke-width="5.73" stroke-linecap="round" stroke-linejoin="round"/>
<path d="M259.572 306.475L274.408 329.273C274.408 329.273 289.323 317.859 298.905 308.289C308.483 298.723 317.494 290.608 317.494 290.608L295.879 272.633C295.879 272.633 290.286 280.02 279.488 289.52C268.031 299.599 259.576 306.471 259.576 306.471L259.572 306.475Z" fill="#6F7779" stroke="black" stroke-width="5.79" stroke-linecap="round" stroke-linejoin="round"/>
<path d="M281.471 308.631C287.47 312.898 296.742 308.822 297.816 301.581C298.113 299.562 297.619 297.493 296.724 295.685C295.937 294.097 293.468 295.301 294.251 296.885C295.035 298.469 295.396 300.167 294.994 301.797C294.592 303.427 293.685 304.662 292.433 305.685C289.773 307.853 285.888 308.402 282.976 306.331C281.538 305.308 280.029 307.604 281.471 308.631Z" fill="#111111"/>
<path d="M285.13 318.407L310.391 294.533L292.711 279.042L270.031 300.005" fill="#606060"/>
<path d="M286.502 284.783L305.118 299.732L314.749 290.699L296.119 274.96L288.968 282.614" fill="#414242"/>
<path d="M295.29 296.15C299.147 292.105 303.208 288.267 306.722 283.906C307.19 283.322 306.904 282.369 306.326 281.988C305.648 281.544 304.88 281.804 304.408 282.384C301.051 286.55 297.151 290.203 293.466 294.069C292.951 294.608 292.818 295.427 293.341 296.022C293.804 296.547 294.775 296.689 295.294 296.147L295.29 296.15Z" fill="#72DDFF"/>
<path d="M259.572 306.474L263.154 304.456L277.176 326.207L274.404 329.277L259.572 306.474Z" fill="white"/>
<path d="M284.257 307.527C283.433 306.109 283.08 304.575 283.398 302.947C283.688 301.467 284.434 300 285.306 298.766C287.019 296.327 291.151 295.195 293.816 296.479C294.463 296.792 295.295 296.254 295.503 295.634C295.753 294.875 295.308 294.263 294.657 293.946C291.74 292.539 287.863 293.455 285.288 295.175C282.697 296.909 280.97 300.285 280.655 303.359C280.464 305.221 280.921 307.085 281.856 308.694C282.216 309.316 282.958 309.645 283.64 309.311C284.254 309.015 284.622 308.153 284.257 307.527Z" fill="#111111"/>
<path d="M268.891 320.099C273.612 316.605 278.189 312.93 282.621 309.074C283.982 307.891 282.133 305.781 280.768 306.968C276.34 310.821 271.759 314.499 267.038 317.993C266.429 318.443 266.442 319.435 266.911 319.969C267.448 320.58 268.278 320.545 268.887 320.095L268.891 320.099Z" fill="#72DDFF"/>
<path d="M280.47 308.113C286.668 312.435 296.113 307.912 297.318 300.648C297.659 298.599 297.206 296.502 296.313 294.648C295.529 293.022 293.004 294.253 293.793 295.875C294.582 297.498 294.868 299.225 294.433 300.849C293.997 302.473 293.027 303.8 291.718 304.872C289.037 307.066 285.033 307.871 282.012 305.766C280.533 304.737 278.991 307.076 280.474 308.109L280.47 308.113Z" fill="#72DDFF"/>
<path d="M282.751 307.469C281.933 306.001 281.697 304.43 282.1 302.849C282.525 301.156 283.401 299.51 284.47 298.132C285.538 296.755 287.154 295.885 288.75 295.4C290.345 294.914 292.07 294.731 293.528 295.37C294.222 295.677 295.08 295.152 295.298 294.48C295.554 293.702 295.106 293.014 294.408 292.71C291.298 291.343 287.258 292.538 284.579 294.328C281.718 296.236 279.714 299.778 279.192 303.155C278.899 305.063 279.292 307.019 280.226 308.7C281.102 310.274 283.626 309.051 282.747 307.472L282.751 307.469Z" fill="#72DDFF"/>
<path d="M107.981 122.628L106.594 113.836C106.594 113.836 111.598 106.587 119.26 100.42C126.919 94.2483 133.258 89.8123 133.258 89.8123L141.196 92.9908" stroke="black" stroke-width="5.73" stroke-linecap="round" stroke-linejoin="round"/>
<path d="M110.984 107.463C110.457 106.22 110.607 91.4726 110.607 91.4726C110.607 91.4726 127.927 92.9812 126.965 93.8277" stroke="black" stroke-width="5.73" stroke-linecap="round" stroke-linejoin="round"/>
<path d="M259.572 306.475L274.408 329.273C274.408 329.273 287.48 319.179 297.419 309.991C308.513 299.736 317.49 290.612 317.49 290.612L295.875 272.636C295.875 272.636 290.987 278.665 279.484 289.523C268.387 299.996 259.572 306.475 259.572 306.475Z" stroke="black" stroke-width="5.79" stroke-linecap="round" stroke-linejoin="round"/>
<path d="M134.085 97.2819L127.618 95.9716L133.853 91.6053L138.938 93.5712L134.085 97.2819Z" fill="#414242"/>
<path d="M124.282 106.185L134.085 97.2819L127.618 95.9716L118.976 103.015L124.282 106.185Z" fill="#606060"/>
<path d="M122.113 96.619L112.057 93.1524L124.167 94.8122L122.113 96.619Z" fill="#414242"/>
<path d="M112.056 93.1525L116.978 100.01L122.113 96.6191L112.056 93.1525Z" fill="#606060"/>
<path d="M198.923 150.978C210.536 151.461 225.786 156.935 248.61 155.065C271.434 153.194 292.272 130.308 292.272 130.308C292.272 130.308 282.779 127.278 278.647 116.118C274.52 104.954 263.974 70.9797 253.328 57.5826C242.682 44.1854 223.373 38.4101 209.17 33.2627C194.967 28.1154 192.044 17.0322 192.044 17.0322C192.044 17.0322 184.976 27.4458 179.829 48.1383C176.239 62.5705 181.192 92.0203 176.557 102.925C171.922 113.83 158.984 117.001 158.984 117.001L136.822 123.137C136.822 123.137 129.771 148.073 111.46 155.073C93.1495 162.074 67.0169 158.888 49.8503 157.488C32.6836 156.089 18.5173 164.564 18.5173 164.564C18.5173 164.564 32.3476 166.051 36.3244 179.629C40.3011 193.206 39.408 221.301 55.2559 238.663C71.0962 256.025 106.996 258.02 114.052 266.041C121.108 274.061 121.927 280.168 121.927 280.168C121.927 280.168 136.424 275.949 145.756 248.39C155.089 220.831 147.651 199.512 154.568 186.026C154.568 186.026 158.477 167.203 168.354 158.026C176.856 150.131 183.729 150.346 198.912 150.973L198.923 150.978Z" fill="#454B4B"/>
<path d="M166.272 135.238L264.998 151.104C264.998 151.104 277.041 143.435 282.22 138.879C287.399 134.323 292.279 130.309 292.279 130.309C292.279 130.309 278.032 127.948 274.163 125.922C270.294 123.897 266.82 119.588 266.82 119.588L175.987 104.983C175.987 104.983 169.199 113.881 161.239 116.703C153.283 119.528 136.837 123.138 136.837 123.138L133.891 131.088L166.275 135.242L166.272 135.238Z" fill="#70787A"/>
<path d="M35.629 171.713L153.178 179.84C153.178 179.84 165.286 155.068 179.228 151.229C189.275 148.465 217.435 151.209 244.073 155.076C261.703 157.638 271.824 147.164 271.824 147.164L133.887 131.084L130.672 136.07C130.672 136.07 129.055 137.077 126.723 141.918C125.333 144.805 124.279 148.572 117.733 151.843C101.291 160.054 76.6757 159.506 62.241 157.983C47.8067 156.453 37.5936 155.197 31.6553 158.148C25.717 161.099 18.8862 163.687 18.8862 163.687C18.8862 163.687 24.5158 165.562 28.306 167.922C32.0961 170.282 33.2195 171.567 33.2195 171.567" fill="#454B4B"/>
<path d="M160.404 147.579C163.191 145.128 163.443 140.86 160.968 138.047C158.494 135.233 154.228 134.94 151.442 137.391C148.655 139.843 148.403 144.111 150.878 146.924C153.353 149.737 157.618 150.03 160.404 147.579Z" stroke="black" stroke-width="3.81" stroke-miterlimit="10"/>
<path d="M144.68 129.535C139.713 134.657 137.357 142.389 139.921 149.233C142.385 155.808 149.393 160.35 156.418 159.14C160.33 158.467 163.98 156.274 166.824 153.564C169.668 150.854 171.869 147.34 172.564 143.386C173.717 136.821 170.255 129.511 164.38 126.339C158.506 123.166 150.452 124.177 145.447 128.817C144.806 129.409 144.223 130.066 143.686 130.753L146.166 131.949C146.338 131.533 146.513 131.121 146.685 130.704C146.973 130.013 146.477 129.173 145.801 128.95C145.043 128.699 144.336 129.135 144.047 129.834C143.875 130.25 143.7 130.662 143.528 131.078C143.267 131.71 143.663 132.487 144.249 132.754C144.905 133.059 145.571 132.838 146.008 132.275C149.498 127.813 156.006 126.097 161.299 127.98C166.548 129.846 170.05 135.4 170.003 140.906C169.944 147.663 164.385 153.465 158.328 155.76C155.4 156.866 152.277 156.838 149.416 155.583C146.907 154.483 144.733 152.437 143.386 150.065C139.98 144.083 141.891 136.391 146.519 131.617C147.042 131.078 147.168 130.251 146.645 129.656C146.179 129.127 145.211 128.989 144.684 129.531L144.68 129.535Z" fill="#72DDFF"/>
<path d="M157.043 142.397L157.242 141.906C157.306 141.734 157.325 141.56 157.298 141.383C157.302 141.2 157.26 141.029 157.171 140.863C157.095 140.687 156.974 140.542 156.825 140.429C156.696 140.299 156.542 140.205 156.358 140.151L156.012 140.083C155.769 140.068 155.537 140.114 155.316 140.222L155.005 140.431C154.815 140.598 154.684 140.8 154.604 141.035L154.405 141.526C154.34 141.697 154.322 141.872 154.348 142.049C154.344 142.232 154.387 142.402 154.475 142.568C154.552 142.745 154.672 142.89 154.822 143.002C154.951 143.133 155.105 143.226 155.288 143.28L155.635 143.348C155.878 143.364 156.11 143.317 156.331 143.209L156.642 143C156.832 142.833 156.963 142.632 157.043 142.397Z" fill="#72DDFF"/>
<path d="M57.4971 201.307C55.2371 194.768 53.6021 188.002 50.8305 181.648C46.0263 170.627 36.2635 159.889 23.0941 162.739C21.6508 163.055 21.1046 164.317 21.2608 165.514C21.4524 165.56 21.643 165.622 21.8403 165.7C23.357 166.323 24.7384 167.095 26.0212 167.974C27.5057 168.088 28.8968 168.349 30.2023 168.757C30.0051 169.095 29.8713 169.456 29.8014 169.833C35.465 173.801 37.7178 180.511 38.2225 187.174C38.2623 187.684 38.2094 188.154 38.0865 188.585C44.694 210.419 44.4495 237.499 66.6251 247.315C66.904 247.607 67.2699 247.852 67.7318 248.026C76.6677 251.475 85.5945 254.945 94.5219 258.408C103.959 258.253 111.407 264.036 117.708 270.67C118.505 271.51 118.787 272.425 118.715 273.298C119.106 274.052 119.448 274.848 119.726 275.694C121.064 279.766 124.661 278.875 123.868 274.761C121.33 261.596 112.944 251.754 101.932 245.27C95.7295 241.619 89.1773 238.54 83.1415 234.606C77.1093 230.676 71.7022 225.622 67.3498 219.884C63.0641 214.238 59.8126 207.99 57.4975 201.299L57.4971 201.307Z" fill="#D0D4D5"/>
<path d="M109.489 250.24L73.7903 246.117L85.7387 254.539C85.7387 254.539 96.44 257.646 108.869 262.073C121.298 266.5 122.827 280.524 122.827 280.524C122.827 280.524 128.667 277.395 120.411 262.648C116.429 255.537 109.496 250.24 109.496 250.24L109.489 250.24Z" fill="#889092"/>
<path d="M247.52 51.9995C237.603 41.8194 224.77 38.4499 211.953 34.1924C207.943 32.406 204.497 30.5603 200.465 28.8297C198.986 26.4803 196.193 25.4088 195.202 22.5947C194.407 20.3463 191.226 21.2949 191.673 23.605C192.238 26.5141 193.148 29.1704 194.323 31.6225C193.457 33.0512 193.579 35.0162 195.558 36.1157C196.261 36.5078 196.978 36.8742 197.703 37.2258C198.465 38.2627 199.279 39.2609 200.133 40.2235C200.382 40.7431 200.764 41.2101 201.299 41.5496C201.347 41.5793 201.395 41.6091 201.442 41.6388C212.537 53.1495 229.879 59.9741 240.31 71.7246C251.516 84.3488 255.396 102.723 265.132 116.26C265.31 117 265.488 117.733 265.663 118.469C266.097 120.267 267.49 120.97 268.886 120.869C272.094 124.336 275.89 127.322 280.591 129.569C282.994 130.718 290.381 129.562 284.526 125.425C265.867 112.237 270.815 82.4816 257.458 64.0542C254.818 60.4097 255.123 57.9035 251.76 55.2543C251.85 54.2719 248.229 52.724 247.524 51.9959L247.52 51.9995Z" fill="#D0D4D5"/>
<path d="M265.738 118.718C267.02 117.591 279.232 121.298 279.232 121.298L266.381 80.8168C266.381 80.8168 251.749 79.6976 243.63 78.873" fill="#869091"/>
<path d="M180.087 66.8227L262.622 73.316C262.622 73.316 256.76 60.8315 255.028 59.5075C253.297 58.1835 251.885 56.5785 251.885 56.5785L180.448 51.7032L180.088 66.8151" fill="#454B4B"/>
<path d="M237.887 71.3673L262.623 73.3159C262.623 73.3159 256.76 60.8314 255.029 59.5074C253.297 58.1834 251.885 56.5784 251.885 56.5784L216.106 54.1407" fill="#869091"/>
<path d="M216.105 54.1407L179.194 51.2071C179.194 51.2071 181.963 39.1679 184.074 33.9693C186.184 28.7706 192.048 17.0286 192.048 17.0286C192.048 17.0286 191.812 27.5779 196.877 35.2347C201.942 42.8916 216.101 54.1443 216.101 54.1443L216.105 54.1407Z" fill="#70787A"/>
<path d="M52.1323 181.929L37.4669 180.911C37.4669 180.911 37.5973 183.644 38.4544 189.15C39.3116 194.657 43.584 213.095 43.584 213.095C43.584 213.095 53.0658 214.212 64.88 215.666C64.88 215.666 58.2279 199.122 57.349 194.552C56.47 189.982 52.1358 181.933 52.1358 181.933L52.1323 181.929Z" fill="#889092"/>
<path d="M237.056 70.4558L177.702 64.2169L178.32 75.3626L244.899 79.8431L237.056 70.4558Z" fill="#70787A"/>
<path d="M22.9895 161.569C17.0512 164.52 18.8907 163.676 18.8907 163.676C18.8907 163.676 24.5203 165.551 28.3105 167.911C32.1006 170.27 33.224 171.556 33.224 171.556L35.633 171.71L45.2164 172.372C45.2164 172.372 42.6599 167.844 38.4602 165.565C34.2605 163.286 22.9936 161.565 22.9936 161.565L22.9895 161.569Z" fill="#889092"/>
<path d="M64.0311 215.997L150.908 222.665C150.908 222.665 150.585 234.64 148.304 242.491C146.024 250.341 143.999 254.21 143.999 254.21L108.561 249.055C108.561 249.055 90.2688 239.129 83.1374 234.609C76.0059 230.09 70.1276 224.827 67.9043 221.354C65.6809 217.881 64.0235 215.997 64.0235 215.997L64.0311 215.997Z" fill="#70787A"/>
<path d="M50.8304 181.648L152.583 189.451L156.654 177.937L45.2124 172.376C45.2124 172.376 47.5745 174.515 48.7629 176.811C49.9513 179.108 50.8304 181.648 50.8304 181.648Z" fill="#70787A"/>
<path d="M169.983 111.928C169.983 111.928 178.437 108.249 180.454 101.046C182.472 93.8419 182.31 78.9523 183.539 63.255C184.89 45.9669 186.018 41.869 188.035 34.6653C189.396 29.7964 191.278 22.21 191.278 22.21C191.278 22.21 183.463 33.2587 181.344 45.5646C179.225 57.8705 181.19 86.2058 176.383 98.7823C171.58 111.363 169.987 111.925 169.987 111.925L169.983 111.928Z" fill="white"/>
<path d="M120.654 150.313C120.654 150.313 128.578 147.931 134.986 138.12C137.752 133.879 140.165 123.122 140.165 123.122L136.069 124.638C136.069 124.638 135.232 130.803 131.266 137.219C127.304 143.63 120.654 150.313 120.654 150.313Z" fill="white"/>
<path d="M24.0357 163.704C24.0357 163.704 39.6854 169.852 42.1108 188.774C44.5321 207.699 49.9277 228.082 59.639 237.181C69.3504 246.279 101.493 253.803 109.269 258.924C116.796 263.885 122.697 277.791 122.697 277.791C122.697 277.791 115.823 262.217 103.559 259.917C91.295 257.618 69.1375 253.782 54.1012 237.986C39.0649 222.191 37.9204 183.367 34.2004 175.258C30.4805 167.149 24.0393 163.708 24.0393 163.708L24.0357 163.704Z" fill="white"/>
<path d="M198.923 150.978C210.536 151.461 225.786 156.935 248.61 155.065C271.434 153.194 292.272 130.308 292.272 130.308C292.272 130.308 282.779 127.278 278.647 116.118C274.52 104.954 263.974 70.9797 253.328 57.5826C242.682 44.1854 223.373 38.4101 209.17 33.2628C194.967 28.1154 192.044 17.0322 192.044 17.0322C192.044 17.0322 184.976 27.4457 179.829 48.1383C176.239 62.5705 181.192 92.0203 176.557 102.925C171.922 113.83 158.984 117.001 158.984 117.001L136.822 123.137C136.822 123.137 129.771 148.073 111.46 155.073C93.1495 162.074 67.0169 158.888 49.8503 157.488C32.6836 156.089 18.5173 164.564 18.5173 164.564C18.5173 164.564 32.3476 166.051 36.3244 179.629C40.3011 193.206 39.408 221.301 55.2559 238.663C71.0962 256.025 106.996 258.02 114.052 266.041C121.108 274.061 121.927 280.168 121.927 280.168C121.927 280.168 136.424 275.949 145.756 248.39C155.089 220.831 151.593 197.83 154.568 186.026C157.544 174.221 158.477 167.203 168.354 158.026C176.856 150.131 183.729 150.346 198.912 150.973L198.923 150.978Z" stroke="black" stroke-width="5.73" stroke-linecap="round" stroke-linejoin="round"/>
<path d="M159.956 147.07C162.743 144.618 162.995 140.35 160.52 137.537C158.045 134.724 153.78 134.431 150.994 136.882C148.207 139.333 147.955 143.601 150.43 146.414C152.904 149.228 157.17 149.521 159.956 147.07Z" stroke="#72DDFF" stroke-width="3.81" stroke-miterlimit="10"/>
<mask id="mask0_5624_7423" style="mask-type:luminance" maskUnits="userSpaceOnUse" x="140" y="121" width="39" height="16">
<path d="M140.731 132.17L178.631 136.22C178.631 136.22 168.294 122.537 162.002 121.955C155.709 121.374 148.895 123.288 145.469 125.964C142.044 128.641 140.731 132.17 140.731 132.17Z" fill="white"/>
</mask>
<g mask="url(#mask0_5624_7423)">
<path d="M144.833 129.708C139.947 134.752 137.604 142.393 140.13 149.136C142.558 155.613 149.442 160.113 156.371 158.916C160.244 158.248 163.851 156.079 166.671 153.39C169.491 150.701 171.649 147.261 172.332 143.375C173.473 136.886 170.061 129.674 164.249 126.54C158.323 123.342 150.519 124.433 145.592 128.998C144.967 129.576 144.4 130.219 143.872 130.891L145.941 131.889C146.113 131.473 146.288 131.061 146.459 130.644C147.032 129.273 144.835 128.545 144.263 129.916C144.091 130.332 143.916 130.745 143.744 131.161C143.208 132.443 145.053 133.129 145.813 132.159C149.366 127.614 155.976 125.851 161.374 127.772C166.727 129.675 170.284 135.323 170.238 140.929C170.182 147.762 164.567 153.656 158.437 155.973C155.461 157.099 152.268 157.089 149.348 155.807C146.776 154.677 144.563 152.601 143.18 150.174C139.723 144.101 141.672 136.297 146.366 131.451C147.395 130.387 145.874 128.642 144.837 129.712L144.833 129.708Z" fill="#A7E1EC"/>
</g>
</svg>
