<svg width="400" height="400" viewBox="0 0 400 400" fill="none" xmlns="http://www.w3.org/2000/svg">
<path d="M291.043 247.083L307.396 253.938C307.396 253.938 304.886 282.8 335.433 289.438C351.47 292.924 366.906 282.85 372.401 267.931C378.23 252.112 372.835 231.78 352.695 224.425C327.994 215.41 313.167 237.593 313.167 237.593L296.814 230.738L291.051 247.083H291.043Z" fill="#51FF21"/>
<path d="M214.771 186.106C215.13 184.655 254.191 135.361 254.191 135.361L188.678 281.824L199.052 221.548L214.771 186.106Z" fill="#ECA742"/>
<path d="M229.315 171.162C228.965 171.162 234.744 185.072 234.744 185.072L243.05 166.784L239.372 158.611L229.315 171.162Z" fill="#D4810B"/>
<path d="M216.998 185.989L223.319 210.682L209.651 241.512L204.547 217.337L216.998 185.989Z" fill="#D4810B"/>
<path d="M218.75 221.139L284.155 252.545C284.155 252.545 290.793 248.067 294.037 240.078C297.281 232.089 296.605 224.759 296.605 224.759L231.367 192.436L218.733 221.139H218.75Z" fill="#753C05" stroke="black" stroke-width="4.7" stroke-linecap="round" stroke-linejoin="round"/>
<path d="M304.644 253.312C304.644 253.312 307.213 255.297 306.929 256.148C306.646 256.998 306.362 273.235 319.23 282.575C329.779 290.23 344.298 293.891 359.634 284.752C378.005 273.802 372.918 251.144 372.918 251.144C372.918 251.144 370.675 263.953 365.571 269.941C360.468 275.929 350.244 284.21 333.448 279.698C313.509 274.344 314.593 250.444 314.593 250.444C314.593 250.444 295.221 241.671 294.37 241.387L289.55 248.509L294.954 249.068L304.636 253.312H304.644Z" fill="#3A9C0B"/>
<path d="M25.3862 110.936L218.299 185.572L201.562 220.572L25.3862 110.936Z" fill="#8B9FA6"/>
<path d="M196.05 178.142L205.815 215.11L217.415 186.623L196.05 178.142Z" fill="#B1C0C7"/>
<path d="M201.245 198.431L205.815 215.11L210.702 202.217L201.245 198.431Z" fill="#667980"/>
<path d="M177.503 186.956L182.19 210.048L159.107 195.596L155.646 176.499L177.503 186.956Z" fill="#667980"/>
<path d="M175.368 169.736L177.32 185.214L155.404 174.898L152.894 160.571L175.368 169.736Z" fill="#B1C0C7"/>
<path d="M149.458 174.014C149.458 174.765 152.802 191.201 152.802 191.201L148.308 188.716L145.464 172.029L149.458 174.014Z" fill="#667980"/>
<path d="M145.23 155.05C145.23 155.801 148.574 172.238 148.574 172.238L144.947 170.27L142.103 153.583L145.23 155.05Z" fill="#B1C0C7"/>
<path d="M138.233 155.809L144.571 184.53L112.94 166.4L107.478 143.083L138.233 155.809Z" fill="#B1C0C7"/>
<path d="M140.352 166.767L144.572 184.53L112.941 166.4L109.588 154.041L140.352 166.767Z" fill="#667980"/>
<path d="M82.127 133.193C82.4105 134.044 86.4384 149.396 86.4384 149.396L65.9237 137.213L63.6221 126.405" fill="#667980"/>
<path d="M82.3184 133.318C82.602 134.169 84.4366 141.474 84.4366 141.474L64.7058 132.301L63.8052 126.538" fill="#B1C0C7"/>
<path d="M215.781 191.727L248.062 152.59C248.062 152.59 251.164 145.327 250.597 146.186C250.03 147.045 218.825 184.396 218.825 184.396L215.781 191.735V191.727Z" fill="white"/>
<path d="M43.8827 119.817C43.5991 121.526 214.805 189.492 214.805 189.492L216.264 186.114L43.8827 119.825V119.817Z" fill="white"/>
<path d="M273.247 214.693C273.247 214.693 275.248 218.387 281.52 221.782C287.791 225.184 294.904 228.011 294.904 228.011L294.32 223.458L273.247 214.693Z" fill="white"/>
<path d="M305.453 235.383C305.453 235.383 304.602 237.376 306.028 239.077C307.454 240.778 313.717 242.755 313.717 242.755C313.717 242.755 324.208 229.921 338.718 228.461C353.229 227.002 364.629 235.224 364.629 235.224C364.629 235.224 355.197 218.179 336.433 222.774C317.67 227.377 314.559 236.484 314.559 236.484L305.453 235.366V235.383Z" fill="white"/>
<path d="M273.247 214.693L277.6 248.542L218.75 221.139L231.375 192.436L273.247 214.693Z" fill="#582D03"/>
<path d="M30.1143 114.913L209.993 201.926" stroke="black" stroke-width="2.35" stroke-linecap="round" stroke-linejoin="round"/>
<path d="M323.599 247.742C325.534 247.742 327.102 246.174 327.102 244.239C327.102 242.305 325.534 240.737 323.599 240.737C321.665 240.737 320.097 242.305 320.097 244.239C320.097 246.174 321.665 247.742 323.599 247.742Z" fill="#B8FEA5"/>
<path d="M352.979 276.687C354.913 276.687 356.481 275.119 356.481 273.185C356.481 271.251 354.913 269.682 352.979 269.682C351.044 269.682 349.476 271.251 349.476 273.185C349.476 275.119 351.044 276.687 352.979 276.687Z" fill="#B8FEA5"/>
<path d="M356.381 263.595C358.012 263.595 359.333 262.273 359.333 260.643C359.333 259.012 358.012 257.69 356.381 257.69C354.751 257.69 353.429 259.012 353.429 260.643C353.429 262.273 354.751 263.595 356.381 263.595Z" fill="#B8FEA5"/>
<path d="M330.921 273.585C332.073 273.585 333.006 272.652 333.006 271.5C333.006 270.349 332.073 269.416 330.921 269.416C329.77 269.416 328.836 270.349 328.836 271.5C328.836 272.652 329.77 273.585 330.921 273.585Z" fill="#B8FEA5"/>
<path d="M352.628 254.78C353.614 254.78 354.413 253.981 354.413 252.996C354.413 252.01 353.614 251.211 352.628 251.211C351.643 251.211 350.844 252.01 350.844 252.996C350.844 253.981 351.643 254.78 352.628 254.78Z" fill="#B8FEA5"/>
<path d="M329.996 268.123C330.981 268.123 331.78 267.324 331.78 266.338C331.78 265.353 330.981 264.554 329.996 264.554C329.01 264.554 328.211 265.353 328.211 266.338C328.211 267.324 329.01 268.123 329.996 268.123Z" fill="#B8FEA5"/>
<path d="M331.463 260.526C332.219 260.526 332.831 259.914 332.831 259.158C332.831 258.403 332.219 257.791 331.463 257.791C330.708 257.791 330.096 258.403 330.096 259.158C330.096 259.914 330.708 260.526 331.463 260.526Z" fill="#B8FEA5"/>
<path d="M201.562 220.572L25.3862 110.936L216.648 184.772" stroke="black" stroke-width="4.7" stroke-linecap="round" stroke-linejoin="round"/>
<path d="M218.75 221.139L284.155 252.545C284.155 252.545 290.793 248.067 294.037 240.078C297.281 232.089 296.605 224.759 296.605 224.759L231.367 192.436L218.733 221.139H218.75Z" stroke="black" stroke-width="4.7" stroke-linecap="round" stroke-linejoin="round"/>
<path d="M217.407 186.106C217.766 184.655 256.135 135.361 256.135 135.361L190.621 281.824L201.687 221.548L217.407 186.106Z" stroke="black" stroke-width="4.7" stroke-linecap="round" stroke-linejoin="round"/>
<path d="M291.043 247.083L307.396 253.938C307.396 253.938 304.886 282.8 335.433 289.438C351.47 292.924 366.906 282.85 372.401 267.931C378.23 252.112 372.835 231.78 352.695 224.425C327.994 215.41 313.167 237.593 313.167 237.593L296.814 230.738" stroke="black" stroke-width="4.7" stroke-linecap="round" stroke-linejoin="round"/>
<path d="M28.972 172.788C28.972 172.788 27.3125 177.216 27.154 181.478C26.9956 185.739 28.1381 192.961 30.9818 192.869C33.8255 192.778 34.2675 186.807 34.3425 182.795C34.4176 178.784 33.1416 172.021 32.8914 172.021C32.6413 172.021 28.9636 172.78 28.9636 172.78L28.972 172.788Z" fill="#3EFF44"/>
<path d="M30.5147 124.07C30.7732 126.071 30.6398 140.698 30.6398 140.698C30.6398 140.698 28.9635 171.696 28.8051 173.372C28.6467 175.048 28.3965 175.382 28.3965 175.382L34.676 179.376C34.676 179.376 34.1006 176.849 33.2583 173.922C32.416 170.995 32.8914 168.852 32.8914 168.852L34.2006 123.903C34.2006 123.903 30.2728 122.077 30.523 124.078L30.5147 124.07Z" fill="#10ED16"/>
<path d="M37.4701 132.743C37.4701 132.743 36.0607 137.763 36.3193 141.516C36.5778 145.268 37.5034 146.611 39.5883 146.186C41.6731 145.76 43.8413 143.25 43.5828 138.906C43.3243 134.561 41.9733 129.799 41.9733 129.799L37.4701 132.734V132.743Z" fill="#3EFF44"/>
<path d="M37.4781 135.086C37.5615 134.836 38.729 133.493 40.3969 132.743C42.0647 131.992 42.7319 131.484 42.7319 131.484L41.8646 118.449L31.8324 117.39L30.248 118.316C30.248 118.316 30.0645 144.468 30.3147 144.551C30.5649 144.635 33.075 145.877 33.075 145.877L33.4336 121.31L39.3628 120.125L38.0452 126.146L37.4781 134.669V135.086Z" fill="#11A006"/>
<path d="M38.045 127.814L42.3898 128.556C42.3898 128.556 42.1146 119.9 42.0228 118.399C41.9311 116.898 41.6809 115.022 40.7636 114.605C39.8463 114.188 37.086 112.612 34.9094 111.861C32.7329 111.111 29.5556 110.452 28.6383 111.211C27.7209 111.969 27.4708 113.22 28.4798 115.222C29.4889 117.223 30.2561 122.402 30.2561 123.653C30.2561 124.904 30.5146 125.571 30.5146 125.571L33.7753 127.147C33.7753 127.147 33.4584 124.712 35.5182 123.803C36.8525 123.211 37.6947 123.878 37.6947 125.137C37.6947 126.396 38.0367 127.806 38.0367 127.806L38.045 127.814Z" fill="#10770A"/>
<path d="M41.3141 116.506C41.3141 116.506 32.4828 110.002 29.9727 112.762C28.6301 114.238 31.4904 115.589 31.4904 121.81C31.4904 125.863 30.0144 168.81 30.0144 171.354C30.0227 175.632 28.7551 177.141 28.7718 184.655C28.7802 189.166 29.9393 190.092 30.0644 191.476C30.1895 192.861 29.956 192.627 29.956 192.627C29.956 192.627 28.113 191.185 27.3792 187.315C26.6453 183.446 26.662 181.795 27.2457 177.024C27.5877 174.248 28.505 171.003 28.505 171.003C28.505 171.003 29.8977 127.23 29.9143 123.611C29.9227 120.192 28.4716 116.189 28.0046 114.571C27.5376 112.954 27.3542 110.869 28.8636 110.635C30.373 110.402 32.9582 110.193 36.8943 112.27C40.8305 114.338 41.3141 116.506 41.3141 116.506Z" fill="white"/>
<path d="M36.4854 122.294C36.4854 122.294 38.4534 122.986 38.6953 125.646C38.9371 128.306 39.2957 134.319 39.0705 135.712C38.8454 137.104 37.9197 138.489 37.8113 141.382C37.7112 144.043 39.0956 145.777 39.0956 145.777C39.0956 145.777 36.2018 145.093 35.96 142.2C35.7182 139.306 36.6355 136.529 36.9857 134.794C37.336 133.06 36.9607 125.429 36.9607 125.079C36.9607 124.729 36.4937 122.302 36.4937 122.302L36.4854 122.294Z" fill="white"/>
<path d="M40.9555 115.464C41.6393 120.559 41.8144 125.704 41.4975 130.833C41.4475 131.592 42.6317 131.584 42.6734 130.833C42.9986 125.596 42.7901 120.351 42.0896 115.147C41.9895 114.396 40.8554 114.722 40.9555 115.464Z" fill="black"/>
<path d="M41.756 115.097C39.6045 112.62 36.6357 110.877 33.4251 110.21C31.924 109.893 30.0727 109.626 28.5883 110.152C26.9705 110.735 26.712 112.186 26.9705 113.712C27.0956 114.455 28.2297 114.138 28.1046 113.396C28.0045 112.795 27.9128 112.011 28.4215 111.561C28.9302 111.111 29.8058 111.061 30.473 111.061C31.7906 111.061 33.1082 111.277 34.3674 111.661C36.9109 112.437 39.1792 113.921 40.9221 115.922C41.4225 116.498 42.2481 115.664 41.756 115.088V115.097Z" fill="black"/>
<path d="M36.5024 134.986C36.2689 137.121 35.46 139.206 35.4683 141.366C35.4683 143.334 36.2105 145.685 38.2286 146.436C40.0549 147.12 42.1648 146.169 43.0988 144.518C44.0995 142.742 44.2079 140.473 43.9494 138.497C43.5908 135.828 42.6735 133.293 42.6985 130.575C42.6985 129.816 41.531 129.816 41.5226 130.575C41.4976 133.085 42.2231 135.436 42.6735 137.88C43.0487 139.94 43.1905 142.983 41.5894 144.61C40.7805 145.435 39.3461 145.769 38.312 145.177C37.2112 144.543 36.7776 143.142 36.6859 141.949C36.5024 139.606 37.4447 137.296 37.6949 134.986C37.7783 134.235 36.6025 134.244 36.5191 134.986H36.5024Z" fill="black"/>
<path d="M37.7033 135.019C37.9118 132.701 37.9618 130.366 37.845 128.039C37.7867 126.955 37.745 125.838 37.5615 124.762C37.4114 123.878 36.8944 123.178 35.9604 123.077C35.2098 122.994 35.2098 124.178 35.9604 124.253C36.6192 124.32 36.5358 126.155 36.5691 126.597C36.6442 127.514 36.6859 128.44 36.7109 129.365C36.7526 131.25 36.6859 133.135 36.5191 135.019C36.4524 135.77 37.6282 135.77 37.6949 135.019H37.7033Z" fill="black"/>
<path d="M35.702 122.761C34.2259 123.211 33.7506 124.795 33.442 126.146C33.0167 127.956 32.7999 129.807 32.7832 131.667C32.7749 132.426 33.9507 132.426 33.9591 131.667C33.9757 130.074 34.1426 128.49 34.4761 126.922C34.6763 125.963 34.9014 124.237 36.0189 123.895C36.7444 123.678 36.4359 122.536 35.702 122.761Z" fill="black"/>
<path d="M32.7329 131.4C32.416 144.101 32.2326 156.802 31.9157 169.494C31.899 170.253 33.0749 170.253 33.0915 169.494C33.4084 156.793 33.5919 144.093 33.9088 131.4C33.9255 130.641 32.7496 130.641 32.7329 131.4Z" fill="black"/>
<path d="M28.113 171.854C28.0629 173.305 27.6543 174.715 27.3291 176.124C26.9288 177.842 26.6035 179.576 26.4201 181.328C26.1032 184.355 26.2533 188.166 27.8711 190.843C28.4882 191.86 29.4473 193.044 30.6981 193.261C31.949 193.478 32.9497 192.636 33.5418 191.643C34.4091 190.192 34.7093 188.349 34.9512 186.698C35.218 184.863 35.2764 183.012 35.193 181.169C35.1096 179.326 34.9011 177.325 34.4008 175.457C33.8587 173.455 33.25 171.512 33.1082 169.427C33.0582 168.677 31.8823 168.668 31.9323 169.427C32.1241 172.254 33.2166 174.823 33.6836 177.583C34.2507 180.936 34.2507 184.563 33.5585 187.891C33.3 189.141 32.9831 191.176 31.7572 191.91C30.448 192.694 29.1971 190.859 28.6884 189.875C27.304 187.207 27.304 183.638 27.6793 180.727C28.0546 177.817 29.1971 174.84 29.3055 171.846C29.3305 171.087 28.1546 171.087 28.1296 171.846L28.113 171.854Z" fill="black"/>
<path d="M27.0453 113.671C27.1954 114.546 27.6124 115.397 27.9293 116.223C28.3963 117.432 28.8633 118.658 29.1718 119.917C29.9224 122.969 29.4804 126.338 29.4387 129.449C29.4303 130.208 30.6062 130.208 30.6145 129.449C30.6562 126.297 31.0649 122.927 30.356 119.825C30.0641 118.558 29.6055 117.323 29.1385 116.114C28.7965 115.23 28.3296 114.305 28.1711 113.362C28.046 112.62 26.9119 112.937 27.037 113.679L27.0453 113.671Z" fill="black"/>
<path d="M29.4472 129.365C29.4472 143.567 28.9135 157.752 28.1046 171.937C28.0629 172.696 29.2387 172.688 29.2804 171.937C30.081 157.761 30.6147 143.575 30.6231 129.365C30.6231 128.606 29.4472 128.606 29.4472 129.365Z" fill="black"/>
</svg>
