<svg width="400" height="400" viewBox="0 0 400 400" fill="none" xmlns="http://www.w3.org/2000/svg">
<mask id="mask0_7149_5442" style="mask-type:luminance" maskUnits="userSpaceOnUse" x="302" y="286" width="81" height="71">
<path d="M318.249 286.289C318.249 286.289 315.29 291.823 312.221 294.4C309.153 296.977 302.866 302.485 302.866 302.485L315.527 339.015L349.963 356.811L382.836 315.652L337.997 288.035L318.241 286.293L318.249 286.289Z" fill="white"/>
</mask>
<g mask="url(#mask0_7149_5442)">
<path d="M157.03 148.218L272.157 252.433L304.642 280.731L343.783 315.763L350.233 308.118C350.233 308.118 353.038 312.273 356.798 313.938C360.559 315.603 364.515 317.336 364.515 317.336L360.894 322.767C360.894 322.767 364.144 331.493 357.636 337.58C351.122 343.664 344.025 340.94 344.025 340.94C344.025 340.94 341.622 343.76 340.947 344.38C340.273 344.999 339.013 345.401 339.013 345.401C339.013 345.401 336.072 339.872 333.83 337.69C331.589 335.509 328.268 332.698 328.268 332.698L334.264 325.1L290.78 285.322L263.932 261.823L147.671 158.273L157.028 148.223L157.03 148.218Z" fill="#212418" stroke="black" stroke-width="6" stroke-linecap="round" stroke-linejoin="round"/>
<path d="M154.984 153.615L342.828 322.881C342.828 322.881 343.452 322.16 343.865 320.789C344.278 319.417 344.144 317.823 344.144 317.823L157.308 150.954L154.982 153.621L154.984 153.615Z" fill="#3E3B28"/>
<path d="M358.913 320.768C358.913 320.768 356.97 320.098 356.876 319.683C356.783 319.268 351.574 321.226 347.128 326.947C342.682 332.668 341.392 337.344 341.392 337.344C341.392 337.344 344.837 339.222 345.168 339.349C345.498 339.476 352.082 341.181 356.922 335.637C362.243 329.531 358.915 320.762 358.915 320.762L358.913 320.768Z" fill="#00CFFF"/>
<path d="M350.213 311.018L345.174 316.259C345.174 316.259 345.154 320 344.305 321.52C343.456 323.04 342.877 323.873 342.877 323.873L345.948 326.411C345.948 326.411 348.125 323.359 350.86 321.356C352.969 319.814 356.082 318.227 356.082 318.227L360.606 319.597L361.703 318.172C361.703 318.172 356.078 315.767 354.137 314.63C352.197 313.493 350.211 311.024 350.211 311.024L350.213 311.018Z" fill="#D3803A"/>
<path d="M335.335 325.783L330.726 332.472C330.726 332.472 334.185 335.317 335.974 337.344C337.762 339.37 339.626 343.177 339.626 343.177L342.237 340.329C342.237 340.329 340.495 338.788 340.439 338.179C340.382 337.569 342.082 332.975 343.145 330.816C344.207 328.657 346.497 326.034 346.272 326.011C346.047 325.988 344.463 324.501 344.463 324.501L343.46 323.769C343.46 323.769 341.45 325.975 339.632 326.149C337.814 326.324 335.341 325.785 335.341 325.785L335.335 325.783Z" fill="#72492A"/>
<path d="M334.192 325.502C334.522 325.629 340.403 328.392 343.643 323.573C346.878 318.753 344.48 314.804 344.48 314.804" stroke="black" stroke-width="4" stroke-linecap="round" stroke-linejoin="round"/>
<path d="M362.341 321.123L356.367 319.493C356.367 319.493 350.986 322.049 347.126 326.952C343.267 331.849 341.636 337.829 341.636 337.829L344.542 341.144" stroke="black" stroke-width="6" stroke-linecap="round" stroke-linejoin="round"/>
</g>
<path d="M166.426 153.371C166.482 152.912 167.897 149.226 167.897 149.226L163.171 138.233L181.379 131.081L200.163 154.228L194.959 159.601L202.122 167.06C202.122 167.06 199.859 172.956 200.178 173.079C200.498 173.201 206.353 180.278 206.353 180.278L204.182 188.143L166.42 153.369L166.426 153.371Z" fill="#D3803A" stroke="black" stroke-width="6" stroke-linecap="round" stroke-linejoin="round"/>
<path d="M34.406 46.8376C34.1889 46.5962 53.0247 63.631 53.0247 63.631C53.0247 63.631 62.1805 81.1477 64.7698 84.9421C67.3591 88.7364 75.5744 100.601 75.5744 100.601L65.2069 113.43C65.2069 113.43 50.3817 92.0243 44.9688 79.3643C39.5504 66.7022 34.0665 47.3268 34.0665 47.3268" fill="#D28F00"/>
<path d="M33.6672 43.9057L56.355 64.2777C56.355 64.2777 68.2339 68.2116 78.9943 73.4293C89.7546 78.647 95.1512 82.0777 95.1512 82.0777L109.086 68.0069C109.086 68.0069 87.7605 57.4757 74.7557 52.8188C50.2629 44.0493 33.6616 43.9036 33.6616 43.9036L33.6672 43.9057Z" fill="#FFCA1B"/>
<path d="M33.1035 43.1011C33.4566 43.894 56.7912 64.508 56.7912 64.508" stroke="black" stroke-width="6" stroke-linecap="round" stroke-linejoin="round"/>
<path d="M70.6602 51.6953L73.499 69.398L80.5219 73.0546L76.4587 54.1613L70.6602 51.6953Z" fill="white"/>
<path d="M89.2601 59.0684C89.2601 59.0684 91.7179 67.7178 92.1907 71.5089C92.6636 75.3 92.6035 79.8537 92.6035 79.8537L96.9423 79.8313C96.9423 79.8313 96.6903 71.0678 95.8474 67.615C95.0044 64.1623 94.5802 60.8703 94.5802 60.8703L89.2546 59.0663L89.2601 59.0684Z" fill="white"/>
<path d="M95.1483 82.0826L109.972 67.525" stroke="black" stroke-width="6" stroke-linecap="round" stroke-linejoin="round"/>
<path d="M57.4565 64.2389C57.4565 64.2389 73.3828 70.1942 81.731 74.7958C90.0846 79.3994 95.143 82.0807 95.143 82.0807C95.143 82.0807 107.438 98.6656 114.476 105.874C121.511 113.088 136.37 124.115 136.724 125.085C137.079 126.056 136.878 132.673 136.251 134.304C135.625 135.935 125.527 137.508 125.527 137.508C125.527 137.508 107.2 120.365 102.365 116.328C97.5279 112.296 77.5891 100.869 77.5891 100.869C77.5891 100.869 67.6677 86.6806 64.1396 81.2805C60.6061 75.8784 57.4433 64.2402 57.4433 64.2402L57.4565 64.2389Z" fill="#FFCA1B"/>
<path d="M67.4104 81.5053C67.4104 81.5053 69.6649 78.7611 71.342 76.2694C73.0191 73.7776 74.4339 70.7175 74.4339 70.7175L78.9707 72.6992C78.9707 72.6992 76.0056 78.5463 74.54 81.1129C73.0744 83.6794 69.2029 87.4908 69.2029 87.4908L67.4049 81.5032L67.4104 81.5053Z" fill="white"/>
<path d="M76.8165 97.1522L78.7063 101.007C78.7063 101.007 85.4172 97.3244 89.1563 93.2157C92.8988 89.1146 96.2116 81.7194 96.2116 81.7194L92.415 79.061C92.415 79.061 89.1771 86.2447 86.0999 89.8806C83.0228 93.5164 76.811 97.1501 76.811 97.1501L76.8165 97.1522Z" fill="white"/>
<path d="M94.8795 99.0222L100.362 111.715L107.658 114.035L111.219 109.138L109.055 103.496L94.8795 99.0222Z" fill="white"/>
<path d="M44.5574 80.2056C44.5574 80.2056 52.4179 81.0546 56.1772 81.2902C59.9366 81.5258 64.5221 80.8774 64.5221 80.8774L69.2102 87.4877C69.2102 87.4877 62.3703 87.7511 57.6072 87.6107C52.8442 87.4702 47.3726 87.298 47.3726 87.298L44.5595 80.2001L44.5574 80.2056Z" fill="#90531F"/>
<path d="M54.2442 97.6411C54.7919 98.0916 57.3153 102.189 57.3153 102.189C57.3153 102.189 64.2262 103.635 68.2732 103.747C72.3223 103.854 75.9561 103.807 75.9561 103.807L75.9189 98.2551C75.9189 98.2551 73.5672 100.001 66.7536 99.554C59.9454 99.1089 54.2421 97.6467 54.2421 97.6467L54.2442 97.6411Z" fill="#90531F"/>
<path d="M77.6026 100.867L65.2028 116.57" stroke="black" stroke-width="6" stroke-linecap="round" stroke-linejoin="round"/>
<path d="M108.859 71.036L108.39 71.5007L97.5529 82.2597C97.5529 82.2597 102.709 90.5162 108.461 97.6486C115.001 105.76 125.692 113.593 125.692 113.593C125.692 113.593 121.49 106.689 121.619 100.67C121.749 94.6513 121.957 92.0826 121.957 92.0826C121.957 92.0826 117.354 87.0473 113.871 81.5129C110.388 75.9785 109.187 71.004 108.867 71.0326L108.859 71.036Z" fill="#D28F00"/>
<path d="M104.852 94.057C105.56 94.0887 108.772 93.8739 113.63 91.889C118.489 89.904 121.244 87.1056 121.244 87.1056L124.78 91.301L123.897 94.6223C123.897 94.6223 120.59 96.9626 117.137 97.8055C113.684 98.6484 108.213 98.4762 108.213 98.4762L104.448 95.1094L104.85 94.0625L104.852 94.057Z" fill="#FFCA1B"/>
<path d="M113.957 104.278L122.832 103.108L126.929 115.029L113.957 104.278Z" fill="#FFCA1B"/>
<path d="M136.258 124.028C136.258 124.028 122.033 113.51 114.224 106.334C106.415 99.158 95.1456 82.0753 95.1456 82.0753C95.1456 82.0753 85.5234 76.1819 78.1457 72.4776C70.768 68.7733 55.0162 63.3843 55.0162 63.3843C55.0162 63.3843 60.765 75.9267 66.8791 84.6521C72.9932 93.3774 78.2226 101.542 78.2226 101.542C78.2226 101.542 96.2824 110.668 105.095 118.671C113.909 126.67 125.004 137.307 125.004 137.307" stroke="black" stroke-width="6" stroke-linecap="round" stroke-linejoin="round"/>
<path d="M33.1035 43.1013C33.1035 43.1013 49.0021 42.3767 75.705 53.0629C102.408 63.7491 109.978 67.5274 109.978 67.5274C109.978 67.5274 112.554 76.8733 116.289 82.0491C120.025 87.2193 124.053 91.6292 124.053 91.6292C124.053 91.6292 121.955 102.266 125.295 109.047C128.634 115.829 136.739 125.097 136.739 125.097C136.739 125.097 138.031 132.635 136.496 134.904C134.962 137.172 125.013 137.317 125.013 137.317C125.013 137.317 113.194 129.701 109.211 128.615C105.229 127.529 90.6025 128.957 90.6025 128.957C90.6025 128.957 83.8889 123.522 78.591 121.267C73.293 119.013 65.2086 116.573 65.2086 116.573C65.2086 116.573 50.9415 95.2611 45.5186 84.1587C40.0957 73.0563 29.8799 46.9211 33.1057 43.0957L33.1035 43.1013Z" stroke="black" stroke-width="6" stroke-linecap="round" stroke-linejoin="round"/>
<path d="M68.097 115.634C68.097 115.634 73.6465 116.986 80.7143 120.477C87.0162 123.591 90.9543 127.05 90.9543 127.05C90.9543 127.05 94.646 126.754 100.551 126.372C105.919 126.024 112.041 127.666 112.041 127.666C112.041 127.666 101.742 117.176 93.9585 112.323C86.169 107.469 78.0721 103.431 78.0721 103.431L68.1025 115.636L68.097 115.634Z" fill="#D28F00"/>
<path d="M173.487 159.217L177.056 152.736L175.069 145.329L180.38 143.138L187.408 152.841L184.798 159.329L191.508 167.342L188.543 173.815L173.487 159.217Z" fill="#72492A" stroke="black" stroke-width="4" stroke-linecap="round" stroke-linejoin="round"/>
<path d="M156.638 163.142C156.284 163.126 153.716 165.402 153.716 165.402L142.101 161.671L137.213 180.086L162.185 196.55L167.59 190.653L174.424 196.778L181.424 194.269C181.424 194.269 187.997 199.808 188.391 199.719C188.786 199.63 194.957 197.403 194.957 197.403L157.105 163.194" fill="#D3803A"/>
<path d="M156.638 163.142C156.284 163.126 153.716 165.402 153.716 165.402L142.101 161.671L137.213 180.086L162.185 196.55L167.59 190.653L174.424 196.778L181.424 194.269C181.424 194.269 187.997 199.808 188.391 199.719C188.786 199.63 194.957 197.403 194.957 197.403L157.105 163.194" stroke="black" stroke-width="6" stroke-linecap="round" stroke-linejoin="round"/>
<path d="M151.4 171.765L158.277 173.677L163.559 169.668L177.493 183.102L174.718 186.872L166.158 180.204L159.84 183.456L149.014 177.98L151.4 171.765Z" fill="#72492A" stroke="black" stroke-width="4" stroke-linecap="round" stroke-linejoin="round"/>
<path d="M158.947 147.542L274.074 251.756L306.559 280.055L345.7 315.087L352.15 307.442C352.15 307.442 354.955 311.597 358.715 313.262C362.476 314.927 366.432 316.66 366.432 316.66L362.811 322.091C362.811 322.091 366.061 330.817 359.553 336.903C353.039 342.988 345.942 340.264 345.942 340.264C345.942 340.264 343.539 343.083 342.864 343.703C342.19 344.323 340.93 344.724 340.93 344.724C340.93 344.724 337.989 339.196 335.747 337.014C333.506 334.833 330.185 332.022 330.185 332.022L336.181 324.424L292.697 284.646L265.849 261.147L149.588 157.597L158.945 147.547L158.947 147.542Z" fill="#D28F00" stroke="black" stroke-width="6" stroke-linecap="round" stroke-linejoin="round"/>
<path d="M144.767 106.671C146.093 106.081 156.027 101.973 156.027 101.973L167.593 105.091L171.291 115.532L161.884 119.405L153.176 126.626L150.084 134.681L158.964 147.104C158.964 147.104 154.411 151.52 152.909 153.144C151.408 154.767 148.665 157.893 148.665 157.893L137.084 150.812L130.698 152.545L123.216 160.015L119.361 173.498L109.49 171.694L104.759 161.079L107.813 147.952L124.804 135.768L135.984 135.875C135.984 135.875 134.542 125.864 134.764 125.286C134.986 124.707 144.762 106.682 144.762 106.682L144.767 106.671Z" fill="#D3803A" stroke="black" stroke-width="6" stroke-linecap="round" stroke-linejoin="round"/>
<path d="M138.756 137.332C138.756 137.332 144.421 144.298 146.289 145.622C149.397 147.82 152.793 150.287 152.793 150.287L148.721 154.932C148.721 154.932 139.092 148.827 138.052 148.504C137.013 148.181 130.152 150.509 130.152 150.509C130.152 150.509 121.723 158.337 121.482 158.965C121.241 159.593 118.099 170.613 118.099 170.613L113.804 169.893L119.005 154.303L133.648 144.992C133.792 145.472 131.489 142.678 130.35 139.156C129.808 137.488 133.384 138.153 133.384 138.153L138.759 137.327L138.756 137.332Z" fill="#6F4A2A"/>
<path d="M143.906 119.453L150.298 110.244L159.338 107.329C159.338 107.329 162.187 109.08 161.716 110.884C161.244 112.688 160.187 113.155 160.187 113.155L153.717 116.835L148.947 124.682L145.653 134.417L142.712 131.752L143.913 119.45L143.906 119.453Z" fill="#72492A" stroke="black" stroke-width="4" stroke-linecap="round" stroke-linejoin="round"/>
<path d="M133.253 142.085C132.532 142.25 122.36 145.824 122.36 145.824L113.813 153.764L112.184 162.602C112.184 162.602 114.193 164.252 115.446 163.854C116.698 163.456 120.585 155.043 120.585 155.043L129.118 148.855L136.62 145.35L133.255 142.079L133.253 142.085Z" fill="#72492A" stroke="black" stroke-width="4" stroke-linecap="round" stroke-linejoin="round"/>
<path d="M141.07 174.45C141.07 174.45 152.532 182.352 156.162 184.225C159.792 186.099 163.179 188.607 162.97 188.526C162.76 188.446 165.274 185.668 167.557 185.698C169.841 185.727 175.524 192.018 177.57 191.71C179.62 191.409 182.99 187.026 182.99 187.026L191.623 194.443L188.963 197.29L181.821 191.653L175.006 193.993C175.006 193.993 168.701 188.071 167.325 188.51C165.949 188.949 161.742 193.618 161.742 193.618L139.981 178.868L141.068 174.455L141.07 174.45Z" fill="#72492A"/>
<path d="M156.901 152.939L344.744 322.205C344.744 322.205 345.369 321.484 345.782 320.112C346.194 318.741 346.06 317.147 346.06 317.147L159.224 150.278L156.899 152.944L156.901 152.939Z" fill="#FFCA1B"/>
<path d="M172.23 161.657L167.915 162.806L189.84 182.552L194.307 181.499L172.23 161.657Z" fill="#FFDD55"/>
<path d="M224.774 209.022L220.458 210.171L230.033 218.723L234.533 217.53L224.774 209.022Z" fill="#FFDD55"/>
<path d="M235.426 218.828L231.111 219.977L233.564 221.887L238.41 220.834L235.426 218.828Z" fill="#FFDD55"/>
<path d="M196.347 183.641L191.229 185.003L193.94 187.147L199.238 185.898L196.347 183.641Z" fill="#D28F00"/>
<path d="M117.806 113.336L106.82 116.241L112.06 121.102L124.056 118.198L117.806 113.336Z" fill="#D28F00"/>
<path d="M125.936 119.839L113.813 122.617L115.581 124.448L128.146 121.607L125.936 119.839Z" fill="#D28F00"/>
<path d="M360.829 320.091C360.829 320.091 358.886 319.422 358.792 319.006C358.699 318.591 353.49 320.549 349.044 326.27C344.598 331.991 343.308 336.667 343.308 336.667C343.308 336.667 346.753 338.546 347.084 338.673C347.414 338.8 353.998 340.505 358.838 334.961C364.159 328.855 360.831 320.086 360.831 320.086L360.829 320.091Z" fill="#FFCA1B"/>
<path d="M352.136 310.345L347.096 315.585C347.096 315.585 347.076 319.326 346.227 320.846C345.378 322.366 344.799 323.199 344.799 323.199L347.871 325.738C347.871 325.738 350.047 322.685 352.782 320.682C354.891 319.14 358.004 317.553 358.004 317.553L362.529 318.923L363.626 317.499C363.626 317.499 358 315.093 356.06 313.956C354.121 312.814 352.134 310.35 352.134 310.35L352.136 310.345Z" fill="#D3803A"/>
<path d="M337.258 325.109L332.648 331.798C332.648 331.798 336.108 334.643 337.896 336.669C339.685 338.696 341.549 342.503 341.549 342.503L344.159 339.655C344.159 339.655 342.418 338.114 342.361 337.504C342.304 336.895 344.005 332.301 345.067 330.142C346.13 327.983 348.42 325.36 348.195 325.337C347.97 325.314 346.385 323.827 346.385 323.827L345.383 323.094C345.383 323.094 343.373 325.3 341.555 325.475C339.737 325.649 337.263 325.111 337.263 325.111L337.258 325.109Z" fill="#72492A"/>
<path d="M336.116 324.822C336.447 324.949 342.327 327.712 345.568 322.893C348.803 318.073 346.405 314.125 346.405 314.125" stroke="black" stroke-width="4" stroke-linecap="round" stroke-linejoin="round"/>
<path d="M364.257 320.447L358.283 318.817C358.283 318.817 352.902 321.373 349.042 326.276C345.183 331.173 343.552 337.153 343.552 337.153L346.458 340.468" stroke="black" stroke-width="4" stroke-linecap="round" stroke-linejoin="round"/>
<path d="M285.632 245.04L274.746 246.486L273.033 248.673L277.688 252.78L285.632 245.04Z" fill="#965B00" stroke="black" stroke-width="5" stroke-linecap="round" stroke-linejoin="round"/>
<path d="M339.312 240.345C338.743 239.755 333.958 231.216 330.382 230.214C326.81 229.214 324.505 228.586 324.505 228.586C324.505 228.586 325.12 232.423 324.264 234.607C323.408 236.791 306.949 264.739 306.949 264.739L299.72 266.793C299.72 266.793 294.822 273.882 295.86 274.131C296.897 274.381 306.571 283.277 306.571 283.277L339.315 240.34L339.312 240.345Z" fill="#FFDD55"/>
<path d="M337.314 240.734C337.314 240.734 333.716 243.423 332.58 245.341C331.212 247.654 330.559 249.723 330.559 249.723C330.559 249.723 317.107 267.666 316.644 268.904C315.157 272.893 307.536 285.712 307.536 285.712C307.536 285.712 314.515 293.422 315.311 292.279C316.323 290.826 315.415 290.839 320.512 281.839C327.457 269.578 340.745 247.594 340.824 247.128C340.956 246.32 341.075 240.527 339.614 238.295C338.153 236.062 337.316 240.742 337.316 240.742L337.314 240.734Z" fill="#D28F00"/>
<path d="M311.921 227.009C311.666 227.498 299.101 262.028 299.101 262.028C299.101 262.028 298.995 266.979 301.868 267.631C304.74 268.283 307.569 267.111 311.875 262.491C316.188 257.869 335.995 237.351 336.611 235.38C337.227 233.41 328.754 227.936 328.754 227.936L311.913 227.011L311.921 227.009Z" fill="#FFCA1B"/>
<path d="M337.787 253.436C338.378 252.867 341.734 247.602 341.734 247.602C341.734 247.602 337.129 229.072 330.322 227.54C323.515 226.007 312.938 227.181 304.923 227.944C296.908 228.706 295.388 229.37 294.313 230.858C293.238 232.345 288.037 242.786 288.037 242.786C288.037 242.786 300.299 238.4 305.358 240.475C310.417 242.55 324.686 247.71 328.813 249.885C332.943 252.055 335.623 256.983 335.623 256.983L337.782 253.433L337.787 253.436Z" stroke="black" stroke-width="5" stroke-linecap="round" stroke-linejoin="round"/>
<path d="M269.734 264.789C268.682 265.111 258.593 270.932 257.661 271.033C256.729 271.133 255.949 275.401 258.217 277.766C260.485 280.131 264.869 281.266 264.869 281.266L285.778 279.377L269.734 264.789Z" fill="#D28F00" stroke="black" stroke-width="5" stroke-linecap="round" stroke-linejoin="round"/>
<path d="M288.654 280.597C288.654 280.597 266.588 282.458 267.395 282.591C268.203 282.724 270.284 287.769 272.84 290.346C275.21 292.743 278.22 296.45 279.16 295.775C280.1 295.1 298.337 294.476 298.337 294.476C298.337 294.476 288.77 280.366 288.654 280.597Z" fill="#D28F00" stroke="black" stroke-width="5" stroke-linecap="round" stroke-linejoin="round"/>
<path d="M306.076 301.479C306.076 301.479 301.137 304.74 296.636 303.835C292.135 302.931 286.195 298.634 286.195 298.634L297.277 295.387L306.081 301.482L306.076 301.479Z" fill="#D28F00" stroke="black" stroke-width="5" stroke-linecap="round" stroke-linejoin="round"/>
<path d="M347.388 220.706C347.388 220.706 345.373 222.869 341.282 224.52C337.188 226.176 331.915 228.964 331.915 228.964C331.915 228.964 337.807 235.578 339.113 239.777C340.42 243.977 341.602 248.409 342.534 248.309C343.466 248.209 356.846 234.459 356.846 234.459L347.391 220.701L347.388 220.706Z" fill="#986801"/>
<path d="M329.594 212.223L325.938 226.405L338.809 232.001L350.394 221.11C350.394 221.11 342.982 215.161 339.406 214.159C335.834 213.159 329.592 212.215 329.592 212.215L329.594 212.223Z" fill="#FFCA1B"/>
<path d="M298.34 215.41L303.628 228.735L326.493 227.58L331.474 210.873C331.474 210.873 318.246 211.527 311.63 211.853C305.013 212.179 298.343 215.405 298.343 215.405L298.34 215.41Z" fill="#CA8A01"/>
<path d="M304.943 230.256C304.943 230.256 306.294 233.524 305.654 235.061C305.013 236.598 292.905 251.525 291.772 253.996C290.644 256.47 285.269 265.059 285.269 265.059L278.628 256.627L295.776 229.527L304.935 230.258L304.943 230.256Z" fill="#D28F00"/>
<path d="M324.041 227.411C323.542 227.566 303.388 253.393 300.563 257.96C297.743 262.53 294.683 267.196 294.683 267.196L288.844 260.168C288.844 260.168 303.94 229.484 304.199 228.998C304.459 228.511 324.044 227.406 324.044 227.406L324.041 227.411Z" fill="#FFDD55"/>
<path d="M278.207 230.299L285.346 244.008C285.346 244.008 291.5 232.308 294.313 230.858C297.125 229.408 303.63 228.73 303.63 228.73L300.198 215.207C300.198 215.207 290.242 220.221 286.947 222.584C283.65 224.952 277.606 231.434 277.606 231.434" fill="#986801"/>
<path d="M285.346 244.008L277.411 229.586C277.316 228.656 296.912 211.438 313.166 210.612C329.412 209.789 339.92 212.091 346.773 216.87C353.631 221.651 356.843 234.464 356.843 234.464L342.157 249.585C342.157 249.585 338.12 231.646 331.913 228.97C325.705 226.293 316.064 227.37 308.746 227.913C301.433 228.458 296.811 227.782 294.31 230.863C291.81 233.944 285.343 244.013 285.343 244.013L285.346 244.008Z" stroke="black" stroke-width="5" stroke-linecap="round" stroke-linejoin="round"/>
<path d="M288.895 246.167L277.777 256.722C277.777 256.722 293.667 273.278 293.8 272.47C293.933 271.663 300.656 260.553 300.656 260.553C300.656 260.553 300.1 253.82 296.333 250.959C292.567 248.098 288.895 246.167 288.895 246.167Z" stroke="black" stroke-width="5" stroke-linecap="round" stroke-linejoin="round"/>
<path d="M307.699 284.466L312.525 269.726C312.525 269.726 310.753 265.862 307.889 264.064C305.024 262.265 300.656 260.553 300.656 260.553L293.8 272.47L307.699 284.466Z" stroke="black" stroke-width="5" stroke-linecap="round" stroke-linejoin="round"/>
<path d="M320.094 279.274L316.969 290.226C316.969 290.226 315.533 292.399 314.035 291.903C312.536 291.408 310.496 289.164 310.496 289.164L308.081 282.621L312.485 271.468C312.485 271.468 315.929 273.278 317.289 274.578C318.65 275.879 320.094 279.274 320.094 279.274Z" stroke="black" stroke-width="5" stroke-linecap="round" stroke-linejoin="round"/>
<path d="M336.124 255.487L320.095 279.273C320.095 279.273 312.933 272.286 312.488 271.463C312.044 270.639 313.946 268.13 310.063 265.499C306.174 262.866 301.216 261.724 301.216 261.724C301.216 261.724 298.955 253.213 296.335 250.959C293.714 248.705 286.349 246.002 286.349 246.002L288.871 241.761C288.871 241.761 300.4 239.332 305.364 240.478C310.328 241.623 324.223 248.054 327.784 249.633C331.344 251.212 336.124 255.487 336.124 255.487Z" stroke="black" stroke-width="5" stroke-linecap="round" stroke-linejoin="round"/>
<path d="M287.801 259.942C287.801 259.942 295.865 267.991 291.606 272.194C287.347 276.397 283.099 280.02 276.469 275.361C269.838 270.701 267.607 266.599 270.479 262.253C273.351 257.906 279.677 254.79 287.801 259.942Z" fill="#CA8A01" stroke="black" stroke-width="5" stroke-miterlimit="10"/>
<path d="M291.609 277.759C293.603 276.756 298.754 274.195 302.862 277.525C306.97 280.854 310.325 286.723 305.944 291.153C301.564 295.584 297.716 296.779 292.906 293.667C288.102 290.557 288.029 288.468 288.329 285.108C288.629 281.748 289.618 278.757 291.612 277.754L291.609 277.759Z" fill="#CA8A01" stroke="black" stroke-width="5" stroke-miterlimit="10"/>
<path d="M309.706 289.672C310.154 289.905 313.02 290.271 313.882 292.634C314.744 294.998 312.045 300.846 310.347 302.629C308.643 304.41 304.754 302.362 302.602 300.273C300.451 298.184 309.706 289.672 309.706 289.672Z" fill="#CA8A01" stroke="black" stroke-width="5" stroke-linecap="round" stroke-linejoin="round"/>
<path d="M279.513 260.218C279.513 260.218 278.126 265.034 280.256 268.256C282.386 271.479 285.068 273.652 285.068 273.652L289.835 270.042C289.835 270.042 290.706 266.543 287.318 263.558C283.005 259.763 279.518 260.221 279.518 260.221L279.513 260.218Z" fill="#FFCA1B"/>
<path d="M295.397 279.085C295.397 279.085 294.184 282.844 296.692 286.074C299.2 289.303 302.044 290.803 302.044 290.803C302.044 290.803 306.549 288.776 305.187 285.193C303.825 281.61 300.925 279.129 299.645 278.645C298.364 278.161 295.397 279.085 295.397 279.085Z" fill="#FFCA1B"/>
<path d="M307.702 295.305L310.065 298.08C310.065 298.08 311.738 294.179 310.845 293.332C309.952 292.485 307.699 295.31 307.699 295.31L307.702 295.305Z" fill="#FFCA1B"/>
</svg>
