<svg width="400" height="400" viewBox="0 0 400 400" fill="none" xmlns="http://www.w3.org/2000/svg">
<path d="M105.779 58.2961L83.9792 32.4961C83.2792 31.5961 81.8792 32.3961 82.1792 33.4961L93.6792 65.6961C93.8792 66.2961 94.6792 66.5961 95.1792 66.1961L105.479 59.7961C105.979 59.4961 106.179 58.6961 105.779 58.2961Z" fill="#312549" stroke="black" stroke-width="3.0519" stroke-miterlimit="10"/>
<path d="M88.6793 66.4961C84.1793 63.9961 67.8793 52.6961 59.4793 46.6961C58.4793 45.9961 57.3793 47.1961 58.0793 48.1961L79.8793 78.0961C80.2793 78.6961 81.0793 78.6961 81.5793 78.0961L88.9793 67.9961C89.3793 67.4961 89.1793 66.7961 88.6793 66.4961Z" fill="#312549" stroke="black" stroke-width="3.0519" stroke-miterlimit="10"/>
<path d="M71.5792 81.6961C65.6792 80.6961 45.8792 77.4961 37.5792 76.1961C36.5792 75.9961 35.9792 77.2961 36.7792 77.9961L60.2792 97.6961C60.7792 98.0961 61.3792 97.9961 61.7792 97.4961L72.2792 83.1961C72.7792 82.6961 72.3792 81.7961 71.5792 81.6961Z" fill="#312549" stroke="black" stroke-width="3.0519" stroke-miterlimit="10"/>
<path d="M54.5793 109.396C54.8793 108.696 54.2793 107.996 53.5793 107.996C46.4793 108.596 18.9793 110.396 19.8793 110.696C20.7793 110.996 43.7793 119.996 48.7793 121.896C49.2793 122.096 49.8793 121.796 50.0793 121.296L54.5793 109.396Z" fill="#312549" stroke="black" stroke-width="3.0519" stroke-miterlimit="10"/>
<path d="M54.2792 126.596C53.8792 126.296 53.1792 126.296 52.8792 126.796C49.0792 131.496 29.9792 155.296 30.8792 155.596C31.7792 155.896 56.9792 138.796 62.6792 134.796C63.2792 134.396 63.2792 133.596 62.6792 133.096L54.2792 126.596Z" fill="#312549" stroke="black" stroke-width="3.0519" stroke-miterlimit="10"/>
<path d="M70.3793 136.996L72.1793 164.896C72.2793 165.996 73.7793 166.196 74.1793 165.196L86.1793 137.196C86.4793 136.496 85.9793 135.796 85.1793 135.796L71.3793 135.896C70.7793 135.896 70.2793 136.396 70.3793 136.996Z" fill="#312549" stroke="black" stroke-width="3.0519" stroke-miterlimit="10"/>
<path d="M93.6792 139.296L102.579 166.596C102.879 167.596 104.279 167.496 104.579 166.496L111.279 138.196C111.479 137.496 110.879 136.896 110.179 136.896L94.5792 137.896C93.8792 137.996 93.4792 138.696 93.6792 139.296Z" fill="#312549" stroke="black" stroke-width="3.0519" stroke-miterlimit="10"/>
<path d="M122.579 137.096C121.979 137.096 121.479 137.596 121.479 138.296C122.179 143.896 125.179 166.996 125.179 166.296C125.179 165.496 133.879 144.596 136.179 138.996C136.479 138.296 135.979 137.596 135.279 137.596L122.579 137.096Z" fill="#312549" stroke="black" stroke-width="3.0519" stroke-miterlimit="10"/>
<path d="M149.879 169.996C150.079 172.896 149.579 181.196 149.179 186.596C149.079 187.696 150.579 188.096 151.079 187.096C154.279 180.696 159.779 169.796 159.679 169.196C159.579 168.496 153.379 168.696 150.779 168.896C150.279 168.896 149.879 169.396 149.879 169.996Z" fill="#312549" stroke="black" stroke-width="3.0519" stroke-miterlimit="10"/>
<path d="M167.179 171.196L169.379 188.396C169.479 189.496 170.979 189.596 171.379 188.596L177.479 171.796C177.679 171.096 177.279 170.496 176.579 170.396L168.279 169.996C167.579 169.996 167.079 170.496 167.179 171.196Z" fill="#312549" stroke="black" stroke-width="3.0519" stroke-miterlimit="10"/>
<path d="M194.579 189.996L197.579 207.696C197.779 208.796 199.379 208.796 199.579 207.696L202.579 189.696C202.679 189.096 202.179 188.496 201.479 188.496L195.479 188.796C194.879 188.896 194.479 189.396 194.579 189.996Z" fill="#312549" stroke="black" stroke-width="3.0519" stroke-miterlimit="10"/>
<path d="M375.779 349.596C374.979 344.796 374.979 339.896 373.379 335.296C372.979 334.596 372.579 333.896 372.079 333.196C371.679 332.796 371.279 332.496 370.879 332.096C365.979 327.696 361.379 322.996 356.979 318.096C354.779 315.596 352.679 312.996 350.579 310.296C349.379 309.196 348.279 308.096 347.079 306.996C344.679 304.696 342.379 302.296 340.579 299.596C336.979 295.996 333.579 292.296 329.579 288.996C327.479 287.296 325.679 285.396 323.779 283.496C321.979 281.696 320.079 279.696 317.879 278.596C317.079 278.196 316.479 277.396 316.779 276.396C316.879 276.096 317.079 275.896 317.279 275.696C305.079 263.396 292.879 251.096 280.679 238.796C278.479 236.396 276.179 233.996 273.979 231.696C252.779 209.296 201.779 156.096 198.379 152.496C193.079 146.996 169.879 122.396 164.079 117.096C160.179 113.496 157.879 109.496 153.679 105.696C151.179 103.496 148.779 101.296 146.879 98.7961C137.679 86.9961 128.079 75.8961 116.179 66.9961C115.479 66.4961 114.479 65.6961 113.479 64.7961C111.979 63.0961 110.379 61.3961 108.879 59.7961C106.879 57.6961 103.679 57.5961 101.279 58.8961C79.8793 70.0961 61.4793 89.5961 51.8793 112.096C50.6793 113.496 49.6793 114.996 48.6793 116.496C48.8793 116.796 48.9793 117.096 48.8793 117.496C48.4793 119.696 48.5793 121.896 48.6793 124.196C49.8793 127.496 50.8793 130.896 52.5793 133.896C52.6793 133.996 52.7793 133.996 52.8793 134.096C53.0793 134.196 53.1793 134.396 53.2793 134.496C55.5793 136.696 59.2793 137.496 62.1793 138.396C62.8793 138.596 63.6793 138.796 64.3793 139.096C66.2793 139.096 68.1793 138.996 69.8793 138.996C78.3793 139.096 86.8793 139.196 95.3793 139.096C99.2793 139.096 103.179 138.996 107.079 138.896C117.379 139.496 127.779 140.196 138.079 140.896C139.979 149.096 141.879 157.296 143.779 165.496C144.679 169.096 148.779 171.396 152.279 170.596C154.279 170.796 156.679 171.596 158.379 170.496C163.379 169.796 167.579 170.196 172.979 170.796C177.679 171.296 181.579 175.096 185.379 177.996C184.979 179.196 184.079 180.496 184.279 181.696C184.979 185.096 188.879 187.396 191.779 188.796C192.579 189.196 193.379 188.496 193.379 187.796C196.179 189.096 199.379 189.296 202.279 188.396C219.179 206.096 236.679 223.196 254.679 239.796C257.279 243.096 259.879 246.496 262.479 249.796C262.879 250.396 263.379 250.896 263.779 251.496C264.479 251.396 265.179 251.696 265.479 252.396C268.479 258.796 274.979 262.596 279.979 267.296C282.279 269.496 284.279 271.796 285.779 274.596C286.679 276.196 287.279 277.896 288.079 279.496C288.879 281.096 289.979 282.496 291.179 283.796C293.679 286.496 296.579 288.796 298.979 291.596C301.779 294.696 304.479 297.696 307.279 300.796C312.879 306.896 318.579 312.996 324.579 318.796C327.479 321.596 330.479 324.296 333.279 327.196C336.079 330.196 338.879 333.196 341.779 336.196C342.279 336.696 342.379 337.296 342.179 337.796C350.379 345.396 362.079 357.896 370.579 365.096C371.579 365.896 376.579 362.396 378.379 357.896C377.279 355.196 376.279 352.496 375.779 349.596ZM116.079 112.896C112.779 117.396 105.179 121.296 99.7793 118.896C94.3793 116.396 90.2793 110.196 93.0793 100.596C95.8793 90.9961 106.379 87.8961 111.779 90.7961C117.179 93.6961 119.279 103.196 119.279 103.196C118.479 106.896 119.379 108.396 116.079 112.896Z" fill="#88629B"/>
<path d="M361.079 322.596C347.479 310.096 280.579 238.496 270.679 227.196C267.179 223.196 262.779 226.696 261.979 230.396C260.979 230.396 260.879 231.896 259.979 232.296C257.779 233.396 256.279 235.496 256.279 237.896C254.679 239.596 254.279 242.396 256.379 244.696C285.779 276.096 314.979 307.796 344.579 338.996C345.979 340.496 347.879 342.196 348.479 341.696C349.879 340.596 353.679 337.696 355.079 336.596C356.179 335.796 356.879 334.796 357.179 333.696C359.079 332.396 360.979 331.096 362.979 329.796C365.479 328.096 363.579 324.896 361.079 322.596Z" fill="#C8B78B"/>
<path opacity="0.3" d="M51.3791 114.196C51.3791 114.196 48.9791 129.296 68.1791 130.596C87.3791 131.896 127.079 131.296 132.679 132.396C138.279 133.496 138.379 132.396 140.979 137.896C143.579 143.396 144.479 149.096 144.179 151.496C143.879 153.896 140.479 157.296 140.979 156.596C141.479 155.896 139.179 141.496 139.179 141.496C139.179 141.496 73.6791 139.996 63.9791 138.596C54.2791 137.196 49.1791 131.996 48.2791 125.696C47.3791 119.396 51.3791 114.196 51.3791 114.196Z" fill="black"/>
<path opacity="0.3" d="M141.879 160.596C142.979 160.696 156.679 163.796 164.279 164.996C171.879 166.196 178.379 165.396 180.479 167.496C182.579 169.696 179.679 172.896 179.679 172.896C179.679 172.896 147.979 171.496 144.879 168.996C141.779 166.496 141.879 160.596 141.879 160.596Z" fill="black"/>
<path opacity="0.3" d="M337.479 321.296C314.879 298.096 245.179 218.296 236.379 209.196C227.579 200.196 221.179 194.796 213.779 189.096C209.779 185.996 205.179 183.096 202.779 182.896C201.979 182.796 198.079 184.696 196.679 184.896C191.079 185.496 185.279 181.996 184.979 181.596C184.979 181.596 185.479 187.196 190.079 189.396C194.679 191.596 200.779 188.896 200.779 188.896C200.779 188.896 212.779 198.496 220.679 206.896C228.579 215.296 274.179 264.796 316.879 309.596C359.579 354.396 371.979 366.096 371.979 366.096L377.579 361.496C377.579 361.496 360.079 344.596 337.479 321.296Z" fill="black"/>
<path d="M108.079 87.7961C107.279 87.6961 106.479 87.5961 105.679 87.5961C100.879 83.7961 93.1793 85.8961 89.0793 89.8961C83.9793 94.9961 83.0793 102.896 85.8793 109.296C87.3793 112.696 89.8793 115.596 92.7793 117.796C92.8793 117.896 93.0793 117.996 93.1793 118.096C94.8793 119.296 96.7793 116.596 95.3793 115.196C91.2793 111.096 89.9793 104.196 92.5793 98.9961C95.1793 93.7961 101.279 90.4961 107.079 91.2961C108.079 91.3961 108.979 90.9961 109.279 89.9961C109.679 89.0961 109.079 87.8961 108.079 87.7961Z" fill="#4D3559"/>
<path d="M202.079 186.996C201.879 186.796 201.779 186.596 201.679 186.396C199.979 186.796 198.279 187.296 196.479 187.496C194.179 187.696 191.679 187.496 189.579 186.496C187.479 185.496 185.679 183.696 184.879 181.596C185.479 180.896 185.779 179.996 185.779 179.196C185.679 177.596 185.179 176.896 184.479 175.496C183.879 174.196 182.979 172.896 181.779 171.896C178.879 169.596 174.779 169.796 171.279 169.696C167.379 169.596 163.479 169.396 159.579 169.296C157.579 169.196 155.479 169.196 153.479 169.096C152.179 169.096 146.679 168.396 145.779 167.896C144.679 167.396 144.279 166.196 144.079 165.096C143.379 162.196 143.179 159.096 142.679 156.096C142.179 152.996 141.679 149.796 141.179 146.696C140.879 145.096 140.679 143.496 140.379 141.896C140.179 140.696 140.079 139.296 139.679 138.096C138.879 137.896 138.079 137.596 137.179 137.396C137.179 137.496 137.079 137.496 137.079 137.596C136.879 137.596 136.779 137.496 136.579 137.496C122.879 137.396 109.179 137.296 95.3792 137.096C88.4792 136.996 81.4792 136.996 74.5792 136.896C68.8792 136.796 62.5792 137.096 57.2792 134.596C52.3792 132.296 49.8792 127.596 49.6792 122.296C49.4792 116.096 52.1792 110.396 55.0792 105.096C60.3792 95.1961 67.1792 86.2961 75.2792 78.5961C79.7792 74.2961 84.5792 70.3961 89.6792 66.9961C94.9792 63.4961 100.579 60.5961 105.879 57.2961C106.879 56.6961 106.279 54.9961 105.079 55.2961C99.4792 56.8961 94.1792 59.8961 89.2792 62.9961C84.3792 66.0961 79.6792 69.6961 75.3792 73.5961C66.5792 81.3961 59.0792 90.6961 53.1792 100.796C47.4792 110.496 41.6792 124.596 50.6792 134.296C54.9792 138.896 61.3792 140.096 67.3792 140.496C74.2792 140.896 81.1792 140.696 88.0792 140.796C104.379 140.896 120.579 141.096 136.879 141.296C137.079 141.296 137.179 141.296 137.279 141.296C137.379 141.996 137.479 142.696 137.579 143.296C137.779 145.196 138.079 147.196 138.279 149.096C138.779 152.896 139.279 156.696 139.879 160.496C140.279 163.596 140.379 167.596 142.679 169.896C143.679 170.896 145.179 171.496 146.579 171.496C147.079 171.496 151.079 171.496 152.679 171.596C154.379 171.696 156.079 171.796 157.779 171.896C161.379 172.096 165.079 172.196 168.679 172.396C170.479 172.496 172.179 172.596 173.979 172.696C175.679 172.796 177.379 172.996 178.879 173.796C180.079 174.496 180.879 175.596 181.479 176.796C181.679 177.096 181.779 177.496 181.879 177.796C180.579 182.096 183.479 186.796 187.279 189.096C189.779 190.596 192.779 191.096 195.679 190.996C197.179 190.996 198.779 190.696 200.279 190.496C201.779 190.196 203.079 190.096 204.379 189.396C203.479 188.796 202.779 187.896 202.079 186.996Z" fill="black"/>
<path d="M100.079 68.2961L97.3792 79.0961L88.1792 81.4961L85.1792 87.0961L87.3792 91.7961L85.6792 93.4961L82.1792 87.6961L86.0792 79.5961L89.8792 71.9961L88.8792 79.4961L95.9792 76.8961L100.079 68.2961Z" fill="#00FFFF"/>
<path d="M83.6792 110.596L80.2792 110.496L79.6792 120.396L74.6792 123.596L79.7792 135.996L71.7792 125.396L63.3792 128.596L77.1792 119.496L78.3792 108.196L83.1792 107.096L83.6792 110.596Z" fill="#00FFFF"/>
<path d="M103.779 121.496L105.979 125.096L100.179 130.296L102.579 136.196L103.379 130.896L110.279 125.496L107.679 120.096L103.779 121.496Z" fill="#00FFFF"/>
<path d="M120.279 112.796L125.079 122.796L139.779 120.696L152.579 136.896L139.879 117.396L126.679 119.996L120.279 112.796Z" fill="#00FFFF"/>
<path d="M114.379 92.8961L117.779 86.1961L111.479 77.2961L109.879 68.9961L109.079 77.5961L114.479 86.1961L111.779 90.7961L114.379 92.8961Z" fill="#00FFFF"/>
<path d="M113.979 88.9961C107.979 84.0961 99.7791 83.1961 92.5791 85.2961C90.4791 86.9961 88.3791 88.8961 86.6791 90.8961C86.7791 90.9961 86.8791 90.9961 86.9791 91.0961C83.2791 96.0961 82.0791 102.796 84.3791 108.796C87.0791 115.996 94.0791 121.296 101.879 121.396C109.379 121.496 116.579 116.796 119.279 109.696C121.879 102.496 119.879 93.8961 113.979 88.9961ZM88.0791 110.196C84.2791 103.496 86.2791 95.1961 91.3791 89.7961C97.0791 87.5961 103.179 86.7961 108.879 89.5961C102.779 87.6961 95.5791 91.8961 92.4791 96.9961C88.8791 102.996 89.7791 111.296 94.4791 116.496C94.5791 116.596 94.6791 116.696 94.7791 116.796C91.9791 115.196 89.6791 112.896 88.0791 110.196ZM106.079 117.896C105.979 117.396 105.579 116.896 104.979 116.696C103.179 116.196 101.379 116.696 99.6791 115.796C98.1791 114.996 96.9791 113.796 95.9791 112.396C94.0791 109.496 93.4791 105.896 94.0791 102.596C94.7791 99.2961 96.6791 96.3961 99.5791 94.4961C101.079 93.4961 102.579 92.8961 104.279 92.4961C106.079 92.0961 107.779 92.0961 109.579 91.9961C110.279 91.9961 110.779 91.0961 110.579 90.4961C115.779 93.8961 118.579 99.9961 117.279 106.196C116.179 111.996 111.579 116.396 106.079 117.896Z" fill="black"/>
<path d="M266.479 246.896C266.679 245.996 266.979 245.096 267.279 244.296C267.779 242.596 268.379 240.896 268.979 239.296C269.579 237.596 270.279 235.896 270.979 234.196C271.679 232.596 272.579 230.996 273.079 229.296C273.379 228.296 272.179 227.996 271.679 228.696C270.679 230.196 269.979 231.996 269.279 233.596C268.579 235.196 267.879 236.896 267.179 238.596C266.479 240.296 265.879 242.096 265.379 243.796C265.079 244.596 264.879 245.396 264.579 246.196C264.279 247.096 263.879 248.096 263.679 248.996C263.379 250.296 265.079 251.196 265.779 249.796C265.879 249.596 265.979 249.496 266.079 249.296C266.279 249.096 266.279 248.796 266.179 248.496C266.279 248.096 266.379 247.496 266.479 246.896Z" fill="#6E674B"/>
<path d="M290.479 249.696C290.279 248.996 289.679 248.796 288.979 248.896C288.779 248.896 288.579 248.996 288.279 248.996C287.879 249.096 287.679 249.296 287.579 249.696C286.579 250.196 285.379 250.596 284.379 251.096C282.879 251.696 281.479 252.396 279.979 252.996C277.079 254.296 274.179 255.596 271.279 257.096C270.779 257.396 271.079 258.196 271.679 257.996C274.679 256.896 277.679 255.796 280.679 254.596C282.079 253.996 283.579 253.396 284.979 252.796C286.479 252.196 288.079 251.396 289.579 251.096C290.279 250.996 290.579 250.296 290.479 249.696Z" fill="#6E674B"/>
<path d="M293.879 252.796C292.879 254.196 292.079 255.896 291.179 257.396C290.279 258.996 289.479 260.696 288.679 262.396C287.979 264.096 287.279 265.796 286.579 267.496C286.279 268.396 285.879 269.196 285.579 270.096C285.279 270.896 284.979 271.696 285.079 272.496C285.179 273.196 285.979 273.296 286.479 272.796C287.079 272.196 287.279 271.296 287.579 270.496C287.779 269.696 288.079 268.996 288.379 268.196C288.979 266.496 289.679 264.796 290.379 263.096C291.079 261.496 291.679 259.896 292.379 258.296C293.079 256.696 294.079 255.096 294.679 253.396C294.979 252.896 294.279 252.096 293.879 252.796Z" fill="#6E674B"/>
<path d="M309.779 271.096C306.779 272.896 303.879 274.796 300.879 276.596C299.379 277.496 297.979 278.296 296.479 279.196C294.979 280.096 293.379 280.896 292.079 282.096C291.679 282.496 292.079 283.096 292.579 282.996C294.179 282.496 295.679 281.596 297.079 280.796C298.579 279.996 300.079 279.096 301.679 278.296C304.679 276.596 307.879 275.096 310.879 273.396C312.379 272.396 311.079 270.296 309.779 271.096Z" fill="#6E674B"/>
<path d="M318.979 279.896C319.279 279.396 318.579 278.796 318.179 279.296C313.379 284.796 309.079 290.796 304.879 296.796C304.279 297.596 305.279 298.996 306.279 298.596C306.579 298.496 306.879 298.296 307.279 298.096C307.679 297.896 307.779 297.396 307.679 297.096C311.579 291.396 315.579 285.796 318.979 279.896Z" fill="#6E674B"/>
<path d="M331.079 293.996C330.079 293.896 329.579 294.696 328.779 295.196C327.979 295.696 327.079 296.196 326.279 296.696C324.679 297.696 323.079 298.696 321.479 299.596C319.879 300.596 318.379 301.496 316.779 302.496C315.979 302.996 315.079 303.496 314.279 303.996C313.579 304.496 312.779 304.896 312.279 305.596C312.079 305.996 312.379 306.496 312.779 306.396C313.579 306.296 314.279 305.896 314.979 305.496C315.779 304.996 316.679 304.496 317.479 303.996C319.079 302.996 320.679 302.096 322.379 301.096C323.979 300.196 325.479 299.196 327.079 298.296C327.879 297.796 328.779 297.296 329.579 296.796C330.379 296.296 331.479 296.196 331.879 295.296C332.179 294.696 331.879 294.096 331.079 293.996Z" fill="#6E674B"/>
<path d="M338.079 300.896C338.279 300.396 337.579 300.096 337.179 300.396C335.879 301.496 334.979 303.196 334.079 304.596C333.179 305.996 332.179 307.396 331.279 308.796C330.379 310.196 329.479 311.596 328.479 312.996C327.979 313.796 327.479 314.496 326.979 315.296C326.479 315.996 325.879 316.696 325.779 317.596C325.679 318.296 326.379 319.096 327.079 318.596C327.779 318.096 328.179 317.396 328.579 316.696C329.079 315.896 329.579 315.196 329.979 314.396C330.879 312.896 331.879 311.496 332.779 309.996C333.679 308.496 334.579 306.996 335.479 305.596C336.479 303.996 337.579 302.496 338.079 300.896Z" fill="#6E674B"/>
<path d="M341.479 326.896C342.179 324.996 342.779 322.996 343.479 320.996C344.779 317.196 346.179 313.396 347.079 309.396C347.279 308.696 346.179 308.196 345.879 308.896C344.079 312.496 342.879 316.396 341.479 320.196C340.779 322.096 340.079 323.896 339.479 325.796C338.879 327.496 337.679 329.696 338.079 331.496C338.179 332.096 338.979 332.196 339.379 331.796C340.079 331.296 340.479 330.196 340.779 329.396C340.879 328.696 341.179 327.796 341.479 326.896Z" fill="#6E674B"/>
<path d="M365.179 328.596C365.679 327.396 363.879 326.596 363.079 327.496C360.879 330.096 358.479 332.496 355.879 334.796C354.679 335.896 353.379 336.996 352.079 338.096C351.379 338.696 350.779 339.196 350.079 339.696C349.379 340.196 348.779 340.596 348.279 341.396C348.079 341.796 348.379 342.396 348.879 342.296C350.479 342.096 351.879 340.796 353.179 339.996C354.679 338.996 356.079 337.896 357.479 336.796C359.879 334.796 362.179 332.496 364.279 330.196C364.679 329.696 364.979 329.196 365.179 328.596Z" fill="#4C3756"/>
<path d="M265.479 224.096C262.779 225.996 260.579 228.696 258.479 231.096C257.379 232.396 256.379 233.696 255.379 234.996C254.379 236.296 253.379 237.696 252.579 239.096C251.879 240.296 253.279 241.696 254.479 240.996C254.979 240.896 255.179 240.496 255.279 240.096C256.979 237.696 258.579 235.296 260.479 232.996C261.479 231.796 262.479 230.596 263.579 229.496C264.679 228.296 265.979 227.196 266.979 225.896C267.679 224.996 266.679 223.296 265.479 224.096Z" fill="#4C3756"/>
<path d="M331.279 323.896C320.179 312.496 267.579 251.596 256.279 240.396C244.979 229.096 233.779 217.796 222.279 206.796C219.079 203.696 215.979 200.596 212.779 197.596C211.179 196.096 209.579 194.496 207.979 192.996C206.279 191.396 204.679 189.596 202.679 188.496C201.679 187.996 200.679 189.096 201.179 189.996C202.079 191.796 203.579 193.096 204.879 194.596C206.279 196.096 207.679 197.596 209.079 198.996C211.779 201.796 214.579 204.596 217.179 207.396C222.679 213.196 228.279 218.796 233.879 224.496C245.079 235.896 256.279 247.196 267.479 258.496C273.779 264.896 322.879 319.696 329.279 325.896C331.679 327.996 333.379 325.996 331.279 323.896Z" fill="black"/>
<path d="M349.779 309.096C336.979 295.896 281.479 233.296 268.679 220.096C255.979 206.996 243.179 193.896 230.379 180.696C217.579 167.496 204.779 154.296 191.979 141.096C179.179 127.996 166.479 114.796 153.679 101.696C140.879 88.4961 127.879 75.3961 114.979 62.3961C113.379 60.6961 111.579 59.0961 109.879 57.4961C108.079 55.7961 107.079 55.6961 106.579 55.6961C106.079 55.5961 105.679 55.5961 105.279 55.8961C104.879 56.0961 104.579 56.4961 104.479 56.9961C104.379 57.3961 104.379 57.5961 104.679 57.9961C104.879 58.3961 105.979 57.3961 108.779 60.0961C111.279 63.3961 114.279 66.2961 117.079 69.2961C120.279 72.6961 123.479 76.0961 126.679 79.4961C132.979 86.0961 139.279 92.6961 145.679 99.2961C158.479 112.496 171.279 125.696 184.079 138.896C196.879 152.096 209.679 165.296 222.479 178.596C235.279 191.796 247.979 205.096 260.779 218.296C273.579 231.496 330.279 293.596 343.079 306.796C344.679 308.396 346.279 310.096 347.879 311.696C349.879 313.696 351.679 311.096 349.779 309.096Z" fill="black"/>
<path d="M379.579 353.096C379.379 351.096 379.179 349.096 378.979 347.096C378.779 345.096 378.479 343.096 378.279 341.096C378.179 339.996 377.979 338.996 377.879 337.896C377.879 337.696 377.879 337.596 377.779 337.396C378.279 336.896 378.579 335.996 378.179 335.296C377.479 333.696 375.879 332.496 374.679 331.196C373.479 329.896 372.279 328.596 370.979 327.196C368.479 324.496 365.979 321.796 363.479 319.096C360.979 316.496 358.579 313.796 356.079 311.196C353.579 308.596 351.179 305.796 348.479 303.596C347.579 302.896 346.779 304.496 347.379 305.296C349.379 308.296 351.979 310.996 354.279 313.696C356.679 316.396 359.079 319.096 361.479 321.796C363.879 324.496 366.279 327.196 368.679 329.896C369.879 331.196 370.979 332.496 372.179 333.696C372.779 334.396 373.379 335.196 374.079 335.896C373.779 336.896 373.779 337.696 373.979 338.796C374.179 339.796 374.279 340.896 374.479 341.896C374.879 343.896 375.179 345.796 375.579 347.796C375.979 349.696 376.379 351.696 376.779 353.596C377.079 355.196 377.379 356.896 377.779 358.496C376.879 359.696 375.879 360.696 374.879 361.796C374.279 362.496 373.679 363.196 373.079 363.896C372.179 362.696 370.979 361.796 369.979 360.696C368.579 359.296 367.279 357.996 365.879 356.596C363.179 353.896 360.579 351.096 357.979 348.296C352.779 342.696 347.779 336.996 342.879 331.096C340.079 327.796 337.479 324.196 334.479 321.196C333.779 320.496 332.379 321.496 332.979 322.596C334.879 325.996 337.279 328.996 339.679 331.896C342.079 334.996 344.579 337.996 347.079 340.996C351.979 346.896 357.079 352.596 362.379 358.096C363.879 359.696 365.379 361.196 366.879 362.696C368.179 364.096 371.179 367.396 371.379 367.596C371.779 368.096 372.379 367.896 372.879 367.496C374.179 366.296 375.479 364.996 376.779 363.796C378.079 362.596 378.979 361.496 379.979 360.196C380.479 359.396 379.679 354.396 379.579 353.096Z" fill="black"/>
<path d="M96.9792 50.3961L84.9792 35.4961L86.6793 41.9961L96.9792 50.3961Z" fill="white"/>
<path d="M60.2793 48.9961C60.2793 48.9961 70.7793 58.8961 75.9793 62.4961C81.1793 66.0961 84.8793 66.0961 84.8793 66.0961L60.2793 48.9961Z" fill="white"/>
<path d="M38.7793 77.6961L66.6793 82.3961L64.8793 84.1961L38.7793 77.6961Z" fill="white"/>
<path d="M26.0793 110.796L48.5793 109.596L48.0793 111.596L26.0793 110.796Z" fill="white"/>
<path d="M49.4792 133.196L34.9792 152.096L50.6792 134.396L49.4792 133.196Z" fill="white"/>
<path d="M80.1792 140.996L72.6792 157.596L73.3792 163.196L82.8792 140.796L80.1792 140.996Z" fill="#050507"/>
<path d="M106.679 141.196L103.679 163.996L109.679 140.596L106.679 141.196Z" fill="#050507"/>
</svg>
