<svg width="400" height="400" viewBox="0 0 400 400" fill="none" xmlns="http://www.w3.org/2000/svg">
<path d="M214.047 148.585C214.047 148.585 209.437 127.755 208.788 126.464C208.138 125.172 245.724 121.383 245.724 121.383L219.401 132.794L225.433 150.642L214.047 148.585Z" fill="#2E3135" stroke="black" stroke-width="4" stroke-linecap="round" stroke-linejoin="round"/>
<mask id="mask0_5624_8189" style="mask-type:luminance" maskUnits="userSpaceOnUse" x="208" y="121" width="38" height="30">
<path d="M214.047 148.585C214.047 148.585 209.437 127.755 208.788 126.464C208.138 125.172 245.724 121.383 245.724 121.383L219.401 132.794L225.433 150.642L214.047 148.585Z" fill="white"/>
</mask>
<g mask="url(#mask0_5624_8189)">
<path d="M217.514 146.654L213.576 128.356L248.416 121.695L205.108 97.4663L201.137 125.42L205.516 143.963L215.756 152.508L217.514 146.654Z" fill="white"/>
</g>
<path d="M214.047 148.585C214.047 148.585 209.437 127.755 208.788 126.464C208.138 125.172 245.724 121.383 245.724 121.383L219.401 132.794L225.433 150.642L214.047 148.585Z" stroke="black" stroke-width="4" stroke-linecap="round" stroke-linejoin="round"/>
<path d="M184.638 188.395C184.638 188.395 163.355 189.842 161.928 189.584C160.5 189.326 167.46 226.46 167.46 226.46L170.992 197.991L189.82 198.749L184.636 188.403L184.638 188.395Z" fill="#2E3135" stroke="black" stroke-width="4" stroke-linecap="round" stroke-linejoin="round"/>
<mask id="mask1_5624_8189" style="mask-type:luminance" maskUnits="userSpaceOnUse" x="161" y="188" width="29" height="39">
<path d="M184.638 188.395C184.638 188.395 163.355 189.842 161.928 189.584C160.5 189.326 167.46 226.46 167.46 226.46L170.992 197.991L189.82 198.749L184.636 188.403L184.638 188.395Z" fill="white"/>
</mask>
<g mask="url(#mask1_5624_8189)">
<path d="M165.233 192.237L168.912 236.004L160.274 239.218L156.651 184.084L165.233 192.237Z" fill="white"/>
</g>
<path d="M184.638 188.395C184.638 188.395 163.355 189.842 161.928 189.584C160.5 189.326 167.46 226.46 167.46 226.46L170.992 197.991L189.82 198.749L184.636 188.403L184.638 188.395Z" stroke="black" stroke-width="4" stroke-linecap="round" stroke-linejoin="round"/>
<path d="M310.573 213.965C310.573 213.965 309.522 193.783 310.033 192.546C310.544 191.31 353.511 189.535 353.511 189.535L319.684 200.173L322.029 221.326L310.573 213.965Z" fill="#2E3135" stroke="black" stroke-width="4" stroke-linecap="round" stroke-linejoin="round"/>
<mask id="mask2_5624_8189" style="mask-type:luminance" maskUnits="userSpaceOnUse" x="309" y="189" width="45" height="33">
<path d="M310.573 213.965C310.573 213.965 309.522 193.783 310.033 192.546C310.544 191.31 353.511 189.535 353.511 189.535L319.684 200.173L322.029 221.326L310.573 213.965Z" fill="white"/>
</mask>
<g mask="url(#mask2_5624_8189)">
<path d="M314.561 216.097L314.086 195.849L343.241 190.464L308.44 175.256L294.724 185.151L314.561 216.097Z" fill="white"/>
</g>
<path d="M310.573 213.965C310.573 213.965 309.522 193.783 310.033 192.546C310.544 191.31 353.511 189.535 353.511 189.535L319.684 200.173L322.029 221.326L310.573 213.965Z" stroke="black" stroke-width="4" stroke-linecap="round" stroke-linejoin="round"/>
<path d="M274.315 262.393C274.315 262.393 254.652 267.068 253.613 267.908C252.575 268.749 262.968 310.475 262.968 310.475L263.649 275.022L284.606 271.318L274.313 262.401L274.315 262.393Z" fill="#2E3135" stroke="black" stroke-width="4" stroke-linecap="round" stroke-linejoin="round"/>
<mask id="mask3_5624_8189" style="mask-type:luminance" maskUnits="userSpaceOnUse" x="253" y="262" width="32" height="49">
<path d="M274.315 262.393C274.315 262.393 254.652 267.068 253.613 267.908C252.575 268.749 262.968 310.475 262.968 310.475L263.649 275.022L284.606 271.318L274.313 262.401L274.315 262.393Z" fill="white"/>
</mask>
<g mask="url(#mask3_5624_8189)">
<path d="M258.683 267.459L263.019 319.496L244.645 289.771L247.889 253.767L258.683 267.459Z" fill="white"/>
</g>
<path d="M274.315 262.393C274.315 262.393 254.652 267.068 253.613 267.908C252.575 268.749 262.968 310.475 262.968 310.475L263.649 275.022L284.606 271.318L274.313 262.401L274.315 262.393Z" stroke="black" stroke-width="4" stroke-linecap="round" stroke-linejoin="round"/>
<path d="M203.389 172.526L193.698 185.472C193.698 185.472 249.121 226.961 254.56 231.029C260 235.097 275.018 244.725 271.474 263.491L288.564 276.287C288.564 276.287 303.183 271.876 315.588 255.298C327.992 238.719 327.918 223.714 327.918 223.714L310.567 210.724C310.567 210.724 296.211 220.179 274.462 203.902C252.707 187.614 214.121 158.731 214.121 158.731C214.121 158.731 202.034 174.334 203.391 172.518L203.389 172.526Z" fill="#611589" stroke="black" stroke-width="4" stroke-linecap="round" stroke-linejoin="round"/>
<path d="M296.322 273.347L279.555 260.259C279.555 260.259 279.282 242.274 263.487 230.448C247.691 218.622 202.372 184.701 202.372 184.701" stroke="#903EC6" stroke-width="2" stroke-linecap="round" stroke-linejoin="round"/>
<path d="M306.875 265.323L287.455 250.786C287.455 250.786 289.628 240.32 270.208 225.783C250.781 211.244 206.244 177.901 206.244 177.901" stroke="#903EC6" stroke-width="2" stroke-linecap="round" stroke-linejoin="round"/>
<path d="M327.405 231.822L310.124 219.427C310.124 219.427 292.786 224.23 276.99 212.404L215.875 166.657" stroke="#903EC6" stroke-width="2" stroke-linecap="round" stroke-linejoin="round"/>
<path d="M322.677 244.215L303.258 229.678C303.258 229.678 293.832 234.711 274.404 220.172C254.977 205.633 210.44 172.291 210.44 172.291" stroke="#903EC6" stroke-width="2" stroke-linecap="round" stroke-linejoin="round"/>
<mask id="mask4_5624_8189" style="mask-type:luminance" maskUnits="userSpaceOnUse" x="193" y="158" width="135" height="119">
<path d="M203.389 172.526L193.698 185.472C193.698 185.472 249.121 226.961 254.56 231.029C260 235.097 275.018 244.725 271.474 263.491L288.564 276.287C288.564 276.287 303.183 271.876 315.588 255.298C327.992 238.719 327.918 223.714 327.918 223.714L310.567 210.724C310.567 210.724 296.211 220.179 274.462 203.902C252.707 187.614 214.121 158.731 214.121 158.731C214.121 158.731 202.034 174.334 203.391 172.518L203.389 172.526Z" fill="white"/>
</mask>
<g mask="url(#mask4_5624_8189)">
<g style="mix-blend-mode:multiply" opacity="0.3">
<path d="M310.564 210.776C310.564 210.776 310.945 223.998 294.638 241.161C281.513 254.969 270.885 265.987 270.885 265.987L288.562 276.296C288.562 276.296 305.122 269.042 315.586 255.306C326.05 241.571 327.916 223.722 327.916 223.722L310.564 210.776Z" fill="black"/>
</g>
<path d="M270.299 201.51C270.299 201.51 280.849 214.269 295.776 217.792C309.144 220.947 314.319 213.413 314.319 213.413L304.964 193.696L270.299 201.51Z" fill="white"/>
<g style="mix-blend-mode:multiply" opacity="0.3">
<path d="M239.991 172.235C239.991 172.235 234.512 195.455 228.79 215.991C228.063 218.586 199.606 200.279 199.606 200.279L231.872 158.263L240 172.237L239.991 172.235Z" fill="black"/>
</g>
<path d="M246.502 223.664C246.502 223.664 265.479 232.949 270.878 241.682C273.615 246.11 275.946 249.882 276.43 255.249C277.157 263.3 274.242 266.823 273.495 267.689C267.246 274.916 240.622 251.176 240.622 251.176L246.502 223.664Z" fill="white"/>
</g>
<path d="M203.389 172.526L193.698 185.472C193.698 185.472 249.121 226.961 254.56 231.029C260 235.097 275.018 244.725 271.474 263.491L288.564 276.287C288.564 276.287 303.183 271.876 315.588 255.298C327.992 238.719 327.918 223.714 327.918 223.714L310.567 210.724C310.567 210.724 296.211 220.179 274.462 203.902C252.707 187.614 214.121 158.731 214.121 158.731C214.121 158.731 202.034 174.334 203.391 172.518L203.389 172.526Z" stroke="black" stroke-width="4" stroke-linecap="round" stroke-linejoin="round"/>
<mask id="mask5_5624_8189" style="mask-type:luminance" maskUnits="userSpaceOnUse" x="78" y="75" width="128" height="107">
<path d="M205.117 152.404C205.117 152.404 198.049 140.248 193.265 135.854C188.472 131.457 177.925 133.669 173.335 133.864C168.746 134.059 157.294 136.4 153.67 133.688C150.046 130.977 148.935 121.663 148.155 117.845C147.375 114.028 144.519 100.572 144.386 98.0543C144.254 95.5367 142.954 91.3254 134.934 93.4073C126.913 95.4892 105.891 100.359 102.266 100.879C98.6417 101.398 92.6226 101.343 88.8655 94.4856C85.1084 87.6282 78.3015 75.665 78.3015 75.665C78.3015 75.665 81.1776 110.146 81.6996 115.39C82.2216 120.635 85.7274 130.524 94.9088 130.125C104.098 129.729 109.403 129.659 111.921 129.526C114.446 129.396 121.107 127.51 122.404 133.331C123.7 139.152 125.719 153.19 126.439 156.555C127.16 159.921 127.877 169.755 138.871 169.093C149.874 168.433 162.811 166.811 165.522 166.418C168.232 166.024 172.635 164.472 176.786 170.809C180.937 177.147 184.169 181.998 184.169 181.998L205.107 152.411L205.117 152.404Z" fill="white"/>
</mask>
<g mask="url(#mask5_5624_8189)">
<path d="M205.117 152.404C205.117 152.404 198.05 140.248 193.265 135.854C188.472 131.457 177.925 133.669 173.336 133.864C168.746 134.059 157.294 136.4 153.67 133.688C150.047 130.977 148.936 121.663 148.156 117.845C147.375 114.028 144.519 100.572 144.387 98.0543C144.254 95.5367 142.954 91.3254 134.934 93.4073C126.913 95.4892 105.891 100.359 102.266 100.879C98.642 101.398 92.6228 101.343 88.8658 94.4856C85.1087 87.6282 78.3018 75.665 78.3018 75.665C78.3018 75.665 81.1779 110.146 81.6999 115.39C82.2218 120.635 85.7276 130.524 94.909 130.125C104.099 129.729 109.403 129.659 111.921 129.526C114.447 129.396 121.108 127.51 122.404 133.331C123.7 139.152 125.719 153.19 126.44 156.555C127.16 159.921 127.877 169.755 138.872 169.093C149.874 168.433 162.811 166.811 165.522 166.418C168.232 166.024 172.635 164.472 176.786 170.809C180.937 177.147 184.17 181.998 184.17 181.998L205.107 152.411L205.117 152.404Z" fill="#8A949B" stroke="black" stroke-linecap="round" stroke-linejoin="round"/>
<path d="M78.1656 69.8986C78.1656 69.8986 84.5463 111.046 85.1271 115.114C85.7079 119.182 88.0459 125.783 97.2356 125.387C106.425 124.99 113.621 125.253 117.214 124.866C120.51 124.515 126.094 124.335 127.329 135.386C128.4 144.945 131.098 155.177 131.618 158.802C132.137 162.426 135.568 165.398 141.911 164.488C148.254 163.577 163.608 161.843 167.101 162.028C170.594 162.213 173.689 160.081 179.501 167.169C183.085 171.534 189.606 182.817 189.606 182.817L183.787 185.734C183.787 185.734 170.896 170.024 168.96 170.994C167.024 171.964 129.558 173.426 129.558 173.426L120.62 165.933L118.583 135.721L81.7626 132.004C81.7626 132.004 75.7329 122.238 75.4094 119.973L72.2021 75.1361L78.151 69.8864L78.1656 69.8986Z" fill="#616A6D"/>
<path d="M76.2236 72.303C76.2236 72.303 86.48 100.366 88.6188 107.218C90.7575 114.07 97.9412 114.198 100.015 114.127C102.087 114.065 116.762 112.722 123.037 111.357C129.313 109.993 132.839 113.67 133.231 116.389C133.622 119.108 137.046 137.469 138.671 143.937C140.296 150.405 147.352 151.782 150.071 151.39C152.789 150.999 157.822 151.337 166.422 150.101C175.022 148.865 179.625 150.284 181.433 151.639C183.24 152.993 188.49 158.942 188.49 158.942L197.859 167.098L217.195 144.521L169.126 88.5281C169.126 88.5281 96.009 60.7672 95.1797 60.5715C94.3504 60.3758 76.2173 72.2927 76.2173 72.2927L76.2236 72.303Z" fill="#C6D3DB"/>
<path d="M77.5913 72.2933C77.5913 72.2933 83.5573 91.307 85.1833 94.5448C86.8092 97.7825 88.8148 105.347 97.3598 105.271C105.903 105.204 133.135 98.5071 135.139 97.9908C137.143 97.4744 140.504 95.1421 141.356 101.025C142.199 106.915 145.522 126.775 146.234 130.139C146.947 133.503 150.644 139.908 157.047 139.449C163.45 138.991 178.782 137.942 181.829 138.198C184.869 138.451 188.626 137.219 191.924 140.904C195.222 144.589 203.586 159.336 203.586 159.336L215.545 146.058L184.52 111.921L159.046 127.603L146.25 73.9811L99.5525 94.7929L77.5996 72.2953L77.5913 72.2933Z" fill="#DFEBEF"/>
<path d="M78.8137 78.4298C78.8137 78.4298 84.101 115.047 86.8283 121.074C89.5555 127.102 91.214 127.494 92.8726 127.885C94.5312 128.276 92.9655 134.911 92.9655 134.911L70.9662 127.968L73.885 67.3738L78.8137 78.4298Z" fill="white"/>
<path d="M90.8423 99.3909C90.8423 99.3909 93.0321 105.099 97.3518 105.269C101.671 105.44 138.347 97.1196 142.67 96.1262C146.993 95.1328 143.694 79.4712 143.694 79.4712L90.8423 99.3909Z" fill="white"/>
<path d="M123.752 134.297L127.991 142.301C127.991 142.301 130.81 154.917 131.624 158.812C132.612 163.528 135.146 167.628 139.097 169.435C141.547 170.556 128.167 171.233 128.167 171.233L119.101 157.713L121.115 138.052L123.752 134.297Z" fill="white"/>
<path d="M160.428 136.474L171.4 138.73C171.4 138.73 183.469 138.261 185.98 138.232C188.491 138.203 191.176 137.952 194.931 140.589C198.686 143.226 193.087 126.146 193.087 126.146L165.18 125.689L160.428 136.474Z" fill="white"/>
</g>
<path d="M205.117 152.404C205.117 152.404 198.049 140.248 193.265 135.854C188.472 131.457 177.925 133.669 173.335 133.864C168.746 134.059 157.294 136.4 153.67 133.688C150.046 130.977 148.935 121.663 148.155 117.845C147.375 114.028 144.519 100.572 144.386 98.0543C144.254 95.5367 142.954 91.3254 134.934 93.4073C126.913 95.4892 105.891 100.359 102.266 100.879C98.6417 101.398 92.6226 101.343 88.8655 94.4856C85.1084 87.6282 78.3015 75.665 78.3015 75.665C78.3015 75.665 81.1776 110.146 81.6996 115.39C82.2216 120.635 85.7274 130.524 94.9088 130.125C104.098 129.729 109.403 129.659 111.921 129.526C114.446 129.396 121.107 127.51 122.404 133.331C123.7 139.152 125.719 153.19 126.439 156.555C127.16 159.921 127.877 169.755 138.871 169.093C149.874 168.433 162.811 166.811 165.522 166.418C168.232 166.024 172.635 164.472 176.786 170.809C180.937 177.147 184.169 181.998 184.169 181.998L205.107 152.411L205.117 152.404Z" stroke="black" stroke-width="4" stroke-linecap="round" stroke-linejoin="round"/>
<path d="M240.699 145.901L189.712 214.009L180.886 178.29L203.159 148.537L240.699 145.901Z" fill="#5A6068" stroke="black" stroke-width="4" stroke-linecap="round" stroke-linejoin="round"/>
<path d="M220.716 147.961C220.716 147.961 214.227 177.536 184.213 195.167L189.71 214.018L240.697 145.909L220.714 147.97L220.716 147.961Z" fill="#3F4447"/>
<path d="M240.699 145.901L189.712 214.009L180.886 178.29L203.159 148.537L240.699 145.901Z" stroke="black" stroke-width="4" stroke-linecap="round" stroke-linejoin="round"/>
<path d="M206.427 164.699C206.427 164.699 205.398 170.392 197.513 176.612L181.416 162.762L188.398 153.432L206.425 164.707L206.427 164.699Z" fill="#2E3135" stroke="black" stroke-width="4" stroke-linecap="round" stroke-linejoin="round"/>
<path d="M188.287 153.904L211.741 177.57L181.988 162.048L188.287 153.904Z" fill="#2E3135" stroke="black" stroke-width="4" stroke-linecap="round" stroke-linejoin="round"/>
<path d="M299.865 255.256L281.991 237.03L288.193 228.741L310.527 241.015C310.527 241.015 309.562 248.78 299.865 255.256Z" fill="#2E3135" stroke="black" stroke-width="4" stroke-linecap="round" stroke-linejoin="round"/>
<path d="M288.193 228.741L324.263 262.607L281.991 237.03L288.193 228.741Z" fill="#2E3135" stroke="black" stroke-width="4" stroke-linecap="round" stroke-linejoin="round"/>
<path d="M190.383 156.15L185.109 163.66L181.988 162.048L188.287 153.904L190.383 156.15Z" fill="white"/>
<path d="M188.287 153.904L211.741 177.57L181.988 162.048L188.287 153.904Z" stroke="black" stroke-width="4" stroke-linecap="round" stroke-linejoin="round"/>
<path d="M290.79 231.499L288.193 228.741L281.991 237.03L285.516 239.009L290.79 231.499Z" fill="white"/>
<path d="M288.193 228.741L324.263 262.607L281.991 237.03L288.193 228.741Z" stroke="black" stroke-width="4" stroke-linecap="round" stroke-linejoin="round"/>
</svg>
