<svg width="400" height="400" viewBox="0 0 400 400" fill="none" xmlns="http://www.w3.org/2000/svg">
<path d="M214.047 148.585C214.047 148.585 209.437 127.755 208.788 126.464C208.138 125.172 245.724 121.383 245.724 121.383L219.402 132.794L225.433 150.642L214.047 148.585Z" fill="#965B00" stroke="black" stroke-width="4" stroke-linecap="round" stroke-linejoin="round"/>
<mask id="mask0_7149_5890" style="mask-type:luminance" maskUnits="userSpaceOnUse" x="208" y="121" width="38" height="30">
<path d="M214.045 148.86C214.045 148.86 209.436 128.03 208.786 126.739C208.137 125.447 245.722 121.658 245.722 121.658L219.4 133.069L225.431 150.917L214.045 148.86Z" fill="white"/>
</mask>
<g mask="url(#mask0_7149_5890)">
<path d="M217.513 146.929L213.575 128.63L248.415 121.969L205.106 97.7412L201.136 125.695L205.515 144.238L215.755 152.783L217.513 146.929Z" fill="white"/>
</g>
<path d="M214.047 148.585C214.047 148.585 209.437 127.755 208.788 126.464C208.138 125.172 245.724 121.383 245.724 121.383L219.402 132.794L225.433 150.642L214.047 148.585Z" stroke="black" stroke-width="4" stroke-linecap="round" stroke-linejoin="round"/>
<path d="M184.638 188.395C184.638 188.395 163.355 189.842 161.928 189.584C160.501 189.326 167.461 226.46 167.461 226.46L170.992 197.991L189.82 198.749L184.636 188.403L184.638 188.395Z" fill="#965B00" stroke="black" stroke-width="4" stroke-linecap="round" stroke-linejoin="round"/>
<mask id="mask1_7149_5890" style="mask-type:luminance" maskUnits="userSpaceOnUse" x="162" y="188" width="29" height="39">
<path d="M185.308 188.395C185.308 188.395 164.025 189.842 162.598 189.584C161.171 189.326 168.131 226.46 168.131 226.46L171.662 197.991L190.49 198.749L185.306 188.403L185.308 188.395Z" fill="white"/>
</mask>
<g mask="url(#mask1_7149_5890)">
<path d="M165.903 192.237L169.582 236.004L160.944 239.218L157.321 184.084L165.903 192.237Z" fill="white"/>
</g>
<path d="M184.638 188.395C184.638 188.395 163.355 189.842 161.928 189.584C160.501 189.326 167.461 226.46 167.461 226.46L170.992 197.991L189.82 198.749L184.636 188.403L184.638 188.395Z" stroke="black" stroke-width="4" stroke-linecap="round" stroke-linejoin="round"/>
<path d="M310.573 213.965C310.573 213.965 309.523 193.783 310.033 192.546C310.544 191.31 353.511 189.535 353.511 189.535L319.685 200.173L322.029 221.326L310.573 213.965Z" fill="#965B00" stroke="black" stroke-width="4" stroke-linecap="round" stroke-linejoin="round"/>
<mask id="mask2_7149_5890" style="mask-type:luminance" maskUnits="userSpaceOnUse" x="309" y="190" width="44" height="33">
<path d="M309.9 214.657C309.9 214.657 308.849 194.475 309.36 193.238C309.871 192.002 352.838 190.227 352.838 190.227L319.011 200.865L321.356 222.018L309.9 214.657Z" fill="white"/>
</mask>
<g mask="url(#mask2_7149_5890)">
<path d="M313.887 216.789L313.413 196.541L342.568 191.156L307.767 175.948L294.051 185.844L313.887 216.789Z" fill="white"/>
</g>
<path d="M310.573 213.965C310.573 213.965 309.523 193.783 310.033 192.546C310.544 191.31 353.511 189.535 353.511 189.535L319.685 200.173L322.029 221.326L310.573 213.965Z" stroke="black" stroke-width="4" stroke-linecap="round" stroke-linejoin="round"/>
<path d="M274.316 262.393C274.316 262.393 254.652 267.068 253.614 267.908C252.575 268.749 262.969 310.475 262.969 310.475L263.649 275.022L284.606 271.318L274.314 262.401L274.316 262.393Z" fill="#965B00" stroke="black" stroke-width="4" stroke-linecap="round" stroke-linejoin="round"/>
<mask id="mask3_7149_5890" style="mask-type:luminance" maskUnits="userSpaceOnUse" x="249" y="255" width="32" height="49">
<path d="M270.302 255.008C270.302 255.008 250.638 259.682 249.6 260.523C248.561 261.363 258.954 303.09 258.954 303.09L259.635 267.636L280.592 263.932L270.3 255.016L270.302 255.008Z" fill="white"/>
</mask>
<g mask="url(#mask3_7149_5890)">
<path d="M260.554 266.665L269.579 331.394L251.205 301.669L254.449 265.665L260.554 266.665Z" fill="white"/>
</g>
<path d="M274.316 262.393C274.316 262.393 254.652 267.068 253.614 267.908C252.575 268.749 262.969 310.475 262.969 310.475L263.649 275.022L284.606 271.318L274.314 262.401L274.316 262.393Z" stroke="black" stroke-width="4" stroke-linecap="round" stroke-linejoin="round"/>
<path d="M203.389 172.526L193.698 185.472C193.698 185.472 249.121 226.961 254.56 231.029C260 235.097 275.018 244.725 271.474 263.491L288.564 276.287C288.564 276.287 303.183 271.876 315.588 255.298C327.992 238.719 327.918 223.714 327.918 223.714L310.567 210.724C310.567 210.724 296.211 220.179 274.462 203.902C252.707 187.614 214.121 158.731 214.121 158.731C214.121 158.731 202.034 174.334 203.391 172.518L203.389 172.526Z" fill="#965B00" stroke="black" stroke-width="4" stroke-linecap="round" stroke-linejoin="round"/>
<path d="M296.323 273.347L279.556 260.259C279.556 260.259 279.283 242.274 263.487 230.448C247.692 218.622 202.372 184.701 202.372 184.701" stroke="#EAA10F" stroke-width="2" stroke-linecap="round" stroke-linejoin="round"/>
<path d="M306.875 265.323L287.456 250.786C287.456 250.786 289.628 240.32 270.209 225.783C250.781 211.244 206.244 177.901 206.244 177.901" stroke="#EAA10F" stroke-width="2" stroke-linecap="round" stroke-linejoin="round"/>
<path d="M327.405 231.822L310.124 219.427C310.124 219.427 292.786 224.23 276.99 212.404L215.875 166.657" stroke="#EAA10F" stroke-width="2" stroke-linecap="round" stroke-linejoin="round"/>
<path d="M322.677 244.215L303.258 229.678C303.258 229.678 293.832 234.711 274.404 220.172C254.977 205.633 210.44 172.291 210.44 172.291" stroke="#EAA10F" stroke-width="2" stroke-linecap="round" stroke-linejoin="round"/>
<path d="M268.053 243.165L267.553 199.165L276.053 205.165L278.553 268.165L273.053 263.165L271.053 247.665L268.053 243.165Z" fill="#ECA742"/>
<path d="M250.553 230.665L249.553 186.665L264.053 195.165L265.053 240.165L250.553 230.665Z" fill="#ECA742"/>
<mask id="mask4_7149_5890" style="mask-type:luminance" maskUnits="userSpaceOnUse" x="193" y="156" width="136" height="119">
<path d="M203.541 170.615L193.85 183.561C193.85 183.561 249.273 225.049 254.713 229.117C260.152 233.185 275.171 242.814 271.626 261.579L288.716 274.376C288.716 274.376 303.336 269.964 315.74 253.386C328.145 236.808 328.07 221.802 328.07 221.802L310.72 208.813C310.72 208.813 296.363 218.268 274.614 201.99C252.859 185.703 214.273 156.82 214.273 156.82C214.273 156.82 202.187 172.422 203.543 170.606L203.541 170.615Z" fill="white"/>
</mask>
<g mask="url(#mask4_7149_5890)">
<g style="mix-blend-mode:multiply" opacity="0.3">
<path d="M310.564 210.776C310.564 210.776 310.945 223.998 294.638 241.161C281.513 254.969 270.885 265.987 270.885 265.987L288.562 276.296C288.562 276.296 305.122 269.042 315.586 255.306C326.05 241.571 327.916 223.722 327.916 223.722L310.564 210.776Z" fill="black"/>
</g>
<path d="M270.299 201.51C270.299 201.51 280.849 214.269 295.776 217.792C309.144 220.947 314.319 213.413 314.319 213.413L304.964 193.696L270.299 201.51Z" fill="white"/>
<g style="mix-blend-mode:multiply" opacity="0.3">
<path d="M239.991 172.235C239.991 172.235 234.512 195.455 228.79 215.991C228.063 218.586 199.606 200.279 199.606 200.279L231.872 158.263L240 172.237L239.991 172.235Z" fill="black"/>
</g>
<path d="M246.502 223.664C246.502 223.664 265.48 232.949 270.878 241.682C273.615 246.11 275.946 249.882 276.431 255.249C277.157 263.3 274.242 266.823 273.495 267.689C267.246 274.916 240.622 251.176 240.622 251.176L246.502 223.664Z" fill="white"/>
</g>
<path d="M203.389 172.526L193.698 185.472C193.698 185.472 249.121 226.961 254.56 231.029C260 235.097 275.018 244.725 271.474 263.491L288.564 276.287C288.564 276.287 303.183 271.876 315.588 255.298C327.992 238.719 327.918 223.714 327.918 223.714L310.567 210.724C310.567 210.724 296.211 220.179 274.462 203.902C252.707 187.614 214.121 158.731 214.121 158.731C214.121 158.731 202.034 174.334 203.391 172.518L203.389 172.526Z" stroke="black" stroke-width="4" stroke-linecap="round" stroke-linejoin="round"/>
<mask id="mask5_7149_5890" style="mask-type:luminance" maskUnits="userSpaceOnUse" x="78" y="75" width="128" height="107">
<path d="M205.117 152.404C205.117 152.404 198.05 140.248 193.265 135.854C188.472 131.457 177.925 133.669 173.336 133.864C168.746 134.059 157.294 136.4 153.67 133.688C150.047 130.977 148.936 121.663 148.156 117.845C147.375 114.028 144.519 100.572 144.387 98.0543C144.254 95.5367 142.954 91.3254 134.934 93.4073C126.913 95.4892 105.891 100.359 102.266 100.879C98.642 101.398 92.6228 101.343 88.8658 94.4856C85.1087 87.6282 78.3018 75.665 78.3018 75.665C78.3018 75.665 81.1779 110.146 81.6999 115.39C82.2218 120.635 85.7276 130.524 94.909 130.125C104.099 129.729 109.403 129.659 111.921 129.526C114.447 129.396 121.108 127.51 122.404 133.331C123.7 139.152 125.719 153.19 126.44 156.555C127.16 159.921 127.877 169.755 138.872 169.093C149.874 168.433 162.811 166.811 165.522 166.418C168.232 166.024 172.635 164.472 176.786 170.809C180.937 177.147 184.17 181.998 184.17 181.998L205.107 152.411L205.117 152.404Z" fill="white"/>
</mask>
<g mask="url(#mask5_7149_5890)">
<path d="M205.117 152.404C205.117 152.404 198.05 140.248 193.265 135.854C188.472 131.457 177.925 133.669 173.336 133.864C168.746 134.059 157.294 136.4 153.67 133.688C150.047 130.977 148.936 121.663 148.156 117.845C147.375 114.028 144.519 100.572 144.387 98.0543C144.254 95.5367 142.954 91.3254 134.934 93.4073C126.913 95.4892 105.891 100.359 102.266 100.879C98.642 101.398 92.6228 101.343 88.8658 94.4856C85.1087 87.6282 78.3018 75.665 78.3018 75.665C78.3018 75.665 81.1779 110.146 81.6999 115.39C82.2218 120.635 85.7276 130.524 94.909 130.125C104.099 129.729 109.403 129.659 111.921 129.526C114.447 129.396 121.108 127.51 122.404 133.331C123.7 139.152 125.719 153.19 126.44 156.555C127.16 159.921 127.877 169.755 138.872 169.093C149.874 168.433 162.811 166.811 165.522 166.418C168.232 166.024 172.635 164.472 176.786 170.809C180.937 177.147 184.17 181.998 184.17 181.998L205.107 152.411L205.117 152.404Z" fill="#D28F00" stroke="black" stroke-linecap="round" stroke-linejoin="round"/>
<path d="M78.1656 69.8986C78.1656 69.8986 84.5463 111.046 85.1271 115.114C85.7079 119.182 88.0459 125.783 97.2356 125.387C106.425 124.99 113.621 125.253 117.214 124.866C120.51 124.515 126.094 124.335 127.329 135.386C128.4 144.945 131.098 155.177 131.618 158.802C132.137 162.426 135.568 165.398 141.911 164.488C148.254 163.577 163.608 161.843 167.101 162.028C170.594 162.213 173.689 160.081 179.501 167.169C183.085 171.534 189.606 182.817 189.606 182.817L183.787 185.734C183.787 185.734 170.896 170.024 168.96 170.994C167.024 171.964 129.558 173.426 129.558 173.426L120.62 165.933L118.583 135.721L81.7626 132.004C81.7626 132.004 75.7329 122.238 75.4094 119.973L72.2021 75.1361L78.151 69.8864L78.1656 69.8986Z" fill="#694000"/>
<path d="M76.2236 72.303C76.2236 72.303 86.48 100.366 88.6188 107.218C90.7575 114.07 97.9412 114.198 100.015 114.127C102.087 114.065 116.762 112.722 123.037 111.357C129.313 109.993 132.839 113.67 133.231 116.389C133.622 119.108 137.046 137.469 138.671 143.937C140.296 150.405 147.352 151.782 150.071 151.39C152.789 150.999 157.822 151.337 166.422 150.101C175.022 148.865 179.625 150.284 181.433 151.639C183.24 152.993 188.49 158.942 188.49 158.942L197.859 167.098L217.195 144.521L169.126 88.5281C169.126 88.5281 96.009 60.7672 95.1797 60.5715C94.3504 60.3758 76.2173 72.2927 76.2173 72.2927L76.2236 72.303Z" fill="#FFCA1B"/>
<path d="M77.5916 72.2933C77.5916 72.2933 83.5576 91.307 85.1835 94.5448C86.8095 97.7825 88.8151 105.347 97.3601 105.271C105.903 105.204 133.135 98.5071 135.139 97.9908C137.143 97.4744 140.504 95.1421 141.357 101.025C142.199 106.915 145.523 126.775 146.235 130.139C146.947 133.503 150.644 139.908 157.047 139.449C163.45 138.991 178.782 137.942 181.829 138.198C184.869 138.451 188.626 137.219 191.924 140.904C195.222 144.589 203.587 159.336 203.587 159.336L215.545 146.058L184.52 111.921L159.046 127.603L146.251 73.9811L99.5528 94.7929L77.5999 72.2953L77.5916 72.2933Z" fill="white"/>
<path d="M78.8134 78.4298C78.8134 78.4298 84.1008 115.047 86.828 121.074C89.5552 127.102 91.2138 127.494 92.8724 127.885C94.5309 128.276 92.9653 134.911 92.9653 134.911L70.966 127.968L73.8848 67.3738L78.8134 78.4298Z" fill="white"/>
<path d="M90.8423 99.3909C90.8423 99.3909 93.0321 105.099 97.3518 105.269C101.671 105.44 138.347 97.1196 142.67 96.1262C146.993 95.1328 143.694 79.4712 143.694 79.4712L90.8423 99.3909Z" fill="white"/>
<path d="M123.752 134.297L127.991 142.301C127.991 142.301 130.81 154.917 131.624 158.812C132.612 163.528 135.146 167.628 139.097 169.435C141.547 170.556 128.167 171.233 128.167 171.233L119.101 157.713L121.115 138.052L123.752 134.297Z" fill="white"/>
<path d="M160.428 136.474L171.4 138.73C171.4 138.73 183.469 138.261 185.98 138.232C188.491 138.203 191.176 137.952 194.931 140.589C198.686 143.226 193.087 126.146 193.087 126.146L165.18 125.689L160.428 136.474Z" fill="white"/>
</g>
<path d="M158.053 135.665L159.053 164.165L170.553 164.665L179.053 169.665L176.553 134.665L158.053 135.665Z" fill="#FFDD55"/>
<path d="M111.053 99.165L112.053 126.665L118.053 127.665L126.553 132.665L124.053 97.665L111.053 99.165Z" fill="#FFDD55"/>
<path d="M147.053 166.165L146.053 119.165L150.053 130.665L154.053 134.165L155.053 165.665L147.053 166.165Z" fill="#FFDD55"/>
<path d="M205.117 152.404C205.117 152.404 198.05 140.248 193.265 135.854C188.472 131.457 177.925 133.669 173.336 133.864C168.746 134.059 157.294 136.4 153.67 133.688C150.047 130.977 148.936 121.663 148.156 117.845C147.375 114.028 144.519 100.572 144.387 98.0543C144.254 95.5367 142.954 91.3254 134.934 93.4073C126.913 95.4892 105.891 100.359 102.266 100.879C98.642 101.398 92.6228 101.343 88.8658 94.4856C85.1087 87.6282 78.3018 75.665 78.3018 75.665C78.3018 75.665 81.1779 110.146 81.6999 115.39C82.2218 120.635 85.7276 130.524 94.909 130.125C104.099 129.729 109.403 129.659 111.921 129.526C114.447 129.396 121.108 127.51 122.404 133.331C123.7 139.152 125.719 153.19 126.44 156.555C127.16 159.921 127.877 169.755 138.872 169.093C149.874 168.433 162.811 166.811 165.522 166.418C168.232 166.024 172.635 164.472 176.786 170.809C180.937 177.147 184.17 181.998 184.17 181.998L205.107 152.411L205.117 152.404Z" stroke="black" stroke-width="4" stroke-linecap="round" stroke-linejoin="round"/>
<path d="M240.699 145.901L189.712 214.009L180.886 178.29L203.159 148.537L240.699 145.901Z" fill="#D28F00" stroke="black" stroke-width="4" stroke-linecap="round" stroke-linejoin="round"/>
<path d="M207.553 187.665L205.053 149.665H222.053L222.553 169.665L207.553 187.665Z" fill="#ECA742"/>
<path d="M220.716 147.961C220.716 147.961 214.227 177.536 184.213 195.167L189.71 214.018L240.697 145.909L220.714 147.97L220.716 147.961Z" fill="#965B00" fill-opacity="0.6"/>
<path d="M240.699 145.901L189.712 214.009L180.886 178.29L203.159 148.537L240.699 145.901Z" stroke="black" stroke-width="4" stroke-linecap="round" stroke-linejoin="round"/>
<path d="M206.427 164.699C206.427 164.699 205.399 170.392 197.514 176.612L181.416 162.762L188.399 153.432L206.425 164.707L206.427 164.699Z" fill="#965B00" stroke="black" stroke-width="4" stroke-linecap="round" stroke-linejoin="round"/>
<path d="M188.287 153.904L211.741 177.57L181.988 162.048L188.287 153.904Z" fill="#965B00" stroke="black" stroke-width="4" stroke-linecap="round" stroke-linejoin="round"/>
<path d="M299.866 255.256L281.991 237.03L288.193 228.741L310.528 241.015C310.528 241.015 309.562 248.78 299.866 255.256Z" fill="#965B00" stroke="black" stroke-width="4" stroke-linecap="round" stroke-linejoin="round"/>
<path d="M288.193 228.741L324.264 262.607L281.991 237.03L288.193 228.741Z" fill="#965B00" stroke="black" stroke-width="4" stroke-linecap="round" stroke-linejoin="round"/>
<path d="M190.384 156.15L185.109 163.66L181.988 162.048L188.287 153.904L190.384 156.15Z" fill="white"/>
<path d="M188.287 153.904L211.741 177.57L181.988 162.048L188.287 153.904Z" stroke="black" stroke-width="4" stroke-linecap="round" stroke-linejoin="round"/>
<path d="M290.791 231.499L288.193 228.741L281.991 237.03L285.516 239.009L290.791 231.499Z" fill="white"/>
<path d="M288.193 228.741L324.264 262.607L281.991 237.03L288.193 228.741Z" stroke="black" stroke-width="4" stroke-linecap="round" stroke-linejoin="round"/>
<path d="M81.0537 86.165C83.0537 94.8317 87.6537 112.765 90.0537 115.165C93.0537 118.165 121.554 111.665 127.054 114.665C132.554 117.665 135.054 148.165 140.054 151.165C145.054 154.165 167.554 151.665 173.054 152.665C177.454 153.465 182.887 157.665 185.054 159.665" stroke="black" stroke-width="2"/>
</svg>
