<svg width="400" height="400" viewBox="0 0 400 400" fill="none" xmlns="http://www.w3.org/2000/svg">
<path d="M287.025 152.685C287.025 152.685 260.155 95.4451 255.485 86.1051C247.305 69.7551 230.955 56.9051 213.435 56.9051C195.915 56.9051 179.555 65.0851 166.705 86.1051C153.855 107.135 129.325 153.855 129.325 153.855L149.185 151.515C149.185 151.515 174.885 103.625 179.555 95.4451C184.225 87.2651 195.905 74.4151 212.265 74.4151C225.115 74.4151 236.795 84.9251 240.305 91.9351C242.185 95.7051 269.505 153.845 269.505 153.845L287.025 152.675V152.685Z" fill="#5B5652"/>
<mask id="mask0_5624_6793" style="mask-type:luminance" maskUnits="userSpaceOnUse" x="129" y="56" width="159" height="98">
<path d="M287.025 152.685C287.025 152.685 260.155 95.4451 255.485 86.1051C247.305 69.7551 230.955 56.9051 213.435 56.9051C195.915 56.9051 179.555 65.0851 166.705 86.1051C153.855 107.135 129.325 153.855 129.325 153.855L149.185 151.515C149.185 151.515 174.885 103.625 179.555 95.4451C184.225 87.2651 195.905 74.4151 212.265 74.4151C225.115 74.4151 236.795 84.9251 240.305 91.9351C242.185 95.7051 269.505 153.845 269.505 153.845L287.025 152.675V152.685Z" fill="white"/>
</mask>
<g mask="url(#mask0_5624_6793)">
<path d="M136.805 153.965C136.805 153.965 173.125 86.6851 180.135 77.3351C184.625 71.3551 194.385 62.4551 210.625 57.6351C226.865 52.8051 204.665 28.2751 204.665 28.2751L108.875 104.205C108.875 104.205 120.555 156.775 121.725 156.775C122.895 156.775 136.795 153.965 136.795 153.965H136.805Z" fill="white"/>
</g>
<path d="M287.025 152.685C287.025 152.685 260.155 95.4451 255.485 86.1051C247.305 69.7551 230.955 56.9051 213.435 56.9051C195.915 56.9051 179.555 65.0851 166.705 86.1051C153.855 107.135 129.325 153.855 129.325 153.855L149.185 151.515C149.185 151.515 174.885 103.625 179.555 95.4451C184.225 87.2651 195.905 74.4151 212.265 74.4151C225.115 74.4151 236.795 84.9251 240.305 91.9351C242.185 95.7051 269.505 153.845 269.505 153.845L287.025 152.675V152.685Z" stroke="black" stroke-width="4.67" stroke-miterlimit="10"/>
<path d="M112.965 151.515C112.965 151.515 80.2549 205.255 76.7549 211.095C73.2549 216.935 52.2249 246.135 84.9349 263.665C119.025 281.925 179.555 290.535 201.755 343.095C201.755 343.095 222.115 299.885 320.905 264.825C357.115 251.975 346.605 223.935 339.595 212.255C321.755 182.525 298.705 151.515 298.705 151.515H112.965Z" fill="#403E3B"/>
<mask id="mask1_5624_6793" style="mask-type:luminance" maskUnits="userSpaceOnUse" x="66" y="151" width="281" height="193">
<path d="M112.965 151.515C112.965 151.515 80.2549 205.255 76.7549 211.095C73.2549 216.935 52.2249 246.135 84.9349 263.665C119.025 281.925 179.555 290.535 201.755 343.095C201.755 343.095 222.115 299.885 320.905 264.825C357.115 251.975 346.605 223.935 339.595 212.255C321.755 182.525 298.705 151.515 298.705 151.515H112.965Z" fill="white"/>
</mask>
<g mask="url(#mask1_5624_6793)">
<path d="M81.4248 222.775C81.4248 222.775 98.9448 219.275 103.615 230.955L137.495 164.375L117.635 162.035L81.4248 222.775Z" fill="#0C9AC1"/>
<path d="M111.805 234.455L145.685 165.535H195.915V236.795C195.915 236.795 178.395 221.605 158.535 221.605C138.675 221.605 111.805 234.455 111.805 234.455Z" fill="#0C9AC1"/>
<path d="M258.985 143.335C258.985 143.335 290.525 207.585 294.025 215.765C297.525 223.945 310.375 242.635 289.355 260.155C268.335 277.675 199.405 311.555 201.745 350.105L371.125 250.815L298.695 139.845L258.975 143.345L258.985 143.335Z" fill="#222222"/>
<path d="M294.035 234.455L260.155 164.365L207.585 165.535V236.795C207.585 236.795 225.125 222.405 244.965 221.605C274.165 220.435 294.025 234.455 294.025 234.455H294.035Z" fill="#0C9AC1"/>
<path d="M276.515 164.365L294.035 162.025L337.255 229.775C337.255 229.775 322.065 222.765 309.215 234.445L276.505 164.355L276.515 164.365Z" fill="#0C9AC1"/>
<path d="M76.755 233.285C76.755 233.285 88.435 227.445 101.285 240.295C121.725 285.265 159.105 285.265 163.785 299.285C163.785 299.285 164.495 317.635 158.525 305.705C153.855 296.355 132.825 281.175 123.485 275.335C111.075 267.575 70.915 254.305 76.755 233.285Z" fill="#0C9AC1"/>
<path d="M194.735 313.885V248.465C194.735 248.465 179.545 232.115 159.695 232.115C139.845 232.115 115.305 243.795 115.305 243.795C115.305 243.795 125.815 263.655 141.005 272.995C156.195 282.335 180.725 294.025 194.745 313.885H194.735Z" fill="#0C9AC1"/>
<path d="M206.425 315.055L207.595 249.635C207.595 249.635 222.785 232.115 253.155 233.285C283.525 234.455 292.875 247.305 292.875 247.305C292.875 247.305 284.695 262.495 243.815 284.685C212.125 301.885 206.435 315.055 206.435 315.055H206.425Z" fill="#0C9AC1"/>
<path d="M338.425 240.295C338.425 240.295 327.915 232.115 308.055 246.135C308.055 246.135 302.215 257.815 289.365 267.165C279.915 274.035 240.305 297.535 240.235 305.415C240.235 305.415 273.305 279.535 296.375 269.505C323.245 257.825 334.925 249.645 338.425 240.305V240.295Z" fill="#0C9AC1"/>
<path d="M127.575 221.015L150.935 174.285H188.315V223.345C188.315 223.345 180.135 213.995 160.275 213.995C140.415 213.995 127.565 221.005 127.565 221.005L127.575 221.015Z" fill="#00E1FF"/>
<path d="M279.435 221.015L254.905 174.285H216.355V223.345C216.355 223.345 226.865 212.835 246.725 212.835C266.585 212.835 279.435 221.015 279.435 221.015Z" fill="#00E1FF"/>
<path d="M215.185 295.785L216.055 252.825C216.055 252.825 227.345 241.315 249.915 242.085C272.485 242.855 279.435 248.955 279.435 248.955C279.435 248.955 273.355 261.265 242.965 275.835C219.405 287.135 215.185 295.785 215.185 295.785Z" fill="#00E1FF"/>
<path d="M185.975 295.785V251.865C185.975 251.865 175.475 240.885 161.755 240.885C148.035 240.885 129.905 248.725 129.905 248.725C129.905 248.725 138.335 262.055 148.835 268.335C159.335 274.605 176.285 282.455 185.975 295.785Z" fill="#00E1FF"/>
<path d="M286.435 170.785L293.445 169.615L326.155 221.765C326.155 221.765 319.145 217.505 312.135 224.515L286.435 170.775V170.785Z" fill="#00E1FF"/>
<path d="M330.825 244.385C330.825 244.385 321.475 243.215 310.965 250.225C310.965 250.225 306.295 257.235 293.445 266.575C283.995 273.445 253.725 289.935 240.225 305.405C240.225 305.405 267.745 280.595 307.465 261.905C317.875 257.005 327.325 250.225 330.825 244.385Z" fill="#00E1FF"/>
<path d="M83.1848 238.545C83.1848 238.545 89.0248 236.205 96.0348 243.215C120.565 284.105 146.265 282.935 163.785 299.285C163.785 299.285 164.495 317.635 158.525 305.705C153.855 296.355 138.085 284.095 123.485 275.335C110.935 267.805 83.1848 252.555 83.1848 238.535V238.545Z" fill="#00E1FF"/>
<path d="M90.1848 217.515C90.1848 217.515 97.1948 216.345 101.865 222.185L128.735 169.615L119.385 168.445L90.1848 217.505V217.515Z" fill="#00E1FF"/>
<path d="M120.565 149.765C120.565 149.765 90.1949 199.995 85.5249 208.175C80.8549 216.355 72.6749 226.865 72.6749 236.215C72.6749 243.225 73.8449 254.905 106.555 270.095C143.565 287.275 180.375 313.315 180.375 313.315L141.595 330.835C141.595 330.835 24.7749 259.575 24.7749 257.245C24.7749 254.915 75.0049 148.605 75.0049 148.605L129.905 132.255L120.555 149.775L120.565 149.765Z" fill="white"/>
</g>
<path d="M112.965 151.515C112.965 151.515 80.2549 205.255 76.7549 211.095C73.2549 216.935 52.2249 246.135 84.9349 263.665C119.025 281.925 179.555 290.535 201.755 343.095C201.755 343.095 222.115 299.885 320.905 264.825C357.115 251.975 346.605 223.935 339.595 212.255C321.755 182.525 298.705 151.515 298.705 151.515H112.965Z" stroke="black" stroke-width="4.67" stroke-miterlimit="10"/>
<path d="M320.905 176.045H347.765L345.435 197.075L305.715 190.065L277.675 215.765L297.535 180.715L339.595 186.555L343.095 179.545L320.905 176.045Z" fill="#00E1FF" stroke="white" stroke-width="2.34" stroke-linecap="round" stroke-linejoin="round"/>
<path d="M320.905 222.775L352.445 205.245L350.105 227.445L346.595 215.765L320.905 222.775Z" fill="#00E1FF" stroke="white" stroke-width="2.34" stroke-linecap="round" stroke-linejoin="round"/>
<path d="M82.595 179.545L115.305 204.075L143.345 194.735L198.245 209.925L145.675 206.415L116.475 220.435L82.595 179.545Z" fill="#00E1FF" stroke="white" stroke-width="2.34" stroke-linecap="round" stroke-linejoin="round"/>
<path d="M275.345 268.325L256.655 251.975L228.615 271.835L214.595 262.485L229.785 284.685L255.485 261.315L275.345 268.325Z" fill="#00E1FF" stroke="white" stroke-width="2.34" stroke-linecap="round" stroke-linejoin="round"/>
<path d="M58.0649 214.595L55.7249 229.775L74.4149 234.455L84.9349 251.975L68.5749 239.125L47.5549 235.625L58.0649 214.595Z" fill="#00E1FF" stroke="white" stroke-width="2.34" stroke-linecap="round" stroke-linejoin="round"/>
<path d="M199.415 315.055L227.445 323.235L232.125 315.055L242.635 317.395L243.215 307.465L253.145 325.565L235.625 323.235L232.125 332.575L199.415 315.055Z" fill="#00E1FF" stroke="white" stroke-width="2.34" stroke-linecap="round" stroke-linejoin="round"/>
<path d="M187.735 292.855L153.855 281.175L132.825 290.525L114.725 280.595L132.825 301.035L155.025 290.525L187.735 292.855Z" fill="#00E1FF" stroke="white" stroke-width="2.34" stroke-linecap="round" stroke-linejoin="round"/>
<path d="M236.205 184.805C237.497 184.805 238.545 183.757 238.545 182.465C238.545 181.173 237.497 180.125 236.205 180.125C234.913 180.125 233.865 181.173 233.865 182.465C233.865 183.757 234.913 184.805 236.205 184.805Z" fill="white"/>
<path d="M175.465 238.545C176.758 238.545 177.805 237.497 177.805 236.205C177.805 234.913 176.758 233.865 175.465 233.865C174.173 233.865 173.125 234.913 173.125 236.205C173.125 237.497 174.173 238.545 175.465 238.545Z" fill="white"/>
<path d="M316.815 239.715C318.107 239.715 319.155 238.667 319.155 237.375C319.155 236.083 318.107 235.035 316.815 235.035C315.523 235.035 314.475 236.083 314.475 237.375C314.475 238.667 315.523 239.715 316.815 239.715Z" fill="white"/>
<path d="M252.565 278.265C253.857 278.265 254.905 277.217 254.905 275.925C254.905 274.633 253.857 273.585 252.565 273.585C251.273 273.585 250.225 274.633 250.225 275.925C250.225 277.217 251.273 278.265 252.565 278.265Z" fill="white"/>
<path d="M121.725 162.615C123.017 162.615 124.065 161.567 124.065 160.275C124.065 158.983 123.017 157.935 121.725 157.935C120.433 157.935 119.385 158.983 119.385 160.275C119.385 161.567 120.433 162.615 121.725 162.615Z" fill="white"/>
<path d="M309.805 176.635C311.097 176.635 312.145 175.587 312.145 174.295C312.145 173.003 311.097 171.955 309.805 171.955C308.513 171.955 307.465 173.003 307.465 174.295C307.465 175.587 308.513 176.635 309.805 176.635Z" fill="white"/>
<path d="M261.905 159.105C263.198 159.105 264.245 158.057 264.245 156.765C264.245 155.473 263.198 154.425 261.905 154.425C260.613 154.425 259.565 155.473 259.565 156.765C259.565 158.057 260.613 159.105 261.905 159.105Z" fill="white"/>
<path d="M212.845 178.965C214.137 178.965 215.185 177.917 215.185 176.625C215.185 175.333 214.137 174.285 212.845 174.285C211.553 174.285 210.505 175.333 210.505 176.625C210.505 177.917 211.553 178.965 212.845 178.965Z" fill="white"/>
<path d="M192.985 164.955C194.277 164.955 195.325 163.908 195.325 162.615C195.325 161.323 194.277 160.275 192.985 160.275C191.692 160.275 190.645 161.323 190.645 162.615C190.645 163.908 191.692 164.955 192.985 164.955Z" fill="white"/>
<path d="M291.115 263.075C292.407 263.075 293.455 262.027 293.455 260.735C293.455 259.443 292.407 258.395 291.115 258.395C289.823 258.395 288.775 259.443 288.775 260.735C288.775 262.027 289.823 263.075 291.115 263.075Z" fill="white"/>
<path d="M320.315 265.415C321.607 265.415 322.655 264.368 322.655 263.075C322.655 261.783 321.607 260.735 320.315 260.735C319.023 260.735 317.975 261.783 317.975 263.075C317.975 264.368 319.023 265.415 320.315 265.415Z" fill="white"/>
<path d="M166.115 247.885C167.407 247.885 168.455 246.837 168.455 245.545C168.455 244.253 167.407 243.205 166.115 243.205C164.823 243.205 163.775 244.253 163.775 245.545C163.775 246.837 164.823 247.885 166.115 247.885Z" fill="white"/>
<path d="M106.545 265.415C107.837 265.415 108.885 264.368 108.885 263.075C108.885 261.783 107.837 260.735 106.545 260.735C105.252 260.735 104.205 261.783 104.205 263.075C104.205 264.368 105.252 265.415 106.545 265.415Z" fill="white"/>
<path d="M133.415 229.195C134.707 229.195 135.755 228.148 135.755 226.855C135.755 225.563 134.707 224.515 133.415 224.515C132.123 224.515 131.075 225.563 131.075 226.855C131.075 228.148 132.123 229.195 133.415 229.195Z" fill="white"/>
<path d="M93.6952 215.185C94.9876 215.185 96.0352 214.138 96.0352 212.845C96.0352 211.553 94.9876 210.505 93.6952 210.505C92.4029 210.505 91.3552 211.553 91.3552 212.845C91.3552 214.138 92.4029 215.185 93.6952 215.185Z" fill="white"/>
<path d="M233.875 231.535C235.167 231.535 236.215 230.487 236.215 229.195C236.215 227.903 235.167 226.855 233.875 226.855C232.583 226.855 231.535 227.903 231.535 229.195C231.535 230.487 232.583 231.535 233.875 231.535Z" fill="white"/>
</svg>
