<svg width="400" height="400" viewBox="0 0 400 400" fill="none" xmlns="http://www.w3.org/2000/svg">
<path d="M342.148 189.072L158.602 72.9067L142.166 101.456L329.697 215.907C329.697 215.907 337.71 209.015 340.104 203.068C342.498 197.121 342.148 189.072 342.148 189.072Z" fill="#4C2800" stroke="black" stroke-width="12.6" stroke-miterlimit="10"/>
<path d="M342.148 189.017L158.599 72.9067L142.166 101.515L329.7 215.907C329.7 215.907 337.711 209.001 340.105 203.042C342.498 197.082 342.148 189.017 342.148 189.017Z" fill="#FFCA1B"/>
<path d="M303.21 164.047L267.161 177.727L291.166 192.407L326.666 178.907L303.21 164.047Z" fill="#FFE98F"/>
<path d="M340.166 187.907L306.166 201.407L330.135 215.955C330.135 215.955 338.166 209.407 340.166 203.907C342.166 198.407 342.666 189.407 342.666 189.407L340.166 187.907Z" fill="#EAA10F"/>
<path d="M289.715 155.727L253.666 169.407L263.135 174.955L298.756 160.916L289.715 155.727Z" fill="#FFE98F"/>
<path d="M305.666 173.407L330.166 189.407" stroke="#D28F00" stroke-width="4" stroke-miterlimit="10"/>
<path d="M275.166 162.907L291.166 173.407" stroke="#D28F00" stroke-width="4" stroke-miterlimit="10"/>
<path d="M198.166 97.4067L158.666 111.407L184.666 127.407L222.166 112.907L198.166 97.4067Z" fill="#EAA10F"/>
<path d="M227.053 115.907L189.166 130.607L200.196 136.907L236.166 121.682L227.053 115.907Z" fill="#FFE98F"/>
<path d="M166.166 92.9067L213.236 121.917" stroke="#D28F00" stroke-width="4" stroke-miterlimit="10"/>
<path d="M190.696 116.677L233.656 144.417" stroke="#D28F00" stroke-width="4" stroke-miterlimit="10"/>
<path d="M224.81 129.646L250.81 146.646" stroke="#D28F00" stroke-width="4" stroke-miterlimit="10"/>
<path d="M118.091 219.088C118.091 219.088 90.6913 232.088 89.3013 256.648C87.9113 281.208 96.7313 286.988 103.231 295.648C110.131 304.848 116.691 307.208 116.691 307.208C116.691 307.208 84.6113 297.088 84.1913 263.868C83.7213 227.278 118.091 219.088 118.091 219.088Z" fill="white"/>
<path d="M137.102 106.528L124.282 98.8282C123.035 98.0855 121.947 97.1034 121.081 95.9384C120.215 94.7733 119.589 93.4485 119.237 92.0402C118.886 90.6319 118.817 89.168 119.034 87.7329C119.251 86.2977 119.75 84.9197 120.502 83.6782L121.342 82.2782C122.084 81.0311 123.066 79.9434 124.231 79.0776C125.396 78.2119 126.721 77.5853 128.13 77.234C129.538 76.8826 131.002 76.8134 132.437 77.0303C133.872 77.2473 135.25 77.7462 136.492 78.4982L149.312 86.1882" stroke="black" stroke-width="7.6" stroke-miterlimit="10"/>
<path d="M124.101 92.7285H122.051C114.441 92.7285 108.271 98.8981 108.271 106.509V125.189C108.271 132.799 114.441 138.969 122.051 138.969H124.101C131.712 138.969 137.881 132.799 137.881 125.189V106.509C137.881 98.8981 131.712 92.7285 124.101 92.7285Z" stroke="black" stroke-width="9.49" stroke-miterlimit="10"/>
<path d="M124.101 132.018H122.051C114.441 132.018 108.271 138.188 108.271 145.798V164.478C108.271 172.089 114.441 178.258 122.051 178.258H124.101C131.712 178.258 137.881 172.089 137.881 164.478V145.798C137.881 138.188 131.712 132.018 124.101 132.018Z" stroke="black" stroke-width="9.49" stroke-miterlimit="10"/>
<path d="M124.101 169.818H122.051C114.441 169.818 108.271 175.988 108.271 183.598V202.278C108.271 209.889 114.441 216.058 122.051 216.058H124.101C131.712 216.058 137.881 209.889 137.881 202.278V183.598C137.881 175.988 131.712 169.818 124.101 169.818Z" stroke="black" stroke-width="9.49" stroke-miterlimit="10"/>
<path d="M124.152 307.949C151.965 307.949 174.512 285.402 174.512 257.589C174.512 229.775 151.965 207.229 124.152 207.229C96.3385 207.229 73.7915 229.775 73.7915 257.589C73.7915 285.402 96.3385 307.949 124.152 307.949Z" fill="#262626" stroke="black" stroke-width="8" stroke-miterlimit="10"/>
<path d="M124.152 307.949C151.965 307.949 174.512 285.402 174.512 257.589C174.512 229.775 151.965 207.229 124.152 207.229C96.3385 207.229 73.7915 229.775 73.7915 257.589C73.7915 285.402 96.3385 307.949 124.152 307.949Z" fill="#FFCA1B"/>
<path d="M132.34 267.598C112.781 280.516 82.1895 274.554 74.1655 266.604C80.1835 288.631 102.638 321.575 145.88 303.868C183.493 288.465 179.982 239.774 156.412 218.907C157.916 234.143 156.983 251.321 132.34 267.598Z" fill="#D28F00"/>
<path d="M88.9217 257.128C89.3113 256.98 89.6783 256.778 90.0117 256.528C91.1294 255.769 92.1129 254.83 92.9217 253.748C96.0917 249.988 97.3817 245.138 97.9217 241.858C98.8017 237.578 98.1517 235.368 98.1517 235.368C97.6446 234.22 96.8499 233.221 95.8444 232.47C94.8389 231.719 93.6566 231.239 92.4117 231.078L61.7317 229.358C59.5117 229.258 57.4817 232.358 57.2617 234.908C57.165 235.243 57.1409 235.594 57.1909 235.939C57.2409 236.284 57.3639 236.614 57.5517 236.908C57.6852 237.199 57.8796 237.458 58.1217 237.668C59.1217 238.908 79.4417 254.808 81.3317 256.148C83.2217 257.488 85.6217 259.038 88.9217 257.128Z" fill="#191919" stroke="black" stroke-width="8" stroke-miterlimit="10"/>
<path d="M132.166 280.407C105.366 288.007 82.6655 273.907 74.6655 265.907C80.6655 288.073 103.053 321.227 146.166 303.407C183.666 287.907 177.166 242.407 163.166 224.407C164.666 239.74 158.966 272.807 132.166 280.407Z" fill="#975B00"/>
<path d="M194.182 231.358C193.952 228.798 191.922 225.708 189.702 225.808L159.032 227.558C157.787 227.719 156.605 228.199 155.599 228.95C154.594 229.702 153.799 230.7 153.292 231.848C153.292 231.848 152.642 234.058 153.522 238.328C154.052 241.608 155.352 246.468 158.522 250.218C159.324 251.302 160.305 252.242 161.422 252.998C161.761 253.247 162.131 253.452 162.522 253.608C165.812 255.518 168.222 253.918 170.102 252.608C171.982 251.298 192.322 235.358 193.312 234.148C193.556 233.937 193.751 233.674 193.882 233.378C194.076 233.084 194.203 232.75 194.255 232.401C194.307 232.052 194.282 231.696 194.182 231.358Z" fill="#191919" stroke="black" stroke-width="8" stroke-miterlimit="10"/>
<path d="M170.492 274.488C169.825 273.423 168.895 272.548 167.791 271.947C166.688 271.347 165.448 271.04 164.192 271.058C164.192 271.058 161.912 271.388 158.402 273.968C155.632 275.818 151.742 279.028 149.652 283.478C149.113 284.501 148.712 285.59 148.462 286.718C148.462 286.888 148.392 287.038 148.362 287.178C148.332 287.318 148.362 287.178 148.362 287.258C148.273 287.669 148.239 288.089 148.262 288.508C147.902 292.298 150.352 293.818 152.352 294.978C154.352 296.138 177.272 307.978 178.822 308.388C179.115 308.516 179.432 308.581 179.752 308.578C180.095 308.631 180.445 308.608 180.778 308.511C181.112 308.414 181.42 308.246 181.682 308.018C183.912 306.748 185.882 303.618 184.862 301.638L170.492 274.488Z" fill="#191919" stroke="black" stroke-width="8" stroke-miterlimit="10"/>
<path d="M133.122 286.118C129.832 285.608 124.812 285.338 120.262 287.188C118.985 287.621 117.788 288.263 116.722 289.088C116.384 289.332 116.078 289.618 115.812 289.938C112.972 292.488 113.742 295.268 114.432 297.468C115.122 299.668 123.942 323.938 124.812 325.258C125.037 325.707 125.369 326.094 125.779 326.385C126.189 326.676 126.663 326.862 127.162 326.928C129.672 327.508 133.232 326.538 133.832 324.398L141.662 294.688C141.892 293.455 141.8 292.183 141.395 290.995C140.991 289.808 140.287 288.744 139.352 287.908C139.352 287.908 137.452 286.608 133.122 286.118Z" fill="#191919" stroke="black" stroke-width="8" stroke-miterlimit="10"/>
<path d="M119.511 236.848C122.511 238.178 127.341 239.718 132.211 239.088C133.558 238.995 134.879 238.677 136.121 238.148C136.511 237.997 136.88 237.799 137.221 237.558C140.611 235.818 140.571 232.928 140.471 230.618C140.371 228.308 138.011 202.618 137.471 201.108C137.424 200.79 137.308 200.486 137.131 200.218C136.99 199.901 136.782 199.618 136.521 199.389C136.261 199.159 135.954 198.989 135.621 198.888C133.351 197.698 129.621 197.728 128.531 199.648L113.431 226.358C112.894 227.493 112.657 228.746 112.745 229.999C112.832 231.251 113.241 232.46 113.931 233.508C113.931 233.508 115.441 235.268 119.511 236.848Z" fill="#191919" stroke="black" stroke-width="8" stroke-miterlimit="10"/>
<path d="M104.572 290.178C104.572 290.038 104.572 289.878 104.572 289.708C104.524 288.553 104.322 287.41 103.972 286.308C102.712 281.558 99.4518 277.698 97.0518 275.378C94.0518 272.208 91.8618 271.468 91.8618 271.468C90.6316 271.219 89.3578 271.292 88.1644 271.681C86.971 272.07 85.8987 272.762 85.0518 273.688L66.0518 297.688C64.7018 299.448 66.0518 302.868 68.0518 304.528C68.2692 304.799 68.5427 305.02 68.8533 305.175C69.164 305.33 69.5046 305.417 69.8518 305.428C70.1812 305.5 70.5223 305.5 70.8518 305.428C72.4418 305.328 97.1418 297.858 99.3218 297.078C101.502 296.298 104.182 295.258 104.512 291.468C104.604 291.058 104.644 290.638 104.632 290.218C104.632 290.218 104.572 290.208 104.572 290.178Z" fill="#191919" stroke="black" stroke-width="8" stroke-miterlimit="10"/>
<path d="M141.662 294.688L133.812 324.358C132.952 327.438 125.972 328.108 124.812 325.218L114.432 297.428C114.059 296.153 113.99 294.807 114.23 293.5C114.469 292.193 115.011 290.959 115.812 289.898C115.812 289.898 118.102 286.678 126.902 286.008C135.702 285.338 139.352 287.868 139.352 287.868C140.293 288.709 141.001 289.778 141.406 290.974C141.811 292.169 141.899 293.449 141.662 294.688Z" fill="#FFCA1B"/>
<path d="M136.702 286.908C131.165 289.917 126.75 294.635 124.112 300.358C121.392 306.278 124.482 317.548 125.442 319.468C126.407 321.436 127.718 323.214 129.312 324.718C130.312 325.329 131.418 325.746 132.572 325.948C131.067 326.581 129.454 326.92 127.822 326.948C125.972 326.768 125.692 326.528 124.822 325.198C123.952 323.868 115.132 299.618 114.442 297.408C113.752 295.198 112.982 292.408 115.822 289.878C123.742 282.818 136.702 286.908 136.702 286.908Z" fill="#D28F00"/>
<path d="M131.362 285.968C131.362 285.968 123.742 290.628 121.992 295.058C119.322 301.798 124.482 317.558 125.442 319.478C126.407 321.446 127.718 323.224 129.312 324.728C130.312 325.339 131.418 325.756 132.572 325.958C131.067 326.591 129.454 326.93 127.822 326.958C125.972 326.778 125.692 326.538 124.822 325.208C123.952 323.878 115.132 299.628 114.442 297.418C113.752 295.208 113.242 292.698 115.822 289.888C120.392 284.958 131.362 285.968 131.362 285.968Z" fill="#975B00"/>
<path d="M170.491 273.488L184.811 300.638C186.271 303.488 181.581 308.708 178.811 307.388L152.341 293.978C151.204 293.292 150.242 292.35 149.532 291.227C148.822 290.103 148.383 288.83 148.251 287.508C148.251 287.508 147.751 283.578 153.771 277.128C159.791 270.678 164.191 270.058 164.191 270.058C165.448 270.04 166.688 270.347 167.791 270.947C168.895 271.548 169.825 272.423 170.491 273.488Z" fill="#FFCA1B"/>
<path d="M161.571 271.118C159.536 277.085 159.483 283.549 161.421 289.548C163.421 295.748 173.341 301.948 175.351 302.698C177.393 303.493 179.561 303.917 181.751 303.948C182.901 303.718 183.996 303.273 184.981 302.638C184.32 304.138 183.376 305.496 182.201 306.638C180.721 307.758 180.351 307.768 178.811 307.388C177.271 307.008 154.341 295.138 152.341 293.978C150.341 292.818 147.891 291.298 148.251 287.508C149.261 276.888 161.571 271.118 161.571 271.118Z" fill="#D28F00"/>
<path d="M157.001 274.048C157.001 274.048 154.561 282.638 156.271 287.048C158.871 293.818 173.341 301.918 175.351 302.668C177.393 303.463 179.561 303.886 181.751 303.918C182.901 303.687 183.996 303.243 184.981 302.608C184.32 304.107 183.376 305.465 182.201 306.608C180.721 307.728 180.351 307.738 178.811 307.358C177.271 306.978 154.342 295.108 152.342 293.948C150.342 292.788 148.261 291.288 148.251 287.478C148.241 280.738 157.001 274.048 157.001 274.048Z" fill="#975B00"/>
<path d="M85.0414 272.688L66.0414 296.688C64.1014 299.208 67.7814 305.188 70.7914 304.408L99.2615 296.058C100.504 295.593 101.621 294.844 102.523 293.869C103.424 292.895 104.084 291.724 104.451 290.448C104.451 290.448 105.641 286.688 100.861 279.258C96.0814 271.828 91.8614 270.418 91.8614 270.418C90.6254 270.173 89.3469 270.253 88.1513 270.651C86.9557 271.049 85.884 271.751 85.0414 272.688Z" fill="#FFCA1B"/>
<path d="M94.2517 271.979C95.1884 278.202 94.0869 284.562 91.1117 290.109C88.0217 295.829 77.1117 300.109 75.0417 300.489C72.886 300.898 70.6746 300.918 68.5117 300.549C67.4025 300.116 66.3848 299.478 65.5117 298.669C65.8889 300.26 66.5678 301.763 67.5117 303.099C68.7717 304.469 69.1417 304.548 70.7217 304.458C72.3017 304.368 97.0117 296.889 99.1917 296.109C101.372 295.329 104.052 294.289 104.382 290.499C105.352 279.889 94.2517 271.979 94.2517 271.979Z" fill="#D28F00"/>
<path d="M98.2317 275.688C98.2317 275.688 99.1017 284.568 96.6317 288.618C92.8517 294.798 77.1517 300.108 75.0417 300.488C72.886 300.898 70.6746 300.918 68.5117 300.548C67.4025 300.116 66.3848 299.478 65.5117 298.668C65.8889 300.259 66.5678 301.763 67.5117 303.098C68.7717 304.468 69.1417 304.548 70.7217 304.458C72.3017 304.368 97.0117 296.888 99.1917 296.108C101.372 295.328 103.692 294.238 104.382 290.498C105.662 283.858 98.2317 275.688 98.2317 275.688Z" fill="#975B00"/>
<path d="M158.032 228.598L188.702 226.848C191.892 226.708 194.702 233.138 192.312 235.148L169.102 253.628C168.003 254.372 166.745 254.85 165.43 255.024C164.114 255.197 162.776 255.062 161.522 254.628C161.522 254.628 157.742 253.448 154.382 245.288C151.022 237.128 152.292 232.868 152.292 232.868C152.801 231.723 153.597 230.729 154.603 229.982C155.608 229.234 156.789 228.757 158.032 228.598Z" fill="#FFCA1B"/>
<path d="M152.162 235.718C156.743 240.051 162.6 242.789 168.862 243.528C175.332 244.278 185.092 237.858 186.612 236.338C188.19 234.818 189.478 233.021 190.412 231.038C190.682 229.898 190.736 228.718 190.572 227.558C191.658 228.784 192.499 230.206 193.052 231.748C193.452 233.568 193.302 233.908 192.312 235.148C191.322 236.388 170.992 252.288 169.102 253.628C167.212 254.968 164.812 256.558 161.522 254.628C152.282 249.358 152.162 235.718 152.162 235.718Z" fill="#D28F00"/>
<path d="M152.921 241.088C152.921 241.088 159.711 246.888 164.461 247.188C171.711 247.638 185.091 237.858 186.611 236.338C188.19 234.818 189.478 233.021 190.411 231.038C190.682 229.898 190.736 228.718 190.571 227.558C191.657 228.784 192.499 230.206 193.051 231.748C193.451 233.568 193.301 233.908 192.311 235.148C191.321 236.388 170.991 252.288 169.101 253.628C167.211 254.968 164.981 256.228 161.521 254.628C155.361 251.838 152.921 241.088 152.921 241.088Z" fill="#975B00"/>
<path d="M92.6216 231.518L61.9516 229.758C58.7616 229.628 55.9517 236.058 58.3417 238.068L81.5516 256.548C82.6505 257.292 83.9077 257.77 85.2235 257.943C86.5393 258.117 87.8773 257.982 89.1316 257.548C89.1316 257.548 92.9116 256.368 96.2716 248.208C99.6316 240.048 98.3616 235.788 98.3616 235.788C97.8517 234.643 97.0559 233.649 96.0506 232.901C95.0453 232.154 93.8644 231.677 92.6216 231.518Z" fill="#FFCA1B"/>
<path d="M98.4914 238.639C93.9101 242.971 88.0534 245.71 81.7914 246.449C75.3214 247.199 65.5614 240.779 64.0414 239.259C62.465 237.736 61.1775 235.94 60.2414 233.958C59.9713 232.819 59.917 231.638 60.0815 230.479C58.9963 231.703 58.1576 233.126 57.6114 234.669C57.2014 236.479 57.3515 236.829 58.3415 238.069C59.3315 239.309 79.6614 255.209 81.5514 256.549C83.4414 257.889 85.8414 259.479 89.1314 257.549C98.3714 252.229 98.4914 238.639 98.4914 238.639Z" fill="#D28F00"/>
<path d="M97.7314 244.009C97.7314 244.009 90.9414 249.809 86.1914 250.109C78.9414 250.559 65.5614 240.779 64.0414 239.259C62.465 237.736 61.1775 235.94 60.2414 233.958C59.9713 232.819 59.917 231.638 60.0815 230.479C58.9963 231.703 58.1576 233.126 57.6114 234.669C57.2014 236.479 57.3515 236.829 58.3415 238.069C59.3315 239.309 79.6614 255.209 81.5514 256.549C83.4414 257.889 85.6714 259.149 89.1314 257.549C95.2914 254.759 97.7314 244.009 97.7314 244.009Z" fill="#975B00"/>
<path d="M113.651 226.818L128.811 200.078C130.421 197.328 137.341 198.458 137.751 201.538L140.751 231.058C140.784 232.386 140.507 233.704 139.943 234.906C139.379 236.109 138.543 237.164 137.501 237.988C137.501 237.988 134.501 240.528 125.781 238.928C117.061 237.328 114.211 233.928 114.211 233.928C113.516 232.891 113.099 231.692 113.001 230.446C112.903 229.201 113.127 227.952 113.651 226.818Z" fill="#FFCA1B"/>
<path d="M116.461 235.608C122.582 234.103 128.053 230.662 132.061 225.798C136.201 220.798 136.061 209.078 135.631 206.978C135.201 204.832 134.392 202.78 133.241 200.918C132.425 200.079 131.459 199.4 130.391 198.918C132.009 198.668 133.659 198.732 135.251 199.108C137.001 199.748 137.251 200.058 137.721 201.558C138.191 203.058 140.581 228.768 140.721 231.078C140.861 233.388 140.861 236.268 137.471 238.008C127.951 242.868 116.461 235.608 116.461 235.608Z" fill="#D28F00"/>
<path d="M121.392 237.878C121.392 237.878 129.942 235.308 132.762 231.478C137.062 225.628 136.082 209.078 135.632 206.978C135.201 204.832 134.392 202.78 133.242 200.918C132.426 200.079 131.459 199.4 130.392 198.918C132.009 198.668 133.659 198.732 135.252 199.108C137.002 199.748 137.252 200.058 137.722 201.558C138.192 203.058 140.582 228.768 140.722 231.078C140.862 233.388 140.722 235.948 137.472 238.008C131.742 241.648 121.392 237.878 121.392 237.878Z" fill="#975B00"/>
</svg>
