<svg width="400" height="400" viewBox="0 0 400 400" fill="none" xmlns="http://www.w3.org/2000/svg">
<path d="M342.482 189.072L158.937 72.9067L142.5 101.456L330.032 215.907C330.032 215.907 338.045 209.015 340.439 203.068C342.833 197.121 342.482 189.072 342.482 189.072Z" fill="#4C2800" stroke="black" stroke-width="12.6" stroke-miterlimit="10"/>
<path d="M342.482 189.017L158.934 72.9067L142.5 101.515L330.034 215.907C330.034 215.907 338.046 209.001 340.439 203.042C342.832 197.082 342.482 189.017 342.482 189.017Z" fill="#4C2800"/>
<path d="M306 173.407L330.5 189.407" stroke="#281400" stroke-width="4" stroke-miterlimit="10"/>
<path d="M275.5 162.907L291.5 173.407" stroke="#281400" stroke-width="4" stroke-miterlimit="10"/>
<path d="M166.5 92.9067L213.57 121.917" stroke="#281400" stroke-width="4" stroke-miterlimit="10"/>
<path d="M191.03 116.677L233.99 144.417" stroke="#281400" stroke-width="4" stroke-miterlimit="10"/>
<path d="M225.144 129.646L251.144 146.646" stroke="#281400" stroke-width="4" stroke-miterlimit="10"/>
<path d="M118.426 219.088C118.426 219.088 91.0258 232.088 89.6358 256.648C88.2458 281.208 97.0658 286.988 103.566 295.648C110.466 304.848 117.026 307.208 117.026 307.208C117.026 307.208 84.9458 297.088 84.5258 263.868C84.0558 227.278 118.426 219.088 118.426 219.088Z" fill="white"/>
<path d="M137.436 106.528L124.616 98.8282C123.369 98.0855 122.281 97.1034 121.416 95.9384C120.55 94.7733 119.923 93.4485 119.572 92.0402C119.22 90.6319 119.151 89.168 119.368 87.7329C119.585 86.2977 120.084 84.9197 120.836 83.6782L121.676 82.2782C122.419 81.0311 123.401 79.9434 124.566 79.0776C125.731 78.2119 127.056 77.5853 128.464 77.234C129.872 76.8826 131.336 76.8134 132.771 77.0303C134.207 77.2473 135.585 77.7462 136.826 78.4982L149.646 86.1882" stroke="black" stroke-width="7.6" stroke-miterlimit="10"/>
<path d="M124.436 92.7285H122.386C114.775 92.7285 108.606 98.8981 108.606 106.509V125.189C108.606 132.799 114.775 138.969 122.386 138.969H124.436C132.046 138.969 138.216 132.799 138.216 125.189V106.509C138.216 98.8981 132.046 92.7285 124.436 92.7285Z" stroke="black" stroke-width="9.49" stroke-miterlimit="10"/>
<path d="M124.436 132.018H122.386C114.775 132.018 108.606 138.188 108.606 145.798V164.478C108.606 172.089 114.775 178.258 122.386 178.258H124.436C132.046 178.258 138.216 172.089 138.216 164.478V145.798C138.216 138.188 132.046 132.018 124.436 132.018Z" stroke="black" stroke-width="9.49" stroke-miterlimit="10"/>
<path d="M124.436 169.818H122.386C114.775 169.818 108.606 175.988 108.606 183.598V202.278C108.606 209.889 114.775 216.058 122.386 216.058H124.436C132.046 216.058 138.216 209.889 138.216 202.278V183.598C138.216 175.988 132.046 169.818 124.436 169.818Z" stroke="black" stroke-width="9.49" stroke-miterlimit="10"/>
<path d="M124.486 307.949C152.299 307.949 174.846 285.402 174.846 257.589C174.846 229.775 152.299 207.229 124.486 207.229C96.673 207.229 74.126 229.775 74.126 257.589C74.126 285.402 96.673 307.949 124.486 307.949Z" fill="#262626" stroke="black" stroke-width="8" stroke-miterlimit="10"/>
<path d="M124.486 307.949C152.299 307.949 174.846 285.402 174.846 257.589C174.846 229.775 152.299 207.229 124.486 207.229C96.673 207.229 74.126 229.775 74.126 257.589C74.126 285.402 96.673 307.949 124.486 307.949Z" fill="#262626"/>
<path d="M89.2562 257.128C89.6458 256.98 90.0128 256.778 90.3462 256.528C91.4639 255.769 92.4473 254.83 93.2562 253.748C96.4262 249.988 97.7162 245.138 98.2562 241.858C99.1362 237.578 98.4862 235.368 98.4862 235.368C97.979 234.22 97.1843 233.221 96.1788 232.47C95.1734 231.719 93.991 231.239 92.7462 231.078L62.0662 229.358C59.8462 229.258 57.8162 232.358 57.5962 234.908C57.4995 235.243 57.4753 235.594 57.5253 235.939C57.5754 236.284 57.6984 236.614 57.8862 236.908C58.0197 237.199 58.214 237.458 58.4562 237.668C59.4562 238.908 79.7762 254.808 81.6662 256.148C83.5562 257.488 85.9562 259.038 89.2562 257.128Z" fill="#191919" stroke="black" stroke-width="8" stroke-miterlimit="10"/>
<path d="M194.516 231.358C194.286 228.798 192.256 225.708 190.036 225.808L159.366 227.558C158.121 227.719 156.939 228.199 155.934 228.95C154.928 229.702 154.133 230.7 153.626 231.848C153.626 231.848 152.976 234.058 153.856 238.328C154.386 241.608 155.686 246.468 158.856 250.218C159.659 251.302 160.639 252.242 161.756 252.998C162.096 253.247 162.465 253.452 162.856 253.608C166.146 255.518 168.556 253.918 170.436 252.608C172.316 251.298 192.656 235.358 193.646 234.148C193.891 233.937 194.086 233.674 194.216 233.378C194.41 233.084 194.538 232.75 194.59 232.401C194.641 232.052 194.616 231.696 194.516 231.358Z" fill="#191919" stroke="black" stroke-width="8" stroke-miterlimit="10"/>
<path d="M170.826 274.488C170.159 273.423 169.229 272.548 168.126 271.947C167.022 271.347 165.782 271.04 164.526 271.058C164.526 271.058 162.246 271.388 158.736 273.968C155.966 275.818 152.076 279.028 149.986 283.478C149.447 284.501 149.047 285.59 148.796 286.718C148.796 286.888 148.726 287.038 148.696 287.178C148.666 287.318 148.696 287.178 148.696 287.258C148.607 287.669 148.574 288.089 148.596 288.508C148.236 292.298 150.686 293.818 152.686 294.978C154.686 296.138 177.606 307.978 179.156 308.388C179.449 308.516 179.766 308.581 180.086 308.578C180.429 308.631 180.779 308.608 181.113 308.511C181.446 308.414 181.754 308.246 182.016 308.018C184.246 306.748 186.216 303.618 185.196 301.638L170.826 274.488Z" fill="#191919" stroke="black" stroke-width="8" stroke-miterlimit="10"/>
<path d="M133.456 286.118C130.166 285.608 125.146 285.338 120.596 287.188C119.319 287.621 118.123 288.263 117.056 289.088C116.718 289.332 116.413 289.618 116.146 289.938C113.306 292.488 114.076 295.268 114.766 297.468C115.456 299.668 124.276 323.938 125.146 325.258C125.372 325.707 125.704 326.094 126.114 326.385C126.523 326.676 126.998 326.862 127.496 326.928C130.006 327.508 133.566 326.538 134.166 324.398L141.996 294.688C142.226 293.455 142.134 292.183 141.73 290.995C141.325 289.808 140.621 288.744 139.686 287.908C139.686 287.908 137.786 286.608 133.456 286.118Z" fill="#191919" stroke="black" stroke-width="8" stroke-miterlimit="10"/>
<path d="M119.846 236.848C122.846 238.178 127.676 239.718 132.546 239.088C133.892 238.995 135.214 238.677 136.456 238.148C136.845 237.997 137.215 237.799 137.556 237.558C140.946 235.818 140.906 232.928 140.806 230.618C140.706 228.308 138.346 202.618 137.806 201.108C137.759 200.79 137.643 200.486 137.466 200.218C137.324 199.901 137.116 199.618 136.856 199.389C136.595 199.159 136.288 198.989 135.956 198.888C133.686 197.698 129.956 197.728 128.866 199.648L113.766 226.358C113.228 227.493 112.992 228.746 113.079 229.999C113.167 231.251 113.576 232.46 114.266 233.508C114.266 233.508 115.776 235.268 119.846 236.848Z" fill="#191919" stroke="black" stroke-width="8" stroke-miterlimit="10"/>
<path d="M104.906 290.178C104.906 290.038 104.906 289.878 104.906 289.708C104.858 288.553 104.657 287.41 104.306 286.308C103.046 281.558 99.7862 277.698 97.3862 275.378C94.3862 272.208 92.1962 271.468 92.1962 271.468C90.9661 271.219 89.6923 271.292 88.4989 271.681C87.3055 272.07 86.2331 272.762 85.3862 273.688L66.3862 297.688C65.0362 299.448 66.3862 302.868 68.3862 304.528C68.6037 304.799 68.8771 305.02 69.1878 305.175C69.4985 305.33 69.8391 305.417 70.1862 305.428C70.5157 305.5 70.8568 305.5 71.1862 305.428C72.7762 305.328 97.4763 297.858 99.6563 297.078C101.836 296.298 104.516 295.258 104.846 291.468C104.939 291.058 104.979 290.638 104.966 290.218C104.966 290.218 104.906 290.208 104.906 290.178Z" fill="#191919" stroke="black" stroke-width="8" stroke-miterlimit="10"/>
<path d="M141.996 294.688L134.146 324.358C133.286 327.438 126.306 328.108 125.146 325.218L114.766 297.428C114.394 296.153 114.324 294.807 114.564 293.5C114.804 292.193 115.345 290.959 116.146 289.898C116.146 289.898 118.436 286.678 127.236 286.008C136.036 285.338 139.686 287.868 139.686 287.868C140.628 288.709 141.336 289.778 141.741 290.974C142.145 292.169 142.234 293.449 141.996 294.688Z" fill="#515151"/>
<path d="M137.036 286.908C131.5 289.917 127.084 294.635 124.446 300.358C121.726 306.278 124.816 317.548 125.776 319.468C126.741 321.436 128.052 323.214 129.646 324.718C130.646 325.329 131.752 325.746 132.906 325.948C131.401 326.581 129.789 326.92 128.156 326.948C126.306 326.768 126.026 326.528 125.156 325.198C124.286 323.868 115.466 299.618 114.776 297.408C114.086 295.198 113.316 292.408 116.156 289.878C124.076 282.818 137.036 286.908 137.036 286.908Z" fill="#353535"/>
<path d="M131.696 285.968C131.696 285.968 124.076 290.628 122.326 295.058C119.656 301.798 124.816 317.558 125.776 319.478C126.741 321.446 128.052 323.224 129.646 324.728C130.646 325.339 131.752 325.756 132.906 325.958C131.401 326.591 129.789 326.93 128.156 326.958C126.306 326.778 126.026 326.538 125.156 325.208C124.286 323.878 115.466 299.628 114.776 297.418C114.086 295.208 113.576 292.698 116.156 289.888C120.726 284.958 131.696 285.968 131.696 285.968Z" fill="#191919"/>
<path d="M170.826 273.488L185.146 300.638C186.606 303.488 181.916 308.708 179.146 307.388L152.676 293.978C151.538 293.292 150.576 292.35 149.866 291.227C149.156 290.103 148.718 288.83 148.586 287.508C148.586 287.508 148.086 283.578 154.106 277.128C160.126 270.678 164.526 270.058 164.526 270.058C165.782 270.04 167.022 270.347 168.126 270.947C169.229 271.548 170.159 272.423 170.826 273.488Z" fill="#515151"/>
<path d="M161.906 271.118C159.87 277.085 159.818 283.549 161.756 289.548C163.756 295.748 173.676 301.948 175.686 302.698C177.727 303.493 179.895 303.917 182.086 303.948C183.235 303.718 184.331 303.273 185.316 302.638C184.654 304.138 183.711 305.496 182.536 306.638C181.056 307.758 180.686 307.768 179.146 307.388C177.606 307.008 154.676 295.138 152.676 293.978C150.676 292.818 148.226 291.298 148.586 287.508C149.596 276.888 161.906 271.118 161.906 271.118Z" fill="#353535"/>
<path d="M157.336 274.048C157.336 274.048 154.896 282.638 156.606 287.048C159.206 293.818 173.676 301.918 175.686 302.668C177.728 303.463 179.895 303.886 182.086 303.918C183.235 303.687 184.331 303.243 185.316 302.608C184.655 304.107 183.711 305.465 182.536 306.608C181.056 307.728 180.686 307.738 179.146 307.358C177.606 306.978 154.676 295.108 152.676 293.948C150.676 292.788 148.596 291.288 148.586 287.478C148.576 280.738 157.336 274.048 157.336 274.048Z" fill="#191919"/>
<path d="M85.3759 272.688L66.3759 296.688C64.4359 299.208 68.1159 305.188 71.1259 304.408L99.5959 296.058C100.839 295.593 101.956 294.844 102.857 293.869C103.758 292.895 104.419 291.724 104.786 290.448C104.786 290.448 105.976 286.688 101.196 279.258C96.4159 271.828 92.1959 270.418 92.1959 270.418C90.9599 270.173 89.6814 270.253 88.4858 270.651C87.2902 271.049 86.2185 271.751 85.3759 272.688Z" fill="#515151"/>
<path d="M94.5862 271.979C95.5229 278.202 94.4214 284.562 91.4462 290.109C88.3562 295.829 77.4462 300.109 75.3762 300.489C73.2205 300.898 71.009 300.918 68.8462 300.549C67.737 300.116 66.7193 299.478 65.8462 298.669C66.2233 300.26 66.9023 301.763 67.8462 303.099C69.1062 304.469 69.4762 304.548 71.0562 304.458C72.6362 304.368 97.3462 296.889 99.5262 296.109C101.706 295.329 104.386 294.289 104.716 290.499C105.686 279.889 94.5862 271.979 94.5862 271.979Z" fill="#353535"/>
<path d="M98.5662 275.688C98.5662 275.688 99.4362 284.568 96.9662 288.618C93.1862 294.798 77.4862 300.108 75.3762 300.488C73.2205 300.898 71.009 300.918 68.8462 300.548C67.737 300.116 66.7193 299.478 65.8462 298.668C66.2233 300.259 66.9023 301.763 67.8462 303.098C69.1062 304.468 69.4762 304.548 71.0562 304.458C72.6362 304.368 97.3462 296.888 99.5262 296.108C101.706 295.328 104.026 294.238 104.716 290.498C105.996 283.858 98.5662 275.688 98.5662 275.688Z" fill="#191919"/>
<path d="M158.366 228.598L189.036 226.848C192.226 226.708 195.036 233.138 192.646 235.148L169.436 253.628C168.337 254.372 167.08 254.85 165.764 255.024C164.448 255.197 163.11 255.062 161.856 254.628C161.856 254.628 158.076 253.448 154.716 245.288C151.356 237.128 152.626 232.868 152.626 232.868C153.136 231.723 153.932 230.729 154.937 229.982C155.942 229.234 157.123 228.757 158.366 228.598Z" fill="#515151"/>
<path d="M152.496 235.718C157.077 240.051 162.934 242.789 169.196 243.528C175.666 244.278 185.426 237.858 186.946 236.338C188.525 234.818 189.813 233.021 190.746 231.038C191.016 229.898 191.071 228.718 190.906 227.558C191.992 228.784 192.834 230.206 193.386 231.748C193.786 233.568 193.636 233.908 192.646 235.148C191.656 236.388 171.326 252.288 169.436 253.628C167.546 254.968 165.146 256.558 161.856 254.628C152.616 249.358 152.496 235.718 152.496 235.718Z" fill="#353535"/>
<path d="M153.256 241.088C153.256 241.088 160.046 246.888 164.796 247.188C172.046 247.638 185.426 237.858 186.946 236.338C188.525 234.818 189.812 233.021 190.746 231.038C191.016 229.898 191.07 228.718 190.906 227.558C191.992 228.784 192.834 230.206 193.386 231.748C193.786 233.568 193.636 233.908 192.646 235.148C191.656 236.388 171.326 252.288 169.436 253.628C167.546 254.968 165.316 256.228 161.856 254.628C155.696 251.838 153.256 241.088 153.256 241.088Z" fill="#191919"/>
<path d="M92.9561 231.518L62.2861 229.758C59.0961 229.628 56.2861 236.058 58.6761 238.068L81.8861 256.548C82.985 257.292 84.2422 257.77 85.558 257.943C86.8737 258.117 88.2118 257.982 89.4661 257.548C89.4661 257.548 93.2461 256.368 96.6061 248.208C99.9661 240.048 98.6961 235.788 98.6961 235.788C98.1862 234.643 97.3903 233.649 96.385 232.901C95.3798 232.154 94.1989 231.677 92.9561 231.518Z" fill="#515151"/>
<path d="M98.8259 238.639C94.2446 242.971 88.3879 245.71 82.1259 246.449C75.6559 247.199 65.8959 240.779 64.3759 239.259C62.7994 237.736 61.512 235.94 60.5759 233.958C60.3057 232.819 60.2515 231.638 60.4159 230.479C59.3307 231.703 58.4921 233.126 57.9459 234.669C57.5359 236.479 57.6859 236.829 58.6759 238.069C59.6659 239.309 79.9959 255.209 81.8859 256.549C83.7759 257.889 86.1759 259.479 89.4659 257.549C98.7059 252.229 98.8259 238.639 98.8259 238.639Z" fill="#353535"/>
<path d="M98.0659 244.009C98.0659 244.009 91.2759 249.809 86.5259 250.109C79.2759 250.559 65.8959 240.779 64.3759 239.259C62.7994 237.736 61.512 235.94 60.5759 233.958C60.3057 232.819 60.2515 231.638 60.4159 230.479C59.3307 231.703 58.4921 233.126 57.9459 234.669C57.5359 236.479 57.6859 236.829 58.6759 238.069C59.6659 239.309 79.9959 255.209 81.8859 256.549C83.7759 257.889 86.0059 259.149 89.4659 257.549C95.6259 254.759 98.0659 244.009 98.0659 244.009Z" fill="#191919"/>
<path d="M113.986 226.818L129.146 200.078C130.756 197.328 137.676 198.458 138.086 201.538L141.086 231.058C141.118 232.386 140.841 233.704 140.277 234.906C139.713 236.109 138.878 237.164 137.836 237.988C137.836 237.988 134.836 240.528 126.116 238.928C117.396 237.328 114.546 233.928 114.546 233.928C113.85 232.891 113.434 231.692 113.335 230.446C113.237 229.201 113.461 227.952 113.986 226.818Z" fill="#515151"/>
<path d="M116.796 235.608C122.916 234.103 128.387 230.662 132.396 225.798C136.536 220.798 136.396 209.078 135.966 206.978C135.536 204.832 134.726 202.78 133.576 200.918C132.76 200.079 131.793 199.4 130.726 198.918C132.343 198.668 133.993 198.732 135.586 199.108C137.336 199.748 137.586 200.058 138.056 201.558C138.526 203.058 140.916 228.768 141.056 231.078C141.196 233.388 141.196 236.268 137.806 238.008C128.286 242.868 116.796 235.608 116.796 235.608Z" fill="#353535"/>
<path d="M121.726 237.878C121.726 237.878 130.276 235.308 133.096 231.478C137.396 225.628 136.416 209.078 135.966 206.978C135.536 204.832 134.727 202.78 133.576 200.918C132.76 200.079 131.793 199.4 130.726 198.918C132.343 198.668 133.993 198.732 135.586 199.108C137.336 199.748 137.586 200.058 138.056 201.558C138.526 203.058 140.916 228.768 141.056 231.078C141.196 233.388 141.056 235.948 137.806 238.008C132.076 241.648 121.726 237.878 121.726 237.878Z" fill="#191919"/>
</svg>
