<svg width="400" height="400" viewBox="0 0 400 400" fill="none" xmlns="http://www.w3.org/2000/svg">
<path d="M281.084 290.9L341.878 328.713L337.768 314.318L338.323 299.829C338.323 299.829 307.845 289.058 291.544 268.919L281.085 290.894L281.084 290.9Z" fill="#F9CC10" stroke="black" stroke-width="4" stroke-linecap="round" stroke-linejoin="round"/>
<path d="M297.081 275.25L301.004 287.763" stroke="#F29208" stroke-width="2" stroke-linecap="round" stroke-linejoin="round"/>
<path d="M295.461 290.591L298.369 299.897" stroke="#F29208" stroke-width="2" stroke-linecap="round" stroke-linejoin="round"/>
<path d="M309.626 294.291L312.684 303.921" stroke="#F29208" stroke-width="2" stroke-linecap="round" stroke-linejoin="round"/>
<path d="M320.265 300.065L323.323 309.696" stroke="#F29208" stroke-width="2" stroke-linecap="round" stroke-linejoin="round"/>
<path d="M286.947 294.713L308.586 283.901" stroke="#F29208" stroke-width="2" stroke-linecap="round" stroke-linejoin="round"/>
<path d="M296.397 300.75L318.036 289.937" stroke="#F29208" stroke-width="2" stroke-linecap="round" stroke-linejoin="round"/>
<path d="M307.121 307.023L324.538 298.185" stroke="#F29208" stroke-width="2" stroke-linecap="round" stroke-linejoin="round"/>
<path d="M316.57 313.059L330.312 305.971" stroke="#F29208" stroke-width="2" stroke-linecap="round" stroke-linejoin="round"/>
<path d="M325.889 318.498L337.974 312.4" stroke="#F29208" stroke-width="2" stroke-linecap="round" stroke-linejoin="round"/>
<path d="M281.084 290.9L341.878 328.713L337.768 314.318L338.323 299.829C338.323 299.829 307.845 289.058 291.544 268.919L281.085 290.894L281.084 290.9Z" stroke="black" stroke-width="4" stroke-linecap="round" stroke-linejoin="round"/>
<path d="M29.2902 59.4132C29.2902 59.4132 83.2192 107.173 133.097 69.9504C133.097 69.9504 140.509 96.2674 157.743 125.098C173.571 151.584 208.046 201.76 280.513 261.357L283.796 276.245L265.656 284.616C265.656 284.616 94.5795 174.299 80.0474 165.011C65.5153 155.724 18.998 120.383 29.2971 59.4082" fill="#8E99A3"/>
<path d="M29.2902 59.4132C29.2902 59.4132 83.2192 107.173 133.097 69.9504C133.097 69.9504 140.509 96.2674 157.743 125.098C173.571 151.584 208.046 201.76 280.513 261.357L283.795 276.245L265.656 284.616C265.656 284.616 94.5795 174.299 80.0474 165.011C65.5153 155.724 18.998 120.383 29.2971 59.4082" stroke="black" stroke-width="4" stroke-linecap="round" stroke-linejoin="round"/>
<path d="M52.33 100.275C59.0698 112.942 63.4079 135.651 68.183 122.881C72.9522 110.11 43.1908 83.0908 52.33 100.275Z" fill="#737B82"/>
<mask id="mask0_5624_8917" style="mask-type:luminance" maskUnits="userSpaceOnUse" x="27" y="59" width="257" height="226">
<path d="M29.2902 59.4132C29.2902 59.4132 83.2192 107.173 133.097 69.9504C133.097 69.9504 140.509 96.2674 157.743 125.098C173.571 151.584 208.046 201.76 280.513 261.357L283.796 276.245L265.656 284.616C265.656 284.616 94.5795 174.299 80.0474 165.011C65.5153 155.724 18.998 120.383 29.2971 59.4082" fill="white"/>
</mask>
<g mask="url(#mask0_5624_8917)">
<path d="M248.107 241.819C245.029 236.64 233.696 238.466 235.822 242.056C237.948 245.645 238.749 247.406 241.392 247.833C244.035 248.26 244.969 249.847 246.45 252.074C247.93 254.307 250.92 246.55 248.107 241.819Z" fill="#915410"/>
<path d="M196.969 207.616C194.382 205.437 191.278 212.654 194.973 213.251C198.668 213.848 199.35 209.627 196.969 207.616Z" fill="#915410"/>
<path d="M170.593 173.014C165.685 169.478 155.628 151.636 154.555 148.211C153.482 144.786 156.837 145.708 158.609 149.056C160.381 152.404 173.506 175.11 170.593 173.014Z" fill="#915410"/>
<path d="M242.223 256.097C239.941 256.815 240.212 258.478 242.237 259.352C244.262 260.225 248.319 261.96 247.688 259.146C247.057 256.332 242.223 256.097 242.223 256.097Z" fill="#915410"/>
<path d="M118.077 149.362C134.712 156.338 133.057 173.993 127.25 173.055C123.555 172.458 111.262 158.01 108.604 154.329C105.947 150.648 118.078 149.356 118.078 149.356L118.077 149.362Z" fill="#915410"/>
<path opacity="0.62" d="M71.7126 20.5194L52.2683 211.321L109.197 237.858L133.098 6.0599L71.7126 20.5194Z" fill="#CBD4D8"/>
<path opacity="0.62" d="M216.078 72.5582L195.595 303.282L203.583 300.781L223.554 73.226L216.078 72.5582Z" fill="#CBD4D8"/>
<path d="M271.256 264.721C271.256 264.721 267.298 267.082 268.61 269.785C269.922 272.488 276.964 266.459 276.005 263.66C275.046 260.861 271.256 264.721 271.256 264.721Z" fill="#915410"/>
<path d="M234.655 247.457C235.421 243.66 220.825 230.976 219.951 233C219.078 235.025 222.623 239.936 223.952 241.77C225.282 243.605 233.141 254.962 234.655 247.457Z" fill="#915410"/>
<path opacity="0.62" d="M230.504 73.8028L207.526 333.379L224.823 310.17L246.415 72.5815L230.504 73.8028Z" fill="#CBD4D8"/>
<path d="M26.6862 54.6792L-9.76415 148.587L191.08 294.81L263.07 287.064L272.499 284.182L245.287 264.44C245.287 264.44 93.7443 161.997 87.0726 157.225C80.4009 152.454 35.1238 112.779 38.3331 74.9127L26.6922 54.6802" fill="#677075"/>
<path d="M26.6864 54.6792L88.3741 15.7932L277.328 116.55L307.138 185.238L283.379 272.558C283.379 272.558 240.69 237.977 224.214 221.313C207.74 204.644 168.026 168.813 137.679 114.849C130.491 102.067 126.555 84.202 126.555 84.202C126.555 84.202 83.0126 109.097 38.3204 74.9167L26.6795 54.6842" fill="#D9E3E8"/>
<path d="M126.031 86.719C126.031 86.719 104.995 99.5738 71.019 91.9188C40.619 85.0684 37.9669 75.2033 37.9669 75.2033L21.5583 46.0093C21.5583 46.0093 142.93 35.8233 144.784 37.7489C146.639 39.6745 126.036 86.7259 126.036 86.7259L126.031 86.719Z" fill="white"/>
<path d="M18.6147 40.9136L30.5068 60.9965C30.5068 60.9965 27.3582 90.0556 38.7838 117.052C49.371 142.059 82.9138 169.144 82.9138 169.144C82.9138 169.144 52.96 156.721 51.1053 154.795C49.2505 152.869 -5.31687 71.4622 -5.31687 71.4622L18.6137 40.9195L18.6147 40.9136Z" fill="white"/>
<path d="M246.814 241.126C246.814 241.126 244.291 246.676 248.172 249.469C248.172 249.469 246.013 259.944 255.697 259.894C265.455 259.845 260.998 247.209 260.998 247.209L252.265 240.921L246.814 241.126Z" fill="#5A6368"/>
<path d="M268.381 265.201C268.381 265.201 269.554 271.349 263.577 271.469C263.577 271.469 262.71 273.495 259.455 273.509C256.784 273.525 254.346 271.598 254.943 267.902C255.378 265.211 268.382 265.196 268.382 265.196L268.381 265.201Z" fill="#5A6368"/>
<path d="M265.723 278.313C265.723 278.313 267.322 281.824 263.47 285.533C259.619 289.243 256.788 278.704 256.788 278.704L265.717 278.312L265.723 278.313Z" fill="#5A6368"/>
<path d="M253.529 266.594C253.529 266.594 255.674 273.444 249.883 275.754C244.092 278.064 249.307 265.912 249.307 265.912L253.529 266.594Z" fill="#5A6368"/>
</g>
<path d="M29.2902 59.4132C29.2902 59.4132 83.2192 107.173 133.097 69.9504C133.097 69.9504 140.509 96.2674 157.743 125.098C173.571 151.584 208.046 201.76 280.513 261.357L283.795 276.245L265.656 284.616C265.656 284.616 94.5795 174.299 80.0474 165.011C65.5153 155.724 18.998 120.383 29.2971 59.4082" stroke="black" stroke-width="4" stroke-linecap="round" stroke-linejoin="round"/>
<path d="M262.913 269.656C265.264 270.036 267.478 268.438 267.858 266.086C268.238 263.735 266.64 261.521 264.289 261.141C261.937 260.761 259.723 262.359 259.343 264.711C258.963 267.062 260.561 269.276 262.913 269.656Z" fill="#E5D6A3" stroke="black" stroke-width="2" stroke-linecap="round" stroke-linejoin="round"/>
<path d="M264.635 281.461C266.046 279.254 265.318 276.268 263.009 274.793C260.7 273.318 257.685 273.911 256.275 276.119C254.864 278.326 255.593 281.311 257.901 282.786C260.21 284.262 263.225 283.668 264.635 281.461Z" fill="#E5D6A3" stroke="black" stroke-width="2" stroke-linecap="round" stroke-linejoin="round"/>
<path d="M252.005 271.598C253.994 268.486 253.165 264.404 250.155 262.48C247.144 260.556 243.091 261.52 241.103 264.632C239.114 267.744 239.943 271.826 242.953 273.75C245.964 275.673 250.017 274.71 252.005 271.598Z" fill="#E5D6A3" stroke="black" stroke-width="2" stroke-linecap="round" stroke-linejoin="round"/>
<path d="M255.188 257.388C258.481 257.92 261.581 255.682 262.113 252.39C262.645 249.097 260.407 245.997 257.115 245.465C253.822 244.933 250.722 247.171 250.19 250.464C249.658 253.756 251.896 256.857 255.188 257.388Z" fill="#E5D6A3" stroke="black" stroke-width="2" stroke-linecap="round" stroke-linejoin="round"/>
<path d="M260.743 248.794C260.743 248.794 255.891 252.507 250.312 249.9L251.062 248.181C251.062 248.181 252.281 249.145 254.926 248.719C257.572 248.294 259.402 246.344 259.402 246.344L260.742 248.8L260.743 248.794Z" fill="#BCAB7A"/>
<path d="M262.071 250.634C262.682 250.193 262.105 257.144 256.268 257.422C251.21 257.666 249.947 251.927 250.032 251.401C250.387 252.545 251.533 254.982 255.944 255.062C259.725 255.133 261.21 252.661 262.077 250.635L262.071 250.634Z" fill="#BCAB7A"/>
<path d="M255.188 257.388C258.481 257.92 261.581 255.682 262.113 252.39C262.645 249.097 260.407 245.997 257.115 245.465C253.822 244.933 250.722 247.171 250.19 250.464C249.658 253.756 251.896 256.857 255.188 257.388Z" stroke="black" stroke-width="2" stroke-linecap="round" stroke-linejoin="round"/>
<path d="M260.947 245.579C263.192 242.067 262.081 237.347 258.468 235.038C254.854 232.729 250.105 233.704 247.86 237.217C245.616 240.729 246.726 245.449 250.34 247.758C253.954 250.067 258.703 249.092 260.947 245.579Z" fill="#E5D6A3" stroke="black" stroke-width="2" stroke-linecap="round" stroke-linejoin="round"/>
<path d="M262.84 240.027C262.84 240.027 262.127 248.735 254.927 248.713C246.672 248.692 246.814 241.126 246.814 241.126C246.814 241.126 247.618 246.293 254.581 246.712C259.946 247.039 261.858 241.93 262.841 240.021L262.84 240.027Z" fill="#BCAB7A"/>
<path d="M133.097 69.9503C133.097 69.9503 140.509 96.2673 157.743 125.098C171.17 147.57 198.023 187.084 250.096 234.937C251.67 233.934 253.587 233.538 255.464 233.841C256.499 234.008 257.517 234.388 258.463 234.988C261.889 237.18 263.057 241.535 261.256 244.974C267.358 250.347 273.771 255.807 280.513 261.357L283.796 276.245L265.656 284.616C265.656 284.616 264.734 284.019 263.028 282.921C262.076 283.455 260.952 283.654 259.846 283.475C259.176 283.367 258.517 283.119 257.904 282.732C256.264 281.681 255.427 279.871 255.582 278.117C253.687 276.896 251.553 275.521 249.219 274.015C248.008 274.598 246.642 274.813 245.327 274.601C244.501 274.468 243.696 274.172 242.951 273.696C240.999 272.448 239.972 270.3 240.027 268.094C191.722 236.949 91.0472 172.047 80.0465 165.017C65.5084 155.729 18.9972 120.389 29.2963 59.414C29.2963 59.414 50.9007 78.5505 79.4115 83.1567C95.9451 85.8279 114.796 83.6151 133.103 69.9513M133.49 67.5594C132.85 67.4561 132.186 67.6127 131.655 68.0117C116.209 79.5362 98.7652 83.8292 79.7979 80.7648C52.3515 76.3306 31.1115 57.7868 30.8965 57.5987C30.5474 57.2907 30.1252 57.0937 29.6767 57.0212C29.2821 56.9575 28.872 56.9894 28.4813 57.1287C27.6543 57.4246 27.0474 58.1426 26.9013 59.0087C24.4637 73.451 24.9949 87.5568 28.489 100.945C31.4066 112.129 36.4093 122.902 43.3593 132.977C56.1518 151.512 72.3608 162.99 78.7343 167.063C89.8129 174.142 192.727 240.486 237.676 269.469C238.014 272.051 239.436 274.336 241.645 275.742C242.652 276.384 243.761 276.808 244.939 276.999C246.279 277.215 247.637 277.122 248.941 276.725L251.309 278.249L253.204 279.469C253.477 281.612 254.702 283.564 256.604 284.78C257.483 285.339 258.442 285.709 259.464 285.874C260.582 286.054 261.724 285.975 262.789 285.65L264.351 286.657C264.634 286.838 264.952 286.963 265.274 287.015C265.741 287.09 266.229 287.028 266.674 286.824L284.813 278.452C285.848 277.975 286.411 276.845 286.167 275.732L282.885 260.844C282.767 260.316 282.476 259.84 282.059 259.496C275.966 254.487 269.945 249.372 264.14 244.287C265.336 240.111 263.628 235.418 259.774 232.954C258.573 232.184 257.255 231.682 255.856 231.456C254.032 231.162 252.189 231.367 250.511 232.029C211.947 196.414 181.441 160.028 159.827 123.863C142.98 95.6725 135.51 69.5609 135.436 69.2974C135.216 68.5317 134.64 67.9172 133.884 67.66C133.757 67.6149 133.627 67.5817 133.49 67.5594Z" fill="black"/>
<path d="M269.902 330.835L262.627 331.813C262.627 331.813 253.813 321.578 255.925 307.059C258.038 292.54 278.557 265.225 284.008 250.282C289.46 235.339 287.722 226.045 283.928 221.573L291.148 217.487C291.148 217.487 309.268 228.753 305.281 249.031C302.776 261.763 285.877 287.785 279.49 300.619C274.077 311.489 268.171 321.536 269.908 330.836L269.902 330.835Z" fill="#035953" stroke="black" stroke-linecap="round" stroke-linejoin="round"/>
<path d="M267.155 331.128L264.408 331.42C264.408 331.42 260.729 321.113 263.325 306.678C266.129 291.068 283.324 271.53 289.508 256.877C296.485 240.352 291.023 224.069 287.223 219.596L290.07 218.344C290.07 218.344 300.572 229.146 297.824 247.864C295.489 263.795 280.693 283.487 273.659 296.905C266.646 310.276 265.412 321.827 267.149 331.127L267.155 331.128Z" fill="#00EDFF"/>
<path d="M354.006 336.974C354.006 336.974 342.308 332.059 332.996 320.995C323.69 309.933 322.544 300.501 323.709 298.683C325.335 296.141 334.561 296.914 343.294 296.865C352.027 296.815 368.565 298.168 381.646 288.102C381.646 288.102 379.431 294.101 373.224 298.074C362.828 304.739 352.338 306.738 347.828 314.599C343.318 322.461 348.886 332.165 354.007 336.968" fill="#F29208"/>
<path d="M354.006 336.974C354.006 336.974 342.308 332.059 332.996 320.995C323.69 309.933 322.544 300.501 323.709 298.683C325.335 296.141 334.561 296.914 343.294 296.865C352.027 296.815 368.565 298.168 381.646 288.102C381.646 288.102 379.431 294.101 373.224 298.074C362.828 304.739 352.338 306.738 347.828 314.599C343.318 322.461 348.886 332.165 354.007 336.968" stroke="black" stroke-width="4" stroke-linecap="round" stroke-linejoin="round"/>
<path d="M269.902 330.835L262.627 331.813C262.627 331.813 253.813 321.578 255.925 307.059C258.038 292.54 278.557 265.225 284.008 250.282C289.46 235.339 287.722 226.045 283.928 221.573L291.148 217.487C291.148 217.487 309.268 228.753 305.281 249.031C302.776 261.763 285.877 287.785 279.49 300.619C274.077 311.489 268.171 321.536 269.908 330.836L269.902 330.835Z" stroke="black" stroke-width="4" stroke-linecap="round" stroke-linejoin="round"/>
<path d="M253.949 243.904C255.405 244.139 256.777 243.15 257.012 241.693C257.247 240.237 256.257 238.865 254.801 238.63C253.345 238.395 251.973 239.385 251.738 240.841C251.503 242.298 252.493 243.669 253.949 243.904Z" fill="#724D1D"/>
<path d="M255.662 253.391C256.828 253.579 257.926 252.787 258.114 251.621C258.302 250.455 257.51 249.357 256.344 249.169C255.178 248.981 254.081 249.773 253.892 250.939C253.704 252.105 254.496 253.202 255.662 253.391Z" fill="#724D1D"/>
<path d="M260.194 280.672C261.215 280.837 262.176 280.143 262.341 279.123C262.505 278.103 261.812 277.142 260.791 276.977C259.771 276.812 258.81 277.505 258.645 278.526C258.48 279.546 259.174 280.507 260.194 280.672Z" fill="#724D1D"/>
<path d="M246.081 270.802C247.392 271.014 248.627 270.123 248.839 268.812C249.05 267.501 248.159 266.266 246.848 266.054C245.537 265.843 244.303 266.734 244.091 268.045C243.879 269.356 244.77 270.59 246.081 270.802Z" fill="#724D1D"/>
<path d="M263.733 267.156C264.609 267.298 265.433 266.703 265.574 265.828C265.715 264.952 265.121 264.128 264.245 263.987C263.37 263.846 262.546 264.44 262.405 265.316C262.263 266.191 262.858 267.015 263.733 267.156Z" fill="#724D1D"/>
<path d="M305.791 238.198C305.791 238.198 303.047 251.842 289.616 274.59C282.384 286.846 272.064 304.353 269.489 311.968C267.407 318.136 267.149 331.126 267.149 331.126L269.896 330.834C269.896 330.834 268.687 324.797 271.764 316.919C274.84 309.041 296.647 268.516 299.165 264.401C301.677 260.285 307.76 246.1 305.791 238.198Z" fill="#04332B"/>
<path d="M246.984 240.073C246.984 240.073 249.422 235.049 254.787 235.376C260.657 235.729 261.936 241.409 261.936 241.409C261.936 241.409 260.934 234.203 254.425 234.237C248.468 234.269 246.977 240.078 246.977 240.078L246.984 240.073Z" fill="white"/>
<path d="M260.947 245.579C263.192 242.067 262.081 237.347 258.468 235.038C254.854 232.729 250.105 233.704 247.86 237.217C245.616 240.729 246.726 245.449 250.34 247.758C253.954 250.067 258.703 249.092 260.947 245.579Z" stroke="black" stroke-width="2" stroke-linecap="round" stroke-linejoin="round"/>
<g style="mix-blend-mode:multiply">
<path d="M326.467 311.424C325.941 311.339 293.125 289.784 293.125 289.784L299.5 277.475L294.886 272.196L284.031 292.671L337.901 325.574L326.473 311.425L326.467 311.424Z" fill="#E5CBA1"/>
</g>
<path d="M292.155 218.656L288.304 222.366C288.304 222.366 293.704 229.196 287.208 249.278C285.207 255.471 273.697 272.558 273.697 272.558L267.854 279.48L284.967 249.094L287.283 237.264L286.601 226.373L283.922 221.572L291.141 217.486L292.155 218.656Z" fill="white"/>
<path d="M269.902 330.835L262.627 331.813C262.627 331.813 253.813 321.578 255.925 307.059C258.038 292.54 278.557 265.225 284.008 250.282C289.46 235.339 287.722 226.045 283.928 221.573L291.148 217.487C291.148 217.487 309.268 228.753 305.281 249.031C302.776 261.763 285.877 287.785 279.49 300.619C274.077 311.489 268.171 321.536 269.908 330.836L269.902 330.835Z" stroke="black" stroke-width="4" stroke-linecap="round" stroke-linejoin="round"/>
<path d="M353.567 297.801C353.567 297.801 360.792 300.177 368.865 297.143C376.939 294.11 381.121 289.644 381.121 289.644L377.893 290.748L367.483 294.76L357.852 296.456L353.568 297.795L353.567 297.801Z" fill="white"/>
<path d="M329.07 312.213C329.07 312.213 330.706 319.368 335.734 317.794C341.44 316.01 340.453 312.052 340.453 312.052C340.453 312.052 344.541 308.964 341.407 303.831C338.273 298.698 329.071 312.207 329.071 312.207L329.07 312.213Z" fill="#CE6F09"/>
<path d="M343.627 305.208C343.627 305.208 345.101 310.097 349.053 309.109C353.695 307.951 353.355 304.012 352.458 302.162C351.56 300.311 343.627 305.208 343.627 305.208Z" fill="#CE6F09"/>
<path d="M323.676 298.512C323.676 298.512 332.244 318.131 349.06 329.156L352.728 335.694L349.361 335.15L334.187 323.342L325.603 309.751L323.677 298.506L323.676 298.512Z" fill="#CE6F09"/>
<path d="M347.627 306.885C349.978 307.265 352.192 305.667 352.572 303.315C352.952 300.964 351.354 298.75 349.002 298.37C346.651 297.99 344.437 299.588 344.057 301.94C343.677 304.291 345.275 306.505 347.627 306.885Z" fill="#E5D6A3" stroke="black" stroke-width="2" stroke-linecap="round" stroke-linejoin="round"/>
<path d="M332.853 315.346C335.323 315.745 337.649 314.066 338.048 311.596C338.447 309.125 336.768 306.799 334.298 306.4C331.828 306.001 329.502 307.68 329.103 310.15C328.704 312.621 330.383 314.947 332.853 315.346Z" fill="#BCAB7A" stroke="black" stroke-width="2" stroke-linecap="round" stroke-linejoin="round"/>
<path d="M333.332 312.534C334.207 312.675 335.031 312.08 335.173 311.205C335.314 310.33 334.719 309.506 333.844 309.364C332.969 309.223 332.145 309.818 332.004 310.693C331.862 311.568 332.457 312.392 333.332 312.534Z" fill="#724D1D"/>
<path d="M347.972 304.063C348.702 304.181 349.389 303.685 349.507 302.955C349.625 302.225 349.129 301.538 348.399 301.42C347.669 301.302 346.982 301.798 346.864 302.528C346.746 303.258 347.242 303.945 347.972 304.063Z" fill="#724D1D"/>
<path d="M340.641 307.496C342.308 304.886 341.464 301.366 338.755 299.635C336.046 297.904 332.498 298.617 330.83 301.228C329.162 303.838 330.006 307.357 332.715 309.088C335.424 310.819 338.973 310.106 340.641 307.496Z" fill="#E5D6A3" stroke="black" stroke-width="2" stroke-linecap="round" stroke-linejoin="round"/>
<path d="M335.145 306.323C336.166 306.487 337.127 305.794 337.292 304.773C337.457 303.753 336.763 302.792 335.742 302.627C334.722 302.462 333.761 303.156 333.596 304.176C333.431 305.197 334.125 306.158 335.145 306.323Z" fill="#724D1D"/>
<path d="M354.006 336.974C354.006 336.974 342.308 332.059 332.996 320.995C323.69 309.933 322.544 300.501 323.709 298.683C325.335 296.141 334.561 296.914 343.294 296.865C352.027 296.815 368.565 298.168 381.646 288.102C381.646 288.102 379.431 294.101 373.224 298.074C362.828 304.739 352.338 306.738 347.828 314.599C343.318 322.461 348.886 332.165 354.007 336.968" stroke="black" stroke-width="4" stroke-linecap="round" stroke-linejoin="round"/>
<path d="M252.918 267.035C252.662 268.619 252.064 272.315 246.613 272.52C242.206 272.686 240.616 269.385 240.261 268.242C240.261 268.242 240.295 274.751 246.272 274.631C253.407 274.489 253.358 267.652 252.918 267.035Z" fill="#BCAB7A"/>
<path d="M252.005 271.598C253.994 268.486 253.165 264.404 250.155 262.48C247.144 260.556 243.091 261.52 241.103 264.632C239.114 267.744 239.943 271.826 242.953 273.75C245.964 275.673 250.017 274.71 252.005 271.598Z" stroke="black" stroke-width="2" stroke-linecap="round" stroke-linejoin="round"/>
<path d="M262.105 266.599C262.105 266.599 263.203 267.175 263.733 267.156C266.455 267.056 267.159 266.084 267.5 263.973C267.5 263.973 268.231 269.509 263.903 269.638C261.191 269.715 262.104 266.605 262.104 266.605L262.105 266.599Z" fill="#BCAB7A"/>
<path d="M262.913 269.656C265.264 270.036 267.478 268.438 267.858 266.086C268.238 263.735 266.64 261.521 264.289 261.141C261.937 260.761 259.723 262.359 259.343 264.711C258.963 267.062 260.561 269.276 262.913 269.656Z" stroke="black" stroke-width="2" stroke-linecap="round" stroke-linejoin="round"/>
<path d="M262.507 270.374C263.662 268.567 263.053 266.115 261.147 264.898C259.242 263.68 256.761 264.158 255.606 265.965C254.452 267.771 255.061 270.223 256.966 271.441C258.872 272.659 261.353 272.181 262.507 270.374Z" fill="#E5D6A3" stroke="black" stroke-width="2" stroke-linecap="round" stroke-linejoin="round"/>
<path d="M258.737 269.601C259.467 269.719 260.154 269.223 260.272 268.493C260.39 267.763 259.894 267.076 259.164 266.958C258.434 266.84 257.747 267.336 257.629 268.066C257.511 268.796 258.007 269.483 258.737 269.601Z" fill="#724D1D"/>
<path d="M262.76 266.459C262.76 266.459 262.775 269.713 259.558 270.181C256.082 270.694 255.385 268.513 255.029 267.376C255.029 267.376 254.702 272.741 260.647 272.21C263.654 271.942 262.76 266.459 262.76 266.459Z" fill="#BCAB7A"/>
<path d="M262.507 270.374C263.662 268.567 263.053 266.115 261.147 264.898C259.242 263.68 256.761 264.158 255.606 265.965C254.452 267.771 255.061 270.223 256.966 271.441C258.872 272.659 261.353 272.181 262.507 270.374Z" stroke="black" stroke-width="2" stroke-linecap="round" stroke-linejoin="round"/>
<path d="M264.842 277.085C264.842 277.085 264.748 280.745 261.437 281.413C256.959 282.315 255.439 278.278 255.439 278.278C255.439 278.278 256.642 284.086 261.054 283.517C266.631 282.798 264.841 277.091 264.841 277.091L264.842 277.085Z" fill="#BCAB7A"/>
<path d="M264.635 281.461C266.046 279.254 265.318 276.268 263.009 274.793C260.7 273.318 257.685 273.911 256.275 276.119C254.864 278.326 255.593 281.311 257.901 282.786C260.21 284.262 263.225 283.668 264.635 281.461Z" stroke="black" stroke-width="2" stroke-linecap="round" stroke-linejoin="round"/>
<path d="M344.621 302.51C344.621 302.51 345.669 299.899 347.865 299.714C350.061 299.529 351.894 300.942 351.894 300.942C351.894 300.942 350.946 297.469 347.254 298.517C343.557 299.564 344.626 302.517 344.626 302.517L344.621 302.51Z" fill="white"/>
<path d="M352.457 302.162C352.457 302.162 353.016 306.682 348.482 306.944C343.948 307.205 344.154 303.502 344.154 303.502C344.154 303.502 346.309 305.961 349.122 305.335C351.93 304.703 352.456 302.168 352.456 302.168L352.457 302.162Z" fill="#BCAB7A"/>
<path d="M347.627 306.885C349.978 307.265 352.192 305.667 352.572 303.315C352.952 300.964 351.354 298.75 349.002 298.37C346.651 297.99 344.437 299.588 344.057 301.94C343.677 304.291 345.275 306.505 347.627 306.885Z" stroke="black" stroke-width="2" stroke-linecap="round" stroke-linejoin="round"/>
<path d="M341.128 302.939C341.128 302.939 340.049 301.151 336.353 300.554C332.658 299.957 330.413 302.65 330.413 302.65C330.413 302.65 331.384 298.499 335.666 298.467C339.948 298.435 341.128 302.939 341.128 302.939Z" fill="white"/>
<path d="M341.2 304.049C341.2 304.049 341.044 308.355 335.152 307.95C330.323 307.611 330.384 303.927 330.384 303.927C330.384 303.927 329.36 310.266 335.497 309.877C341.311 309.515 341.2 304.049 341.2 304.049Z" fill="#BCAB7A"/>
<path d="M340.641 307.496C342.308 304.886 341.464 301.366 338.755 299.635C336.046 297.904 332.498 298.617 330.83 301.228C329.162 303.838 330.006 307.357 332.715 309.088C335.424 310.819 338.973 310.106 340.641 307.496Z" stroke="black" stroke-width="2" stroke-linecap="round" stroke-linejoin="round"/>
<path d="M170.421 190.865C168.155 194.831 173.022 201.581 173.534 198.412C174.046 195.242 178.665 186.779 177.506 183.886C176.348 180.993 170.421 190.865 170.421 190.865Z" fill="#737B82"/>
<path d="M134.43 131.958C132.946 134.424 133.335 142.077 135.432 139.164C137.528 136.25 135.908 129.491 134.43 131.958Z" fill="#737B82"/>
<path d="M193.168 221.083C191.939 221.971 192.585 228.033 194.597 225.646C196.609 223.259 193.168 221.083 193.168 221.083Z" fill="#737B82"/>
</svg>
