<svg width="400" height="400" viewBox="0 0 400 400" fill="none" xmlns="http://www.w3.org/2000/svg">
<path d="M288.141 271.602L349.714 297.363L343.79 284.725L342.147 271.308C342.147 271.308 312.496 265.927 294.499 249.816L288.141 271.596L288.141 271.602Z" fill="#F9CC10" stroke="black" stroke-width="4" stroke-linecap="round" stroke-linejoin="round"/>
<path d="M300.535 254.82L306.007 265.752" stroke="#FFDD55" stroke-miterlimit="10"/>
<path d="M301.326 269.18L305.386 277.311" stroke="#FFDD55" stroke-miterlimit="10"/>
<path d="M314.912 270.478L319.159 278.886" stroke="#FFDD55" stroke-miterlimit="10"/>
<path d="M325.562 274.211L329.808 282.619" stroke="#FFDD55" stroke-miterlimit="10"/>
<path d="M294.104 274.239L312.411 261.07" stroke="#FFDD55" stroke-miterlimit="10"/>
<path d="M303.698 278.39L322.005 265.221" stroke="#FFDD55" stroke-miterlimit="10"/>
<path d="M314.5 282.568L329.216 271.845" stroke="#FFDD55" stroke-miterlimit="10"/>
<path d="M324.094 286.719L335.687 278.152" stroke="#FFDD55" stroke-miterlimit="10"/>
<path d="M333.479 290.338L343.694 282.93" stroke="#FFDD55" stroke-miterlimit="10"/>
<path d="M288.141 271.602L349.714 297.363L343.79 284.725L342.147 271.308C342.147 271.308 312.496 265.927 294.499 249.816L288.141 271.596L288.141 271.602Z" stroke="black" stroke-width="4" stroke-linecap="round" stroke-linejoin="round"/>
<path d="M21.4224 95.996C21.4224 95.996 78.1564 131.933 118.526 90.2588C118.526 90.2588 129.261 113.377 149.409 137.348C167.913 159.371 207.102 200.423 282.658 244.497L287.892 257.711L272.442 268.112C272.442 268.112 98.5924 192.021 83.8371 185.634C69.0819 179.248 21.0158 153.639 21.428 95.9904" fill="#D28F00"/>
<mask id="mask0_6399_9514" style="mask-type:luminance" maskUnits="userSpaceOnUse" x="21" y="90" width="268" height="179">
<path d="M21.9863 95.9962C21.9863 95.9962 78.7204 131.933 119.09 90.259C119.09 90.259 129.824 113.377 149.972 137.348C168.477 159.371 207.666 200.424 283.221 244.497L288.456 257.711L273.006 268.113C273.006 268.113 99.1564 192.021 84.4011 185.635C69.6459 179.248 21.5798 153.639 21.992 95.9906" fill="white"/>
</mask>
<g mask="url(#mask0_6399_9514)">
<path d="M250.492 231.335C246.889 227.026 236.731 230.392 239.221 233.379C241.711 236.366 242.711 237.868 245.207 237.868C247.703 237.868 248.798 239.189 250.492 241.019C252.186 242.854 253.784 235.27 250.492 231.335Z" fill="#915410"/>
<path d="M198.343 207.46C195.638 205.839 193.854 212.943 197.344 212.943C200.833 212.943 200.833 208.956 198.343 207.46Z" fill="#915410"/>
<path d="M168.923 179.536C163.881 177.012 151.971 162.087 150.475 159.094C148.979 156.101 152.203 156.451 154.332 159.269C156.461 162.087 171.916 181.032 168.923 179.536Z" fill="#915410"/>
<path d="M247.2 245.35C245.206 246.349 245.703 247.84 247.697 248.342C249.69 248.845 253.682 249.839 252.683 247.343C251.683 244.847 247.2 245.35 247.2 245.35Z" fill="#915410"/>
<path d="M55.2461 53.893L65.721 232.385L122.06 248.343L109.592 31.458L55.2461 53.893Z" fill="#FFDD55"/>
<path d="M195.847 80.3202L211.303 295.708L218.282 292.219L202.827 79.8232L195.847 80.3202Z" fill="#FFDD55"/>
<path d="M275.203 248.969C275.203 248.969 271.911 251.731 273.52 254.023C275.13 256.316 280.714 249.72 279.416 247.287C278.117 244.853 275.203 248.969 275.203 248.969Z" fill="#915410"/>
<path d="M238.95 238.523C239.091 234.914 223.771 225.411 223.269 227.404C222.766 229.397 226.758 233.39 228.255 234.881C229.751 236.371 238.673 245.655 238.95 238.523Z" fill="#915410"/>
<path d="M209.309 79.3208L226.758 321.633L239.226 297.702L223.771 75.8311L209.309 79.3208Z" fill="#FFDD55"/>
<path d="M18.8861 92.0264L-0.697265 183.873L205.888 288.582L270.99 270.75L279.24 266.695L251.26 252.572C251.26 252.572 96.5587 180.823 89.709 177.424C82.8594 174.024 35.2902 144.243 32.6136 108.916L18.8917 92.0264" fill="#975B00"/>
<path d="M18.8865 92.0262L69.8777 47.0659L258.76 111.7L296.407 170.484L287.525 254.379C287.525 254.379 243.095 228.901 225.454 216.014C207.814 203.123 165.936 176.052 129.983 130.899C121.467 120.204 115.188 104.348 115.188 104.348C115.188 104.348 78.8167 133.734 32.6027 108.922L18.8809 92.0319" fill="#FFCA1B"/>
<path d="M115.08 106.742C115.08 106.742 97.6312 121.7 65.2239 119.707C36.2272 117.923 32.3196 109.238 32.3196 109.238L12.8774 84.8095C12.8774 84.8095 123.065 57.3884 125.058 58.8848C127.051 60.3812 115.086 106.748 115.086 106.748L115.08 106.742Z" fill="white"/>
<path d="M9.41091 80.5579L23.3417 97.2726C23.3417 97.2726 24.7647 124.485 39.2941 147.631C52.7562 169.072 87.6538 189.012 87.6538 189.012C87.6538 189.012 58.2393 182.032 56.246 180.536C54.2527 179.039 -8.07178 112.231 -8.07178 112.231L9.41091 80.5635L9.41091 80.5579Z" fill="white"/>
<g style="mix-blend-mode:multiply">
<path d="M249.198 230.888C249.198 230.888 247.702 236.371 251.689 238.365C251.689 238.365 251.26 248.326 260.165 246.841C269.138 245.344 263.158 234.378 263.158 234.378L254.185 229.889L249.198 230.888Z" fill="#E5CBA1"/>
</g>
<g style="mix-blend-mode:multiply">
<path d="M272.628 249.839C272.628 249.839 274.621 255.322 269.138 256.322C269.138 256.322 268.641 258.315 265.648 258.812C263.192 259.224 260.662 257.813 260.662 254.323C260.662 251.782 272.628 249.833 272.628 249.833L272.628 249.839Z" fill="#E5CBA1"/>
</g>
<g style="mix-blend-mode:multiply">
<path d="M272.131 262.301C272.131 262.301 274.124 265.294 271.131 269.281C268.138 273.267 263.965 263.99 263.965 263.99L272.125 262.301L272.131 262.301Z" fill="#E5CBA1"/>
</g>
<g style="mix-blend-mode:multiply">
<path d="M259.165 253.329C259.165 253.329 262.158 259.315 257.172 262.302C252.185 265.289 255.178 253.329 255.178 253.329L259.165 253.329Z" fill="#E5CBA1"/>
</g>
</g>
<path d="M21.9868 95.996C21.9868 95.996 78.7209 131.933 119.09 90.2588C119.09 90.2588 129.825 113.377 149.973 137.348C168.478 159.371 207.667 200.423 283.222 244.497L288.457 257.711L273.007 268.112C273.007 268.112 99.1568 192.021 84.4016 185.634C69.6463 179.248 21.5802 153.639 21.9925 95.9904" stroke="black" stroke-width="4" stroke-linecap="round" stroke-linejoin="round"/>
<path d="M268.258 254.752C270.478 254.752 272.278 252.952 272.278 250.731C272.278 248.511 270.478 246.71 268.258 246.71C266.037 246.71 264.237 248.511 264.237 250.731C264.237 252.952 266.037 254.752 268.258 254.752Z" fill="#E5D6A3" stroke="black" stroke-width="2" stroke-linecap="round" stroke-linejoin="round"/>
<path d="M271.598 265.356C272.568 263.115 271.454 260.476 269.109 259.462C266.765 258.447 264.079 259.442 263.109 261.683C262.139 263.924 263.253 266.563 265.597 267.577C267.942 268.592 270.628 267.597 271.598 265.356Z" fill="#E5D6A3" stroke="black" stroke-width="2" stroke-linecap="round" stroke-linejoin="round"/>
<path d="M258.508 258.163C259.876 255.003 258.506 251.369 255.449 250.047C252.393 248.724 248.806 250.213 247.439 253.373C246.071 256.533 247.441 260.167 250.498 261.489C253.555 262.812 257.141 261.323 258.508 258.163Z" fill="#E5D6A3" stroke="black" stroke-width="2" stroke-linecap="round" stroke-linejoin="round"/>
<path d="M259.325 244.61C262.434 244.61 264.955 242.089 264.955 238.98C264.955 235.871 262.434 233.35 259.325 233.35C256.215 233.35 253.695 235.871 253.695 238.98C253.695 242.089 256.215 244.61 259.325 244.61Z" fill="#E5D6A3" stroke="black" stroke-width="2" stroke-linecap="round" stroke-linejoin="round"/>
<path d="M263.159 235.875C263.159 235.875 259.245 240.014 253.723 238.444L254.157 236.75C254.157 236.75 255.422 237.456 257.794 236.671C260.166 235.886 261.561 233.819 261.561 233.819L263.159 235.88L263.159 235.875Z" fill="#BCAB7A"/>
<path d="M264.655 237.371C265.152 236.874 265.655 243.357 260.324 244.481C255.705 245.458 253.689 240.364 253.689 239.867C254.186 240.867 255.603 242.939 259.675 242.358C263.164 241.861 264.164 239.365 264.661 237.371L264.655 237.371Z" fill="#BCAB7A"/>
<path d="M259.325 244.61C262.434 244.61 264.955 242.089 264.955 238.98C264.955 235.871 262.434 233.35 259.325 233.35C256.215 233.35 253.695 235.871 253.695 238.98C253.695 242.089 256.215 244.61 259.325 244.61Z" stroke="black" stroke-width="2" stroke-linecap="round" stroke-linejoin="round"/>
<path d="M262.87 232.888C264.413 229.321 262.689 225.143 259.02 223.555C255.351 221.967 251.125 223.571 249.582 227.137C248.039 230.704 249.762 234.882 253.431 236.47C257.101 238.058 261.326 236.454 262.87 232.888Z" fill="#E5D6A3" stroke="black" stroke-width="2" stroke-linecap="round" stroke-linejoin="round"/>
<path d="M263.785 227.494C263.785 227.494 264.423 235.615 257.794 236.665C250.193 237.873 249.199 230.888 249.199 230.888C249.199 230.888 250.707 235.524 257.178 234.875C262.164 234.378 263.164 229.392 263.785 227.489L263.785 227.494Z" fill="#BCAB7A"/>
<path d="M283.787 310.018L277.236 312C277.236 312 267.603 303.891 267.388 290.214C267.173 276.538 281.996 248.348 284.792 233.785C287.587 219.222 284.605 210.927 280.449 207.375L286.486 202.541C286.486 202.541 304.838 210.215 304.183 229.471C303.771 241.561 292.087 268.022 288.118 280.784C284.752 291.592 280.811 301.717 283.792 310.018L283.787 310.018Z" fill="#FFCA1B"/>
<path d="M281.302 310.695L278.817 311.373C278.817 311.373 273.899 302.434 274.142 288.763C274.401 273.98 287.321 253.442 290.834 239.037C294.798 222.791 287.35 208.617 283.188 205.065L285.622 203.49C285.622 203.49 296.893 211.87 297.147 229.505C297.367 244.514 286.678 264.837 282.2 278.232C277.733 291.581 278.315 302.395 281.296 310.695L281.302 310.695Z" fill="white"/>
<path d="M362.103 303.162C362.103 303.162 350.606 300.378 340.391 291.581C330.181 282.783 327.725 274.273 328.527 272.427C329.645 269.846 338.251 269.185 346.281 267.841C354.31 266.497 369.732 265.283 380.275 254.074C380.275 254.074 379.128 259.924 374.007 264.504C365.429 272.184 356.072 275.583 353.091 283.489C350.109 291.394 356.676 299.498 362.103 303.157" fill="#975B00"/>
<path d="M283.787 310.018L277.236 312C277.236 312 267.603 303.891 267.388 290.214C267.173 276.538 281.996 248.348 284.792 233.785C287.587 219.222 284.605 210.927 280.449 207.375L286.486 202.541C286.486 202.541 304.838 210.215 304.183 229.471C303.771 241.561 292.087 268.022 288.118 280.784C284.752 291.592 280.811 301.717 283.792 310.018L283.787 310.018Z" stroke="black" stroke-width="4" stroke-linecap="round" stroke-linejoin="round"/>
<path d="M256.179 232.385C257.555 232.385 258.67 231.27 258.67 229.895C258.67 228.519 257.555 227.404 256.179 227.404C254.804 227.404 253.689 228.519 253.689 229.895C253.689 231.27 254.804 232.385 256.179 232.385Z" fill="#724D1D"/>
<path d="M259.166 240.861C260.267 240.861 261.16 239.968 261.16 238.867C261.16 237.766 260.267 236.874 259.166 236.874C258.065 236.874 257.173 237.766 257.173 238.867C257.173 239.968 258.065 240.861 259.166 240.861Z" fill="#724D1D"/>
<path d="M267.394 265.294C268.358 265.294 269.139 264.513 269.139 263.55C269.139 262.586 268.358 261.805 267.394 261.805C266.431 261.805 265.649 262.586 265.649 263.55C265.649 264.513 266.431 265.294 267.394 265.294Z" fill="#724D1D"/>
<path d="M252.938 258.31C254.176 258.31 255.18 257.306 255.18 256.068C255.18 254.83 254.176 253.826 252.938 253.826C251.7 253.826 250.696 254.83 250.696 256.068C250.696 257.306 251.7 258.31 252.938 258.31Z" fill="#724D1D"/>
<path d="M268.641 252.329C269.468 252.329 270.138 251.659 270.138 250.833C270.138 250.006 269.468 249.336 268.641 249.336C267.815 249.336 267.145 250.006 267.145 250.833C267.145 251.659 267.815 252.329 268.641 252.329Z" fill="#724D1D"/>
<path d="M303.043 219.425C303.043 219.425 302.546 232.39 293.567 255.322C288.734 267.678 281.839 285.324 280.602 292.716C279.603 298.702 281.297 310.696 281.297 310.696L283.781 310.018C283.781 310.018 281.771 304.642 283.431 296.934C285.091 289.226 299.135 248.687 300.841 244.526C302.54 240.364 306.03 226.405 303.043 219.425Z" fill="#975B00"/>
<path d="M249.2 229.895C249.2 229.895 250.696 224.909 255.682 224.412C261.137 223.864 263.159 228.901 263.159 228.901C263.159 228.901 261.165 222.418 255.18 223.418C249.702 224.333 249.194 229.9 249.194 229.9L249.2 229.9L249.2 229.895Z" fill="white"/>
<path d="M262.87 232.888C264.413 229.321 262.689 225.143 259.02 223.555C255.351 221.967 251.125 223.571 249.582 227.137C248.039 230.704 249.762 234.882 253.431 236.47C257.101 238.058 261.326 236.454 262.87 232.888Z" stroke="black" stroke-width="2" stroke-linecap="round" stroke-linejoin="round"/>
<g style="mix-blend-mode:multiply">
<path d="M333.123 283.579C332.626 283.579 299.219 268.621 299.219 268.621L303.257 256.344L298.225 252.171L291.28 272.63L345.749 294.901L333.129 283.579L333.123 283.579Z" fill="#E5CBA1"/>
</g>
<path d="M287.587 203.467L284.594 207.454C284.594 207.454 290.58 212.937 287.587 232.385C286.667 238.382 278.614 255.819 278.614 255.819L274.266 263.058L285.498 232.548L285.87 221.317L283.623 211.395L280.444 207.375L286.48 202.541L287.587 203.467Z" fill="white"/>
<path d="M283.787 310.018L277.236 312C277.236 312 267.603 303.891 267.388 290.214C267.173 276.538 281.996 248.348 284.792 233.785C287.587 219.222 284.605 210.927 280.449 207.375L286.486 202.541C286.486 202.541 304.838 210.215 304.183 229.471C303.771 241.561 292.087 268.022 288.118 280.784C284.752 291.592 280.811 301.717 283.792 310.018L283.787 310.018Z" stroke="black" stroke-width="4" stroke-linecap="round" stroke-linejoin="round"/>
<path d="M355.875 267.175C355.875 267.175 362.877 268.287 369.856 264.295C376.836 260.302 380.021 255.57 380.021 255.57L377.214 257.067L368.23 262.307L359.618 265.3L355.875 267.169L355.875 267.175Z" fill="white"/>
<g style="mix-blend-mode:multiply">
<path d="M335.473 284.082C335.473 284.082 338.042 290.423 342.435 288.226C347.421 285.736 345.925 282.241 345.925 282.241C345.925 282.241 349.228 278.791 345.581 274.533C341.933 270.275 335.473 284.076 335.473 284.076L335.473 284.082Z" fill="#975B00"/>
</g>
<g style="mix-blend-mode:multiply">
<path d="M347.828 275.47C347.828 275.47 349.912 279.751 353.402 278.254C357.501 276.498 356.603 272.923 355.502 271.354C354.401 269.784 347.828 275.47 347.828 275.47Z" fill="#975B00"/>
</g>
<g style="mix-blend-mode:multiply">
<path d="M328.471 272.274C328.471 272.274 339.273 289.056 356.389 296.702L360.737 302.174L357.558 302.174L341.837 293.562L331.915 282.331L328.471 272.268L328.471 272.274Z" fill="#975B00"/>
</g>
<path d="M351.757 276.419C353.978 276.419 355.778 274.619 355.778 272.398C355.778 270.178 353.978 268.378 351.757 268.378C349.537 268.378 347.737 270.178 347.737 272.398C347.737 274.619 349.537 276.419 351.757 276.419Z" fill="#E5D6A3" stroke="black" stroke-width="2" stroke-linecap="round" stroke-linejoin="round"/>
<path d="M339.42 286.403C341.752 286.403 343.643 284.512 343.643 282.179C343.643 279.846 341.752 277.955 339.42 277.955C337.087 277.955 335.196 279.846 335.196 282.179C335.196 284.512 337.087 286.403 339.42 286.403Z" fill="#BCAB7A" stroke="black" stroke-width="2" stroke-linecap="round" stroke-linejoin="round"/>
<path d="M339.442 283.742C340.269 283.742 340.939 283.072 340.939 282.246C340.939 281.419 340.269 280.75 339.442 280.75C338.616 280.75 337.946 281.419 337.946 282.246C337.946 283.072 338.616 283.742 339.442 283.742Z" fill="#724D1D"/>
<path d="M351.657 273.77C352.346 273.77 352.905 273.212 352.905 272.522C352.905 271.833 352.346 271.274 351.657 271.274C350.967 271.274 350.409 271.833 350.409 272.522C350.409 273.212 350.967 273.77 351.657 273.77Z" fill="#724D1D"/>
<path d="M345.419 278.017C346.566 275.367 345.266 272.253 342.515 271.063C339.764 269.873 336.605 271.057 335.458 273.707C334.311 276.357 335.611 279.471 338.362 280.661C341.112 281.851 344.272 280.668 345.419 278.017Z" fill="#E5D6A3" stroke="black" stroke-width="2" stroke-linecap="round" stroke-linejoin="round"/>
<path d="M340.188 277.757C341.151 277.757 341.933 276.976 341.933 276.012C341.933 275.049 341.151 274.268 340.188 274.268C339.224 274.268 338.443 275.049 338.443 276.012C338.443 276.976 339.224 277.757 340.188 277.757Z" fill="#724D1D"/>
<path d="M362.103 303.162C362.103 303.162 350.606 300.378 340.391 291.581C330.181 282.783 327.725 274.273 328.527 272.427C329.645 269.846 338.251 269.185 346.281 267.841C354.31 266.497 369.732 265.283 380.275 254.074C380.275 254.074 379.128 259.924 374.007 264.504C365.429 272.184 356.072 275.583 353.091 283.489C350.109 291.394 356.676 299.498 362.103 303.157" stroke="black" stroke-width="4" stroke-linecap="round" stroke-linejoin="round"/>
<path d="M258.669 253.826C258.669 255.323 258.669 258.812 253.683 259.812C249.651 260.619 247.698 257.818 247.201 256.819C247.201 256.819 248.2 262.805 253.683 261.805C260.228 260.614 259.166 254.329 258.669 253.826Z" fill="#BCAB7A"/>
<path d="M258.508 258.163C259.876 255.003 258.506 251.369 255.449 250.047C252.393 248.724 248.806 250.213 247.439 253.373C246.071 256.533 247.441 260.167 250.498 261.489C253.555 262.812 257.141 261.323 258.508 258.163Z" stroke="black" stroke-width="2" stroke-linecap="round" stroke-linejoin="round"/>
<path d="M267.06 252.059C267.06 252.059 268.156 252.426 268.641 252.33C271.132 251.833 271.634 250.833 271.634 248.84C271.634 248.84 273.131 253.826 269.166 254.588C266.682 255.063 267.06 252.064 267.06 252.064L267.06 252.059Z" fill="#BCAB7A"/>
<path d="M268.258 254.752C270.478 254.752 272.278 252.952 272.278 250.731C272.278 248.511 270.478 246.71 268.258 246.71C266.037 246.71 264.237 248.511 264.237 250.731C264.237 252.952 266.037 254.752 268.258 254.752Z" stroke="black" stroke-width="2" stroke-linecap="round" stroke-linejoin="round"/>
<path d="M267.992 255.472C268.785 253.638 267.861 251.472 265.926 250.634C263.991 249.797 261.779 250.606 260.985 252.44C260.191 254.275 261.116 256.441 263.051 257.278C264.986 258.116 267.198 257.307 267.992 255.472Z" fill="#E5D6A3" stroke="black" stroke-width="2" stroke-linecap="round" stroke-linejoin="round"/>
<path d="M264.407 255.322C265.096 255.322 265.655 254.763 265.655 254.074C265.655 253.385 265.096 252.826 264.407 252.826C263.717 252.826 263.159 253.385 263.159 254.074C263.159 254.763 263.717 255.322 264.407 255.322Z" fill="#724D1D"/>
<path d="M267.643 251.833C267.643 251.833 268.14 254.825 265.248 255.735C262.126 256.723 261.16 254.82 260.663 253.826C260.663 253.826 261.16 258.812 266.553 257.44C269.28 256.745 267.643 251.833 267.643 251.833Z" fill="#BCAB7A"/>
<path d="M267.992 255.472C268.785 253.638 267.861 251.472 265.926 250.634C263.991 249.797 261.779 250.606 260.985 252.44C260.191 254.275 261.116 256.441 263.051 257.278C264.986 258.116 267.198 257.307 267.992 255.472Z" stroke="black" stroke-width="2" stroke-linecap="round" stroke-linejoin="round"/>
<path d="M271.138 261.302C271.138 261.302 271.595 264.685 268.648 265.792C264.661 267.288 262.662 263.798 262.662 263.798C262.662 263.798 264.633 268.965 268.608 267.785C273.634 266.294 271.138 261.308 271.138 261.308L271.138 261.302Z" fill="#BCAB7A"/>
<path d="M271.598 265.356C272.568 263.115 271.454 260.476 269.109 259.462C266.765 258.447 264.079 259.442 263.109 261.683C262.139 263.924 263.253 266.563 265.597 267.577C267.942 268.592 270.628 267.597 271.598 265.356Z" stroke="black" stroke-width="2" stroke-linecap="round" stroke-linejoin="round"/>
<path d="M348.342 272.839C348.342 272.839 348.918 270.281 350.911 269.784C352.905 269.287 354.802 270.315 354.802 270.315C354.802 270.315 353.413 267.26 350.172 268.773C346.925 270.287 348.348 272.845 348.348 272.845L348.342 272.845L348.342 272.839Z" fill="white"/>
<path d="M355.502 271.354C355.502 271.354 356.688 275.431 352.554 276.345C348.421 277.26 348.06 273.821 348.06 273.821C348.06 273.821 350.409 275.764 352.905 274.77C355.395 273.77 355.502 271.359 355.502 271.359L355.502 271.354Z" fill="#BCAB7A"/>
<path d="M351.757 276.419C353.978 276.419 355.778 274.619 355.778 272.398C355.778 270.178 353.978 268.378 351.757 268.378C349.537 268.378 347.737 270.178 347.737 272.398C347.737 274.619 349.537 276.419 351.757 276.419Z" stroke="black" stroke-width="2" stroke-linecap="round" stroke-linejoin="round"/>
<path d="M345.191 273.753C345.191 273.753 343.931 272.268 340.442 272.268C336.952 272.268 335.286 275.08 335.286 275.08C335.286 275.08 335.563 271.116 339.499 270.45C343.435 269.784 345.191 273.753 345.191 273.753Z" fill="white"/>
<path d="M345.423 274.764C345.423 274.764 345.919 278.751 340.436 279.253C335.941 279.66 335.45 276.261 335.45 276.261C335.45 276.261 335.45 282.246 341.041 280.976C346.337 279.779 345.423 274.764 345.423 274.764Z" fill="#BCAB7A"/>
<path d="M345.419 278.017C346.566 275.367 345.266 272.253 342.515 271.063C339.764 269.873 336.605 271.057 335.458 273.707C334.311 276.357 335.611 279.471 338.362 280.661C341.112 281.851 344.272 280.668 345.419 278.017Z" stroke="black" stroke-width="2" stroke-linecap="round" stroke-linejoin="round"/>
<path d="M171.42 195.991C169.923 199.977 175.407 205.466 175.407 202.473C175.407 194.393 181.46 196.092 176.903 188.514C175.407 186.024 171.42 195.991 171.42 195.991Z" fill="#915410"/>
<path d="M196.847 220.419C195.848 221.418 197.344 226.902 198.841 224.406C200.337 221.91 196.847 220.419 196.847 220.419Z" fill="#915410"/>
<path d="M116.832 108.837L121.535 191.518L132.428 196.962L128.961 129.628C129.887 130.82 126.821 127.341 122.275 119.233C119.35 114.015 116.832 108.837 116.832 108.837Z" fill="#FFDD55"/>
<g style="mix-blend-mode:multiply">
<path d="M50.413 130.177C58.4993 140.832 65.8685 161.088 68.3644 148.625C70.8547 136.162 39.4468 115.721 50.413 130.177Z" fill="#915410"/>
</g>
<g style="mix-blend-mode:multiply">
<path d="M117.074 165.576C133.422 169.524 134.523 186.018 129.04 186.018C125.55 186.018 112.088 174.549 109.095 171.556C106.103 168.564 117.074 165.571 117.074 165.571L117.074 165.576Z" fill="#915410"/>
</g>
<g style="mix-blend-mode:multiply">
<path d="M129.536 147.128C128.537 149.619 130.033 156.604 131.53 153.611C133.314 150.042 130.756 144.079 129.536 147.128Z" fill="#915410"/>
</g>
</svg>
