<svg width="400" height="400" viewBox="0 0 400 400" fill="none" xmlns="http://www.w3.org/2000/svg">
<path d="M247.04 87.9799C247.04 87.9799 247.18 68.6699 255.97 51.4199C264.22 35.2099 278.11 29.6099 278.11 29.6099C278.11 29.6099 257.5 25.4599 242.03 45.9899C230.12 61.7999 222.44 83.1299 222.44 83.1299L247.04 87.9699V87.9799Z" fill="#BEC0C5"/>
<mask id="mask0_5624_6618" style="mask-type:luminance" maskUnits="userSpaceOnUse" x="222" y="29" width="57" height="59">
<path d="M247.04 87.9799C247.04 87.9799 247.18 68.6699 255.97 51.4199C264.22 35.2099 278.11 29.6099 278.11 29.6099C278.11 29.6099 257.5 25.4599 242.03 45.9899C230.12 61.7999 222.44 83.1299 222.44 83.1299L247.04 87.9699V87.9799Z" fill="white"/>
</mask>
<g mask="url(#mask0_5624_6618)">
<path d="M232.38 89.8699C232.38 89.8699 237.29 65.9799 246.65 51.3499C258.1 33.4599 283.14 25.3199 289.13 25.3599L312.65 41.8499L260.97 96.0699L232.38 89.8599V89.8699Z" fill="#6C7077"/>
<path d="M224.041 91.4699C224.041 91.4699 243.161 27.6899 275.761 31.9299L281.911 11.3299L203.081 45.3699L224.041 91.4699Z" fill="white"/>
</g>
<path d="M247.04 87.9799C247.04 87.9799 247.18 68.6699 255.97 51.4199C264.22 35.2099 278.11 29.6099 278.11 29.6099C278.11 29.6099 257.5 25.4599 242.03 45.9899C230.12 61.7999 222.44 83.1299 222.44 83.1299L247.04 87.9699V87.9799Z" stroke="black" stroke-width="4.76" stroke-miterlimit="10"/>
<path d="M218.381 180.99C218.381 180.99 232.681 139.15 249.541 109.97C249.541 109.97 248.241 105.3 246.281 101.29L259.021 90.0599C259.021 90.0599 237.161 74.5799 213.851 75.7399L215.061 92.3999C215.061 92.3999 208.371 97.0099 207.691 98.3399C207.691 98.3399 205.441 132.28 197.801 174.18L218.391 180.99H218.381Z" fill="#989087"/>
<mask id="mask1_5624_6618" style="mask-type:luminance" maskUnits="userSpaceOnUse" x="197" y="75" width="63" height="106">
<path d="M218.381 180.99C218.381 180.99 232.681 139.15 249.541 109.97C249.541 109.97 248.241 105.3 246.281 101.29L259.021 90.0599C259.021 90.0599 237.161 74.5799 213.851 75.7399L215.061 92.3999C215.061 92.3999 208.371 97.0099 207.691 98.3399C207.691 98.3399 205.441 132.28 197.801 174.18L218.391 180.99H218.381Z" fill="white"/>
</mask>
<g mask="url(#mask1_5624_6618)">
<path d="M254.401 83.3699L238.311 98.5699L240.021 106.35C240.021 106.35 222.681 141.07 211.711 183.61L260.981 183.98C260.981 183.98 270.281 98.1499 270.291 96.1499C270.301 94.1499 254.401 83.3799 254.401 83.3799V83.3699Z" fill="#635F5D"/>
<path d="M248.371 108.29C248.371 108.29 227.861 99.6099 208.131 96.2399L203.671 98.9799L205.651 100.99C205.651 100.99 236.901 107.88 249.491 115.3L254.191 110.67L248.361 108.28L248.371 108.29Z" fill="#00E1FF" stroke="black" stroke-width="1.36" stroke-miterlimit="10"/>
<path d="M231.971 164.77C231.971 164.77 211.461 156.09 191.731 152.72L187.271 155.46L189.251 157.47C189.251 157.47 220.501 164.36 233.091 171.78L237.791 167.15L231.961 164.76L231.971 164.77Z" fill="#00E1FF" stroke="black" stroke-width="1.36" stroke-miterlimit="10"/>
<path d="M201.411 179.87C201.411 179.87 209.761 131.32 211.991 100.71L220.701 94.1199L218.211 70.7999L192.251 69.9399L190.751 181.8L201.421 179.88L201.411 179.87Z" fill="white"/>
</g>
<path d="M218.381 180.99C218.381 180.99 232.681 139.15 249.541 109.97C249.541 109.97 248.241 105.3 246.281 101.29L259.021 90.0599C259.021 90.0599 237.161 74.5799 213.851 75.7399L215.061 92.3999C215.061 92.3999 208.371 97.0099 207.691 98.3399C207.691 98.3399 205.441 132.28 197.801 174.18L218.391 180.99H218.381Z" stroke="black" stroke-width="4.76" stroke-miterlimit="10"/>
<path d="M311.511 247.28C311.511 247.28 330.811 247.99 347.791 257.27C363.751 265.99 368.951 280.03 368.951 280.03C368.951 280.03 373.701 259.55 353.631 243.49C338.171 231.12 317.071 222.83 317.071 222.83L311.511 247.28Z" fill="#BEC0C5"/>
<mask id="mask2_5624_6618" style="mask-type:luminance" maskUnits="userSpaceOnUse" x="311" y="222" width="59" height="59">
<path d="M311.511 247.28C311.511 247.28 330.811 247.99 347.791 257.27C363.751 265.99 368.951 280.03 368.951 280.03C368.951 280.03 373.701 259.55 353.631 243.49C338.171 231.12 317.071 222.83 317.071 222.83L311.511 247.28Z" fill="white"/>
</mask>
<g mask="url(#mask2_5624_6618)">
<path d="M310.051 232.57C310.051 232.57 333.791 238.17 348.131 247.95C365.681 259.92 373.091 285.18 372.871 291.17L355.701 314.2L303.011 260.97L310.041 232.58L310.051 232.57Z" fill="#6C7077"/>
<path d="M326.081 197.82C326.081 197.82 399.441 234.61 374.351 295.02C374.351 295.02 379.371 247.11 311.591 227.3C300.401 204.23 326.081 197.82 326.081 197.82Z" fill="white"/>
</g>
<path d="M311.511 247.28C311.511 247.28 330.811 247.99 347.791 257.27C363.751 265.99 368.951 280.03 368.951 280.03C368.951 280.03 373.701 259.55 353.631 243.49C338.171 231.12 317.071 222.83 317.071 222.83L311.511 247.28Z" stroke="black" stroke-width="4.76" stroke-miterlimit="10"/>
<path d="M219.371 215.93C219.371 215.93 260.781 231.44 289.451 249.14C289.451 249.14 294.161 247.98 298.221 246.13L309.071 259.19C309.071 259.19 325.181 237.79 324.701 214.45L308.021 215.17C308.021 215.17 303.611 208.35 302.301 207.63C302.301 207.63 268.441 204.39 226.781 195.54L219.371 215.93Z" fill="#989087"/>
<mask id="mask3_5624_6618" style="mask-type:luminance" maskUnits="userSpaceOnUse" x="219" y="195" width="106" height="65">
<path d="M219.371 215.93C219.371 215.93 260.781 231.44 289.451 249.14C289.451 249.14 294.161 247.98 298.221 246.13L309.071 259.19C309.071 259.19 325.181 237.79 324.701 214.45L308.021 215.17C308.021 215.17 303.611 208.35 302.301 207.63C302.301 207.63 268.441 204.39 226.781 195.54L219.371 215.93Z" fill="white"/>
</mask>
<g mask="url(#mask3_5624_6618)">
<path d="M315.9 254.77L301.18 238.24L293.35 239.72C293.35 239.72 259.15 221.38 216.95 209.18L215.15 258.42C215.15 258.42 300.67 270.21 302.67 270.28C304.67 270.35 315.9 254.77 315.9 254.77Z" fill="#635F5D"/>
<path d="M291.18 248.02C291.18 248.02 300.45 227.77 304.39 208.15L301.78 203.62L299.71 205.54C299.71 205.54 291.91 236.57 284.13 248.95L288.62 253.78L291.18 248.03V248.02Z" fill="#00E1FF" stroke="black" stroke-width="1.36" stroke-miterlimit="10"/>
<path d="M235.2 229.98C235.2 229.98 244.47 209.73 248.41 190.11L245.8 185.58L243.73 187.5C243.73 187.5 235.93 218.53 228.15 230.91L232.64 235.74L235.2 229.99V229.98Z" fill="#00E1FF" stroke="black" stroke-width="1.36" stroke-miterlimit="10"/>
<path d="M221.241 199.33C221.241 199.33 269.99 209.03 300.47 212.74L306.63 221.76L330.051 220.41L332.171 194.52L220.521 187.59L221.251 199.34L221.241 199.33Z" fill="white"/>
</g>
<path d="M219.371 215.93C219.371 215.93 260.781 231.44 289.451 249.14C289.451 249.14 294.161 247.98 298.221 246.13L309.071 259.19C309.071 259.19 325.181 237.79 324.701 214.45L308.021 215.17C308.021 215.17 303.611 208.35 302.301 207.63C302.301 207.63 268.441 204.39 226.781 195.54L219.371 215.93Z" stroke="black" stroke-width="4.76" stroke-miterlimit="10"/>
<path d="M152.94 312.31C152.94 312.31 152.59 331.62 143.62 348.77C135.19 364.89 121.25 370.34 121.25 370.34C121.25 370.34 141.82 374.71 157.5 354.35C169.58 338.67 177.48 317.42 177.48 317.42L152.93 312.31H152.94Z" fill="#BEC0C5"/>
<mask id="mask4_5624_6618" style="mask-type:luminance" maskUnits="userSpaceOnUse" x="121" y="312" width="57" height="59">
<path d="M152.94 312.31C152.94 312.31 152.59 331.62 143.62 348.77C135.19 364.89 121.25 370.34 121.25 370.34C121.25 370.34 141.82 374.71 157.5 354.35C169.58 338.67 177.48 317.42 177.48 317.42L152.93 312.31H152.94Z" fill="white"/>
</mask>
<g mask="url(#mask4_5624_6618)">
<path d="M200.73 336.13C200.73 336.13 195.56 359.97 186.05 374.49C174.41 392.26 149.29 400.13 143.3 400.02L107.42 372.28C107.42 372.28 156.69 372.65 165.76 318.11C169.1 316.14 200.74 336.13 200.74 336.13H200.73Z" fill="#6C7077"/>
<path d="M158.43 317.39C158.43 317.39 156.05 368.65 108.73 373.62L125.83 312.49L158.42 317.39H158.43Z" fill="white"/>
</g>
<path d="M152.94 312.31C152.94 312.31 152.59 331.62 143.62 348.77C135.19 364.89 121.25 370.34 121.25 370.34C121.25 370.34 141.82 374.71 157.5 354.35C169.58 338.67 177.48 317.42 177.48 317.42L152.93 312.31H152.94Z" stroke="black" stroke-width="4.76" stroke-miterlimit="10"/>
<path d="M182.601 219.61C182.601 219.61 167.861 261.3 150.681 290.29C150.681 290.29 151.931 294.97 153.851 299.01L140.991 310.1C140.991 310.1 162.681 325.81 186.011 324.9L184.981 308.23C184.981 308.23 191.721 303.69 192.411 302.37C192.411 302.37 195.021 268.45 203.111 226.64L182.591 219.61H182.601Z" fill="#989087"/>
<mask id="mask5_5624_6618" style="mask-type:luminance" maskUnits="userSpaceOnUse" x="140" y="219" width="64" height="106">
<path d="M182.601 219.61C182.601 219.61 167.861 261.3 150.681 290.29C150.681 290.29 151.931 294.97 153.851 299.01L140.991 310.1C140.991 310.1 162.681 325.81 186.011 324.9L184.981 308.23C184.981 308.23 191.721 303.69 192.411 302.37C192.411 302.37 195.021 268.45 203.111 226.64L182.591 219.61H182.601Z" fill="white"/>
</mask>
<g mask="url(#mask5_5624_6618)">
<path d="M178.961 332.19L177.081 307.18L182.681 301.52C182.681 301.52 184.301 262.28 197.771 220.46L241.891 247.13C241.891 247.13 203.861 324.64 202.811 326.33C201.751 328.03 178.961 332.19 178.961 332.19Z" fill="#635F5D"/>
<path d="M151.831 291.99C151.831 291.99 172.251 300.89 191.941 304.47L196.421 301.78L194.461 299.75C194.461 299.75 163.291 292.52 150.771 284.97L146.021 289.55L151.821 292L151.831 291.99Z" fill="#00E1FF" stroke="black" stroke-width="1.36" stroke-miterlimit="10"/>
<path d="M168.831 235.69C168.831 235.69 189.251 244.59 208.941 248.17L213.421 245.48L211.461 243.45C211.461 243.45 180.291 236.22 167.771 228.67L163.031 233.25L168.831 235.7V235.69Z" fill="#00E1FF" stroke="black" stroke-width="1.36" stroke-miterlimit="10"/>
<path d="M188.481 217.06C188.481 217.06 171.221 264.1 155.971 290.73L159.891 300.75L140.451 318.58L119.631 304.74L180.881 211.13L188.491 217.06H188.481Z" fill="white"/>
</g>
<path d="M182.601 219.61C182.601 219.61 167.861 261.3 150.681 290.29C150.681 290.29 151.931 294.97 153.851 299.01L140.991 310.1C140.991 310.1 162.681 325.81 186.011 324.9L184.981 308.23C184.981 308.23 191.721 303.69 192.411 302.37C192.411 302.37 195.021 268.45 203.111 226.64L182.591 219.61H182.601Z" stroke="black" stroke-width="4.76" stroke-miterlimit="10"/>
<path d="M88.1906 150.31C88.1906 150.31 68.9006 149.4 52.0206 139.93C36.1506 131.04 31.1106 116.94 31.1106 116.94C31.1106 116.94 26.1406 137.37 46.0406 153.64C61.3706 166.17 82.3806 174.69 82.3806 174.69L88.2006 150.3L88.1906 150.31Z" fill="#BEC0C5"/>
<mask id="mask6_5624_6618" style="mask-type:luminance" maskUnits="userSpaceOnUse" x="30" y="116" width="59" height="59">
<path d="M88.1906 150.31C88.1906 150.31 68.9006 149.4 52.0206 139.93C36.1506 131.04 31.1106 116.94 31.1106 116.94C31.1106 116.94 26.1406 137.37 46.0406 153.64C61.3706 166.17 82.3806 174.69 82.3806 174.69L88.2006 150.3L88.1906 150.31Z" fill="white"/>
</mask>
<g mask="url(#mask6_5624_6618)">
<path d="M89.4906 165.04C89.4906 165.04 65.8106 159.18 51.5706 149.25C34.1506 137.09 27.0106 111.76 27.2906 105.77L44.7006 82.9297L96.8206 136.72L89.4806 165.04H89.4906Z" fill="#6C7077"/>
<path d="M92.9204 172.4C92.9204 172.4 29.1304 153.94 33.3804 120.02L12.4404 114.29L46.7104 193.02L92.9304 172.4H92.9204Z" fill="white"/>
</g>
<path d="M88.1906 150.31C88.1906 150.31 68.9006 149.4 52.0206 139.93C36.1506 131.04 31.1106 116.94 31.1106 116.94C31.1106 116.94 26.1406 137.37 46.0406 153.64C61.3706 166.17 82.3806 174.69 82.3806 174.69L88.2006 150.3L88.1906 150.31Z" stroke="black" stroke-width="4.76" stroke-miterlimit="10"/>
<path d="M179.991 182.65C179.991 182.65 138.751 166.7 110.271 148.69C110.271 148.69 105.551 149.8 101.471 151.61L90.7608 138.44C90.7608 138.44 74.4208 159.67 74.6508 183.01L91.3408 182.47C91.3408 182.47 95.6808 189.34 96.9808 190.07C96.9808 190.07 130.811 193.67 172.371 202.97L180.001 182.67L179.991 182.65Z" fill="#989087"/>
<mask id="mask7_5624_6618" style="mask-type:luminance" maskUnits="userSpaceOnUse" x="74" y="138" width="107" height="65">
<path d="M179.991 182.65C179.991 182.65 138.751 166.7 110.271 148.69C110.271 148.69 105.551 149.8 101.471 151.61L90.7608 138.44C90.7608 138.44 74.4208 159.67 74.6508 183.01L91.3408 182.47C91.3408 182.47 95.6808 189.34 96.9808 190.07C96.9808 190.07 130.811 193.67 172.371 202.97L180.001 182.67L179.991 182.65Z" fill="white"/>
</mask>
<g mask="url(#mask7_5624_6618)">
<path d="M66.2607 175.53L92.2407 173.38L97.6107 179.26C97.6107 179.26 137.551 184.74 178.621 200.34L148.891 241.19C148.891 241.19 73.4407 199.23 71.8007 198.09C70.1607 196.95 66.2707 175.53 66.2707 175.53H66.2607Z" fill="#635F5D"/>
<path d="M108.531 149.79C108.531 149.79 99.0406 169.94 94.8906 189.52L97.4506 194.08L99.5406 192.18C99.5406 192.18 107.671 161.23 115.581 148.94L111.141 144.06L108.521 149.79H108.531Z" fill="#00E1FF" stroke="black" stroke-width="1.36" stroke-miterlimit="10"/>
<path d="M164.321 168.43C164.321 168.43 154.831 188.58 150.681 208.16L153.241 212.72L155.331 210.82C155.331 210.82 163.461 179.87 171.371 167.58L166.931 162.7L164.311 168.43H164.321Z" fill="#00E1FF" stroke="black" stroke-width="1.36" stroke-miterlimit="10"/>
<path d="M77.4806 189.6L79.6106 171.63L71.6606 166.25L71.9606 191.63L77.4806 189.6Z" fill="white"/>
<path d="M87.7509 151.05C87.7509 151.05 94.5109 137.78 98.5109 136.48L87.9209 128.41L79.1509 143.66L87.7509 151.05Z" fill="white"/>
<path d="M99.0806 149.8L101.701 155.82L123.081 146.65L107.171 136.55L99.0806 149.8Z" fill="white"/>
</g>
<path d="M179.991 182.65C179.991 182.65 138.751 166.7 110.271 148.69C110.271 148.69 105.551 149.8 101.471 151.61L90.7608 138.44C90.7608 138.44 74.4208 159.67 74.6508 183.01L91.3408 182.47C91.3408 182.47 95.6808 189.34 96.9808 190.07C96.9808 190.07 130.811 193.67 172.371 202.97L180.001 182.67L179.991 182.65Z" stroke="black" stroke-width="4.76" stroke-miterlimit="10"/>
<path d="M183.841 169.41L231.011 183.75L217.341 230.26L168.851 215.25L183.841 169.41Z" fill="#3C3A39"/>
<path d="M188.951 179.38L220.651 189.01L211.471 220.27L178.871 210.18L188.951 179.38Z" fill="#989188" stroke="black" stroke-width="1.36" stroke-miterlimit="10"/>
<path d="M193.701 207.98L196.921 200.41L193.821 192.79L190.601 200.36L193.701 207.98Z" fill="#00E1FF" stroke="black" stroke-width="0.34" stroke-miterlimit="10"/>
<path d="M206.461 214.03L208.901 206.98L205.621 200.28L203.181 207.33L206.461 214.03Z" fill="#00E1FF" stroke="black" stroke-width="0.34" stroke-miterlimit="10"/>
<path d="M202.361 195.42L204.041 190.63L201.821 186.06L200.141 190.85L202.361 195.42Z" fill="#00E1FF" stroke="black" stroke-width="0.34" stroke-miterlimit="10"/>
<path d="M172.501 216.27L175.901 206.31L171.261 204.28L167.841 215.57L172.501 216.27Z" fill="white"/>
<path d="M183.401 183.73L187.501 169.77L183.511 169.08L180.101 179.71L183.401 183.73Z" fill="white"/>
<path d="M183.841 169.41L231.011 183.75L217.341 230.26L168.851 215.25L183.841 169.41Z" stroke="black" stroke-width="4.76" stroke-miterlimit="10"/>
<path d="M285.69 218.45C284.75 218.45 285.66 222.45 286.34 221.12C287.02 219.79 286.36 218.46 285.69 218.45Z" fill="#7F7770"/>
<path d="M263.101 211.62C261.681 212.08 259.741 216.26 261.741 214.94C263.751 213.62 265.101 210.97 263.101 211.62Z" fill="#7F7770"/>
<path d="M192.041 185.12C191.371 185.78 191.331 191.11 192.691 187.12C194.051 183.13 188.711 184.43 191.371 185.78" fill="#7F7770"/>
<path d="M211.921 198.59C210.581 199.25 207.911 200.56 209.901 201.24C211.891 201.92 213.221 201.93 213.241 199.27C213.261 196.61 211.911 198.59 211.911 198.59H211.921Z" fill="#7F7770"/>
<path d="M138.861 173.41C139.321 174.83 136.191 174.72 132.881 172.03C129.571 169.34 129.591 166.68 131.581 168.02C133.571 169.37 138.211 171.4 138.861 173.4V173.41Z" fill="#7F7770"/>
<path d="M96.3404 159.77C94.2704 160.17 92.3204 162.4 94.3304 161.75C96.3304 161.1 100.33 161.13 100.33 161.13C100.33 161.13 99.6804 159.13 96.3404 159.77Z" fill="#7F7770"/>
<path d="M122.16 180.61C121.49 180.61 121.48 181.94 122.82 181.28C124.16 180.62 121.5 179.94 121.5 179.94" fill="#7F7770"/>
<path d="M219.2 116.07C217.51 116.9 213.17 120.69 217.84 120.06C222.51 119.43 220.54 115.42 219.2 116.07Z" fill="#7F7770"/>
<path d="M223.861 116.11C223.861 116.11 223.161 120.1 223.841 118.77C224.521 117.44 224.531 115.45 223.861 116.11Z" fill="#7F7770"/>
<path d="M213.461 170.63C211.971 170.62 210.781 172.61 212.111 172.62C213.441 172.62 214.121 170.64 213.461 170.63Z" fill="#7F7770"/>
<path d="M183.401 272.29C180.651 272.27 182.021 278.94 183.381 275.62C184.741 272.3 184.071 272.3 183.401 272.29Z" fill="#7F7770"/>
<path d="M190.38 229.73C189.44 229.73 188.37 231.05 189.7 231.06C191.03 231.06 196.37 229.78 190.38 229.73Z" fill="#7F7770"/>
<path d="M175.421 271.57C175.421 272.51 171.421 272.21 172.101 270.88C172.781 269.55 175.431 270.24 175.421 271.57Z" fill="#7F7770"/>
<path d="M171.131 310.82C170.461 310.82 169.121 312.8 170.441 313.48C171.761 314.16 175.141 308.85 173.801 308.84C172.471 308.84 171.121 310.82 171.121 310.82H171.131Z" fill="#7F7770"/>
</svg>
