<svg width="400" height="400" viewBox="0 0 400 400" fill="none" xmlns="http://www.w3.org/2000/svg">
<path d="M316.455 207.565L364.845 205.715L324.715 174.455L316.455 207.565Z" fill="#4E4C49"/>
<mask id="mask0_5624_7088" style="mask-type:luminance" maskUnits="userSpaceOnUse" x="316" y="174" width="49" height="34">
<path d="M316.455 207.565L364.845 205.715L324.715 174.455L316.455 207.565Z" fill="white"/>
</mask>
<g mask="url(#mask0_5624_7088)">
<path d="M319.965 199.075L368.825 206.365L316.455 207.565L319.965 199.075Z" fill="#35312C"/>
<path d="M327.205 212.875C327.205 212.875 338.845 200.115 335.465 175.705" stroke="#68CCF0" stroke-width="2" stroke-miterlimit="10"/>
<path d="M330.585 174.575C330.585 174.575 333.965 195.975 321.195 218.495C309.835 238.535 308.055 187.715 309.185 186.585C310.315 185.455 330.585 174.575 330.585 174.575Z" fill="#35312C"/>
</g>
<path d="M316.455 207.565L364.845 205.715L324.715 174.455L316.455 207.565Z" stroke="black" stroke-width="3" stroke-miterlimit="10"/>
<path d="M322.035 162.125L359.315 131.235L308.455 130.825L322.035 162.125Z" fill="#4E4C49"/>
<mask id="mask1_5624_7088" style="mask-type:luminance" maskUnits="userSpaceOnUse" x="308" y="130" width="52" height="33">
<path d="M322.035 162.125L359.315 131.235L308.455 130.825L322.035 162.125Z" fill="white"/>
</mask>
<g mask="url(#mask1_5624_7088)">
<path d="M319.535 155.785L362.825 128.795L323.395 166.935L319.535 155.785Z" fill="#35312C"/>
<path d="M318.195 124.275C337.715 138.165 333.245 160.305 333.245 160.305" stroke="#68CCF0" stroke-width="2" stroke-miterlimit="10"/>
<path d="M367.185 131.215L309.755 136.855L306.095 122.205L360.715 114.045L367.185 131.215Z" fill="#FFFEFD"/>
<path d="M329.455 164.065C329.455 164.065 335.085 141.545 316.855 127.275C301.235 115.055 310.205 149.045 310.205 149.045L329.465 164.065H329.455Z" fill="#35312C"/>
</g>
<path d="M322.035 162.125L359.315 131.235L308.455 130.825L322.035 162.125Z" stroke="black" stroke-width="3" stroke-miterlimit="10"/>
<path d="M295.295 117.895L319.325 79.9749L269.015 96.115L295.295 117.895Z" fill="#4E4C49"/>
<mask id="mask2_5624_7088" style="mask-type:luminance" maskUnits="userSpaceOnUse" x="269" y="79" width="51" height="39">
<path d="M295.295 117.895L319.325 79.9749L269.015 96.115L295.295 117.895Z" fill="white"/>
</mask>
<g mask="url(#mask2_5624_7088)">
<path d="M291.685 112.505L323.395 75.2249L309.255 127.505L291.685 112.505Z" fill="#35312C"/>
<path d="M303.315 108.795C303.315 108.795 302.295 92.775 284.805 89.675" stroke="#68CCF0" stroke-width="2" stroke-miterlimit="10"/>
<path d="M274.555 98.2749L327.485 78.8449L268.085 70.4049L274.555 98.2749Z" fill="#FFFEFD"/>
<path d="M273.895 89.365C273.895 89.365 296.045 91.245 303.555 115.265L292.665 118.645L268.635 89.365H273.895Z" fill="#35312C"/>
</g>
<path d="M295.295 117.895L319.325 79.9749L269.015 96.115L295.295 117.895Z" stroke="black" stroke-width="3" stroke-miterlimit="10"/>
<path d="M268.645 89.3651C268.645 89.3651 242.365 90.4951 229.225 111.135C216.085 131.785 213.835 166.695 213.835 166.695C213.835 166.695 230.355 170.825 235.985 180.205C241.615 189.585 237.115 205.355 237.115 205.355L262.265 191.845L273.155 238.025L298.685 199.355L316.325 216.245C316.325 216.245 338.605 173.745 315.195 134.025C302.805 113.005 268.645 89.3551 268.645 89.3551V89.3651Z" fill="#817863"/>
<mask id="mask3_5624_7088" style="mask-type:luminance" maskUnits="userSpaceOnUse" x="213" y="89" width="113" height="150">
<path d="M268.645 89.3651C268.645 89.3651 242.365 90.4951 229.225 111.135C216.085 131.785 213.835 166.695 213.835 166.695C213.835 166.695 230.355 170.825 235.985 180.205C241.615 189.585 237.115 205.355 237.115 205.355L262.265 191.845L273.155 238.025L298.685 199.355L316.325 216.245C316.325 216.245 338.605 173.745 315.195 134.025C302.805 113.005 268.645 89.3551 268.645 89.3551V89.3651Z" fill="white"/>
</mask>
<g mask="url(#mask3_5624_7088)">
<path d="M233.445 94.6151C233.445 94.6151 297.925 126.435 326.645 216.535" stroke="#CEC7B7" stroke-width="10" stroke-miterlimit="10"/>
<path d="M289.665 170.455C289.665 170.455 306.935 186.975 304.305 193.355C303.025 196.455 287.035 195.605 281.405 192.225C278.755 190.635 274.645 170.455 289.665 170.455Z" fill="#35312C"/>
<path d="M215.425 115.175C216.555 115.175 270.895 156.285 295.105 216.535" stroke="#CEC7B7" stroke-width="6" stroke-miterlimit="10"/>
<path d="M283.925 136.175C283.925 136.175 303.935 150.175 302.595 155.925C301.925 158.785 286.055 161.375 279.885 159.105C276.975 158.035 269.175 138.985 283.925 136.165V136.175Z" fill="#35312C"/>
<path d="M262.525 108.015C262.525 108.015 282.145 123.585 281.195 127.765C280.285 131.775 264.655 133.215 258.485 130.945C255.575 129.875 247.775 110.825 262.525 108.005V108.015Z" fill="#35312C"/>
<path d="M215.425 130.095C215.425 130.095 265.545 168.105 285.815 226.385" stroke="#CEC7B7" stroke-width="3" stroke-miterlimit="10"/>
<path d="M252.505 128.025C256.255 131.965 265.645 132.155 268.645 127.645C271.645 123.135 275.775 101.745 275.775 101.745C275.775 101.745 253.125 112.465 250.995 114.135C248.365 116.195 247.685 122.965 252.495 128.025H252.505Z" fill="#4E4C49"/>
<path d="M256.965 91.9351C256.965 91.9351 290.395 109.935 306.245 137.795C322.105 165.655 315.935 221.045 315.935 221.045L346.095 237.225L388.955 198.225L347.385 68.7951L298.525 63.2251L256.955 91.9351H256.965Z" fill="#35312C"/>
<path d="M270.435 151.685C272.195 155.675 279.355 162.335 286.945 158.005C291.395 155.465 299.705 136.445 299.705 136.445C299.705 136.445 281.085 135.255 276.045 136.325C271.215 137.355 267.245 144.445 270.445 151.685H270.435Z" fill="#4E4C49"/>
<path d="M286.665 169.515C282.725 168.575 275.775 173.555 275.595 183.025C275.405 192.415 289.155 198.455 296.615 190.155C298.305 188.275 300.555 174.015 300.555 174.015C300.555 174.015 290.605 170.445 286.665 169.505V169.515Z" fill="#4E4C49"/>
<path d="M218.805 172.605C218.805 172.605 221.335 130.375 237.385 111.225C253.435 92.0751 280.185 92.6451 280.185 92.6451L269.205 74.3451L217.115 87.2951L201.915 175.705L218.805 172.605Z" fill="#68CCF0" stroke="black" stroke-width="2" stroke-miterlimit="10"/>
<path d="M236.735 167.825C236.735 167.825 247.625 171.205 254.375 189.225C255.465 192.125 241.235 192.225 232.975 190.355C229.955 189.665 221.715 167.835 236.725 167.835L236.735 167.825Z" fill="#35312C"/>
<mask id="mask4_5624_7088" style="mask-type:luminance" maskUnits="userSpaceOnUse" x="275" y="169" width="26" height="26">
<path d="M286.665 169.515C282.725 168.575 275.775 173.555 275.595 183.025C275.405 192.415 289.155 198.455 296.615 190.155C298.305 188.275 300.555 174.015 300.555 174.015C300.555 174.015 290.605 170.445 286.665 169.505V169.515Z" fill="white"/>
</mask>
<g mask="url(#mask4_5624_7088)">
<path d="M300.556 174.015L284.416 194.575L304.966 192.645L300.556 174.015Z" fill="#35312C"/>
<path d="M294.826 171.485C292.006 170.075 286.136 171.255 283.286 174.585C281.036 177.215 279.716 181.535 281.596 185.655C283.486 189.815 293.986 195.415 299.336 184.155" stroke="#68CCF0" stroke-width="2" stroke-miterlimit="10"/>
<path d="M279.065 172.325L301.865 174.575L287.785 163.595L279.065 172.325Z" fill="white"/>
</g>
<path d="M286.665 169.515C282.725 168.575 275.775 173.555 275.595 183.025C275.405 192.415 289.155 198.455 296.615 190.155C298.305 188.275 300.555 174.015 300.555 174.015C300.555 174.015 290.605 170.445 286.665 169.505V169.515Z" stroke="black" stroke-width="2" stroke-miterlimit="10"/>
<mask id="mask5_5624_7088" style="mask-type:luminance" maskUnits="userSpaceOnUse" x="269" y="135" width="31" height="25">
<path d="M270.435 151.685C272.195 155.675 279.355 162.335 286.945 158.005C291.395 155.465 299.705 136.445 299.705 136.445C299.705 136.445 281.085 135.255 276.045 136.325C271.215 137.355 267.245 144.445 270.445 151.685H270.435Z" fill="white"/>
</mask>
<g mask="url(#mask5_5624_7088)">
<path d="M280.185 160.505L299.695 136.445L292.855 159.935L280.185 160.505Z" fill="#35312C"/>
<path d="M286.105 135.165C286.105 135.165 275.405 137.415 277.475 147.745C278.985 155.295 286.955 156.845 291.455 154.875" stroke="#68CCF0" stroke-width="2" stroke-miterlimit="10"/>
<path d="M268.085 141.635C268.085 141.635 303.845 136.285 302.995 136.285C302.145 136.285 273.715 131.215 273.715 131.215L268.085 141.635Z" fill="white"/>
</g>
<path d="M270.435 151.685C272.195 155.675 279.355 162.335 286.945 158.005C291.395 155.465 299.705 136.445 299.705 136.445C299.705 136.445 281.085 135.255 276.045 136.325C271.215 137.355 267.245 144.445 270.445 151.685H270.435Z" stroke="black" stroke-width="2" stroke-miterlimit="10"/>
<mask id="mask6_5624_7088" style="mask-type:luminance" maskUnits="userSpaceOnUse" x="248" y="101" width="28" height="31">
<path d="M252.505 128.025C256.255 131.965 265.645 132.155 268.645 127.645C271.645 123.135 275.775 101.745 275.775 101.745C275.775 101.745 253.125 112.465 250.995 114.135C248.365 116.195 247.685 122.965 252.495 128.025H252.505Z" fill="white"/>
</mask>
<g mask="url(#mask6_5624_7088)">
<path d="M262.734 131.505L278.214 96.3051L273.994 131.785L262.734 131.505Z" fill="#35312C"/>
<path d="M258.225 109.825C258.225 109.825 253.435 116.015 259.145 121.535C264.325 126.535 271.735 122.495 271.735 122.495" stroke="#68CCF0" stroke-width="2" stroke-miterlimit="10"/>
<path d="M247.245 121.085L280.755 98.8451C280.755 98.8451 246.685 108.415 246.965 109.265C247.245 110.105 247.245 121.095 247.245 121.095V121.085Z" fill="white"/>
</g>
<path d="M252.505 128.025C256.255 131.965 265.645 132.155 268.645 127.645C271.645 123.135 275.775 101.745 275.775 101.745C275.775 101.745 253.125 112.465 250.995 114.135C248.365 116.195 247.685 122.965 252.495 128.025H252.505Z" stroke="black" stroke-width="2" stroke-miterlimit="10"/>
<path d="M202.575 123.525C202.575 123.525 239.695 92.0651 238.995 97.2451C224.355 124.655 217.225 156.185 220.595 161.815C222.495 164.985 233.865 169.695 241.335 172.045C249.835 174.725 227.725 177.955 225.095 176.455C222.465 174.955 202.945 165.945 202.945 165.945L202.565 123.525H202.575Z" fill="white"/>
<path d="M264.135 189.975L278.775 238.025L267.145 247.035L264.135 189.975Z" fill="white"/>
<path d="M243.755 190.995C243.755 190.995 240.865 213.695 238.395 216.995C235.915 220.295 228.075 200.075 228.075 200.075L237.975 190.175L243.755 191.005V190.995Z" fill="white"/>
</g>
<path d="M268.645 89.3651C268.645 89.3651 242.365 90.4951 229.225 111.135C216.085 131.785 213.835 166.695 213.835 166.695C213.835 166.695 230.355 170.825 235.985 180.205C241.615 189.585 237.115 205.355 237.115 205.355L262.265 191.845L273.155 238.025L298.685 199.355L316.325 216.245C316.325 216.245 338.605 173.745 315.195 134.025C302.805 113.005 268.645 89.3551 268.645 89.3551V89.3651Z" stroke="black" stroke-width="4" stroke-miterlimit="10"/>
<path d="M238.515 189.785C236.455 191.355 195.155 200.485 195.155 200.485C195.155 200.485 225.845 170.635 226.975 169.515C228.105 168.385 237.115 166.135 241.335 172.045C245.555 177.955 244.435 185.275 238.515 189.785Z" fill="#4E4C49"/>
<mask id="mask7_5624_7088" style="mask-type:luminance" maskUnits="userSpaceOnUse" x="195" y="168" width="49" height="33">
<path d="M238.515 189.785C236.455 191.355 195.155 200.485 195.155 200.485C195.155 200.485 225.845 170.635 226.975 169.515C228.105 168.385 237.115 166.135 241.335 172.045C245.555 177.955 244.435 185.275 238.515 189.785Z" fill="white"/>
</mask>
<g mask="url(#mask7_5624_7088)">
<path d="M242.395 183.645L189.255 202.075L247.545 193.075L242.395 183.645Z" fill="#35312C"/>
<path d="M212.975 178.685C212.975 178.685 227.055 182.345 223.085 198.705" stroke="#68CCF0" stroke-width="2" stroke-miterlimit="10"/>
<path d="M233.165 168.665L192.055 204.985L186.705 178.245L226.695 163.885L233.165 168.665Z" fill="white"/>
</g>
<path d="M238.515 189.785C236.455 191.355 195.155 200.485 195.155 200.485C195.155 200.485 225.845 170.635 226.975 169.515C228.105 168.385 237.115 166.135 241.335 172.045C245.555 177.955 244.435 185.275 238.515 189.785Z" stroke="black" stroke-width="3" stroke-miterlimit="10"/>
<path d="M83.5353 289.565L35.1553 287.715L75.2853 256.455L83.5353 289.565Z" fill="#4E4C49"/>
<mask id="mask8_5624_7088" style="mask-type:luminance" maskUnits="userSpaceOnUse" x="35" y="256" width="49" height="34">
<path d="M83.5353 289.565L35.1553 287.715L75.2853 256.455L83.5353 289.565Z" fill="white"/>
</mask>
<g mask="url(#mask8_5624_7088)">
<path d="M80.0353 281.075L31.1753 288.365L83.5353 289.565L80.0353 281.075Z" fill="#35312C"/>
<path d="M72.7951 294.875C72.7951 294.875 61.1551 282.115 64.5351 257.705" stroke="#68CCF0" stroke-width="2" stroke-miterlimit="10"/>
<path d="M24.6753 296.745L80.9853 258.835L61.0853 241.935L24.6753 296.745Z" fill="#FFFEFD"/>
</g>
<path d="M83.5353 289.565L35.1553 287.715L75.2853 256.455L83.5353 289.565Z" stroke="black" stroke-width="3" stroke-miterlimit="10"/>
<path d="M77.9653 244.125L40.6753 213.235L91.5453 212.825L77.9653 244.125Z" fill="#4E4C49"/>
<mask id="mask9_5624_7088" style="mask-type:luminance" maskUnits="userSpaceOnUse" x="40" y="212" width="52" height="33">
<path d="M77.9653 244.125L40.6753 213.235L91.5453 212.825L77.9653 244.125Z" fill="white"/>
</mask>
<g mask="url(#mask9_5624_7088)">
<path d="M81.8055 206.275C62.2855 220.165 66.7555 242.305 66.7555 242.305" stroke="#68CCF0" stroke-width="2" stroke-miterlimit="10"/>
<path d="M73.8554 235.185L36.3154 209.275L76.6054 248.935L73.8554 235.185Z" fill="#FFFEFD"/>
<path d="M28.4253 213.405L90.3753 217.165L93.9053 204.205L39.2853 196.045L28.4253 213.405Z" fill="#FFFEFD"/>
</g>
<path d="M77.9653 244.125L40.6753 213.235L91.5453 212.825L77.9653 244.125Z" stroke="black" stroke-width="3" stroke-miterlimit="10"/>
<path d="M104.705 199.895L80.6753 161.975L130.985 178.115L104.705 199.895Z" fill="#4E4C49"/>
<mask id="mask10_5624_7088" style="mask-type:luminance" maskUnits="userSpaceOnUse" x="80" y="161" width="51" height="39">
<path d="M104.705 199.895L80.6753 161.975L130.985 178.115L104.705 199.895Z" fill="white"/>
</mask>
<g mask="url(#mask10_5624_7088)">
<path d="M126.035 182.995L72.5054 160.845L131.915 152.405L126.035 182.995Z" fill="#35312C"/>
<path d="M96.6855 190.795C96.6855 190.795 97.7056 174.775 115.196 171.675" stroke="#68CCF0" stroke-width="2" stroke-miterlimit="10"/>
<path d="M108.315 194.505L76.6055 157.225L90.7455 209.505L108.315 194.505Z" fill="#FFFEFD"/>
</g>
<path d="M104.705 199.895L80.6753 161.975L130.985 178.115L104.705 199.895Z" stroke="black" stroke-width="3" stroke-miterlimit="10"/>
<path d="M131.355 171.365C131.355 171.365 157.635 172.495 170.775 193.135C183.915 213.785 186.165 248.695 186.165 248.695C186.165 248.695 169.645 252.825 164.015 262.205C158.385 271.585 162.885 287.355 162.885 287.355L137.735 273.845L126.845 320.025L101.315 281.355L83.6753 298.245C83.6753 298.245 61.3953 255.745 84.8053 216.025C97.1953 195.005 131.355 171.355 131.355 171.355V171.365Z" fill="#817863"/>
<mask id="mask11_5624_7088" style="mask-type:luminance" maskUnits="userSpaceOnUse" x="74" y="171" width="113" height="150">
<path d="M131.355 171.365C131.355 171.365 157.635 172.495 170.775 193.135C183.915 213.785 186.165 248.695 186.165 248.695C186.165 248.695 169.645 252.825 164.015 262.205C158.385 271.585 162.885 287.355 162.885 287.355L137.735 273.845L126.845 320.025L101.315 281.355L83.6753 298.245C83.6753 298.245 61.3953 255.745 84.8053 216.025C97.1953 195.005 131.355 171.355 131.355 171.355V171.365Z" fill="white"/>
</mask>
<g mask="url(#mask11_5624_7088)">
<path d="M166.555 176.615C166.555 176.615 102.075 208.435 73.3555 298.535" stroke="#CEC7B7" stroke-width="10" stroke-miterlimit="10"/>
<path d="M184.576 197.175C183.446 197.175 129.106 238.285 104.896 298.535" stroke="#CEC7B7" stroke-width="6" stroke-miterlimit="10"/>
<path d="M112.175 240.485C112.175 240.485 133.795 251.845 138.295 248.015C140.525 246.115 135.555 230.815 130.715 226.375C128.435 224.285 107.915 226.075 112.185 240.475L112.175 240.485Z" fill="#35312C"/>
<path d="M130.715 210.325C130.715 210.325 150.365 225.855 154.225 223.975C157.915 222.165 155.735 206.625 152.115 201.145C150.405 198.565 130.075 195.325 130.715 210.335V210.325Z" fill="#35312C"/>
<path d="M184.576 212.095C184.576 212.095 134.456 250.105 114.186 308.385" stroke="#CEC7B7" stroke-width="3" stroke-miterlimit="10"/>
<path d="M147.496 210.025C143.746 213.965 134.356 214.155 131.356 209.645C128.356 205.135 124.226 183.745 124.226 183.745C124.226 183.745 146.876 194.465 149.006 196.135C151.636 198.195 152.316 204.965 147.506 210.025H147.496Z" fill="#4E4C49"/>
<path d="M104.115 274.165C104.115 274.165 125.065 285.665 130.355 281.235C132.935 279.085 127.305 264.085 122.385 259.735C120.065 257.685 99.5853 259.845 104.105 274.165H104.115Z" fill="#35312C"/>
<path d="M197.425 205.525C197.425 205.525 160.305 174.065 161.005 179.245C175.645 206.655 178.585 227.295 175.205 232.925C173.305 236.095 136.165 243.065 153.055 303.875C155.435 312.455 181.585 322.275 184.215 320.765C186.845 319.265 197.045 247.935 197.045 247.935L197.425 205.515V205.525Z" fill="#35312C"/>
<path d="M129.565 233.685C127.805 237.675 120.645 244.335 113.055 240.005C108.605 237.465 100.295 218.445 100.295 218.445C100.295 218.445 118.915 217.255 123.955 218.325C128.785 219.355 132.755 226.445 129.555 233.685H129.565Z" fill="#4E4C49"/>
<path d="M113.335 251.515C117.275 250.575 124.225 255.555 124.405 265.025C124.595 274.415 110.845 280.455 103.385 272.155C101.695 270.275 99.4453 256.015 99.4453 256.015C99.4453 256.015 109.395 252.445 113.335 251.505V251.515Z" fill="#4E4C49"/>
<path d="M181.195 254.605C181.195 254.605 178.665 212.375 162.615 193.225C146.565 174.075 119.815 174.645 119.815 174.645L130.795 156.345L182.885 169.295L198.085 257.705L181.195 254.605Z" fill="#68CCF0" stroke="black" stroke-width="2" stroke-miterlimit="10"/>
<mask id="mask12_5624_7088" style="mask-type:luminance" maskUnits="userSpaceOnUse" x="99" y="251" width="26" height="26">
<path d="M113.335 251.515C117.275 250.575 124.225 255.555 124.405 265.025C124.595 274.415 110.845 280.455 103.385 272.155C101.695 270.275 99.4453 256.015 99.4453 256.015C99.4453 256.015 109.395 252.445 113.335 251.505V251.515Z" fill="white"/>
</mask>
<g mask="url(#mask12_5624_7088)">
<path d="M105.175 253.485C107.995 252.075 113.865 253.255 116.715 256.585C118.965 259.215 120.285 263.535 118.405 267.655C116.515 271.815 106.015 277.415 100.665 266.155" stroke="#68CCF0" stroke-width="2" stroke-miterlimit="10"/>
<path d="M99.7552 253.575L109.515 279.485L95.0352 274.645L99.7552 253.575Z" fill="white"/>
<path d="M120.935 254.325L98.1353 256.575L112.205 245.595L120.935 254.325Z" fill="white"/>
</g>
<path d="M113.335 251.515C117.275 250.575 124.225 255.555 124.405 265.025C124.595 274.415 110.845 280.455 103.385 272.155C101.695 270.275 99.4453 256.015 99.4453 256.015C99.4453 256.015 109.395 252.445 113.335 251.505V251.515Z" stroke="black" stroke-width="2" stroke-miterlimit="10"/>
<mask id="mask13_5624_7088" style="mask-type:luminance" maskUnits="userSpaceOnUse" x="100" y="217" width="31" height="25">
<path d="M129.565 233.685C127.805 237.675 120.645 244.335 113.055 240.005C108.605 237.465 100.295 218.445 100.295 218.445C100.295 218.445 118.915 217.255 123.955 218.325C128.785 219.355 132.755 226.445 129.555 233.685H129.565Z" fill="white"/>
</mask>
<g mask="url(#mask13_5624_7088)">
<path d="M113.896 217.165C113.896 217.165 124.596 219.415 122.526 229.745C121.016 237.295 113.046 238.845 108.546 236.875" stroke="#68CCF0" stroke-width="2" stroke-miterlimit="10"/>
<path d="M118.906 243.445L99.0059 215.655L107.146 241.935L118.906 243.445Z" fill="white"/>
<path d="M133.166 222.795C133.166 222.795 96.1556 218.295 97.0056 218.295C97.8556 218.295 126.286 213.225 126.286 213.225L133.166 222.795Z" fill="white"/>
</g>
<path d="M129.565 233.685C127.805 237.675 120.645 244.335 113.055 240.005C108.605 237.465 100.295 218.445 100.295 218.445C100.295 218.445 118.915 217.255 123.955 218.325C128.785 219.355 132.755 226.445 129.555 233.685H129.565Z" stroke="black" stroke-width="2" stroke-miterlimit="10"/>
<mask id="mask14_5624_7088" style="mask-type:luminance" maskUnits="userSpaceOnUse" x="124" y="183" width="28" height="31">
<path d="M147.496 210.025C143.746 213.965 134.356 214.155 131.356 209.645C128.356 205.135 124.226 183.745 124.226 183.745C124.226 183.745 146.876 194.465 149.006 196.135C151.636 198.195 152.316 204.965 147.506 210.025H147.496Z" fill="white"/>
</mask>
<g mask="url(#mask14_5624_7088)">
<path d="M141.776 191.825C141.776 191.825 146.566 198.015 140.856 203.535C135.676 208.535 128.266 204.495 128.266 204.495" stroke="#68CCF0" stroke-width="2" stroke-miterlimit="10"/>
<path d="M152.756 203.085L117.406 180.375C117.406 180.375 153.326 190.415 153.046 191.265C152.766 192.105 152.766 203.095 152.766 203.095L152.756 203.085Z" fill="white"/>
<path d="M137.266 213.505L121.906 176.245L126.006 213.785L137.266 213.505Z" fill="white"/>
</g>
<path d="M147.496 210.025C143.746 213.965 134.356 214.155 131.356 209.645C128.356 205.135 124.226 183.745 124.226 183.745C124.226 183.745 146.876 194.465 149.006 196.135C151.636 198.195 152.316 204.965 147.506 210.025H147.496Z" stroke="black" stroke-width="2" stroke-miterlimit="10"/>
<path d="M102.005 278.725L121.215 320.025L136.545 324.905L102.005 278.725Z" fill="white"/>
<path d="M89.6156 302.755C89.6156 302.755 85.1156 293.745 84.3556 288.485C83.5956 283.225 75.7256 295.245 75.7256 295.245L89.6156 302.755Z" fill="white"/>
<path d="M74.2255 258.455C74.2255 258.455 77.9755 261.455 77.9755 259.205C77.9755 256.955 78.3555 245.315 79.4755 241.565C80.6055 237.815 71.2155 234.435 71.2155 234.435L68.5854 256.205L74.2155 258.455H74.2255Z" fill="white"/>
<path d="M87.3653 214.155L90.3653 216.035C90.3653 216.035 98.9953 202.895 105.385 198.765C105.385 198.765 99.3753 192.755 96.7553 192.005C94.1253 191.255 82.4854 209.275 82.4854 209.275L87.3653 214.155Z" fill="white"/>
<path d="M124.576 176.025L127.466 178.505C127.466 178.505 137.366 171.905 142.736 168.605C148.096 165.305 125.406 159.525 125.406 159.525L124.576 176.035V176.025Z" fill="white"/>
</g>
<path d="M131.355 171.365C131.355 171.365 157.635 172.495 170.775 193.135C183.915 213.785 186.165 248.695 186.165 248.695C186.165 248.695 169.645 252.825 164.015 262.205C158.385 271.585 162.885 287.355 162.885 287.355L137.735 273.845L126.845 320.025L101.315 281.355L83.6753 298.245C83.6753 298.245 61.3953 255.745 84.8053 216.025C97.1953 195.005 131.355 171.355 131.355 171.355V171.365Z" stroke="black" stroke-width="4" stroke-miterlimit="10"/>
<path d="M161.485 271.785C163.545 273.355 204.845 282.485 204.845 282.485C204.845 282.485 174.155 252.635 173.025 251.515C171.895 250.395 162.885 248.135 158.665 254.045C154.445 259.955 155.565 267.275 161.485 271.785Z" fill="#35312C"/>
<mask id="mask15_5624_7088" style="mask-type:luminance" maskUnits="userSpaceOnUse" x="156" y="250" width="49" height="33">
<path d="M161.485 271.785C163.545 273.355 204.845 282.485 204.845 282.485C204.845 282.485 174.155 252.635 173.025 251.515C171.895 250.395 162.885 248.135 158.665 254.045C154.445 259.955 155.565 267.275 161.485 271.785Z" fill="white"/>
</mask>
<g mask="url(#mask15_5624_7088)">
<path d="M178.966 289.615C178.846 292.245 212.006 291.115 212.006 291.115C212.006 291.115 248.046 270.465 243.166 267.835C238.286 265.205 192.486 256.195 192.486 256.195C192.486 256.195 180.096 265.205 178.976 289.605L178.966 289.615Z" fill="#817863"/>
<path d="M181.775 256.935C181.775 256.935 167.695 260.595 171.665 276.955" stroke="#68CCF0" stroke-width="2" stroke-miterlimit="10"/>
</g>
<path d="M161.485 271.785C163.545 273.355 204.845 282.485 204.845 282.485C204.845 282.485 174.155 252.635 173.025 251.515C171.895 250.395 162.885 248.135 158.665 254.045C154.445 259.955 155.565 267.275 161.485 271.785Z" stroke="black" stroke-width="3" stroke-miterlimit="10"/>
</svg>
