<svg width="400" height="400" viewBox="0 0 400 400" fill="none" xmlns="http://www.w3.org/2000/svg">
<path d="M131.993 189.393C131.993 189.393 132.653 157.933 155.563 142.403C178.743 126.673 215.363 122.723 238.063 142.243C260.763 161.763 265.213 181.483 265.033 183.623C264.853 185.763 255.583 221.333 255.583 221.333C255.583 221.333 260.273 232.333 261.603 235.143C262.933 237.953 257.813 253.123 257.813 253.123C257.813 253.123 262.653 267.453 262.383 271.453C262.113 275.453 258.993 278.193 253.063 282.183C247.133 286.173 240.713 287.673 238.563 287.313C236.413 286.953 230.093 276.683 230.093 276.683C230.093 276.683 221.843 280.593 203.213 288.513C184.583 296.433 180.963 298.453 178.823 298.093C176.683 297.733 170.363 293.573 165.053 289.103C159.743 284.633 156.683 280.593 155.833 278.323C154.983 276.053 154.553 235.273 154.553 235.273C154.553 235.273 147.223 229.313 145.733 227.063C144.243 224.813 133.983 195.913 132.003 189.423L131.993 189.393Z" fill="#F33100" stroke="black" stroke-width="3.7" stroke-miterlimit="10"/>
<path d="M151.653 143.973C151.653 143.973 117.193 138.543 115.593 140.013C113.993 141.483 135.343 171.623 135.343 171.623C135.343 171.623 140.533 157.753 143.693 154.083C146.853 150.413 151.653 143.973 151.653 143.973Z" fill="#EED6B5" stroke="black" stroke-width="3.7" stroke-miterlimit="10"/>
<path d="M165.633 135.803C165.633 135.803 164.893 104.223 167.153 102.913C169.413 101.603 194.143 128.813 194.143 128.813C194.143 128.813 180.883 130.643 177.413 131.733C173.943 132.823 165.643 135.813 165.643 135.813L165.633 135.803Z" fill="#EED6B5" stroke="black" stroke-width="3.7" stroke-miterlimit="10"/>
<path d="M209.103 129.593C209.103 129.593 226.273 100.423 229.863 101.923C234.493 103.833 233.703 138.263 233.703 138.263C233.703 138.263 225.223 133.473 221.273 132.083C217.323 130.693 209.103 129.593 209.103 129.593Z" fill="#EED6B5" stroke="black" stroke-width="3.7" stroke-miterlimit="10"/>
<path d="M242.213 145.843C242.213 145.843 271.073 126.693 274.493 130.513C277.913 134.343 258.563 166.393 258.563 166.393C258.563 166.393 252.793 158.043 249.763 154.663C246.733 151.283 242.213 145.843 242.213 145.843Z" fill="#EED6B5" stroke="black" stroke-width="3.7" stroke-miterlimit="10"/>
<path d="M263.993 179.213C263.993 179.213 286.103 186.143 286.003 189.863C285.903 193.583 261.543 202.043 261.543 202.043L265.123 183.613L263.993 179.213Z" fill="#EED6B5" stroke="black" stroke-width="3.7" stroke-miterlimit="10"/>
<path d="M155.653 229.253L172.823 271.273L177.923 269.183L160.483 223.463L155.653 229.253Z" fill="#EF8145"/>
<path d="M131.993 189.393C131.993 189.393 112.833 209.763 114.053 212.023C115.273 214.283 139.623 213.603 139.623 213.603L131.993 189.393Z" fill="#EED6B5" stroke="black" stroke-width="3.7" stroke-miterlimit="10"/>
<path d="M172.473 212.333C172.473 212.333 172.763 259.973 172.603 260.623C172.443 261.273 167.143 272.743 167.143 272.743L178.963 279.693L185.293 294.133L188.743 292.583L182.743 279.233L188.803 264.213L176.593 258.943L176.953 211.373L172.453 212.323L172.473 212.333Z" fill="#71F9FE" stroke="black" stroke-width="1.85" stroke-miterlimit="10"/>
<path d="M195.333 205.603C195.553 206.333 199.903 247.663 199.933 248.403C199.963 249.143 195.543 259.543 195.543 259.543L207.053 265.773L216.113 282.963L219.083 281.153L210.983 264.663L217.133 251.493L204.473 246.343L200.223 205.193L195.333 205.613V205.603Z" fill="#71F9FE" stroke="black" stroke-width="1.85" stroke-miterlimit="10"/>
<path d="M219.483 204.753L226.803 240.283L223.433 253.323L237.313 258.793L249.933 282.763L253.153 282.153L240.743 256.783C240.743 256.783 245.363 244.603 244.613 244.453C243.863 244.303 230.033 237.903 230.033 237.903L223.913 206.303L219.483 204.753Z" fill="#71F9FE" stroke="black" stroke-width="1.85" stroke-miterlimit="10"/>
<path d="M248.363 217.673L258.203 235.843L259.563 245.143L257.543 251.453L255.603 237.823C255.603 237.823 243.683 214.933 243.373 214.203L248.353 217.673H248.363Z" fill="#71F9FE" stroke="black" stroke-width="1.85" stroke-miterlimit="10"/>
<path d="M175.623 263.733L172.823 271.273L179.313 275.233L183.473 266.973L175.623 263.733Z" fill="#CF4500" stroke="black" stroke-width="1.85" stroke-linecap="round" stroke-linejoin="round"/>
<path d="M203.473 250.653L199.693 258.983L207.703 261.763L212.313 253.483L203.473 250.653Z" fill="#CF4500" stroke="black" stroke-width="1.85" stroke-linecap="round" stroke-linejoin="round"/>
<path d="M230.123 243.653C230.063 244.303 228.203 252.183 228.203 252.183L236.183 254.313L238.913 247.233L230.123 243.663V243.653Z" fill="#CF4500" stroke="black" stroke-width="1.85" stroke-linecap="round" stroke-linejoin="round"/>
<path d="M136.363 189.553C136.563 189.823 149.903 227.203 149.903 227.203L148.933 228.173L147.063 225.943L135.843 196.253L136.363 189.553Z" fill="white"/>
<path d="M137.033 180.253L153.963 218.863L157.223 215.273L139.063 168.113L137.033 180.253Z" fill="#EF8145"/>
<path d="M150.193 152.473C150.303 152.843 159.203 172.533 163.743 184.473C168.293 196.403 170.943 205.453 170.943 205.453L183.753 199.943L169.433 139.803L150.193 152.483V152.473Z" fill="#EF8145"/>
<path d="M213.783 195.843L218.313 138.243C218.313 138.243 223.773 139.933 223.783 140.213C223.793 140.493 215.473 196.313 215.473 196.313L213.783 195.833V195.843Z" fill="#EF8145"/>
<path d="M156.973 253.393C157.373 253.933 167.493 274.133 167.493 274.133L165.253 275.813L156.893 257.573L156.973 253.393Z" fill="#EF8145"/>
<path d="M174.803 214.633L192.013 261.293L196.913 259.023L182.913 209.623L174.803 214.633Z" fill="#EF8145"/>
<path d="M213.493 207.443C213.523 207.993 217.233 251.483 217.233 251.483L220.073 250.793L216.333 206.753L213.493 207.443Z" fill="#EF8145"/>
<g style="mix-blend-mode:multiply" opacity="0.6">
<path d="M156.383 236.913C156.543 236.353 160.693 228.093 173.343 221.003C185.993 213.923 202.963 210.253 218.533 212.023C234.093 213.793 243.203 218.093 243.203 218.093L257.663 249.673L259.183 242.653L260.173 236.023L253.743 221.403C253.743 221.403 228.963 199.023 199.733 204.473C160.953 211.673 153.633 233.523 153.633 233.523L156.383 236.913Z" fill="#8C1D00"/>
</g>
<path d="M116.423 211.073C116.423 211.073 125.863 210.813 130.083 207.833C134.303 204.853 134.293 202.633 134.293 202.633L137.233 211.863C137.233 211.863 127.603 212.133 125.563 212.043C123.523 211.953 116.433 211.083 116.433 211.083L116.423 211.073Z" fill="#99836C"/>
<path d="M124.023 151.753C124.023 151.753 128.573 157.933 133.653 157.423C138.633 156.913 143.323 152.053 143.323 152.053C143.323 152.053 138.973 158.193 137.643 161.403C136.313 164.613 134.983 167.923 134.983 167.923L124.023 151.753Z" fill="#99836C"/>
<path d="M175.363 111.893C175.363 111.893 180.923 117.753 180.333 122.973C179.743 128.193 176.133 130.313 176.133 130.313C176.133 130.313 178.413 129.463 183.753 128.753C189.093 128.043 190.373 127.603 190.373 127.603L175.363 111.903V111.893Z" fill="#99836C"/>
<path d="M229.733 105.083C229.733 105.083 229.533 118.533 227.813 123.523C226.103 128.513 221.543 130.123 222.013 130.373C222.393 130.543 225.513 131.973 227.803 133.163C230.093 134.353 231.883 135.193 231.883 135.193C231.883 135.193 231.743 124.353 231.513 117.413C231.283 110.473 229.733 105.073 229.733 105.073V105.083Z" fill="#99836C"/>
<path d="M271.663 137.323C271.663 137.323 265.823 147.243 259.993 149.463C254.163 151.683 249.513 151.433 249.513 151.433C249.513 151.433 252.533 154.633 254.533 157.683C256.533 160.733 258.503 163.243 258.503 163.243C258.503 163.243 264.993 151.443 267.623 146.313C270.253 141.183 271.643 137.223 271.653 137.313L271.663 137.323Z" fill="#99836C"/>
<path d="M265.243 192.033C265.533 192.393 267.723 193.493 272.163 193.283C275.773 193.113 281.273 191.743 281.273 191.743C281.273 191.743 275.213 194.903 270.753 196.683C266.663 198.363 263.823 199.233 263.823 199.233L265.243 192.033Z" fill="#99836C"/>
<path d="M135.333 195.353C135.293 194.433 136.943 180.263 136.943 180.263L148.873 185.543L159.893 214.873L162.383 212.623L151.813 182.993L137.703 176.613C137.703 176.613 140.653 164.333 148.383 155.253C156.113 146.173 171.543 139.153 171.543 139.153L183.543 155.743L192.243 155.523L196.753 196.283L200.733 196.093L196.953 155.023L207.653 153.783L214.863 137.503C214.863 137.503 216.163 137.623 218.223 138.083C222.723 139.073 231.003 141.843 239.053 149.253C250.783 160.193 256.523 171.883 256.523 171.883L244.453 173.373L237.233 203.283L240.393 205.453L247.173 176.023L258.143 174.763L263.663 187.663L264.003 179.023C264.003 179.023 255.083 152.933 238.163 142.043C221.243 131.153 185.123 119.963 157.713 140.443C130.303 160.923 132.293 187.343 132.103 189.203C131.913 191.063 135.453 195.353 135.363 195.353H135.333Z" fill="#00FDFF" stroke="black" stroke-width="1.85" stroke-miterlimit="10"/>
<path d="M148.833 228.183L154.693 232.543C154.693 232.543 159.313 218.333 175.033 211.653C191.123 204.783 205.063 201.623 223.723 206.123C241.353 210.393 255.403 221.503 255.403 221.503L255.943 217.303C255.943 217.303 245.623 202.773 223.133 197.703C204.203 193.403 185.373 197.153 169.403 206.343C151.173 216.843 148.823 228.163 148.823 228.163L148.833 228.183Z" fill="#5E1B02" stroke="black" stroke-width="1.85" stroke-miterlimit="10"/>
<g style="mix-blend-mode:multiply" opacity="0.6">
<path d="M242.023 145.663C242.023 145.663 244.773 158.883 240.673 176.133C236.573 193.383 229.263 199.563 229.263 199.563L242.323 205.253L255.083 216.423L262.763 186.583L263.693 178.753C263.693 178.753 258.723 167.583 254.003 159.833C250.083 153.343 242.023 145.653 242.023 145.653V145.663Z" fill="#8C1D00"/>
</g>
<path d="M157.003 234.293C157.033 234.943 159.923 276.803 159.923 276.803L158.033 278.093L157.333 276.923L155.563 233.343L156.813 230.413" fill="white"/>
<g style="mix-blend-mode:multiply" opacity="0.6">
<path d="M258.713 248.423C258.713 248.423 237.883 247.083 220.193 251.433C202.503 255.783 158.483 279.733 158.483 279.733C158.483 279.733 161.893 285.133 168.523 290.203C175.153 295.273 179.783 297.093 179.783 297.093C179.783 297.093 195.403 290.153 210.223 283.983C225.043 277.823 231.023 274.943 231.023 274.943C231.023 274.943 233.753 279.823 235.623 282.143C237.493 284.463 239.263 286.603 239.263 286.603C239.263 286.603 247.273 285.393 252.933 281.603C258.593 277.813 259.953 275.063 260.473 272.443C260.993 269.823 255.883 253.653 255.883 253.653L258.693 248.423H258.713Z" fill="#8C1D00"/>
</g>
<path d="M224.463 265.423L230.093 276.653" stroke="black" stroke-width="3.7" stroke-miterlimit="10"/>
<path d="M120.663 208.653L124.683 203.463C124.943 203.083 125.013 202.523 124.623 202.163C124.243 201.903 123.593 201.843 123.333 202.223L119.313 207.413C119.053 207.793 118.983 208.353 119.373 208.713C119.763 209.073 120.413 209.123 120.663 208.653Z" fill="white"/>
<path d="M123.613 145.013C126.603 145.523 129.603 146.303 132.523 147.193C132.993 147.353 133.533 146.963 133.603 146.493C133.673 145.933 133.373 145.573 132.903 145.413C129.983 144.533 127.073 143.743 123.993 143.233C122.873 143.003 122.393 144.793 123.613 145.013Z" fill="white"/>
<path d="M168.603 110.083C168.183 112.883 168.033 115.763 167.983 118.643C168.003 119.103 168.493 119.543 168.953 119.523C169.503 119.493 169.853 119.013 169.833 118.553C169.803 115.863 170.043 113.163 170.383 110.463C170.453 109.993 170.243 109.453 169.683 109.383C169.213 109.313 168.673 109.613 168.603 110.083Z" fill="white"/>
<path d="M219.243 122.443C220.323 119.703 221.773 117.043 223.513 114.643C223.773 114.263 223.843 113.703 223.453 113.343C223.073 113.083 222.423 113.023 222.163 113.403C220.333 115.903 218.793 118.663 217.633 121.493C217.473 121.963 217.593 122.513 218.063 122.773C218.443 123.033 219.093 122.913 219.253 122.443H219.243Z" fill="white"/>
<path d="M256.953 141.813C260.103 139.723 263.443 137.803 266.793 136.163C267.243 135.953 267.313 135.303 267.103 134.853C266.803 134.403 266.243 134.333 265.793 134.543C262.343 136.183 259.103 138.103 255.953 140.193C254.873 140.893 255.873 142.423 256.953 141.813Z" fill="white"/>
<path d="M272.503 186.693C274.653 187.053 276.643 187.893 278.373 189.203C278.753 189.463 279.313 189.533 279.663 189.143C280.023 188.853 279.983 188.113 279.603 187.843C277.583 186.363 275.313 185.353 272.883 184.913C272.413 184.843 271.873 185.143 271.803 185.613C271.733 186.083 271.943 186.623 272.503 186.693Z" fill="white"/>
</svg>
