<svg width="400" height="400" viewBox="0 0 400 400" fill="none" xmlns="http://www.w3.org/2000/svg">
<path d="M71.684 135.961L42.2852 131.506L42.1901 124.429L82.3812 116.266L79.2577 133.066L71.684 135.961Z" fill="#FFCA1B"/>
<path d="M47.5547 123.96L48.6054 130.221L48.4974 132.634L50.0797 132.433L50.4237 129.345L49.3791 123.081L47.5547 123.96Z" fill="white"/>
<path d="M60.3914 133.784L61.3911 123.893L65.3835 124.913L62.8597 134.839L60.3914 133.784Z" fill="white"/>
<path d="M71.684 135.961L42.2852 131.506L42.1901 124.429L82.3812 116.266L79.2577 133.066L71.684 135.961Z" stroke="black" stroke-width="4" stroke-miterlimit="10"/>
<path d="M48.0403 115.985L20.5257 99.3985L28.6112 92.5901L55.4979 103.782L48.0403 115.985Z" fill="#FFCA1B"/>
<path d="M32.4382 105.841L35.6606 99.9551L34.5664 99.4238L30.3518 104.602L32.4382 105.841Z" fill="white"/>
<path d="M48.0403 115.985L20.5257 99.3985L28.6112 92.5901L55.4979 103.782L48.0403 115.985Z" stroke="black" stroke-width="4" stroke-miterlimit="10"/>
<path d="M117.231 96.0843L102.718 66.6561L76.9829 58.4259L32.1219 77.2759L44.6926 119.937L103.061 134.068L117.231 96.0843Z" fill="#FF630D" stroke="black" stroke-width="4" stroke-miterlimit="10"/>
<path d="M49.3924 89.0633L41.1807 85.1654L44.9748 82.9623L53.7052 82.4948L49.3924 89.0633Z" fill="#E0320A"/>
<path d="M61.8782 94.9489L23.8537 83.9035L16.3438 92.0058L57.2286 108.418L61.8782 94.9489Z" fill="#FFCA1B"/>
<path d="M43.6197 74.5019L23.0164 60.9918L17.3341 66.8362L35.2005 83.9216L43.6197 74.5019Z" fill="#FFCA1B"/>
<path d="M64.4761 66.2363L55.3543 36.0052L66.6594 34.1844L87.8393 63.6981L65.2556 68.8347L64.4761 66.2363Z" fill="#FFCA1B"/>
<path d="M92.3308 66.2426L93.8076 37.1763L102.988 43.2036L103.624 71.2139L92.3308 66.2426Z" fill="#FFCA1B"/>
<path d="M91.2087 79.0061L77.2973 74.1147L87.4672 68.0898L87.98 73.8285L91.2087 79.0061Z" fill="#E0320A"/>
<path d="M82.9909 90.5733L73.9176 78.4038L70.0612 81.6209L74.867 94.0332L82.9909 90.5733Z" fill="#DFA313"/>
<path d="M71.7569 111.949L61.9094 111.518L60.4848 116.01L72.0702 121.443L71.7569 111.949Z" fill="#DFA313"/>
<path d="M164.976 169.744L128.407 128.139L119.915 74.9962L111.357 73.9885L110.955 100.067L105.987 89.3311L100.067 90.8979L91.637 71.2688L86.9161 79.523L96.2656 112.922L77.9314 102.362L75.7784 108.346L85.8981 115.289L80.1949 119.277L89.0261 127.167L66.7761 129.693L69.2875 137.296L83.937 135.797L79.7472 142L113.341 140.628L166.649 184.243L164.976 169.744Z" fill="#FFCA1B" stroke="black" stroke-width="4" stroke-miterlimit="10"/>
<path d="M341.3 357.072L162.964 182.877L144.378 184.305L142.083 179.122L149.829 173.63L143.82 169.789L149.316 164.132L162.04 171.41L156.949 151.368L166.255 153.104L177.196 180.337L349.308 348.453L341.3 357.072Z" fill="#FFCA1B" stroke="black" stroke-width="4" stroke-miterlimit="10"/>
<path d="M162.392 170.791L171.595 176.882L161.685 172.033L162.392 170.791Z" fill="black"/>
<path d="M150.216 173.028L158.819 179.469L149.438 174.23L150.216 173.028Z" fill="black"/>
<path d="M366.405 376.359L353.309 370.375L334.211 372.675L330.236 366.951L337.818 363.139L317.222 351.668L320.297 345.109L332.784 348.858L316.37 314.81L324.892 313.208L343.393 335.135L340.29 326.04L347.135 324.278L359.852 345.151L359.556 336.775L370.561 340.539L376.013 359.833L366.405 376.359Z" fill="#D28F00" stroke="black" stroke-width="4" stroke-miterlimit="10"/>
<path d="M354.859 338.825L328.863 355.874L336.863 360.887L343.363 363.896L360.86 350.859L354.859 338.825Z" fill="#965B00"/>
<path d="M369.841 344.835L339.844 364.393L352.338 368.398L357.338 369.401L373.34 356.867L369.841 344.835Z" fill="#FFDD55"/>
<path d="M344.045 334.843L354.681 360.498L342.742 335.426L344.045 334.843Z" fill="black"/>
<path d="M360.911 345.695L360.895 355.25L359.489 345.797L360.911 345.695Z" fill="black"/>
<path d="M333.085 348.398L347.349 353.707L332.653 349.762L333.085 348.398Z" fill="black"/>
<path d="M353.309 370.375L337.818 363.139" stroke="black" stroke-width="3" stroke-miterlimit="10"/>
<path d="M68.7698 37.3269L66.7017 39.5659L57.1394 40.8272L57.4032 42.2489L67.1272 41.2314L70.3798 39.222L68.7698 37.3269Z" fill="white"/>
<path d="M71.6313 42.128L68.1354 44.1125L58.7522 47.8876L59.335 49.1031L69.3009 46.5436L72.493 42.906L71.6313 42.128Z" fill="white"/>
<path d="M83.4509 59.1841L77.3498 60.9954L64.9085 60.82L67.4757 62.6726L78.224 62.8187L85.4166 60.0622L83.4509 59.1841Z" fill="white"/>
<g style="mix-blend-mode:multiply" opacity="0.3">
<path d="M64.6859 34.9407L79.5049 66.1441L73.9467 66.302L61.1935 58.1847L55.3537 36.005L64.6859 34.9407Z" fill="black"/>
</g>
<path d="M64.4761 66.2363L55.3543 36.0052L66.6594 34.1844L87.8393 63.6981L65.2556 68.8347L64.4761 66.2363Z" stroke="black" stroke-width="4" stroke-miterlimit="10"/>
<path d="M22.2921 71.4497L24.5592 70.7309L27.9833 64.1532L29.5526 65.0839L25.7481 71.6543L23.1107 72.6825L22.2921 71.4497Z" fill="white"/>
<path d="M19.2224 68.6572L21.1502 67.5109L25.906 63.6096L24.902 62.6906L20.41 66.7453L18.1565 68.0449L19.2224 68.6572Z" fill="white"/>
<path d="M43.6197 74.5019L23.0164 60.9918L17.3341 66.8362L35.2005 83.9216L43.6197 74.5019Z" stroke="black" stroke-width="4" stroke-miterlimit="10"/>
<path d="M46.5168 84.3478L32.105 61.8222L36.2993 55.6214L22.209 43.3301L29.5452 36.1571L73.9475 66.302L71.7816 71.1696L61.5321 76.6006L57.3266 73.2219L46.5168 84.3478Z" fill="#FFCA1B"/>
<path d="M100.95 90.5511L111.421 120.18L99.1807 91.2429L100.95 90.5511Z" fill="black"/>
<path d="M111.829 99.6876L116.22 112.348L110.078 100.442L111.829 99.6876Z" fill="black"/>
<path d="M85.8975 115.289L102.817 125.786L89.1041 127.533" stroke="black" stroke-width="3" stroke-miterlimit="10"/>
<path d="M83.766 134.858L94.7414 133.836L84.107 136.737L83.766 134.858Z" fill="black"/>
<path d="M103.413 48.4311L100.683 47.7794L93.249 44.3521L92.5963 47.6597L100.359 51.3998L103.796 50.7791L103.413 48.4311Z" fill="white"/>
<path d="M103.185 57.3962L100.557 58.0385L92.8739 56.0444L92.7594 58.0001L100.085 59.3884L103.407 58.5352L103.185 57.3962Z" fill="white"/>
<path d="M45.9829 46.9348L44.7007 52.0423L37.7543 56.7752L42.3279 60.4702L47.9761 54.2045L49.2739 49.2541L45.9829 46.9348Z" fill="white"/>
<path d="M60.0388 57.9708L59.5741 62.8301L55.9384 71.3244L56.4636 71.9841L60.9204 63.3035L61.1936 58.1848L60.0388 57.9708Z" fill="white"/>
<path d="M58.1302 73.8485L63.4326 66.2081L63.9747 60.335L62.5847 59.4824L62.2437 65.2848L57.3015 73.6531L58.1302 73.8485Z" fill="white"/>
<path d="M43.0155 77.9733L51.9024 69.3345L49.848 67.0962L41.7873 77.1624L43.0155 77.9733Z" fill="white"/>
<path d="M44.4302 63.1044L36.5184 67.3412L37.2847 68.9397L45.8872 63.8087L44.4302 63.1044Z" fill="white"/>
<path d="M49.3458 92.0786L47.3468 94.9129L41.3027 102.08L42.394 102.605L48.6931 95.3862L50.5585 92.2423L49.3458 92.0786Z" fill="white"/>
<path d="M31.8052 86.6439L29.1231 96.5901L31.8401 97.8992L34.7593 87.1166L31.8052 86.6439Z" fill="white"/>
<path d="M55.0331 93.2499L52.3836 102.844L50.8988 105.879L54.014 107.116L56.0939 103.042L58.3702 93.8523L55.0331 93.2499Z" fill="white"/>
<path d="M75.9906 81.5984L73.2295 84.3062L71.4212 84.9235L72.4163 86.4154L77.315 82.7108L75.9906 81.5984Z" fill="white"/>
<path d="M68.1125 112.785L67.5091 118.834L68.6893 119.249L69.37 111.898L68.1125 112.785Z" fill="white"/>
<path d="M92.3308 66.2426L93.8076 37.1763L102.988 43.2036L103.624 71.2139L92.3308 66.2426Z" stroke="black" stroke-width="4" stroke-miterlimit="10"/>
<path d="M46.5168 84.3478L32.105 61.8222L36.2993 55.6214L22.209 43.3301L29.5452 36.1571L73.9475 66.302L71.7816 71.1696L61.5321 76.6006L57.3266 73.2219L46.5168 84.3478Z" stroke="black" stroke-width="4" stroke-miterlimit="10"/>
<path d="M36.2988 55.6216L57.3261 73.2222" stroke="black" stroke-width="3" stroke-miterlimit="10"/>
<path d="M82.9909 90.5733L73.9176 78.4038L70.0612 81.6209L74.867 94.0332L82.9909 90.5733Z" stroke="black" stroke-width="4" stroke-miterlimit="10"/>
<path d="M61.8782 94.9489L23.8537 83.9035L16.3438 92.0058L57.2286 108.418L61.8782 94.9489Z" stroke="black" stroke-width="4" stroke-miterlimit="10"/>
<path d="M71.7569 111.949L61.9094 111.518L60.4848 116.01L72.0702 121.443L71.7569 111.949Z" stroke="black" stroke-width="4" stroke-miterlimit="10"/>
<g style="mix-blend-mode:multiply" opacity="0.3">
<path d="M124.527 132.156C124.527 132.156 122.089 134.331 122.237 134.383C122.686 134.541 121.182 134.517 120.604 135.795C120.027 137.072 148.568 162.843 148.568 162.843L146.883 164.777L145.136 166.805L113.34 140.628L79.747 142L88.0321 138.526L89.5062 134.916L71.8069 137.369L71.2474 134.645L107.102 130.83L102.806 126.54L88.9589 127.23L80.6598 119.259L85.9808 115.571L75.7782 108.346L77.1948 105.736L97.51 118.614L87.5623 81.4935L90.6449 76.2813L114.528 126.872L100.197 90.7566L103.07 89.7456L116.824 114.541L110.586 96.7997L111.351 73.9914L114.717 74.1644L124.517 132.158L124.527 132.156Z" fill="#965B00"/>
</g>
<path d="M112.463 75.8682L119.218 76.7273" stroke="white" stroke-width="4" stroke-miterlimit="10"/>
<path d="M128.029 129.346L126.083 119.06L127.849 131.303L159.786 166.787L158.615 164.243L128.029 129.346Z" fill="white"/>
<g style="mix-blend-mode:multiply" opacity="0.3">
<path d="M101.047 42.4148L99.6649 69.6247L103.624 71.2139L102.988 43.2036L101.047 42.4148Z" fill="black"/>
</g>
<path d="M93.464 59.5872L94.2393 38.637L101.979 43.8848L102.339 46.2852L102.381 47.058L100.924 44.0192L95.5201 40.8104L94.4315 55.3796L93.464 59.5872Z" fill="white"/>
<path d="M56.806 37.6021L65.245 36.5268L76.0326 48.9101L66.1659 35.3347L56.4604 36.4144L56.806 37.6021Z" fill="white"/>
<g style="mix-blend-mode:multiply" opacity="0.3">
<path d="M26.9216 37.9788L71.7806 71.1695L61.5311 76.6006L22.208 43.33L26.9216 37.9788Z" fill="black"/>
</g>
<path d="M24.6586 42.1602L29.5602 39.1388L66.3913 62.3871L29.7409 37.1811L24.6586 42.1602Z" fill="white"/>
<path d="M18.9057 66.7219L23.0145 63.6188L38.0682 72.449L37.0366 71.0757L23.0378 62.1111L18.0082 66.4063L18.9057 66.7219Z" fill="white"/>
<g style="mix-blend-mode:multiply" opacity="0.3">
<path d="M19.0043 89.8287L58.4683 104.655L57.228 108.418L16.3432 92.0058L19.0043 89.8287Z" fill="black"/>
</g>
<path d="M18.667 91.903L24.6175 86.4157L55.6284 94.2876L53.0932 92.8909L24.1921 84.7502L17.7695 91.5875L18.667 91.903Z" fill="white"/>
<g style="mix-blend-mode:multiply" opacity="0.3">
<path d="M23.1219 97.537L41.4252 107.954L42.1448 112.381L20.5257 99.3983L23.1219 97.537Z" fill="black"/>
</g>
<path d="M22.9035 99.9616L26.4062 97.1507L25.0594 96.3184L21.9645 99.2171L22.9035 99.9616Z" fill="white"/>
<g style="mix-blend-mode:multiply" opacity="0.3">
<path d="M41.6141 128.511L67.5464 130.818L68.5313 135.206L42.2852 131.506L41.6141 128.511Z" fill="black"/>
</g>
<path d="M44.3859 130.759L44.5656 125.951L54.5792 123.226L51.5719 123.18L43.267 125.313L43.331 130.893L44.3859 130.759Z" fill="white"/>
<path d="M37.2461 57.5062L33.8542 62.8825L33.3256 61.8578L36.0009 56.9168L37.2461 57.5062Z" fill="white"/>
<path d="M158.272 153.623L165.633 154.189L165.342 153.582L158.138 152.565L158.272 153.623Z" fill="white"/>
<path d="M69.5308 130.358L71.2234 136.153L70.0596 136.426L68.0666 130.222L69.5308 130.358Z" fill="white"/>
<path d="M84.7564 136.364L82.7341 140.706L81.6792 140.84L84.1503 136.656L84.7564 136.364Z" fill="white"/>
<path d="M148.367 166.572L146.884 170.336L145.201 169.486L148.367 166.572Z" fill="white"/>
<path d="M150.761 175.231L144.634 179.651L144.162 181.001L143.288 179.177L149.979 174.456L150.761 175.231Z" fill="white"/>
<path d="M318.326 317.023L325.153 314.896L324.836 314.259L317.452 315.2L318.326 317.023Z" fill="white"/>
<path d="M345.38 337.653L342.377 327.001L346.913 326.064L346.621 325.457L341.19 326.579L343.206 332.341L345.38 337.653Z" fill="white"/>
<path d="M361.762 338.36L361.012 349.223L360.416 337.886L361.762 338.36Z" fill="white"/>
<path d="M89.5121 76.2064C91.2913 78.641 92.9079 81.1801 94.5047 83.7325L94.5958 83.8756L94.5835 84.0836C94.4723 85.8282 94.3084 88.2567 94.1496 89.9643L94.1379 89.753C94.6064 91.843 94.9995 93.9468 95.3504 96.056C95.6719 98.1196 95.9935 100.37 96.1101 102.458C95.0014 99.4604 94.1706 96.288 93.4381 93.1806C93.2022 92.0971 92.9392 91.0193 92.7365 89.9273C92.8973 88.1849 93.1804 85.7327 93.3986 83.9701L93.4729 84.3196C92.0795 81.6468 90.7116 78.9728 89.5137 76.2019L89.5121 76.2064Z" fill="white"/>
<path d="M83.9931 117.652C86.0955 118.34 87.9829 119.514 89.7216 120.868C89.7475 121.63 89.7387 122.39 89.6229 123.168C89.3372 122.487 89.1448 121.797 88.9856 121.1L89.1545 121.366C87.264 120.388 85.4639 119.21 83.9931 117.652Z" fill="white"/>
<path d="M156.752 167.57C154.771 165.352 152.628 162.689 150.793 160.341L150.986 160.51C148.33 159.171 145.701 157.782 143.096 156.356C140.573 154.968 137.831 153.413 135.354 151.921L135.162 151.808L135.109 151.627C134.396 149.113 133.721 146.591 133.163 144.036C134.227 146.426 135.182 148.854 136.101 151.299L135.856 151.006C139.829 152.959 143.821 155.105 147.681 157.266C149.017 158.028 150.354 158.787 151.676 159.575L151.735 159.666C153.399 162.141 155.271 165.002 156.764 167.579L156.752 167.57Z" fill="white"/>
<path d="M124.47 110.125C122.705 107.984 121.167 105.695 119.669 103.364C119.308 99.6846 119.108 95.9912 119.16 92.2957C119.176 91.0835 119.219 89.8656 119.334 88.6428C119.607 89.8354 119.817 91.0361 119.997 92.2363C120.539 95.8325 120.833 99.458 120.974 103.09L120.881 102.795C122.197 105.183 123.448 107.588 124.472 110.121L124.47 110.125Z" fill="white"/>
<path d="M123.048 147.467C122.796 145.206 122.89 142.92 123.09 140.661L123.168 141.072C122.153 139.219 121.232 137.314 120.5 135.329C119.645 132.916 119.622 132.867 121.169 134.972C122.439 136.758 123.533 138.659 124.524 140.609C124.228 142.925 123.815 145.246 123.054 147.465L123.048 147.467Z" fill="white"/>
<path d="M122.481 138.006C119.613 137.432 116.456 136.63 113.61 135.892C112.573 135.614 111.534 135.344 110.498 135.051L110.404 134.886C109.773 133.795 108.521 131.581 107.915 130.474L108.244 130.701C104.748 130.093 101.263 129.439 97.8153 128.575C101.43 128.831 105.02 129.3 108.607 129.823C109.295 131.01 110.547 133.224 111.208 134.431L110.936 134.214C111.911 134.497 112.872 134.804 113.843 135.095C116.654 135.977 119.745 136.968 122.491 138.004L122.481 138.006Z" fill="white"/>
<path d="M114.101 115.858C116.836 119.492 119.466 123.196 122.077 126.914L121.666 126.749C122.594 126.429 123.599 126.236 124.573 126.361C125.536 126.937 126.503 127.515 127.445 128.134C126.397 127.715 125.374 127.255 124.349 126.798L124.513 126.82C123.597 127.307 122.57 127.491 121.548 127.562C119.021 123.692 116.506 119.816 114.104 115.864L114.101 115.858Z" fill="white"/>
<g style="mix-blend-mode:multiply" opacity="0.3">
<path d="M20.4108 66.7452L36.9084 82.1821L35.2015 83.9216L18.0096 66.4063L20.4108 66.7452Z" fill="black"/>
</g>
<g style="mix-blend-mode:multiply" opacity="0.3">
<path d="M34.1473 60.0594L48.2453 83.0356C48.2453 83.0356 46.5713 84.2055 46.5119 84.3463C46.4526 84.4871 32.1063 61.8178 32.1063 61.8178L34.1444 60.0534L34.1473 60.0594Z" fill="black"/>
</g>
<path d="M148.367 166.572L154.717 169.553L167.416 175.028L149.316 164.132L148.367 166.572Z" fill="#011111"/>
<path d="M166.156 180.836L327.593 338.756L329.921 346.164L162.963 182.877L144.378 184.305L144.163 181.001L166.156 180.836Z" fill="#D28F00"/>
<g style="mix-blend-mode:multiply" opacity="0.3">
<path d="M346.921 367.886L333.271 370.677C333.271 370.677 333.364 372.412 334.214 372.676C335.065 372.939 354.892 371.073 354.892 371.073L366.408 376.36L368.877 372.195L317.902 349.719L317.23 351.671L346.925 367.888L346.921 367.886Z" fill="#965B00"/>
</g>
<path d="M69.0041 94.948L60.0289 91.7922L57.6104 82.8569L68.6486 88.7593L69.0041 94.948Z" fill="#E0320A"/>
<path d="M56.4441 119.335L44.2403 111.001L51.1756 109.903L54.8764 113.73L56.4441 119.335Z" fill="#E0320A"/>
<path d="M107.317 87.702L98.3889 81.5308L101.332 75.9967L109.025 84.26L107.317 87.702Z" fill="#E0320A"/>
<path d="M88.096 105.198L84.4186 99.8627L86.1729 93.4053L91.3947 105.853L88.096 105.198Z" fill="#E0320A"/>
<path d="M187.665 193.038L175.659 195.542L189.161 208.578L201.162 206.574L187.665 193.038Z" fill="#D28F00"/>
<path d="M201.531 206.527L192.827 207.96L200.318 214.474L208.816 213.972L201.531 206.527Z" fill="#FFDD55"/>
<path d="M253.958 258.141L245.809 259.593L259.311 272.629L267.942 271.679L253.958 258.141Z" fill="#FFDD55"/>
<path d="M292.909 296.228L280.911 298.243L294.413 311.279L306.894 309.766L292.909 296.228Z" fill="#D28F00"/>
</svg>
