<svg width="400" height="400" viewBox="0 0 400 400" fill="none" xmlns="http://www.w3.org/2000/svg">
<path d="M72.1749 136.307L42.7761 131.864L42.6811 124.806L82.8722 116.665L79.7487 133.42L72.1749 136.307Z" fill="#01494A"/>
<path d="M48.0456 124.339L49.0963 130.583L48.9883 132.989L50.5706 132.788L50.9147 129.709L49.87 123.461L48.0456 124.339Z" fill="#00EDFF"/>
<path d="M60.8821 134.136L61.8819 124.272L65.8742 125.289L63.3504 135.188L60.8821 134.136Z" fill="#00EDFF"/>
<path d="M72.1749 136.307L42.7761 131.864L42.6811 124.806L82.8722 116.665L79.7487 133.42L72.1749 136.307Z" stroke="black" stroke-width="4" stroke-miterlimit="10"/>
<path d="M48.5315 116.386L21.0169 99.8435L29.1024 93.0535L55.9891 104.215L48.5315 116.386Z" fill="#01494A"/>
<path d="M32.9294 106.268L36.1518 100.398L35.0576 99.8685L30.843 105.033L32.9294 106.268Z" fill="#00EDFF"/>
<path d="M48.5315 116.386L21.0169 99.8435L29.1024 93.0535L55.9891 104.215L48.5315 116.386Z" stroke="black" stroke-width="4" stroke-miterlimit="10"/>
<path d="M117.722 96.5382L103.21 67.1897L77.4743 58.9818L32.6134 77.7808L45.1841 120.327L103.552 134.419L117.722 96.5382Z" fill="#FF630D" stroke="black" stroke-width="4" stroke-miterlimit="10"/>
<path d="M49.8836 89.5362L41.672 85.6488L45.466 83.4517L54.1964 82.9855L49.8836 89.5362Z" fill="#E0320A"/>
<path d="M62.369 95.4058L24.3444 84.3903L16.8345 92.4706L57.7193 108.838L62.369 95.4058Z" fill="#01494A"/>
<path d="M44.1109 75.0142L23.5076 61.5407L17.8253 67.3693L35.6917 84.4084L44.1109 75.0142Z" fill="#01494A"/>
<path d="M64.9665 66.771L55.8447 36.6219L67.1498 34.8059L88.3297 64.2397L65.746 69.3624L64.9665 66.771Z" fill="#01494A"/>
<path d="M92.8222 66.7774L94.2991 37.7898L103.479 43.8008L104.115 71.7353L92.8222 66.7774Z" fill="#01494A"/>
<path d="M91.6995 79.5064L77.788 74.6282L87.9579 68.6196L88.4708 74.3427L91.6995 79.5064Z" fill="#E0320A"/>
<path d="M83.4817 91.0422L74.4083 78.9056L70.552 82.114L75.3577 94.4927L83.4817 91.0422Z" fill="#01494A"/>
<path d="M72.2473 112.36L62.3998 111.931L60.9753 116.41L72.5607 121.828L72.2473 112.36Z" fill="#01494A"/>
<path d="M165.467 169.998L128.897 128.506L120.405 75.5072L111.848 74.5021L111.446 100.51L106.477 89.8032L100.557 91.3657L92.1274 71.7899L87.4066 80.0217L96.7561 113.33L78.4219 102.799L76.2688 108.766L86.3886 115.691L80.6854 119.668L89.5166 127.537L67.2666 130.055L69.7779 137.638L84.4275 136.144L80.2376 142.329L113.831 140.961L167.139 184.458L165.467 169.998Z" fill="#01494A" stroke="black" stroke-width="4" stroke-miterlimit="10"/>
<path d="M341.408 356.685L163.072 182.961L144.486 184.386L142.191 179.217L149.937 173.739L143.928 169.909L149.424 164.267L162.148 171.525L157.057 151.538L166.363 153.269L177.304 180.428L349.416 348.089L341.408 356.685Z" fill="#00282A" stroke="black" stroke-width="4" stroke-miterlimit="10"/>
<path d="M162.5 170.908L171.703 176.982L161.793 172.147L162.5 170.908Z" fill="black"/>
<path d="M150.324 173.139L158.927 179.562L149.546 174.338L150.324 173.139Z" fill="black"/>
<path d="M366.512 375.919L353.416 369.951L334.319 372.245L330.343 366.537L337.925 362.735L317.33 351.295L320.404 344.754L332.891 348.493L316.477 314.537L324.999 312.939L343.501 334.807L340.397 325.736L347.242 323.979L359.959 344.796L359.663 336.443L370.668 340.196L376.121 359.438L366.512 375.919Z" fill="#01494A" stroke="black" stroke-width="4" stroke-miterlimit="10"/>
<path d="M344.152 334.516L354.789 360.102L342.85 335.098L344.152 334.516Z" fill="black"/>
<path d="M361.018 345.339L361.003 354.868L359.597 345.44L361.018 345.339Z" fill="black"/>
<path d="M333.193 348.034L347.458 353.328L332.761 349.394L333.193 348.034Z" fill="black"/>
<path d="M353.416 369.951L337.926 362.735" stroke="black" stroke-width="3" stroke-miterlimit="10"/>
<path d="M69.2612 37.9399L67.1932 40.1728L57.6308 41.4308L57.8946 42.8486L67.6186 41.8338L70.8713 39.8298L69.2612 37.9399Z" fill="#00EDFF"/>
<path d="M72.1227 42.7279L68.6268 44.7071L59.2437 48.4719L59.8265 49.6841L69.7924 47.1315L72.9845 43.5038L72.1227 42.7279Z" fill="#00EDFF"/>
<path d="M83.9421 59.7379L77.841 61.5443L65.3997 61.3694L67.9669 63.217L78.7152 63.3627L85.9078 60.6137L83.9421 59.7379Z" fill="#00EDFF"/>
<g style="mix-blend-mode:multiply" opacity="0.3">
<path d="M65.1771 35.5603L79.9961 66.6792L74.4379 66.8366L61.6848 58.7413L55.8449 36.6218L65.1771 35.5603Z" fill="black"/>
</g>
<path d="M64.9665 66.771L55.8447 36.6219L67.1498 34.8059L88.3297 64.2397L65.746 69.3624L64.9665 66.771Z" stroke="black" stroke-width="4" stroke-miterlimit="10"/>
<path d="M22.783 71.9703L25.0502 71.2534L28.4742 64.6935L30.0435 65.6217L26.2391 72.1743L23.6017 73.1997L22.783 71.9703Z" fill="#00EDFF"/>
<path d="M19.7128 69.1852L21.6406 68.042L26.3964 64.1513L25.3925 63.2348L20.9005 67.2785L18.6469 68.5746L19.7128 69.1852Z" fill="#00EDFF"/>
<path d="M44.1109 75.0142L23.5076 61.5407L17.8253 67.3693L35.6917 84.4084L44.1109 75.0142Z" stroke="black" stroke-width="4" stroke-miterlimit="10"/>
<path d="M47.0072 84.8335L32.5955 62.3689L36.7898 56.1849L22.6995 43.9269L30.0357 36.7734L74.438 66.8366L72.2721 71.691L62.0226 77.1073L57.8171 73.7378L47.0072 84.8335Z" fill="#01494A"/>
<path d="M101.44 91.02L111.911 120.569L99.6712 91.71L101.44 91.02Z" fill="black"/>
<path d="M112.32 100.132L116.711 112.758L110.569 100.884L112.32 100.132Z" fill="black"/>
<path d="M86.3882 115.691L103.308 126.16L89.5948 127.902" stroke="black" stroke-width="3" stroke-miterlimit="10"/>
<path d="M84.257 135.207L95.2324 134.188L84.5979 137.08L84.257 135.207Z" fill="black"/>
<path d="M103.904 49.0141L101.174 48.3641L93.7397 44.946L93.087 48.2447L100.85 51.9747L104.287 51.3557L103.904 49.0141Z" fill="#00EDFF"/>
<path d="M103.676 57.9549L101.048 58.5954L93.3646 56.6068L93.2502 58.5572L100.576 59.9417L103.898 59.0909L103.676 57.9549Z" fill="#00EDFF"/>
<path d="M46.4739 47.5218L45.1917 52.6155L38.2452 57.3355L42.8189 61.0206L48.467 54.7719L49.7648 49.8348L46.4739 47.5218Z" fill="#00EDFF"/>
<path d="M60.5298 58.528L60.0651 63.3741L56.4294 71.8454L56.9546 72.5032L61.4114 63.8462L61.6846 58.7414L60.5298 58.528Z" fill="#00EDFF"/>
<path d="M58.6212 74.3625L63.9236 66.7428L64.4657 60.8857L63.0756 60.0354L62.7347 65.822L57.7925 74.1677L58.6212 74.3625Z" fill="#00EDFF"/>
<path d="M43.5067 78.4761L52.3936 69.8607L50.3392 67.6285L42.2785 77.6675L43.5067 78.4761Z" fill="#00EDFF"/>
<path d="M44.9217 63.6476L37.0098 67.8729L37.7762 69.467L46.3787 64.35L44.9217 63.6476Z" fill="#00EDFF"/>
<path d="M49.8368 92.5434L47.8378 95.37L41.7936 102.518L42.8849 103.042L49.184 95.842L51.0495 92.7066L49.8368 92.5434Z" fill="#00EDFF"/>
<path d="M32.2959 87.1232L29.6139 97.0425L32.3309 98.3481L35.25 87.5947L32.2959 87.1232Z" fill="#00EDFF"/>
<path d="M55.5243 93.7114L52.8748 103.279L51.39 106.306L54.5052 107.54L56.5851 103.477L58.8614 94.3122L55.5243 93.7114Z" fill="#00EDFF"/>
<path d="M76.4811 82.0916L73.72 84.792L71.9117 85.4077L72.9068 86.8955L77.8055 83.201L76.4811 82.0916Z" fill="#00EDFF"/>
<path d="M68.6035 113.194L68.0001 119.226L69.1803 119.64L69.861 112.31L68.6035 113.194Z" fill="#00EDFF"/>
<path d="M92.8222 66.7774L94.2991 37.7898L103.479 43.8008L104.115 71.7353L92.8222 66.7774Z" stroke="black" stroke-width="4" stroke-miterlimit="10"/>
<path d="M47.0072 84.8335L32.5955 62.3689L36.7898 56.1849L22.6995 43.9269L30.0357 36.7734L74.438 66.8366L72.2721 71.691L62.0226 77.1073L57.8171 73.7378L47.0072 84.8335Z" stroke="black" stroke-width="4" stroke-miterlimit="10"/>
<path d="M36.7898 56.1851L57.8171 73.738" stroke="black" stroke-width="3" stroke-miterlimit="10"/>
<path d="M83.4817 91.0422L74.4083 78.9056L70.552 82.114L75.3577 94.4927L83.4817 91.0422Z" stroke="black" stroke-width="4" stroke-miterlimit="10"/>
<path d="M62.369 95.4058L24.3444 84.3903L16.8345 92.4706L57.7193 108.838L62.369 95.4058Z" stroke="black" stroke-width="4" stroke-miterlimit="10"/>
<path d="M72.2473 112.36L62.3998 111.931L60.9753 116.41L72.5607 121.828L72.2473 112.36Z" stroke="black" stroke-width="4" stroke-miterlimit="10"/>
<g style="mix-blend-mode:multiply" opacity="0.3">
<path d="M125.018 132.512C125.018 132.512 122.58 134.681 122.728 134.733C123.176 134.89 121.673 134.867 121.095 136.141C120.517 137.415 149.058 163.116 149.058 163.116L147.374 165.045L145.627 167.067L113.831 140.961L80.2378 142.329L88.5229 138.865L89.997 135.264L72.2976 137.711L71.7382 134.995L107.592 131.189L103.297 126.912L89.4496 127.599L81.1505 119.65L86.4716 115.972L76.269 108.766L77.6855 106.164L98.0007 119.007L88.053 81.9869L91.1356 76.7888L115.018 127.242L100.688 91.2249L103.561 90.2167L117.315 114.945L111.077 97.2516L111.842 74.5051L115.208 74.6776L125.007 132.514L125.018 132.512Z" fill="black"/>
</g>
<path d="M112.954 76.3768L119.709 77.2336" stroke="white" stroke-width="4" stroke-miterlimit="10"/>
<path d="M128.52 129.709L126.574 119.452L128.34 131.662L160.277 167.05L159.106 164.512L128.52 129.709Z" fill="white"/>
<g style="mix-blend-mode:multiply" opacity="0.3">
<path d="M101.538 43.0142L100.156 70.1503L104.115 71.7353L103.479 43.8008L101.538 43.0142Z" fill="black"/>
</g>
<path d="M93.9554 60.1398L94.7307 39.2463L102.47 44.48L102.83 46.8739L102.872 47.6446L101.415 44.614L96.0116 41.4139L94.9229 55.9436L93.9554 60.1398Z" fill="white"/>
<path d="M57.2973 38.2145L65.7362 37.1422L76.5238 49.4918L66.6571 35.9533L56.9517 37.03L57.2973 38.2145Z" fill="white"/>
<g style="mix-blend-mode:multiply" opacity="0.3">
<path d="M27.4128 38.5901L72.2718 71.691L62.0223 77.1073L22.6993 43.9269L27.4128 38.5901Z" fill="black"/>
</g>
<path d="M25.1493 42.7601L30.0509 39.7469L66.882 62.9322L30.2316 37.7945L25.1493 42.7601Z" fill="white"/>
<path d="M19.3971 67.2552L23.5059 64.1606L38.5596 72.9668L37.5281 71.5972L23.5292 62.6569L18.4996 66.9405L19.3971 67.2552Z" fill="white"/>
<g style="mix-blend-mode:multiply" opacity="0.3">
<path d="M19.4955 90.2995L58.9596 105.085L57.7192 108.838L16.8344 92.4707L19.4955 90.2995Z" fill="black"/>
</g>
<path d="M19.1578 92.3683L25.1082 86.8958L56.1191 94.7464L53.5839 93.3535L24.6828 85.2348L18.2602 92.0536L19.1578 92.3683Z" fill="white"/>
<g style="mix-blend-mode:multiply" opacity="0.3">
<path d="M23.6131 97.987L41.9164 108.376L42.636 112.791L21.017 99.8433L23.6131 97.987Z" fill="black"/>
</g>
<path d="M23.3947 100.405L26.8974 97.6018L25.5506 96.7717L22.4557 99.6625L23.3947 100.405Z" fill="white"/>
<g style="mix-blend-mode:multiply" opacity="0.3">
<path d="M42.1054 128.877L68.0376 131.177L69.0225 135.554L42.7764 131.864L42.1054 128.877Z" fill="black"/>
</g>
<path d="M44.8766 131.119L45.0563 126.324L55.0699 123.607L52.0626 123.56L43.7577 125.687L43.8217 131.253L44.8766 131.119Z" fill="white"/>
<path d="M37.7373 58.0646L34.3454 63.4263L33.8168 62.4044L36.4921 57.4767L37.7373 58.0646Z" fill="white"/>
<path d="M158.38 153.786L165.741 154.351L165.449 153.745L158.246 152.731L158.38 153.786Z" fill="white"/>
<path d="M70.0221 130.719L71.7146 136.498L70.5509 136.771L68.5578 130.584L70.0221 130.719Z" fill="white"/>
<path d="M85.2476 136.708L83.2253 141.039L82.1704 141.173L84.6415 137L85.2476 136.708Z" fill="white"/>
<path d="M148.475 166.7L146.992 170.454L145.309 169.607L148.475 166.7Z" fill="white"/>
<path d="M150.869 175.336L144.742 179.744L144.27 181.09L143.396 179.272L150.087 174.563L150.869 175.336Z" fill="white"/>
<path d="M318.434 316.745L325.26 314.623L324.944 313.988L317.56 314.926L318.434 316.745Z" fill="white"/>
<path d="M345.488 337.318L342.485 326.695L347.02 325.761L346.729 325.155L341.297 326.274L343.314 332.02L345.488 337.318Z" fill="white"/>
<path d="M361.87 338.023L361.12 348.857L360.524 337.551L361.87 338.023Z" fill="white"/>
<path d="M90.0028 76.7142C91.782 79.1422 93.3986 81.6744 94.9955 84.2199L95.0865 84.3627L95.0743 84.57C94.963 86.3099 94.7991 88.7318 94.6404 90.4349L94.6286 90.2241C95.0971 92.3084 95.4902 94.4066 95.8411 96.5101C96.1626 98.568 96.4842 100.812 96.6008 102.894C95.4921 99.9052 94.6614 96.7414 93.9289 93.6424C93.693 92.5619 93.4299 91.4869 93.2272 90.3979C93.388 88.6603 93.6711 86.2147 93.8894 84.4569L93.9637 84.8055C92.5702 82.1398 91.2023 79.4731 90.0044 76.7097L90.0028 76.7142Z" fill="#FF630D"/>
<path d="M84.4843 118.047C86.5867 118.734 88.4741 119.905 90.2129 121.255C90.2387 122.015 90.2299 122.773 90.1141 123.549C89.8284 122.869 89.636 122.182 89.4768 121.486L89.6457 121.752C87.7552 120.776 85.9551 119.601 84.4843 118.047Z" fill="#FF630D"/>
<path d="M156.859 167.695C154.878 165.484 152.735 162.828 150.901 160.486L151.093 160.654C148.437 159.32 145.808 157.934 143.203 156.512C140.68 155.128 137.938 153.577 135.461 152.089L135.269 151.976L135.216 151.796C134.503 149.289 133.828 146.774 133.27 144.225C134.334 146.609 135.289 149.03 136.208 151.469L135.963 151.176C139.936 153.124 143.928 155.264 147.788 157.419C149.124 158.18 150.461 158.936 151.783 159.722L151.842 159.813C153.506 162.282 155.378 165.135 156.871 167.705L156.859 167.695Z" fill="#FF630D"/>
<path d="M124.961 110.541C123.196 108.405 121.658 106.122 120.16 103.798C119.799 100.129 119.599 96.4454 119.651 92.7599C119.667 91.551 119.71 90.3364 119.825 89.1169C120.099 90.3063 120.309 91.5038 120.489 92.7007C121.03 96.2871 121.324 99.9028 121.465 103.525L121.372 103.23C122.689 105.612 123.939 108.011 124.963 110.537L124.961 110.541Z" fill="#FF630D"/>
<path d="M123.539 147.782C123.287 145.527 123.381 143.247 123.581 140.994L123.659 141.404C122.644 139.556 121.723 137.656 120.991 135.676C120.136 133.27 120.113 133.221 121.66 135.321C122.93 137.102 124.024 138.997 125.015 140.942C124.719 143.252 124.306 145.566 123.545 147.779L123.539 147.782Z" fill="#FF630D"/>
<path d="M122.972 138.346C120.104 137.774 116.947 136.974 114.101 136.238C113.065 135.961 112.025 135.692 110.989 135.399L110.895 135.235C110.264 134.147 109.012 131.939 108.407 130.835L108.736 131.061C105.239 130.455 101.754 129.802 98.3068 128.941C101.921 129.196 105.512 129.664 109.098 130.185C109.787 131.369 111.038 133.577 111.699 134.781L111.428 134.565C112.402 134.846 113.363 135.153 114.335 135.443C117.146 136.323 120.236 137.311 122.983 138.345L122.972 138.346Z" fill="#FF630D"/>
<path d="M114.592 116.258C117.327 119.883 119.957 123.577 122.568 127.284L122.157 127.12C123.085 126.8 124.09 126.608 125.064 126.733C126.027 127.308 126.994 127.884 127.936 128.502C126.888 128.084 125.865 127.624 124.841 127.169L125.004 127.191C124.088 127.676 123.061 127.86 122.039 127.93C119.512 124.071 116.997 120.206 114.595 116.264L114.592 116.258Z" fill="#FF630D"/>
<g style="mix-blend-mode:multiply" opacity="0.3">
<path d="M20.9013 67.2785L37.3989 82.6736L35.692 84.4083L18.5001 66.9405L20.9013 67.2785Z" fill="black"/>
</g>
<g style="mix-blend-mode:multiply" opacity="0.3">
<path d="M34.638 60.6109L48.736 83.5249C48.736 83.5249 47.062 84.6916 47.0027 84.832C46.9433 84.9725 32.597 62.3645 32.597 62.3645L34.6351 60.6049L34.638 60.6109Z" fill="black"/>
</g>
<path d="M166.264 180.926L327.701 338.418L330.029 345.806L163.071 182.961L144.485 184.386L144.27 181.09L166.264 180.926Z" fill="#011111"/>
<path d="M148.474 166.7L154.825 169.673L167.524 175.134L149.424 164.267L148.474 166.7Z" fill="#011111"/>
<g style="mix-blend-mode:multiply" opacity="0.3">
<path d="M347.029 367.47L333.379 370.252C333.379 370.252 333.472 371.983 334.323 372.246C335.173 372.509 355 370.648 355 370.648L366.516 375.92L368.985 371.767L318.01 349.352L317.338 351.298L347.033 367.471L347.029 367.47Z" fill="black"/>
</g>
<path d="M69.4945 95.405L60.5194 92.2578L58.1008 83.3467L69.1391 89.2331L69.4945 95.405Z" fill="#E0320A"/>
<path d="M56.9353 119.725L44.7315 111.414L51.6668 110.319L55.3676 114.136L56.9353 119.725Z" fill="#E0320A"/>
<path d="M107.808 88.1785L98.8799 82.024L101.823 76.5049L109.516 84.7458L107.808 88.1785Z" fill="#E0320A"/>
<path d="M88.587 105.627L84.9095 100.306L86.6638 93.8665L91.8856 106.28L88.587 105.627Z" fill="#E0320A"/>
</svg>
