<svg width="400" height="400" viewBox="0 0 400 400" fill="none" xmlns="http://www.w3.org/2000/svg">
<path d="M305.175 208.575C305.175 208.575 320.085 218.845 322.075 220.165C324.065 221.485 326.055 233.085 326.055 233.085L348.915 249.645L326.385 239.705C326.385 239.705 327.045 262.895 327.045 264.215C327.045 265.535 312.795 280.115 312.795 280.115C312.795 280.115 321.405 264.215 321.735 263.215C322.065 262.215 320.745 237.375 320.745 237.375C320.745 237.375 316.765 222.465 315.445 221.475C314.125 220.485 302.195 215.845 302.195 215.845L305.175 208.555V208.575Z" fill="#77400A" stroke="black" stroke-width="3" stroke-linecap="round" stroke-linejoin="round"/>
<path d="M305.255 217.895L307.225 210.295L323.835 221.275C323.835 221.275 321.295 223.785 318.295 222.785C315.295 221.785 305.245 217.905 305.245 217.905L305.255 217.895Z" fill="#562E09"/>
<path d="M305.175 208.575C305.175 208.575 320.085 218.845 322.075 220.165C324.065 221.485 326.055 233.085 326.055 233.085L348.915 249.645L326.385 239.705C326.385 239.705 327.045 262.895 327.045 264.215C327.045 265.535 312.795 280.115 312.795 280.115C312.795 280.115 321.405 264.215 321.735 263.215C322.065 262.215 320.745 237.375 320.745 237.375C320.745 237.375 316.765 222.465 315.445 221.475C314.125 220.485 302.195 215.845 302.195 215.845L305.175 208.555V208.575Z" stroke="black" stroke-width="3" stroke-linecap="round" stroke-linejoin="round"/>
<path d="M318.105 177.375C318.105 177.375 319.085 172.145 318.425 167.835C317.765 163.525 315.445 157.895 310.145 156.245C310.145 156.245 307.165 160.885 307.495 163.535C307.825 166.185 306.525 173.675 318.105 177.385V177.375Z" fill="#6A8E09" stroke="black" stroke-width="3" stroke-linecap="round" stroke-linejoin="round"/>
<path d="M317.085 175.655C317.085 175.655 313.145 164.235 310.305 157.775" stroke="#4A5603" stroke-width="1.3" stroke-linecap="round" stroke-linejoin="round"/>
<path d="M318.105 177.375C318.105 177.375 319.085 172.145 318.425 167.835C317.765 163.525 315.445 157.895 310.145 156.245C310.145 156.245 307.165 160.885 307.495 163.535C307.825 166.185 306.525 173.675 318.105 177.385V177.375Z" stroke="black" stroke-width="3" stroke-linecap="round" stroke-linejoin="round"/>
<path d="M292.915 186.385C292.915 186.385 312.465 186.055 314.775 186.055C317.085 186.055 320.735 178.435 320.735 178.435L329.345 177.775C329.345 177.775 321.065 175.455 319.405 175.455C317.745 175.455 315.095 179.435 313.445 181.085C311.795 182.735 292.905 179.755 292.905 179.755V186.385H292.915Z" fill="#77400A" stroke="black" stroke-width="3" stroke-linecap="round" stroke-linejoin="round"/>
<path d="M311.735 182.415L314.785 186.055L296.245 185.515L297.375 179.875L311.735 182.415Z" fill="#562E09"/>
<path d="M292.915 186.385C292.915 186.385 312.465 186.055 314.775 186.055C317.085 186.055 320.735 178.435 320.735 178.435L329.345 177.775C329.345 177.775 321.065 175.455 319.405 175.455C317.745 175.455 315.095 179.435 313.445 181.085C311.795 182.735 292.905 179.755 292.905 179.755V186.385H292.915Z" stroke="black" stroke-width="3" stroke-linecap="round" stroke-linejoin="round"/>
<path d="M255.305 293.775L295.965 261.535L297.655 216.485L279.305 153.775L255.305 95.775L217.305 85.775L106.305 105.775L92.1549 135.365L88.3049 274.775L150.795 325.185L207.305 324.775L255.305 293.775Z" fill="#81B3CC"/>
<path d="M271.185 140.465L86.855 252.305L90.995 205.785L89.865 173.685L92.805 123.275L99.805 105.275L180.525 94.845L231.205 85.275L266.085 112.505L271.185 140.465Z" fill="#C6DFE5"/>
<path d="M281.205 156.275L89.615 274.525L95.705 284.115L285.835 166.775L281.205 156.275Z" fill="#C6DFE5"/>
<path d="M287.555 175.505L108.235 286.155L111.495 290.655L291.295 180.635L287.555 175.505Z" fill="#C6DFE5"/>
<path d="M169.805 316.275C169.805 316.275 155.285 311.265 150.805 308.275C147.805 306.275 144.805 297.275 141.805 294.275C138.805 291.275 123.905 288.575 121.155 287.875C118.805 287.275 115.485 276.195 114.645 275.235C113.805 274.275 104.805 274.515 104.805 272.275C104.805 268.275 107.265 261.715 106.805 258.275C106.345 254.835 102.435 233.535 101.805 232.275C100.805 230.275 110.805 215.275 110.805 212.275C110.805 210.865 103.805 184.275 102.805 182.275C101.805 180.275 112.805 156.275 113.805 155.275C114.805 154.275 113.805 121.275 112.805 118.275C112.805 118.275 124.805 123.275 125.805 123.275C126.805 123.275 140.805 116.275 140.805 115.275C140.805 115.275 155.805 119.275 158.805 119.275C161.805 119.275 182.565 108.515 184.805 106.275C185.375 105.705 204.815 107.265 205.805 106.275C207.135 104.945 225.695 94.385 226.805 93.275C227.755 92.325 192.805 98.275 192.805 98.275L180.525 94.845L135.285 102.545L98.8649 108.925L89.575 258.995L96.6149 292.125L127.795 312.275L166.065 331.545L180.935 327.835L169.795 316.265L169.805 316.275Z" fill="#547E8E"/>
<path d="M266.085 112.505C266.085 112.505 281.985 91.3051 282.985 89.6451C283.985 87.9851 285.965 86.335 288.945 86.995C291.925 87.655 301.205 91.9651 301.205 91.9651C301.205 91.9651 291.265 90.9751 288.945 91.6351C286.625 92.2951 268.405 124.105 268.405 124.105L266.085 112.515V112.505Z" fill="#77400A" stroke="black" stroke-width="3" stroke-linecap="round" stroke-linejoin="round"/>
<path d="M271.475 111.175C271.475 111.175 281.805 96.275 286.805 88.275L287.805 86.965L283.155 88.515L269.355 107.525L271.465 111.185L271.475 111.175Z" fill="white"/>
<path d="M266.085 112.505C266.085 112.505 281.985 91.3051 282.985 89.6451C283.985 87.9851 285.965 86.335 288.945 86.995C291.925 87.655 301.205 91.9651 301.205 91.9651C301.205 91.9651 291.265 90.9751 288.945 91.6351C286.625 92.2951 268.405 124.105 268.405 124.105L266.085 112.515V112.505Z" stroke="black" stroke-width="3" stroke-linecap="round" stroke-linejoin="round"/>
<path d="M146.745 55.985C146.745 55.985 151.245 52.325 152.485 48.905C153.725 45.485 151.275 34.725 151.275 34.725C151.275 34.725 145.655 37.2749 144.205 40.6249C142.085 45.4949 142.665 51.6949 146.745 55.9949V55.985Z" fill="#6A8E09" stroke="black" stroke-width="3" stroke-linecap="round" stroke-linejoin="round"/>
<path d="M146.275 53.6249C146.275 53.6249 146.175 45.085 150.185 36.955" stroke="#4A5603" stroke-width="1.3" stroke-linecap="round" stroke-linejoin="round"/>
<path d="M146.745 55.985C146.745 55.985 151.245 52.325 152.485 48.905C153.725 45.485 151.275 34.725 151.275 34.725C151.275 34.725 145.655 37.2749 144.205 40.6249C142.085 45.4949 142.665 51.6949 146.745 55.9949V55.985Z" stroke="black" stroke-width="3" stroke-linecap="round" stroke-linejoin="round"/>
<path d="M127.935 94.285C127.935 94.285 121.975 79.705 120.315 78.385C118.655 77.065 109.055 77.0551 109.055 77.0551C109.055 77.0551 116.675 73.415 118.995 72.745C121.315 72.075 123.635 72.085 127.605 79.705C127.605 79.705 135.225 60.825 136.545 59.825C137.865 58.825 149.135 56.515 154.435 55.515C154.435 55.515 141.515 61.4751 139.525 62.8051C137.535 64.1351 131.905 86.655 131.905 86.655L141.185 100.905L127.935 94.275V94.285Z" fill="#77400A" stroke="black" stroke-width="3" stroke-linecap="round" stroke-linejoin="round"/>
<path d="M130.405 92.035L123.805 79.275C123.805 79.275 121.805 75.275 116.805 76.275L120.805 79.275L127.805 94.275L130.405 92.035Z" fill="white"/>
<path d="M129.805 84.2751L136.555 59.8351L134.805 60.2751L127.605 79.7051L129.805 84.2751Z" fill="white"/>
<path d="M127.935 94.285C127.935 94.285 121.975 79.705 120.315 78.385C118.655 77.065 109.055 77.0551 109.055 77.0551C109.055 77.0551 116.675 73.415 118.995 72.745C121.315 72.075 123.635 72.085 127.605 79.705C127.605 79.705 135.225 60.825 136.545 59.825C137.865 58.825 149.135 56.515 154.435 55.515C154.435 55.515 141.515 61.4751 139.525 62.8051C137.535 64.1351 131.905 86.655 131.905 86.655L141.185 100.905L127.935 94.275V94.285Z" stroke="black" stroke-width="3" stroke-linecap="round" stroke-linejoin="round"/>
<path d="M81.555 192.675L59.035 180.085L58.035 158.225L51.085 149.615L62.015 156.235L65.655 175.785L84.205 184.725L81.555 192.675Z" fill="#77400A" stroke="black" stroke-width="3" stroke-linecap="round" stroke-linejoin="round"/>
<path d="M62.4549 181.755L58.8049 157.275L53.5449 152.005L58.0349 158.225L59.0349 180.085L62.4549 181.755Z" fill="white"/>
<path d="M81.555 192.675L59.035 180.085L58.035 158.225L51.085 149.615L62.015 156.235L65.655 175.785L84.205 184.725L81.555 192.675Z" stroke="black" stroke-width="3" stroke-linecap="round" stroke-linejoin="round"/>
<path d="M113.035 301.665C113.035 301.665 107.735 313.925 106.745 314.585C105.755 315.245 90.8448 315.915 89.1848 316.575C87.5248 317.235 87.8548 333.805 87.8548 333.805L93.8148 320.225C93.8148 320.225 106.735 321.215 108.395 321.215C110.055 321.215 119.655 308.625 119.655 308.625L113.025 301.665H113.035Z" fill="#77400A" stroke="black" stroke-width="3" stroke-linecap="round" stroke-linejoin="round"/>
<path d="M113.895 307.895L107.805 318.275H90.8049L86.8049 335.275L87.3349 320.945L89.1749 316.575L104.785 314.465L110.985 306.305L113.895 307.895Z" fill="white"/>
<path d="M143.505 329.165C143.505 329.165 137.545 346.725 137.215 348.715C136.885 350.705 151.465 355.345 152.785 356.335C154.105 357.325 158.415 365.275 158.415 365.275L157.085 354.675L144.495 346.395L148.475 335.465L143.505 329.175V329.165Z" fill="#77400A" stroke="black" stroke-width="3" stroke-linecap="round" stroke-linejoin="round"/>
<path d="M309.485 252.635C308.495 248.325 302.195 229.445 302.195 229.445C302.195 229.445 308.485 206.915 307.825 203.275C307.165 199.635 296.895 187.375 296.895 187.375C296.895 187.375 297.555 174.125 297.225 171.475C296.895 168.825 284.305 150.935 284.305 150.935C284.305 150.935 285.635 139.345 284.635 136.355C283.645 133.375 272.045 122.775 272.045 122.775C269.395 100.245 266.085 96.9351 263.105 94.2851C250.135 82.7551 227.325 76.7251 225.335 77.7251C223.345 78.7151 219.045 81.705 219.045 81.705C219.045 81.705 214.075 78.3951 211.425 77.7251C208.775 77.0651 198.175 76.3951 195.195 78.0551C192.215 79.7151 177.965 89.645 177.965 89.645C171.675 89.315 150.135 88.9851 147.815 89.9751C145.495 90.9651 139.865 95.935 139.865 95.935C135.885 94.945 118.995 89.975 117.335 90.635C115.675 91.295 106.735 99.575 106.735 99.575C106.735 99.575 102.755 98.9151 97.795 97.9151C92.835 96.9151 91.165 103.545 90.175 106.855C89.185 110.165 76.595 146.605 77.255 149.925C77.915 153.235 84.545 177.425 84.545 177.425L80.235 187.695C77.255 194.325 73.275 200.945 75.265 206.905C76.455 210.485 83.215 230.095 83.215 230.095C83.215 230.095 75.265 254.945 72.945 260.905C70.625 266.865 69.965 270.845 73.605 273.825C74.885 274.875 84.205 282.435 84.205 282.435C84.205 282.435 83.215 289.395 82.875 293.365C82.535 297.335 81.545 299.655 92.155 302.645C97.295 304.095 113.025 304.965 113.025 304.965C115.345 307.285 122.305 319.215 125.285 320.205C128.265 321.195 139.195 325.175 139.195 325.175C139.195 325.175 141.845 329.485 145.485 335.445C149.125 341.405 152.445 341.735 158.735 340.085C165.025 338.425 171.325 335.445 171.325 335.445C175.305 338.755 178.945 342.405 182.585 340.415C186.225 338.425 200.805 330.805 200.805 330.805C214.055 332.135 216.705 331.465 219.025 329.145C221.345 326.825 225.985 317.215 225.985 317.215C237.245 315.555 242.545 315.555 245.865 313.235C249.185 310.915 264.415 295.675 264.415 295.675C280.315 292.365 281.645 290.705 282.965 288.385C284.285 286.065 290.915 271.485 290.915 271.485C290.915 271.485 301.185 266.515 306.155 263.205C311.125 259.895 310.465 256.915 309.465 252.605L309.485 252.635ZM283.315 245.675C282.655 246.665 281.655 251.305 281.985 265.555C281.985 265.555 272.375 271.515 270.725 272.845C269.065 274.175 266.085 277.815 257.475 288.085C257.475 288.085 243.225 290.075 240.575 290.735C237.925 291.395 236.265 292.725 223.675 304.985C223.675 304.985 218.705 305.315 216.385 305.645C214.065 305.975 210.425 308.625 198.495 316.905C198.495 316.905 190.875 313.925 188.555 313.595C186.235 313.265 183.585 316.245 172.985 323.205C172.985 323.205 165.695 316.915 164.375 316.575C163.055 316.235 145.165 314.255 145.165 314.255C145.165 314.255 140.855 302.995 139.865 301.005C138.875 299.015 135.555 297.365 132.575 296.365C129.595 295.375 117.335 292.725 117.335 292.725C117.335 292.725 111.375 284.445 109.385 282.455C107.395 280.465 99.775 278.475 99.775 278.475C99.775 278.475 100.765 266.545 100.765 264.565C100.765 262.585 95.465 229.445 95.465 229.445C95.465 229.445 102.095 219.175 103.085 217.185C104.075 215.195 104.745 212.875 102.755 205.595C100.765 198.305 96.125 181.415 96.125 181.415C96.125 181.415 103.745 162.205 105.065 159.555C106.385 156.905 106.395 151.935 106.395 144.315C106.395 136.695 107.055 109.865 107.055 109.865C107.055 109.865 121.965 114.175 123.955 114.835C125.945 115.495 129.915 115.495 140.515 107.875C140.515 107.875 154.425 111.855 156.745 112.515C159.065 113.175 161.385 112.845 166.355 110.525C171.325 108.205 186.235 99.9251 186.235 99.9251C186.235 99.9251 198.165 102.245 201.145 102.245C204.125 102.245 206.775 100.585 209.425 99.265C212.075 97.935 221.015 93.3051 221.015 93.3051C221.015 93.3051 239.895 102.585 244.205 106.555C248.515 110.535 262.095 124.775 262.095 124.775C262.095 124.775 264.745 136.705 265.075 138.355C265.405 140.015 266.735 142.665 272.365 150.615C272.365 150.615 272.695 165.855 272.695 167.845C272.695 169.835 275.675 173.475 286.275 190.045C286.275 190.045 287.265 211.905 287.605 215.225C287.935 218.535 291.585 226.815 291.585 226.815C291.585 226.815 283.965 244.705 283.305 245.695L283.315 245.675Z" fill="#77400A" stroke="black" stroke-width="3" stroke-linecap="round" stroke-linejoin="round"/>
<path d="M84.8049 176.275C84.8049 176.275 80.4649 152.295 81.0849 150.095C84.2549 138.795 94.1349 103.945 95.8049 102.275C97.8049 100.275 100.755 99.165 100.755 99.165L94.7449 98.035L87.6149 114.555L77.8049 148.275L82.8049 174.275L84.8049 176.275Z" fill="white"/>
<path d="M121.395 92.315L110.705 101.045L107.885 97.385L117.335 90.645L121.395 92.315Z" fill="white"/>
<path d="M75.975 202.785C75.975 202.785 92.805 167.275 94.805 162.275C96.385 158.335 93.245 140.835 93.245 140.835L92.495 158.555L74.105 200.155L75.985 202.785H75.975Z" fill="white"/>
<path d="M73.8049 269.275C74.8049 267.275 90.8049 220.275 92.8049 215.275L92.1549 210.895L79.7249 241.825L71.0949 265.475C71.0949 265.475 70.4149 270.405 73.6049 273.845C76.7949 277.285 73.8049 269.275 73.8049 269.275Z" fill="white"/>
<path d="M143.545 96.535C143.545 96.535 147.905 93.715 148.805 93.275C150.805 92.275 155.935 90.905 155.935 90.905L147.815 89.975L139.805 95.275L143.545 96.535Z" fill="white"/>
<path d="M191.605 92.405C191.605 92.405 195.695 97.535 210.755 89.405L209.065 87.905L198.175 91.655L191.605 92.405Z" fill="white"/>
<path d="M183.155 90.345C183.155 90.345 193.805 82.275 196.805 80.275C199.435 78.525 201.735 77.015 201.735 77.015L195.185 78.0551L174.145 90.345H183.155Z" fill="white"/>
<path d="M223.605 83.585C223.605 83.585 226.545 80.445 228.675 79.365C230.805 78.285 225.335 77.725 225.335 77.725L217.805 82.275L223.605 83.585Z" fill="white"/>
<path d="M86.2049 300.105C84.8049 299.275 89.3649 263.725 89.5849 258.995L86.8649 252.305L84.2349 286.585L82.825 297.565L86.2049 300.095V300.105Z" fill="white"/>
<path d="M145.055 333.615L139.415 350.785L137.215 348.715L142.515 331.645L145.055 333.615Z" fill="white"/>
<path d="M96.8051 185.275C96.8051 185.275 91.8051 195.275 91.8051 196.275C91.8051 197.275 93.8051 209.275 93.8051 210.275C93.8051 211.275 92.1551 210.895 92.1551 210.895L89.175 196.985L94.785 183.965L96.7951 185.275H96.8051Z" fill="#562E09"/>
<path d="M83.2148 230.115L92.1548 210.905C92.1548 210.905 88.8448 197.985 89.1748 196.995C89.5048 196.005 96.1348 181.425 96.1348 181.425" stroke="black" stroke-width="2" stroke-linecap="round" stroke-linejoin="round"/>
<path d="M93.245 140.835C93.245 140.835 98.125 122.265 102.805 113.275C104.105 110.775 105.715 111.145 106.805 110.275C106.805 110.275 102.075 109.405 100.445 112.835C98.815 116.265 92.165 135.365 92.165 135.365L93.245 140.835Z" fill="#562E09"/>
<path d="M84.5449 177.435C84.5449 177.435 91.8349 160.535 92.4949 158.555C93.1549 156.575 92.1649 138.345 92.1649 135.365C92.1649 132.385 99.4549 114.825 100.445 112.835C101.435 110.845 102.765 108.525 107.075 109.855" stroke="black" stroke-width="2" stroke-linecap="round" stroke-linejoin="round"/>
<path d="M106.735 99.5851C106.735 99.5851 125.825 105.525 140.525 107.865" stroke="black" stroke-width="2" stroke-linecap="round" stroke-linejoin="round"/>
<path d="M181.805 102.275C181.805 102.275 176.795 101.535 171.805 101.275C169.795 101.175 152.805 101.245 152.805 101.275L161.945 98.9751L169.455 98.5951L186.245 99.9051L181.805 102.265V102.275Z" fill="#562E09"/>
<path d="M138.805 96.275C138.805 96.275 150.355 99.555 152.785 100.245C155.215 100.935 164.045 98.585 167.695 98.585C171.345 98.585 185.805 99.265 185.805 99.265" stroke="black" stroke-width="2" stroke-linecap="round" stroke-linejoin="round"/>
<path d="M177.805 90.275C177.805 90.275 191.895 91.115 195.515 91.635C197.835 91.965 206.115 88.985 207.445 88.325C208.775 87.665 216.055 90.315 221.025 93.295" stroke="black" stroke-width="2" stroke-linecap="round" stroke-linejoin="round"/>
<path d="M279.305 153.775C277.605 148.665 279.305 169.775 279.305 167.775C279.305 165.775 281.305 159.775 279.305 153.775Z" fill="#562E09"/>
<path d="M265.185 119.435C264.805 118.275 264.805 98.275 259.805 97.275L259.175 101.795L265.185 119.435Z" fill="#562E09"/>
<path d="M158.805 107.275C156.805 107.275 142.805 104.275 142.805 104.275H151.805L158.805 107.275Z" fill="#562E09"/>
<path d="M98.8049 133.275V147.275C98.8049 147.275 101.805 128.275 101.805 123.275C101.805 118.275 98.8049 133.275 98.8049 133.275Z" fill="#562E09"/>
<path d="M99.8049 160.275C98.8049 161.275 94.8049 169.275 94.8049 171.275V173.275L99.8049 160.275Z" fill="#562E09"/>
<path d="M222.805 310.275C220.805 311.275 220.725 314.275 225.765 312.775C230.805 311.275 232.895 308.275 232.895 308.275L222.805 310.275Z" fill="#562E09"/>
<path d="M301.805 248.275C301.805 250.275 301.805 258.275 302.805 257.275C303.805 256.275 305.805 253.275 305.805 253.275C305.805 253.275 304.805 248.275 303.805 246.275C302.805 244.275 301.805 248.275 301.805 248.275Z" fill="#562E09"/>
<path d="M96.8048 297.275C91.8048 294.275 92.1148 284.205 92.9648 281.245C93.8148 278.285 94.8048 282.275 94.8048 286.275C94.8048 299.435 98.8048 297.275 104.805 299.275C110.805 301.275 96.8048 297.275 96.8048 297.275Z" fill="#562E09"/>
<path d="M252.045 98.795C252.045 98.795 260.675 101.625 266.805 132.275C267.805 137.275 272.315 146.845 272.315 146.845L272.375 150.605L265.185 140.835L262.105 124.765C262.105 124.765 257.275 106.305 252.045 98.795Z" fill="white"/>
<path d="M272.315 146.845C272.315 146.845 275.805 146.275 275.805 157.275V168.275L281.705 181.005L273.445 171.245L272.315 146.845Z" fill="white"/>
<path d="M286.955 174.125C286.955 174.125 289.365 184.255 289.585 189.265C289.805 194.275 290.715 221.045 291.805 223.275L289.955 224.175L287.615 215.205L286.955 174.125Z" fill="white"/>
<path d="M298.875 204.605C298.875 204.605 301.375 209.825 297.085 221.555C292.795 233.285 287.795 242.275 286.795 247.275C285.795 252.275 285.825 263.595 285.825 263.595L281.975 265.555L283.305 245.675L293.805 221.265L298.875 204.595V204.605Z" fill="white"/>
<path d="M294.905 257.935C294.905 257.935 293.365 262.415 288.085 265.845C282.805 269.275 273.805 274.275 271.805 276.275C269.805 278.275 262.935 286.875 262.935 286.875L257.475 288.085L268.195 274.105L281.995 265.555L294.915 257.935H294.905Z" fill="white"/>
<path d="M275.355 283.115C275.355 283.115 272.695 287.685 265.805 289.275C252.805 292.275 241.805 293.275 240.805 294.275C239.805 295.275 230.645 304.145 230.645 304.145L223.675 304.985L237.775 291.385L275.355 283.125V283.115Z" fill="white"/>
<path d="M243.555 302.665C243.555 302.665 243.745 305.765 237.775 306.025C231.805 306.285 220.805 308.285 216.805 309.285C214.865 309.775 203.235 318.795 203.235 318.795L198.495 316.925L216.385 305.665L243.555 302.685V302.665Z" fill="white"/>
<path d="M101.695 279.925C101.695 279.925 101.805 287.275 101.805 288.275C101.805 289.275 103.365 290.535 104.085 290.405C104.805 290.275 99.115 289.745 99.115 289.745L99.995 274.675L101.685 279.935L101.695 279.925Z" fill="#562E09"/>
<path d="M188.565 313.595C188.565 313.595 178.865 325.805 177.335 325.545C175.805 325.285 172.995 323.205 172.995 323.205L188.565 313.595Z" fill="white"/>
<path d="M166.445 319.155L146.925 318.035L145.165 314.255L164.375 316.575L166.445 319.155Z" fill="white"/>
<path d="M113.035 304.985L104.085 290.405L99.115 289.745L99.775 278.475" stroke="black" stroke-width="2" stroke-linecap="round" stroke-linejoin="round"/>
<path d="M96.0549 233.095C96.0549 233.095 93.4249 238.065 92.1149 242.665C90.8049 247.265 89.2949 255.615 89.2949 255.615L87.2349 255.705C87.2349 255.705 87.8049 247.265 88.8049 245.265C89.8049 243.265 93.0549 232.335 93.4349 231.305C93.8149 230.275 96.0649 233.085 96.0649 233.085L96.0549 233.095Z" fill="#562E09"/>
<path d="M84.8049 282.275L86.1949 266.225C86.1949 266.225 87.5149 254.575 87.8049 252.275C88.0149 250.605 88.2649 247.355 88.8049 245.275C90.8649 237.385 94.8049 229.275 94.8049 229.275" stroke="black" stroke-width="2" stroke-linecap="round" stroke-linejoin="round"/>
<path d="M224.165 320.655C224.165 320.655 220.805 320.275 219.805 321.275C218.805 322.275 216.805 324.275 214.805 324.275C212.805 324.275 205.025 319.815 205.025 319.815L213.075 321.545L219.035 317.905L227.825 317.285L224.165 320.665V320.655Z" fill="#562E09"/>
<path d="M225.995 317.235L219.035 317.895C219.035 317.895 214.065 321.205 213.075 321.535C212.085 321.865 198.495 316.895 198.495 316.895" stroke="black" stroke-width="2" stroke-linecap="round" stroke-linejoin="round"/>
<path d="M225.765 84.9051C225.765 84.9051 229.805 83.2751 235.805 86.2751C241.805 89.2751 248.525 93.8051 250.165 98.0351L245.475 94.6551L225.765 84.8951V84.9051Z" fill="#562E09"/>
<path d="M286.805 173.275C286.805 173.275 285.805 163.275 287.335 156.045L284.515 152.665L283.635 167.175L286.795 173.285L286.805 173.275Z" fill="#562E09"/>
<path d="M275.695 126.945C275.695 126.945 276.805 130.275 276.805 133.275C276.805 136.275 273.705 143.035 273.255 145.155C272.805 147.275 273.705 133.375 273.705 133.375L272.045 122.775L275.695 126.945Z" fill="#562E09"/>
<path d="M218.805 82.275C218.805 82.275 238.825 91.285 242.805 93.275C246.785 95.265 255.805 102.275 258.795 112.175C262.555 124.635 262.105 124.765 262.105 124.765" stroke="black" stroke-width="2" stroke-linecap="round" stroke-linejoin="round"/>
<path d="M272.045 122.775C272.045 122.775 273.705 132.055 273.705 133.375C273.705 134.695 272.375 143.645 272.375 150.605" stroke="black" stroke-width="2" stroke-linecap="round" stroke-linejoin="round"/>
<path d="M284.305 150.935C284.305 150.935 283.645 165.185 283.645 167.165C283.645 169.145 286.625 172.795 286.955 174.125C287.285 175.455 286.295 190.025 286.295 190.025" stroke="black" stroke-width="2" stroke-linecap="round" stroke-linejoin="round"/>
<path d="M299.905 190.575C299.905 190.575 298.875 201.405 298.845 203.335C298.815 205.265 296.235 202.275 296.235 202.275L296.895 187.365L299.915 190.565L299.905 190.575Z" fill="#562E09"/>
<path d="M296.895 187.375C296.895 187.375 296.235 200.295 296.235 202.285L298.885 204.605C298.885 204.605 295.245 219.845 291.595 226.805" stroke="black" stroke-width="2" stroke-linecap="round" stroke-linejoin="round"/>
<path d="M303.805 234.275C303.805 234.275 299.805 246.275 298.805 248.275C297.805 250.275 294.805 259.275 294.805 259.275L295.565 249.325L301.975 230.935L303.805 234.275Z" fill="#562E09"/>
<path d="M302.195 229.445C302.195 229.445 297.205 245.505 295.565 249.325C294.575 251.645 295.375 254.655 294.905 257.935C294.575 260.255 281.985 265.555 281.985 265.555" stroke="black" stroke-width="2" stroke-linecap="round" stroke-linejoin="round"/>
<path d="M289.205 276.175C289.205 276.175 280.805 279.275 279.805 280.275C278.805 281.275 275.355 283.115 275.355 283.115L278.005 278.145L290.145 273.165L289.205 276.165V276.175Z" fill="#562E09"/>
<path d="M290.925 271.525C290.925 271.525 279.335 278.155 278.005 278.155C278.005 278.155 275.685 282.135 275.355 283.125C275.025 284.115 257.465 288.095 257.465 288.095" stroke="black" stroke-width="2" stroke-linecap="round" stroke-linejoin="round"/>
<path d="M264.425 295.705C264.425 295.705 249.185 299.345 247.525 299.685C245.865 300.025 243.545 302.665 243.545 302.665C243.545 302.665 226.645 304.655 223.665 304.985" stroke="black" stroke-width="2" stroke-linecap="round" stroke-linejoin="round"/>
<path d="M196.855 333.325C196.855 333.325 189.805 330.275 187.805 330.275C185.805 330.275 181.805 329.275 181.805 329.275L184.185 327.695L186.905 327.175L204.175 330.795L196.855 333.325Z" fill="#562E09"/>
<path d="M172.995 323.205C172.995 323.205 179.285 327.185 180.945 327.845C182.605 328.505 185.915 327.185 186.905 327.185C187.895 327.185 200.815 330.825 200.815 330.825" stroke="black" stroke-width="2" stroke-linecap="round" stroke-linejoin="round"/>
<path d="M147.365 319.345C147.365 319.345 150.805 324.275 153.805 324.275C156.805 324.275 161.205 325.685 162.505 327.985C163.805 330.285 158.415 326.515 158.415 326.515L153.125 326.475L150.795 325.185L147.365 319.345Z" fill="#562E09"/>
<path d="M145.165 314.255C145.165 314.255 150.055 324.445 150.795 325.185C152.125 326.515 155.765 326.515 158.415 326.515C159.745 326.515 164.045 329.495 171.335 335.455" stroke="black" stroke-width="2" stroke-linecap="round" stroke-linejoin="round"/>
<path d="M122.905 294.385L129.285 306.395L126.285 304.655L117.335 292.725L122.905 294.385Z" fill="#562E09"/>
<path d="M139.205 325.185C139.205 325.185 132.245 309.945 130.595 308.285C128.945 306.625 126.285 304.645 126.285 304.645L117.345 292.715" stroke="black" stroke-width="2" stroke-linecap="round" stroke-linejoin="round"/>
<path d="M309.485 252.635C308.495 248.325 302.195 229.445 302.195 229.445C302.195 229.445 308.485 206.915 307.825 203.275C307.165 199.635 296.895 187.375 296.895 187.375C296.895 187.375 297.555 174.125 297.225 171.475C296.895 168.825 284.305 150.935 284.305 150.935C284.305 150.935 285.635 139.345 284.635 136.355C283.645 133.375 272.045 122.775 272.045 122.775C269.395 100.245 266.085 96.9351 263.105 94.2851C250.135 82.7551 227.325 76.7251 225.335 77.7251C223.345 78.7151 219.045 81.705 219.045 81.705C219.045 81.705 214.075 78.3951 211.425 77.7251C208.775 77.0651 198.175 76.3951 195.195 78.0551C192.215 79.7151 177.965 89.645 177.965 89.645C171.675 89.315 150.135 88.9851 147.815 89.9751C145.495 90.9651 139.865 95.935 139.865 95.935C135.885 94.945 118.995 89.975 117.335 90.635C115.675 91.295 106.735 99.575 106.735 99.575C106.735 99.575 102.755 98.9151 97.795 97.9151C92.835 96.9151 91.165 103.545 90.175 106.855C89.185 110.165 76.595 146.605 77.255 149.925C77.915 153.235 84.545 177.425 84.545 177.425L80.235 187.695C77.255 194.325 73.275 200.945 75.265 206.905C76.455 210.485 83.215 230.095 83.215 230.095C83.215 230.095 75.265 254.945 72.945 260.905C70.625 266.865 69.965 270.845 73.605 273.825C74.885 274.875 84.205 282.435 84.205 282.435C84.205 282.435 83.215 289.395 82.875 293.365C82.535 297.335 81.545 299.655 92.155 302.645C97.295 304.095 113.025 304.965 113.025 304.965C115.345 307.285 122.305 319.215 125.285 320.205C128.265 321.195 139.195 325.175 139.195 325.175C139.195 325.175 141.845 329.485 145.485 335.445C149.125 341.405 152.445 341.735 158.735 340.085C165.025 338.425 171.325 335.445 171.325 335.445C175.305 338.755 178.945 342.405 182.585 340.415C186.225 338.425 200.805 330.805 200.805 330.805C214.055 332.135 216.705 331.465 219.025 329.145C221.345 326.825 225.985 317.215 225.985 317.215C237.245 315.555 242.545 315.555 245.865 313.235C249.185 310.915 264.415 295.675 264.415 295.675C280.315 292.365 281.645 290.705 282.965 288.385C284.285 286.065 290.915 271.485 290.915 271.485C290.915 271.485 301.185 266.515 306.155 263.205C311.125 259.895 310.465 256.915 309.465 252.605L309.485 252.635ZM283.315 245.675C282.655 246.665 281.655 251.305 281.985 265.555C281.985 265.555 272.375 271.515 270.725 272.845C269.065 274.175 266.085 277.815 257.475 288.085C257.475 288.085 243.225 290.075 240.575 290.735C237.925 291.395 236.265 292.725 223.675 304.985C223.675 304.985 218.705 305.315 216.385 305.645C214.065 305.975 210.425 308.625 198.495 316.905C198.495 316.905 190.875 313.925 188.555 313.595C186.235 313.265 183.585 316.245 172.985 323.205C172.985 323.205 165.695 316.915 164.375 316.575C163.055 316.235 145.165 314.255 145.165 314.255C145.165 314.255 140.855 302.995 139.865 301.005C138.875 299.015 135.555 297.365 132.575 296.365C129.595 295.375 117.335 292.725 117.335 292.725C117.335 292.725 111.375 284.445 109.385 282.455C107.395 280.465 99.775 278.475 99.775 278.475C99.775 278.475 100.765 266.545 100.765 264.565C100.765 262.585 95.465 229.445 95.465 229.445C95.465 229.445 102.095 219.175 103.085 217.185C104.075 215.195 104.745 212.875 102.755 205.595C100.765 198.305 96.125 181.415 96.125 181.415C96.125 181.415 103.745 162.205 105.065 159.555C106.385 156.905 106.395 151.935 106.395 144.315C106.395 136.695 107.055 109.865 107.055 109.865C107.055 109.865 121.965 114.175 123.955 114.835C125.945 115.495 129.915 115.495 140.515 107.875C140.515 107.875 154.425 111.855 156.745 112.515C159.065 113.175 161.385 112.845 166.355 110.525C171.325 108.205 186.235 99.9251 186.235 99.9251C186.235 99.9251 198.165 102.245 201.145 102.245C204.125 102.245 206.775 100.585 209.425 99.265C212.075 97.935 221.015 93.3051 221.015 93.3051C221.015 93.3051 239.895 102.585 244.205 106.555C248.515 110.535 262.095 124.775 262.095 124.775C262.095 124.775 264.745 136.705 265.075 138.355C265.405 140.015 266.735 142.665 272.365 150.615C272.365 150.615 272.695 165.855 272.695 167.845C272.695 169.835 275.675 173.475 286.275 190.045C286.275 190.045 287.265 211.905 287.605 215.225C287.935 218.535 291.585 226.815 291.585 226.815C291.585 226.815 283.965 244.705 283.305 245.695L283.315 245.675Z" stroke="black" stroke-width="3" stroke-linecap="round" stroke-linejoin="round"/>
<path d="M162.805 94.2751C160.575 94.0751 172.615 94.2951 177.715 94.2851C182.815 94.2751 173.805 95.2751 162.805 94.2751Z" fill="#562E09"/>
<path d="M153.805 95.2751C154.805 96.2751 158.575 98.8051 158.185 96.5351C157.795 94.2651 153.805 95.2751 153.805 95.2751Z" fill="#562E09"/>
<path d="M125.805 97.275C125.805 98.275 127.255 102.815 128.535 101.045C129.815 99.275 130.785 97.295 130.785 97.295H125.805V97.275Z" fill="#562E09"/>
<path d="M116.805 108.275C118.805 109.275 120.805 113.275 121.805 111.275C122.805 109.275 116.805 108.275 116.805 108.275Z" fill="#562E09"/>
<path d="M296.345 232.065C295.975 234.295 299.805 229.275 299.805 227.275C299.805 225.275 296.875 228.845 296.345 232.065Z" fill="#562E09"/>
<path d="M81.805 204.275C80.565 206.135 83.805 211.275 83.805 209.275C83.805 207.275 83.805 201.275 81.805 204.275Z" fill="#562E09"/>
<path d="M97.8049 209.275C98.8049 211.275 95.8049 193.275 93.8049 198.275L97.8049 209.275Z" fill="#562E09"/>
<path d="M116.805 301.275C114.565 301.275 119.485 307.265 119.145 305.265C118.805 303.265 120.805 301.275 116.805 301.275Z" fill="#562E09"/>
<path d="M94.8049 259.275C93.2249 260.855 93.8049 265.275 94.8049 263.275C95.8049 261.275 96.8049 257.275 94.8049 259.275Z" fill="#562E09"/>
<path d="M196.105 324.035C197.745 326.195 204.175 325.795 203.985 324.035C203.795 322.275 194.405 321.795 196.105 324.035Z" fill="#562E09"/>
<path d="M239.805 86.275C238.015 87.165 242.805 91.275 242.805 89.275C242.805 87.275 241.805 85.275 239.805 86.275Z" fill="#562E09"/>
<path d="M113.035 301.665C113.035 301.665 107.735 313.925 106.745 314.585C105.755 315.245 90.8448 315.915 89.1848 316.575C87.5248 317.235 87.8548 333.805 87.8548 333.805L93.8148 320.225C93.8148 320.225 106.735 321.215 108.395 321.215C110.055 321.215 119.655 308.625 119.655 308.625L113.025 301.665H113.035Z" stroke="black" stroke-width="3" stroke-linecap="round" stroke-linejoin="round"/>
</svg>
