<svg width="400" height="400" viewBox="0 0 400 400" fill="none" xmlns="http://www.w3.org/2000/svg">
<g filter="url(#filter0_d_6399_9352)">
<path d="M333.846 302.406C340.607 289.705 339.303 275.796 330.933 271.341C322.563 266.885 310.297 273.57 303.536 286.272C296.774 298.974 298.079 312.882 306.449 317.338C314.819 321.793 327.085 315.108 333.846 302.406Z" fill="#334959" stroke="black" stroke-width="8" stroke-linecap="round" stroke-linejoin="round"/>
<path d="M333.846 302.406C340.607 289.705 339.303 275.796 330.933 271.341C322.563 266.885 310.297 273.57 303.536 286.272C296.774 298.974 298.079 312.882 306.449 317.338C314.819 321.793 327.085 315.108 333.846 302.406Z" fill="#D28F00"/>
<path d="M326.447 278.489L176.39 187.388L155.543 218.842L308.618 310.312C308.618 310.312 313.686 308.181 321.07 296.895C327.258 287.443 326.448 278.484 326.448 278.484L326.447 278.489Z" fill="#334959" stroke="black" stroke-width="8" stroke-linecap="round" stroke-linejoin="round"/>
<path d="M326.447 278.489L176.39 187.388L155.544 218.842L308.618 310.312C308.618 310.312 313.686 308.181 321.07 296.895C327.258 287.443 326.448 278.484 326.448 278.484L326.447 278.489Z" fill="#D28F00"/>
<path d="M302.192 263.097L286.74 298.687L295.501 304.032L308.632 267.75L302.192 263.097Z" fill="#E5CB9C" stroke="black" stroke-width="1.58" stroke-linecap="round" stroke-linejoin="round"/>
<path d="M290.776 300.84L313.91 271.517L321.643 276.431L298.508 305.755L290.776 300.84Z" fill="#E5CB9C" stroke="black" stroke-width="1.58" stroke-linecap="round" stroke-linejoin="round"/>
<path d="M305.996 310.201L324.629 277.973L317.562 273.202L300.101 306.71L305.996 310.201Z" fill="#E5CB9C" stroke="black" stroke-width="1.58" stroke-linecap="round" stroke-linejoin="round"/>
<path d="M202.572 236.548L224.315 215.265L227.315 216.765L231.573 222.496L202.684 247.087L197.315 243.765L202.572 236.548Z" fill="#E5CB9C" stroke="black" stroke-width="1.58" stroke-linecap="round" stroke-linejoin="round"/>
<path d="M209.916 251.054L226.609 218.193L234.267 222.953L219.536 256.573L214.969 253.949L209.916 251.054Z" fill="#E5CB9C" stroke="black" stroke-width="1.58" stroke-linecap="round" stroke-linejoin="round"/>
<path d="M275.443 290.552L292.137 257.691L299.788 262.455L285.063 296.071L280.495 293.453L275.443 290.552Z" fill="#E5CB9C" stroke="black" stroke-width="1.58" stroke-linecap="round" stroke-linejoin="round"/>
<path d="M238.334 225.476L214.969 253.949L223.099 258.855L245.895 230.133L241.173 227.227L238.334 225.476Z" fill="#E5CB9C" stroke="black" stroke-width="1.58" stroke-linecap="round" stroke-linejoin="round"/>
<path d="M226.276 260.841L241.168 227.226L248.503 231.479L237.76 257.119C237.76 257.119 235.432 259.78 234.013 261.28C232.593 262.785 230.669 263.301 230.669 263.301L226.277 260.835L226.276 260.841Z" fill="#E5CB9C" stroke="black" stroke-width="1.58" stroke-linecap="round" stroke-linejoin="round"/>
<path d="M229.752 262.977L252.355 234.076L260.012 238.836L239.377 268.496L234.805 265.872L229.752 262.977Z" fill="#E5CB9C" stroke="black" stroke-width="1.58" stroke-linecap="round" stroke-linejoin="round"/>
<path d="M241.334 270.113L256.226 236.498L263.561 240.752L252.818 266.391C252.818 266.391 250.489 269.053 249.07 270.552C247.651 272.058 245.727 272.574 245.727 272.574L241.335 270.108L241.334 270.113Z" fill="#E5CB9C" stroke="black" stroke-width="1.58" stroke-linecap="round" stroke-linejoin="round"/>
<path d="M219.314 212.765L201.288 235.118L215.43 211.582L219.314 212.765Z" fill="#E5CB9C" stroke="black" stroke-width="1.58" stroke-linecap="round" stroke-linejoin="round"/>
<path d="M268.53 243.596L245.164 272.069L251.584 276.63L274.38 247.908L271.369 245.347L268.53 243.596Z" fill="#E5CB9C" stroke="black" stroke-width="1.58" stroke-linecap="round" stroke-linejoin="round"/>
<path d="M270.641 242.923L255.184 278.511L263.946 283.857L277.081 247.576L270.641 242.923Z" fill="#E5CB9C" stroke="black" stroke-width="1.58" stroke-linecap="round" stroke-linejoin="round"/>
<path d="M266.953 285.58L259.226 280.666L282.361 251.343L290.088 256.256" fill="#E5CB9C"/>
<path d="M266.953 285.58L259.226 280.666L282.361 251.343L290.088 256.256" stroke="black" stroke-width="1.58" stroke-linecap="round" stroke-linejoin="round"/>
<path d="M290.087 256.256L266.952 285.579" stroke="black" stroke-width="1.58" stroke-linecap="round" stroke-linejoin="round"/>
<path d="M274.063 289.95L291.898 258.123L285.281 253.495L268.544 286.571L274.063 289.95Z" fill="#E5CB9C" stroke="black" stroke-width="1.58" stroke-linecap="round" stroke-linejoin="round"/>
<path d="M235.109 150.252L175.29 103.349C172.938 101.697 170.229 101.072 167.593 101.356L125.996 90.6413C123.546 90.0073 120.972 91.062 119.675 93.2284L41.5022 214.341C40.098 216.681 40.5511 219.692 42.5824 221.519L74.5488 250.255C75.2388 250.875 76.0364 251.292 76.8676 251.516C77.9886 253.539 79.6425 255.246 81.7844 256.359L151.599 286.586C157.051 289.416 163.731 287.37 167.19 281.817L238.281 168.311C242.064 162.232 240.646 154.154 235.114 150.258L235.109 150.252Z" fill="#547387" stroke="black" stroke-width="8" stroke-linecap="round" stroke-linejoin="round"/>
<path d="M235.109 150.252L175.289 103.349C169.747 99.4459 162.178 101.223 158.387 107.312L77.3071 237.495C73.1788 244.124 75.2777 252.976 81.7851 256.354L151.6 286.581C157.051 289.411 163.732 287.365 167.191 281.812L238.281 168.306C242.064 162.226 240.647 154.149 235.114 150.253L235.109 150.252Z" fill="#D28F00"/>
<path d="M205.815 221.765L191.315 116.265L210.315 130.765L220.815 197.765L205.815 221.765Z" fill="#FFCA1B"/>
<path d="M211.426 163.038L185.737 143.299C181.989 140.662 176.874 141.862 174.308 145.977L119.474 234.013C116.683 238.495 118.099 244.48 122.499 246.768L151.822 260.777C155.51 262.694 160.025 261.311 162.363 257.552L213.562 175.246C216.122 171.135 215.164 165.673 211.421 163.037L211.426 163.038Z" fill="#773D04"/>
<path d="M204.591 165.795L181.908 148.365C178.6 146.034 174.082 147.098 171.814 150.732L123.401 228.465C120.933 232.426 122.189 237.709 126.074 239.726L151.966 252.094C155.22 253.783 159.211 252.562 161.276 249.245L206.48 176.569C208.737 172.938 207.896 168.114 204.592 165.79L204.591 165.795Z" fill="#FFCA1B"/>
<path d="M73.1805 250.255L41.2141 221.519C39.1828 219.692 38.7286 216.687 40.1339 214.341L118.307 93.2283C119.61 91.0577 122.184 90.003 124.628 90.6412L166.353 101.387C170.098 102.355 171.807 106.69 169.742 109.957L81.8158 249.062C79.9298 252.047 75.8075 252.616 73.1805 250.255Z" fill="#FFDD55"/>
<path d="M105.807 211.263L42.3064 222.764C42.3064 222.764 38.3097 219.765 39.3095 215.765C40.3092 211.764 44.3074 208.264 44.3074 208.264L116.307 193.764L105.807 211.263Z" fill="#FFCA1B"/>
<path d="M111.315 269.765L103.815 214.265L113.815 197.765L124.315 274.765L111.315 269.765Z" fill="#FFCA1B"/>
<path d="M92.3149 260.765L89.3149 237.265L93.8149 229.765L97.8149 262.765L92.3149 260.765Z" fill="#FFCA1B"/>
<path d="M118.788 191.259L47.3096 203.265L51.3096 197.265L57.3096 187.765L129.288 173.76L118.788 191.259Z" fill="#FFCA1B"/>
<path d="M156.935 130.964L86.3096 142.764L90.2618 136.867L96.1902 127.53L167.31 113.764L156.935 130.964Z" fill="#D28F00"/>
<path d="M170.935 108.942L100.31 120.743L104.262 114.845L115.31 97.7427L135.815 93.2651L166.815 101.265C166.815 101.265 169.815 103.265 170.315 104.265C170.815 105.265 170.935 108.942 170.935 108.942Z" fill="#D28F00"/>
<path d="M80.456 223.105L62.8292 208.279C60.9113 206.665 60.461 203.889 61.779 201.755L116.554 112.932C117.723 111.036 119.988 110.131 122.14 110.693L144.754 116.623C148.035 117.486 149.556 121.264 147.784 124.155L88.0216 221.874C86.4055 224.517 82.8165 225.099 80.4507 223.104L80.456 223.105Z" fill="#773D04"/>
<path d="M98.1404 251.588C101.33 252.232 104.491 249.908 105.199 246.398C105.907 242.888 103.895 239.521 100.705 238.878C97.5148 238.234 94.3546 240.558 93.6465 244.068C92.9384 247.578 94.9503 250.945 98.1404 251.588Z" fill="#773D04"/>
<path d="M86.0795 216.811L70.586 203.778C68.8963 202.359 68.5077 199.915 69.6622 198.038L117.818 119.946C118.845 118.284 120.838 117.48 122.73 117.979L142.608 123.195C145.492 123.95 146.831 127.273 145.274 129.817L92.7339 215.725C91.3168 218.046 88.1603 218.559 86.0795 216.811Z" fill="#FFDD55"/>
<path d="M100.373 252.725C103.563 253.369 106.723 251.045 107.431 247.535C108.139 244.025 106.127 240.658 102.937 240.014C99.7472 239.371 96.5871 241.694 95.8789 245.204C95.1708 248.714 97.1827 252.082 100.373 252.725Z" fill="#FFDD55"/>
<path d="M119.043 214.045C122.233 214.689 125.393 212.365 126.102 208.855C126.81 205.345 124.798 201.978 121.608 201.334C118.418 200.691 115.257 203.014 114.549 206.524C113.841 210.034 115.853 213.401 119.043 214.045Z" fill="#773D04"/>
<path d="M168.315 280.765L162.315 256.265L186.815 218.765L192.315 242.265L168.315 280.765Z" fill="#FFCA1B"/>
<path d="M192.219 225.7C195.41 226.343 198.57 224.02 199.278 220.51C199.986 217 197.974 213.633 194.784 212.989C191.594 212.345 188.434 214.669 187.726 218.179C187.017 221.689 189.029 225.056 192.219 225.7Z" fill="#773D04"/>
<path d="M174.96 253.981C178.15 254.625 181.31 252.301 182.018 248.792C182.726 245.282 180.714 241.914 177.524 241.271C174.334 240.627 171.174 242.951 170.466 246.461C169.758 249.971 171.77 253.338 174.96 253.981Z" fill="#773D04"/>
<path d="M136.315 207.765L128.815 173.765L153.315 136.265L160.315 169.265L136.315 207.765Z" fill="#FFCA1B"/>
<path d="M155.444 280.256C158.634 280.9 161.794 278.576 162.502 275.066C163.21 271.556 161.198 268.189 158.008 267.546C154.818 266.902 151.658 269.226 150.95 272.736C150.242 276.246 152.254 279.613 155.444 280.256Z" fill="#773D04"/>
<path d="M128.348 269.236C131.538 269.88 134.698 267.556 135.406 264.046C136.114 260.536 134.102 257.169 130.912 256.526C127.722 255.882 124.562 258.206 123.854 261.716C123.146 265.226 125.158 268.593 128.348 269.236Z" fill="#773D04"/>
<path d="M120.901 215.491C124.091 216.135 127.251 213.811 127.959 210.301C128.667 206.791 126.655 203.424 123.465 202.781C120.275 202.137 117.115 204.461 116.407 207.971C115.699 211.48 117.711 214.848 120.901 215.491Z" fill="#FFDD55"/>
<path d="M139.281 183.59C142.471 184.234 145.631 181.91 146.339 178.4C147.047 174.89 145.035 171.523 141.845 170.879C138.655 170.236 135.495 172.559 134.787 176.069C134.079 179.579 136.091 182.946 139.281 183.59Z" fill="#773D04"/>
<path d="M211.556 195.286C214.746 195.93 217.906 193.606 218.614 190.096C219.322 186.586 217.31 183.219 214.12 182.576C210.93 181.932 207.77 184.256 207.062 187.765C206.354 191.275 208.366 194.643 211.556 195.286Z" fill="#773D04"/>
<path d="M176.267 129.076C179.457 129.719 182.617 127.396 183.325 123.886C184.033 120.376 182.021 117.009 178.831 116.365C175.641 115.721 172.481 118.045 171.773 121.555C171.065 125.065 173.077 128.432 176.267 129.076Z" fill="#773D04"/>
<path d="M156.971 153.174C160.161 153.817 163.322 151.494 164.03 147.984C164.738 144.474 162.726 141.107 159.536 140.463C156.346 139.82 153.186 142.143 152.478 145.653C151.769 149.163 153.781 152.53 156.971 153.174Z" fill="#773D04"/>
<path d="M140.986 185.045C144.176 185.688 147.336 183.365 148.044 179.855C148.752 176.345 146.74 172.978 143.55 172.334C140.36 171.69 137.2 174.014 136.492 177.524C135.784 181.034 137.796 184.401 140.986 185.045Z" fill="#FFDD55"/>
<path d="M158.857 154.782C162.047 155.426 165.207 153.102 165.915 149.592C166.623 146.082 164.611 142.715 161.421 142.071C158.231 141.428 155.071 143.751 154.363 147.261C153.655 150.771 155.667 154.138 158.857 154.782Z" fill="#FFDD55"/>
<path d="M201.233 146.224C204.423 146.868 207.583 144.544 208.291 141.034C208.999 137.524 206.987 134.157 203.797 133.514C200.607 132.87 197.447 135.194 196.739 138.704C196.031 142.214 198.043 145.581 201.233 146.224Z" fill="#773D04"/>
<path d="M225.279 167.96C228.469 168.603 231.629 166.28 232.337 162.77C233.045 159.26 231.034 155.893 227.843 155.249C224.653 154.605 221.493 156.929 220.785 160.439C220.077 163.949 222.089 167.316 225.279 167.96Z" fill="#773D04"/>
<path d="M177.973 130.162C181.163 130.806 184.323 128.482 185.031 124.972C185.739 121.462 183.727 118.095 180.537 117.452C177.347 116.808 174.187 119.132 173.479 122.642C172.771 126.152 174.783 129.519 177.973 130.162Z" fill="#FFDD55"/>
<path d="M157.505 281.024C160.437 281.615 163.342 279.48 163.992 276.254C164.643 273.029 162.794 269.934 159.861 269.343C156.929 268.751 154.024 270.886 153.373 274.112C152.723 277.338 154.572 280.432 157.505 281.024Z" fill="#FFDD55"/>
<path d="M177.122 254.691C180.055 255.283 182.959 253.147 183.61 249.922C184.261 246.696 182.411 243.602 179.479 243.01C176.547 242.419 173.642 244.554 172.991 247.779C172.34 251.005 174.19 254.099 177.122 254.691Z" fill="#FFDD55"/>
<path d="M193.66 226.42C196.592 227.012 199.497 224.876 200.148 221.651C200.798 218.425 198.949 215.331 196.017 214.739C193.084 214.148 190.179 216.283 189.529 219.508C188.878 222.734 190.728 225.828 193.66 226.42Z" fill="#FFDD55"/>
<path d="M213.095 195.597C216.027 196.188 218.932 194.053 219.583 190.828C220.234 187.602 218.384 184.508 215.452 183.916C212.519 183.324 209.615 185.46 208.964 188.685C208.313 191.911 210.163 195.005 213.095 195.597Z" fill="#FFDD55"/>
<path d="M227.017 168.835C229.949 169.427 232.854 167.291 233.505 164.066C234.155 160.84 232.306 157.746 229.373 157.154C226.441 156.563 223.536 158.698 222.886 161.923C222.235 165.149 224.084 168.244 227.017 168.835Z" fill="#FFDD55"/>
<path d="M203.654 147.478C206.844 148.121 210.004 145.798 210.712 142.288C211.42 138.778 209.408 135.411 206.218 134.767C203.028 134.123 199.868 136.447 199.16 139.957C198.452 143.467 200.464 146.834 203.654 147.478Z" fill="#FFDD55"/>
<path d="M130.828 270.278C134.018 270.921 137.178 268.598 137.886 265.088C138.594 261.578 136.582 258.211 133.392 257.567C130.202 256.924 127.042 259.247 126.334 262.757C125.626 266.267 127.638 269.634 130.828 270.278Z" fill="#FFDD55"/>
<path d="M179.814 119.765L178.814 128.265" stroke="#D28F00" stroke-width="6.33" stroke-linecap="round" stroke-linejoin="round"/>
<path d="M162.816 145.765L158.315 151.765" stroke="#D28F00" stroke-width="6.33" stroke-linecap="round" stroke-linejoin="round"/>
<path d="M142.814 174.765L141.314 182.265" stroke="#FFCA1B" stroke-width="6.33" stroke-linecap="round" stroke-linejoin="round"/>
<path d="M119.815 211.765L124.815 206.765" stroke="#D28F00" stroke-width="6.33" stroke-linecap="round" stroke-linejoin="round"/>
<path d="M97.3145 242.765L104.314 249.265" stroke="#D28F00" stroke-width="6.33" stroke-linecap="round" stroke-linejoin="round"/>
<path d="M127.315 266.265L131.97 264.977L136.315 263.765" stroke="#D28F00" stroke-width="6.33" stroke-linecap="round" stroke-linejoin="round"/>
<path d="M157.815 278.265L159.315 271.765" stroke="#D28F00" stroke-width="6.33" stroke-linecap="round" stroke-linejoin="round"/>
<path d="M175.315 251.765L180.815 246.765" stroke="#FFCA1B" stroke-width="6.33" stroke-linecap="round" stroke-linejoin="round"/>
<path d="M194.315 216.265L194.315 223.765" stroke="#D28F00" stroke-width="6.33" stroke-linecap="round" stroke-linejoin="round"/>
<path d="M209.815 190.265L217.315 189.265" stroke="#FFCA1B" stroke-width="6.33" stroke-linecap="round" stroke-linejoin="round"/>
<path d="M229.815 159.765L226.815 165.765" stroke="#D28F00" stroke-width="6.33" stroke-linecap="round" stroke-linejoin="round"/>
<path d="M202.315 142.199L208.815 139.765" stroke="#FFCA1B" stroke-width="6.33" stroke-linecap="round" stroke-linejoin="round"/>
<path d="M114.815 179.265L76.8149 186.765C75.1483 189.598 69.715 197.965 69.315 198.765C68.915 199.565 69.3149 201.265 69.3149 201.765L105.315 195.265L114.815 179.265Z" fill="#FFCA1B"/>
<path d="M102.315 199.765L72.8149 205.765L85.3149 216.265L92.8149 214.765L102.315 199.765Z" fill="#FFCA1B"/>
<path d="M143.815 124.265L111.815 129.765L104.315 141.765L141.815 135.765C142.815 134.098 144.915 130.565 145.315 129.765C145.815 128.765 145.815 127.765 145.815 126.265C145.815 125.065 144.482 124.432 143.815 124.265Z" fill="#D28F00"/>
<path d="M132.815 213.765L157.815 174.765L172.315 231.765L161.315 248.765C160.648 249.765 158.915 251.965 157.315 252.765C155.715 253.565 153.315 253.098 152.315 252.765L142.315 247.265L132.815 213.765Z" fill="#FFDD55"/>
<path d="M176.315 225.265L163.315 164.765C165.315 160.932 169.715 153.665 171.315 151.265C172.915 148.865 174.982 147.598 175.815 147.765L187.815 207.265L176.315 225.265Z" fill="#FFDD55"/>
</g>
<defs>
<filter id="filter0_d_6399_9352" x="-4" y="0" width="408" height="408" filterUnits="userSpaceOnUse" color-interpolation-filters="sRGB">
<feFlood flood-opacity="0" result="BackgroundImageFix"/>
<feColorMatrix in="SourceAlpha" type="matrix" values="0 0 0 0 0 0 0 0 0 0 0 0 0 0 0 0 0 0 127 0" result="hardAlpha"/>
<feOffset dy="4"/>
<feGaussianBlur stdDeviation="2"/>
<feComposite in2="hardAlpha" operator="out"/>
<feColorMatrix type="matrix" values="0 0 0 0 0 0 0 0 0 0 0 0 0 0 0 0 0 0 0.25 0"/>
<feBlend mode="normal" in2="BackgroundImageFix" result="effect1_dropShadow_6399_9352"/>
<feBlend mode="normal" in="SourceGraphic" in2="effect1_dropShadow_6399_9352" result="shape"/>
</filter>
</defs>
</svg>
