<svg width="400" height="400" viewBox="0 0 400 400" fill="none" xmlns="http://www.w3.org/2000/svg">
<g filter="url(#filter0_d_5624_8755)">
<path d="M332.169 298.851C338.93 286.149 337.626 272.241 329.256 267.786C320.886 263.33 308.62 270.015 301.858 282.717C295.097 295.419 296.401 309.327 304.771 313.783C313.141 318.238 325.408 311.553 332.169 298.851Z" fill="#334959" stroke="black" stroke-width="8" stroke-linecap="round" stroke-linejoin="round"/>
<path d="M332.169 298.851C338.93 286.149 337.626 272.241 329.256 267.786C320.886 263.33 308.62 270.015 301.858 282.717C295.097 295.419 296.401 309.327 304.771 313.783C313.141 318.238 325.408 311.553 332.169 298.851Z" fill="#334959"/>
<path d="M324.759 274.932L174.702 183.83L153.855 215.284L306.93 306.754C306.93 306.754 311.998 304.623 319.382 293.337C325.57 283.886 324.76 274.926 324.76 274.926L324.759 274.932Z" fill="#334959" stroke="black" stroke-width="8" stroke-linecap="round" stroke-linejoin="round"/>
<path d="M324.759 274.932L174.702 183.83L153.855 215.284L306.93 306.754C306.93 306.754 311.998 304.623 319.382 293.337C325.57 283.886 324.76 274.926 324.76 274.926L324.759 274.932Z" fill="#334959"/>
<path d="M300.515 259.542L285.062 295.131L293.824 300.477L306.954 264.195L300.515 259.542Z" fill="#3BAEF4" stroke="black" stroke-width="1.58" stroke-linecap="round" stroke-linejoin="round"/>
<path d="M289.098 297.285L312.233 267.962L319.966 272.876L296.831 302.199L289.098 297.285Z" fill="#3BAEF4" stroke="black" stroke-width="1.58" stroke-linecap="round" stroke-linejoin="round"/>
<path d="M303.942 306.57L321.772 274.742L315.154 270.114L298.417 303.189L303.942 306.57Z" fill="#3BAEF4" stroke="black" stroke-width="1.58" stroke-linecap="round" stroke-linejoin="round"/>
<path d="M201.504 232.047L222.129 212.951L224.921 214.636L230.505 217.995L201.616 242.586L196.247 239.264L201.504 232.047Z" fill="#3BAEF4" stroke="black" stroke-width="1.58" stroke-linecap="round" stroke-linejoin="round"/>
<path d="M208.228 247.497L224.921 214.636L232.579 219.396L217.848 253.016L213.281 250.392L208.228 247.497Z" fill="#3BAEF4" stroke="black" stroke-width="1.58" stroke-linecap="round" stroke-linejoin="round"/>
<path d="M273.755 286.995L290.449 254.134L298.1 258.898L283.375 292.514L278.807 289.895L273.755 286.995Z" fill="#3BAEF4" stroke="black" stroke-width="1.58" stroke-linecap="round" stroke-linejoin="round"/>
<path d="M236.646 221.918L213.281 250.392L221.411 255.297L244.207 226.575L239.485 223.669L236.646 221.918Z" fill="#3BAEF4" stroke="black" stroke-width="1.58" stroke-linecap="round" stroke-linejoin="round"/>
<path d="M224.588 257.283L239.48 223.668L246.815 227.922L236.072 253.561C236.072 253.561 233.744 256.222 232.325 257.722C230.905 259.227 228.981 259.743 228.981 259.743L224.589 257.278L224.588 257.283Z" fill="#3BAEF4" stroke="black" stroke-width="1.58" stroke-linecap="round" stroke-linejoin="round"/>
<path d="M228.064 259.419L250.667 230.519L258.325 235.278L237.689 264.939L233.117 262.314L228.064 259.419Z" fill="#3BAEF4" stroke="black" stroke-width="1.58" stroke-linecap="round" stroke-linejoin="round"/>
<path d="M239.646 266.556L254.538 232.94L261.873 237.194L251.13 262.834C251.13 262.834 248.801 265.495 247.382 266.995C245.963 268.5 244.039 269.016 244.039 269.016L239.647 266.55L239.646 266.556Z" fill="#3BAEF4" stroke="black" stroke-width="1.58" stroke-linecap="round" stroke-linejoin="round"/>
<path d="M217.491 211.569L200.473 232.733L214.615 209.197L217.491 211.569Z" fill="#3BAEF4" stroke="black" stroke-width="1.58" stroke-linecap="round" stroke-linejoin="round"/>
<path d="M266.842 240.039L243.476 268.512L249.896 273.072L272.692 244.35L269.681 241.789L266.842 240.039Z" fill="#3BAEF4" stroke="black" stroke-width="1.58" stroke-linecap="round" stroke-linejoin="round"/>
<path d="M268.954 239.365L253.496 274.954L262.258 280.299L275.393 244.019L268.954 239.365Z" fill="#3BAEF4" stroke="black" stroke-width="1.58" stroke-linecap="round" stroke-linejoin="round"/>
<path d="M265.265 282.023L257.538 277.109L280.673 247.786L288.4 252.699" fill="#3BAEF4"/>
<path d="M265.265 282.023L257.538 277.109L280.673 247.786L288.4 252.699" stroke="black" stroke-width="1.58" stroke-linecap="round" stroke-linejoin="round"/>
<path d="M288.4 252.699L265.265 282.022" stroke="black" stroke-width="1.58" stroke-linecap="round" stroke-linejoin="round"/>
<path d="M272.375 286.393L290.21 254.566L283.592 249.938L266.856 283.013L272.375 286.393Z" fill="#3BAEF4" stroke="black" stroke-width="1.58" stroke-linecap="round" stroke-linejoin="round"/>
<path d="M233.421 146.695L173.601 99.7919C171.25 98.1398 168.541 97.515 165.905 97.7982L124.308 87.0839C121.857 86.45 119.284 87.5047 117.987 89.671L39.8137 210.784C38.4095 213.124 38.8626 216.135 40.8939 217.962L72.8603 246.698C73.5503 247.317 74.3479 247.735 75.1791 247.958C76.3002 249.982 77.954 251.689 80.0959 252.802L149.911 283.029C155.362 285.859 162.043 283.813 165.502 278.26L236.592 164.754C240.375 158.674 238.957 150.597 233.425 146.701L233.421 146.695Z" fill="#547387" stroke="black" stroke-width="8" stroke-linecap="round" stroke-linejoin="round"/>
<path d="M233.42 146.694L173.601 99.7915C168.059 95.8883 160.489 97.6652 156.699 103.755L75.6186 233.937C71.4903 240.566 73.5892 249.418 80.0966 252.796L149.911 283.023C155.363 285.853 162.043 283.807 165.502 278.254L236.593 164.748C240.376 158.669 238.958 150.591 233.426 146.695L233.42 146.694Z" fill="#334959"/>
<path d="M209.737 159.481L184.049 139.742C180.3 137.104 175.185 138.305 172.619 142.42L117.786 230.456C114.995 234.938 116.411 240.922 120.81 243.211L150.133 257.22C153.821 259.136 158.336 257.753 160.674 253.994L211.874 171.689C214.433 167.578 213.476 162.116 209.732 159.48L209.737 159.481Z" fill="#1A262D"/>
<path d="M202.902 162.238L180.22 144.807C176.911 142.477 172.393 143.541 170.125 147.174L121.713 224.907C119.245 228.869 120.501 234.151 124.386 236.169L150.278 248.537C153.531 250.226 157.523 249.005 159.588 245.687L204.792 173.012C207.048 169.381 206.207 164.557 202.903 162.232L202.902 162.238Z" fill="#3C5868"/>
<path d="M71.492 246.698L39.5256 217.962C37.4943 216.134 37.0401 213.129 38.4454 210.784L116.619 89.6709C117.922 87.5003 120.495 86.4456 122.94 87.0839L164.664 97.8294C168.409 98.7971 170.119 103.133 168.053 106.4L80.1273 245.504C78.2413 248.489 74.119 249.059 71.492 246.698Z" fill="#547387"/>
<path d="M78.7676 219.547L61.1408 204.722C59.2228 203.107 58.7726 200.332 60.0906 198.198L114.865 109.374C116.035 107.478 118.299 106.573 120.452 107.136L143.066 113.066C146.347 113.929 147.867 117.707 146.095 120.598L86.3331 218.316C84.717 220.96 81.128 221.542 78.7622 219.546L78.7676 219.547Z" fill="#1A262D"/>
<path d="M96.4519 248.031C99.642 248.674 102.802 246.351 103.51 242.841C104.218 239.331 102.206 235.964 99.0163 235.32C95.8263 234.677 92.6662 237 91.958 240.51C91.2499 244.02 93.2619 247.387 96.4519 248.031Z" fill="#23373F"/>
<path d="M82.955 213.125L67.4615 200.092C65.7718 198.674 65.3832 196.229 66.5377 194.352L114.693 116.26C115.721 114.598 117.714 113.794 119.606 114.293L139.484 119.509C142.368 120.264 143.706 123.587 142.15 126.131L89.6094 212.04C88.1923 214.36 85.0358 214.873 82.955 213.125Z" fill="#547387"/>
<path d="M98.6843 249.167C101.874 249.811 105.035 247.487 105.743 243.978C106.451 240.468 104.439 237.1 101.249 236.457C98.0587 235.813 94.8986 238.137 94.1904 241.647C93.4823 245.157 95.4943 248.524 98.6843 249.167Z" fill="#3C5868"/>
<path d="M117.355 210.487C120.545 211.131 123.705 208.807 124.413 205.297C125.121 201.787 123.109 198.42 119.919 197.777C116.729 197.133 113.569 199.457 112.861 202.967C112.153 206.477 114.165 209.844 117.355 210.487Z" fill="#23373F"/>
<path d="M190.532 222.143C193.722 222.786 196.882 220.463 197.59 216.953C198.298 213.443 196.286 210.076 193.096 209.432C189.906 208.788 186.746 211.112 186.038 214.622C185.329 218.132 187.341 221.499 190.532 222.143Z" fill="#23373F"/>
<path d="M173.271 250.424C176.462 251.068 179.622 248.744 180.33 245.234C181.038 241.724 179.026 238.357 175.836 237.714C172.646 237.07 169.486 239.394 168.778 242.904C168.069 246.414 170.081 249.781 173.271 250.424Z" fill="#23373F"/>
<path d="M153.755 276.699C156.945 277.342 160.105 275.019 160.813 271.509C161.522 267.999 159.51 264.632 156.32 263.988C153.13 263.345 149.969 265.668 149.261 269.178C148.553 272.688 150.565 276.055 153.755 276.699Z" fill="#23373F"/>
<path d="M126.659 265.679C129.849 266.322 133.01 263.999 133.718 260.489C134.426 256.979 132.414 253.612 129.224 252.968C126.034 252.324 122.874 254.648 122.166 258.158C121.457 261.668 123.469 265.035 126.659 265.679Z" fill="#23373F"/>
<path d="M119.212 211.934C122.402 212.577 125.562 210.254 126.27 206.744C126.979 203.234 124.967 199.867 121.777 199.223C118.587 198.579 115.426 200.903 114.718 204.413C114.01 207.923 116.022 211.29 119.212 211.934Z" fill="#3C5868"/>
<path d="M137.593 180.032C140.783 180.676 143.943 178.352 144.651 174.843C145.359 171.333 143.347 167.965 140.157 167.322C136.967 166.678 133.807 169.002 133.099 172.512C132.391 176.022 134.402 179.389 137.593 180.032Z" fill="#23373F"/>
<path d="M209.868 191.729C213.058 192.372 216.218 190.049 216.926 186.539C217.634 183.029 215.622 179.662 212.432 179.018C209.242 178.375 206.082 180.698 205.374 184.208C204.666 187.718 206.678 191.085 209.868 191.729Z" fill="#23373F"/>
<path d="M174.578 125.518C177.768 126.162 180.929 123.838 181.637 120.328C182.345 116.818 180.333 113.451 177.143 112.808C173.953 112.164 170.793 114.488 170.084 117.998C169.376 121.508 171.388 124.875 174.578 125.518Z" fill="#23373F"/>
<path d="M155.283 149.616C158.473 150.26 161.633 147.936 162.341 144.426C163.049 140.916 161.037 137.549 157.847 136.906C154.657 136.262 151.497 138.586 150.789 142.096C150.081 145.605 152.093 148.973 155.283 149.616Z" fill="#23373F"/>
<path d="M139.297 181.487C142.487 182.131 145.647 179.807 146.355 176.297C147.064 172.787 145.052 169.42 141.862 168.776C138.672 168.133 135.511 170.456 134.803 173.966C134.095 177.476 136.107 180.843 139.297 181.487Z" fill="#3C5868"/>
<path d="M157.168 151.225C160.358 151.868 163.518 149.545 164.227 146.035C164.935 142.525 162.923 139.158 159.733 138.514C156.543 137.87 153.382 140.194 152.674 143.704C151.966 147.214 153.978 150.581 157.168 151.225Z" fill="#3C5868"/>
<path d="M199.544 142.667C202.734 143.311 205.895 140.987 206.603 137.477C207.311 133.967 205.299 130.6 202.109 129.956C198.919 129.313 195.759 131.636 195.051 135.146C194.342 138.656 196.354 142.023 199.544 142.667Z" fill="#23373F"/>
<path d="M223.591 164.402C226.781 165.046 229.941 162.722 230.649 159.212C231.358 155.702 229.346 152.335 226.155 151.692C222.965 151.048 219.805 153.372 219.097 156.882C218.389 160.392 220.401 163.759 223.591 164.402Z" fill="#23373F"/>
<path d="M176.284 126.605C179.474 127.248 182.635 124.925 183.343 121.415C184.051 117.905 182.039 114.538 178.849 113.894C175.659 113.251 172.499 115.574 171.791 119.084C171.082 122.594 173.094 125.961 176.284 126.605Z" fill="#3C5868"/>
<path d="M155.816 277.466C158.749 278.058 161.653 275.923 162.304 272.697C162.955 269.472 161.105 266.377 158.173 265.786C155.241 265.194 152.336 267.329 151.685 270.555C151.034 273.78 152.884 276.875 155.816 277.466Z" fill="#3C5868"/>
<path d="M175.434 251.134C178.367 251.726 181.271 249.59 181.922 246.365C182.573 243.139 180.723 240.045 177.791 239.453C174.859 238.861 171.954 240.997 171.303 244.222C170.652 247.448 172.502 250.542 175.434 251.134Z" fill="#3C5868"/>
<path d="M191.972 222.862C194.904 223.454 197.809 221.319 198.459 218.093C199.11 214.868 197.261 211.773 194.328 211.182C191.396 210.59 188.491 212.725 187.84 215.951C187.19 219.176 189.039 222.271 191.972 222.862Z" fill="#3C5868"/>
<path d="M211.407 192.039C214.339 192.631 217.244 190.496 217.895 187.27C218.545 184.045 216.696 180.95 213.763 180.359C210.831 179.767 207.926 181.902 207.276 185.128C206.625 188.353 208.474 191.448 211.407 192.039Z" fill="#3C5868"/>
<path d="M225.329 165.278C228.261 165.869 231.166 163.734 231.817 160.509C232.467 157.283 230.618 154.188 227.685 153.597C224.753 153.005 221.848 155.14 221.198 158.366C220.547 161.592 222.396 164.686 225.329 165.278Z" fill="#3C5868"/>
<path d="M201.966 143.92C205.156 144.564 208.316 142.24 209.024 138.73C209.732 135.22 207.72 131.853 204.53 131.21C201.34 130.566 198.18 132.89 197.472 136.399C196.764 139.909 198.776 143.277 201.966 143.92Z" fill="#3C5868"/>
<path d="M129.139 266.72C132.329 267.364 135.49 265.04 136.198 261.53C136.906 258.02 134.894 254.653 131.704 254.01C128.514 253.366 125.354 255.69 124.646 259.2C123.937 262.709 125.949 266.077 129.139 266.72Z" fill="#3C5868"/>
<path d="M177.656 111.203L178.183 129.427" stroke="#334959" stroke-width="6.33" stroke-linecap="round" stroke-linejoin="round"/>
<path d="M164.286 138.439L153.611 150.987" stroke="#334959" stroke-width="6.33" stroke-linecap="round" stroke-linejoin="round"/>
<path d="M141.525 165.354L139.889 184.782" stroke="#334959" stroke-width="6.33" stroke-linecap="round" stroke-linejoin="round"/>
<path d="M112.774 210.233L128.036 202.283" stroke="#334959" stroke-width="6.33" stroke-linecap="round" stroke-linejoin="round"/>
<path d="M93.043 237.76L107.01 247.928" stroke="#334959" stroke-width="6.33" stroke-linecap="round" stroke-linejoin="round"/>
<path d="M121.37 263.953L139.192 258.886" stroke="#334959" stroke-width="6.33" stroke-linecap="round" stroke-linejoin="round"/>
<path d="M156.221 279.915L158.173 265.786" stroke="#334959" stroke-width="6.33" stroke-linecap="round" stroke-linejoin="round"/>
<path d="M170.903 252.681L183.396 238.92" stroke="#334959" stroke-width="6.33" stroke-linecap="round" stroke-linejoin="round"/>
<path d="M193.504 208.822L193.849 224.564" stroke="#334959" stroke-width="6.33" stroke-linecap="round" stroke-linejoin="round"/>
<path d="M205.252 187.248L219.808 185.781" stroke="#334959" stroke-width="6.33" stroke-linecap="round" stroke-linejoin="round"/>
<path d="M232.122 153.576L223.264 166.05" stroke="#334959" stroke-width="6.33" stroke-linecap="round" stroke-linejoin="round"/>
<path d="M195.883 142.916L210.722 133.938" stroke="#334959" stroke-width="6.33" stroke-linecap="round" stroke-linejoin="round"/>
</g>
<defs>
<filter id="filter0_d_5624_8755" x="-4" y="0" width="408" height="408" filterUnits="userSpaceOnUse" color-interpolation-filters="sRGB">
<feFlood flood-opacity="0" result="BackgroundImageFix"/>
<feColorMatrix in="SourceAlpha" type="matrix" values="0 0 0 0 0 0 0 0 0 0 0 0 0 0 0 0 0 0 127 0" result="hardAlpha"/>
<feOffset dy="4"/>
<feGaussianBlur stdDeviation="2"/>
<feComposite in2="hardAlpha" operator="out"/>
<feColorMatrix type="matrix" values="0 0 0 0 0 0 0 0 0 0 0 0 0 0 0 0 0 0 0.25 0"/>
<feBlend mode="normal" in2="BackgroundImageFix" result="effect1_dropShadow_5624_8755"/>
<feBlend mode="normal" in="SourceGraphic" in2="effect1_dropShadow_5624_8755" result="shape"/>
</filter>
</defs>
</svg>
