<svg width="400" height="400" viewBox="0 0 400 400" fill="none" xmlns="http://www.w3.org/2000/svg">
<path d="M94.8053 79.7222C92.6506 81.1293 94.8053 136.86 94.8053 136.86L106.317 153.086L94.0929 168.608L104.163 298.406C104.163 298.406 153.069 333.681 155.953 332.265C158.838 330.849 230.759 291.353 230.759 291.353L233.635 329.442L263.844 338.614L292.611 194.007L176.093 58.5626L153.078 93.8373L94.8141 79.731L94.8053 79.7222Z" fill="#CA8528"/>
<path d="M97.1445 77.9545L110.811 70.9014L155.408 85.7201L148.926 94.8839L97.1445 77.9545Z" fill="#FFC061"/>
<path d="M178.089 58.5011L292.602 194.552L304.888 189.099L186.057 58.6858L178.089 58.5011Z" fill="#FFC061"/>
<path d="M158.82 332.968C160.975 332.968 164.572 338.614 164.572 338.614L230.029 301.933L230.75 291.353L158.82 332.968Z" fill="#90531F"/>
<path d="M263.835 338.614L292.611 193.998L306.278 188.361L276.781 333.672L263.835 338.614Z" fill="#90531F"/>
<path d="M99.4045 199.442L99.0791 199.503C98.7713 200.576 99.343 201.315 99.7035 202.229C99.897 202.704 99.9849 203.223 100.187 203.689C100.425 204.243 100.794 204.683 101.093 205.228C101.849 206.6 102.289 208.148 103.063 209.511C103.547 210.364 104.083 211.103 104.532 211.991C104.804 212.528 104.813 212.818 104.919 213.355C105.015 213.838 105.226 214.041 105.332 214.48C105.394 214.735 105.226 215.043 105.288 215.298C105.358 215.606 105.534 215.544 105.605 215.747C105.798 216.336 105.983 216.688 106.299 217.207C107.381 218.992 108.305 221.023 109.351 222.905C109.501 223.178 109.729 223.459 109.835 223.758C110.002 224.225 109.94 224.585 110.063 225.078C110.266 225.931 111.066 226.661 111.233 227.619C111.365 228.393 111.356 229.756 111.18 230.513C111.04 231.119 110.837 231.401 110.82 232.043C110.785 232.87 110.697 233.424 110.521 234.189C109.993 236.466 108.63 238.524 108.067 240.767C107.531 242.878 106.642 244.988 106.141 247.117C106.009 247.688 106.229 248.286 106.123 248.858C105.965 249.702 105.745 249.755 105.904 250.599C106.053 251.373 105.824 251.558 105.684 252.341C105.578 252.921 105.763 253.343 105.525 253.888C105.086 254.873 104.672 255.744 104.329 256.782C103.986 257.819 103.74 258.708 103.406 259.622C103.793 259.534 103.863 259.279 104.136 258.901C104.03 258.884 101.946 260.405 101.841 260.379C101.709 259.948 101.814 259.534 101.744 259.095C101.63 258.453 101.383 258.11 101.374 257.38C101.348 255.841 101.269 254.249 101.366 252.719C101.427 251.655 101.788 250.714 101.788 249.632C101.788 248.893 101.779 248.154 101.779 247.424C101.779 246.088 101.929 244.681 101.691 243.361C101.55 242.57 101.366 241.972 101.383 241.145C101.392 240.609 101.427 240.116 101.295 239.589C101.128 238.92 100.996 238.859 100.979 238.067C100.961 237.434 101.093 236.748 101.005 236.123C100.82 234.743 100.521 233.371 100.284 231.981C100.055 230.68 100.196 229.299 100.196 227.98C100.196 226.661 100.275 225.412 100.214 224.145C100.17 223.143 99.8354 222.193 99.7827 221.182C99.7299 220.144 99.8882 219.097 99.8266 218.06C99.7651 217.022 99.4309 216.01 99.3957 214.946C99.3693 213.935 99.51 212.897 99.4309 211.886C99.3781 211.156 99.0439 210.488 99 209.758C98.9472 208.984 98.8153 207.708 99 206.97C99.2462 206.002 99.51 205.923 99.0175 204.841C98.7625 204.27 98.4283 203.76 98.1821 203.171C97.9094 202.529 97.628 201.763 97.8127 200.981C97.9974 200.198 99.598 200.356 99.4045 199.459V199.442Z" fill="#913E15"/>
<path d="M124.601 283.218L124.918 283.139C125.076 281.424 129.165 280.835 130.52 280.597C131.417 280.439 132.375 280.65 133.255 280.421C133.826 280.272 134.785 279.718 135.163 280.588C135.339 281.002 134.706 281.565 134.803 282.075C134.864 282.418 135.154 282.471 135.242 282.805C135.462 283.623 134.855 284.203 134.53 284.854C134.187 285.54 133.8 285.777 133.343 286.384C132.885 286.991 132.947 287.686 132.833 288.389C132.798 288.583 132.542 289.189 132.472 289.383C132.446 289.453 132.182 290.174 132.164 290.236C132.068 290.597 131.962 290.992 131.883 291.309C131.821 291.546 131.804 292.294 131.716 292.496C131.487 292.989 131.382 292.804 130.907 292.866C130.634 292.848 130.361 292.839 130.089 292.839C129.869 292.866 129.711 292.971 129.623 293.165C128.99 293.2 128.532 292.839 128.136 292.25C127.846 291.81 127.873 291.379 127.67 290.931C127.494 290.553 127.072 290.148 126.852 289.77C126.395 288.987 126.14 288.205 125.683 287.466C125.041 286.428 124.979 286.331 125.305 285.135C125.533 284.282 125.393 283.315 125.393 282.435" fill="#913E15"/>
<path d="M253.713 182.073C253.599 181.624 254.012 181.035 254.205 180.622C254.46 180.067 254.619 179.707 254.425 179.021C254.302 179.135 253.924 179.223 253.792 179.329C253.484 178.388 253.933 177.631 254.504 176.893C255.208 175.978 255.85 176.101 256.272 177.051C256.659 177.913 257.02 178.608 257.644 179.364C258.4 180.279 258.743 180.815 259.183 181.897C259.834 183.497 260.59 184.421 261.98 185.529C262.437 185.889 262.727 186.575 263.167 186.883C263.484 187.103 263.95 187.235 264.354 187.385C265.172 187.684 265.726 188.106 265.937 189.003C266.043 189.442 265.911 190.058 265.832 190.48C265.788 190.7 265.506 190.586 265.48 190.955C265.48 191.096 265.726 191.263 265.726 191.333C265.761 192.353 265.181 193.277 264.574 194.227C263.932 195.238 263.607 196.434 263.053 197.516C262.604 198.395 261.936 199.424 261.663 200.304C261.267 201.57 260.59 203.839 258.831 202.458C256.861 200.91 256.219 197.393 255.762 195.088C255.428 193.409 255.384 191.659 254.971 190.084C254.856 189.636 254.891 189.187 254.795 188.73C254.715 188.352 254.399 187.754 254.293 187.297C254.038 186.232 254.364 185.054 254.117 183.999C254.03 183.603 252.499 181.738 253.704 182.09L253.713 182.073Z" fill="#913E15"/>
<path d="M248.99 200.989C248.964 199.811 250.292 198.087 250.872 199.917C251.286 201.227 251.294 202.485 251.945 203.689C252.174 204.12 252.332 204.771 252.622 205.149C253.062 205.721 253.493 205.677 252.851 206.31C252.614 206.548 251.198 206.996 250.872 207.084C250.345 207.225 249.351 206.952 248.99 207.383C248.427 206.943 248.463 207.216 248.199 206.609C247.952 206.038 247.821 205.29 247.803 204.657C247.777 203.619 247.557 202.089 247.873 201.121C248.313 201.236 248.515 201.614 248.902 201.719C249.017 201.324 248.99 201.007 248.981 200.602" fill="#913E15"/>
<path d="M169.866 115.674L169.523 115.586C169.585 115.058 170.57 114.381 170.966 114.021C171.66 113.396 172.47 113.15 173.182 112.596C173.798 112.121 174.237 111.242 174.791 110.652C175.469 109.94 175.873 109.113 176.462 108.331C177.474 106.985 178.934 105.314 180.385 104.373C181.079 103.925 181.519 104.426 181.695 105.226C181.792 105.648 181.625 106.132 181.713 106.563C181.801 106.994 182.047 107.17 182.073 107.75C182.117 108.586 181.888 109.615 182.1 110.424C182.275 111.057 182.891 111.655 183.243 112.2C183.7 112.886 183.586 113.414 183.252 114.144C183.085 114.504 182.944 114.707 182.838 115.085C182.777 115.313 182.856 115.595 182.812 115.832C182.768 116.052 182.53 116.061 182.487 116.281C182.328 117.108 182.469 117.978 182.258 118.761C182.064 119.482 181.836 120.669 182.038 121.487C182.196 122.12 182.891 123.053 182.39 123.809C181.888 124.565 180.631 124.556 179.989 124.257C179.083 123.844 178.784 123.396 178.142 122.631C177.737 122.156 177.271 121.461 176.849 121.047C176.392 120.599 175.97 120.678 175.363 120.687C174.237 120.713 173.349 120.863 172.795 119.728C172.417 118.963 172.197 117.969 171.098 117.917C170.992 117.16 170.922 117.011 170.438 116.439C170.104 116.043 169.928 115.648 169.62 115.252C169.699 115.261 169.77 115.269 169.849 115.665L169.866 115.674Z" fill="#913E15"/>
<path d="M255.287 290.166C255.102 289.022 254.487 287.501 254.865 286.287C255.19 285.232 256.553 285.126 257.283 284.52C257.09 285.285 258.884 288.759 259.623 287.624C260.229 288.073 260.036 288.591 259.728 289.101C259.227 289.937 258.831 289.805 258.04 289.585C256.984 289.295 255.542 289.321 254.838 290.412C254.944 290.174 255.093 289.963 255.278 289.779" fill="#913E15"/>
<path d="M251.347 297.113C250.555 297.113 250.142 297.21 249.852 296.348C249.632 295.697 249.799 295.275 250.256 294.8C251.197 293.807 251.892 293.367 253.167 293.982C254.293 294.528 254.821 295.407 254.056 296.498C253.352 297.509 252.429 297.351 251.637 298.221C251.285 298.072 250.45 297.87 250.133 297.623C249.351 296.999 250.212 296.463 250.16 295.574" fill="#913E15"/>
<path d="M112.394 84.4009C112.139 84.3393 111.902 84.3569 111.664 84.4537C111.603 85.1924 111.339 85.6321 111.207 86.3181C111.075 87.0041 111.216 87.9275 111.216 88.6487V93.2746C111.216 93.9781 111.251 94.6905 111.216 95.4028C111.172 96.2823 110.846 97.0386 110.811 97.9356C110.732 99.8968 111.233 101.673 111.216 103.617C111.198 105.297 111.682 106.739 112.086 108.34C112.526 110.072 112.79 111.585 112.79 113.44C112.79 115.727 112.79 118.022 112.79 120.309C112.79 121.558 112.746 122.824 112.781 124.073C112.816 125.322 113.142 126.614 113.177 127.934C113.203 128.831 113.538 129.561 113.59 130.431C113.643 131.302 113.59 132.181 113.581 133.052C113.581 134.292 113.423 135.303 113.256 136.508C113.177 137.106 113.37 137.564 113.485 138.153C113.696 139.261 113.581 140.422 113.581 141.547C113.581 142.568 113.529 143.605 113.573 144.626C113.617 145.646 113.951 146.596 113.986 147.642C114.012 148.478 113.713 148.865 113.573 149.612C113.388 150.597 113.59 151.802 113.581 152.804C113.564 155.293 114.215 157.615 114.681 160.051C114.848 160.922 114.681 161.792 114.848 162.672C114.989 163.446 115.147 164.123 115.173 164.906C115.217 166.278 115.173 167.667 115.156 169.039C115.147 170.191 115.464 171.194 115.569 172.328C115.675 173.463 115.551 174.72 115.551 175.872V184.772C115.551 186.285 115.56 187.807 115.543 189.319C115.525 190.832 115.921 192.309 115.938 193.866C115.947 195 116.361 195.977 116.343 197.12C116.325 198.149 116.343 199.187 116.343 200.216C116.343 200.998 116.132 202.168 116.325 202.942C116.413 203.294 116.677 203.32 116.756 203.672C116.827 203.971 116.739 204.542 116.739 204.85C116.739 205.739 116.888 208.605 118.243 208.658C118.454 208.306 117.926 207.128 117.908 206.688C117.9 206.301 117.988 205.897 117.944 205.51C117.917 205.299 117.592 204.666 117.592 204.437C117.609 203.654 118.04 203.135 117.935 202.256C117.882 201.807 117.689 201.42 117.609 200.981C117.477 200.286 117.609 199.732 117.548 199.046C117.495 198.553 117.266 198.29 117.214 197.867C117.152 197.41 117.258 197.349 117.328 196.935C117.433 196.337 117.504 195.845 117.521 195.22C117.539 194.394 117.856 193.699 117.944 192.881C118.075 191.703 117.926 190.383 117.926 189.196C117.926 188.237 117.926 187.279 117.926 186.311C117.926 185.098 118.146 184.078 118.287 182.882C118.506 180.938 118.093 179.074 117.952 177.174C117.864 175.987 117.451 174.747 117.231 173.586C117.029 172.548 117.231 171.519 117.161 170.481C117.082 169.162 116.739 168.124 116.756 166.753C116.774 165.381 116.405 164.061 116.343 162.689C116.246 160.667 116.29 158.635 116.66 156.674C117.073 154.475 116.457 152.154 116.835 149.937C117.029 148.803 117.249 147.712 117.161 146.552C117.082 145.487 116.721 144.546 116.747 143.465C116.765 142.374 116.748 141.433 116.475 140.378C116.123 139.032 115.534 137.942 115.56 136.517C115.587 135.092 115.472 134.055 115.261 132.735C115.121 131.83 115.305 131.223 115.49 130.352C115.71 129.306 115.164 128.593 115.252 127.661C115.288 127.309 115.56 126.975 115.595 126.597C115.666 125.902 115.349 125.26 115.34 124.574C115.323 123.185 116.062 121.936 115.938 120.502C115.815 119.007 115.56 117.653 115.569 116.14C115.578 113.555 115.798 110.864 115.27 108.331C114.848 106.317 114.373 104.145 114.382 102.095C114.399 99.8352 114.61 97.4168 114.355 95.183C114.188 93.7407 113.634 92.3951 113.59 90.944C113.573 90.3108 113.608 89.6776 113.599 89.0356C113.59 87.7076 114.338 86.5731 113.916 85.21C113.678 85.3155 113.458 85.4211 112.421 84.4009H112.394Z" fill="#913E15"/>
<path d="M135.225 205.237C135.409 205.22 135.559 205.14 135.656 205C135.62 205.527 135.365 206.099 135.172 206.592C134.882 207.357 134.846 207.867 134.838 208.711C134.82 210.083 134.38 211.455 134.073 212.765C133.932 213.355 133.985 214.208 134.029 214.823C134.064 215.386 134.099 215.624 134.029 216.239C133.905 217.347 134.011 218.596 134.029 219.722C134.046 220.346 134.266 220.689 134.389 221.27C134.512 221.806 134.424 222.448 134.424 223.011C134.424 224.172 134.424 225.324 134.424 226.485V233.432C134.917 233.978 134.759 234.303 135.014 234.98C135.286 235.728 135.726 236.229 136.113 236.906C136.799 238.111 137.335 239.333 137.969 240.573C139.367 243.291 140.449 246.149 141.319 249.069C141.609 250.054 141.504 251.083 141.9 251.98C142.295 252.877 143.131 253.66 143.588 254.583C143.79 254.988 143.905 255.392 144.072 255.832C144.186 256.14 144.573 256.518 144.635 256.826C144.784 257.503 144.476 257.591 144.257 258.127C144.142 258.426 143.773 259.341 143.878 259.684C144.125 260.528 144.758 261.346 144.969 262.173C145.18 262.999 145.057 263.87 145.057 264.706C145.057 266.482 144.74 268.575 145.092 270.308C145.198 270.809 145.444 271.117 145.461 271.662C145.479 272.075 145.426 272.401 145.541 272.823C145.743 273.597 145.848 274.415 146.042 275.136C146.446 276.64 146.235 278.522 146.235 280.158C146.877 279.99 146.358 281.292 146.807 281.609C147.563 282.136 148.416 281.952 149.181 282.312C150.817 283.086 152.4 283.798 154.106 284.405C154.696 284.616 155.162 284.88 155.681 285.17C156.199 285.461 156.586 285.461 157.167 285.645C158.319 285.997 158.855 287.14 158.829 288.266C159.023 288.257 159.559 288.943 159.647 288.794C159.55 289.787 159.867 290.429 160.06 291.388C160.28 292.505 160.544 293.666 160.896 294.748C161.16 295.557 161.749 298.265 160.781 298.934C160.799 298.723 160.799 298.512 160.799 298.301C160.799 295.952 161.986 292.866 161.555 290.579C161.45 290.025 161.23 289.603 161.186 289.04C161.151 288.547 161.327 287.949 161.212 287.475C161.16 287.263 160.896 286.49 160.808 286.322C160.606 285.935 160.509 285.663 160.008 285.557C158.776 285.733 157.615 283.236 156.569 282.761C155.443 282.242 154.441 281.872 153.394 281.213C152.427 280.606 151.468 280.122 150.386 279.718C149.806 279.498 149.63 279.454 148.962 279.392C148.434 279.34 148.038 278.926 147.528 278.961C147.766 279.076 147.985 279.216 148.188 279.384C148.188 278.363 147.792 276.182 147.792 275.153C147.792 273.852 148.065 272.242 147.81 270.967C147.59 269.815 147.124 268.707 146.983 267.511C146.895 266.816 147.097 266.157 146.913 265.471C146.772 264.961 146.631 264.688 146.605 264.125C146.526 262.331 146.605 260.511 146.605 258.717C146.605 257.767 146.605 256.914 146.411 256.017C146.218 255.12 146.227 254.328 145.822 253.51C145.479 252.815 145.453 251.716 145.057 251.004C144.705 250.371 144.239 249.957 143.94 249.271C143.685 248.7 143.597 248.031 143.465 247.433C143.008 245.375 142.005 243.238 141.117 241.312C140.325 239.606 139.041 238.173 138.268 236.519C138.144 236.264 137.74 235.895 137.643 235.666C137.511 235.332 137.582 235.015 137.476 234.681C137.318 234.162 136.597 233.265 136.772 232.667C135.902 231.902 136.781 230.046 136.772 229.105C136.755 227.813 136.57 226.309 136.86 225.042C137.168 223.697 137.151 222.413 137.168 221.015C137.177 219.502 136.772 218.174 136.772 216.652C136.772 215.5 136.676 214.656 136.412 213.583C136.148 212.51 136.588 211.217 136.342 210.092C136.262 209.722 136.104 208.896 135.946 208.579C135.779 208.245 135.374 208.095 135.225 207.752C135.031 207.322 135.269 206.732 135.163 206.275C135.093 205.958 134.275 205.36 135.198 205.272L135.225 205.237Z" fill="#913E15"/>
<path d="M165.539 326.46C165.557 325.537 165.135 325.062 165.143 324.139C165.152 323.215 165.143 322.336 165.143 321.439C165.143 319.68 164.721 318.176 164.748 316.417C164.757 315.538 164.361 314.878 164.334 314.016C164.308 313.154 164.669 312.592 164.765 311.791C164.827 311.272 164.748 310.692 164.748 310.173C164.748 309.1 164.757 308.036 164.748 306.963C164.73 305.741 165.064 304.888 164.844 303.692C164.563 302.223 164.352 300.605 164.361 299.118C164.361 298.221 164.501 297.228 164.378 296.348C164.299 295.75 164.018 295.214 163.947 294.607C163.886 294.053 163.965 293.437 163.965 292.865C163.965 291.74 164.062 290.597 163.877 289.488C163.64 288.046 163.648 286.709 163.578 285.241C163.525 284.08 163.165 283.077 163.182 281.881C163.191 281.248 162.136 275.189 163.121 275.162C163.209 275.408 163.094 275.514 162.787 275.488C162.787 275.277 162.787 274.678 162.769 274.467C163.455 274.881 163.719 277.035 163.868 277.809C164.167 279.287 164.739 280.685 165.055 282.145C165.328 283.394 164.501 284.282 164.836 285.522C165.135 286.621 165.398 287.861 165.557 289.005C165.706 290.086 165.935 290.922 165.926 292.092C165.926 292.945 165.759 293.956 165.909 294.783C166.005 295.337 166.26 295.741 166.331 296.304C166.41 296.946 166.269 297.623 166.313 298.265C166.375 299.25 166.92 300.068 167.131 300.939C167.342 301.81 167.105 303.085 167.113 304.017C167.131 305.618 166.709 307.086 166.718 308.687C166.735 310.797 167.237 312.732 167.122 314.852C167.087 315.45 166.814 315.819 166.7 316.391C166.577 316.998 166.929 317.217 167.025 317.64C167.245 318.616 166.973 319.654 167.105 320.647C167.175 321.184 167.412 321.307 167.527 321.773C167.65 322.266 167.368 322.864 167.483 323.356C167.597 323.849 167.879 323.91 167.914 324.482C167.958 325.097 165.61 325.845 165.53 326.425L165.539 326.46Z" fill="#913E15"/>
<path d="M198.606 116.061L198.589 115.832C199.125 116.307 199.371 117.037 199.881 117.521C200.532 118.154 201.341 118.646 201.975 119.341C202.608 120.036 202.924 120.59 203.646 121.171C204.2 121.619 204.613 122.287 205.097 122.806C205.721 123.483 206.17 124.108 206.873 124.636C207.726 125.269 208.289 125.99 208.852 126.869C209.582 128.021 210.795 128.619 210.822 129.956C210.839 130.871 210.91 131.381 211.314 132.181C211.508 132.559 211.798 132.973 211.912 133.412C212.053 133.975 211.895 134.441 211.983 134.987C212.088 135.655 212.387 136.183 212.414 136.904C212.44 137.66 212.396 138.434 212.396 139.19C212.396 141.363 212.396 143.535 212.396 145.707C212.396 148.803 212.378 151.819 212.827 154.845C213.047 156.357 213.311 157.87 213.583 159.383C214.014 161.819 213.979 164.184 213.979 166.656C213.979 167.553 213.882 168.502 214.014 169.391C214.111 170.068 214.34 170.657 214.384 171.343C214.463 172.68 214.428 173.744 214.683 175.046C215.061 177.024 214.771 179.293 214.771 181.307C214.771 182.494 214.806 183.691 214.779 184.878C214.762 185.731 214.436 186.417 214.357 187.261C214.278 188.105 214.375 188.976 214.375 189.812C214.375 191.746 214.375 193.681 214.375 195.616C214.375 196.654 213.926 195.845 214.375 196.75C214.181 196.759 214.041 196.838 213.953 196.988C214.041 196.082 213.979 195.15 213.979 194.235C213.979 193.277 213.812 192.749 213.575 191.931C213.451 191.518 213.399 190.999 213.275 190.568C213.152 190.137 213.126 189.68 213.223 189.213C213.425 188.255 213.583 187.543 213.583 186.514C213.583 184.297 213.548 182.283 213.144 180.102C212.449 176.418 212.537 172.68 211.807 168.986C211.182 165.82 211.904 162.478 211.314 159.303C211.059 157.94 210.822 156.612 210.514 155.284C210.171 153.754 210.743 152.347 210.523 150.922C210.004 147.58 210.655 144.124 210.127 140.773C209.81 138.742 209.547 136.684 209.142 134.67C208.993 133.923 208.984 131.311 208.06 131.126C208.201 130.888 208.298 130.677 208.395 130.449C207.884 130.027 207.682 129.543 207.278 129.182C206.847 128.787 206.319 128.514 205.888 128.021C205.017 127.028 204.059 126.104 203.144 125.154C201.491 123.44 200.189 121.408 198.615 119.623C198.052 118.989 197.454 118.629 196.944 117.987C196.891 117.917 196.293 117.248 196.249 117.222C195.924 116.976 196.61 116.36 195.854 116.457L195.625 116.483C196.443 115.445 196.249 114.408 195.845 113.379C195.44 112.35 195.467 111.136 195.467 109.896C195.467 108.445 195.66 106.871 195.431 105.446C195.115 103.45 194.658 101.401 194.675 99.369C194.693 97.3375 194.279 95.6313 194.279 93.6701C194.279 92.263 193.998 90.9702 193.936 89.6335C193.866 88.1648 193.532 86.5114 193.787 85.1747C193.919 84.4887 193.954 83.9346 194.183 83.2663C194.35 82.765 194.64 82.1845 194.279 81.7184C194.394 81.7448 194.508 81.006 194.622 81.0324C194.57 81.4722 194.016 81.6217 193.866 82.0702C193.664 82.6683 193.884 83.7851 193.884 84.4095C193.884 87.0127 194.077 89.5367 194.666 92.0783C195.291 94.7958 195.88 97.7596 195.854 100.539C195.836 102.271 196.091 103.784 196.249 105.481C196.355 106.624 196.548 108.023 197.041 108.973C197.569 109.993 197.683 111.136 197.815 112.235C197.885 112.781 198.114 113.053 198.237 113.563C198.395 114.258 198.026 114.522 197.92 115.014C197.736 115.867 198.879 117.239 197.788 117.864C198.026 117.723 198.641 116.36 198.615 116.087L198.606 116.061Z" fill="#913E15"/>
<path d="M228.129 170.103C227.813 169.461 227.523 168.977 227.822 168.204C228.393 168.291 228.129 170.288 228.129 170.842C228.129 172.196 228.05 173.568 228.112 174.923C228.165 176.189 228.499 177.42 228.543 178.687C228.639 181.448 228.525 184.245 228.525 187.006C228.525 187.938 228.525 188.871 228.525 189.803C228.525 190.797 228.27 191.834 228.305 192.793C228.349 193.971 228.525 195.141 228.525 196.346C228.525 197.287 228.34 198.421 228.508 199.345C228.639 200.057 229.088 200.611 229.237 201.332C229.387 202.054 229.22 202.845 229.396 203.601C229.572 204.358 229.967 205.017 230.073 205.8C230.17 206.53 230.108 207.286 230.099 208.025C230.091 210.778 230.425 213.733 229.897 216.415C229.598 217.936 230.126 219.22 230.099 220.751C230.064 222.474 230.689 223.996 230.882 225.693C231.04 227.065 231.278 228.244 231.278 229.633C231.278 231.119 231.287 232.614 231.278 234.101C231.278 235.068 231.374 236 231.656 236.897C231.753 237.214 231.999 237.302 232.078 237.627C232.184 238.076 232.052 238.727 232.06 239.193C232.087 238.894 231.981 238.788 231.735 238.858C231.726 239.413 232.667 239.817 233.037 240.151C233.802 240.828 234.435 241.655 235.218 242.306C236.255 243.168 237.346 243.273 238.164 244.408C238.753 245.234 239.501 245.903 240.231 246.624C240.776 247.16 241.717 247.794 241.901 248.462C241.796 248.48 242.077 250.054 241.972 250.071C241.26 252.446 242.306 255.295 242.297 257.723C242.297 258.62 242.297 259.526 242.297 260.423C242.297 261.487 242.711 262.111 242.693 263.123C242.614 263.105 243.326 263.079 243.247 263.061C243.968 261.715 243.15 260.168 243.054 258.804C242.966 257.564 243.493 256.527 243.52 255.322C243.537 254.372 243.124 253.475 243.071 252.534C243.018 251.575 242.605 247.204 243.775 246.949L243.871 247.301C242.922 247.108 242.719 244.012 242.121 243.44C241.004 242.385 239.861 241.33 239.149 239.949C238.533 238.762 237.46 238.093 236.396 237.284C236.053 237.02 233.802 234.655 235.218 234.558C234.945 233.766 234.461 233.397 234.426 232.456C234.4 231.876 234.461 231.295 234.444 230.715C234.417 229.765 234.083 228.903 234.013 227.971C233.934 226.845 234.576 225.983 234.444 224.902C234.321 223.908 234.022 223.09 234.03 222.017C234.057 219.168 233.292 216.248 232.456 213.522C232.245 212.836 231.893 212.088 231.735 211.402C231.577 210.681 231.849 210.162 231.981 209.45C232.113 208.737 231.911 208.5 231.753 207.84C231.559 207.031 231.665 206.143 231.665 205.307C231.665 204.797 231.779 204.155 231.682 203.654C231.586 203.153 231.313 202.836 231.304 202.317C231.304 201.886 231.383 201.623 231.322 201.156C231.26 200.655 231.084 200.277 230.961 199.802C230.856 199.398 230.768 198.852 230.856 198.439C230.935 198.087 231.155 197.929 231.234 197.612C231.374 197.032 231.181 196.662 231.067 196.135C230.891 195.352 230.873 194.657 230.873 193.831C230.873 193.435 230.838 193.022 230.856 192.626C230.891 191.931 231.26 191.324 231.199 190.629C231.111 189.618 230.873 188.695 230.873 187.639C230.873 185.617 230.68 183.928 230.17 182.037C229.932 181.149 230.073 180.067 230.082 179.144C230.09 178.053 229.765 177.104 229.695 176.022C229.616 174.632 228.93 173.639 228.49 172.381C228.349 171.976 227.751 170.763 227.909 170.473C227.663 170.165 228.085 169.364 228.112 168.916C228.138 168.388 227.918 167.737 228.323 167.315C228.2 167.43 228.129 169.901 228.103 170.077L228.129 170.103Z" fill="#913E15"/>
<path d="M149.56 94.2945C149.648 95.4818 155.047 125.48 155.047 125.48L163.235 148.337L166.278 187.217C166.278 187.217 143.289 194.578 147.766 217.919C152.251 241.259 172.417 242.403 172.417 242.403L172.979 265.743L175.785 277.132L173.657 322.547L188.115 313.005L184.192 276.569L185.309 242.851C185.309 242.851 207.726 238.419 207.164 217.356C206.601 196.293 199.882 191.737 193.154 188.888C186.426 186.039 179.514 183.013 179.514 183.013L173.261 165.125L173.164 143.429L161.045 116.817L160.65 84.1193L153.931 93.8284L149.551 94.2945H149.56Z" fill="#00FDFF"/>
<path d="M166.779 185.186C153.298 189.785 143.773 203.979 145.532 218.534C147.291 233.133 159.779 244.531 173.991 245.771C177.227 246.052 177.21 240.925 173.991 240.644C162.321 239.624 151.882 229.783 150.518 217.857C149.155 205.932 157 193.936 168.125 190.146C171.186 189.099 169.875 184.148 166.779 185.194V185.186Z" fill="#00C8CB"/>
<path d="M184.043 245.797C199.89 243.977 211.323 229.58 210.224 213.451C209.081 196.689 196.267 183.893 180.516 180.384C177.35 179.68 175.996 184.623 179.171 185.335C192.186 188.237 203.347 198.158 205.035 212.062C206.671 225.57 197.797 239.096 184.034 240.67C180.842 241.04 180.806 246.167 184.034 245.797H184.043Z" fill="#00C8CB"/>
<path d="M147.722 93.4768L153.763 126.236L161.81 149.515L165.83 187.393L169.611 187.807L164.22 147.941L155.769 124.662L150.545 94.2771L147.722 93.4768Z" fill="#00C8CB"/>
<path d="M157.809 86.2125L159.823 116.984L171.493 144.212L173.103 165.125L177.482 184.21L181.15 181.694L176.321 163.938L174.308 143.025C174.308 143.025 161.028 117.38 161.432 116.193C161.837 115.006 161.432 81.868 161.432 81.868L157.809 86.2125Z" fill="#00C8CB"/>
<path d="M171.08 244.434L172.294 268.109L173.903 276.789L173.499 322.556L177.518 319.399L177.122 280.729L175.249 263.694L176.348 243.678L171.08 244.434Z" fill="#00C8CB"/>
<path d="M208.896 251.144L208.096 303.612L218.957 296.515L212.273 247.539L208.896 251.144Z" fill="#00FDFF"/>
<path d="M181.827 244.1L183.155 261.795L182.75 274.811L187.578 315.45L190.797 313.48L186.373 274.811L187.983 242.851L181.827 244.1Z" fill="#00C8CB"/>
<path d="M126.826 88.587C129.253 88.6838 136.887 90.557 136.887 90.557L137.388 144.485L133.325 143.913L126.834 88.587H126.826Z" fill="#00FDFF"/>
<path d="M210.91 301.642C211.315 300.455 208.896 251.136 208.896 251.136L211.306 250.344L216.934 297.298C216.934 297.298 218.948 297.694 218.948 296.506C218.948 295.319 213.32 245.613 213.32 245.613L206.882 247.583L208.087 303.612L210.901 301.642H210.91Z" fill="#00C8CB"/>
<path d="M177.737 230.82C186.771 230.82 194.095 223.52 194.095 214.515C194.095 205.51 186.771 198.21 177.737 198.21C168.703 198.21 161.379 205.51 161.379 214.515C161.379 223.52 168.703 230.82 177.737 230.82Z" fill="#CA8528"/>
<path d="M126.826 88.587L132.058 146.587H139.701L139.305 91.7355L136.887 90.557V140.668H134.477L130.449 89.3698L126.826 88.587Z" fill="#00C8CB"/>
<path d="M177.535 233.441C167.254 233.441 158.899 224.946 158.899 214.507C158.899 204.068 167.263 195.572 177.535 195.572C187.807 195.572 196.17 204.068 196.17 214.507C196.17 224.946 187.807 233.441 177.535 233.441ZM177.535 200.444C169.91 200.444 163.701 206.75 163.701 214.498C163.701 222.246 169.901 228.551 177.535 228.551C185.169 228.551 191.369 222.246 191.369 214.498C191.369 206.75 185.169 200.444 177.535 200.444Z" fill="#00C8CB"/>
<path d="M94.1893 80.7598L112.711 73.7594C116.237 72.4227 114.707 66.6975 111.136 68.0518L92.6151 75.0522C89.0885 76.389 90.6188 82.1142 94.1893 80.7598Z" fill="black"/>
<path d="M111.735 73.5221C125.999 78.8867 140.387 83.9436 154.573 89.5193C158.117 90.9176 159.656 85.1924 156.147 83.8117C141.961 78.236 127.582 73.1703 113.309 67.8145C109.738 66.4689 108.199 72.1941 111.735 73.5221Z" fill="black"/>
<path d="M157.985 88.3849C164.273 78.7901 170.526 69.1689 176.814 59.5741C178.124 57.5778 174.923 55.7221 173.621 57.7097C167.333 67.3045 161.08 76.9257 154.792 86.5204C153.482 88.5168 156.683 90.3724 157.985 88.3849Z" fill="black"/>
<path d="M175.152 60.348L185.696 60.1984C186.664 60.1808 187.596 59.3542 187.543 58.3516C187.49 57.349 186.734 56.4872 185.696 56.5048L175.152 56.6543C174.184 56.6719 173.252 57.4985 173.305 58.5011C173.358 59.5037 174.114 60.3656 175.152 60.348Z" fill="black"/>
<path d="M184.157 61.5967C224.243 104.804 264.407 147.941 304.492 191.148C307.087 193.945 311.273 189.75 308.678 186.962C268.593 143.755 228.429 100.618 188.343 57.4106C185.749 54.6139 181.563 58.8089 184.157 61.5967Z" fill="black"/>
<path d="M281.055 333.918C289.691 285.909 299.11 238.041 309.32 190.339C310.112 186.619 304.413 185.036 303.613 188.765C293.411 236.466 283.984 284.335 275.347 332.344C274.679 336.073 280.378 337.665 281.055 333.918Z" fill="black"/>
<path d="M276.394 330.981C272.788 333.47 269.051 335.783 265.251 337.955C261.945 339.846 264.926 344.964 268.241 343.064C272.041 340.883 275.778 338.57 279.384 336.09C282.506 333.945 279.542 328.809 276.394 330.981Z" fill="black"/>
<path d="M231.199 330.339C242.632 335.062 254.188 339.503 265.946 343.346C269.024 344.357 270.519 340.497 268.831 338.395L268.373 337.823C265.981 334.859 261.813 339.072 264.187 342.009L264.644 342.581L267.529 337.63C255.771 333.786 244.215 329.345 232.782 324.623C229.264 323.171 227.734 328.897 231.208 330.33L231.199 330.339Z" fill="black"/>
<path d="M234.981 327.604C234.101 319.486 233.398 311.369 233.178 303.208C233.081 299.408 227.154 299.391 227.259 303.208C227.479 311.369 228.183 319.486 229.062 327.604C229.467 331.35 235.394 331.394 234.981 327.604Z" fill="black"/>
<path d="M164.238 340.91C186.62 329.09 209.204 317.648 231.586 305.829C234.954 304.052 231.964 298.934 228.596 300.719C206.214 312.539 183.63 323.98 161.248 335.8C157.879 337.577 160.869 342.695 164.238 340.91Z" fill="black"/>
<path d="M102.008 302.874L160.755 340.567C163.974 342.633 166.946 337.506 163.745 335.457L104.998 297.764C101.779 295.697 98.8065 300.824 102.008 302.874Z" fill="black"/>
<path d="M106.343 299.25C103.934 256.052 100.451 212.924 98.0414 169.716C97.8303 165.926 91.9116 165.899 92.1227 169.716C94.5324 212.915 98.015 256.043 100.425 299.25C100.636 303.041 106.554 303.067 106.343 299.25Z" fill="black"/>
<path d="M97.9272 170.807C101.339 165.697 104.426 160.385 107.592 155.117C109.554 151.846 104.444 148.864 102.483 152.127C99.3255 157.395 96.2387 162.707 92.8176 167.817C90.6894 170.991 95.8165 173.964 97.9272 170.807Z" fill="black"/>
<path d="M92.7913 141.688C95.8694 146.595 99.1761 151.318 102.87 155.777C105.306 158.714 109.466 154.502 107.056 151.591C103.679 147.519 100.715 143.174 97.9009 138.698C95.8782 135.479 90.751 138.443 92.7913 141.688Z" fill="black"/>
<path d="M95.9924 140.51C95.7374 124.143 94.9898 107.785 94.5237 91.4188C94.3918 86.7401 94.2775 82.0615 94.2071 77.3828C94.172 74.9995 90.4695 74.9995 90.5046 77.3828C90.7597 93.7494 91.5072 110.107 91.9733 126.474C92.1052 131.152 92.2196 135.831 92.2899 140.51C92.3251 142.893 96.0276 142.893 95.9924 140.51Z" fill="black"/>
<path d="M93.4423 80.0918C108.595 84.1724 123.783 88.1123 138.945 92.1314C143.149 93.2483 147.353 94.3652 151.548 95.4909C153.852 96.1065 154.828 92.5447 152.532 91.9203C137.38 87.8397 122.191 83.8997 107.03 79.8806C102.826 78.7637 98.6223 77.6468 94.4273 76.5211C92.1231 75.9055 91.1469 79.4674 93.4423 80.0918Z" fill="black"/>
<path d="M153.236 95.1037C155.294 92.9139 156.71 90.2755 158.451 87.8483C158.715 87.4789 158.75 86.8457 158.636 86.4235C158.521 86.0014 158.187 85.5265 157.783 85.3154C156.824 84.8141 155.857 85.1395 155.25 85.975C154.493 87.0304 153.816 88.1473 153.104 89.2378C152.699 89.8446 152.286 90.4426 151.855 91.0319C151.794 91.111 151.732 91.1814 151.679 91.2605C151.732 91.1902 151.908 90.9703 151.75 91.1638C151.626 91.3133 151.503 91.4716 151.38 91.6211C151.134 91.9201 150.879 92.2103 150.606 92.4918C149.947 93.1953 149.859 94.4177 150.606 95.1125C151.354 95.8073 152.515 95.8688 153.227 95.1125L153.236 95.1037Z" fill="black"/>
<path d="M176.664 61.0164C191.281 78.7197 205.906 96.423 220.672 114.012C235.438 131.601 250.362 149.058 265.568 166.269C274.169 175.996 282.858 185.643 291.661 195.194C293.279 196.944 295.891 194.323 294.282 192.573C278.707 175.688 263.484 158.477 248.498 141.073C233.512 123.668 218.764 106.071 204.094 88.4024C195.801 78.4206 187.543 68.4125 179.276 58.4044C178.643 57.6305 177.315 57.7448 176.656 58.4044C175.891 59.1695 176.014 60.2512 176.656 61.0251L176.664 61.0164Z" fill="black"/>
<path d="M266.931 339.617L277.757 283.042L288.548 226.687L294.625 194.948C295.073 192.617 291.503 191.623 291.054 193.963L280.228 250.538L269.437 306.893L263.36 338.632C262.912 340.963 266.482 341.956 266.931 339.617Z" fill="black"/>
<path d="M157.923 334.525L215.272 302.205L231.331 293.156C233.406 291.986 231.542 288.785 229.466 289.963L172.117 322.283L156.059 331.333C153.983 332.502 155.848 335.703 157.923 334.525Z" fill="black"/>
<path d="M228.877 292.083L229.422 303.287C229.466 304.254 230.24 305.187 231.269 305.134C232.228 305.09 233.169 304.316 233.116 303.287L232.571 292.083C232.527 291.115 231.753 290.183 230.724 290.236C229.765 290.28 228.824 291.054 228.877 292.083Z" fill="black"/>
</svg>
