<svg width="400" height="400" viewBox="0 0 400 400" fill="none" xmlns="http://www.w3.org/2000/svg">
<rect x="89.5044" y="199" width="2" height="2" fill="#D9D9D9"/>
<path d="M95.8053 79.7223C93.6506 81.1294 95.8053 136.86 95.8053 136.86L107.317 153.086L95.0929 168.608L105.163 298.406C105.163 298.406 154.069 333.681 156.953 332.265C159.838 330.849 231.759 291.353 231.759 291.353L234.635 329.442L264.844 338.615L293.611 194.007L177.093 58.5627L154.078 93.8374L95.8141 79.7311L95.8053 79.7223Z" fill="#FFCA1B"/>
<path d="M214.242 87.0001L98 165.652V200L235 108.903L214.242 87.0001Z" fill="#D28F00"/>
<path d="M98.1445 77.9546L111.811 70.9015L156.408 85.7202L149.926 94.884L98.1445 77.9546Z" fill="#FFC061"/>
<path d="M179.089 58.5012L293.602 194.552L305.888 189.099L187.057 58.6859L179.089 58.5012Z" fill="#FFC061"/>
<path d="M159.82 332.969C161.975 332.969 165.572 338.615 165.572 338.615L231.029 301.933L231.75 291.353L159.82 332.969Z" fill="#90531F"/>
<path d="M227.121 120L99 206.308V244L250 144.035L227.121 120Z" fill="#FFDD55"/>
<path d="M264.835 338.615L293.611 193.998L307.278 188.361L277.781 333.672L264.835 338.615Z" fill="#965B00"/>
<path d="M100.405 199.442L100.079 199.503C99.7713 200.576 100.343 201.315 100.704 202.229C100.897 202.704 100.985 203.223 101.187 203.689C101.425 204.243 101.794 204.683 102.093 205.228C102.849 206.6 103.289 208.148 104.063 209.511C104.547 210.364 105.083 211.103 105.532 211.991C105.804 212.528 105.813 212.818 105.919 213.355C106.015 213.838 106.226 214.041 106.332 214.48C106.394 214.735 106.226 215.043 106.288 215.298C106.358 215.606 106.534 215.544 106.605 215.747C106.798 216.336 106.983 216.688 107.299 217.207C108.381 218.992 109.305 221.023 110.351 222.905C110.501 223.178 110.729 223.459 110.835 223.758C111.002 224.225 110.94 224.585 111.063 225.078C111.266 225.931 112.066 226.661 112.233 227.619C112.365 228.393 112.356 229.756 112.18 230.513C112.04 231.119 111.837 231.401 111.82 232.043C111.785 232.87 111.697 233.424 111.521 234.189C110.993 236.466 109.63 238.524 109.067 240.767C108.531 242.878 107.642 244.988 107.141 247.117C107.009 247.688 107.229 248.286 107.123 248.858C106.965 249.702 106.745 249.755 106.904 250.599C107.053 251.373 106.824 251.558 106.684 252.341C106.578 252.921 106.763 253.343 106.525 253.888C106.086 254.873 105.672 255.744 105.329 256.782C104.986 257.819 104.74 258.708 104.406 259.622C104.793 259.534 104.863 259.279 105.136 258.901C105.03 258.884 102.946 260.405 102.841 260.379C102.709 259.948 102.814 259.534 102.744 259.095C102.63 258.453 102.383 258.11 102.374 257.38C102.348 255.841 102.269 254.249 102.366 252.719C102.427 251.655 102.788 250.714 102.788 249.632C102.788 248.893 102.779 248.154 102.779 247.424C102.779 246.088 102.929 244.681 102.691 243.361C102.55 242.57 102.366 241.972 102.383 241.145C102.392 240.609 102.427 240.116 102.295 239.589C102.128 238.92 101.996 238.859 101.979 238.067C101.961 237.434 102.093 236.748 102.005 236.123C101.82 234.743 101.521 233.371 101.284 231.981C101.055 230.68 101.196 229.299 101.196 227.98C101.196 226.661 101.275 225.412 101.214 224.145C101.17 223.143 100.835 222.193 100.783 221.182C100.73 220.144 100.888 219.097 100.827 218.06C100.765 217.022 100.431 216.01 100.396 214.946C100.369 213.935 100.51 212.897 100.431 211.886C100.378 211.156 100.044 210.488 100 209.758C99.9472 208.984 99.8153 207.708 100 206.97C100.246 206.002 100.51 205.923 100.018 204.841C99.7625 204.27 99.4283 203.76 99.1821 203.171C98.9094 202.529 98.628 201.763 98.8127 200.981C98.9974 200.198 100.598 200.356 100.405 199.459V199.442Z" fill="#D28F00"/>
<path d="M125.601 283.218L125.918 283.139C126.076 281.424 130.165 280.835 131.52 280.597C132.417 280.439 133.375 280.65 134.255 280.421C134.826 280.272 135.785 279.718 136.163 280.588C136.339 281.002 135.706 281.565 135.803 282.075C135.864 282.418 136.154 282.471 136.242 282.805C136.462 283.623 135.855 284.203 135.53 284.854C135.187 285.54 134.8 285.777 134.343 286.384C133.885 286.991 133.947 287.686 133.833 288.389C133.798 288.583 133.542 289.189 133.472 289.383C133.446 289.453 133.182 290.174 133.164 290.236C133.068 290.597 132.962 290.992 132.883 291.309C132.821 291.546 132.804 292.294 132.716 292.496C132.487 292.989 132.382 292.804 131.907 292.866C131.634 292.848 131.361 292.839 131.089 292.839C130.869 292.866 130.711 292.971 130.623 293.165C129.99 293.2 129.532 292.839 129.136 292.25C128.846 291.81 128.873 291.379 128.67 290.931C128.494 290.553 128.072 290.148 127.852 289.77C127.395 288.987 127.14 288.205 126.683 287.466C126.041 286.428 125.979 286.331 126.305 285.135C126.533 284.282 126.393 283.315 126.393 282.435" fill="#D28F00"/>
<path d="M249.99 200.989C249.964 199.811 251.292 198.087 251.872 199.917C252.286 201.227 252.294 202.485 252.945 203.689C253.174 204.12 253.332 204.771 253.622 205.149C254.062 205.721 254.493 205.677 253.851 206.31C253.614 206.548 252.198 206.996 251.872 207.084C251.345 207.225 250.351 206.952 249.99 207.383C249.427 206.943 249.463 207.216 249.199 206.609C248.952 206.038 248.821 205.29 248.803 204.657C248.777 203.619 248.557 202.089 248.873 201.121C249.313 201.236 249.515 201.614 249.902 201.719C250.017 201.324 249.99 201.007 249.981 200.602" fill="#D28F00"/>
<path d="M170.866 115.674L170.523 115.586C170.585 115.059 171.57 114.381 171.966 114.021C172.66 113.396 173.47 113.15 174.182 112.596C174.798 112.121 175.237 111.242 175.791 110.653C176.469 109.94 176.873 109.113 177.462 108.331C178.474 106.985 179.934 105.314 181.385 104.373C182.079 103.925 182.519 104.426 182.695 105.226C182.792 105.648 182.625 106.132 182.713 106.563C182.801 106.994 183.047 107.17 183.073 107.75C183.117 108.586 182.888 109.615 183.1 110.424C183.275 111.057 183.891 111.655 184.243 112.2C184.7 112.886 184.586 113.414 184.252 114.144C184.085 114.505 183.944 114.707 183.838 115.085C183.777 115.314 183.856 115.595 183.812 115.832C183.768 116.052 183.53 116.061 183.487 116.281C183.328 117.108 183.469 117.978 183.258 118.761C183.064 119.482 182.836 120.669 183.038 121.487C183.196 122.121 183.891 123.053 183.39 123.809C182.888 124.565 181.631 124.557 180.989 124.258C180.083 123.844 179.784 123.396 179.142 122.631C178.737 122.156 178.271 121.461 177.849 121.048C177.392 120.599 176.97 120.678 176.363 120.687C175.237 120.713 174.349 120.863 173.795 119.728C173.417 118.963 173.197 117.97 172.098 117.917C171.992 117.16 171.922 117.011 171.438 116.439C171.104 116.044 170.928 115.648 170.62 115.252C170.699 115.261 170.77 115.27 170.849 115.665L170.866 115.674Z" fill="#D28F00"/>
<path d="M277.5 178L107 298L129 312.5L290 208L294.5 195L277.5 178Z" fill="#D28F00"/>
<path d="M254.713 182.073C254.599 181.624 255.012 181.035 255.205 180.622C255.46 180.068 255.619 179.707 255.425 179.021C255.302 179.135 254.924 179.223 254.792 179.329C254.484 178.388 254.933 177.631 255.504 176.893C256.208 175.978 256.85 176.101 257.272 177.051C257.659 177.913 258.02 178.608 258.644 179.364C259.4 180.279 259.743 180.815 260.183 181.897C260.834 183.497 261.59 184.421 262.98 185.529C263.437 185.89 263.727 186.576 264.167 186.883C264.484 187.103 264.95 187.235 265.354 187.385C266.172 187.684 266.726 188.106 266.937 189.003C267.043 189.443 266.911 190.058 266.832 190.48C266.788 190.7 266.506 190.586 266.48 190.955C266.48 191.096 266.726 191.263 266.726 191.333C266.761 192.354 266.181 193.277 265.574 194.227C264.932 195.238 264.607 196.434 264.053 197.516C263.604 198.395 262.936 199.424 262.663 200.304C262.267 201.57 261.59 203.839 259.831 202.458C257.861 200.911 257.219 197.393 256.762 195.089C256.428 193.409 256.384 191.659 255.971 190.084C255.856 189.636 255.891 189.187 255.795 188.73C255.715 188.352 255.399 187.754 255.293 187.297C255.038 186.233 255.364 185.054 255.117 183.999C255.03 183.603 253.499 181.739 254.704 182.09L254.713 182.073Z" fill="white"/>
<path d="M256.287 290.166C256.102 289.022 255.487 287.501 255.865 286.287C256.19 285.232 257.553 285.126 258.283 284.52C258.09 285.285 259.884 288.759 260.623 287.624C261.229 288.073 261.036 288.592 260.728 289.102C260.227 289.937 259.831 289.805 259.04 289.585C257.984 289.295 256.542 289.321 255.838 290.412C255.944 290.175 256.093 289.963 256.278 289.779" fill="#D28F00"/>
<path d="M252.347 297.113C251.555 297.113 251.142 297.21 250.852 296.348C250.632 295.697 250.799 295.275 251.256 294.8C252.197 293.807 252.892 293.367 254.167 293.982C255.293 294.528 255.821 295.407 255.056 296.498C254.352 297.509 253.429 297.351 252.637 298.221C252.285 298.072 251.45 297.87 251.133 297.623C250.351 296.999 251.212 296.463 251.16 295.574" fill="#D28F00"/>
<path d="M113.394 84.4009C113.139 84.3393 112.902 84.3569 112.664 84.4537C112.603 85.1924 112.339 85.6321 112.207 86.3181C112.075 87.0041 112.216 87.9275 112.216 88.6487V93.2746C112.216 93.9781 112.251 94.6905 112.216 95.4028C112.172 96.2823 111.846 97.0386 111.811 97.9356C111.732 99.8968 112.233 101.673 112.216 103.617C112.198 105.297 112.682 106.739 113.086 108.34C113.526 110.072 113.79 111.585 113.79 113.44C113.79 115.727 113.79 118.022 113.79 120.309C113.79 121.558 113.746 122.824 113.781 124.073C113.816 125.322 114.142 126.614 114.177 127.934C114.203 128.831 114.538 129.561 114.59 130.431C114.643 131.302 114.59 132.181 114.581 133.052C114.581 134.292 114.423 135.303 114.256 136.508C114.177 137.106 114.37 137.564 114.485 138.153C114.696 139.261 114.581 140.422 114.581 141.547C114.581 142.568 114.529 143.605 114.573 144.626C114.617 145.646 114.951 146.596 114.986 147.642C115.012 148.478 114.713 148.865 114.573 149.612C114.388 150.597 114.59 151.802 114.581 152.804C114.564 155.293 115.215 157.615 115.681 160.051C115.848 160.922 115.681 161.792 115.848 162.672C115.989 163.446 116.147 164.123 116.173 164.906C116.217 166.278 116.173 167.667 116.156 169.039C116.147 170.191 116.464 171.194 116.569 172.328C116.675 173.463 116.551 174.72 116.551 175.872V184.772C116.551 186.285 116.56 187.807 116.543 189.319C116.525 190.832 116.921 192.309 116.938 193.866C116.947 195 117.361 195.977 117.343 197.12C117.325 198.149 117.343 199.187 117.343 200.216C117.343 200.998 117.132 202.168 117.325 202.942C117.413 203.294 117.677 203.32 117.756 203.672C117.827 203.971 117.739 204.542 117.739 204.85C117.739 205.739 117.888 208.605 119.243 208.658C119.454 208.306 118.926 207.128 118.908 206.688C118.9 206.301 118.988 205.897 118.944 205.51C118.917 205.299 118.592 204.666 118.592 204.437C118.609 203.654 119.04 203.135 118.935 202.256C118.882 201.807 118.689 201.42 118.609 200.981C118.477 200.286 118.609 199.732 118.548 199.046C118.495 198.553 118.266 198.29 118.214 197.867C118.152 197.41 118.258 197.349 118.328 196.935C118.433 196.337 118.504 195.845 118.521 195.22C118.539 194.394 118.856 193.699 118.944 192.881C119.075 191.703 118.926 190.383 118.926 189.196C118.926 188.237 118.926 187.279 118.926 186.311C118.926 185.098 119.146 184.078 119.287 182.882C119.506 180.938 119.093 179.074 118.952 177.174C118.864 175.987 118.451 174.747 118.231 173.586C118.029 172.548 118.231 171.519 118.161 170.481C118.082 169.162 117.739 168.124 117.756 166.753C117.774 165.381 117.405 164.061 117.343 162.689C117.246 160.667 117.29 158.635 117.66 156.674C118.073 154.475 117.457 152.154 117.835 149.937C118.029 148.803 118.249 147.712 118.161 146.552C118.082 145.487 117.721 144.546 117.747 143.465C117.765 142.374 117.748 141.433 117.475 140.378C117.123 139.032 116.534 137.942 116.56 136.517C116.587 135.092 116.472 134.055 116.261 132.735C116.121 131.83 116.305 131.223 116.49 130.352C116.71 129.306 116.164 128.593 116.252 127.661C116.288 127.309 116.56 126.975 116.595 126.597C116.666 125.902 116.349 125.26 116.34 124.574C116.323 123.185 117.062 121.936 116.938 120.502C116.815 119.007 116.56 117.653 116.569 116.14C116.578 113.555 116.798 110.864 116.27 108.331C115.848 106.317 115.373 104.145 115.382 102.095C115.399 99.8352 115.61 97.4168 115.355 95.183C115.188 93.7407 114.634 92.3951 114.59 90.944C114.573 90.3108 114.608 89.6776 114.599 89.0356C114.59 87.7076 115.338 86.5731 114.916 85.21C114.678 85.3155 114.458 85.4211 113.421 84.4009H113.394Z" fill="white"/>
<path d="M136.225 205.237C136.409 205.22 136.559 205.141 136.656 205C136.62 205.528 136.365 206.099 136.172 206.592C135.882 207.357 135.846 207.867 135.838 208.711C135.82 210.083 135.38 211.455 135.073 212.765C134.932 213.355 134.985 214.208 135.029 214.823C135.064 215.386 135.099 215.624 135.029 216.239C134.905 217.347 135.011 218.596 135.029 219.722C135.046 220.346 135.266 220.689 135.389 221.27C135.512 221.806 135.424 222.448 135.424 223.011C135.424 224.172 135.424 225.324 135.424 226.485V233.432C135.917 233.978 135.759 234.303 136.014 234.98C136.286 235.728 136.726 236.229 137.113 236.906C137.799 238.111 138.335 239.334 138.969 240.574C140.367 243.291 141.449 246.149 142.319 249.069C142.609 250.054 142.504 251.083 142.9 251.98C143.295 252.877 144.131 253.66 144.588 254.583C144.79 254.988 144.905 255.392 145.072 255.832C145.186 256.14 145.573 256.518 145.635 256.826C145.784 257.503 145.476 257.591 145.257 258.127C145.142 258.426 144.773 259.341 144.878 259.684C145.125 260.528 145.758 261.346 145.969 262.173C146.18 263 146.057 263.87 146.057 264.706C146.057 266.482 145.74 268.575 146.092 270.308C146.198 270.809 146.444 271.117 146.461 271.662C146.479 272.075 146.426 272.401 146.541 272.823C146.743 273.597 146.848 274.415 147.042 275.136C147.446 276.64 147.235 278.522 147.235 280.158C147.877 279.991 147.358 281.292 147.807 281.609C148.563 282.136 149.416 281.952 150.181 282.312C151.817 283.086 153.4 283.799 155.106 284.405C155.696 284.616 156.162 284.88 156.681 285.17C157.199 285.461 157.586 285.461 158.167 285.645C159.319 285.997 159.855 287.14 159.829 288.266C160.023 288.257 160.559 288.943 160.647 288.794C160.55 289.788 160.867 290.43 161.06 291.388C161.28 292.505 161.544 293.666 161.896 294.748C162.16 295.557 162.749 298.265 161.781 298.934C161.799 298.723 161.799 298.512 161.799 298.301C161.799 295.953 162.986 292.866 162.555 290.579C162.45 290.025 162.23 289.603 162.186 289.04C162.151 288.548 162.327 287.95 162.212 287.475C162.16 287.264 161.896 286.49 161.808 286.323C161.606 285.936 161.509 285.663 161.008 285.557C159.776 285.733 158.615 283.236 157.569 282.761C156.443 282.242 155.441 281.873 154.394 281.213C153.427 280.606 152.468 280.122 151.386 279.718C150.806 279.498 150.63 279.454 149.962 279.393C149.434 279.34 149.038 278.926 148.528 278.962C148.766 279.076 148.985 279.217 149.188 279.384C149.188 278.364 148.792 276.183 148.792 275.154C148.792 273.852 149.065 272.243 148.81 270.967C148.59 269.815 148.124 268.707 147.983 267.511C147.895 266.816 148.097 266.157 147.913 265.471C147.772 264.961 147.631 264.688 147.605 264.125C147.526 262.331 147.605 260.511 147.605 258.717C147.605 257.767 147.605 256.914 147.411 256.017C147.218 255.12 147.227 254.328 146.822 253.51C146.479 252.816 146.453 251.716 146.057 251.004C145.705 250.371 145.239 249.957 144.94 249.271C144.685 248.7 144.597 248.031 144.465 247.433C144.008 245.375 143.005 243.238 142.117 241.312C141.325 239.606 140.041 238.173 139.268 236.519C139.144 236.264 138.74 235.895 138.643 235.666C138.511 235.332 138.582 235.015 138.476 234.681C138.318 234.162 137.597 233.265 137.772 232.667C136.902 231.902 137.781 230.047 137.772 229.106C137.755 227.813 137.57 226.309 137.86 225.043C138.168 223.697 138.151 222.413 138.168 221.015C138.177 219.502 137.772 218.174 137.772 216.653C137.772 215.501 137.676 214.656 137.412 213.583C137.148 212.51 137.588 211.218 137.342 210.092C137.262 209.723 137.104 208.896 136.946 208.579C136.779 208.245 136.374 208.096 136.225 207.753C136.031 207.322 136.269 206.732 136.163 206.275C136.093 205.958 135.275 205.36 136.198 205.273L136.225 205.237Z" fill="white"/>
<path d="M166.539 326.461C166.557 325.537 166.135 325.062 166.143 324.139C166.152 323.215 166.143 322.336 166.143 321.439C166.143 319.68 165.721 318.176 165.748 316.417C165.757 315.538 165.361 314.878 165.334 314.016C165.308 313.155 165.669 312.592 165.765 311.791C165.827 311.272 165.748 310.692 165.748 310.173C165.748 309.1 165.757 308.036 165.748 306.963C165.73 305.741 166.064 304.888 165.844 303.692C165.563 302.223 165.352 300.605 165.361 299.119C165.361 298.221 165.501 297.228 165.378 296.348C165.299 295.75 165.018 295.214 164.947 294.607C164.886 294.053 164.965 293.437 164.965 292.866C164.965 291.74 165.062 290.597 164.877 289.489C164.64 288.046 164.648 286.709 164.578 285.241C164.525 284.08 164.165 283.077 164.182 281.881C164.191 281.248 163.136 275.189 164.121 275.162C164.209 275.409 164.094 275.514 163.787 275.488C163.787 275.277 163.787 274.679 163.769 274.468C164.455 274.881 164.719 277.036 164.868 277.809C165.167 279.287 165.739 280.685 166.055 282.145C166.328 283.394 165.501 284.282 165.836 285.522C166.135 286.622 166.398 287.862 166.557 289.005C166.706 290.087 166.935 290.922 166.926 292.092C166.926 292.945 166.759 293.956 166.909 294.783C167.005 295.337 167.26 295.741 167.331 296.304C167.41 296.946 167.269 297.623 167.313 298.265C167.375 299.25 167.92 300.068 168.131 300.939C168.342 301.81 168.105 303.085 168.113 304.017C168.131 305.618 167.709 307.086 167.718 308.687C167.735 310.798 168.237 312.732 168.122 314.852C168.087 315.45 167.814 315.819 167.7 316.391C167.577 316.998 167.929 317.218 168.025 317.64C168.245 318.616 167.973 319.654 168.105 320.647C168.175 321.184 168.412 321.307 168.527 321.773C168.65 322.266 168.368 322.864 168.483 323.356C168.597 323.849 168.879 323.91 168.914 324.482C168.958 325.097 166.61 325.845 166.53 326.425L166.539 326.461Z" fill="#D28F00"/>
<path d="M199.606 116.061L199.589 115.832C200.125 116.307 200.371 117.037 200.881 117.521C201.532 118.154 202.341 118.647 202.975 119.341C203.608 120.036 203.924 120.59 204.646 121.171C205.2 121.619 205.613 122.288 206.097 122.807C206.721 123.484 207.17 124.108 207.873 124.636C208.726 125.269 209.289 125.99 209.852 126.87C210.582 128.022 211.795 128.62 211.822 129.956C211.839 130.871 211.91 131.381 212.314 132.181C212.508 132.56 212.798 132.973 212.912 133.413C213.053 133.976 212.895 134.442 212.983 134.987C213.088 135.655 213.387 136.183 213.414 136.904C213.44 137.66 213.396 138.434 213.396 139.191C213.396 141.363 213.396 143.535 213.396 145.707C213.396 148.803 213.378 151.82 213.827 154.845C214.047 156.358 214.311 157.87 214.583 159.383C215.014 161.819 214.979 164.185 214.979 166.656C214.979 167.553 214.882 168.503 215.014 169.391C215.111 170.068 215.34 170.657 215.384 171.343C215.463 172.68 215.428 173.744 215.683 175.046C216.061 177.025 215.771 179.294 215.771 181.307C215.771 182.495 215.806 183.691 215.779 184.878C215.762 185.731 215.436 186.417 215.357 187.261C215.278 188.106 215.375 188.976 215.375 189.812C215.375 191.747 215.375 193.681 215.375 195.616C215.375 196.654 214.926 195.845 215.375 196.751C215.181 196.759 215.041 196.839 214.953 196.988C215.041 196.082 214.979 195.15 214.979 194.235C214.979 193.277 214.812 192.749 214.575 191.931C214.451 191.518 214.399 190.999 214.275 190.568C214.152 190.137 214.126 189.68 214.223 189.214C214.425 188.255 214.583 187.543 214.583 186.514C214.583 184.298 214.548 182.284 214.144 180.103C213.449 176.418 213.537 172.68 212.807 168.986C212.182 165.82 212.904 162.478 212.314 159.304C212.059 157.941 211.822 156.613 211.514 155.285C211.171 153.754 211.743 152.347 211.523 150.923C211.004 147.581 211.655 144.124 211.127 140.774C210.81 138.742 210.547 136.684 210.142 134.67C209.993 133.923 209.984 131.311 209.06 131.126C209.201 130.889 209.298 130.678 209.395 130.449C208.884 130.027 208.682 129.543 208.278 129.183C207.847 128.787 207.319 128.514 206.888 128.022C206.017 127.028 205.059 126.104 204.144 125.155C202.491 123.44 201.189 121.408 199.615 119.623C199.052 118.99 198.454 118.629 197.944 117.987C197.891 117.917 197.293 117.248 197.249 117.222C196.924 116.976 197.61 116.36 196.854 116.457L196.625 116.483C197.443 115.446 197.249 114.408 196.845 113.379C196.44 112.35 196.467 111.136 196.467 109.896C196.467 108.445 196.66 106.871 196.431 105.446C196.115 103.45 195.658 101.401 195.675 99.3692C195.693 97.3377 195.279 95.6315 195.279 93.6704C195.279 92.2632 194.998 90.9705 194.936 89.6337C194.866 88.165 194.532 86.5117 194.787 85.1749C194.919 84.4889 194.954 83.9349 195.183 83.2665C195.35 82.7652 195.64 82.1848 195.279 81.7187C195.394 81.7451 195.508 81.0063 195.622 81.0327C195.57 81.4724 195.016 81.622 194.866 82.0705C194.664 82.6685 194.884 83.7854 194.884 84.4098C194.884 87.013 195.077 89.5369 195.666 92.0786C196.291 94.7961 196.88 97.7598 196.854 100.539C196.836 102.271 197.091 103.784 197.249 105.481C197.355 106.625 197.548 108.023 198.041 108.973C198.569 109.993 198.683 111.136 198.815 112.236C198.885 112.781 199.114 113.053 199.237 113.564C199.395 114.258 199.026 114.522 198.92 115.015C198.736 115.868 199.879 117.24 198.788 117.864C199.026 117.723 199.641 116.36 199.615 116.088L199.606 116.061Z" fill="white"/>
<path d="M229.129 170.103C228.813 169.461 228.523 168.978 228.822 168.204C229.393 168.292 229.129 170.288 229.129 170.842C229.129 172.196 229.05 173.568 229.112 174.923C229.165 176.189 229.499 177.42 229.543 178.687C229.639 181.448 229.525 184.245 229.525 187.006C229.525 187.938 229.525 188.871 229.525 189.803C229.525 190.797 229.27 191.834 229.305 192.793C229.349 193.972 229.525 195.141 229.525 196.346C229.525 197.287 229.34 198.422 229.508 199.345C229.639 200.057 230.088 200.611 230.237 201.333C230.387 202.054 230.22 202.845 230.396 203.601C230.572 204.358 230.967 205.017 231.073 205.8C231.17 206.53 231.108 207.286 231.099 208.025C231.091 210.778 231.425 213.733 230.897 216.415C230.598 217.936 231.126 219.22 231.099 220.751C231.064 222.474 231.689 223.996 231.882 225.693C232.04 227.065 232.278 228.244 232.278 229.633C232.278 231.119 232.287 232.615 232.278 234.101C232.278 235.068 232.374 236 232.656 236.897C232.753 237.214 232.999 237.302 233.078 237.627C233.184 238.076 233.052 238.727 233.06 239.193C233.087 238.894 232.981 238.788 232.735 238.859C232.726 239.413 233.667 239.817 234.037 240.151C234.802 240.829 235.435 241.655 236.218 242.306C237.255 243.168 238.346 243.273 239.164 244.408C239.753 245.235 240.501 245.903 241.231 246.624C241.776 247.161 242.717 247.794 242.901 248.462C242.796 248.48 243.077 250.054 242.972 250.072C242.26 252.446 243.306 255.296 243.297 257.723C243.297 258.62 243.297 259.526 243.297 260.423C243.297 261.487 243.711 262.111 243.693 263.123C243.614 263.105 244.326 263.079 244.247 263.061C244.968 261.715 244.15 260.168 244.054 258.805C243.966 257.564 244.493 256.527 244.52 255.322C244.537 254.372 244.124 253.475 244.071 252.534C244.018 251.575 243.605 247.205 244.775 246.95L244.871 247.301C243.922 247.108 243.719 244.012 243.121 243.441C242.004 242.385 240.861 241.33 240.149 239.949C239.533 238.762 238.46 238.093 237.396 237.284C237.053 237.021 234.802 234.655 236.218 234.558C235.945 233.767 235.461 233.397 235.426 232.456C235.4 231.876 235.461 231.295 235.444 230.715C235.417 229.765 235.083 228.903 235.013 227.971C234.934 226.845 235.576 225.983 235.444 224.902C235.321 223.908 235.022 223.09 235.03 222.017C235.057 219.168 234.292 216.248 233.456 213.522C233.245 212.836 232.893 212.088 232.735 211.402C232.577 210.681 232.849 210.162 232.981 209.45C233.113 208.737 232.911 208.5 232.753 207.84C232.559 207.031 232.665 206.143 232.665 205.308C232.665 204.798 232.779 204.156 232.682 203.654C232.586 203.153 232.313 202.836 232.304 202.317C232.304 201.887 232.383 201.623 232.322 201.157C232.26 200.655 232.084 200.277 231.961 199.802C231.856 199.398 231.768 198.852 231.856 198.439C231.935 198.087 232.155 197.929 232.234 197.612C232.374 197.032 232.181 196.663 232.067 196.135C231.891 195.352 231.873 194.657 231.873 193.831C231.873 193.435 231.838 193.022 231.856 192.626C231.891 191.931 232.26 191.324 232.199 190.63C232.111 189.618 231.873 188.695 231.873 187.639C231.873 185.617 231.68 183.928 231.17 182.037C230.932 181.149 231.073 180.067 231.082 179.144C231.09 178.053 230.765 177.104 230.695 176.022C230.616 174.632 229.93 173.639 229.49 172.381C229.349 171.976 228.751 170.763 228.909 170.473C228.663 170.165 229.085 169.365 229.112 168.916C229.138 168.388 228.918 167.738 229.323 167.315C229.2 167.43 229.129 169.901 229.103 170.077L229.129 170.103Z" fill="white"/>
<path d="M150.56 94.2946C150.648 95.4819 156.047 125.48 156.047 125.48L164.235 148.337L167.278 187.217C167.278 187.217 144.289 194.578 148.766 217.919C153.251 241.259 173.417 242.403 173.417 242.403L173.979 265.743L176.785 277.132L174.657 322.547L189.115 313.005L185.192 276.569L186.309 242.851C186.309 242.851 208.726 238.419 208.164 217.356C207.601 196.293 200.882 191.738 194.154 188.888C187.426 186.039 180.514 183.013 180.514 183.013L174.261 165.125L174.164 143.429L162.045 116.817L161.65 84.1194L154.931 93.8285L150.551 94.2946H150.56Z" fill="white"/>
<path d="M167.779 185.186C154.298 189.785 144.773 203.98 146.532 218.534C148.291 233.133 160.779 244.531 174.991 245.771C178.227 246.052 178.21 240.925 174.991 240.644C163.321 239.624 152.882 229.783 151.518 217.857C150.155 205.932 158 193.936 169.125 190.146C172.186 189.099 170.875 184.148 167.779 185.195V185.186Z" fill="#D28F00"/>
<path d="M185.043 245.797C200.89 243.977 212.323 229.58 211.224 213.451C210.081 196.689 197.267 183.893 181.516 180.384C178.35 179.68 176.996 184.623 180.171 185.335C193.186 188.238 204.347 198.158 206.035 212.062C207.671 225.57 198.797 239.096 185.034 240.67C181.842 241.04 181.806 246.167 185.034 245.797H185.043Z" fill="#D28F00"/>
<path d="M148.722 93.4769L154.763 126.236L162.81 149.515L166.83 187.393L170.611 187.807L165.22 147.941L156.769 124.662L151.545 94.2772L148.722 93.4769Z" fill="#D28F00"/>
<path d="M158.809 86.2126L160.823 116.985L172.493 144.212L174.103 165.126L178.482 184.21L182.15 181.694L177.321 163.938L175.308 143.025C175.308 143.025 162.028 117.38 162.432 116.193C162.837 115.006 162.432 81.8682 162.432 81.8682L158.809 86.2126Z" fill="#D28F00"/>
<path d="M172.08 244.434L173.294 268.109L174.903 276.789L174.499 322.556L178.518 319.399L178.122 280.729L176.249 263.694L177.348 243.678L172.08 244.434Z" fill="#D28F00"/>
<path d="M209.896 251.145L209.096 303.613L219.957 296.515L213.273 247.539L209.896 251.145Z" fill="white"/>
<path d="M182.827 244.1L184.155 261.795L183.75 274.811L188.578 315.45L191.797 313.48L187.373 274.811L188.983 242.851L182.827 244.1Z" fill="#D28F00"/>
<path d="M127.826 88.5872C130.253 88.6839 137.887 90.5571 137.887 90.5571L138.388 144.485L134.325 143.913L127.834 88.5872H127.826Z" fill="white"/>
<path d="M211.91 301.643C212.315 300.455 209.896 251.136 209.896 251.136L212.306 250.344L217.934 297.298C217.934 297.298 219.948 297.694 219.948 296.507C219.948 295.319 214.32 245.613 214.32 245.613L207.882 247.583L209.087 303.612L211.901 301.643H211.91Z" fill="#D28F00"/>
<path d="M178.737 230.821C187.771 230.821 195.095 223.521 195.095 214.516C195.095 205.511 187.771 198.211 178.737 198.211C169.703 198.211 162.379 205.511 162.379 214.516C162.379 223.521 169.703 230.821 178.737 230.821Z" fill="#FFCA1B"/>
<path d="M127.826 88.5872L133.058 146.587H140.701L140.305 91.7356L137.887 90.5571V140.668H135.477L131.449 89.3699L127.826 88.5872Z" fill="#D28F00"/>
<path d="M178.535 233.441C168.254 233.441 159.899 224.946 159.899 214.507C159.899 204.068 168.263 195.572 178.535 195.572C188.807 195.572 197.17 204.068 197.17 214.507C197.17 224.946 188.807 233.441 178.535 233.441ZM178.535 200.444C170.91 200.444 164.701 206.75 164.701 214.498C164.701 222.246 170.901 228.552 178.535 228.552C186.169 228.552 192.369 222.246 192.369 214.498C192.369 206.75 186.169 200.444 178.535 200.444Z" fill="#D28F00"/>
<path d="M95.1893 80.7599L113.711 73.7596C117.237 72.4228 115.707 66.6976 112.136 68.0519L93.6151 75.0523C90.0885 76.3891 91.6188 82.1143 95.1893 80.7599Z" fill="black"/>
<path d="M112.735 73.5222C126.999 78.8869 141.387 83.9437 155.573 89.5194C159.117 90.9177 160.656 85.1925 157.147 83.8118C142.961 78.2361 128.582 73.1705 114.309 67.8146C110.738 66.4691 109.199 72.1943 112.735 73.5222Z" fill="black"/>
<path d="M158.985 88.385C165.273 78.7902 171.526 69.169 177.814 59.5742C179.124 57.5779 175.923 55.7223 174.621 57.7098C168.333 67.3046 162.08 76.9258 155.792 86.5206C154.482 88.5169 157.683 90.3726 158.985 88.385Z" fill="black"/>
<path d="M176.152 60.3481L186.696 60.1985C187.664 60.181 188.596 59.3543 188.543 58.3517C188.49 57.3492 187.734 56.4873 186.696 56.5049L176.152 56.6544C175.184 56.672 174.252 57.4986 174.305 58.5012C174.358 59.5038 175.114 60.3657 176.152 60.3481Z" fill="black"/>
<path d="M261 142L250 144L230 119H239L261 142Z" fill="#965B00"/>
<path d="M237 117H225L205 92.0001H214L237 117Z" fill="#FFDD55"/>
<path d="M185.157 61.5969C225.243 104.804 265.407 147.941 305.492 191.149C308.087 193.945 312.273 189.75 309.678 186.962C269.593 143.755 229.429 100.618 189.343 57.4107C186.749 54.614 182.563 58.809 185.157 61.5969Z" fill="black"/>
<path d="M282.055 333.918C290.691 285.909 300.11 238.041 310.32 190.339C311.112 186.619 305.413 185.036 304.613 188.765C294.411 236.467 284.984 284.335 276.347 332.344C275.679 336.073 281.378 337.665 282.055 333.918Z" fill="black"/>
<path d="M277.394 330.981C273.788 333.47 270.051 335.783 266.251 337.955C262.945 339.846 265.926 344.964 269.241 343.065C273.041 340.883 276.778 338.571 280.384 336.09C283.506 333.945 280.542 328.809 277.394 330.981Z" fill="black"/>
<path d="M232.199 330.339C243.632 335.062 255.188 339.503 266.946 343.346C270.024 344.357 271.519 340.497 269.831 338.395L269.373 337.823C266.981 334.859 262.813 339.072 265.187 342.009L265.644 342.581L268.529 337.63C256.771 333.786 245.215 329.345 233.782 324.623C230.264 323.171 228.734 328.897 232.208 330.33L232.199 330.339Z" fill="black"/>
<path d="M235.981 327.604C235.101 319.486 234.398 311.369 234.178 303.208C234.081 299.409 228.154 299.391 228.259 303.208C228.479 311.369 229.183 319.486 230.062 327.604C230.467 331.35 236.394 331.394 235.981 327.604Z" fill="black"/>
<path d="M165.238 340.91C187.62 329.09 210.204 317.648 232.586 305.829C235.954 304.052 232.964 298.934 229.596 300.719C207.214 312.539 184.63 323.98 162.248 335.8C158.879 337.577 161.869 342.695 165.238 340.91Z" fill="black"/>
<path d="M103.008 302.874L161.755 340.567C164.974 342.634 167.946 337.506 164.745 335.457L105.998 297.764C102.779 295.697 99.8065 300.825 103.008 302.874Z" fill="black"/>
<path d="M107.343 299.25C104.934 256.052 101.451 212.924 99.0414 169.716C98.8303 165.926 92.9116 165.9 93.1227 169.716C95.5324 212.915 99.015 256.043 101.425 299.25C101.636 303.041 107.554 303.067 107.343 299.25Z" fill="black"/>
<path d="M98.9272 170.807C102.339 165.697 105.426 160.385 108.592 155.118C110.554 151.846 105.444 148.865 103.483 152.127C100.326 157.395 97.2387 162.707 93.8176 167.817C91.6894 170.992 96.8165 173.964 98.9272 170.807Z" fill="black"/>
<path d="M93.7913 141.688C96.8694 146.595 100.176 151.318 103.87 155.777C106.306 158.714 110.466 154.502 108.056 151.591C104.679 147.519 101.715 143.174 98.9009 138.698C96.8782 135.479 91.751 138.443 93.7913 141.688Z" fill="black"/>
<path d="M96.9924 140.51C96.7374 124.143 95.9898 107.785 95.5237 91.4189C95.3918 86.7402 95.2775 82.0616 95.2071 77.3829C95.172 74.9996 91.4695 74.9996 91.5046 77.3829C91.7597 93.7495 92.5072 110.107 92.9733 126.474C93.1052 131.152 93.2196 135.831 93.2899 140.51C93.3251 142.893 97.0276 142.893 96.9924 140.51Z" fill="black"/>
<path d="M94.4423 80.0918C109.595 84.1724 124.783 88.1123 139.945 92.1314C144.149 93.2483 148.353 94.3652 152.548 95.4909C154.852 96.1065 155.828 92.5447 153.532 91.9203C138.38 87.8397 123.191 83.8997 108.03 79.8806C103.826 78.7637 99.6223 77.6468 95.4273 76.5211C93.1231 75.9055 92.1469 79.4674 94.4423 80.0918Z" fill="black"/>
<path d="M154.236 95.1038C156.294 92.914 157.71 90.2757 159.451 87.8484C159.715 87.479 159.75 86.8458 159.636 86.4237C159.521 86.0015 159.187 85.5266 158.783 85.3156C157.824 84.8143 156.857 85.1397 156.25 85.9751C155.493 87.0305 154.816 88.1474 154.104 89.2379C153.699 89.8447 153.286 90.4427 152.855 91.032C152.794 91.1111 152.732 91.1815 152.679 91.2606C152.732 91.1903 152.908 90.9704 152.75 91.1639C152.626 91.3134 152.503 91.4717 152.38 91.6212C152.134 91.9203 151.879 92.2105 151.606 92.4919C150.947 93.1955 150.859 94.4179 151.606 95.1126C152.354 95.8074 153.515 95.869 154.227 95.1126L154.236 95.1038Z" fill="black"/>
<path d="M177.664 61.0165C192.281 78.7198 206.906 96.4231 221.672 114.012C236.438 131.601 251.362 149.058 266.568 166.269C275.169 175.996 283.858 185.643 292.661 195.194C294.279 196.944 296.891 194.323 295.282 192.573C279.707 175.688 264.484 158.477 249.498 141.073C234.512 123.668 219.764 106.071 205.094 88.4025C196.801 78.4208 188.543 68.4126 180.276 58.4045C179.643 57.6306 178.315 57.7449 177.656 58.4045C176.891 59.1696 177.014 60.2513 177.656 61.0252L177.664 61.0165Z" fill="black"/>
<path d="M267.931 339.617L278.757 283.042L289.548 226.687L295.625 194.948C296.073 192.617 292.503 191.623 292.054 193.963L281.228 250.538L270.437 306.893L264.36 338.632C263.912 340.963 267.482 341.956 267.931 339.617Z" fill="black"/>
<path d="M158.923 334.525L216.272 302.205L232.331 293.156C234.406 291.986 232.542 288.785 230.466 289.963L173.117 322.283L157.059 331.333C154.983 332.502 156.848 335.704 158.923 334.525Z" fill="black"/>
<path d="M229.877 292.083L230.422 303.287C230.466 304.254 231.24 305.187 232.269 305.134C233.228 305.09 234.169 304.316 234.116 303.287L233.571 292.083C233.527 291.116 232.753 290.183 231.724 290.236C230.765 290.28 229.824 291.054 229.877 292.083Z" fill="black"/>
</svg>
