<svg width="400" height="400" viewBox="0 0 400 400" fill="none" xmlns="http://www.w3.org/2000/svg">
<path d="M139.354 294.745C139.568 294.092 154.154 272.978 154.154 272.978C154.154 272.978 185.06 254.7 208.999 243.592C232.939 232.494 241.425 228.578 242.078 228.792C242.731 229.006 287.131 224.436 287.131 224.436L241.639 274.926C241.639 274.926 233.153 281.24 226.186 284.718C219.219 288.196 207.908 292.113 207.908 292.113L139.354 294.724V294.745Z" fill="#033131"/>
<path d="M154.593 285.82L162.426 275.59L248.402 235.544L269.73 232.281C269.73 232.281 254.491 252.517 246.005 260.575C237.519 268.634 231.205 275.376 223.81 278.854C216.415 282.332 183.326 287.993 172.229 287.779C161.131 287.565 154.603 285.82 154.603 285.82H154.593Z" fill="#C33F01"/>
<path d="M123.676 138.835L169.725 118.748L179.613 104.836C179.613 104.836 232.468 131.729 233.399 131.729C234.33 131.729 252.876 182.422 252.876 182.422L267.29 223.933L242.056 227.55L154.582 272.336L123.676 138.835Z" fill="#014948"/>
<path d="M126.565 157.188L154.4 274.091C154.4 274.091 137.406 296.361 137.695 295.184C137.984 294.007 128.32 269.104 128.32 269.104L137.106 244.791L113.959 190.876L125.388 164.219L126.565 157.188Z" fill="#043232"/>
<path d="M250.2 177.114C250.489 177.992 266.017 225.453 266.017 225.453C266.017 225.453 286.821 224.276 286.821 223.398C286.821 222.521 270.116 184.723 270.116 184.723L255.754 184.134L250.189 177.103L250.2 177.114Z" fill="#043232"/>
<path d="M263.898 224.329L253.56 192.92L255.957 194.022L267.29 223.922L263.898 224.329Z" fill="#010002"/>
<path d="M161.27 220.53L177.804 259.944L175.311 261.528L159.451 220.07L161.27 220.53Z" fill="#010002"/>
<path d="M178.254 236.154L178.885 237.61L186.408 254.957L188.003 254.058L179.271 235.962L178.254 236.154Z" fill="#010002"/>
<path d="M141.152 250.516C141.152 250.516 143.57 254.7 144.458 256.016C145.347 257.333 145.336 259.762 144.683 261.742C144.02 263.722 141.826 270.11 141.376 271.865C140.938 273.631 140.938 275.825 141.601 277.591C142.265 279.356 143.142 281.989 142.703 281.989C142.265 281.989 141.162 280.009 140.285 277.805C139.407 275.6 138.744 273.406 140.285 268.334C141.826 263.272 142.265 261.945 142.265 260.404C142.265 258.863 139.183 254.903 139.183 254.903L141.162 250.505L141.152 250.516Z" fill="#FF5402"/>
<path d="M172.186 162.678C172.143 162.442 171.897 162.292 171.769 162.1C171.64 161.907 171.608 161.586 171.48 161.404C171.362 161.244 171.148 161.137 171.03 160.976C170.87 160.751 170.795 160.495 170.645 160.259C170.409 159.874 170.035 159.531 169.767 159.157C169.553 158.868 169.2 158.172 168.826 158.429C168.387 158.729 168.697 159.778 168.89 160.131C169.136 160.591 169.393 160.998 169.714 161.404C170.003 161.779 170.195 162.399 170.399 162.817C170.645 163.309 170.763 163.78 171.03 164.272C171.576 165.278 171.961 166.37 172.432 167.408C172.967 168.574 173.491 169.741 173.92 170.939C174.679 173.026 175.91 174.942 176.798 176.975C177.119 177.713 177.472 178.462 177.847 179.201C177.997 179.49 178.05 179.789 178.168 180.089C178.232 180.26 178.329 180.324 178.403 180.474C178.489 180.646 178.489 180.806 178.553 180.967C178.971 181.951 179.891 182.936 180.223 184.016C180.394 184.594 180.64 185.033 180.854 185.6C181.111 186.253 181.443 186.884 181.646 187.537C181.849 188.19 181.914 188.779 182.277 189.324C182.481 189.624 182.609 189.967 182.791 190.277C182.973 190.587 183.069 190.758 183.241 191.069C183.829 192.16 184.043 193.305 184.3 194.472C184.332 194.622 184.471 194.632 184.514 194.804C184.546 194.953 184.461 195.125 184.493 195.264C184.535 195.467 184.653 195.713 184.728 195.917C184.931 196.494 185.017 197.147 185.188 197.768C185.285 198.089 185.392 198.164 185.392 198.56C185.392 198.87 185.392 199.181 185.392 199.491C185.392 199.983 185.392 200.475 185.392 200.968C185.392 201.514 185.499 201.867 185.595 202.402C185.702 203.001 185.616 203.675 185.616 204.296C185.616 205.098 185.67 205.912 185.616 206.714C185.595 207.196 185.413 207.645 185.381 208.127C185.359 208.555 185.381 208.983 185.381 209.411C185.381 210.16 185.499 211.049 185.327 211.776C185.188 212.418 185.167 213.06 185.049 213.724C184.963 214.184 184.782 214.634 184.707 215.083C184.568 215.907 184.717 216.881 184.717 217.716C184.717 218.818 184.717 219.909 184.471 220.99C184.418 221.226 184.268 221.493 184.257 221.729C184.247 221.964 184.407 222.114 184.461 222.328C184.632 223.056 184.268 223.933 184.279 224.714C184.289 225.431 184.236 226.073 184.118 226.769C184.065 227.09 184.172 227.647 184.054 227.936C183.958 228.171 183.711 228.235 183.615 228.492C183.497 228.845 183.733 229.134 183.84 229.423C184.161 230.236 184.172 231.157 184.3 232.002C184.439 232.89 184.685 233.746 184.942 234.613C185.071 235.031 185.156 235.384 185.167 235.833C185.167 236.176 185.124 236.497 185.21 236.829C185.231 236.925 185.349 237.075 185.392 237.203C185.434 237.331 185.37 237.492 185.402 237.631C185.434 237.77 185.563 237.813 185.606 237.974C185.659 238.155 185.595 238.348 185.702 238.541C185.927 238.958 186.462 239.044 186.708 239.515C186.815 239.707 186.879 240.167 186.922 240.381C187.029 240.895 187.072 241.419 187.168 241.944C187.264 242.468 188.035 244.994 188.698 244.823C189.394 244.651 189.137 243.453 188.977 242.993C188.656 242.062 188.688 241.098 188.474 240.157C188.334 239.536 187.949 239.097 187.757 238.455C187.671 238.177 187.65 238.048 187.607 237.706C187.575 237.385 187.468 237.31 187.371 237.043C187.232 236.657 187.2 236.358 187.093 235.972C186.879 235.18 186.708 234.517 186.708 233.672C186.708 232.976 186.547 231.949 186.579 231.264C186.612 230.622 187.093 230.236 187.222 229.616C187.296 229.284 187.2 228.963 187.286 228.62C187.414 228.139 187.393 227.807 187.446 227.304C187.5 226.705 187.692 226.18 187.682 225.56C187.682 224.554 188.752 223.698 188.623 222.703C188.516 221.911 188.409 221.097 188.559 220.295C188.602 220.07 188.709 219.909 188.741 219.663C188.795 219.299 188.677 218.914 188.72 218.55C188.773 218.112 188.944 217.737 188.955 217.288C188.966 216.838 188.934 216.453 188.998 216.025C189.233 214.601 189.169 213.146 189.169 211.68C189.169 211.016 189.084 210.278 189.158 209.625C189.212 209.208 189.362 208.844 189.394 208.427C189.426 208.009 189.565 207.688 189.619 207.271C189.683 206.779 189.608 206.222 189.619 205.73C189.619 205.109 189.415 204.606 189.383 204.007C189.362 203.6 189.565 203.343 189.629 202.969C189.758 202.295 189.619 201.449 189.619 200.764C189.619 199.887 189.351 199.288 189.351 198.41C189.351 198.153 189.437 197.779 189.351 197.533C189.265 197.265 188.998 197.126 188.848 196.89C188.634 196.569 188.506 196.184 188.249 195.885C187.992 195.585 187.671 195.36 187.361 195.114C186.826 194.707 186.43 193.787 186.194 193.156C185.884 192.342 185.22 191.39 184.782 190.619C184.461 190.074 184.032 189.731 183.626 189.271C183.08 188.672 182.92 187.987 182.716 187.238C182.459 186.275 182.149 185.418 181.721 184.519C181.293 183.621 181.346 182.54 180.811 181.705C180.362 180.999 179.484 180.464 179.506 179.607C179.527 178.826 179.099 178.088 178.789 177.392C178.361 176.408 177.9 175.562 177.237 174.695C176.98 174.353 176.852 174.364 176.734 173.914C176.638 173.529 176.531 173.133 176.413 172.748C176.145 171.934 175.578 171.282 175.279 170.49C175.129 170.115 175.107 169.58 174.872 169.248C174.679 168.981 174.519 168.906 174.369 168.606C174.23 168.339 174.187 168.114 174.101 167.793C173.973 167.269 173.62 166.894 173.481 166.412C173.299 165.77 173.342 165.043 173.053 164.422C172.871 164.026 172.593 162.945 172.175 162.678H172.186Z" fill="#FF5402"/>
<path d="M197.548 134.415L197.452 134.436C197.27 135.046 197.934 135.571 198.126 136.106C198.212 136.331 198.212 136.587 198.298 136.801C198.394 137.037 198.64 137.315 198.79 137.529C199.036 137.872 199.389 138.16 199.603 138.514C199.742 138.749 199.806 138.985 199.924 139.241C200.042 139.498 200.202 139.68 200.309 139.916C200.524 140.386 200.812 140.793 201.133 141.189C201.315 141.414 201.433 141.681 201.615 141.895C201.829 142.131 201.925 142.345 202.097 142.623C202.353 143.03 202.567 143.436 202.846 143.822C202.921 143.918 203.028 144.025 203.092 144.132C203.156 144.25 203.167 144.41 203.242 144.517C203.359 144.688 203.648 144.763 203.573 145.02C203.552 145.02 203.648 145.02 203.616 145.02C203.948 144.999 204.344 145.395 204.622 145.534C205.007 145.726 205.35 145.941 205.735 146.133C205.992 146.262 206.26 146.369 206.516 146.476C206.645 146.529 206.816 146.604 206.944 146.647C207.094 146.7 207.255 146.69 207.426 146.732C207.704 146.797 208.079 146.925 208.325 147.064C208.71 147.278 208.946 147.696 209.288 147.963C210.059 148.552 210.968 148.862 211.76 149.418C212.242 149.761 212.606 150.243 213.098 150.585C213.397 150.799 213.654 151.024 213.922 151.259C214.029 151.355 214.157 151.42 214.275 151.495C214.457 151.602 214.585 151.751 214.757 151.869C215.11 152.105 215.591 152.287 215.998 152.404C216.383 152.522 216.586 152.629 216.897 152.886C217.132 153.078 217.443 153.239 217.657 153.453C217.86 153.656 217.956 153.892 218.202 154.063C218.459 154.234 218.705 154.309 218.941 154.459C219.123 154.566 219.487 154.63 219.636 154.78C219.743 154.887 219.701 154.973 219.679 155.122C219.679 155.155 219.583 155.197 219.572 155.262C219.572 155.369 219.679 155.529 219.69 155.636C219.743 155.946 219.733 156.278 219.84 156.567C219.947 156.856 220.268 157.199 220.46 157.434C220.546 157.541 220.6 157.659 220.685 157.766C220.728 157.819 220.835 157.841 220.878 157.905C220.921 157.969 220.899 158.076 220.931 158.151C220.985 158.29 221.103 158.376 221.177 158.504C221.295 158.697 221.327 158.921 221.424 159.125C221.841 160.056 222.141 161.072 222.451 162.057C222.579 162.474 222.793 162.828 222.965 163.213C223.05 163.405 223.136 163.609 223.2 163.812C223.328 164.155 223.318 164.497 223.403 164.839C223.564 165.492 223.607 166.166 223.746 166.83C223.799 167.087 223.81 167.333 223.885 167.579C224.003 167.932 224.249 168.178 224.409 168.499C224.548 168.788 224.57 169.109 224.645 169.409C224.73 169.751 224.848 170.094 224.966 170.436C225.18 171.068 225.308 171.721 225.533 172.352C225.758 172.983 225.907 173.668 226.207 174.289C226.635 175.156 226.988 176.097 227.352 176.996C227.63 177.681 227.834 178.398 228.101 179.083C228.315 179.618 228.476 180.153 228.583 180.71C228.668 181.159 228.626 181.587 228.733 182.037C228.818 182.369 228.85 182.775 229 183.086C229.107 183.31 229.236 183.407 229.311 183.663C229.353 183.813 229.396 183.963 229.439 184.113C229.546 184.423 229.642 184.723 229.696 185.012C229.749 185.333 229.749 185.558 230.06 185.675C230.21 185.739 230.242 185.739 230.391 185.707C230.413 185.707 230.488 185.622 230.531 185.611C230.638 185.59 230.777 185.675 230.873 185.6C231.044 185.472 231.012 185.022 231.012 184.841C231.012 184.487 230.969 184.209 230.894 183.877C230.787 183.428 230.616 182.989 230.509 182.529C230.327 181.769 230.07 181.02 229.867 180.271C229.717 179.736 229.685 179.169 229.546 178.623C229.289 177.606 229.086 176.579 228.701 175.594C228.551 175.22 228.497 174.824 228.347 174.449C228.24 174.182 228.091 173.925 227.984 173.668C227.716 173.047 227.438 172.512 227.32 171.827C227.213 171.196 227.117 170.608 226.881 170.008C226.517 169.088 225.95 168.275 225.608 167.344C225.372 166.712 225.126 166.092 224.934 165.449C224.827 165.107 224.762 164.765 224.645 164.433C224.484 163.973 224.356 163.555 224.152 163.106C224.035 162.838 223.971 162.549 223.928 162.26C223.874 161.929 223.756 161.65 223.692 161.329C223.607 160.933 223.692 160.58 223.553 160.184C223.414 159.788 223.307 159.414 223.136 159.018C222.74 158.097 222.515 157.081 222.226 156.128C222.023 155.476 221.787 154.748 221.884 154.063C221.959 153.56 222.098 153.132 222.098 152.618C222.098 152.04 221.648 151.751 221.349 151.302C221.252 151.163 221.22 150.981 221.113 150.842C221.006 150.703 220.846 150.606 220.717 150.499C220.386 150.21 219.957 149.932 219.562 149.74C218.984 149.461 218.534 148.98 217.956 148.702C217.603 148.541 217.239 148.402 216.886 148.273C216.437 148.102 216.041 147.76 215.602 147.556C215.345 147.428 215.045 147.417 214.789 147.3C214.542 147.193 214.339 147.011 214.104 146.904C213.9 146.807 213.676 146.786 213.462 146.7C213.237 146.604 213.066 146.433 212.841 146.326C212.573 146.208 212.295 146.187 212.017 146.122C211.674 146.048 211.386 145.823 211.032 145.769C210.315 145.652 209.588 145.545 208.86 145.427C208.485 145.363 208.111 145.459 207.768 145.288C207.522 145.159 207.265 144.977 207.051 144.795C206.623 144.421 206.12 144.303 205.607 144.068C205.254 143.907 204.718 143.843 204.43 143.565C204.194 143.34 204.055 142.858 203.927 142.559C203.777 142.216 203.691 141.767 203.445 141.467C203.199 141.168 202.899 140.889 202.653 140.568C202.514 140.376 202.439 140.194 202.321 139.99C202.193 139.755 201.968 139.637 201.818 139.423C201.54 139.049 201.754 138.663 201.604 138.278C201.455 137.893 200.941 137.765 200.716 137.443C200.491 137.122 200.331 136.769 200.063 136.48C199.881 136.288 199.839 136.116 199.689 135.913C199.496 135.656 199.154 135.517 198.972 135.271C198.79 135.025 198.822 134.65 198.661 134.394C198.512 134.169 198.255 134.18 198.062 134.083C197.977 134.222 197.763 134.18 197.634 134.265C197.495 134.372 197.388 134.597 197.452 134.757C197.538 134.672 197.57 134.554 197.548 134.426V134.415Z" fill="#FF5402"/>
<path d="M136.614 139.594H136.539C136.689 139.723 136.56 139.905 136.603 140.087C136.646 140.269 136.721 140.301 136.732 140.504C136.732 140.686 136.732 140.868 136.732 141.05C136.732 141.125 136.742 141.221 136.732 141.296C136.71 141.424 136.635 141.51 136.614 141.606C136.582 141.831 136.689 141.831 136.732 142.013C136.775 142.195 136.689 142.388 136.721 142.57C136.742 142.677 136.796 142.858 136.871 142.955C136.924 143.03 137.031 143.083 137.096 143.158C137.17 143.265 137.224 143.415 137.288 143.533C137.727 144.367 138.273 145.138 138.69 145.994C138.915 146.454 139.075 146.914 139.236 147.407C139.396 147.899 139.653 148.477 139.75 149.001C139.792 149.204 139.728 149.461 139.75 149.675C139.771 149.889 139.846 150.018 139.878 150.21C139.931 150.499 139.899 150.767 139.996 151.067C140.06 151.259 140.124 151.441 140.199 151.655C140.381 152.19 140.681 152.704 140.916 153.228C141.151 153.753 141.365 154.256 141.547 154.791C141.676 155.144 141.826 155.454 142.008 155.775C142.082 155.904 142.104 156.075 142.179 156.203C142.286 156.374 142.446 156.514 142.553 156.685C142.896 157.252 143.356 157.755 143.72 158.322C144.373 159.339 144.683 160.612 145.015 161.779C145.1 162.068 145.239 162.314 145.293 162.613C145.357 162.988 145.464 163.33 145.56 163.705C145.689 164.208 145.903 164.679 146.031 165.171C146.106 165.439 146.267 165.621 146.374 165.867C146.481 166.113 146.534 166.348 146.609 166.594C146.748 167.044 146.984 167.461 147.123 167.911C147.219 168.221 147.39 168.82 147.658 169.034C147.904 169.216 148.418 169.195 148.535 168.874C148.653 168.553 148.471 168.082 148.321 167.782C148.033 167.215 147.604 166.712 147.326 166.134C147.144 165.77 147.059 165.385 146.855 165.021C146.663 164.679 146.459 164.379 146.32 163.994C146.053 163.245 145.742 162.442 145.657 161.65C145.582 161.03 145.571 160.43 145.346 159.842C145.132 159.285 144.897 158.729 144.683 158.172C144.405 157.434 144.052 156.749 143.87 155.979C143.784 155.625 143.698 155.272 143.623 154.919C143.506 154.363 143.281 153.87 143.131 153.325C143.013 152.886 142.949 152.436 142.832 152.008C142.692 151.495 142.735 151.045 142.446 150.574C142.222 150.21 142.05 149.868 141.901 149.483C141.794 149.215 141.751 148.926 141.665 148.648C141.387 147.728 141.398 146.807 141.28 145.876C141.226 145.405 141.109 144.956 140.937 144.517C140.809 144.185 140.788 143.811 140.627 143.479C140.306 142.794 140.028 142.056 139.61 141.414C139.418 141.114 139.279 140.836 139.033 140.568C138.936 140.461 138.819 140.344 138.733 140.215C138.626 140.055 138.551 139.894 138.326 139.862C138.091 139.819 137.909 139.958 137.673 139.98C137.492 139.98 137.245 140.012 137.063 139.948C136.903 139.894 136.742 139.594 136.635 139.873C136.689 139.798 136.71 139.702 136.582 139.605L136.614 139.594Z" fill="#FF5402"/>
<path d="M127.496 217.491C128.16 217.491 140.488 241.27 142.029 243.688C143.57 246.107 143.345 249.628 142.029 252.271C140.713 254.914 132.344 276.05 132.344 276.05L130.364 271.865L137.845 248.311L135.865 240.167L127.496 217.491Z" fill="#FEFEFE"/>
<path d="M182.973 108.517C182.973 108.517 176.146 122.386 173.288 125.03C170.431 127.673 128.824 143.297 128.824 143.297C128.824 143.297 131.906 158.044 131.906 160.473C131.906 162.902 118.475 198.774 118.475 198.774L115.168 193.926L125.956 158.483C125.956 158.483 123.098 142.848 123.312 142.195C123.526 141.542 127.272 137.133 127.272 137.133L167.114 120.621L173.278 115.559L177.676 106.313L184.504 106.088L182.963 108.507L182.973 108.517Z" fill="#FEFEFE"/>
<path d="M158.06 125.436L166.525 146.443L166.215 148.691L153.373 127.791L158.06 125.436Z" fill="#010002"/>
<path d="M168.869 121.466C169.179 121.873 204.045 213.125 204.045 213.125L204.655 209.561C204.655 209.561 173.256 117.592 172.946 117.903C172.636 118.213 168.869 121.466 168.869 121.466Z" fill="#010002"/>
<path d="M199.486 263.721C221.723 252.72 232.725 246.107 242.409 242.147C252.094 238.188 257.595 236.422 258.483 238.402C259.371 240.381 249.034 251.158 242.634 257.557C236.235 263.957 232.072 269.008 222.826 273.192C213.58 277.377 205.65 279.581 198.169 280.673C190.689 281.775 173.738 284.418 170.656 283.979C167.574 283.541 164.053 281.561 168.676 278.918C173.299 276.274 178.147 274.294 199.496 263.732L199.486 263.721Z" fill="#FF5500"/>
<path d="M124.896 155.336C131.67 186.189 139.107 216.881 146.17 247.659C148.118 256.156 150.044 264.663 151.917 273.182C152.367 275.215 155.492 274.359 155.042 272.326C148.268 241.473 140.83 210.781 133.767 180.003C131.82 171.506 129.893 162.999 128.021 154.48C127.571 152.447 124.446 153.303 124.896 155.336Z" fill="black"/>
<path d="M124.126 140.386L170.388 121.637C173.824 120.246 172.325 114.606 168.837 116.019L122.574 134.768C119.139 136.159 120.637 141.799 124.126 140.386Z" fill="black"/>
<path d="M172.486 119.893L181.368 106.291C183.423 103.145 178.382 100.213 176.338 103.348L167.456 116.95C165.401 120.096 170.442 123.029 172.486 119.893Z" fill="black"/>
<path d="M178.618 107.115L230.638 132.542C233.998 134.18 236.952 129.161 233.581 127.513L181.561 102.086C178.2 100.448 175.247 105.467 178.618 107.115Z" fill="black"/>
<path d="M229.867 131.472C236.684 149.493 244.036 167.301 251.923 184.883C253.453 188.297 258.483 185.343 256.953 181.94C249.28 164.818 242.131 147.471 235.486 129.92C234.169 126.442 228.53 127.951 229.867 131.472Z" fill="black"/>
<path d="M254.748 186.778C259.725 186.778 264.69 187.088 269.634 187.773C273.305 188.287 274.889 182.668 271.186 182.155C265.728 181.395 260.27 180.956 254.759 180.956C251.003 180.956 251.003 186.778 254.759 186.788L254.748 186.778Z" fill="black"/>
<path d="M267.922 187.109L283.974 224.222C285.462 227.657 290.481 224.693 289.004 221.279L272.951 184.166C271.464 180.731 266.445 183.695 267.922 187.109Z" fill="black"/>
<path d="M120.155 139.145L122.617 163.78C122.991 167.483 128.823 167.515 128.449 163.78L125.988 139.145C125.613 135.442 119.781 135.41 120.155 139.145Z" fill="black"/>
<path d="M116.709 192.096C119.866 183.203 123.43 174.492 127.4 165.931C128.973 162.549 123.944 159.585 122.37 162.988C118.186 171.999 114.419 181.181 111.091 190.545C109.828 194.087 115.468 195.606 116.709 192.096Z" fill="black"/>
<path d="M110.845 192.696L135.095 247.819C136.603 251.244 141.622 248.279 140.124 244.876L115.875 189.753C114.366 186.328 109.347 189.292 110.845 192.696Z" fill="black"/>
<path d="M134.677 245.368C131.585 252.977 128.973 260.725 126.833 268.655C125.859 272.283 131.478 273.834 132.451 270.207C134.592 262.277 137.203 254.529 140.296 246.92C141.708 243.442 136.069 241.933 134.677 245.368Z" fill="black"/>
<path d="M125.987 270.891L134.72 295.055C135.983 298.555 141.622 297.046 140.338 293.504L131.606 269.34C130.343 265.84 124.703 267.349 125.987 270.891Z" fill="black"/>
<path d="M138.284 298.02C162.437 298.812 186.526 297.442 210.455 294.028C214.157 293.504 212.584 287.886 208.903 288.41C185.509 291.738 161.891 292.969 138.284 292.188C134.527 292.059 134.538 297.892 138.284 298.02Z" fill="black"/>
<path d="M211.065 293.44C223.361 289.523 234.522 283.423 244.518 275.268C247.428 272.893 243.276 268.794 240.397 271.148C231.205 278.65 220.814 284.226 209.513 287.821C205.949 288.956 207.469 294.585 211.065 293.44Z" fill="black"/>
<path d="M246.38 274.081C261.522 258.917 275.67 242.832 288.768 225.881C291.037 222.949 286.939 218.797 284.648 221.761C271.539 238.712 257.402 254.797 242.26 269.961C239.606 272.615 243.726 276.745 246.38 274.081Z" fill="black"/>
<path d="M141.216 292.498C145.4 286.216 149.948 280.18 154.849 274.423C155.417 273.759 155.502 272.786 154.849 272.133C154.272 271.555 153.127 271.459 152.559 272.133C147.487 278.094 142.757 284.343 138.423 290.86C137.267 292.605 140.071 294.221 141.216 292.498Z" fill="black"/>
<path d="M155.609 272.86C177.547 260.725 199.913 249.349 222.654 238.798C229.043 235.833 235.453 232.933 241.906 230.097C243.811 229.262 242.163 226.469 240.269 227.304C217.325 237.406 194.734 248.322 172.56 260.019C166.332 263.304 160.136 266.654 153.983 270.067C152.163 271.073 153.79 273.877 155.62 272.86H155.609Z" fill="black"/>
<path d="M241.682 229.926C256.642 227.39 271.742 225.785 286.895 225.11C288.972 225.014 288.982 221.782 286.895 221.868C271.453 222.563 256.064 224.211 240.825 226.801C238.771 227.154 239.648 230.268 241.682 229.926Z" fill="black"/>
<path d="M154.935 288.046C157.814 284.247 160.639 280.394 163.518 276.595C165.027 274.605 161.656 272.668 160.157 274.637C157.279 278.436 154.454 282.289 151.575 286.088C150.066 288.078 153.437 290.015 154.935 288.046Z" fill="black"/>
<path d="M162.598 277.73L246.583 238.081C248.841 237.01 246.872 233.661 244.625 234.72L160.639 274.369C158.381 275.44 160.35 278.789 162.598 277.73Z" fill="black"/>
<path d="M245.791 238.059C253.849 236.229 261.972 234.742 270.169 233.65C272.609 233.329 272.641 229.434 270.169 229.765C261.629 230.9 253.164 232.398 244.753 234.314C242.313 234.87 243.351 238.616 245.791 238.059Z" fill="black"/>
<path d="M267.676 231.542C257.007 246.31 244.678 259.698 230.906 271.619C229.011 273.257 231.772 275.996 233.656 274.369C247.685 262.223 260.163 248.547 271.036 233.5C272.502 231.467 269.131 229.53 267.676 231.542Z" fill="black"/>
<path d="M213.687 284.193C220.889 281.646 227.695 278.307 234.094 274.134C236.181 272.775 234.234 269.404 232.136 270.774C226.015 274.776 219.551 277.997 212.659 280.448C210.316 281.272 211.322 285.039 213.697 284.193H213.687Z" fill="black"/>
<path d="M153.255 289.277C173.684 289.427 194.017 287.693 214.136 284.161C216.597 283.733 215.549 279.977 213.098 280.416C193.322 283.894 173.331 285.542 153.244 285.392C150.74 285.371 150.74 289.266 153.244 289.277H153.255Z" fill="black"/>
</svg>
