<svg width="426" height="400" viewBox="0 0 426 400" fill="none" xmlns="http://www.w3.org/2000/svg">
<path d="M301.555 323.13L313.401 341.249C313.401 341.249 351.967 365.004 351.641 364.9C351.314 364.795 304.796 322.491 304.796 322.491L303.61 323.771L301.555 323.13Z" fill="#965B00"/>
<path d="M305.662 323.116L358.142 370.173L365.247 362.151L334.349 336.747C334.349 336.747 332.142 323.676 331.817 323.786C331.493 323.895 310.265 312.184 310.265 312.184L305.653 323.118L305.662 323.116Z" fill="#D28F00"/>
<path d="M282.48 308.496C282.91 308.278 302.648 326.372 303.079 326.261C303.511 326.15 307.691 316.301 307.371 316.3C307.05 316.3 286.564 300.804 286.564 300.804L282.485 308.492L282.48 308.496Z" fill="#D28F00"/>
<path d="M54.0698 126.56L86.989 152.525L100.531 166.89L53.37 135.133L54.0698 126.56Z" fill="#965B00"/>
<path d="M56.1069 121.914L54.9927 127.421L109.209 171.426L151.879 199.929L139.684 183.299L56.1069 121.914Z" fill="#D28F00"/>
<path d="M161.61 209.395C161.613 209.978 185.259 246.251 185.259 246.251L201.656 243.872L161.605 209.395L161.61 209.395Z" fill="#965B00"/>
<path d="M247.218 285.312C247.218 285.312 280.089 313.506 279.063 314.032C278.036 314.558 266.574 317.783 266.672 317.357C266.769 316.93 247.219 285.308 247.219 285.308L247.218 285.312Z" fill="#965B00"/>
<path d="M53.0915 107.777L107.856 154.434L115.177 165.576L140.817 184.589L152.689 201.059L158.687 203.953L162.259 207.826L279.818 314.093L289.468 296.254L253.101 264.491L247.441 266.454L185.752 213.896L100.142 76.7618L93.5031 76.299C93.5031 76.299 96.5561 69.4916 95.9062 69.4926C95.2563 69.4935 80.6226 49.4722 80.6226 49.4722L72.2901 69.5877L63.4109 80.7688L110.379 119.949L113.005 145.995C113.005 145.995 55.4601 93.3291 55.4128 93.5363C55.3654 93.7434 53.0893 107.768 53.0893 107.768L53.0915 107.777Z" fill="#FFCA1B"/>
<path d="M165.945 181.033L148.445 193.533L156.445 204.533L165.945 210.533L179.945 202.033L165.945 181.033Z" fill="#D28F00"/>
<path d="M101.945 79.0332L84.4448 91.5332L92.4448 102.533L101.945 108.533L115.945 100.033L101.945 79.0332Z" fill="#D28F00"/>
<path d="M128.945 156.033L111.445 168.533L119.445 179.533L128.945 185.533L142.945 177.033L128.945 156.033Z" fill="#D28F00"/>
<path d="M252.945 263.033L235.445 275.533L243.445 286.533L252.945 292.533L270.945 278.533L252.945 263.033Z" fill="#D28F00"/>
<path d="M284.305 304.87L302.77 318.304L301.326 322.321C301.326 322.321 302.977 325.417 303.342 324.868C303.707 324.319 308.417 315.369 308.417 315.369L286.48 300.853L284.304 304.874L284.305 304.87Z" fill="white"/>
<path d="M306.077 324.31L312.983 317.174L332.722 328.78L331.246 323.497C331.246 323.497 311.325 311.529 310.593 311.348C309.86 311.168 304.795 322.495 304.795 322.495L306.08 324.315L306.077 324.31Z" fill="white"/>
<path d="M334.941 337.708L334.038 340.63L363.123 365.154L365.298 361.496L334.941 337.708Z" fill="white"/>
<path d="M100.414 79.1619L99.879 82.8094L175.63 206.571L184.409 212.926L100.414 79.1619Z" fill="white"/>
<path d="M287.209 300.302L251.721 269.236C251.721 269.236 250.263 269.424 246.619 270.347C242.976 271.271 242.422 269.451 240.594 268.546C238.767 267.641 183.513 217.128 183.513 217.128L184.052 214.939C184.052 214.939 246.182 265.682 246.762 265.875C247.342 266.067 252.268 264.694 253.109 264.493C253.95 264.292 288.664 295.865 288.664 295.865L287.208 300.306L287.209 300.302Z" fill="white"/>
<path d="M67.125 51.1891C67.6712 51.0063 79.1579 49.5046 79.1579 49.5046L72.2985 69.5894L63.2145 79.8346L67.13 51.186L67.125 51.1891Z" fill="white"/>
<path d="M51.7587 91.3667L43.4504 114.741L53.0916 107.777L55.416 93.5411L51.7587 91.3667Z" fill="white"/>
<path d="M57.3436 123.629L56.8397 136.764L52.6374 134.226L53.8691 122.001L57.3436 123.629Z" fill="white"/>
<path d="M54.887 99.1992L130.811 167.695L131.533 164.778L55.416 93.5413L54.887 99.1992Z" fill="white"/>
<path d="M77.5332 54.9803L77.6968 49.1448L82.4458 50.7696L95.0921 68.4171C95.0921 68.4171 95.1032 71.8819 94.9221 72.4303C94.7411 72.9788 78.2604 54.249 77.7167 54.2529" fill="white"/>
<path d="M161.411 208.08C161.959 208.261 202.204 243.869 201.657 243.872C201.109 243.875 184.522 246.484 184.522 246.484L161.411 208.08Z" stroke="black" stroke-width="0.97" stroke-miterlimit="10"/>
<path d="M246.853 286.759C246.853 286.759 265.928 317.153 266.474 316.97C267.02 316.787 278.865 313.645 278.865 313.645C278.865 313.645 266.783 301.285 262.579 297.652C258.371 294.018 247.764 285.3 247.764 285.3L246.857 286.764L246.853 286.759Z" stroke="black" stroke-width="0.97" stroke-miterlimit="10"/>
<path d="M302.788 323.044L304.795 323.221L351.444 364.098C351.444 364.098 313.434 342.525 313.43 341.794C313.426 341.062 302.788 323.044 302.788 323.044Z" stroke="black" stroke-width="0.97" stroke-miterlimit="10"/>
<path d="M70.9531 104.25L80.7839 98.9246L76.5786 95.8384L68.2085 101.524L70.9531 104.25Z" fill="#00FDFF"/>
<path d="M67.9387 129.613C67.4878 129.51 67.6342 129.15 67.5545 128.807C67.4846 128.496 67.2638 128.172 67.3751 127.778C67.5969 126.996 68.2689 128.094 68.5689 128.334C68.8041 128.52 69.0419 128.583 69.3029 128.694C69.6221 128.831 70.029 129.014 70.3989 129.06C70.7516 129.106 71.0822 129.062 71.4022 129.14C71.7618 129.231 72.0646 129.458 72.4268 129.575C73.2378 129.842 74.0922 129.956 74.9622 129.945C75.6655 129.935 76.6855 130.092 77.1967 130.529C77.7079 130.967 78.2122 131.266 78.7174 131.711C78.9026 131.873 79.2776 132.121 79.4032 132.338C79.4775 132.461 79.4836 132.715 79.5298 132.85C79.576 132.984 79.6681 133.142 79.7564 133.26C80.1171 133.758 81.0874 134.056 81.6394 134.11C81.8571 134.13 81.926 134.24 82.1047 134.281C82.3119 134.328 82.5229 134.265 82.7306 134.291C83.1349 134.337 83.2612 134.588 83.5665 134.841C83.0205 135.285 82.6608 135.493 81.908 135.402C81.3801 135.337 80.9641 135.212 80.4064 135.221C79.8486 135.231 79.1907 135.136 78.6422 134.955C77.8547 134.698 77.0526 134.467 76.2968 134.183C75.5411 133.899 74.9396 133.39 74.1347 133.227C73.0031 132.998 72.0311 132.314 70.9989 132.005C70.4427 131.84 69.9503 131.582 69.3984 131.379C68.9768 131.222 68.4935 131.167 68.1036 130.929C67.8641 130.78 67.5096 130.293 67.9315 129.607L67.9387 129.613Z" stroke="black" stroke-width="0.97" stroke-miterlimit="10"/>
<path d="M88.9404 136.652C88.9532 136.185 90.2934 137.034 90.5854 137.028C90.7915 137.024 90.931 136.825 91.135 136.812C91.3782 136.795 91.3778 136.927 91.5353 136.967C91.8178 137.041 92.1201 137.046 92.3694 137.227C92.8413 137.574 93.2 138.118 93.6414 138.505C93.8585 138.696 94.2102 139.045 94.464 139.15C94.7882 139.284 95.1005 139.283 95.4334 139.453C95.7132 139.594 95.8751 139.802 96.1536 139.93C96.5249 140.101 96.8579 140.271 97.1707 140.547C97.6369 140.958 97.9695 141.465 98.2613 142.002C98.6622 142.735 100.464 143.994 99.3192 144.796C98.1287 144.301 97.5252 142.791 96.4419 142.052C95.995 141.745 95.6776 141.339 95.2494 141.006C95.047 140.844 94.8273 140.777 94.6094 140.646C94.5306 140.598 94.371 140.454 94.2944 140.415C94.1259 140.33 94.0466 140.359 93.8744 140.289C93.6084 140.182 93.3262 140.07 93.0517 139.943C92.7773 139.816 92.7018 139.679 92.4678 139.506C92.2339 139.333 92.0386 139.271 91.823 139.055C91.6208 138.855 91.5291 138.565 91.3339 138.409C91.1387 138.253 90.7472 138.189 90.5206 138.078C90.294 137.966 90.0967 137.857 89.9034 137.693C89.6925 137.512 89.555 137.31 89.313 137.19C88.9873 137.026 88.7084 137.18 88.9413 136.648L88.9404 136.652Z" fill="white"/>
<path d="M120.189 154.053C120.166 153.894 120.022 153.755 120.015 153.599C120.005 153.4 120.099 153.323 120.149 153.147C120.249 152.781 120.13 152.407 120.225 152.044C120.396 151.391 120.491 150.994 120.959 150.443C121.258 150.088 121.687 149.617 122.039 149.347C122.246 149.19 122.529 149.092 122.725 148.944C122.989 148.744 123.198 148.54 123.544 148.409C124.209 148.16 124.6 147.98 124.997 147.387C125.165 147.135 125.282 146.922 125.542 146.738C125.71 146.622 125.967 146.544 126.094 146.381C126.272 146.148 126.189 145.856 126.64 146.014C126.952 146.124 126.983 146.401 127.094 146.644C127.307 147.116 127.377 147.649 127.495 148.163C127.593 148.181 127.696 148.201 127.791 148.231C127.814 148.561 128.215 148.884 127.976 149.252C127.864 149.427 127.3 149.726 127.107 149.801C126.892 149.885 126.749 149.873 126.554 150.013C126.439 150.144 126.319 150.275 126.2 150.402C126.047 150.512 125.873 150.583 125.684 150.621C125.214 150.882 124.896 151.172 124.544 151.57C124.116 152.058 123.674 152.457 123.094 152.735C122.441 153.047 121.896 153.226 121.79 154.026C121.461 154.041 121.266 154.372 120.9 154.254C120.406 154.095 120.509 153.699 120.178 154.064L120.189 154.053Z" stroke="black" stroke-width="0.97" stroke-miterlimit="10"/>
<path d="M128.173 143.082C128.173 142.843 128.152 142.595 128.165 142.354C128.177 142.151 128.303 141.975 128.317 141.799C128.333 141.602 128.188 141.299 128.163 141.071C128.138 140.843 128.075 140.73 128.018 140.529C127.948 140.274 128.007 140.052 127.981 139.794C127.962 139.615 127.86 139.519 127.833 139.393C127.739 138.965 127.813 138.508 127.791 138.063C127.769 137.656 127.524 137.493 127.438 137.14C127.352 136.787 127.404 136.32 127.326 135.968C127.27 135.708 127.302 135.809 127.371 135.564C127.431 135.36 127.464 135.158 127.595 134.979C127.824 134.668 128.152 134.674 128.462 134.531C128.683 134.783 129.094 135.039 129.227 135.335C129.328 135.567 129.205 135.77 129.153 135.959C129.09 136.197 129.086 136.418 129.068 136.687C129.049 136.995 128.909 137.25 128.873 137.558C128.843 137.837 128.886 138.138 128.885 138.42C128.885 138.646 128.835 138.938 128.879 139.158C128.933 139.405 129.045 139.516 129.073 139.783C129.19 140.768 128.882 141.851 129.17 142.798C129.233 143.009 129.414 143.225 129.416 143.422C129.417 143.568 129.273 143.958 129.226 144.123C129.147 144.395 128.954 144.996 128.581 145.056C128.564 144.886 128.435 144.797 128.399 144.673C128.336 144.466 128.371 144.273 128.272 144.071C128.154 143.822 127.93 143.343 128.17 143.078L128.173 143.082Z" fill="white"/>
<path d="M135.988 187.925C135.945 187.723 135.592 187.36 135.449 187.199C135.15 186.862 134.798 186.666 134.52 186.29C134.188 185.838 133.958 185.311 133.477 184.966C133.377 184.896 133.173 184.875 133.096 184.798C132.996 184.693 133.055 184.532 132.932 184.414C132.741 184.238 132.401 184.211 132.157 184.104C131.518 183.83 131.085 183.5 130.593 183.015C130.101 182.531 129.831 182.217 129.217 181.97C128.668 181.75 128.166 181.648 127.671 181.291C127.461 181.141 127.23 181.011 127.07 180.795C126.88 180.542 126.936 180.225 126.807 179.965C126.598 179.533 125.534 179.063 126.336 178.494C126.662 178.637 126.904 178.833 127.208 179.014C127.484 179.175 127.739 179.349 127.978 179.553C128.297 179.823 128.626 180.086 128.945 180.356C129.067 180.456 129.216 180.61 129.346 180.695C129.457 180.768 129.618 180.792 129.721 180.867C129.945 181.029 130.102 181.202 130.356 181.324C130.648 181.468 130.937 181.585 131.224 181.732C131.784 182.014 132.289 182.271 132.8 182.618C133.347 182.991 134.039 182.863 134.652 183.042C135.158 183.183 135.669 183.847 135.974 184.272C136.047 184.378 136.175 184.604 136.288 184.69C136.401 184.776 136.555 184.776 136.665 184.857C136.796 184.956 136.927 185.114 136.99 185.265C137.115 185.559 137.031 185.535 136.941 185.762C136.854 185.973 136.794 186.199 136.714 186.416C136.619 186.681 136.496 186.755 136.383 187.003C136.237 187.324 136.229 188.015 135.986 187.916L135.988 187.925Z" fill="white"/>
<path d="M152.022 183.309C152.014 182.935 152.233 182.742 152.217 182.4C152.194 181.98 151.968 181.753 152.032 181.285C152.072 180.999 152.186 180.743 152.2 180.456C152.213 180.254 152.152 180.03 152.186 179.829C152.246 179.492 152.375 179.299 152.37 178.93C152.365 178.596 152.383 178.258 152.369 177.926C152.352 177.511 152.163 177.481 152.038 177.11C151.913 176.74 152.095 176.358 152.01 176.001C151.95 175.757 151.569 175.46 151.968 175.231C151.8 174.842 151.602 174.476 151.31 174.144C151.019 173.813 150.822 173.366 150.532 173.005C150.203 172.596 149.709 172.286 149.52 171.824C149.375 171.466 149.373 170.615 149.84 170.427C150.133 170.772 150.228 171.251 150.529 171.598C150.634 171.72 150.795 171.821 150.9 171.956C151.02 172.107 151.092 172.256 151.214 172.417C151.613 172.953 152.072 173.395 152.546 173.863C152.65 173.968 152.861 174.148 152.9 174.294C152.975 174.568 152.812 174.586 152.773 174.774C152.701 175.091 152.652 175.605 152.732 175.927C152.827 176.316 153.18 176.436 153.431 176.741C153.662 177.02 153.973 177.228 154.209 177.504C154.635 177.999 154.396 179.381 154.397 180.027C154.399 180.45 154.4 180.874 154.402 181.297C154.403 181.477 154.39 181.666 154.401 181.844C154.417 182.126 154.552 182.302 154.597 182.573C154.655 182.898 154.611 183.333 154.595 183.667C154.58 183.92 154.495 184.721 154.245 184.783C153.796 184.899 153.349 184.031 153.128 183.84C152.893 183.632 152.469 183.467 152.035 183.312L152.022 183.309Z" fill="white"/>
<path d="M174.796 228.829C174.96 228.879 175.29 228.707 175.432 228.646C175.646 228.549 175.822 228.491 176.065 228.457C176.67 228.373 177.147 228.606 177.711 228.641C178.048 228.663 178.124 228.5 178.367 228.466C178.702 228.419 178.712 228.584 178.98 228.645C179.211 228.698 179.369 228.683 179.584 228.77C179.834 228.874 179.933 228.944 180.134 229.131C181.61 230.507 182.562 232.102 183.436 233.866C183.53 234.054 183.553 234.273 183.656 234.459C183.758 234.645 183.96 234.811 184.074 235.003C184.321 235.419 184.567 235.689 184.904 236.048C185.24 236.407 185.371 236.788 185.628 237.141C185.813 237.397 186.467 237.714 186.337 238.098C186.17 238.582 185.417 238.213 185.185 237.959C184.735 237.476 184.449 236.803 183.941 236.315C183.737 236.119 183.529 235.815 183.314 235.654C183.028 235.444 182.616 235.303 182.291 235.134C181.741 234.85 181.329 234.444 180.83 234.142C180.331 233.839 179.805 233.916 179.193 233.917C178.898 233.918 178.568 233.958 178.277 233.925C177.801 233.872 177.99 233.74 177.696 233.416C177.403 233.093 177.151 232.958 176.929 232.566C176.689 232.139 176.505 231.746 176.158 231.376C175.811 231.006 175.46 230.84 175.257 230.362C175.138 230.083 174.887 229.666 174.817 229.411C174.928 229.355 175.042 229.343 174.797 228.825L174.796 228.829Z" fill="white"/>
<path d="M212.266 252.411C212.263 251.786 212.278 251.422 211.986 250.851C211.802 250.493 211.539 250.168 211.389 249.817C211.213 249.405 211.182 248.983 211.018 248.578C210.873 248.22 210.712 247.897 210.56 247.533C210.46 247.296 210.128 246.955 210.093 246.717C210.053 246.442 210.074 246.575 210.187 246.345C210.254 246.292 210.319 246.234 210.383 246.176C210.43 246.067 210.438 245.958 210.413 245.841C210.821 245.045 211.354 245.257 211.715 245.925C211.912 246.295 212.083 246.723 212.243 247.11C212.447 247.601 212.472 248.107 212.609 248.591C212.703 248.929 212.929 249.284 212.992 249.666C213.024 249.862 213.03 250.038 213.075 250.215C213.126 250.407 213.17 250.532 213.168 250.762C213.163 251.214 213.271 251.453 213.355 251.852C213.396 252.046 213.447 252.215 213.499 252.402C213.565 252.653 213.474 252.901 213.531 253.141C213.611 253.48 213.911 253.813 213.322 253.55C213.035 253.421 212.043 252.954 212.079 252.591" fill="white"/>
<path d="M254.87 283.814C254.341 283.83 253.985 283.5 253.503 283.27C252.878 282.974 252.305 282.62 251.676 282.344C251.459 282.247 251.064 282.161 251.195 281.811C251.235 281.713 251.509 281.502 251.623 281.49C252.074 281.443 252.632 281.866 253.036 282.134C253.311 282.316 253.639 282.507 253.962 282.555C254.205 282.593 254.432 282.517 254.683 282.579C255.326 282.738 256.202 282.888 256.788 283.184C257.271 283.427 257.835 283.727 258.296 284.029C258.816 284.37 259.172 284.349 259.797 284.343C260.281 284.342 260.607 284.353 261.029 284.564C261.389 284.745 261.741 284.907 262.033 285.2C262.388 285.555 262.658 285.984 262.99 286.342C263.555 286.959 263.767 287.862 264.305 288.519C265.238 289.669 266.172 290.874 266.938 292.161C267.572 293.22 268.58 293.767 269.395 294.612C270.024 295.264 270.673 295.883 271.279 296.56C271.63 296.953 271.931 296.979 272.424 297.104C273.063 297.263 273.788 297.438 274.471 297.423C274.802 297.417 275.116 297.502 275.429 297.497C275.742 297.491 276.058 297.252 276.355 297.243C276.635 297.234 276.87 297.403 277.17 297.416C277.44 297.431 277.717 297.4 277.993 297.408C278.37 297.421 279.019 297.557 279.32 297.81C279.5 297.958 279.557 298.082 279.554 298.316C279.553 298.47 279.446 298.941 279.374 299.049C279.115 299.451 278.54 299.444 278.091 299.555C277.719 299.649 277.387 299.552 277.022 299.426C276.532 299.254 276.008 299.078 275.527 298.883C275.218 298.756 275.039 298.549 274.715 298.509C274.453 298.475 274.16 298.54 273.894 298.526C273.628 298.512 273.439 298.388 273.174 298.332C272.84 298.259 272.419 298.343 272.072 298.345C271.585 298.344 271.099 298.34 270.614 298.349C270.021 298.359 269.722 298.081 269.392 297.633C268.809 296.837 267.961 296.4 267.147 295.884C266.075 295.208 265.088 294.362 264.309 293.376C263.679 292.582 262.823 291.933 262.334 291.044C261.908 290.271 261.75 289.487 261.057 288.944C260.576 288.564 260.188 288.129 259.771 287.671C259.447 287.314 259.051 287.177 258.716 286.827C258.382 286.476 258.147 285.953 257.764 285.664C257.527 285.486 257.129 285.468 256.879 285.308C256.678 285.181 256.547 284.988 256.351 284.854C255.989 284.604 254.12 283.412 253.807 283.921C253.862 283.887 253.918 283.848 254.883 283.813L254.87 283.814Z" fill="white"/>
<path d="M320.157 334.844C319.839 334.425 319.431 334.041 319.136 333.61C319.002 333.413 318.908 333.207 318.769 333.03C318.709 332.952 318.573 332.896 318.506 332.812C318.362 332.638 318.349 332.378 318.233 332.194C318.056 331.901 317.805 331.638 317.633 331.343C317.423 330.987 317.172 330.741 316.928 330.387C316.713 330.076 316.482 329.831 316.217 329.57C315.879 329.236 315.83 329.152 315.72 328.7C315.592 328.175 314.75 327.315 315.751 327.198C316.872 327.065 317.817 328.5 318.411 329.268C319.054 330.099 319.494 331.149 320.103 331.98C320.331 332.289 320.64 332.526 320.881 332.838C321.197 333.252 321.643 333.508 321.944 333.927C322.112 334.167 322.246 334.347 322.448 334.564C322.645 334.772 322.619 334.975 322.756 335.165C322.843 335.287 322.977 335.373 323.06 335.495C323.159 335.642 323.195 335.842 323.287 336C323.455 336.291 323.944 336.736 323.805 337.097C323.667 337.459 323.109 337.489 322.817 337.418C322.299 337.291 321.766 336.558 321.337 336.208C321.031 335.958 320.717 335.762 320.435 335.48C320.2 335.238 319.979 334.97 319.668 334.817C319.779 334.873 319.883 334.939 320.157 334.844Z" fill="white"/>
<path d="M323.479 346.503C322.927 346.377 322.936 345.216 322.923 344.768C322.901 344.097 323.092 343.525 323.101 342.852C323.104 342.536 323.207 342.329 323.262 342.034C323.314 341.768 323.204 341.465 323.264 341.205C323.296 341.063 323.411 341.046 323.439 340.924C323.472 340.778 323.406 340.618 323.438 340.479C323.495 340.232 323.718 340.022 323.953 339.965C324.153 340.194 324.376 340.455 324.588 340.666C324.787 340.861 325.221 341.093 325.292 341.382C325.383 341.749 324.992 342.28 324.914 342.621C324.82 343.035 324.677 343.49 324.577 343.873C324.389 344.582 324.568 345.576 324.569 346.316C324.571 346.59 324.714 347.367 324.403 347.437C323.974 347.535 323.853 346.755 323.476 346.686" fill="white"/>
<path d="M72.2933 69.5925L109.326 113.249L116.564 116.063L136.083 162.715L153.714 185.628C153.714 185.628 113.057 147.823 113.315 147.048C113.573 146.274 110.382 119.954 110.382 119.954L61.9816 81.9163C61.9816 81.9163 65.0711 79.5839 67.3851 76.7364C69.6991 73.889 72.2933 69.5925 72.2933 69.5925Z" fill="#965B00"/>
<path d="M53.0913 107.777C52.7811 108.536 45.3172 114.501 45.3172 114.501C45.3172 114.501 114.418 166.407 114.154 165.372C113.891 164.337 107.408 155.327 107.408 155.327L53.0922 107.773L53.0913 107.777Z" fill="#965B00"/>
<path d="M83.1459 95.9984L82.9997 95.965C82.9832 95.7005 82.8062 95.5403 82.7775 95.273C82.7505 95.036 82.7797 94.7777 82.7789 94.5381C82.7787 94.2773 82.8122 93.9815 82.7577 93.734C82.7177 93.5538 82.6429 93.6564 82.6218 93.4122C82.6068 93.2164 82.7636 92.9232 82.7744 92.7077C82.8066 92.1936 82.7456 91.6752 82.7655 91.1583C82.7897 90.4543 83.1796 90.6375 83.6336 90.2968C84.02 90.0091 84.3089 89.8486 84.7679 89.6544C85.1137 89.507 85.8198 89.1855 86.0068 88.835C86.1129 88.6327 86.0453 88.3865 86.0018 88.1842C85.9908 88.1389 85.8698 88.0514 85.8499 87.9699C85.8147 87.8251 85.8709 87.6541 85.8415 87.5021C85.7172 86.8496 85.488 86.2073 85.3493 85.543C85.2667 85.1565 85.1963 84.7728 85.0966 84.3867C84.9858 83.9553 85.0217 83.4805 84.8982 83.0675C84.8127 82.7872 84.6254 82.6717 84.5584 82.4042C84.48 82.0743 84.6376 81.7214 84.5249 81.3921C84.3624 80.9061 83.909 80.9264 83.646 80.5627C83.4766 80.3316 83.4419 80.016 83.3265 79.7545C83.3158 79.7264 83.2925 79.4731 83.244 79.4236C83.1573 79.3354 82.9691 79.3735 82.8617 79.2635C82.5191 78.9115 82.7665 78.1475 82.8707 77.7481C82.954 77.421 82.8616 77.0964 82.9003 76.759C82.939 76.4216 83.0797 76.1802 83.0868 75.8314C83.1127 74.7089 83.0799 73.5815 83.0725 72.4556C83.0669 71.826 83.2003 71.3735 83.3416 70.8117C83.4978 70.1849 83.6133 69.4933 83.6085 68.804C83.6092 68.6888 83.5911 68.5436 83.6031 68.4352C83.6264 68.2396 83.7181 68.1751 83.7466 68.032C83.8057 67.7549 83.7464 67.472 83.8259 67.1996C83.9053 66.9271 84.2891 66.1087 84.5192 65.9433C84.4774 66.7245 84.5145 67.5152 84.5201 68.2944C84.5246 69.0221 84.7107 69.6289 84.7089 70.3466C84.7094 70.9237 84.8091 71.609 84.6981 72.1692C84.6561 72.3904 84.291 72.8839 84.7827 72.8084C85.0971 72.7606 85.2639 71.9567 85.3935 71.7641C86.0696 72.0598 85.4109 73.3324 85.2646 73.7478C85.1077 74.1906 84.9505 74.6163 84.9092 75.0771C84.904 75.1186 84.6806 75.8711 84.701 75.9313C84.8024 76.1981 84.8605 76.0191 85.0873 76.0923C85.3142 76.1656 85.3602 76.0393 85.5093 76.2658C85.7135 76.569 85.5129 76.4931 85.4954 76.6815C85.4615 77.0542 85.4551 77.4374 85.4558 77.8265C85.4581 78.1903 85.3962 78.6293 85.5021 78.9698C85.5574 79.1577 85.7633 79.5467 85.8652 79.7367C85.9251 79.8487 86.1378 80.1709 86.2425 80.2548C86.3649 80.3554 86.4928 80.2821 86.6167 80.413C86.7954 80.6035 86.8923 81.1514 86.9391 81.4143C87.0025 81.7536 86.9448 82.0995 87.0226 82.4507C87.0894 82.7566 87.1381 83.0669 87.204 83.3769C87.29 83.7856 87.4563 84.1613 87.5654 84.5624C87.6516 84.877 87.6426 85.234 87.852 85.4956C88.048 85.7414 88.3831 85.7154 88.5501 85.9759C88.717 86.2363 88.5894 86.7756 88.5921 87.0626L88.6005 89.2872C88.6029 89.7066 88.6795 90.2499 88.5776 90.6583C88.0561 90.7143 87.8375 91.0532 87.3381 91.1997C87.09 91.2755 86.8343 91.1785 86.5915 91.2683C86.3949 91.343 86.1727 91.6043 86.0047 91.7411C85.8475 91.8675 85.7145 92.038 85.5542 92.1595C85.4098 92.2675 85.318 92.2764 85.1502 92.3748C84.5936 92.6963 84.145 93.1067 83.8679 93.7015C83.5908 94.2964 83.5694 95.4926 83.6912 96.1744C83.7415 96.4595 83.8903 96.5747 83.8497 96.8646C83.8506 96.8606 83.6474 97.2629 83.6733 97.2432C83.1825 97.6139 82.8641 96.4084 82.7728 96.1909C82.4811 96.2139 82.1448 96.3764 83.155 95.9962L83.1459 95.9984Z" fill="white"/>
<path d="M79.9807 46.7478C76.1076 46.6569 72.2974 47.1319 68.5519 48.1089C65.7878 48.8316 67.1192 53.0643 69.8793 52.3406C73.2658 51.4567 76.678 51.096 80.177 51.1782C83.0298 51.2451 82.8294 46.8138 79.9817 46.7438L79.9807 46.7478Z" fill="black"/>
<path d="M45.3291 114.264C47.674 106.423 50.5749 98.7854 54.0209 91.3626C55.2183 88.7813 51.3166 86.6664 50.1123 89.259C46.4996 97.0369 43.4589 105.061 41.0032 113.275C40.185 116.011 44.5136 116.988 45.3291 114.264Z" fill="black"/>
<path d="M42.1363 116.355C45.8589 118.561 49.3283 121.09 52.576 123.953C54.7174 125.841 57.7565 122.608 55.611 120.719C52.0824 117.608 48.2809 114.85 44.239 112.45C41.7777 110.99 39.6853 114.905 42.1354 116.359L42.1363 116.355Z" fill="black"/>
<path d="M51.8611 122.259C50.821 126.676 50.4662 131.199 50.8251 135.722C51.048 138.56 55.4868 138.382 55.2595 135.526C54.9282 131.369 55.2286 127.308 56.187 123.249C56.8396 120.47 52.5188 119.478 51.8611 122.259Z" fill="black"/>
<path d="M53.3518 137.642C80.0289 156.045 106.678 174.493 133.386 192.857C140.573 197.8 147.872 202.611 155.868 206.167C158.464 207.321 160.583 203.42 157.972 202.259C150.953 199.14 144.456 195.047 138.114 190.741C131.422 186.197 124.783 181.562 118.124 176.966L78.0611 149.325L55.4595 133.734C53.1081 132.111 51.0301 136.038 53.3559 137.643L53.3518 137.642Z" fill="black"/>
<path d="M155.813 206.428L182.793 247.555C184.359 249.943 188.12 247.589 186.551 245.196L159.571 204.069C158.006 201.681 154.244 204.035 155.813 206.428Z" fill="black"/>
<path d="M186.034 248.318C190.736 247.422 195.488 246.919 200.27 246.739C203.12 246.63 202.937 242.199 200.075 242.305C194.905 242.499 189.789 243.115 184.708 244.082C181.911 244.613 183.255 248.844 186.035 248.313L186.034 248.318Z" fill="black"/>
<path d="M199.205 245.919C215.579 259.153 231.185 273.314 245.936 288.34C247.943 290.385 250.968 287.14 248.971 285.106C234.22 270.081 218.618 255.92 202.24 242.685C200.028 240.897 196.982 244.124 199.205 245.919Z" fill="black"/>
<path d="M244.82 288.453L265.316 318.316C266.928 320.668 270.692 318.319 269.074 315.957L248.579 286.094C246.967 283.742 243.202 286.091 244.82 288.453Z" fill="black"/>
<path d="M267.954 318.966L280.084 316.129C282.866 315.478 281.525 311.248 278.757 311.897L266.627 314.735C263.845 315.385 265.185 319.615 267.954 318.966Z" fill="black"/>
<path d="M281.089 314.927L284.723 309.599C285.398 308.608 284.798 307.12 283.82 306.593C282.671 305.975 281.491 306.5 280.814 307.495L277.18 312.823C276.505 313.814 277.105 315.302 278.083 315.829C279.232 316.447 280.413 315.922 281.089 314.927Z" fill="black"/>
<path d="M281.281 310.35L299.837 324.455C302.091 326.168 305.145 322.947 302.872 321.221L284.316 307.116C282.062 305.404 279.009 308.625 281.281 310.35Z" fill="black"/>
<path d="M299.464 324.015C302.742 329.975 306.467 335.666 310.62 341.057C312.35 343.303 316.121 340.964 314.378 338.698C310.226 333.307 306.504 327.621 303.222 321.656C301.842 319.148 298.09 321.517 299.464 324.015Z" fill="black"/>
<path d="M185.445 211.533L174.445 216.533L182.445 227.533L191.945 233.533L201.445 227.533L185.445 211.533Z" fill="#FFDD55"/>
<path d="M312.352 343.577L357.54 371.72C359.968 373.233 362.056 369.317 359.644 367.811L314.455 339.669C312.027 338.156 309.939 342.072 312.352 343.577Z" fill="black"/>
<path d="M361.758 371.608C363.497 368.415 365.415 365.34 367.521 362.372C369.169 360.044 365.245 357.971 363.613 360.269C361.51 363.237 359.589 366.311 357.85 369.504C356.48 372.016 360.39 374.116 361.758 371.608Z" fill="black"/>
<path d="M332.891 338.713C343.541 345.937 353.614 353.96 363.073 362.684C365.177 364.623 368.208 361.388 366.108 359.45C356.367 350.465 345.962 342.246 334.994 334.809C332.63 333.204 330.549 337.126 332.89 338.718L332.891 338.713Z" fill="black"/>
<path d="M329.534 323.733C330.25 328.077 330.775 332.472 331.907 336.736C332.639 339.498 336.872 338.166 336.139 335.408C335.106 331.513 334.62 327.508 333.963 323.541C333.505 320.761 329.063 320.916 329.529 323.736L329.534 323.733Z" fill="black"/>
<path d="M309.82 313.309C316.395 317.617 323.196 321.557 330.202 325.126C332.748 326.422 334.851 322.518 332.306 321.218C325.3 317.649 318.5 313.704 311.923 309.4C309.532 307.836 307.448 311.753 309.82 313.309Z" fill="black"/>
<path d="M309.229 317.033L311.815 313.107C312.475 312.108 311.902 310.635 310.913 310.101C309.778 309.491 308.569 309.996 307.907 311.003L305.32 314.93C304.66 315.928 305.233 317.402 306.223 317.936C307.357 318.546 308.567 318.04 309.229 317.033Z" fill="black"/>
<path d="M286.44 303.704C292.925 307.867 299.177 312.357 305.192 317.174C307.41 318.951 310.46 315.725 308.227 313.94C301.916 308.885 295.345 304.163 288.538 299.798C286.131 298.252 284.045 302.173 286.435 303.707L286.44 303.704Z" fill="black"/>
<path d="M285.599 299.904L285.582 300.875C285.545 303.354 289.545 303.747 289.962 301.27L290.733 296.667C290.931 295.486 290.281 294.29 289.066 294.012C287.949 293.757 286.61 294.493 286.411 295.679L285.641 300.281L290.021 300.676L290.038 299.705C290.055 298.508 288.871 297.537 287.723 297.586C286.467 297.64 285.622 298.7 285.604 299.901L285.599 299.904Z" fill="black"/>
<path d="M251.234 265.457C263.627 275.28 275.573 285.655 287.036 296.552C289.112 298.523 292.143 295.284 290.071 293.319C278.608 282.421 266.665 272.052 254.269 262.223C252.044 260.458 248.994 263.684 251.234 265.457Z" fill="black"/>
<path d="M247.154 267.803C249.145 267.078 251.294 266.877 253.256 266.074C254.363 265.622 255.089 264.505 254.708 263.294C254.371 262.225 253.041 261.387 251.928 261.842C249.966 262.646 247.817 262.847 245.827 263.571C243.15 264.545 244.463 268.786 247.154 267.803Z" fill="black"/>
<path d="M183.432 215.387C202.953 233.436 223.298 250.579 244.404 266.746C246.655 268.471 249.705 265.249 247.439 263.512C226.334 247.341 205.988 230.202 186.467 212.153C184.368 210.211 181.332 213.449 183.432 215.387Z" fill="black"/>
<path d="M93.8153 78.4475L99.875 78.9018C101.073 78.9919 102.043 77.6836 101.995 76.5869C101.936 75.274 100.881 74.5584 99.6797 74.4673L93.62 74.0131C92.4224 73.923 91.4521 75.2313 91.5004 76.328C91.5592 77.6409 92.6137 78.3565 93.8153 78.4475Z" fill="black"/>
<path d="M98.3544 78.6181L165.035 184.31L183.707 213.903C185.232 216.32 188.99 213.961 187.466 211.544L120.785 105.851L102.113 76.2591C100.588 73.8417 96.83 76.2007 98.3544 78.6181Z" fill="black"/>
<path d="M95.4824 77.1405L97.8545 70.0962C98.238 68.9614 97.2724 67.6891 96.1879 67.441C94.9206 67.1511 93.9131 67.9679 93.5327 69.1076L91.1606 76.152C90.7771 77.2868 91.7428 78.5591 92.8273 78.8072C94.0946 79.0971 95.1021 78.2803 95.4824 77.1405Z" fill="black"/>
<path d="M78.3647 49.849L94.3868 70.9017C96.106 73.1585 99.8767 70.8195 98.1449 68.5427L82.1228 47.49C80.4036 45.2331 76.6329 47.5722 78.3647 49.849Z" fill="black"/>
<path d="M65.6059 51.0297L59.7467 80.3836C59.1884 83.1795 63.5115 84.1811 64.0726 81.373L69.9317 52.0191C70.49 49.2232 66.167 48.2216 65.6059 51.0297Z" fill="black"/>
<path d="M59.488 83.0644L109.252 121.063C111.505 122.784 114.558 119.563 112.287 117.829L62.523 79.8305C60.2707 78.1099 57.2172 81.3311 59.488 83.0644Z" fill="black"/>
<path d="M107.905 120.507C108.629 129.807 109.963 139.037 111.863 148.165C112.443 150.957 116.673 149.616 116.095 146.838C114.272 138.082 113.031 129.228 112.339 120.312C112.121 117.475 107.683 117.648 107.905 120.507Z" fill="black"/>
<path d="M51.0187 92.2489C71.9106 110.885 92.4457 129.922 112.611 149.345C114.674 151.33 117.702 148.09 115.646 146.111C95.4807 126.688 74.9497 107.652 54.0537 89.015C51.92 87.1122 48.885 90.3461 51.0187 92.2489Z" fill="black"/>
<path d="M45.5119 115.054L53.5213 109.021C54.7559 108.089 53.4824 106.033 52.2337 106.97L44.2244 113.003C42.9897 113.934 44.2633 115.991 45.5119 115.054Z" fill="black"/>
<path d="M53.9892 93.4244L51.4712 107.984C51.2068 109.513 53.5649 110.061 53.8311 108.524L56.3491 93.9641C56.6135 92.4346 54.2554 91.8867 53.9892 93.4244Z" fill="black"/>
<path d="M53.4881 127.59C72.0807 141.815 90.1156 156.758 107.552 172.377C108.712 173.416 110.367 171.653 109.207 170.614C91.7712 154.995 73.7363 140.052 55.1437 125.827C53.9139 124.888 52.2511 126.644 53.4881 127.59Z" fill="black"/>
<path d="M52.2596 109.117C71.3904 123.268 89.378 138.923 106.033 155.919C107.125 157.032 108.777 155.264 107.689 154.156C91.0336 137.16 73.046 121.506 53.9151 107.354C52.6757 106.438 51.0088 108.194 52.2596 109.117Z" fill="black"/>
<path d="M105.541 155.003C108.123 158.556 110.676 162.136 113.355 165.617C114.298 166.841 116.354 165.568 115.406 164.329C112.727 160.848 110.174 157.268 107.593 153.715C106.683 152.46 104.625 153.738 105.541 155.003Z" fill="black"/>
<path d="M54.3465 122.379L139.501 185.446C140.74 186.362 142.407 184.606 141.156 183.683L56.0021 120.616C54.7626 119.7 53.0958 121.456 54.3465 122.379Z" fill="black"/>
<path d="M139.663 185.278L152.198 201.861C153.13 203.096 155.187 201.818 154.25 200.574L141.715 183.99C140.783 182.756 138.726 184.033 139.663 185.278Z" fill="black"/>
<path d="M63.7478 81.7991C67.1146 78.1238 70.0266 74.1009 72.462 69.751C73.2261 68.3913 71.0905 67.2446 70.3304 68.6053C67.9956 72.7773 65.2153 76.6166 61.9851 80.1435C60.9317 81.2917 62.6985 82.9482 63.7478 81.7991Z" fill="black"/>
<path d="M77.9611 49.1284L70.7678 68.842C70.2332 70.3012 72.6009 70.8257 73.1278 69.3818L80.3211 49.6682C80.8557 48.209 78.488 47.6845 77.9611 49.1284Z" fill="black"/>
<path d="M71.5575 71.2409L108.734 114.302C109.751 115.484 111.397 113.706 110.39 112.539L73.213 69.4781C72.1967 68.2967 70.5505 70.0745 71.5575 71.2409Z" fill="black"/>
<path d="M108.775 114.478L115.064 117.165C116.485 117.772 117.642 115.647 116.21 115.033L109.921 112.347C108.5 111.74 107.343 113.864 108.775 114.478Z" fill="black"/>
<path d="M114.762 116.634L134.274 163.092C134.872 164.516 137.188 163.806 136.581 162.368L117.069 115.91C116.471 114.486 114.155 115.196 114.762 116.634Z" fill="black"/>
<path d="M135.139 164.303C141.411 171.376 147.631 178.457 152.917 186.313C153.783 187.606 155.838 186.323 154.968 185.025C149.567 176.998 143.204 169.76 136.795 162.536C135.759 161.367 134.113 163.145 135.14 164.299L135.139 164.303Z" fill="black"/>
<path d="M113.997 149.602C136.771 171.913 159.987 193.765 183.637 215.143C184.796 216.19 186.452 214.423 185.293 213.38C161.643 192.002 138.426 170.15 115.652 147.839C114.538 146.747 112.886 148.515 113.997 149.602Z" fill="black"/>
<path d="M158.268 206.644C172.582 219.296 186.889 231.963 201.204 244.615C202.37 245.647 204.03 243.885 202.859 242.852C188.545 230.2 174.238 217.533 159.923 204.881C158.757 203.849 157.098 205.611 158.268 206.644Z" fill="black"/>
<path d="M245.564 285.015C256.883 293.87 267.579 303.489 277.585 313.805C278.671 314.925 280.323 313.157 279.24 312.042C269.234 301.726 258.539 292.107 247.22 283.252C246.002 282.298 244.334 284.058 245.564 285.015Z" fill="black"/>
<path d="M283.35 308.408C285.111 305.922 286.688 303.307 287.908 300.513C288.528 299.095 286.403 297.938 285.777 299.368C284.556 302.166 282.984 304.777 281.218 307.263C280.317 308.531 282.46 309.667 283.35 308.408Z" fill="black"/>
<path d="M304.997 324.806C306.546 321.528 308.29 318.37 310.238 315.311C311.074 313.993 308.94 312.855 308.106 314.165C306.163 317.225 304.418 320.387 302.866 323.661C302.202 325.065 304.328 326.218 304.997 324.806Z" fill="black"/>
<path d="M304.131 324.053C321.419 338.167 338.299 352.782 354.744 367.871C355.893 368.924 357.548 367.161 356.4 366.108C339.955 351.015 323.075 336.404 305.787 322.29C304.583 321.309 302.924 323.067 304.131 324.053Z" fill="black"/>
<path d="M69.7091 60.483C70.2553 60.3001 72.2638 60.657 72.2638 60.657L67.8173 40.6106L96.2621 37.961L94.0334 79.0064L91.9566 112.025L61.9608 140.218L54.2862 136.415C54.2862 136.415 53.6963 124.381 53.1512 124.017C52.6062 123.653 48.03 120.02 48.03 120.02L47.0014 138.626L60.3362 144.779L79.4398 130.85L94.705 115.295L96.4461 91.7615L96.9853 89.5724L97.1593 87.0176L100.263 35.025C100.263 35.025 81.8395 34.3587 81.294 34.7255C80.7484 35.0923 62.7002 38.0724 62.7002 38.0724L69.7091 60.483Z" fill="#00FDFF"/>
<path d="M110.111 88.2489L113.227 93.1633L124.734 97.6845L119.91 127.613L118.474 134.546L117.751 136.736L117.941 139.289L115.97 149.511C115.97 149.511 94.6594 157.973 93.9324 158.161C93.2054 158.35 89.5646 160.363 89.5646 160.363C89.5646 160.363 77.3587 164.599 77.7227 164.054C78.0868 163.509 80.6116 156.02 80.6116 156.02L78.6013 154.569L72.6345 169.182L93.0402 162.548L99.4136 160.154L106.519 157.941L117.632 154.618L120.673 137.828L121.584 137.096L128.024 100.959L129.287 97.1229L110.106 88.2521L110.111 88.2489Z" fill="#00FDFF"/>
<path d="M136.523 130.835L143.264 129.171L150.266 150.303L150.095 153.405L151.238 167.263L130.214 206.185L130.048 210.926C130.048 210.926 135.556 222.034 135.921 221.485C136.286 220.936 154.842 207.01 154.842 207.01L155.386 205.548L156.668 206.82L157.219 208.276L132.853 229.515L122.571 210.036L147.952 165.447L147.17 149.582L140.73 133.187L138.726 133.742L136.528 130.832L136.523 130.835Z" fill="#00FDFF"/>
<path d="M105.994 137.12L109.501 136.161L110.176 139.859L109.132 140.052L105.994 137.12Z" fill="#FFDD55"/>
</svg>
