<svg width="400" height="400" viewBox="0 0 400 400" fill="none" xmlns="http://www.w3.org/2000/svg">
<path d="M288.555 323.13L300.401 341.249C300.401 341.249 338.967 365.004 338.641 364.9C338.314 364.795 291.796 322.491 291.796 322.491L290.609 323.771L288.555 323.13Z" fill="#042B2A"/>
<path d="M292.662 323.116L345.141 370.173L352.247 362.151L321.349 336.747C321.349 336.747 319.141 323.676 318.817 323.786C318.493 323.895 297.265 312.184 297.265 312.184L292.653 323.118L292.662 323.116Z" fill="#014948"/>
<path d="M269.479 308.496C269.909 308.278 289.647 326.372 290.079 326.261C290.51 326.15 294.691 316.301 294.37 316.3C294.05 316.3 273.564 300.804 273.564 300.804L269.484 308.492L269.479 308.496Z" fill="#014948"/>
<path d="M41.0696 126.56L73.9887 152.525L87.5312 166.89L40.3698 135.133L41.0696 126.56Z" fill="#062A2A"/>
<path d="M43.1069 121.914L41.9927 127.421L96.2093 171.426L138.879 199.929L126.684 183.299L43.1069 121.914Z" fill="#014948"/>
<path d="M148.61 209.395C148.613 209.978 172.259 246.251 172.259 246.251L188.656 243.872L148.605 209.395L148.61 209.395Z" fill="#042B2A"/>
<path d="M234.218 285.312C234.218 285.312 267.089 313.506 266.063 314.032C265.036 314.558 253.574 317.783 253.672 317.357C253.769 316.93 234.219 285.308 234.219 285.308L234.218 285.312Z" fill="#042B2A"/>
<path d="M40.0913 107.777L94.8555 154.434L102.176 165.576L127.816 184.589L139.689 201.059L145.687 203.953L149.259 207.826L266.818 314.093L276.468 296.254L240.1 264.491L234.441 266.454L172.751 213.896L87.1419 76.7618L80.5028 76.299C80.5028 76.299 83.5559 69.4916 82.906 69.4926C82.256 69.4935 67.6223 49.4722 67.6223 49.4722L59.2899 69.5877L50.4107 80.7688L97.3789 119.949L100.004 145.995C100.004 145.995 42.4599 93.3291 42.4125 93.5363C42.3651 93.7434 40.0891 107.768 40.0891 107.768L40.0913 107.777Z" fill="#014948"/>
<path d="M271.304 304.87L289.77 318.304L288.325 322.321C288.325 322.321 289.977 325.417 290.342 324.868C290.707 324.319 295.417 315.369 295.417 315.369L273.48 300.853L271.303 304.874L271.304 304.87Z" fill="white"/>
<path d="M293.077 324.31L299.983 317.174L319.722 328.78L318.246 323.497C318.246 323.497 298.325 311.529 297.593 311.348C296.86 311.168 291.795 322.495 291.795 322.495L293.08 324.315L293.077 324.31Z" fill="white"/>
<path d="M321.941 337.708L321.038 340.63L350.123 365.154L352.298 361.496L321.941 337.708Z" fill="white"/>
<path d="M87.4138 79.1619L86.8787 82.8094L162.63 206.571L171.409 212.926L87.4138 79.1619Z" fill="white"/>
<path d="M274.208 300.302L238.72 269.236C238.72 269.236 237.262 269.424 233.619 270.347C229.975 271.271 229.421 269.451 227.594 268.546C225.766 267.641 170.512 217.128 170.512 217.128L171.051 214.939C171.051 214.939 233.181 265.682 233.761 265.875C234.341 266.067 239.268 264.694 240.109 264.493C240.95 264.292 275.664 295.865 275.664 295.865L274.207 300.306L274.208 300.302Z" fill="white"/>
<path d="M54.1245 51.1891C54.6707 51.0063 66.1574 49.5046 66.1574 49.5046L59.298 69.5894L50.214 79.8346L54.1295 51.186L54.1245 51.1891Z" fill="white"/>
<path d="M38.7585 91.3667L30.4501 114.741L40.0914 107.777L42.4158 93.5411L38.7585 91.3667Z" fill="white"/>
<path d="M44.3434 123.629L43.8395 136.764L39.6371 134.226L40.8689 122.001L44.3434 123.629Z" fill="white"/>
<path d="M41.8868 99.1992L117.811 167.695L118.533 164.778L42.4158 93.5413L41.8868 99.1992Z" fill="white"/>
<path d="M64.5332 54.9803L64.6968 49.1448L69.4458 50.7696L82.0921 68.4171C82.0921 68.4171 82.1032 71.8819 81.9221 72.4303C81.7411 72.9788 65.2604 54.249 64.7167 54.2529" fill="white"/>
<path d="M148.41 208.08C148.959 208.261 189.204 243.869 188.656 243.872C188.109 243.875 171.522 246.484 171.522 246.484L148.41 208.08Z" stroke="black" stroke-width="0.97" stroke-miterlimit="10"/>
<path d="M233.853 286.759C233.853 286.759 252.928 317.153 253.474 316.97C254.02 316.787 265.865 313.645 265.865 313.645C265.865 313.645 253.783 301.285 249.579 297.652C245.371 294.018 234.764 285.3 234.764 285.3L233.856 286.764L233.853 286.759Z" stroke="black" stroke-width="0.97" stroke-miterlimit="10"/>
<path d="M289.788 323.044L291.795 323.221L338.444 364.098C338.444 364.098 300.434 342.525 300.43 341.794C300.426 341.062 289.788 323.044 289.788 323.044Z" stroke="black" stroke-width="0.97" stroke-miterlimit="10"/>
<path d="M57.9531 104.25L67.7839 98.9246L63.5786 95.8384L55.2085 101.524L57.9531 104.25Z" fill="#06DFEE"/>
<path d="M54.9382 129.613C54.4873 129.51 54.6337 129.15 54.554 128.807C54.4841 128.496 54.2633 128.172 54.3746 127.778C54.5964 126.996 55.2685 128.094 55.5684 128.334C55.8036 128.52 56.0414 128.583 56.3024 128.694C56.6216 128.831 57.0286 129.014 57.3984 129.06C57.7511 129.106 58.0818 129.062 58.4017 129.14C58.7614 129.231 59.0641 129.458 59.4263 129.575C60.2373 129.842 61.0917 129.956 61.9617 129.945C62.665 129.935 63.685 130.092 64.1962 130.529C64.7074 130.967 65.2117 131.266 65.717 131.711C65.9022 131.873 66.2771 132.121 66.4028 132.338C66.477 132.461 66.4831 132.715 66.5293 132.85C66.5755 132.984 66.6676 133.142 66.7559 133.26C67.1166 133.758 68.0869 134.056 68.6389 134.11C68.8566 134.13 68.9255 134.24 69.1043 134.281C69.3114 134.328 69.5224 134.265 69.7302 134.291C70.1344 134.337 70.2607 134.588 70.566 134.841C70.02 135.285 69.6603 135.493 68.9075 135.402C68.3796 135.337 67.9636 135.212 67.4059 135.221C66.8481 135.231 66.1902 135.136 65.6417 134.955C64.8542 134.698 64.0521 134.467 63.2963 134.183C62.5406 133.899 61.9391 133.39 61.1342 133.227C60.0026 132.998 59.0306 132.314 57.9985 132.005C57.4422 131.84 56.9498 131.582 56.3979 131.379C55.9763 131.222 55.493 131.167 55.1031 130.929C54.8636 130.78 54.5091 130.293 54.931 129.607L54.9382 129.613Z" stroke="black" stroke-width="0.97" stroke-miterlimit="10"/>
<path d="M75.9399 136.652C75.9527 136.185 77.2929 137.034 77.5849 137.028C77.791 137.024 77.9306 136.825 78.1345 136.812C78.3777 136.795 78.3774 136.927 78.5348 136.967C78.8173 137.041 79.1196 137.046 79.3689 137.227C79.8408 137.574 80.1995 138.118 80.6409 138.505C80.858 138.696 81.2098 139.045 81.4636 139.15C81.7877 139.284 82.1 139.283 82.4329 139.453C82.7127 139.594 82.8746 139.802 83.1531 139.93C83.5245 140.101 83.8574 140.271 84.1702 140.547C84.6364 140.958 84.969 141.465 85.2608 142.002C85.6617 142.735 87.464 143.994 86.3187 144.796C85.1282 144.301 84.5247 142.791 83.4414 142.052C82.9945 141.745 82.6771 141.339 82.2489 141.006C82.0465 140.844 81.8268 140.777 81.6089 140.646C81.5301 140.598 81.3705 140.454 81.2939 140.415C81.1254 140.33 81.0461 140.359 80.8739 140.289C80.6079 140.182 80.3257 140.07 80.0513 139.943C79.7768 139.816 79.7013 139.679 79.4673 139.506C79.2334 139.333 79.0381 139.271 78.8225 139.055C78.6203 138.855 78.5286 138.565 78.3334 138.409C78.1382 138.253 77.7468 138.189 77.5201 138.078C77.2935 137.966 77.0962 137.857 76.9029 137.693C76.692 137.512 76.5545 137.31 76.3126 137.19C75.9868 137.026 75.7079 137.18 75.9408 136.648L75.9399 136.652Z" fill="#FE5500"/>
<path d="M107.189 154.053C107.165 153.894 107.022 153.755 107.015 153.599C107.005 153.4 107.099 153.323 107.148 153.147C107.249 152.781 107.129 152.407 107.225 152.044C107.396 151.391 107.491 150.994 107.959 150.443C108.258 150.088 108.686 149.617 109.039 149.347C109.246 149.19 109.529 149.092 109.725 148.944C109.989 148.744 110.198 148.54 110.544 148.409C111.208 148.16 111.6 147.98 111.996 147.387C112.165 147.135 112.282 146.922 112.542 146.738C112.71 146.622 112.967 146.544 113.094 146.381C113.271 146.148 113.189 145.856 113.64 146.014C113.952 146.124 113.983 146.401 114.094 146.644C114.307 147.116 114.377 147.649 114.494 148.163C114.593 148.181 114.695 148.201 114.791 148.231C114.814 148.561 115.214 148.884 114.976 149.252C114.864 149.427 114.299 149.726 114.107 149.801C113.891 149.885 113.749 149.873 113.554 150.013C113.439 150.144 113.319 150.275 113.2 150.402C113.047 150.512 112.872 150.583 112.684 150.621C112.214 150.882 111.896 151.172 111.544 151.57C111.116 152.058 110.674 152.457 110.093 152.735C109.441 153.047 108.895 153.226 108.789 154.026C108.461 154.041 108.266 154.372 107.899 154.254C107.406 154.095 107.509 153.699 107.178 154.064L107.189 154.053Z" stroke="black" stroke-width="0.97" stroke-miterlimit="10"/>
<path d="M115.173 143.082C115.173 142.843 115.152 142.595 115.165 142.354C115.177 142.151 115.303 141.975 115.317 141.799C115.333 141.602 115.188 141.299 115.163 141.071C115.138 140.843 115.075 140.73 115.018 140.529C114.948 140.274 115.007 140.052 114.981 139.794C114.962 139.615 114.86 139.519 114.833 139.393C114.739 138.965 114.813 138.508 114.791 138.063C114.769 137.656 114.524 137.493 114.438 137.14C114.352 136.787 114.404 136.32 114.326 135.968C114.27 135.708 114.302 135.809 114.371 135.564C114.431 135.36 114.464 135.158 114.595 134.979C114.824 134.668 115.152 134.674 115.462 134.531C115.683 134.783 116.094 135.039 116.227 135.335C116.328 135.567 116.205 135.77 116.153 135.959C116.09 136.197 116.086 136.418 116.068 136.687C116.049 136.995 115.909 137.25 115.873 137.558C115.843 137.837 115.886 138.138 115.885 138.42C115.885 138.646 115.835 138.938 115.879 139.158C115.933 139.405 116.045 139.516 116.073 139.783C116.19 140.768 115.882 141.851 116.17 142.798C116.233 143.009 116.414 143.225 116.416 143.422C116.417 143.568 116.273 143.958 116.226 144.123C116.147 144.395 115.954 144.996 115.581 145.056C115.564 144.886 115.435 144.797 115.399 144.673C115.336 144.466 115.371 144.273 115.272 144.071C115.154 143.822 114.93 143.343 115.17 143.078L115.173 143.082Z" fill="#FE5500"/>
<path d="M122.988 187.925C122.945 187.723 122.592 187.36 122.449 187.199C122.15 186.862 121.798 186.666 121.52 186.29C121.188 185.838 120.958 185.311 120.477 184.966C120.377 184.896 120.173 184.875 120.096 184.798C119.996 184.693 120.055 184.532 119.932 184.414C119.741 184.238 119.401 184.211 119.157 184.104C118.518 183.83 118.085 183.5 117.593 183.015C117.101 182.531 116.831 182.217 116.217 181.97C115.668 181.75 115.166 181.648 114.671 181.291C114.461 181.141 114.23 181.011 114.07 180.795C113.88 180.542 113.936 180.225 113.807 179.965C113.598 179.533 112.534 179.063 113.336 178.494C113.662 178.637 113.904 178.833 114.208 179.014C114.484 179.175 114.739 179.349 114.978 179.553C115.297 179.823 115.626 180.086 115.945 180.356C116.067 180.456 116.216 180.61 116.346 180.695C116.457 180.768 116.618 180.792 116.721 180.867C116.945 181.029 117.102 181.202 117.356 181.324C117.648 181.468 117.937 181.585 118.224 181.732C118.784 182.014 119.289 182.271 119.8 182.618C120.347 182.991 121.039 182.863 121.652 183.042C122.158 183.183 122.669 183.847 122.974 184.272C123.047 184.378 123.175 184.604 123.288 184.69C123.401 184.776 123.555 184.776 123.665 184.857C123.796 184.956 123.927 185.114 123.99 185.265C124.115 185.559 124.031 185.535 123.941 185.762C123.854 185.973 123.794 186.199 123.714 186.416C123.619 186.681 123.496 186.755 123.383 187.003C123.237 187.324 123.229 188.015 122.986 187.916L122.988 187.925Z" fill="#FF5300"/>
<path d="M139.022 183.309C139.013 182.935 139.233 182.742 139.217 182.4C139.193 181.98 138.967 181.753 139.032 181.285C139.071 180.999 139.186 180.743 139.2 180.456C139.212 180.254 139.152 180.03 139.185 179.829C139.245 179.492 139.375 179.299 139.369 178.93C139.365 178.596 139.382 178.258 139.368 177.926C139.352 177.511 139.162 177.481 139.038 177.11C138.913 176.74 139.094 176.358 139.009 176.001C138.95 175.757 138.569 175.46 138.967 175.231C138.8 174.842 138.602 174.476 138.31 174.144C138.018 173.813 137.821 173.366 137.532 173.005C137.202 172.596 136.709 172.286 136.52 171.824C136.375 171.466 136.373 170.615 136.839 170.427C137.132 170.772 137.228 171.251 137.529 171.598C137.633 171.72 137.794 171.821 137.9 171.956C138.019 172.107 138.092 172.256 138.213 172.417C138.612 172.953 139.071 173.395 139.545 173.863C139.65 173.968 139.86 174.148 139.9 174.294C139.974 174.568 139.812 174.586 139.773 174.774C139.701 175.091 139.651 175.605 139.732 175.927C139.826 176.316 140.179 176.436 140.43 176.741C140.661 177.02 140.973 177.228 141.209 177.504C141.634 177.999 141.395 179.381 141.397 180.027C141.398 180.45 141.4 180.874 141.401 181.297C141.403 181.477 141.389 181.666 141.4 181.844C141.417 182.126 141.552 182.302 141.597 182.573C141.655 182.898 141.611 183.333 141.594 183.667C141.579 183.92 141.494 184.721 141.245 184.783C140.795 184.899 140.348 184.031 140.127 183.84C139.893 183.632 139.469 183.467 139.034 183.312L139.022 183.309Z" fill="#FF5300"/>
<path d="M161.796 228.829C161.959 228.879 162.29 228.707 162.432 228.646C162.646 228.549 162.822 228.491 163.065 228.457C163.67 228.373 164.146 228.606 164.711 228.641C165.048 228.663 165.124 228.5 165.367 228.466C165.702 228.419 165.712 228.584 165.98 228.645C166.211 228.698 166.369 228.683 166.584 228.77C166.833 228.874 166.933 228.944 167.134 229.131C168.61 230.507 169.562 232.102 170.436 233.866C170.53 234.054 170.553 234.273 170.655 234.459C170.758 234.645 170.96 234.811 171.074 235.003C171.321 235.419 171.567 235.689 171.903 236.048C172.24 236.407 172.371 236.788 172.628 237.141C172.813 237.397 173.467 237.714 173.336 238.098C173.17 238.582 172.417 238.213 172.184 237.959C171.735 237.476 171.448 236.803 170.94 236.315C170.737 236.119 170.529 235.815 170.313 235.654C170.028 235.444 169.616 235.303 169.291 235.134C168.741 234.85 168.329 234.444 167.83 234.142C167.331 233.839 166.804 233.916 166.193 233.917C165.898 233.918 165.568 233.958 165.276 233.925C164.801 233.872 164.99 233.74 164.696 233.416C164.402 233.093 164.151 232.958 163.929 232.566C163.689 232.139 163.505 231.746 163.158 231.376C162.811 231.006 162.46 230.84 162.257 230.362C162.137 230.083 161.886 229.666 161.816 229.411C161.928 229.355 162.042 229.343 161.797 228.825L161.796 228.829Z" fill="#FF5300"/>
<path d="M199.265 252.411C199.263 251.786 199.278 251.422 198.985 250.851C198.802 250.493 198.539 250.168 198.388 249.817C198.213 249.405 198.181 248.983 198.018 248.578C197.873 248.22 197.712 247.897 197.56 247.533C197.46 247.296 197.128 246.955 197.093 246.717C197.053 246.442 197.074 246.575 197.186 246.345C197.254 246.292 197.319 246.234 197.383 246.176C197.429 246.067 197.437 245.958 197.413 245.841C197.821 245.045 198.354 245.257 198.714 245.925C198.912 246.295 199.083 246.723 199.243 247.11C199.446 247.601 199.472 248.107 199.609 248.591C199.703 248.929 199.929 249.284 199.991 249.666C200.024 249.862 200.03 250.038 200.075 250.215C200.126 250.407 200.17 250.532 200.168 250.762C200.163 251.214 200.271 251.453 200.355 251.852C200.396 252.046 200.447 252.215 200.498 252.402C200.565 252.653 200.474 252.901 200.53 253.141C200.611 253.48 200.911 253.813 200.321 253.55C200.035 253.421 199.043 252.954 199.079 252.591" fill="#FF5300"/>
<path d="M241.87 283.814C241.341 283.83 240.984 283.5 240.503 283.27C239.878 282.974 239.305 282.62 238.676 282.344C238.458 282.247 238.064 282.161 238.195 281.811C238.234 281.713 238.509 281.502 238.623 281.49C239.074 281.443 239.631 281.866 240.036 282.134C240.311 282.316 240.639 282.507 240.961 282.555C241.205 282.593 241.432 282.517 241.682 282.579C242.325 282.738 243.202 282.888 243.788 283.184C244.271 283.427 244.835 283.727 245.296 284.029C245.816 284.37 246.172 284.349 246.797 284.343C247.28 284.342 247.607 284.353 248.029 284.564C248.389 284.745 248.741 284.907 249.033 285.2C249.388 285.555 249.657 285.984 249.99 286.342C250.554 286.959 250.767 287.862 251.304 288.519C252.238 289.669 253.172 290.874 253.938 292.161C254.572 293.22 255.579 293.767 256.395 294.612C257.024 295.264 257.673 295.883 258.279 296.56C258.629 296.953 258.931 296.979 259.424 297.104C260.063 297.263 260.788 297.438 261.471 297.423C261.802 297.417 262.116 297.502 262.429 297.497C262.742 297.491 263.058 297.252 263.355 297.243C263.634 297.234 263.869 297.403 264.17 297.416C264.44 297.431 264.716 297.4 264.992 297.408C265.37 297.421 266.018 297.557 266.32 297.81C266.499 297.958 266.557 298.082 266.554 298.316C266.553 298.47 266.445 298.941 266.374 299.049C266.115 299.451 265.54 299.444 265.091 299.555C264.719 299.649 264.387 299.552 264.022 299.426C263.532 299.254 263.007 299.078 262.526 298.883C262.218 298.756 262.039 298.549 261.714 298.509C261.453 298.475 261.16 298.54 260.894 298.526C260.628 298.512 260.438 298.388 260.173 298.332C259.839 298.259 259.419 298.343 259.072 298.345C258.585 298.344 258.098 298.34 257.613 298.349C257.021 298.359 256.722 298.081 256.392 297.633C255.809 296.837 254.96 296.4 254.146 295.884C253.074 295.208 252.088 294.362 251.309 293.376C250.679 292.582 249.823 291.933 249.334 291.044C248.908 290.271 248.749 289.487 248.057 288.944C247.575 288.564 247.188 288.129 246.771 287.671C246.447 287.314 246.051 287.177 245.716 286.827C245.382 286.476 245.147 285.953 244.764 285.664C244.527 285.486 244.129 285.468 243.879 285.308C243.678 285.181 243.546 284.988 243.351 284.854C242.989 284.604 241.12 283.412 240.807 283.921C240.862 283.887 240.918 283.848 241.883 283.813L241.87 283.814Z" fill="#FF5300"/>
<path d="M307.157 334.844C306.839 334.425 306.431 334.041 306.136 333.61C306.002 333.413 305.908 333.207 305.769 333.03C305.709 332.952 305.573 332.896 305.506 332.812C305.362 332.638 305.349 332.378 305.233 332.194C305.056 331.901 304.805 331.638 304.633 331.343C304.423 330.987 304.172 330.741 303.928 330.387C303.713 330.076 303.482 329.831 303.217 329.57C302.879 329.236 302.83 329.152 302.72 328.7C302.592 328.175 301.75 327.315 302.751 327.198C303.872 327.065 304.817 328.5 305.411 329.268C306.054 330.099 306.494 331.149 307.103 331.98C307.331 332.289 307.64 332.526 307.881 332.838C308.197 333.252 308.643 333.508 308.944 333.927C309.112 334.167 309.246 334.347 309.448 334.564C309.645 334.772 309.619 334.975 309.756 335.165C309.843 335.287 309.977 335.373 310.06 335.495C310.159 335.642 310.195 335.842 310.287 336C310.455 336.291 310.944 336.736 310.805 337.097C310.667 337.459 310.109 337.489 309.817 337.418C309.299 337.291 308.766 336.558 308.337 336.208C308.031 335.958 307.717 335.762 307.435 335.48C307.2 335.238 306.979 334.97 306.668 334.817C306.779 334.873 306.883 334.939 307.157 334.844Z" fill="#FF5300"/>
<path d="M310.479 346.503C309.927 346.377 309.936 345.216 309.923 344.768C309.901 344.097 310.092 343.525 310.1 342.852C310.104 342.536 310.207 342.329 310.262 342.034C310.314 341.768 310.204 341.465 310.263 341.205C310.296 341.063 310.411 341.046 310.439 340.924C310.472 340.778 310.406 340.618 310.438 340.479C310.494 340.232 310.718 340.022 310.953 339.965C311.153 340.194 311.375 340.455 311.588 340.666C311.787 340.861 312.221 341.093 312.292 341.382C312.383 341.749 311.992 342.28 311.914 342.621C311.819 343.035 311.677 343.49 311.576 343.873C311.389 344.582 311.567 345.576 311.569 346.316C311.57 346.59 311.713 347.367 311.403 347.437C310.974 347.535 310.853 346.755 310.476 346.686" fill="#FF5300"/>
<path d="M59.293 69.5925L96.3253 113.249L103.564 116.063L123.083 162.715L140.714 185.628C140.714 185.628 100.056 147.823 100.315 147.048C100.573 146.274 97.382 119.954 97.382 119.954L48.9813 81.9163C48.9813 81.9163 52.0709 79.5839 54.3849 76.7364C56.6989 73.889 59.293 69.5925 59.293 69.5925Z" fill="#062A2A"/>
<path d="M40.0913 107.777C39.7811 108.536 32.3172 114.501 32.3172 114.501C32.3172 114.501 101.418 166.407 101.154 165.372C100.891 164.337 94.4075 155.327 94.4075 155.327L40.0922 107.773L40.0913 107.777Z" fill="#062A2A"/>
<path d="M70.1457 95.9984L69.9994 95.965C69.983 95.7005 69.8059 95.5403 69.7773 95.273C69.7503 95.036 69.7795 94.7777 69.7787 94.5381C69.7785 94.2773 69.812 93.9815 69.7575 93.734C69.7174 93.5538 69.6427 93.6564 69.6216 93.4122C69.6065 93.2164 69.7634 92.9232 69.7742 92.7077C69.8063 92.1936 69.7453 91.6752 69.7653 91.1583C69.7895 90.4543 70.1793 90.6375 70.6334 90.2968C71.0198 90.0091 71.3087 89.8486 71.7677 89.6544C72.1134 89.507 72.8196 89.1855 73.0066 88.835C73.1127 88.6327 73.0451 88.3865 73.0016 88.1842C72.9906 88.1389 72.8695 88.0514 72.8497 87.9699C72.8144 87.8251 72.8706 87.6541 72.8413 87.5021C72.717 86.8496 72.4877 86.2073 72.349 85.543C72.2665 85.1565 72.1961 84.7728 72.0963 84.3867C71.9856 83.9553 72.0215 83.4805 71.898 83.0675C71.8125 82.7872 71.6252 82.6717 71.5581 82.4042C71.4797 82.0743 71.6374 81.7214 71.5246 81.3921C71.3622 80.9061 70.9088 80.9264 70.6457 80.5627C70.4763 80.3316 70.4417 80.016 70.3262 79.7545C70.3156 79.7264 70.2923 79.4731 70.2438 79.4236C70.1571 79.3354 69.9688 79.3735 69.8615 79.2635C69.5188 78.9115 69.7663 78.1475 69.8704 77.7481C69.9538 77.421 69.8613 77.0964 69.9 76.759C69.9387 76.4216 70.0794 76.1802 70.0866 75.8314C70.1125 74.7089 70.0797 73.5815 70.0722 72.4556C70.0666 71.826 70.2 71.3735 70.3414 70.8117C70.4975 70.1849 70.613 69.4933 70.6082 68.804C70.6089 68.6888 70.5909 68.5436 70.6028 68.4352C70.6262 68.2396 70.7179 68.1751 70.7463 68.032C70.8055 67.7549 70.7462 67.472 70.8256 67.1996C70.905 66.9271 71.2888 66.1087 71.519 65.9433C71.4771 66.7245 71.5142 67.5152 71.5198 68.2944C71.5243 69.0221 71.7104 69.6289 71.7087 70.3466C71.7092 70.9237 71.8089 71.609 71.6979 72.1692C71.6558 72.3904 71.2907 72.8839 71.7825 72.8084C72.0969 72.7606 72.2637 71.9567 72.3932 71.7641C73.0693 72.0598 72.4106 73.3324 72.2643 73.7478C72.1075 74.1906 71.9503 74.6163 71.909 75.0771C71.9038 75.1186 71.6804 75.8711 71.7008 75.9313C71.8022 76.1981 71.8602 76.0191 72.0871 76.0923C72.314 76.1656 72.36 76.0393 72.5091 76.2658C72.7133 76.569 72.5126 76.4931 72.4952 76.6815C72.4612 77.0542 72.4548 77.4374 72.4556 77.8265C72.4578 78.1903 72.3959 78.6293 72.5018 78.9698C72.5572 79.1577 72.7631 79.5467 72.865 79.7367C72.9248 79.8487 73.1375 80.1709 73.2423 80.2548C73.3646 80.3554 73.4925 80.2821 73.6164 80.413C73.7951 80.6035 73.8921 81.1514 73.9388 81.4143C74.0022 81.7536 73.9445 82.0995 74.0223 82.4507C74.0891 82.7566 74.1378 83.0669 74.2037 83.3769C74.2898 83.7856 74.456 84.1613 74.5652 84.5624C74.6514 84.877 74.6424 85.234 74.8518 85.4956C75.0478 85.7414 75.3828 85.7154 75.5498 85.9759C75.7168 86.2363 75.5892 86.7756 75.5919 87.0626L75.6003 89.2872C75.6026 89.7066 75.6793 90.2499 75.5773 90.6583C75.0559 90.7143 74.8373 91.0532 74.3379 91.1997C74.0897 91.2755 73.8341 91.1785 73.5913 91.2683C73.3947 91.343 73.1725 91.6043 73.0044 91.7411C72.8473 91.8675 72.7142 92.038 72.5539 92.1595C72.4096 92.2675 72.3178 92.2764 72.1499 92.3748C71.5934 92.6963 71.1448 93.1067 70.8677 93.7015C70.5905 94.2964 70.5691 95.4926 70.691 96.1744C70.7412 96.4595 70.8901 96.5747 70.8494 96.8646C70.8504 96.8606 70.6472 97.2629 70.6731 97.2432C70.1822 97.6139 69.8638 96.4084 69.7725 96.1909C69.4809 96.2139 69.1445 96.3764 70.1547 95.9962L70.1457 95.9984Z" fill="#FE5500"/>
<path d="M66.9805 46.7478C63.1073 46.6569 59.2971 47.1319 55.5516 48.1089C52.7875 48.8316 54.119 53.0643 56.879 52.3406C60.2656 51.4567 63.6778 51.096 67.1768 51.1782C70.0295 51.2451 69.8292 46.8138 66.9814 46.7438L66.9805 46.7478Z" fill="black"/>
<path d="M32.3288 114.264C34.6738 106.423 37.5747 98.7854 41.0207 91.3626C42.2181 88.7813 38.3163 86.6664 37.1121 89.259C33.4994 97.0369 30.4587 105.061 28.003 113.275C27.1847 116.011 31.5134 116.988 32.3288 114.264Z" fill="black"/>
<path d="M29.1361 116.355C32.8587 118.561 36.3281 121.09 39.5757 123.953C41.7171 125.841 44.7562 122.608 42.6107 120.719C39.0821 117.608 35.2807 114.85 31.2388 112.45C28.7774 110.99 26.685 114.905 29.1351 116.359L29.1361 116.355Z" fill="black"/>
<path d="M38.8607 122.259C37.8205 126.676 37.4657 131.199 37.8246 135.722C38.0475 138.56 42.4863 138.382 42.259 135.526C41.9277 131.369 42.2281 127.308 43.1865 123.249C43.8392 120.47 39.5183 119.478 38.8607 122.259Z" fill="black"/>
<path d="M40.3518 137.642C67.0289 156.045 93.6785 174.493 120.386 192.857C127.573 197.8 134.872 202.611 142.868 206.167C145.464 207.321 147.583 203.42 144.972 202.259C137.953 199.14 131.456 195.047 125.114 190.741C118.422 186.197 111.783 181.562 105.124 176.966L65.0611 149.325L42.4595 133.734C40.1081 132.111 38.0301 136.038 40.3559 137.643L40.3518 137.642Z" fill="black"/>
<path d="M142.812 206.428L169.793 247.555C171.358 249.943 175.119 247.589 173.551 245.196L146.57 204.069C145.005 201.681 141.244 204.035 142.812 206.428Z" fill="black"/>
<path d="M173.034 248.318C177.736 247.422 182.488 246.919 187.27 246.739C190.12 246.63 189.937 242.199 187.074 242.305C181.905 242.499 176.789 243.115 171.708 244.082C168.91 244.613 170.255 248.844 173.035 248.313L173.034 248.318Z" fill="black"/>
<path d="M186.205 245.919C202.579 259.153 218.185 273.314 232.936 288.34C234.943 290.385 237.968 287.14 235.971 285.106C221.22 270.081 205.618 255.92 189.24 242.685C187.028 240.897 183.982 244.124 186.205 245.919Z" fill="black"/>
<path d="M231.82 288.453L252.316 318.316C253.928 320.668 257.692 318.319 256.074 315.957L235.579 286.094C233.967 283.742 230.202 286.091 231.82 288.453Z" fill="black"/>
<path d="M254.954 318.966L267.084 316.129C269.865 315.478 268.525 311.248 265.756 311.897L253.626 314.735C250.845 315.385 252.185 319.615 254.954 318.966Z" fill="black"/>
<path d="M268.089 314.927L271.723 309.599C272.398 308.608 271.798 307.12 270.82 306.593C269.671 305.975 268.491 306.5 267.814 307.495L264.18 312.823C263.505 313.814 264.105 315.302 265.083 315.829C266.232 316.447 267.413 315.922 268.089 314.927Z" fill="black"/>
<path d="M268.281 310.35L286.837 324.455C289.091 326.168 292.145 322.947 289.872 321.221L271.316 307.116C269.062 305.404 266.009 308.625 268.281 310.35Z" fill="black"/>
<path d="M286.463 324.015C289.742 329.975 293.467 335.666 297.62 341.057C299.35 343.303 303.12 340.964 301.378 338.698C297.225 333.307 293.503 327.621 290.221 321.656C288.842 319.148 285.09 321.517 286.463 324.015Z" fill="black"/>
<path d="M299.351 343.577L344.54 371.72C346.968 373.233 349.056 369.317 346.643 367.811L301.455 339.669C299.027 338.156 296.939 342.072 299.351 343.577Z" fill="black"/>
<path d="M348.758 371.608C350.497 368.415 352.414 365.34 354.521 362.372C356.169 360.044 352.245 357.971 350.612 360.269C348.51 363.237 346.589 366.311 344.85 369.504C343.48 372.016 347.39 374.116 348.758 371.608Z" fill="black"/>
<path d="M319.891 338.713C330.54 345.937 340.613 353.96 350.073 362.684C352.177 364.623 355.208 361.388 353.108 359.45C343.366 350.465 332.961 342.246 321.993 334.809C319.629 333.204 317.548 337.126 319.89 338.718L319.891 338.713Z" fill="black"/>
<path d="M316.534 323.733C317.25 328.077 317.775 332.472 318.907 336.736C319.639 339.498 323.871 338.166 323.139 335.408C322.106 331.513 321.62 327.508 320.963 323.541C320.505 320.761 316.063 320.916 316.529 323.736L316.534 323.733Z" fill="black"/>
<path d="M296.82 313.309C303.395 317.617 310.196 321.557 317.202 325.126C319.748 326.422 321.851 322.518 319.306 321.218C312.3 317.649 305.5 313.704 298.923 309.4C296.532 307.836 294.448 311.753 296.82 313.309Z" fill="black"/>
<path d="M296.228 317.033L298.815 313.107C299.475 312.108 298.901 310.635 297.912 310.101C296.778 309.491 295.568 309.996 294.906 311.003L292.32 314.93C291.659 315.928 292.233 317.402 293.222 317.936C294.356 318.546 295.566 318.04 296.228 317.033Z" fill="black"/>
<path d="M273.439 303.704C279.924 307.867 286.176 312.357 292.191 317.174C294.409 318.951 297.46 315.725 295.226 313.94C288.915 308.885 282.344 304.163 275.538 299.798C273.13 298.252 271.045 302.173 273.434 303.707L273.439 303.704Z" fill="black"/>
<path d="M272.598 299.904L272.581 300.875C272.544 303.354 276.545 303.747 276.962 301.27L277.733 296.667C277.93 295.486 277.281 294.29 276.066 294.012C274.949 293.757 273.609 294.493 273.411 295.679L272.64 300.281L277.021 300.676L277.038 299.705C277.055 298.508 275.871 297.537 274.723 297.586C273.467 297.64 272.622 298.7 272.603 299.901L272.598 299.904Z" fill="black"/>
<path d="M238.234 265.457C250.627 275.28 262.573 285.655 274.036 296.552C276.111 298.523 279.143 295.284 277.071 293.319C265.608 282.421 253.665 272.052 241.269 262.223C239.044 260.458 235.994 263.684 238.234 265.457Z" fill="black"/>
<path d="M234.154 267.803C236.145 267.078 238.294 266.877 240.256 266.074C241.363 265.622 242.089 264.505 241.708 263.294C241.371 262.225 240.041 261.387 238.928 261.842C236.966 262.646 234.817 262.847 232.827 263.571C230.15 264.545 231.463 268.786 234.154 267.803Z" fill="black"/>
<path d="M170.431 215.387C189.953 233.436 210.297 250.579 231.403 266.746C233.655 268.471 236.704 265.249 234.438 263.512C213.333 247.341 192.988 230.202 173.466 212.153C171.367 210.211 168.331 213.449 170.431 215.387Z" fill="black"/>
<path d="M80.8148 78.4475L86.8745 78.9018C88.0721 78.9919 89.0424 77.6836 88.9941 76.5869C88.9353 75.274 87.8808 74.5584 86.6792 74.4673L80.6195 74.0131C79.4219 73.923 78.4516 75.2313 78.4999 76.328C78.5587 77.6409 79.6132 78.3565 80.8148 78.4475Z" fill="black"/>
<path d="M85.3542 78.6181L152.035 184.31L170.707 213.903C172.232 216.32 175.99 213.961 174.465 211.544L107.785 105.851L89.1123 76.2591C87.5879 73.8417 83.8298 76.2007 85.3542 78.6181Z" fill="black"/>
<path d="M82.4822 77.1405L84.8543 70.0962C85.2378 68.9614 84.2721 67.6891 83.1876 67.441C81.9203 67.1511 80.9128 67.9679 80.5325 69.1076L78.1604 76.152C77.7769 77.2868 78.7425 78.5591 79.827 78.8072C81.0943 79.0971 82.1018 78.2803 82.4822 77.1405Z" fill="black"/>
<path d="M65.3647 49.849L81.3868 70.9017C83.106 73.1585 86.8767 70.8195 85.1449 68.5427L69.1228 47.49C67.4036 45.2331 63.6329 47.5722 65.3647 49.849Z" fill="black"/>
<path d="M52.6054 51.0297L46.7462 80.3836C46.1879 83.1795 50.511 84.1811 51.0721 81.373L56.9313 52.0191C57.4896 49.2232 53.1665 48.2216 52.6054 51.0297Z" fill="black"/>
<path d="M46.4877 83.0644L96.2522 121.063C98.5045 122.784 101.558 119.563 99.2872 117.829L49.5227 79.8305C47.2705 78.1099 44.217 81.3311 46.4877 83.0644Z" fill="black"/>
<path d="M94.9046 120.507C95.6284 129.807 96.9624 139.037 98.8624 148.165C99.4422 150.957 103.673 149.616 103.094 146.838C101.271 138.082 100.031 129.228 99.339 120.312C99.1202 117.475 94.6823 117.648 94.9046 120.507Z" fill="black"/>
<path d="M38.0182 92.2489C58.9101 110.885 79.4452 129.922 99.6101 149.345C101.674 151.33 104.701 148.09 102.645 146.111C82.4802 126.688 61.9492 107.652 41.0532 89.015C38.9195 87.1122 35.8845 90.3461 38.0182 92.2489Z" fill="black"/>
<path d="M32.5117 115.054L40.5211 109.021C41.7557 108.089 40.4822 106.033 39.2335 106.97L31.2241 113.003C29.9895 113.934 31.263 115.991 32.5117 115.054Z" fill="black"/>
<path d="M40.9892 93.4244L38.4712 107.984C38.2068 109.513 40.5649 110.061 40.8311 108.524L43.3491 93.9641C43.6135 92.4346 41.2554 91.8867 40.9892 93.4244Z" fill="black"/>
<path d="M40.4879 127.59C59.0805 141.815 77.1154 156.758 94.5514 172.377C95.7114 173.416 97.367 171.653 96.207 170.614C78.771 154.995 60.736 140.052 42.1435 125.827C40.9136 124.888 39.2509 126.644 40.4879 127.59Z" fill="black"/>
<path d="M39.2593 109.117C58.3902 123.268 76.3778 138.923 93.0328 155.919C94.1247 157.032 95.7771 155.264 94.6884 154.156C78.0334 137.16 60.0458 121.506 40.9149 107.354C39.6754 106.438 38.0086 108.194 39.2593 109.117Z" fill="black"/>
<path d="M92.5412 155.003C95.1224 158.556 97.676 162.136 100.355 165.617C101.297 166.841 103.354 165.568 102.406 164.329C99.7272 160.848 97.1737 157.268 94.5924 153.715C93.6827 152.46 91.6252 153.738 92.5412 155.003Z" fill="black"/>
<path d="M41.3462 122.379L126.5 185.446C127.74 186.362 129.407 184.606 128.156 183.683L43.0018 120.616C41.7623 119.7 40.0955 121.456 41.3462 122.379Z" fill="black"/>
<path d="M126.663 185.278L139.198 201.861C140.13 203.096 142.187 201.818 141.25 200.574L128.715 183.99C127.783 182.756 125.726 184.033 126.663 185.278Z" fill="black"/>
<path d="M50.7478 81.7991C54.1146 78.1238 57.0266 74.1009 59.462 69.751C60.2261 68.3913 58.0905 67.2446 57.3304 68.6053C54.9956 72.7773 52.2153 76.6166 48.9851 80.1435C47.9317 81.2917 49.6985 82.9482 50.7478 81.7991Z" fill="black"/>
<path d="M64.9611 49.1284L57.7678 68.842C57.2332 70.3012 59.6009 70.8257 60.1278 69.3818L67.3211 49.6682C67.8557 48.209 65.488 47.6845 64.9611 49.1284Z" fill="black"/>
<path d="M58.557 71.2409L95.7339 114.302C96.7503 115.484 98.3965 113.706 97.3895 112.539L60.2126 69.4781C59.1962 68.2967 57.55 70.0745 58.557 71.2409Z" fill="black"/>
<path d="M95.7753 114.478L102.064 117.165C103.485 117.772 104.642 115.647 103.21 115.033L96.921 112.347C95.4998 111.74 94.3427 113.864 95.7753 114.478Z" fill="black"/>
<path d="M101.762 116.634L121.274 163.092C121.871 164.516 124.188 163.806 123.581 162.368L104.069 115.91C103.471 114.486 101.154 115.196 101.762 116.634Z" fill="black"/>
<path d="M122.138 164.303C128.411 171.376 134.63 178.457 139.916 186.313C140.783 187.606 142.837 186.323 141.967 185.025C136.567 176.998 130.204 169.76 123.795 162.536C122.758 161.367 121.112 163.145 122.139 164.299L122.138 164.303Z" fill="black"/>
<path d="M100.996 149.602C123.77 171.913 146.987 193.765 170.637 215.143C171.795 216.19 173.452 214.423 172.292 213.38C148.643 192.002 125.426 170.15 102.652 147.839C101.538 146.747 99.8855 148.515 100.996 149.602Z" fill="black"/>
<path d="M145.268 206.644C159.582 219.296 173.889 231.963 188.204 244.615C189.37 245.647 191.03 243.885 189.859 242.852C175.545 230.2 161.238 217.533 146.923 204.881C145.757 203.849 144.098 205.611 145.268 206.644Z" fill="black"/>
<path d="M232.564 285.015C243.883 293.87 254.578 303.489 264.584 313.805C265.67 314.925 267.323 313.157 266.24 312.042C256.234 301.726 245.538 292.107 234.219 283.252C233.001 282.298 231.333 284.058 232.564 285.015Z" fill="black"/>
<path d="M270.35 308.408C272.111 305.922 273.688 303.307 274.908 300.513C275.528 299.095 273.403 297.938 272.777 299.368C271.555 302.166 269.983 304.777 268.218 307.263C267.317 308.531 269.459 309.667 270.35 308.408Z" fill="black"/>
<path d="M291.997 324.806C293.546 321.528 295.29 318.37 297.238 315.311C298.074 313.993 295.94 312.855 295.106 314.165C293.163 317.225 291.418 320.387 289.866 323.661C289.202 325.065 291.328 326.218 291.997 324.806Z" fill="black"/>
<path d="M291.131 324.053C308.419 338.167 325.298 352.782 341.744 367.871C342.892 368.924 344.548 367.161 343.4 366.108C326.955 351.015 310.075 336.404 292.786 322.29C291.583 321.309 289.924 323.067 291.131 324.053Z" fill="black"/>
<path d="M56.7091 60.483C57.2553 60.3001 59.2638 60.657 59.2638 60.657L54.8173 40.6106L83.2621 37.961L81.0334 79.0064L78.9566 112.025L48.9608 140.218L41.2862 136.415C41.2862 136.415 40.6963 124.381 40.1512 124.017C39.6062 123.653 35.03 120.02 35.03 120.02L34.0014 138.626L47.3362 144.779L66.4398 130.85L81.705 115.295L83.4461 91.7615L83.9853 89.5724L84.1593 87.0176L87.2633 35.025C87.2633 35.025 68.8395 34.3587 68.294 34.7255C67.7484 35.0923 49.7002 38.0724 49.7002 38.0724L56.7091 60.483Z" fill="#09DEEE"/>
<path d="M97.111 88.2489L100.227 93.1633L111.734 97.6845L106.91 127.613L105.474 134.546L104.751 136.736L104.941 139.289L102.97 149.511C102.97 149.511 81.6591 157.973 80.9321 158.161C80.2051 158.35 76.5644 160.363 76.5644 160.363C76.5644 160.363 64.3584 164.599 64.7225 164.054C65.0865 163.509 67.6114 156.02 67.6114 156.02L65.601 154.569L59.6343 169.182L80.0399 162.548L86.4133 160.154L93.5191 157.941L104.632 154.618L107.673 137.828L108.584 137.096L115.024 100.959L116.286 97.1229L97.106 88.2521L97.111 88.2489Z" fill="#09DEEE"/>
<path d="M123.523 130.835L130.264 129.171L137.266 150.303L137.095 153.405L138.238 167.263L117.214 206.185L117.048 210.926C117.048 210.926 122.556 222.034 122.921 221.485C123.286 220.936 141.842 207.01 141.842 207.01L142.386 205.548L143.668 206.82L144.219 208.276L119.853 229.515L109.571 210.036L134.952 165.447L134.17 149.582L127.73 133.187L125.726 133.742L123.528 130.832L123.523 130.835Z" fill="#08E0ED"/>
<path d="M92.9942 137.12L96.5005 136.161L97.1763 139.859L96.132 140.052L92.9942 137.12Z" fill="#08E0ED"/>
</svg>
