<svg width="402" height="400" viewBox="0 0 402 400" fill="none" xmlns="http://www.w3.org/2000/svg">
<path d="M175.926 145.694C175.926 145.694 287.658 236.242 302.807 246.41C317.956 256.579 341.205 266.011 350.989 259.628C360.772 253.246 355.035 234.142 355.035 234.142C355.035 234.142 377.722 254.985 368.443 286.015C361.424 309.489 340.064 322.129 316.355 316.093C292.643 310.065 274.453 294.491 248.028 273.275C221.594 252.056 145.417 180.91 145.417 180.91" fill="#FFDD55"/>
<path d="M260.414 216.705L269.485 255.022L230.447 221.883L220.106 182.049L260.414 216.705Z" fill="#FFCA1B"/>
<path d="M283.23 233.079L292.434 274.129L283.524 267.256L273.056 224.701L283.23 233.079Z" fill="#FFCA1B"/>
<path d="M289.336 236.641C289.806 237.342 297.069 275.743 297.069 275.743C297.069 275.743 313.458 287.906 327.382 288.094C341.306 288.281 344.17 286.23 344.17 286.23L339.612 262.223C339.612 262.223 327.904 260.833 316.73 254.794C305.556 248.755 289.333 236.65 289.333 236.65L289.336 236.641Z" fill="#FFCA1B"/>
<path d="M349.394 260.421L353.428 279.225C353.428 279.225 359.119 270.089 360.645 264.162C362.171 258.236 358.828 243.62 358.828 243.62C358.828 243.62 359.553 249.255 355.899 254.616C352.236 259.975 349.394 260.421 349.394 260.421Z" fill="#FFCA1B"/>
<path d="M182.906 160.13C182.906 160.13 269.069 230.484 289.17 245.903C309.267 261.33 327.952 269.984 338.835 269.113C349.719 268.242 354.365 265.728 357.372 261.216C360.379 256.704 358.687 250.732 358.687 250.732C358.687 250.732 358.69 258.441 351.646 260.658C344.602 262.876 336.964 265.228 321.902 258.011C306.839 250.794 239.348 198.42 229.555 189.452C219.762 180.484 182.528 152.994 182.528 152.994L182.918 160.125L182.906 160.13Z" fill="white"/>
<path d="M292.013 273.26L298.219 310.042L290.089 305.053L282.62 266.766L292.013 273.26Z" fill="#D28F00"/>
<path d="M344.274 286.97L349.445 313.34C349.445 313.34 342.849 317.862 328.49 317.885C314.131 317.907 304.539 314.031 304.539 314.031L297.061 275.74C297.061 275.74 310.487 285.074 322.619 287.324C334.751 289.575 344.265 286.967 344.265 286.967L344.274 286.97Z" fill="#D28F00"/>
<path d="M182.962 151.719L196.02 193.036L158.521 160.609L174.226 143.842L182.962 151.719Z" fill="#FFCA1B"/>
<path d="M270.431 256.964L275.681 293.404L241.425 266.59L231.651 224.091L270.431 256.964Z" fill="#D28F00"/>
<path d="M196.019 193.036L209.215 239.599L144.239 179.494L157.762 160.599L196.019 193.036Z" fill="#D28F00"/>
<path d="M132.947 166.467C132.947 166.467 100.526 125.462 81.5913 114.748C64.7766 105.24 57.7553 106.86 48.4266 115.697C42.7442 121.075 42.7327 134.044 42.7327 134.044C42.7327 134.044 28.84 117.182 38.6104 100.791C48.3807 84.3995 66.3517 79.3333 85.6005 85.2726C104.849 91.2118 123.527 106.087 139.336 119.718C155.148 133.341 158.437 137.026 158.437 137.026" fill="#975B00"/>
<path d="M120.647 149.045C120.647 149.045 122.895 146.516 124.94 145.665C126.985 144.814 128.217 144.08 128.217 144.08C128.217 144.08 127.59 147.565 126.809 149.247C126.029 150.929 124.538 153.526 124.538 153.526L120.635 149.051L120.647 149.045Z" fill="white"/>
<path d="M112.147 140.43C112.147 140.43 113.517 138.181 114.48 135.976C115.439 133.78 115.713 130.749 115.713 130.749C115.713 130.749 113.477 132.12 111.898 133.319C110.318 134.518 108.483 136.419 108.483 136.419L112.159 140.424L112.147 140.43Z" fill="white"/>
<path d="M102.343 128.83C102.343 128.83 104.296 126.589 104.781 125.195C105.267 123.801 105.772 120.665 105.772 120.665C105.772 120.665 103.188 121.914 101.547 123.287C99.9068 124.66 98.4807 125.922 98.4807 125.922L102.343 128.83Z" fill="white"/>
<path d="M93.774 116.488C94.6686 115.041 95.4619 112.201 95.4619 112.201C95.4619 112.201 91.9497 113.899 90.828 114.876C89.7063 115.853 88.057 117.223 88.057 117.223C88.057 117.223 91.5104 120.184 91.8589 120.305C92.2074 120.427 93.774 116.488 93.774 116.488Z" fill="white"/>
<path d="M82.1482 115.148L82.1484 85.6484L74.6479 84.1484L74.6482 110.148L82.1482 115.148Z" fill="#FFDD55"/>
<path d="M133.148 163.648L135.648 117.148L118.648 104.148L116.648 148.148L133.148 163.648Z" fill="#FFCA1B"/>
<path d="M82.4649 113.137L85.4161 105.782C85.4161 105.782 82.9532 106.683 81.3734 107.882C79.7935 109.081 78.0199 110.808 78.0199 110.808L82.4737 113.14L82.4649 113.137Z" fill="white"/>
<path d="M72.3463 108.051L72.0846 100.946L67.9906 107.121L72.3463 108.051Z" fill="white"/>
<path d="M62.1117 106.637L59.0908 101.873L58.0238 107.744L62.1117 106.637Z" fill="white"/>
<path d="M51.8138 110.457C51.291 110.275 49.0498 108.323 49.0498 108.323L49.2942 112.11L51.8225 110.46L51.8138 110.457Z" fill="white"/>
<path d="M41.2018 107.349L38.6562 105.681L37.6809 109.044L41.2018 107.349Z" fill="white"/>
<path d="M48.7854 92.8345L51.8249 96.4229L51.9686 90.4258L48.7854 92.8345Z" fill="white"/>
<path d="M63.7815 86.1562C63.7815 86.1562 63.8065 88.8905 64.3745 90.0652C64.9425 91.2399 65.6318 92.066 66.0323 92.0101C66.4327 91.9541 66.8661 90.7373 67.4698 89.0033C68.0734 87.2694 68.0966 85.519 68.0966 85.519L63.7785 86.1649L63.7815 86.1562Z" fill="white"/>
<path d="M95.148 124.647L95.148 88.1475L82.6479 85.1475L82.6479 117.647L95.148 124.647Z" fill="#D28F00"/>
<path d="M80.535 87.3093L81.0883 93.5491C81.0883 93.5491 82.21 92.5719 82.9802 91.4821C83.7504 90.3923 84.4784 88.3012 84.4784 88.3012L80.532 87.318L80.535 87.3093Z" fill="white"/>
<path d="M96.873 93.5833L95.7982 100.038L101.145 96.4381L96.873 93.5833Z" fill="white"/>
<path d="M108.999 101.322L106.988 108.222C106.988 108.222 110.439 106.698 111.205 106.183C111.97 105.668 113.627 103.714 113.627 103.714L108.999 101.322Z" fill="white"/>
<path d="M121.574 109.988C121.574 109.988 120.772 113.412 120.174 114.571C119.575 115.73 118.903 118.222 118.903 118.222C118.903 118.222 122.119 116.811 123.589 115.956C125.06 115.1 126.64 113.901 126.64 113.901L121.565 109.985L121.574 109.988Z" fill="white"/>
<path d="M192.769 125.122C190.364 129.111 174.884 139.567 157.339 162.015C136.288 188.947 124.655 203.42 124.655 203.42C124.655 203.42 118.813 180.831 143.989 151.535C169.164 122.238 192.769 125.122 192.769 125.122Z" fill="#985C00"/>
<path d="M133.848 120.104C133.848 120.104 132.419 122.527 131.638 124.209C130.857 125.891 129.889 128.67 129.889 128.67C129.889 128.67 133.341 127.146 134.872 126.116C136.402 125.086 137.877 123.656 137.877 123.656L133.848 120.104Z" fill="white"/>
<path d="M162.149 158.145L164.149 132.145L152.649 144.145L150.649 172.145L162.149 158.145Z" fill="#D28F00"/>
<path d="M147.324 131.233C147.324 131.233 145.182 134.581 144.522 135.914C143.863 137.247 142.183 140.951 142.183 140.951C142.183 140.951 146.278 139.261 148.044 138.117C149.81 136.973 151.685 135.487 151.685 135.487L147.313 131.239L147.324 131.233Z" fill="white"/>
<path d="M140.563 157.923C140.563 157.923 142.387 160.512 143.534 162.269C144.681 164.026 145.111 166.13 145.111 166.13C145.111 166.13 143.073 165.811 140.816 165.025C138.699 164.288 136.703 163.398 136.703 163.398L140.563 157.923Z" fill="white"/>
<path d="M144.119 175.153C144.119 175.153 134.937 173.52 135.695 173.588C136.453 173.657 139.725 181.038 139.725 181.038L144.107 175.159L144.119 175.153Z" fill="white"/>
<path d="M132.526 184.374L128.975 180.012L127.438 186.11L132.526 184.374Z" fill="white"/>
<path d="M155.061 162.775C155.061 162.775 151.984 157.61 151.765 156.557C151.545 155.504 150.917 154.503 151.27 154.05C151.623 153.597 154.694 154.851 155.913 155.276C157.133 155.701 160.201 156.964 160.201 156.964L155.061 162.775Z" fill="white"/>
<path d="M155.31 143.567C155.894 143.575 161.263 146.617 162.028 146.102C162.794 145.587 159.709 141.006 159.709 141.006L155.31 143.567Z" fill="white"/>
<path d="M148.173 150.627C148.173 150.627 159.947 140.883 167.64 136.156C174.179 132.132 184.512 128.578 185.747 127.836C186.982 127.093 187.056 125.761 186.702 126.214C186.349 126.668 173.269 129.529 163.749 135.574C154.23 141.619 148.176 150.618 148.176 150.618L148.173 150.627Z" fill="white"/>
<path d="M171.791 143.258C171.791 143.258 168.798 136.169 169.561 135.663C170.323 135.156 176.582 137.326 176.582 137.326L171.791 143.258Z" fill="white"/>
<path d="M38.3291 100.028C42.1825 93.5057 51.4876 85.3543 65.8077 83.1983C80.119 81.0393 90.136 89.167 107.823 97.8254C125.509 106.484 158.665 138.366 158.665 138.366L155.122 140.347C155.122 140.347 129.412 114.524 107.312 101.116C85.2126 87.707 73.104 85.6993 63.7581 87.9067C54.4123 90.1141 49.9893 91.6222 44.169 98.8279C39.378 104.76 37.4551 109.161 37.4551 109.161L38.3378 100.031" fill="white"/>
<path d="M178.807 149.989C178.807 149.989 177.365 154.665 174.35 161.108C171.293 167.644 169.324 171.053 169.324 171.053L158.272 161.353L173.119 143.906L178.801 149.977L178.807 149.989Z" fill="#C88400"/>
<g style="mix-blend-mode:multiply" opacity="0.2">
<path d="M169.333 171.055C169.333 171.055 166.131 176.017 164.345 178.902C162.559 181.788 159.712 185.251 159.712 185.251C159.712 185.251 230.985 251.007 258.584 273.091C286.182 295.174 304.589 307.825 318.996 310.105C333.409 312.397 345.505 308.998 352.877 301.825C360.249 294.651 363.673 287.061 365.319 276.721C366.967 266.373 366.856 257.181 366.856 257.181C366.856 257.181 373.333 264.897 369.801 280.626C366.278 296.359 359.101 305.75 348.59 312.426C338.079 319.103 321.95 323.423 295.769 308.466C269.59 293.501 229.719 257.395 207.218 237.477C184.718 217.559 143.467 179.801 143.467 179.801L157.754 160.596C157.754 160.596 169.151 171.129 169.321 171.061L169.333 171.055Z" fill="#965B00"/>
</g>
<path d="M353.609 277.666L357.487 304.661C357.487 304.661 367.579 295.259 369.76 280.241C372.216 263.335 369.903 257.157 365.244 248.902C360.586 240.647 357.603 239.423 357.603 239.423C357.603 239.423 364.299 251.083 361.314 262.773C358.32 274.46 354.318 277.2 354.318 277.2L353.618 277.669L353.609 277.666Z" fill="#D28F00"/>
<path d="M175.926 145.694C175.926 145.694 287.658 236.242 302.807 246.41C317.956 256.579 341.205 266.011 350.989 259.628C360.772 253.246 355.035 234.142 355.035 234.142C355.035 234.142 377.722 254.985 368.443 286.015C361.424 309.489 340.064 322.129 316.355 316.093C292.643 310.065 274.453 294.491 248.028 273.275C221.594 252.056 145.417 180.91 145.417 180.91" stroke="black" stroke-width="5.14" stroke-linecap="round" stroke-linejoin="round"/>
<path d="M159.387 161.966C159.387 161.966 255.161 244.028 279.306 263.6C303.451 283.172 329.959 292.029 343.652 286.509C356.888 281.182 362.443 261.887 361.263 253.602C360.08 245.326 356.479 239.452 356.479 239.452" stroke="black" stroke-width="3" stroke-linecap="round" stroke-linejoin="round"/>
<path d="M192.769 125.122C190.364 129.111 174.884 139.567 157.339 162.015C136.288 188.947 124.655 203.42 124.655 203.42C124.655 203.42 118.813 180.831 143.989 151.535C169.164 122.238 192.769 125.122 192.769 125.122Z" stroke="black" stroke-width="5.14" stroke-linecap="round" stroke-linejoin="round"/>
<path d="M132.947 166.467C132.947 166.467 100.526 125.462 81.5913 114.748C64.7766 105.24 57.7553 106.86 48.4266 115.697C42.7442 121.075 42.7327 134.044 42.7327 134.044C42.7327 134.044 28.84 117.182 38.6104 100.791C48.3807 84.3995 66.3517 79.3333 85.6005 85.2726C104.849 91.2118 123.527 106.087 139.336 119.718C155.148 133.341 158.437 137.026 158.437 137.026" stroke="black" stroke-width="4.71" stroke-linecap="round" stroke-linejoin="round"/>
<path d="M144.334 148.353C144.334 148.353 115.506 118.016 99.1871 106.747C81.3851 94.4631 73.0016 92.3064 59.842 95.8433C46.6824 99.3802 43.6885 107.98 41.3325 114.018C38.4992 121.287 40.3758 129.169 40.3758 129.169" stroke="black" stroke-width="3" stroke-linecap="round" stroke-linejoin="round"/>
</svg>
