<svg width="400" height="400" viewBox="0 0 400 400" fill="none" xmlns="http://www.w3.org/2000/svg">
<path d="M175.454 144.177C175.454 144.177 287.187 234.726 302.335 244.894C317.484 255.062 340.733 264.495 350.517 258.112C360.3 251.729 354.563 232.626 354.563 232.626C354.563 232.626 377.25 253.468 367.971 284.499C360.952 307.973 339.592 320.613 315.883 314.576C292.171 308.549 273.981 292.974 247.556 271.758C221.122 250.539 144.945 179.393 144.945 179.393" fill="#CED8E2"/>
<path d="M259.942 215.189L269.013 253.506L229.975 220.367L219.634 180.533L259.942 215.189Z" fill="#B4C0CE"/>
<path d="M282.758 231.563L291.962 272.613L283.052 265.74L272.584 223.185L282.758 231.563Z" fill="#B4C0CE"/>
<path d="M288.865 235.125C289.334 235.825 296.597 274.227 296.597 274.227C296.597 274.227 312.986 286.39 326.91 286.577C340.834 286.765 343.698 284.714 343.698 284.714L339.14 260.707C339.14 260.707 327.432 259.317 316.258 253.278C305.084 247.239 288.861 235.133 288.861 235.133L288.865 235.125Z" fill="#B4C0CE"/>
<path d="M348.922 258.905L352.956 277.708C352.956 277.708 358.647 268.572 360.173 262.646C361.699 256.72 358.356 242.104 358.356 242.104C358.356 242.104 359.081 247.739 355.427 253.1C351.764 258.458 348.922 258.905 348.922 258.905Z" fill="#B4C0CE"/>
<path d="M182.434 158.614C182.434 158.614 268.597 228.968 288.698 244.386C308.795 259.814 327.48 268.468 338.363 267.597C349.247 266.726 353.893 264.211 356.9 259.699C359.907 255.187 358.215 249.216 358.215 249.216C358.215 249.216 358.218 256.924 351.174 259.142C344.13 261.359 336.492 263.712 321.43 256.495C306.367 249.278 238.876 196.903 229.083 187.935C219.29 178.967 182.056 151.478 182.056 151.478L182.445 158.608L182.434 158.614Z" fill="white"/>
<path d="M291.542 271.744L297.747 308.526L289.617 303.537L282.148 265.249L291.542 271.744Z" fill="#777F8A"/>
<path d="M343.802 285.453L348.973 311.823C348.973 311.823 342.377 316.346 328.018 316.368C313.659 316.391 304.067 312.514 304.067 312.514L296.589 274.224C296.589 274.224 310.016 283.558 322.147 285.808C334.279 288.058 343.793 285.45 343.793 285.45L343.802 285.453Z" fill="#777F8A"/>
<path d="M182.49 150.202L195.548 191.52L158.049 159.093L173.753 142.325L182.49 150.202Z" fill="#B4C0CE"/>
<path d="M269.959 255.447L275.209 291.887L240.954 265.073L231.179 222.574L269.959 255.447Z" fill="#777F8A"/>
<path d="M195.548 191.52L208.743 238.082L143.767 177.977L157.291 159.083L195.548 191.52Z" fill="#777F8A"/>
<path d="M132.476 164.951C132.476 164.951 100.054 123.946 81.1197 113.231C64.3049 103.724 57.2836 105.343 47.9549 114.18C42.2726 119.558 42.261 132.528 42.261 132.528C42.261 132.528 28.3683 115.665 38.1387 99.2742C47.909 82.8832 65.88 77.817 85.1288 83.7562C104.378 89.6955 123.056 104.57 138.864 118.202C154.676 131.825 157.965 135.51 157.965 135.51" fill="#444547"/>
<path d="M120.175 147.529C120.175 147.529 122.423 145 124.468 144.149C126.513 143.298 127.745 142.564 127.745 142.564C127.745 142.564 127.118 146.048 126.337 147.73C125.556 149.412 124.066 152.01 124.066 152.01L120.163 147.535L120.175 147.529Z" fill="#00FFFF"/>
<path d="M111.676 138.914C111.676 138.914 113.045 136.665 114.008 134.46C114.968 132.264 115.241 129.233 115.241 129.233C115.241 129.233 113.006 130.604 111.426 131.803C109.846 133.001 108.012 134.903 108.012 134.903L111.688 138.908L111.676 138.914Z" fill="#00FFFF"/>
<path d="M101.871 127.314C101.871 127.314 103.824 125.073 104.309 123.678C104.794 122.284 105.3 119.149 105.3 119.149C105.3 119.149 102.716 120.398 101.075 121.771C99.4346 123.144 98.0086 124.406 98.0086 124.406L101.871 127.314Z" fill="#00FFFF"/>
<path d="M93.3019 114.972C94.1964 113.524 94.9898 110.684 94.9898 110.684C94.9898 110.684 91.4775 112.383 90.3558 113.36C89.2341 114.337 87.5848 115.707 87.5848 115.707C87.5848 115.707 91.0382 118.668 91.3867 118.789C91.7352 118.91 93.3019 114.972 93.3019 114.972Z" fill="#00FFFF"/>
<path d="M81.9933 111.621L84.9445 104.266C84.9445 104.266 82.4815 105.167 80.9017 106.366C79.3218 107.564 77.5482 109.292 77.5482 109.292L82.002 111.624L81.9933 111.621Z" fill="#00FFFF"/>
<path d="M71.8746 106.535L71.6129 99.4293L67.5189 105.605L71.8746 106.535Z" fill="#00FFFF"/>
<path d="M61.64 105.121L58.6191 100.357L57.5521 106.228L61.64 105.121Z" fill="#00FFFF"/>
<path d="M51.3417 108.941C50.8189 108.759 48.5776 106.806 48.5776 106.806L48.8221 110.594L51.3504 108.944L51.3417 108.941Z" fill="#00FFFF"/>
<path d="M40.7301 105.833L38.1846 104.165L37.2092 107.528L40.7301 105.833Z" fill="#00FFFF"/>
<path d="M48.3137 91.3182L51.3532 94.9065L51.497 88.9094L48.3137 91.3182Z" fill="#00FFFF"/>
<path d="M63.3093 84.6399C63.3093 84.6399 63.3343 87.3742 63.9023 88.5488C64.4703 89.7235 65.1596 90.5497 65.5601 90.4937C65.9606 90.4377 66.3939 89.2209 66.9976 87.487C67.6012 85.753 67.6245 84.0027 67.6245 84.0027L63.3063 84.6486L63.3093 84.6399Z" fill="#00FFFF"/>
<path d="M80.0628 85.7927L80.6161 92.0325C80.6161 92.0325 81.7379 91.0553 82.508 89.9655C83.2782 88.8757 84.0063 86.7845 84.0063 86.7845L80.0598 85.8014L80.0628 85.7927Z" fill="#00FFFF"/>
<path d="M96.4009 92.0669L95.3261 98.5214L100.673 94.9217L96.4009 92.0669Z" fill="#00FFFF"/>
<path d="M108.527 99.8054L106.515 106.706C106.515 106.706 109.967 105.182 110.732 104.667C111.498 104.152 113.155 102.198 113.155 102.198L108.527 99.8054Z" fill="#00FFFF"/>
<path d="M121.101 108.472C121.101 108.472 120.3 111.895 119.701 113.055C119.102 114.214 118.43 116.705 118.43 116.705C118.43 116.705 121.647 115.295 123.117 114.439C124.588 113.583 126.167 112.385 126.167 112.385L121.093 108.469L121.101 108.472Z" fill="#00FFFF"/>
<path d="M192.297 123.605C189.892 127.594 174.411 138.051 156.866 160.498C135.816 187.43 124.183 201.903 124.183 201.903C124.183 201.903 118.341 179.315 143.516 150.018C168.692 120.722 192.297 123.605 192.297 123.605Z" fill="#434448"/>
<path d="M133.377 118.587C133.377 118.587 131.947 121.011 131.166 122.692C130.385 124.374 129.417 127.154 129.417 127.154C129.417 127.154 132.869 125.63 134.4 124.6C135.931 123.57 137.406 122.139 137.406 122.139L133.377 118.587Z" fill="#00FFFF"/>
<path d="M146.852 129.716C146.852 129.716 144.71 133.064 144.05 134.397C143.391 135.731 141.71 139.435 141.71 139.435C141.71 139.435 145.806 137.744 147.572 136.6C149.338 135.457 151.213 133.97 151.213 133.97L146.84 129.722L146.852 129.716Z" fill="#00FFFF"/>
<path d="M140.091 156.406C140.091 156.406 141.915 158.995 143.062 160.753C144.209 162.51 144.639 164.613 144.639 164.613C144.639 164.613 142.6 164.295 140.344 163.509C138.226 162.772 136.231 161.882 136.231 161.882L140.091 156.406Z" fill="#00FFFF"/>
<path d="M143.646 173.637C143.646 173.637 134.465 172.003 135.223 172.072C135.981 172.14 139.253 179.522 139.253 179.522L143.635 173.642L143.646 173.637Z" fill="#00FFFF"/>
<path d="M132.054 182.858L128.503 178.495L126.966 184.594L132.054 182.858Z" fill="#00FFFF"/>
<path d="M154.589 161.259C154.589 161.259 151.513 156.094 151.293 155.041C151.074 153.987 150.445 152.987 150.798 152.534C151.151 152.08 154.222 153.335 155.442 153.76C156.662 154.184 159.729 155.447 159.729 155.447L154.589 161.259Z" fill="#00FFFF"/>
<path d="M154.838 142.051C155.422 142.059 160.791 145.1 161.556 144.585C162.322 144.07 159.237 139.489 159.237 139.489L154.838 142.051Z" fill="#00FFFF"/>
<path d="M147.701 149.111C147.701 149.111 159.475 139.367 167.168 134.64C173.708 130.616 184.04 127.062 185.275 126.319C186.511 125.577 186.584 124.245 186.231 124.698C185.877 125.151 172.797 128.012 163.278 134.057C153.758 140.102 147.704 149.102 147.704 149.102L147.701 149.111Z" fill="white"/>
<path d="M171.319 141.741C171.319 141.741 168.326 134.652 169.089 134.146C169.851 133.64 176.11 135.809 176.11 135.809L171.319 141.741Z" fill="#00FFFF"/>
<path d="M37.8574 98.5118C41.7108 91.9891 51.0159 83.8377 65.336 81.6817C79.6473 79.5227 89.6643 87.6504 107.351 96.3088C125.038 104.967 158.193 136.849 158.193 136.849L154.651 138.83C154.651 138.83 128.94 113.008 106.841 99.5991C84.7409 86.1904 72.6323 84.1827 63.2865 86.3901C53.9406 88.5975 49.5176 90.1056 43.6973 97.3113C38.9063 103.244 36.9834 107.645 36.9834 107.645L37.8661 98.5148" fill="white"/>
<path d="M178.335 148.473C178.335 148.473 176.893 153.148 173.878 159.592C170.821 166.128 168.853 169.536 168.853 169.536L157.8 159.837L172.647 142.39L178.329 148.461L178.335 148.473Z" fill="#8895A5"/>
<g style="mix-blend-mode:multiply" opacity="0.2">
<path d="M168.861 169.539C168.861 169.539 165.659 174.501 163.873 177.386C162.087 180.271 159.24 183.735 159.24 183.735C159.24 183.735 230.513 249.491 258.112 271.574C285.71 293.658 304.117 306.309 318.524 308.589C332.937 310.881 345.033 307.482 352.405 300.308C359.777 293.135 363.201 285.544 364.847 275.205C366.496 264.857 366.384 255.664 366.384 255.664C366.384 255.664 372.862 263.38 369.33 279.11C365.806 294.843 358.629 304.234 348.118 310.91C337.607 317.587 321.479 321.907 295.297 306.95C269.119 291.985 229.247 255.879 206.746 235.961C184.246 216.043 142.996 178.285 142.996 178.285L157.282 159.08C157.282 159.08 168.68 169.613 168.85 169.545L168.861 169.539Z" fill="#59636D"/>
</g>
<path d="M353.137 276.15L357.015 303.144C357.015 303.144 367.107 293.743 369.288 278.724C371.744 261.819 369.43 255.64 364.772 247.385C360.114 239.13 357.131 237.906 357.131 237.906C357.131 237.906 363.827 249.567 360.842 261.257C357.848 272.944 353.846 275.683 353.846 275.683L353.145 276.153L353.137 276.15Z" fill="#777F8A"/>
<path d="M175.454 144.177C175.454 144.177 287.187 234.726 302.335 244.894C317.484 255.062 340.733 264.495 350.517 258.112C360.3 251.729 354.563 232.626 354.563 232.626C354.563 232.626 377.25 253.468 367.971 284.499C360.952 307.973 339.592 320.613 315.883 314.576C292.171 308.549 273.981 292.974 247.556 271.758C221.122 250.539 144.945 179.393 144.945 179.393" stroke="black" stroke-width="5.14" stroke-linecap="round" stroke-linejoin="round"/>
<path d="M158.916 160.449C158.916 160.449 254.69 242.511 278.835 262.083C302.98 281.655 329.487 290.513 343.181 284.993C356.417 279.665 361.971 260.371 360.791 252.086C359.609 243.81 356.007 237.935 356.007 237.935" stroke="black" stroke-width="3" stroke-linecap="round" stroke-linejoin="round"/>
<path d="M192.297 123.605C189.892 127.594 174.411 138.051 156.866 160.498C135.816 187.43 124.183 201.903 124.183 201.903C124.183 201.903 118.341 179.315 143.516 150.018C168.692 120.722 192.297 123.605 192.297 123.605Z" stroke="black" stroke-width="5.14" stroke-linecap="round" stroke-linejoin="round"/>
<path d="M132.476 164.951C132.476 164.951 100.054 123.946 81.1197 113.231C64.3049 103.724 57.2836 105.343 47.9549 114.18C42.2726 119.558 42.261 132.528 42.261 132.528C42.261 132.528 28.3683 115.665 38.1387 99.2742C47.909 82.8832 65.88 77.817 85.1288 83.7562C104.378 89.6955 123.056 104.57 138.864 118.202C154.676 131.825 157.965 135.51 157.965 135.51" stroke="black" stroke-width="4.71" stroke-linecap="round" stroke-linejoin="round"/>
<path d="M143.862 146.836C143.862 146.836 115.034 116.5 98.7149 105.231C80.9129 92.9467 72.5294 90.7901 59.3698 94.327C46.2103 97.8639 43.2163 106.464 40.8603 112.502C38.027 119.77 39.9036 127.653 39.9036 127.653" stroke="black" stroke-width="3" stroke-linecap="round" stroke-linejoin="round"/>
</svg>
