<svg width="400" height="400" viewBox="0 0 400 400" fill="none" xmlns="http://www.w3.org/2000/svg">
<path d="M61.7097 183.599C61.9828 182.779 64.994 146.129 68.2707 126.984C71.555 107.84 74.5587 98.2675 74.0126 97.1677C73.4665 96.0678 69.9091 96.8946 69.9091 96.8946C69.9091 96.8946 63.6211 134.091 62.7944 149.413C61.9752 164.727 61.7021 183.599 61.7021 183.599H61.7097Z" fill="#FFFFFD"/>
<path d="M61.7322 192.898C62.3921 160.457 65.7447 128.137 71.7672 96.2575C72.2071 93.9138 68.6194 92.9126 68.1719 95.2639C62.0811 127.47 58.6755 160.123 58.0004 192.898C57.9549 195.295 61.6791 195.295 61.7246 192.898H61.7322Z" fill="black"/>
<path d="M70.6904 96.5381L75.5979 95.6355C76.5915 95.4534 77.1528 94.255 76.9025 93.3448C76.6143 92.3057 75.6054 91.8582 74.6118 92.0402L69.7043 92.9428C68.7107 93.1249 68.1494 94.3233 68.3997 95.2335C68.6879 96.2726 69.6967 96.7201 70.6904 96.5381Z" fill="black"/>
<path d="M141.139 110.365C130.482 107.506 119.568 105.708 108.539 105.155C107.166 105.086 105.717 105.215 104.413 104.806C102.926 104.335 101.477 103.592 100.036 103.008C97.7305 102.067 95.4246 101.119 93.1112 100.194C87.5438 97.964 82.0068 95.6506 76.4546 93.3827C73.4812 92.1615 71.9036 96.9021 74.8617 98.1005C80.0347 100.202 85.2001 102.303 90.3578 104.419C92.9823 105.496 95.6067 106.588 98.2387 107.658C99.8087 108.295 101.371 108.947 102.949 109.569C104.284 110.1 105.642 110.009 107.068 110.077C118.316 110.601 129.458 112.3 140.32 115.281C143.4 116.122 144.226 111.192 141.139 110.365Z" fill="white"/>
<path d="M279.998 104.92C260.436 96.9402 237.378 98.9654 219.743 110.745C217.073 112.527 220.062 116.426 222.731 114.712C238.895 104.328 259.868 101.908 277.738 109.342C280.681 110.563 282.956 106.126 279.998 104.92Z" fill="white"/>
<path d="M184.943 350.696C176.827 309.07 168.514 267.329 156.112 226.727C152.805 215.903 149.263 205.17 145.402 194.529C142.3 185.98 138.667 177.599 133.266 170.234C127.532 162.429 119.234 156.02 109.639 153.911C105.407 152.978 101.007 152.713 96.7523 153.638C91.9813 154.67 87.7489 157.688 83.9412 160.647C79.7543 163.901 75.8936 167.67 72.6548 171.88C70.1972 175.073 67.9142 178.775 68.1948 182.666C67.4515 183.895 66.7006 185.123 65.9648 186.36C64.7133 188.446 65.8966 190.759 67.8156 191.692C68.0507 191.889 68.3086 192.056 68.6044 192.2C69.5753 192.67 70.7889 192.67 71.828 192.268C72.2452 192.306 72.6548 192.352 73.072 192.412C73.1857 192.504 73.3071 192.587 73.436 192.67C93.2025 205.239 102.267 228.449 110.989 249.095C121.313 273.542 133.722 296.797 149.134 318.437C157.91 330.763 167.528 342.474 177.904 353.48C179.118 354.769 180.756 355.497 182.508 354.8C184.048 354.185 185.284 352.372 184.951 350.681L184.943 350.696Z" fill="#2D440C"/>
<path d="M322.732 193.057C322.231 189.947 318.272 170.075 315.799 168.36C314.661 165.918 313.911 163.248 313.198 160.73C311.847 155.989 310.596 151.264 307.987 147.024C306.697 144.93 305.173 142.989 303.375 141.365C303.913 139.97 297.747 130.428 296.784 129.154C285.543 114.279 280.544 106.922 260.778 104.821C241.656 102.788 225.121 110.146 211.468 122.987C205.771 128.342 200.439 132.392 194.925 138.559C194.75 138.384 191.428 142.473 191.284 142.693C189.737 145.044 188.606 146.03 187.469 147.964C185.572 151.196 184.48 152.508 182.599 155.746C178.063 149.838 171.214 141.024 166.056 135.631C157.182 126.362 146.563 117.063 134.594 112.277C122.579 105.845 106.415 107.893 95.3034 116.373C94.2946 117.139 93.6271 118.231 93.4602 119.399C76.9022 137.596 68.0429 160.093 63.5526 184.289C63.0899 186.784 61.9067 191.237 63.5526 189.803C64.4856 189.614 68.7332 180.246 69.0669 179.101C73.3752 164.371 83.8121 158.098 97.9885 152.015C98.5877 152.189 99.2173 152.257 99.8316 152.204C110.071 151.271 119.871 157.044 126.629 164.295C131.681 169.718 135.216 176.006 138.356 182.537C143.772 197.403 153.731 230.011 154.648 230.519C157.03 242.36 169.249 290.684 169.902 292.936C172.898 303.35 182.523 359.335 184.23 359.138C186.194 358.911 190.601 327.865 191.041 326.052C195.585 307.234 197.496 300.506 202.07 282.909C203.693 275.771 206.287 265.395 208.881 256.634C216.246 231.771 218.256 217.306 228.503 193.482C231.226 187.156 234.124 180.906 237.166 174.732C240.116 171.341 243.302 168.171 246.844 165.364C255.483 158.53 267.05 154.199 278.056 156.543C278.344 156.702 281.856 157.582 282.19 157.696C287.795 159.622 290.2 160.821 295.798 162.747C296.586 163.309 297.368 163.885 298.126 164.484C300.963 166.707 303.618 169.157 306.06 171.796C306.652 172.441 307.198 173.245 307.85 173.814C308.51 174.39 309.185 174.451 309.875 174.633C310.922 176.347 312.151 177.955 313.607 179.434C316.095 181.96 323.293 196.523 322.739 193.05L322.732 193.057Z" fill="#0CA6C2"/>
<path d="M326.077 139.924C326.418 139.477 326.615 138.915 326.555 138.278C325.379 125.467 322.11 112.944 316.914 101.173C317.187 99.739 315.875 97.9641 314.131 97.9641C303.929 97.9489 293.681 100.543 284.496 105.011C282.896 105.261 281.288 105.488 279.68 105.686C276.6 106.072 277.465 110.714 280.43 110.578C280.597 110.76 280.802 110.919 281.06 111.041C284.777 112.785 288.152 115.129 290.981 118.049C296.609 124.982 301.699 132.339 306.272 140C314.1 156.778 321.003 174.011 323.976 192.367C324.484 195.53 328.716 195.378 328.944 192.162C330.173 174.701 329.179 157.127 326.084 139.932L326.077 139.924Z" fill="#467C00"/>
<path d="M218.605 112.451C201.812 101.946 190.002 84.0304 187.294 64.3625C186.862 61.192 181.909 61.8367 182.372 65.0073C182.668 67.0249 183.047 69.0273 183.51 71.007C182.554 71.0829 181.659 71.6441 181.424 72.744C177.555 90.9555 165.958 110.1 145.782 112.429C143.127 112.732 142.558 117.071 145.501 117.344C145.994 117.389 146.48 117.457 146.965 117.533C146.995 117.564 147.026 117.602 147.064 117.624C153.245 122.661 158.305 127.174 164.494 132.21C167.922 136.048 171.343 139.886 174.772 143.724C176.486 146.713 179.33 150.217 181.044 153.206C181.848 154.609 184.094 154.48 184.996 153.297C193.256 142.48 202.108 132.15 211.536 122.335C211.741 122.122 211.893 121.91 212.006 121.69C214.054 119.862 216.262 118.216 218.598 116.752C220.213 115.736 220.244 113.468 218.613 112.444L218.605 112.451Z" fill="#467C00"/>
<path d="M220.304 104.146C213.569 99.4736 207.645 93.8834 203.041 87.019C200.689 83.5072 198.702 79.7526 197.117 75.8387C196.207 73.5936 195.425 71.2877 194.773 68.9515C193.704 65.0832 193.741 62.2313 193.362 57.6575C192.877 51.7488 192.543 48.4873 193.256 43.1853C193.521 41.1905 191.511 39.4004 189.646 39.3473C187.438 39.2791 186.096 40.963 185.808 42.9578C183.638 57.6954 186.619 73.3585 193.916 86.3288C197.056 91.9113 200.962 97.1147 205.506 101.643C207.774 103.903 210.208 105.974 212.757 107.916C213.789 108.704 214.828 109.478 215.92 110.191C217.953 111.519 218.142 114.446 220.509 113.726C224.696 112.459 224.127 104.108 220.319 104.154L220.304 104.146Z" fill="#162800"/>
<path d="M328.474 195.12C317.718 179.897 305.901 164.803 287.697 158.379C279.755 155.572 270.896 155.003 262.765 157.332C255.157 159.516 248.27 163.658 242.52 169.081C229.58 181.27 223.452 198.276 218.969 215.054C213.864 234.153 209.222 253.396 204.375 272.563C198.709 294.977 193.074 317.398 187.377 339.796C187.051 341.071 187.324 342.125 187.924 342.899C187.377 345.455 186.831 348.011 186.285 350.56C186.202 350.954 186.171 351.326 186.179 351.682C186.111 351.811 186.043 351.94 185.974 352.077C183.585 356.552 190.32 360.761 192.679 356.256C193.772 354.178 194.864 352.107 195.964 350.029C195.994 350.006 196.032 349.991 196.062 349.968C228.291 328.244 247.557 296.365 261.248 261.231C261.551 260.784 262.666 259.669 262.97 259.221C263.296 258.736 264.069 255.762 264.115 255.201C267.081 249.239 269.622 242.617 272.724 236.83C278.974 225.164 282.577 218.816 290.806 208.417C290.913 208.28 296.457 203.676 296.548 203.54C304.277 198.162 308.153 196.986 317.498 198.951C318.249 199.102 322.368 200.574 322.952 200.384C322.952 200.392 325.174 201.75 327.154 200.543C328.883 199.489 329.71 196.865 328.474 195.113V195.12Z" fill="#2D440C"/>
<path d="M199.817 262.983C199.756 263.158 199.696 263.332 199.635 263.499C199.332 263.62 199.051 263.81 198.823 264.075C197.504 263.764 196.025 264.303 195.706 266.025C195.183 268.846 194.667 271.66 194.144 274.482C193.203 273.89 191.868 273.807 190.859 274.505C189.388 275.521 187.916 276.538 186.445 277.562C185.337 278.335 185.171 279.443 185.55 280.391C185.519 280.406 185.489 280.421 185.459 280.436C185.064 280.322 184.632 280.322 184.192 280.482C182.106 281.218 180.028 281.953 177.942 282.689C177.358 282.894 176.918 283.243 176.607 283.652C176.235 283.493 175.871 283.41 175.522 283.402C175.386 283.167 175.257 282.932 175.12 282.704C174.696 281.991 173.998 281.589 173.254 281.445C172.42 278.639 171.624 275.817 170.85 272.988C169.94 269.65 164.843 271.312 165.745 274.641C172.815 300.423 177.995 326.69 181.439 353.192C181.461 353.374 181.499 353.533 181.552 353.692C181.53 354.041 181.507 354.398 181.492 354.746C181.302 358.175 186.695 357.879 186.847 354.443C187.074 349.262 187.416 344.074 187.848 338.901C188.751 334.032 189.646 329.155 190.541 324.285C191.352 320.652 192.164 317.026 192.975 313.393C193.491 313.037 193.901 312.475 194.068 311.671C195.494 304.86 196.92 298.041 198.338 291.23C201.023 282.37 203.261 273.375 205.02 264.28C205.688 260.844 200.947 259.752 199.81 262.983H199.817Z" fill="#0CA6C2"/>
<path d="M99.536 108.325C92.3985 104.578 84.8742 101.84 76.9934 100.255C76.6141 100.027 76.2425 99.7922 75.8784 99.5419C75.8784 99.1475 75.8936 98.7606 75.8936 98.3662C75.9163 95.1502 71.4639 95.1502 70.9481 98.1311C70.6296 98.3738 70.3717 98.6999 70.2503 99.1019C63.5603 120.636 62.5591 143.201 61.7096 165.577C61.6869 166.123 61.8082 166.57 62.013 166.942C60.807 172.813 59.5706 178.676 58.3646 184.547C57.8033 187.277 62.5212 188.355 63.1735 185.624C64.8877 178.418 66.4806 171.159 67.9369 163.878C68.1113 163.665 68.2479 163.4 68.3389 163.074C73.9594 143.603 84.9197 125.93 99.8925 112.27C101.007 111.253 100.992 109.091 99.536 108.333V108.325Z" fill="#467C00"/>
<path d="M334.542 133.735C334.428 132.597 334.299 131.459 334.162 130.322C334.041 129.343 333.647 128.441 333.017 127.773C331.455 121.895 329.733 116.054 327.95 110.259C328.185 109.736 328.292 109.144 328.223 108.53C327.753 104.244 326.221 100.452 323.468 97.1222C320.805 93.9061 315.056 98.2144 317.604 101.59C317.65 101.65 317.695 101.719 317.741 101.779C317.741 102.197 317.794 102.636 317.938 103.092C321.215 113.688 324.59 124.489 327.306 135.434C329.475 156.376 327.988 177.614 326.433 198.549C326.244 201.143 329.141 202.394 331.227 201.97C332.699 201.666 334.17 201.363 335.642 201.059C336.855 200.809 338.054 199.641 338.289 198.42C342.445 176.628 339.722 154.958 334.534 133.75L334.542 133.735Z" fill="#162800"/>
<path d="M306.72 199.83C296.139 204.412 291.838 209.122 285.027 217.655C284.557 217.83 284.124 218.201 283.806 218.808C283.571 219.256 283.343 219.703 283.108 220.151C274.127 232.203 267.718 246.592 261.65 260.146C256.189 272.358 250.272 284.305 243.029 295.568C237.697 303.859 231.833 311.808 225.485 319.355C219.045 326.758 212.196 333.812 204.96 340.456C199.097 345.834 192.983 350.931 186.665 355.763C184.116 357.712 187.332 361.414 189.873 359.533C204.171 348.959 216.413 340.236 227.919 326.674C232.372 321.592 236.627 316.336 240.685 310.928C241.77 311.732 244.258 308.243 245.107 306.718C249.62 298.602 254.133 290.494 258.639 282.378C259.754 282.598 261.043 282.12 261.567 280.702C263.296 276.052 265.094 271.433 266.952 266.844C267.566 266.814 268.165 266.518 268.605 265.865C273.687 258.258 277.707 250.134 280.734 241.502C281.068 240.547 280.802 239.788 280.248 239.303C282.744 233.569 285.239 227.842 287.727 222.108C294.356 213.567 302.525 206.21 312.545 201.947C315.481 200.695 309.648 198.556 306.72 199.823V199.83Z" fill="#162800"/>
<path d="M73.4738 172.661C73.4738 172.661 74.8391 183.599 75.1121 182.506C75.3852 181.414 97.814 152.144 97.814 152.144L101.644 151.324L99.46 201.924L136.111 177.857L137.203 181.687L116.139 235.025L152.79 227.091L153.336 230.102L128.723 257.181L159.632 253.623L160.451 255.808L138.295 279.875L167.285 283.978L167.831 288.082L152.79 306.134L174.127 311.33L173.854 313.514L164.554 331.84L179.595 339.501L180.142 342.785L162.362 336.77L158.532 332.12L170.296 312.976L143.491 311.064L142.672 309.153L165.647 286.451L127.631 284.813L126.811 283.721L155.801 257.188L117.512 263.749L116.42 261.284L148.967 230.648L108.213 241.313L107.394 239.401L132.834 183.333L94.8179 211.777L93.4526 209.312L98.1022 157.893L74.5812 193.178L72.1161 192.905L71.2969 177.591L73.4814 172.669L73.4738 172.661Z" fill="#96CC30"/>
<path d="M189.168 341.966L209.404 338.408L212.962 333.759L199.286 314.068L227.457 317.899L229.376 315.706L205.582 291.093L244.417 294.378L245.782 292.185L213.508 262.096L259.731 262.923L222.261 228.183L272.587 236.663L273.68 235.025L236.483 195.636L284.352 217.246L285.717 215.873L268.484 162.816L302.404 200.832L306.234 200.013L308.146 174.573L305.408 170.742L302.677 192.079L266.846 157.066L263.561 157.62L278.329 207.947L230.468 190.44L229.649 192.625L261.65 229.549L217.885 224.899V227.637L248.793 257.727L209.678 258.546L208.312 261.823L235.664 288.082H201.478L200.932 290.001L222.261 314.068L195.183 310.784V313.249L206.674 333.759L189.441 338.408L189.168 341.966Z" fill="#96CC30"/>
<path d="M324.006 195.636C324.006 195.636 310.93 147.433 289.821 130.542C272.042 116.32 246.328 109.205 217.885 134.645C189.441 160.085 183.699 174.58 183.699 174.58C183.699 174.58 171.116 152.697 149.514 134.372C127.904 116.047 110.398 110.032 91.5263 129.722C72.6548 149.413 64.1748 186.064 64.1748 186.064C64.1748 186.064 81.4079 146.129 104.656 143.944C127.904 141.76 148.694 164.735 157.721 205.762C166.747 246.789 184.336 358.539 184.336 358.539C184.336 358.539 191.633 292.466 205.309 239.128C218.985 185.791 231.841 151.059 260.831 147.502C289.821 143.944 307.327 168.011 313.896 176.764C320.457 185.518 324.014 195.636 324.014 195.636H324.006Z" fill="#22D9F8"/>
<path d="M66.0859 153.79C66.0859 153.79 69.3702 137.929 75.3851 126.984C81.4 116.047 88.2417 110.297 88.2417 110.297L74.566 105.375C74.566 105.375 72.9276 113.582 69.9163 128.35C66.9051 143.118 66.0859 153.79 66.0859 153.79Z" fill="#2D440C"/>
<path d="M161.816 115.766C161.816 115.766 167.831 114.674 174.673 107.286C181.514 99.8984 183.972 91.4259 183.972 91.4259C183.972 91.4259 184.245 97.7139 191.633 105.648C199.021 113.582 204.216 115.493 204.216 115.493C204.216 115.493 199.021 116.858 192.179 126.158C185.337 135.457 182.88 139.833 182.88 139.833C182.88 139.833 180.415 132.719 173.307 125.885C166.193 119.05 161.816 115.766 161.816 115.766Z" fill="#2D440C"/>
<path d="M293.105 112.762C293.105 112.762 297.754 110.578 301.585 109.751C305.415 108.924 308.699 107.84 308.699 107.84C308.699 107.84 314.168 113.035 317.999 133.007C321.829 152.978 322.648 168.019 322.648 168.019C322.648 168.019 316.087 149.148 308.153 133.007C300.219 116.866 293.112 112.77 293.112 112.77L293.105 112.762Z" fill="#2D440C"/>
<path d="M110.784 153.524C110.906 153.509 110.944 153.433 110.921 153.312C110.693 153.524 110.549 153.828 110.367 154.07C109.935 154.654 109.457 155.216 109.085 155.845C108.63 156.604 107.947 157.173 107.91 158.09C107.91 158.242 107.879 158.356 107.849 158.485C107.818 158.614 107.818 158.75 107.788 158.887C107.727 159.137 107.568 159.403 107.515 159.653C107.477 159.805 107.5 159.964 107.454 160.115C107.409 160.305 107.363 160.373 107.416 160.571C107.538 161.033 107.75 161.443 107.947 161.875C108.076 162.171 108.137 162.49 108.266 162.785C108.41 163.112 108.569 163.347 108.562 163.696C108.554 164.045 108.736 164.295 108.82 164.644C108.949 165.19 109.176 165.592 109.631 165.918C109.92 166.123 110.291 166.494 110.633 166.578C110.815 166.623 111.201 166.714 111.391 166.714C111.611 166.714 111.884 166.593 112.096 166.54C112.392 166.472 112.696 166.388 112.991 166.312C113.325 166.221 113.522 166.062 113.811 165.91C114.129 165.744 114.38 165.645 114.69 165.425C114.971 165.235 115.275 165.046 115.578 164.894C116.041 164.666 116.473 164.53 116.845 164.151C117.118 163.878 117.505 163.438 117.565 163.043C117.588 162.884 117.565 162.687 117.565 162.52C117.565 162.33 117.467 162.156 117.459 161.997C117.451 161.754 117.762 161.185 117.497 160.957C117.687 160.631 117.702 160.646 118.058 160.54C118.316 160.464 118.521 160.146 118.68 159.918C119.059 159.387 118.824 158.849 118.536 158.348C118.673 158.257 118.536 157.946 118.483 157.825C118.46 157.764 118.392 157.612 118.354 157.567C118.21 157.4 118.324 157.529 118.096 157.408C117.732 157.226 117.436 156.96 117.057 156.786C116.443 156.497 115.836 156.262 115.259 155.906C114.728 155.58 114.182 155.284 113.659 154.958C113.28 154.715 112.847 154.601 112.445 154.374C111.945 154.085 111.535 153.752 111.103 153.395C111.156 153.327 111.224 153.281 110.792 153.524H110.784Z" fill="#4B5A23"/>
<path d="M120.175 173.738H120.25C120.137 173.647 120.121 173.116 120.197 172.987C120.311 172.798 120.607 172.676 120.736 172.472C120.88 172.244 120.872 172.039 120.569 171.941C120.417 171.895 120.266 171.948 120.121 171.903C120.023 171.872 119.955 171.759 119.856 171.713C119.636 171.607 119.242 171.622 119.006 171.683C118.749 171.751 118.476 171.774 118.233 171.88C117.929 172.001 117.52 172.229 117.262 172.434C117.133 172.532 117.08 172.646 116.928 172.737C116.799 172.813 116.655 172.851 116.534 172.927C116.101 173.2 115.525 173.655 115.29 174.133C115.017 174.702 115.889 174.899 116.276 175.043C116.928 175.293 117.823 175.232 118.468 174.952C118.703 174.846 119.052 174.671 119.242 174.497C119.462 174.299 119.537 173.981 119.659 173.738" fill="#4B5A23"/>
<path d="M109.609 187.171C109.859 186.678 109.647 186.109 109.351 185.632C109.108 185.245 108.896 184.858 108.638 184.486C108.524 184.319 108.479 184.084 108.304 183.963C108.13 183.841 107.895 183.841 107.713 183.758C107.455 183.644 107.371 183.432 107.182 183.242C106.992 183.053 106.764 183.022 106.567 182.886C106.446 182.802 106.37 182.643 106.249 182.552C105.991 182.362 105.649 182.089 105.293 182.188C104.898 182.302 104.375 182.764 104.155 183.106C103.897 183.508 103.821 183.955 103.541 184.342C103.298 184.676 103.177 185.093 102.979 185.412C103.139 185.525 103.139 185.806 103.245 185.965C103.389 186.193 103.67 186.473 103.897 186.625C104.337 186.913 104.838 186.966 105.308 187.141C105.513 187.217 105.566 187.217 105.748 187.399C105.907 187.566 105.968 187.634 106.074 187.854C106.279 188.294 106.355 188.559 106.81 188.832C107.311 189.128 107.834 189.257 108.41 189.227C108.873 189.196 109.123 188.931 109.351 188.575C109.48 188.362 109.434 188.286 109.472 188.051C109.487 187.975 109.594 187.846 109.586 187.786C109.571 187.596 109.487 187.717 109.442 187.566C109.358 187.323 109.457 187.331 109.662 187.133C109.867 186.936 109.874 186.921 109.609 187.133V187.171Z" fill="#4B5A23"/>
<path d="M131.127 220.295C131.127 220.06 131.18 219.855 131.256 219.643C131.355 219.377 131.385 219.119 131.491 218.854C131.696 218.323 131.924 217.883 132.303 217.458C132.447 217.299 132.72 217.079 132.796 216.874C132.849 216.745 132.788 216.631 132.819 216.502C132.834 216.434 132.917 216.396 132.925 216.351C133.039 215.797 132.819 215.365 132.826 214.818C132.826 214.333 132.864 213.794 133.084 213.385C133.304 212.975 133.388 212.437 133.501 211.982C133.524 211.883 133.585 211.83 133.608 211.693C133.623 211.564 133.585 211.428 133.608 211.299C133.63 211.117 133.706 210.905 133.896 210.806C134.207 210.647 135.155 210.73 135.405 210.943C135.83 211.299 136.073 211.951 136.187 212.467C136.27 212.839 136.202 213.233 136.209 213.612C136.217 213.855 136.278 214.037 136.315 214.272C136.353 214.507 136.315 214.743 136.338 214.985C136.376 215.296 136.543 215.562 136.611 215.865C136.642 215.994 136.68 216.123 136.71 216.252C136.74 216.381 136.695 216.533 136.733 216.646C136.9 217.215 137.514 216.813 137.757 217.185C137.916 217.435 137.688 217.602 137.643 217.807C137.575 218.103 137.613 218.201 137.423 218.467C137.37 218.543 137.188 218.823 137.104 218.839C136.733 218.922 136.733 218.254 136.346 218.323C135.929 218.399 136.088 219.195 136.088 219.506C136.088 220.136 136.042 220.75 135.83 221.334C135.618 221.918 135.147 222.449 134.563 222.669C134.29 222.775 134.017 222.889 133.721 222.904C133.259 222.927 132.766 222.722 132.311 222.639C132.136 222.608 131.939 222.563 131.78 222.502C131.522 222.411 131.598 222.502 131.431 222.244C131.309 222.062 131.135 221.888 131.036 221.698C130.907 221.44 130.832 221.099 130.877 220.811C130.892 220.697 130.968 220.606 130.983 220.522C131.014 220.363 130.983 220.204 131.036 220.052C131.074 220.052 131.112 220.037 131.143 220.287L131.127 220.295Z" fill="#4B5A23"/>
<path d="M150.037 318.619C150.211 318.392 150.424 318.194 150.56 317.944C150.818 317.474 150.894 317.003 151.281 316.594C151.531 316.328 151.819 315.98 152.191 315.889C152.464 315.828 152.889 315.843 153.169 315.873C153.989 315.964 154.406 316.73 154.702 317.406C154.815 317.679 154.982 317.914 155.096 318.187C155.187 318.392 155.195 318.634 155.278 318.839C155.399 319.127 155.559 319.347 155.642 319.658C155.764 320.091 155.862 320.531 155.968 320.97C156.075 321.41 156.279 321.858 156.295 322.328C156.31 322.685 156.31 322.965 156.393 323.307C156.568 324.02 156.545 324.717 156.552 325.461C156.552 325.772 156.575 325.984 156.234 326.052C155.855 326.128 155.43 325.961 155.111 325.764C154.778 325.552 154.413 324.975 154.209 324.626C153.829 323.967 153.298 323.451 152.767 322.92C152.434 322.594 152.161 322.245 151.88 321.873C151.637 321.555 151.592 321.281 151.463 320.91C151.395 320.713 151.319 320.523 151.266 320.318C151.22 320.129 151.22 319.893 151.144 319.727C151.023 319.469 150.879 319.165 150.682 318.953C150.553 318.816 150.469 318.748 150.28 318.687C150.09 318.627 149.794 318.687 149.688 318.49C149.711 318.49 149.741 318.49 150.029 318.627L150.037 318.619Z" fill="#4B5A23"/>
<path d="M162.681 304.405C163.098 304.519 163.053 304.018 163.098 303.783C163.113 303.715 163.182 303.593 163.197 303.495C163.235 303.29 163.242 303.184 163.364 303.002C163.568 302.676 163.591 302.577 163.986 302.584C164.198 302.584 164.767 302.683 164.903 302.509C165.017 302.585 165.009 302.668 165.032 302.774C165.07 302.918 165.093 303.085 165.131 303.237C165.169 303.388 165.131 303.502 165.154 303.654C165.169 303.844 165.267 303.973 165.298 304.147C165.381 304.648 165.146 305.125 164.736 305.414C164.418 305.641 163.515 305.732 163.235 305.414C163.022 305.179 163.151 304.936 163.045 304.686C163.007 304.587 162.84 304.519 162.833 304.39C162.817 304.223 162.999 304.208 162.946 304.003" fill="#4B5A23"/>
<path d="M212.499 275.711V275.787C212.628 275.627 212.954 275.711 213.152 275.711C213.493 275.711 213.629 275.703 213.811 275.385C213.956 275.142 213.842 274.876 213.956 274.656C214.084 274.429 214.365 274.399 214.585 274.406C215.366 274.429 216.936 274.664 217.065 275.643C217.126 276.12 217.043 276.53 216.618 276.75C216.193 276.97 215.586 277.197 215.108 277.281C214.631 277.364 214.206 277.197 213.804 276.977C213.751 276.947 213.569 276.795 213.516 276.773C213.379 276.727 213.28 276.788 213.144 276.758C212.863 276.689 212.939 276.591 212.658 276.735C212.469 276.5 212.302 276.462 212.393 276.128C212.446 275.923 212.719 275.779 212.757 275.574" fill="#4B5A23"/>
<path d="M249.4 242.724C249.392 242.291 249.673 241.844 249.817 241.419C249.961 240.994 250.378 240.501 250.758 240.304C250.932 240.213 251.228 240.168 251.418 240.13C251.645 240.077 251.774 240.114 251.941 240.251C252.184 240.448 252.222 241.32 252.495 241.283C252.753 240.881 253.102 240.395 253.67 240.539C254.042 240.638 254.3 241.138 254.55 241.419C254.656 241.54 254.801 241.685 254.846 241.836C254.922 242.094 254.838 242.223 255.036 242.428C255.294 242.686 255.339 242.511 255.658 242.451C255.87 242.413 256.264 242.42 256.446 242.519C256.864 242.746 256.97 243.346 256.962 243.763C256.962 244.028 257.046 244.172 257.091 244.415C257.144 244.681 257.167 245.014 257.319 245.234C257.402 245.363 257.554 245.454 257.645 245.591C257.812 245.834 257.926 246.114 258.039 246.38C258.214 246.804 258.221 247.624 258.108 248.071C257.994 248.519 257.979 249.027 257.85 249.505C257.759 249.846 257.478 249.967 257.25 250.187C256.955 250.468 256.902 250.885 256.704 251.226C256.522 251.545 256.393 251.886 256.34 252.25C256.295 252.577 256.515 252.842 256.454 253.161C256.424 253.305 256.333 253.403 256.31 253.547C256.287 253.692 256.333 253.798 256.295 253.942C256.196 254.283 255.961 254.518 255.665 254.693C255.453 254.822 255.218 254.837 255.013 254.973C254.71 255.178 254.391 255.573 253.959 255.482C253.83 255.459 253.686 255.315 253.579 255.247C253.367 255.102 253.109 254.981 252.904 254.822C252.495 254.503 252.373 253.828 252.138 253.381C251.979 253.085 251.804 252.971 251.903 252.63C251.964 252.417 252.161 252.038 251.88 251.864C251.645 251.72 251.334 251.909 251.084 251.689C250.834 251.469 250.674 251.098 250.568 250.802C250.295 250.051 250.022 249.338 249.885 248.557C249.81 248.109 249.787 247.715 249.787 247.252C249.787 247.032 249.802 246.812 249.787 246.592C249.779 246.311 249.673 246.084 249.65 245.811C249.62 245.492 249.628 245.113 249.65 244.802C249.681 244.438 249.87 244.188 249.688 243.854C249.567 243.634 249.4 243.513 249.385 243.239C249.37 242.966 249.567 242.709 249.628 242.473C249.544 242.451 249.514 242.489 249.392 242.716L249.4 242.724Z" fill="#4B5A23"/>
<path d="M259.837 243.763C260.141 243.702 260.224 243.346 260.323 243.111C260.436 242.837 260.58 242.549 260.778 242.329C261.256 241.791 261.802 241.313 262.575 241.411C263.076 241.472 263.759 242.011 263.622 242.595C263.561 242.853 263.326 243.126 263.22 243.368C263.099 243.641 263.015 244.051 263.091 244.354C263.159 244.62 263.319 244.885 263.235 245.204C263.159 245.492 262.826 245.651 262.583 245.758C262.219 245.917 261.802 245.849 261.407 245.849C261.043 245.849 260.838 245.667 260.497 245.583C260.216 245.522 259.943 245.5 259.716 245.295C259.428 245.037 259.39 244.787 259.299 244.438C259.261 244.301 259.185 244.324 259.223 244.15C259.268 243.922 259.39 243.93 259.556 243.854C259.799 243.748 260.027 243.725 260.186 243.467L260.11 243.368" fill="#4B5A23"/>
<path d="M283.699 193.558C284.154 193.709 283.95 192.951 283.836 192.776C283.654 192.511 283.358 192.337 283.305 191.995C283.237 191.608 283.487 191.411 283.669 191.115C283.889 190.766 284.109 190.471 284.481 190.258C284.807 190.076 285.027 190.031 285.391 190.031C285.755 190.031 285.96 190.167 286.301 190.16C286.422 190.16 286.574 190.19 286.688 190.16C286.877 190.129 286.961 189.97 287.105 189.917C287.348 189.826 287.788 189.849 287.962 190.016C288.121 190.167 288.288 190.592 288.357 190.797C288.463 191.138 288.379 191.517 288.281 191.844C288.182 192.17 287.985 192.374 287.985 192.685C287.985 193.019 288.197 193.3 288.121 193.664C288.091 193.823 288.008 193.907 287.947 194.051C287.856 194.271 287.871 194.506 287.757 194.718C287.644 194.931 287.499 195.211 287.363 195.393C287.226 195.575 286.984 195.75 286.809 195.909C286.005 196.599 284.587 196.182 283.965 195.393C283.684 195.037 283.282 194.165 283.919 193.891C283.79 193.694 283.73 193.292 283.677 193.543L283.699 193.558Z" fill="#4B5A23"/>
<path d="M245.228 183.91C245.046 183.879 244.842 183.644 244.675 183.553C244.311 183.356 244.151 183.303 244.182 182.871C244.212 182.362 244.508 181.179 245.228 181.331C245.646 181.414 245.828 181.672 246.116 181.96C246.328 182.18 246.601 182.355 246.829 182.567C247.072 182.802 247.109 183.022 247.223 183.356C247.261 183.47 247.307 183.493 247.322 183.644C247.337 183.819 247.291 183.978 247.337 184.152C247.602 184.206 247.724 184.168 247.875 184.425C248.027 184.683 247.982 184.956 247.716 185.123C247.261 185.412 246.738 185.343 246.207 185.343C245.957 185.343 245.774 185.343 245.57 185.199C245.319 185.025 245.372 184.934 245.357 184.63C245.35 184.372 245.319 184.145 245.099 183.97C244.933 183.834 244.614 183.849 244.705 183.515" fill="#4B5A23"/>
<path d="M75.6658 95.2487L106.863 106.975C109.108 107.817 110.079 104.222 107.857 103.38L76.6594 91.6534C74.4143 90.8115 73.4434 94.4068 75.6658 95.2487Z" fill="black"/>
<path d="M60.4503 194.847C84.8437 187.179 97.4651 221.873 104.716 238.56C113.894 259.669 122.071 281.4 135.405 300.354C136.778 302.304 140.009 300.438 138.621 298.473C124.005 277.698 115.616 253.623 105.262 230.641C97.4044 213.188 83.9107 183.568 59.4567 191.259C57.1736 191.98 58.1521 195.575 60.4503 194.855V194.847Z" fill="black"/>
<path d="M134.472 298.458C147.496 321.972 163.849 343.498 183.001 362.354C184.708 364.038 187.347 361.406 185.633 359.722C166.693 341.071 150.568 319.833 137.688 296.577C136.528 294.476 133.304 296.357 134.472 298.458Z" fill="black"/>
<path d="M185.368 362.673C210.793 349.998 231.773 327.971 248.073 305.087C264.32 282.287 275.288 256.976 286.468 231.483C292.066 218.717 306.515 196.129 323.528 204.708C325.667 205.785 327.556 202.569 325.41 201.492C312.902 195.188 300.713 203.562 293.067 213.264C283.707 225.142 279.133 239.894 272.891 253.494C260.497 280.52 245.244 306.157 224.567 327.714C212.59 340.198 199.044 351.705 183.487 359.464C181.34 360.534 183.229 363.75 185.368 362.68V362.673Z" fill="black"/>
<path d="M326.153 205.11C329.96 204.23 333.783 203.684 337.689 203.479C340.079 203.35 340.086 199.626 337.689 199.755C333.464 199.982 329.293 200.566 325.167 201.522C322.83 202.061 323.816 205.656 326.16 205.117L326.153 205.11Z" fill="black"/>
<path d="M322.284 97.5165C335.975 130.2 341.004 165.941 336.855 201.127C336.574 203.502 340.306 203.486 340.579 201.127C344.759 165.66 339.677 129.464 325.872 96.5229C324.962 94.346 321.351 95.3017 322.277 97.5165H322.284Z" fill="black"/>
<path d="M314.161 98.2371C317.361 98.1915 320.449 98.6011 323.52 99.4658C325.834 100.118 326.82 96.5228 324.514 95.8705C321.131 94.9148 317.672 94.4521 314.161 94.5052C311.764 94.5355 311.756 98.2674 314.161 98.2295V98.2371Z" fill="black"/>
<path d="M281.727 106.315C291.967 102.811 302.412 100.027 313.038 97.9869C315.39 97.5318 314.396 93.9441 312.045 94.3916C301.418 96.4395 290.973 99.2156 280.734 102.72C278.481 103.494 279.444 107.096 281.727 106.315Z" fill="black"/>
<path d="M227.753 109.273C243.704 100.164 263.008 98.9578 280.021 105.822C282.243 106.717 283.214 103.114 281.014 102.227C263.121 95.0059 242.612 96.4926 225.871 106.05C223.786 107.241 225.667 110.457 227.753 109.266V109.273Z" fill="black"/>
<path d="M190.768 41.873C187.491 69.3003 200.917 96.0906 224.711 110.024C226.782 111.238 228.663 108.022 226.592 106.808C203.829 93.4813 191.367 68.0488 194.5 41.8806C194.781 39.5065 191.056 39.5217 190.776 41.8806L190.768 41.873Z" fill="black"/>
<path d="M185.11 40.7505C187.454 41.2663 189.547 42.1613 191.527 43.5038C193.506 44.8464 195.387 41.6228 193.408 40.2878C191.193 38.786 188.713 37.7317 186.096 37.1552C183.76 36.6394 182.758 40.2347 185.102 40.7505H185.11Z" fill="black"/>
<path d="M183.805 39.7417C183.525 54.4187 180.665 68.9288 175.158 82.5514C170.008 95.2942 161.521 109.873 146.237 110.98C143.855 111.154 143.84 114.879 146.237 114.704C161.566 113.589 171.146 100.839 176.941 87.8154C183.691 72.6606 187.218 56.3074 187.529 39.7342C187.575 37.3373 183.851 37.3373 183.805 39.7342V39.7417Z" fill="black"/>
<path d="M108.206 107.498C120.728 105.997 133.198 108.136 144.431 113.885C146.563 114.977 148.452 111.761 146.313 110.669C134.51 104.624 121.381 102.189 108.206 103.774C105.854 104.055 105.824 107.787 108.206 107.498Z" fill="black"/>
<path d="M72.3358 97.873C82.8334 102.5 93.2552 107.286 103.745 111.913C105.194 112.55 106.461 110.411 104.997 109.766C94.4991 105.139 84.0773 100.353 73.5873 95.7264C72.1386 95.0893 70.8719 97.2283 72.3358 97.873Z" fill="black"/>
<path d="M63.4842 192.367C67.1174 169.506 73.5874 146.288 87.6879 127.523C95.3564 117.313 105.687 108.606 119.249 109.713C131.855 110.745 143.87 117.185 153.488 125.111C164.342 134.054 173.027 145.317 181.62 156.346C182.599 157.605 184.351 155.838 183.38 154.586C167.717 134.486 149.801 112.118 123.049 107.681C97.4043 103.425 81.1952 128.782 72.5483 149.246C66.814 162.808 63.4008 177.189 61.095 191.7C60.8446 193.262 63.2415 193.937 63.4918 192.359L63.4842 192.367Z" fill="black"/>
<path d="M183.601 155.997C199.688 133.522 220.297 108.955 249.764 105.936C263.804 104.495 277.556 108.659 287.72 118.573C297.209 127.826 303.701 140.19 309.216 152.091C316.126 167.003 321.018 182.772 323.961 198.935C324.249 200.506 326.638 199.838 326.358 198.276C323.574 183.007 319.038 168.133 312.765 153.934C307.092 141.092 300.265 127.766 290.329 117.662C269.288 96.2726 237.317 101.226 215.025 117.822C201.554 127.856 191.163 141.191 181.462 154.745C180.529 156.05 182.683 157.286 183.608 155.997H183.601Z" fill="black"/>
<path d="M276.797 109.228L283.373 105.966C284.807 105.253 283.548 103.114 282.122 103.82L275.546 107.081C274.112 107.794 275.371 109.933 276.797 109.228Z" fill="black"/>
<path d="M103.343 110.699C104.883 108.72 106.901 107.385 109.351 106.801C110.906 106.429 110.246 104.032 108.691 104.404C105.877 105.079 103.374 106.649 101.591 108.94C100.62 110.184 102.365 111.958 103.351 110.699H103.343Z" fill="black"/>
<path d="M143.339 115.463C144.234 114.947 145.19 114.659 146.229 114.621C148.618 114.545 148.634 110.813 146.229 110.897C144.538 110.95 142.93 111.397 141.458 112.247C139.38 113.445 141.253 116.669 143.339 115.463Z" fill="black"/>
<path d="M326.737 201.257C334.534 165.516 330.613 127.94 315.648 94.566C314.995 93.1097 312.856 94.3689 313.501 95.8176C328.178 128.547 331.986 165.554 324.34 200.597C323.999 202.152 326.396 202.819 326.737 201.257Z" fill="black"/>
<path d="M245.517 168.118C257.668 155.921 277.025 154.389 291.914 162.323C307.016 170.378 318.348 185.791 325.121 201.181C325.766 202.637 327.905 201.378 327.268 199.929C319.948 183.31 307.092 166.191 290.056 158.667C274.688 151.878 255.802 154.267 243.757 166.358C242.627 167.496 244.386 169.248 245.517 168.118Z" fill="black"/>
<path d="M243.537 166.586C230.657 181.839 223.376 200.453 218.119 219.498C212.469 239.955 207.189 260.503 201.372 280.914C200.932 282.454 203.329 283.114 203.769 281.574C209.351 261.99 214.547 242.307 219.841 222.639C225.136 202.971 232.129 183.932 245.296 168.338C246.32 167.124 244.576 165.357 243.537 166.578V166.586Z" fill="black"/>
<path d="M201.539 280.421C194.03 306.081 188.887 332.31 184.139 358.6C183.858 360.162 186.247 360.837 186.536 359.259C191.284 332.977 196.427 306.741 203.936 281.081C204.383 279.541 201.986 278.889 201.539 280.421Z" fill="black"/>
<path d="M64.7585 191.753C72.6317 174.861 87.8927 145.56 111.247 154.48C121.987 158.583 128.647 166.639 133.987 176.454C139.691 186.936 143.908 198.147 146.798 209.714C147.185 211.261 149.581 210.609 149.195 209.054C145.994 196.235 141.155 183.811 134.54 172.358C129.049 162.839 121.487 155.345 110.875 151.711C86.7018 143.444 70.7809 172.972 62.6043 190.501C61.9293 191.942 64.0758 193.201 64.7509 191.753H64.7585Z" fill="black"/>
<path d="M146.821 208.705C160.633 258.5 172.45 308.834 182.235 359.578C182.538 361.148 184.935 360.481 184.632 358.918C174.847 308.175 163.03 257.841 149.218 208.045C148.793 206.505 146.396 207.158 146.821 208.705Z" fill="black"/>
<path d="M185.967 358.198C214.775 337.346 238.493 310.063 255.058 278.593C255.802 277.182 253.663 275.923 252.912 277.342C236.551 308.425 213.167 335.458 184.708 356.059C183.426 356.984 184.662 359.146 185.959 358.205L185.967 358.198Z" fill="black"/>
<path d="M254.786 279.139C263.379 261.853 270.009 243.482 279.619 226.712C287.765 212.482 305.597 190.956 323.718 204.23C325.007 205.178 326.251 203.024 324.969 202.083C318.105 197.054 309.094 196.789 301.433 200.142C293.037 203.813 287.098 211.064 281.963 218.399C269.341 236.451 262.386 258.258 252.639 277.88C251.926 279.306 254.073 280.565 254.786 279.132V279.139Z" fill="black"/>
<path d="M184.184 53.9634C184.814 63.7405 187.332 73.3128 191.481 82.1796C195.6 90.9858 201.334 99.0638 208.32 105.83C212.272 109.66 216.641 113.073 221.32 115.971C222.458 116.676 223.497 114.886 222.367 114.181C206.249 104.191 194.272 87.9973 189.031 69.8085C187.545 64.6431 186.604 59.326 186.255 53.9634C186.172 52.6436 184.101 52.6285 184.184 53.9634Z" fill="black"/>
<path d="M220.971 113.635L227.047 108.78C227.472 108.439 227.426 107.665 227.047 107.316C226.6 106.899 226.038 106.952 225.583 107.316L219.508 112.171C219.083 112.512 219.128 113.286 219.508 113.635C219.955 114.052 220.516 113.999 220.971 113.635Z" fill="black"/>
</svg>
