<svg width="400" height="400" viewBox="0 0 400 400" fill="none" xmlns="http://www.w3.org/2000/svg">
<path d="M71.9352 184.811C72.1881 184.053 74.9767 150.112 78.0111 132.383C81.0526 114.654 83.8341 105.79 83.3284 104.771C82.8226 103.753 79.5283 104.519 79.5283 104.519C79.5283 104.519 73.7053 138.965 72.9397 153.154C72.1811 167.335 71.9282 184.811 71.9282 184.811H71.9352Z" fill="#FFFFFD"/>
<path d="M71.9563 193.423C72.5674 163.381 75.672 133.451 81.2492 103.929C81.6566 101.758 78.3342 100.831 77.9197 103.008C72.2794 132.833 69.1255 163.072 68.5004 193.423C68.4582 195.643 71.9071 195.643 71.9492 193.423H71.9563Z" fill="black"/>
<path d="M80.252 104.188L84.7966 103.353C85.7167 103.184 86.2365 102.074 86.0047 101.231C85.7378 100.269 84.8036 99.8545 83.8834 100.023L79.3388 100.859C78.4187 101.028 77.8989 102.137 78.1307 102.98C78.3976 103.943 79.3318 104.357 80.252 104.188Z" fill="black"/>
<path d="M145.492 116.993C135.623 114.345 125.515 112.68 115.302 112.168C114.031 112.104 112.689 112.224 111.481 111.845C110.104 111.409 108.763 110.721 107.428 110.18C105.293 109.309 103.157 108.431 101.015 107.574C95.8593 105.509 90.7317 103.366 85.5901 101.266C82.8366 100.135 81.3756 104.525 84.115 105.635C88.9054 107.581 93.6889 109.527 98.4653 111.486C100.896 112.484 103.326 113.495 105.763 114.486C107.217 115.076 108.664 115.68 110.125 116.256C111.362 116.747 112.619 116.663 113.939 116.726C124.356 117.211 134.675 118.784 144.733 121.545C147.585 122.325 148.351 117.759 145.492 116.993Z" fill="#965B00"/>
<path d="M274.083 111.95C255.967 104.561 234.614 106.436 218.283 117.345C215.811 118.995 218.578 122.606 221.051 121.018C236.019 111.402 255.441 109.162 271.99 116.045C274.715 117.176 276.822 113.067 274.083 111.95Z" fill="#965B00"/>
<path d="M186.056 339.553C178.541 301.005 170.842 262.351 159.358 224.751C156.295 214.727 153.015 204.788 149.44 194.933C146.567 187.017 143.202 179.255 138.201 172.435C132.891 165.207 125.206 159.272 116.321 157.319C112.401 156.455 108.327 156.209 104.387 157.066C99.9686 158.021 96.0492 160.817 92.5231 163.556C88.6457 166.57 85.0705 170.061 82.0712 173.959C79.7953 176.916 77.6811 180.344 77.941 183.947C77.2526 185.085 76.5572 186.223 75.8759 187.368C74.7169 189.3 75.8127 191.442 77.5898 192.306C77.8075 192.489 78.0463 192.643 78.3203 192.777C79.2194 193.212 80.3432 193.212 81.3055 192.84C81.6919 192.875 82.0712 192.917 82.4575 192.973C82.5628 193.058 82.6752 193.135 82.7946 193.212C101.1 204.851 109.493 226.345 117.571 245.465C127.131 268.104 138.622 289.64 152.895 309.679C161.022 321.094 169.929 331.939 179.538 342.131C180.662 343.325 182.179 343.999 183.802 343.353C185.228 342.784 186.372 341.105 186.063 339.539L186.056 339.553Z" fill="#FFCA1B"/>
<path d="M140.732 169.074L93.0405 197.319C94.584 199.016 98.5969 203.616 102.301 208.431C106.005 213.247 108.012 218.772 109.247 221.859L150.919 197.319L140.732 169.074Z" fill="#D28F00"/>
<path d="M149.53 196.393L107.395 220.007C108.938 221.705 109.71 228.156 113.414 232.972C117.118 237.787 116.809 246.091 118.044 249.178L159.717 224.637L149.53 196.393Z" fill="#FFDD55"/>
<path d="M318.973 195.481C309.013 181.384 298.07 167.406 281.212 161.456C273.857 158.857 265.653 158.33 258.123 160.487C251.078 162.51 244.7 166.345 239.376 171.367C227.393 182.655 221.717 198.403 217.566 213.94C212.839 231.627 208.54 249.447 204.052 267.197C198.805 287.954 193.586 308.717 188.311 329.459C188.009 330.639 188.261 331.616 188.816 332.332C188.311 334.699 187.805 337.066 187.299 339.427C187.222 339.792 187.194 340.136 187.201 340.466C187.138 340.586 187.074 340.705 187.011 340.831C184.799 344.976 191.036 348.874 193.22 344.702C194.232 342.777 195.243 340.859 196.262 338.935C196.29 338.914 196.325 338.9 196.353 338.879C226.199 318.762 244.04 289.239 256.719 256.703C257 256.289 258.032 255.256 258.313 254.842C258.615 254.392 259.332 251.639 259.374 251.119C262.12 245.598 264.473 239.466 267.346 234.107C273.134 223.304 276.47 217.424 284.092 207.794C284.19 207.668 289.325 203.404 289.409 203.278C296.566 198.298 300.156 197.209 308.81 199.028C309.505 199.169 313.319 200.531 313.86 200.356C313.86 200.363 315.918 201.62 317.751 200.503C319.353 199.527 320.118 197.097 318.973 195.474V195.481Z" fill="#FFCA1B"/>
<path d="M275.473 137.125L233.338 160.74C234.881 162.437 227.336 173.814 225.929 179.724C223.614 189.447 220.527 198.862 221.762 201.949L285.66 165.37L275.473 137.125Z" fill="#FFDD55"/>
<path d="M187.498 263.995L139.343 288.535C140.887 290.233 144.437 298.074 148.141 302.889C151.845 307.705 154.778 313.693 156.012 316.78L197.685 292.239L187.498 263.995Z" fill="#D28F00"/>
<path d="M272.695 224.174L195.37 261.68C196.913 263.377 199.537 270.421 199.537 276.496C199.537 282.979 196.45 291.931 197.685 295.018L253.711 265.384L272.695 224.174Z" fill="#D28F00"/>
<path d="M313.656 193.57C313.193 190.691 310.638 172.051 308.348 170.463C307.295 168.201 306.694 165.387 306.033 163.055C304.783 158.665 302.418 154.867 300.002 150.941C298.807 149.002 297.974 146.037 296.31 144.534C296.808 143.241 290.519 135.572 289.627 134.392C279.217 120.618 274.588 113.804 256.283 111.859C238.576 109.976 223.263 116.79 210.62 128.681C205.344 133.641 200.406 137.391 195.3 143.102C195.138 142.94 192.062 146.727 191.928 146.93C190.495 149.108 189.449 150.021 188.395 151.812C186.639 154.804 185.628 156.019 183.886 159.019C179.685 153.547 173.342 145.385 168.566 140.391C160.348 131.807 150.514 123.196 139.43 118.763C128.304 112.807 113.335 114.703 103.045 122.556C102.111 123.266 101.493 124.277 101.338 125.359C86.0044 142.21 77.8002 163.044 73.6419 185.451C73.2135 187.761 72.1177 191.885 73.6419 190.557C74.5059 190.381 78.4394 181.707 78.7485 180.646C82.7382 167.005 92.4034 161.196 105.532 155.563C106.086 155.724 106.669 155.788 107.238 155.738C116.721 154.874 125.796 160.22 132.055 166.935C136.733 171.957 140.006 177.78 142.914 183.828C147.929 197.595 157.152 227.792 158.002 228.263C160.207 239.227 171.523 283.978 172.127 286.064C174.902 295.708 183.815 347.553 185.396 347.371C187.215 347.16 191.296 318.41 191.704 316.732C195.911 299.305 197.681 293.074 201.917 276.778C203.42 270.169 205.822 260.56 208.224 252.447C215.045 229.422 216.906 216.027 226.396 193.964C228.917 188.106 231.601 182.318 234.417 176.6C237.15 173.46 240.1 170.524 243.38 167.925C251.381 161.597 262.092 157.586 272.284 159.756C272.551 159.904 275.803 160.719 276.113 160.824C281.303 162.608 283.53 163.718 288.714 165.502C289.444 166.022 290.168 166.556 290.87 167.111C293.497 169.169 295.956 171.437 298.217 173.882C298.765 174.479 299.271 175.223 299.875 175.75C300.486 176.284 301.111 176.34 301.751 176.509C302.72 178.096 303.858 179.585 305.206 180.955C307.51 183.294 314.176 196.78 313.664 193.563L313.656 193.57Z" fill="#291D01"/>
<path d="M316.754 144.366C317.07 143.952 317.253 143.432 317.197 142.842C316.108 130.978 313.081 119.382 308.269 108.48C308.522 107.153 307.307 105.509 305.691 105.509C296.244 105.495 286.754 107.897 278.248 112.034C276.766 112.266 275.277 112.477 273.788 112.659C270.936 113.018 271.737 117.316 274.483 117.19C274.638 117.359 274.827 117.506 275.066 117.618C278.508 119.234 281.634 121.404 284.254 124.109C289.466 130.529 294.179 137.342 298.414 144.437C305.663 159.974 312.055 175.933 314.809 192.931C315.279 195.86 319.199 195.72 319.409 192.742C320.547 176.572 319.627 160.297 316.761 144.373L316.754 144.366Z" fill="#FFDD55"/>
<path d="M217.23 118.925C201.678 109.197 190.742 92.6055 188.234 74.392C187.834 71.4559 183.247 72.0529 183.675 74.989C183.949 76.8574 184.301 78.7118 184.729 80.5451C183.844 80.6154 183.015 81.1351 182.797 82.1536C179.215 99.0186 168.475 116.747 149.791 118.904C147.333 119.185 146.806 123.203 149.531 123.456C149.988 123.498 150.437 123.561 150.887 123.631C150.915 123.659 150.943 123.694 150.978 123.715C156.703 128.379 161.388 132.559 167.12 137.223C170.294 140.777 173.462 144.331 176.637 147.885C178.225 150.653 180.859 153.898 182.446 156.666C183.191 157.965 185.27 157.846 186.106 156.75C193.755 146.733 201.952 137.167 210.683 128.077C210.873 127.881 211.013 127.684 211.119 127.48C213.015 125.788 215.059 124.263 217.223 122.908C218.719 121.966 218.747 119.866 217.237 118.918L217.23 118.925Z" fill="#FFDD55"/>
<path d="M218.803 111.234C212.565 106.907 207.079 101.73 202.816 95.3731C200.638 92.1209 198.798 88.644 197.33 85.0195C196.487 82.9404 195.763 80.8051 195.159 78.6416C194.169 75.0593 194.204 72.4183 193.853 68.1827C193.403 62.7109 193.094 59.6905 193.755 54.7807C194 52.9333 192.139 51.2756 190.411 51.2265C188.367 51.1632 187.124 52.7226 186.857 54.57C184.848 68.2178 187.608 82.7227 194.366 94.7339C197.274 99.9037 200.891 104.722 205.099 108.916C207.199 111.009 209.454 112.926 211.814 114.725C212.769 115.455 213.731 116.172 214.743 116.832C216.625 118.061 216.801 120.772 218.992 120.105C222.87 118.932 222.343 111.198 218.817 111.241L218.803 111.234Z" fill="#965B00"/>
<path d="M199.831 258.326C199.775 258.487 199.718 258.649 199.662 258.804C199.381 258.916 199.121 259.092 198.911 259.337C197.688 259.049 196.319 259.548 196.024 261.143C195.539 263.756 195.061 266.362 194.577 268.975C193.706 268.427 192.47 268.349 191.535 268.996C190.173 269.937 188.81 270.878 187.447 271.826C186.422 272.543 186.267 273.568 186.618 274.446C186.59 274.46 186.562 274.474 186.534 274.488C186.169 274.383 185.769 274.383 185.361 274.531C183.43 275.212 181.505 275.893 179.573 276.575C179.032 276.764 178.625 277.087 178.337 277.467C177.993 277.319 177.656 277.242 177.333 277.235C177.206 277.017 177.087 276.799 176.96 276.589C176.567 275.928 175.921 275.556 175.232 275.423C174.46 272.824 173.722 270.211 173.006 267.591C172.163 264.5 167.443 266.038 168.278 269.122C174.825 292.997 179.622 317.322 182.811 341.864C182.832 342.032 182.868 342.18 182.917 342.327C182.896 342.651 182.875 342.981 182.861 343.304C182.685 346.479 187.679 346.205 187.82 343.023C188.03 338.225 188.346 333.421 188.747 328.63C189.583 324.121 190.411 319.604 191.24 315.095C191.992 311.73 192.744 308.373 193.495 305.008C193.973 304.678 194.352 304.158 194.507 303.414C195.827 297.106 197.148 290.791 198.461 284.484C200.948 276.28 203.02 267.949 204.649 259.527C205.268 256.345 200.877 255.334 199.824 258.326H199.831Z" fill="#291D01"/>
<path d="M106.965 115.104C100.355 111.634 93.3871 109.098 86.089 107.63C85.7378 107.42 85.3936 107.202 85.0565 106.97C85.0565 106.605 85.0705 106.247 85.0705 105.881C85.0916 102.903 80.9684 102.903 80.4908 105.664C80.1958 105.888 79.957 106.19 79.8446 106.563C73.6493 126.504 72.7221 147.401 71.9354 168.122C71.9143 168.628 72.0267 169.042 72.2164 169.386C71.0995 174.823 69.9546 180.253 68.8378 185.689C68.318 188.218 72.687 189.216 73.2911 186.687C74.8785 180.014 76.3536 173.292 77.7022 166.549C77.8638 166.352 77.9902 166.106 78.0745 165.804C83.2794 147.773 93.4293 131.407 107.295 118.757C108.327 117.815 108.313 115.813 106.965 115.111V115.104Z" fill="#FFDD55"/>
<path d="M324.593 138.635C324.488 137.581 324.369 136.528 324.242 135.474C324.13 134.568 323.764 133.732 323.181 133.114C321.734 127.67 320.14 122.262 318.489 116.895C318.707 116.41 318.805 115.863 318.742 115.294C318.307 111.325 316.888 107.813 314.338 104.729C311.873 101.751 306.548 105.741 308.908 108.867C308.951 108.923 308.993 108.986 309.035 109.042C309.035 109.428 309.084 109.836 309.217 110.257C312.252 120.07 315.378 130.072 317.892 140.208C319.901 159.602 318.524 179.269 317.084 198.656C316.909 201.058 319.592 202.217 321.524 201.824C322.886 201.543 324.249 201.262 325.612 200.981C326.736 200.749 327.845 199.667 328.063 198.537C331.912 178.356 329.391 158.288 324.586 138.649L324.593 138.635Z" fill="#965B00"/>
<path d="M298.829 199.843C289.03 204.085 285.048 208.447 278.74 216.35C278.305 216.511 277.904 216.855 277.609 217.417C277.391 217.832 277.181 218.246 276.963 218.661C268.646 229.822 262.711 243.147 257.092 255.699C252.034 267.008 246.556 278.071 239.848 288.502C234.91 296.179 229.48 303.54 223.601 310.529C217.637 317.385 211.294 323.917 204.593 330.07C199.164 335.05 193.502 339.771 187.651 344.245C185.291 346.05 188.269 349.478 190.622 347.736C203.863 337.944 215.2 329.867 225.855 317.307C229.979 312.601 233.919 307.734 237.677 302.725C238.682 303.47 240.985 300.239 241.772 298.827C245.951 291.311 250.131 283.802 254.303 276.287C255.336 276.49 256.53 276.048 257.014 274.734C258.616 270.428 260.281 266.151 262.002 261.901C262.571 261.873 263.125 261.599 263.533 260.995C268.239 253.95 271.962 246.427 274.764 238.433C275.074 237.548 274.828 236.846 274.315 236.397C276.626 231.086 278.937 225.783 281.241 220.473C287.38 212.564 294.945 205.75 304.224 201.803C306.942 200.644 301.54 198.663 298.829 199.836V199.843Z" fill="#965B00"/>
<path d="M82.8294 174.682C82.8294 174.682 84.0937 184.811 84.3466 183.8C84.5995 182.788 105.37 155.682 105.37 155.682L108.917 154.924L106.894 201.782L140.835 179.494L141.846 183.041L122.34 232.435L156.281 225.088L156.786 227.876L133.993 252.952L162.616 249.658L163.375 251.681L142.858 273.969L169.704 277.769L170.21 281.569L156.281 298.286L176.04 303.098L175.787 305.121L167.175 322.091L181.104 329.185L181.61 332.227L165.145 326.657L161.598 322.351L172.492 304.622L147.669 302.852L146.911 301.082L168.187 280.058L132.982 278.541L132.223 277.53L159.069 252.959L123.611 259.035L122.6 256.752L152.741 228.382L115 238.258L114.241 236.488L137.8 184.565L102.595 210.906L101.331 208.623L105.637 161.006L83.8549 193.683L81.5721 193.43L80.8135 179.248L82.8364 174.689L82.8294 174.682Z" fill="#FFEB99"/>
<path d="M189.969 331.468L208.709 328.174L212.003 323.868L199.339 305.633L225.427 309.181L227.204 307.151L205.169 284.357L241.133 287.399L242.397 285.369L212.509 257.504L255.314 258.27L220.615 226.099L267.22 233.952L268.232 232.435L233.785 195.959L278.115 215.97L279.379 214.699L263.42 165.565L294.832 200.77L298.379 200.012L300.149 176.453L297.614 172.905L295.085 192.664L261.903 160.241L258.861 160.754L272.537 207.359L228.215 191.147L227.457 193.17L257.091 227.364L216.562 223.058V225.593L245.185 253.458L208.962 254.217L207.698 257.251L233.027 281.569H201.369L200.863 283.346L220.615 305.633L195.539 302.592V304.875L206.18 323.868L190.222 328.174L189.969 331.468Z" fill="#FFEB99"/>
<path d="M314.837 195.959C314.837 195.959 302.727 151.32 283.179 135.677C266.715 122.507 242.903 115.919 216.562 139.478C190.222 163.036 184.905 176.46 184.905 176.46C184.905 176.46 173.251 156.195 153.247 139.225C133.235 122.254 117.023 116.684 99.5473 134.919C82.0712 153.153 74.2183 187.094 74.2183 187.094C74.2183 187.094 90.1771 150.112 111.706 148.089C133.235 146.066 152.488 167.342 160.847 205.336C169.206 243.329 185.495 346.816 185.495 346.816C185.495 346.816 192.252 285.629 204.916 236.235C217.581 186.841 229.487 154.678 256.333 151.383C283.179 148.089 299.391 170.377 305.474 178.482C311.55 186.588 314.844 195.959 314.844 195.959H314.837Z" fill="white"/>
<path d="M278.252 132.032L157.401 190.836L144.899 166.759L168.977 154.72L185.183 174.63L192.591 163.981L201.389 153.794C209.26 145.46 228.244 125.928 247.692 124.16C263.99 122.679 274.702 128.945 278.252 132.032Z" fill="#D9D9D9"/>
<path d="M75.9878 157.206C75.9878 157.206 79.0292 142.519 84.5994 132.383C90.1695 122.254 96.5053 116.93 96.5053 116.93L83.8408 112.371C83.8408 112.371 82.3235 119.972 79.535 133.648C76.7464 147.324 75.9878 157.206 75.9878 157.206Z" fill="#965B00"/>
<path d="M164.64 121.995C164.64 121.995 170.21 120.983 176.546 114.142C182.881 107.3 185.157 99.4542 185.157 99.4542C185.157 99.4542 185.41 105.277 192.252 112.624C199.093 119.972 203.905 121.742 203.905 121.742C203.905 121.742 199.093 123.006 192.757 131.618C186.421 140.229 184.146 144.282 184.146 144.282C184.146 144.282 181.863 137.694 175.281 131.365C168.693 125.036 164.64 121.995 164.64 121.995Z" fill="#965B00"/>
<path d="M286.22 119.213C286.22 119.213 290.526 117.19 294.073 116.424C297.62 115.659 300.662 114.654 300.662 114.654C300.662 114.654 305.726 119.466 309.273 137.96C312.821 156.455 313.579 170.384 313.579 170.384C313.579 170.384 307.503 152.908 300.156 137.96C292.809 123.013 286.227 119.22 286.227 119.22L286.22 119.213Z" fill="#965B00"/>
<path d="M117.381 156.961C117.493 156.947 117.529 156.876 117.508 156.764C117.297 156.961 117.163 157.242 116.995 157.466C116.594 158.007 116.152 158.527 115.808 159.11C115.386 159.812 114.754 160.339 114.719 161.189C114.719 161.33 114.691 161.435 114.663 161.555C114.635 161.674 114.635 161.8 114.607 161.927C114.55 162.159 114.403 162.404 114.354 162.636C114.319 162.777 114.34 162.924 114.297 163.065C114.255 163.24 114.213 163.304 114.262 163.486C114.375 163.915 114.571 164.294 114.754 164.694C114.873 164.968 114.93 165.263 115.049 165.537C115.183 165.839 115.33 166.057 115.323 166.38C115.316 166.703 115.485 166.935 115.562 167.258C115.681 167.764 115.892 168.136 116.313 168.438C116.58 168.628 116.925 168.972 117.241 169.049C117.409 169.091 117.767 169.176 117.943 169.176C118.147 169.176 118.4 169.063 118.596 169.014C118.87 168.951 119.151 168.874 119.425 168.803C119.734 168.719 119.917 168.572 120.184 168.431C120.479 168.277 120.711 168.185 120.999 167.982C121.258 167.806 121.539 167.63 121.82 167.49C122.249 167.279 122.649 167.153 122.993 166.802C123.246 166.549 123.604 166.141 123.661 165.776C123.682 165.628 123.661 165.446 123.661 165.291C123.661 165.116 123.569 164.954 123.562 164.807C123.555 164.582 123.843 164.055 123.597 163.844C123.773 163.542 123.787 163.556 124.117 163.458C124.356 163.388 124.546 163.093 124.693 162.882C125.044 162.39 124.827 161.892 124.56 161.428C124.686 161.344 124.56 161.056 124.511 160.943C124.49 160.887 124.426 160.747 124.391 160.705C124.258 160.55 124.363 160.669 124.152 160.557C123.815 160.388 123.541 160.143 123.19 159.981C122.621 159.714 122.059 159.496 121.525 159.166C121.034 158.864 120.528 158.59 120.043 158.288C119.692 158.063 119.292 157.958 118.919 157.747C118.456 157.48 118.076 157.171 117.676 156.841C117.725 156.778 117.788 156.736 117.388 156.961H117.381Z" fill="#D28F00"/>
<path d="M126.077 175.68H126.147C126.042 175.596 126.028 175.104 126.098 174.985C126.204 174.809 126.477 174.697 126.597 174.507C126.73 174.296 126.723 174.107 126.442 174.015C126.302 173.973 126.161 174.022 126.028 173.98C125.937 173.952 125.873 173.847 125.782 173.805C125.578 173.706 125.213 173.72 124.995 173.776C124.757 173.84 124.504 173.861 124.279 173.959C123.998 174.071 123.619 174.282 123.38 174.472C123.26 174.563 123.211 174.669 123.071 174.753C122.951 174.823 122.818 174.858 122.705 174.928C122.305 175.181 121.771 175.603 121.554 176.045C121.301 176.572 122.108 176.755 122.467 176.888C123.071 177.12 123.9 177.064 124.497 176.804C124.714 176.705 125.038 176.544 125.213 176.382C125.417 176.2 125.487 175.905 125.599 175.68" fill="#D28F00"/>
<path d="M116.292 188.12C116.524 187.663 116.328 187.136 116.054 186.694C115.829 186.336 115.632 185.977 115.393 185.633C115.288 185.479 115.246 185.261 115.084 185.149C114.923 185.036 114.705 185.036 114.536 184.959C114.298 184.854 114.22 184.657 114.045 184.481C113.869 184.306 113.658 184.278 113.476 184.151C113.363 184.074 113.293 183.926 113.181 183.842C112.942 183.667 112.626 183.414 112.296 183.505C111.93 183.61 111.446 184.039 111.242 184.355C111.003 184.727 110.933 185.142 110.673 185.5C110.448 185.809 110.336 186.195 110.153 186.49C110.301 186.596 110.301 186.856 110.399 187.003C110.533 187.214 110.793 187.474 111.003 187.614C111.411 187.881 111.874 187.93 112.31 188.092C112.499 188.162 112.549 188.162 112.717 188.331C112.865 188.485 112.921 188.548 113.019 188.752C113.209 189.159 113.279 189.405 113.7 189.658C114.164 189.932 114.649 190.051 115.183 190.023C115.611 189.995 115.843 189.749 116.054 189.419C116.173 189.223 116.131 189.152 116.166 188.935C116.18 188.864 116.278 188.745 116.271 188.689C116.257 188.513 116.18 188.626 116.138 188.485C116.061 188.26 116.152 188.267 116.342 188.085C116.531 187.902 116.538 187.888 116.292 188.085V188.12Z" fill="#D28F00"/>
<path d="M136.22 218.794C136.22 218.576 136.269 218.387 136.34 218.19C136.431 217.944 136.459 217.705 136.557 217.459C136.747 216.968 136.958 216.56 137.309 216.167C137.442 216.02 137.695 215.816 137.765 215.626C137.815 215.507 137.758 215.401 137.787 215.282C137.801 215.219 137.878 215.184 137.885 215.142C137.99 214.629 137.787 214.228 137.794 213.723C137.794 213.273 137.829 212.774 138.032 212.395C138.236 212.016 138.313 211.517 138.419 211.096C138.44 211.004 138.496 210.955 138.517 210.829C138.531 210.709 138.496 210.583 138.517 210.463C138.538 210.295 138.608 210.098 138.784 210.007C139.072 209.859 139.95 209.937 140.182 210.133C140.575 210.463 140.8 211.068 140.905 211.545C140.983 211.889 140.919 212.255 140.926 212.606C140.933 212.831 140.99 212.999 141.025 213.217C141.06 213.435 141.025 213.652 141.046 213.877C141.081 214.165 141.235 214.411 141.299 214.692C141.327 214.811 141.362 214.931 141.39 215.05C141.418 215.17 141.376 215.31 141.411 215.415C141.566 215.942 142.134 215.57 142.359 215.914C142.507 216.146 142.296 216.3 142.254 216.49C142.191 216.764 142.226 216.855 142.05 217.101C142.001 217.171 141.832 217.431 141.755 217.445C141.411 217.523 141.411 216.905 141.053 216.968C140.666 217.038 140.814 217.776 140.814 218.064C140.814 218.647 140.772 219.216 140.575 219.756C140.378 220.297 139.943 220.789 139.402 220.993C139.149 221.091 138.896 221.196 138.622 221.21C138.194 221.231 137.737 221.042 137.316 220.965C137.154 220.936 136.972 220.894 136.824 220.838C136.585 220.754 136.656 220.838 136.501 220.599C136.389 220.431 136.227 220.269 136.136 220.094C136.016 219.855 135.946 219.539 135.988 219.272C136.002 219.166 136.073 219.082 136.087 219.005C136.115 218.857 136.087 218.71 136.136 218.569C136.171 218.569 136.206 218.555 136.234 218.787L136.22 218.794Z" fill="#D28F00"/>
<path d="M153.731 309.848C153.893 309.637 154.09 309.454 154.216 309.223C154.455 308.787 154.525 308.352 154.883 307.972C155.115 307.727 155.382 307.403 155.726 307.319C155.979 307.263 156.372 307.277 156.632 307.305C157.391 307.389 157.777 308.099 158.051 308.724C158.157 308.977 158.311 309.195 158.416 309.447C158.501 309.637 158.508 309.862 158.585 310.052C158.697 310.318 158.845 310.522 158.922 310.81C159.035 311.211 159.126 311.618 159.224 312.025C159.323 312.433 159.512 312.847 159.526 313.283C159.54 313.613 159.54 313.873 159.618 314.189C159.779 314.849 159.758 315.495 159.765 316.184C159.765 316.472 159.786 316.668 159.47 316.731C159.119 316.802 158.725 316.647 158.43 316.465C158.121 316.268 157.784 315.734 157.595 315.411C157.243 314.8 156.752 314.322 156.26 313.831C155.951 313.528 155.698 313.205 155.438 312.861C155.213 312.566 155.171 312.313 155.052 311.969C154.989 311.786 154.918 311.611 154.869 311.421C154.827 311.246 154.827 311.028 154.757 310.873C154.644 310.635 154.511 310.354 154.328 310.157C154.209 310.03 154.132 309.967 153.956 309.911C153.78 309.855 153.507 309.911 153.408 309.728C153.429 309.728 153.457 309.728 153.724 309.855L153.731 309.848Z" fill="#D28F00"/>
<path d="M165.44 296.685C165.827 296.79 165.785 296.327 165.827 296.109C165.841 296.046 165.904 295.933 165.918 295.842C165.953 295.652 165.96 295.554 166.073 295.385C166.262 295.083 166.283 294.992 166.649 294.999C166.845 294.999 167.372 295.09 167.498 294.929C167.604 294.999 167.597 295.076 167.618 295.175C167.653 295.308 167.674 295.463 167.709 295.603C167.744 295.743 167.709 295.849 167.73 295.989C167.744 296.165 167.836 296.284 167.864 296.446C167.941 296.909 167.723 297.352 167.344 297.619C167.049 297.83 166.213 297.914 165.953 297.619C165.757 297.401 165.876 297.176 165.778 296.945C165.742 296.853 165.588 296.79 165.581 296.671C165.567 296.516 165.735 296.502 165.686 296.312" fill="#D28F00"/>
<path d="M211.575 270.112V270.183C211.694 270.035 211.996 270.112 212.179 270.112C212.495 270.112 212.621 270.105 212.79 269.81C212.923 269.586 212.818 269.34 212.923 269.136C213.043 268.925 213.303 268.897 213.506 268.904C214.23 268.925 215.684 269.143 215.803 270.049C215.859 270.492 215.782 270.871 215.389 271.075C214.995 271.278 214.433 271.489 213.991 271.566C213.548 271.644 213.155 271.489 212.783 271.285C212.734 271.257 212.565 271.117 212.516 271.096C212.389 271.054 212.298 271.11 212.172 271.082C211.912 271.019 211.982 270.927 211.722 271.061C211.547 270.843 211.392 270.808 211.476 270.499C211.525 270.309 211.778 270.176 211.813 269.986" fill="#D28F00"/>
<path d="M245.747 239.564C245.74 239.164 246 238.75 246.133 238.356C246.267 237.963 246.653 237.506 247.004 237.324C247.166 237.239 247.44 237.197 247.615 237.162C247.826 237.113 247.945 237.148 248.1 237.275C248.325 237.457 248.36 238.265 248.613 238.23C248.851 237.858 249.175 237.408 249.701 237.542C250.046 237.633 250.284 238.096 250.516 238.356C250.614 238.469 250.748 238.602 250.79 238.743C250.86 238.981 250.783 239.101 250.966 239.291C251.204 239.529 251.247 239.368 251.542 239.312C251.738 239.276 252.104 239.284 252.272 239.375C252.658 239.586 252.757 240.14 252.75 240.527C252.75 240.773 252.827 240.906 252.869 241.131C252.918 241.377 252.939 241.686 253.08 241.889C253.157 242.009 253.298 242.093 253.382 242.22C253.536 242.444 253.642 242.704 253.747 242.95C253.909 243.343 253.916 244.102 253.81 244.516C253.705 244.931 253.691 245.402 253.572 245.844C253.487 246.16 253.227 246.273 253.017 246.476C252.743 246.736 252.694 247.122 252.511 247.439C252.342 247.734 252.223 248.05 252.174 248.387C252.132 248.689 252.335 248.935 252.279 249.23C252.251 249.363 252.167 249.454 252.146 249.588C252.125 249.721 252.167 249.82 252.132 249.953C252.04 250.269 251.823 250.487 251.549 250.649C251.352 250.768 251.134 250.782 250.945 250.908C250.664 251.098 250.369 251.463 249.968 251.379C249.849 251.358 249.715 251.225 249.617 251.161C249.42 251.028 249.182 250.915 248.992 250.768C248.613 250.473 248.5 249.848 248.282 249.433C248.135 249.159 247.973 249.054 248.065 248.738C248.121 248.541 248.304 248.19 248.044 248.029C247.826 247.895 247.538 248.071 247.306 247.867C247.074 247.663 246.927 247.319 246.828 247.045C246.576 246.35 246.323 245.69 246.196 244.966C246.126 244.552 246.105 244.186 246.105 243.758C246.105 243.554 246.119 243.35 246.105 243.147C246.098 242.887 246 242.676 245.979 242.423C245.95 242.128 245.957 241.777 245.979 241.489C246.007 241.152 246.182 240.92 246.014 240.611C245.901 240.407 245.747 240.295 245.733 240.042C245.719 239.789 245.901 239.55 245.957 239.333C245.88 239.312 245.852 239.347 245.74 239.557L245.747 239.564Z" fill="#D28F00"/>
<path d="M255.413 240.527C255.693 240.471 255.771 240.14 255.862 239.923C255.967 239.67 256.101 239.403 256.283 239.199C256.726 238.7 257.232 238.258 257.948 238.349C258.412 238.405 259.044 238.904 258.918 239.445C258.861 239.684 258.644 239.937 258.545 240.161C258.433 240.414 258.356 240.794 258.426 241.075C258.489 241.32 258.637 241.566 258.559 241.861C258.489 242.128 258.18 242.276 257.955 242.374C257.618 242.522 257.232 242.458 256.866 242.458C256.529 242.458 256.34 242.29 256.024 242.212C255.764 242.156 255.511 242.135 255.3 241.946C255.033 241.707 254.998 241.475 254.914 241.152C254.879 241.025 254.808 241.046 254.844 240.885C254.886 240.674 254.998 240.681 255.153 240.611C255.377 240.513 255.588 240.492 255.736 240.253L255.665 240.161" fill="#D28F00"/>
<path d="M277.51 194.034C277.932 194.174 277.742 193.472 277.637 193.31C277.468 193.065 277.194 192.903 277.145 192.587C277.082 192.229 277.313 192.046 277.482 191.772C277.686 191.449 277.889 191.175 278.234 190.978C278.536 190.81 278.739 190.768 279.077 190.768C279.414 190.768 279.603 190.894 279.919 190.887C280.032 190.887 280.172 190.915 280.278 190.887C280.453 190.859 280.531 190.712 280.664 190.662C280.889 190.578 281.296 190.599 281.458 190.754C281.605 190.894 281.76 191.288 281.823 191.477C281.921 191.793 281.844 192.145 281.753 192.447C281.661 192.749 281.479 192.938 281.479 193.226C281.479 193.535 281.675 193.795 281.605 194.132C281.577 194.28 281.5 194.357 281.444 194.491C281.359 194.694 281.373 194.912 281.268 195.109C281.163 195.305 281.029 195.565 280.903 195.734C280.776 195.902 280.552 196.064 280.39 196.211C279.646 196.851 278.332 196.464 277.756 195.734C277.496 195.404 277.124 194.596 277.714 194.343C277.594 194.16 277.538 193.788 277.489 194.02L277.51 194.034Z" fill="#D28F00"/>
<path d="M241.884 185.099C241.716 185.071 241.526 184.854 241.372 184.769C241.034 184.587 240.887 184.537 240.915 184.137C240.943 183.666 241.217 182.571 241.884 182.711C242.271 182.788 242.439 183.027 242.706 183.294C242.903 183.498 243.156 183.659 243.366 183.856C243.591 184.074 243.626 184.278 243.732 184.587C243.767 184.692 243.809 184.713 243.823 184.854C243.837 185.015 243.795 185.163 243.837 185.324C244.083 185.373 244.195 185.338 244.336 185.577C244.476 185.816 244.434 186.069 244.188 186.223C243.767 186.49 243.282 186.427 242.79 186.427C242.559 186.427 242.39 186.427 242.2 186.293C241.969 186.132 242.018 186.048 242.004 185.767C241.997 185.528 241.969 185.317 241.765 185.156C241.61 185.029 241.315 185.043 241.4 184.734" fill="#D28F00"/>
<path d="M84.8595 102.994L113.75 113.854C115.829 114.633 116.728 111.304 114.67 110.524L85.7796 99.6649C83.7005 98.8852 82.8014 102.215 84.8595 102.994Z" fill="black"/>
<path d="M70.7691 195.228C93.3587 188.127 105.047 220.255 111.762 235.708C120.261 255.256 127.833 275.381 140.182 292.934C141.453 294.739 144.445 293.011 143.16 291.192C129.624 271.953 121.856 249.658 112.268 228.375C104.991 212.213 92.4948 184.783 69.849 191.906C67.7347 192.573 68.6408 195.902 70.7691 195.235V195.228Z" fill="black"/>
<path d="M139.317 291.178C151.378 312.952 166.522 332.887 184.258 350.349C185.838 351.908 188.283 349.471 186.695 347.912C169.156 330.639 154.223 310.972 142.296 289.436C141.221 287.49 138.236 289.232 139.317 291.178Z" fill="black"/>
<path d="M186.45 350.644C209.995 338.907 229.423 318.509 244.518 297.317C259.564 276.202 269.721 252.763 280.074 229.155C285.258 217.333 298.639 196.415 314.394 204.359C316.375 205.357 318.124 202.379 316.136 201.381C304.554 195.544 293.266 203.299 286.185 212.283C277.518 223.282 273.282 236.944 267.501 249.539C256.024 274.566 241.898 298.307 222.751 318.27C211.659 329.831 199.114 340.487 184.708 347.673C182.72 348.663 184.469 351.641 186.45 350.651V350.644Z" fill="black"/>
<path d="M316.824 204.732C320.35 203.917 323.891 203.411 327.508 203.222C329.721 203.102 329.728 199.653 327.508 199.773C323.595 199.984 319.732 200.524 315.911 201.409C313.748 201.908 314.661 205.238 316.831 204.739L316.824 204.732Z" fill="black"/>
<path d="M313.242 105.094C325.921 135.361 330.578 168.459 326.736 201.044C326.476 203.243 329.932 203.229 330.185 201.044C334.055 168.199 329.349 134.68 316.565 104.174C315.722 102.158 312.379 103.043 313.235 105.094H313.242Z" fill="black"/>
<path d="M305.719 105.762C308.683 105.72 311.542 106.099 314.387 106.9C316.529 107.504 317.442 104.174 315.307 103.57C312.174 102.685 308.971 102.257 305.719 102.306C303.499 102.334 303.492 105.79 305.719 105.755V105.762Z" fill="black"/>
<path d="M275.684 113.243C285.167 109.997 294.839 107.42 304.68 105.53C306.857 105.109 305.937 101.786 303.76 102.201C293.919 104.097 284.247 106.668 274.764 109.913C272.678 110.63 273.57 113.966 275.684 113.243Z" fill="black"/>
<path d="M225.701 115.982C240.473 107.546 258.349 106.429 274.104 112.786C276.162 113.615 277.061 110.278 275.024 109.457C258.454 102.77 239.461 104.146 223.959 112.997C222.027 114.1 223.769 117.078 225.701 115.975V115.982Z" fill="black"/>
<path d="M191.451 53.5655C188.416 78.9647 200.849 103.774 222.884 116.677C224.801 117.801 226.543 114.823 224.626 113.699C203.546 101.358 192.006 77.8057 194.907 53.5725C195.166 51.3739 191.718 51.388 191.458 53.5725L191.451 53.5655Z" fill="black"/>
<path d="M186.211 52.526C188.381 53.0036 190.32 53.8324 192.153 55.0757C193.986 56.319 195.728 53.3337 193.895 52.0975C191.844 50.7067 189.547 49.7304 187.124 49.1965C184.96 48.7189 184.033 52.0483 186.204 52.526H186.211Z" fill="black"/>
<path d="M185.003 51.5918C184.743 65.1834 182.095 78.6206 176.995 91.2359C172.226 103.036 164.366 116.537 150.212 117.562C148.007 117.724 147.993 121.173 150.212 121.011C164.408 119.979 173.279 108.171 178.646 96.1107C184.897 82.0765 188.164 66.9325 188.452 51.5848C188.494 49.3651 185.045 49.3651 185.003 51.5848V51.5918Z" fill="black"/>
<path d="M114.993 114.338C126.59 112.948 138.138 114.928 148.541 120.253C150.514 121.264 152.263 118.286 150.282 117.274C139.353 111.676 127.194 109.421 114.993 110.89C112.816 111.149 112.788 114.605 114.993 114.338Z" fill="black"/>
<path d="M81.776 105.425C91.4974 109.709 101.149 114.142 110.863 118.426C112.205 119.016 113.378 117.035 112.022 116.438C102.3 112.154 92.6493 107.721 82.935 103.437C81.5933 102.847 80.4203 104.828 81.776 105.425Z" fill="black"/>
<path d="M73.5787 192.931C76.9432 171.761 82.9348 150.26 95.9927 132.882C103.094 123.428 112.661 115.364 125.22 116.389C136.894 117.345 148.02 123.308 156.927 130.648C166.979 138.93 175.021 149.361 182.979 159.574C183.886 160.74 185.508 159.103 184.609 157.944C170.104 139.33 153.513 118.616 128.739 114.507C104.991 110.566 89.98 134.048 81.9725 152.999C76.6622 165.558 73.5014 178.876 71.3661 192.313C71.1343 193.76 73.3539 194.385 73.5857 192.924L73.5787 192.931Z" fill="black"/>
<path d="M184.813 159.25C199.711 138.438 218.796 115.687 246.084 112.891C259.086 111.557 271.821 115.413 281.233 124.593C290.02 133.163 296.033 144.612 301.139 155.633C307.538 169.443 312.069 184.046 314.794 199.014C315.061 200.468 317.274 199.85 317.014 198.403C314.436 184.263 310.236 170.489 304.427 157.34C299.173 145.448 292.851 133.107 283.649 123.751C264.164 103.942 234.558 108.529 213.914 123.898C201.439 133.191 191.816 145.539 182.832 158.092C181.968 159.3 183.963 160.445 184.82 159.25H184.813Z" fill="black"/>
<path d="M271.118 115.94L277.208 112.919C278.536 112.259 277.37 110.278 276.049 110.932L269.959 113.952C268.632 114.612 269.798 116.593 271.118 115.94Z" fill="black"/>
<path d="M110.491 117.302C111.917 115.469 113.785 114.233 116.054 113.692C117.494 113.348 116.883 111.128 115.443 111.472C112.837 112.098 110.519 113.552 108.868 115.673C107.969 116.825 109.585 118.468 110.498 117.302H110.491Z" fill="black"/>
<path d="M147.529 121.714C148.358 121.236 149.243 120.969 150.205 120.934C152.418 120.864 152.432 117.408 150.205 117.485C148.639 117.534 147.149 117.949 145.787 118.735C143.862 119.845 145.597 122.83 147.529 121.714Z" fill="black"/>
<path d="M317.366 201.164C324.586 168.066 320.955 133.268 307.096 102.362C306.492 101.014 304.511 102.18 305.108 103.521C318.7 133.83 322.226 168.101 315.146 200.553C314.83 201.992 317.049 202.611 317.366 201.164Z" fill="black"/>
<path d="M242.151 170.475C253.404 159.18 271.33 157.761 285.118 165.109C299.103 172.568 309.597 186.841 315.87 201.093C316.467 202.442 318.447 201.276 317.857 199.934C311.079 184.544 299.173 168.691 283.397 161.723C269.166 155.436 251.676 157.649 240.522 168.845C239.475 169.899 241.105 171.522 242.151 170.475Z" fill="black"/>
<path d="M240.318 169.056C228.391 183.182 221.647 200.419 216.78 218.057C211.547 237.001 206.658 256.029 201.27 274.931C200.863 276.357 203.083 276.968 203.49 275.542C208.66 257.406 213.471 239.178 218.374 220.965C223.277 202.751 229.753 185.12 241.947 170.679C242.895 169.555 241.28 167.918 240.318 169.049V169.056Z" fill="black"/>
<path d="M201.425 274.474C194.471 298.237 189.709 322.526 185.312 346.872C185.052 348.319 187.264 348.944 187.531 347.483C191.928 323.144 196.691 298.848 203.645 275.085C204.059 273.66 201.839 273.055 201.425 274.474Z" fill="black"/>
<path d="M74.7585 192.362C82.0496 176.72 96.1821 149.585 117.809 157.846C127.756 161.646 133.923 169.105 138.868 178.195C144.15 187.902 148.055 198.284 150.732 208.995C151.09 210.428 153.309 209.824 152.951 208.384C149.987 196.514 145.506 185.008 139.381 174.402C134.295 165.586 127.292 158.647 117.465 155.282C95.0793 147.626 81.0016 170.926 72.7637 191.203C72.1385 192.538 74.1264 193.704 74.7515 192.362H74.7585Z" fill="black"/>
<path d="M150.753 208.061C163.544 254.175 174.488 300.787 183.549 347.778C183.83 349.232 186.049 348.614 185.768 347.167C176.707 300.176 165.764 253.563 152.973 207.45C152.579 206.024 150.36 206.628 150.753 208.061Z" fill="black"/>
<path d="M187.005 346.5C213.682 327.19 235.647 301.925 250.987 272.782C251.676 271.475 249.695 270.309 249 271.623C233.849 300.407 212.193 325.441 185.839 344.519C184.651 345.376 185.796 347.378 186.998 346.507L187.005 346.5Z" fill="black"/>
<path d="M250.734 273.287C258.692 257.279 264.832 240.267 273.731 224.737C281.275 211.559 297.789 191.625 314.569 203.917C315.764 204.795 316.915 202.8 315.728 201.929C309.372 197.272 301.027 197.026 293.933 200.131C286.157 203.531 280.657 210.246 275.902 217.038C264.213 233.756 257.772 253.95 248.746 272.121C248.086 273.442 250.074 274.608 250.734 273.28V273.287Z" fill="black"/>
<path d="M185.354 64.7619C185.937 73.816 188.269 82.6805 192.111 90.8917C195.925 99.0467 201.235 106.527 207.705 112.793C211.364 116.34 215.41 119.501 219.744 122.184C220.798 122.837 221.76 121.18 220.713 120.526C205.787 111.276 194.696 96.2792 189.842 79.4353C188.466 74.6519 187.595 69.728 187.271 64.7619C187.194 63.5397 185.277 63.5256 185.354 64.7619Z" fill="black"/>
<path d="M219.421 120.021L225.047 115.525C225.44 115.209 225.398 114.493 225.047 114.17C224.633 113.783 224.113 113.833 223.691 114.17L218.065 118.665C217.672 118.981 217.714 119.698 218.065 120.021C218.48 120.407 218.999 120.358 219.421 120.021Z" fill="black"/>
<path d="M277.789 132.032L157.401 190.836C157.864 191.762 158.883 194.448 159.253 197.782C159.624 201.116 160.643 205.653 161.106 207.505L224.077 178.335C226.856 172.778 235.283 160.091 246.766 153.794C258.249 147.497 273.467 152.096 279.641 155.183L294.458 148.238C293.069 146.54 289.735 142.496 287.512 139.903C285.29 137.31 279.486 133.575 277.789 132.032Z" fill="#F4F4F4"/>
<path d="M199.537 258.901L173.145 271.403L179.164 304.278L192.129 297.796L199.537 258.901Z" fill="#D9D9D9"/>
</svg>
