<svg width="400" height="400" viewBox="0 0 400 400" fill="none" xmlns="http://www.w3.org/2000/svg">
<path d="M283.229 223.537C306.623 140.359 288.12 62.3922 241.902 49.3934C195.683 36.3945 139.252 93.2858 115.858 176.464C92.4644 259.641 110.967 337.608 157.185 350.607C203.404 363.606 259.835 306.714 283.229 223.537Z" fill="#3F3F3F" stroke="black" stroke-width="9.97246" stroke-miterlimit="10"/>
<path d="M287.515 225.617C309.046 149.376 294.844 78.631 255.795 67.6032C216.745 56.5754 167.635 109.441 146.104 185.682C124.573 261.923 138.775 332.668 177.824 343.696C216.874 354.724 265.984 301.858 287.515 225.617Z" fill="#132322"/>
<path d="M284.778 224.263C303.915 156.499 291.289 93.6187 256.577 83.816C221.866 74.0132 178.213 121 159.076 188.764C139.939 256.529 152.565 319.409 187.276 329.212C221.988 339.015 265.64 292.028 284.778 224.263Z" fill="#3F3F3F"/>
<path d="M277.772 225.041C290.114 181.339 281.972 140.786 259.585 134.464C237.199 128.142 209.046 158.445 196.705 202.147C184.363 245.85 192.505 286.403 214.892 292.725C237.278 299.047 265.43 268.744 277.772 225.041Z" fill="#132322"/>
<path d="M277.27 222.647C288.241 183.801 281.004 147.755 261.106 142.135C241.208 136.516 216.184 163.452 205.214 202.298C194.243 241.144 201.48 277.191 221.378 282.81C241.276 288.429 266.3 261.493 277.27 222.647Z" fill="#3F3F3F"/>
<g style="mix-blend-mode:multiply" opacity="0.3">
<path d="M252.701 296.624C225.563 337.027 190.177 359.296 159.38 350.573C113.047 337.487 94.5703 259.281 118.119 175.9C129.589 135.389 148.838 101.088 170.944 78.0461C194.305 53.6937 220.881 41.9116 244.648 48.6376C244.648 48.6376 163.664 116.99 170.366 240.203C175.352 331.901 252.701 296.624 252.701 296.624Z" fill="#232323"/>
</g>
<path d="M247.559 82.7437L250.063 138.923" stroke="#132322" stroke-miterlimit="10"/>
<path d="M214.756 93.1836L232.538 148.021" stroke="#132322" stroke-miterlimit="10"/>
<path d="M187.337 124.309L217.346 163.58" stroke="#132322" stroke-miterlimit="10"/>
<path d="M164.733 167.286L205.479 188.572" stroke="#132322" stroke-miterlimit="10"/>
<path d="M152.132 221.39L197.45 214.977" stroke="#132322" stroke-miterlimit="10"/>
<path d="M151.023 268.441L194.523 243.145" stroke="#132322" stroke-miterlimit="10"/>
<path d="M164.358 311.427C164.678 310.482 201.031 267.552 201.031 267.552" stroke="#132322" stroke-miterlimit="10"/>
<path d="M191.043 330.325L212.181 286.973" stroke="#132322" stroke-miterlimit="10"/>
<path d="M221.052 323.653L227.802 289.11" stroke="#132322" stroke-miterlimit="10"/>
<path d="M244.118 280.878L240.318 308.094" stroke="#132322" stroke-miterlimit="10"/>
<path d="M257.398 265.663L261.479 287.004" stroke="#132322" stroke-miterlimit="10"/>
<path d="M267.768 247.975L275.805 253.039" stroke="#132322" stroke-miterlimit="10"/>
<path d="M276.273 227.547L285.371 231.316" stroke="#132322" stroke-miterlimit="10"/>
<path d="M281.197 203.483L293.057 197.803" stroke="#132322" stroke-miterlimit="10"/>
<path d="M282.016 180.777L296.615 169.362" stroke="#132322" stroke-miterlimit="10"/>
<path d="M267.245 140.601L283.521 103.405" stroke="#132322" stroke-miterlimit="10"/>
<path d="M278.481 156.487L295.14 139.048" stroke="#132322" stroke-miterlimit="10"/>
</svg>
