<svg width="400" height="400" viewBox="0 0 400 400" fill="none" xmlns="http://www.w3.org/2000/svg">
<path d="M283.685 223.537C307.079 140.359 288.576 62.3922 242.358 49.3934C196.14 36.3945 139.708 93.2858 116.315 176.464C92.9209 259.641 111.424 337.608 157.642 350.607C203.86 363.606 260.292 306.714 283.685 223.537Z" fill="#FFCA1B" stroke="black" stroke-width="9.97246" stroke-miterlimit="10"/>
<path d="M284.971 225.618C306.502 149.377 292.301 78.6315 253.251 67.6037C214.202 56.5759 165.092 109.442 143.561 185.683C122.03 261.923 136.231 332.669 175.281 343.697C214.33 354.724 263.44 301.859 284.971 225.618Z" fill="#965B00"/>
<path d="M282.234 224.264C301.371 156.5 288.745 93.6197 254.034 83.817C219.322 74.0142 175.669 121.001 156.532 188.765C137.395 256.53 150.021 319.41 184.733 329.213C219.444 339.016 263.097 292.029 282.234 224.264Z" fill="#FFCA1B"/>
<path d="M275.229 225.042C287.57 181.339 279.428 140.787 257.042 134.464C234.655 128.142 206.503 158.445 194.161 202.148C181.819 245.85 189.962 286.403 212.348 292.725C234.734 299.047 262.887 268.744 275.229 225.042Z" fill="#965B00"/>
<path d="M274.417 223.743C285.217 185.501 278.093 150.016 258.504 144.484C238.916 138.952 214.282 165.469 203.482 203.71C192.683 241.952 199.807 277.437 219.395 282.969C238.984 288.501 263.618 261.984 274.417 223.743Z" fill="#FFDD55"/>
<g style="mix-blend-mode:multiply" opacity="0.3">
<path d="M250.157 296.625C223.019 337.028 187.634 359.297 156.836 350.574C110.504 337.488 92.0266 259.281 115.575 175.901C127.045 135.389 146.295 101.089 168.4 78.0471C191.761 53.6947 218.337 41.9126 242.105 48.6385C242.105 48.6385 161.12 116.991 167.823 240.204C172.808 331.902 250.157 296.625 250.157 296.625Z" fill="#232323"/>
</g>
<path d="M245.015 82.7441L247.52 138.924" stroke="#965B00" stroke-miterlimit="10"/>
<path d="M212.212 93.1841L229.995 148.022" stroke="#965B00" stroke-miterlimit="10"/>
<path d="M184.794 124.31L214.803 163.581" stroke="#965B00" stroke-miterlimit="10"/>
<path d="M162.189 167.287L202.935 188.573" stroke="#965B00" stroke-miterlimit="10"/>
<path d="M149.588 221.391L194.906 214.978" stroke="#965B00" stroke-miterlimit="10"/>
<path d="M148.479 268.442L191.98 243.146" stroke="#965B00" stroke-miterlimit="10"/>
<path d="M161.815 311.427C162.135 310.483 198.488 267.552 198.488 267.552" stroke="#965B00" stroke-miterlimit="10"/>
<path d="M188.5 330.325L209.638 286.973" stroke="#965B00" stroke-miterlimit="10"/>
<path d="M218.509 323.654L225.259 289.111" stroke="#965B00" stroke-miterlimit="10"/>
<path d="M241.574 280.879L237.774 308.095" stroke="#965B00" stroke-miterlimit="10"/>
<path d="M254.854 265.664L258.935 287.005" stroke="#965B00" stroke-miterlimit="10"/>
<path d="M265.225 247.975L273.261 253.039" stroke="#965B00" stroke-miterlimit="10"/>
<path d="M273.73 227.548L282.828 231.317" stroke="#965B00" stroke-miterlimit="10"/>
<path d="M278.653 203.484L290.513 197.804" stroke="#965B00" stroke-miterlimit="10"/>
<path d="M279.472 180.778L294.071 169.362" stroke="#965B00" stroke-miterlimit="10"/>
<path d="M264.702 140.601L280.978 103.406" stroke="#965B00" stroke-miterlimit="10"/>
<path d="M275.938 156.488L292.596 139.049" stroke="#965B00" stroke-miterlimit="10"/>
</svg>
