<svg width="400" height="400" viewBox="0 0 400 400" fill="none" xmlns="http://www.w3.org/2000/svg">
<path d="M361.867 358.01C361.867 358.01 374.337 347.34 378.307 340.1L359.107 315.65L366.557 312.86L362.627 292.9L320.367 279.82L208.227 174.2L189.547 170.73L158.327 129.87C158.327 129.87 160.287 117.64 146.837 113.12L135.907 97.87C135.907 97.87 132.047 75.66 108.957 85.21L98.1371 84.94L87.6871 73.43C87.6871 73.43 88.6071 55.97 75.6371 47.49C62.6671 39.01 43.4471 39.19 29.6271 56.2C18.7971 69.53 20.5271 85.34 26.0971 92.54C30.1071 97.73 41.5471 109.76 59.5971 106.28L95.1371 120.96C95.1371 120.96 96.3171 133.9 110.667 134.96L158.527 194.75C158.527 194.75 249.747 246.51 300.357 295.54L312.707 320.19L327.337 317.73L361.867 358.01Z" fill="#6D491D"/>
<mask id="mask0_5624_6716" style="mask-type:luminance" maskUnits="userSpaceOnUse" x="21" y="41" width="358" height="318">
<path d="M361.867 358.01C361.867 358.01 374.337 347.34 378.307 340.1L359.107 315.65L366.557 312.86L362.627 292.9L320.367 279.82L208.227 174.2L189.547 170.73L158.327 129.87C158.327 129.87 160.287 117.64 146.837 113.12L135.907 97.87C135.907 97.87 132.047 75.66 108.957 85.21L98.1371 84.94L87.6871 73.43C87.6871 73.43 88.6071 55.97 75.6371 47.49C62.6671 39.01 43.4471 39.19 29.6271 56.2C18.7971 69.53 20.5271 85.34 26.0971 92.54C30.1071 97.73 41.5471 109.76 59.5971 106.28L95.1371 120.96C95.1371 120.96 96.3171 133.9 110.667 134.96L158.527 194.75C158.527 194.75 249.747 246.51 300.357 295.54L312.707 320.19L327.337 317.73L361.867 358.01Z" fill="white"/>
</mask>
<g mask="url(#mask0_5624_6716)">
<path d="M29.367 59.3C27.447 62.39 19.077 82.57 38.307 94.64C52.807 103.74 67.567 94.85 67.567 94.85L85.077 106.51L96.457 94.07L82.847 81.21C82.847 81.21 88.477 70.77 85.107 59.98C80.617 45.63 48.737 28.19 29.357 59.3H29.367Z" fill="#95774A" stroke="#472A07" stroke-width="1.57" stroke-miterlimit="10"/>
<path d="M43.0371 71.88C39.3771 73.86 35.0571 77.56 37.3471 83.24C39.6471 88.92 47.8571 87.98 52.0771 84.88C56.8271 81.38 58.6371 76.64 55.6071 72.41C53.3271 69.23 46.1571 70.19 43.0371 71.88Z" fill="#513210"/>
<path d="M59.7869 55.65C62.2869 52.32 66.5869 48.59 71.8569 51.7C77.1369 54.81 75.0069 62.79 71.3069 66.51C67.1469 70.69 62.1969 71.78 58.4569 68.16C55.6469 65.44 57.6569 58.48 59.7869 55.65Z" fill="#513210"/>
<path d="M65.2071 76.49L74.0271 77.97C74.2671 78.01 74.3671 78.31 74.1971 78.49L67.5471 85.53C67.3271 85.76 66.9471 85.66 66.8671 85.36L64.5771 77.18C64.4671 76.79 64.7971 76.42 65.1971 76.49H65.2071Z" fill="#513210"/>
<path d="M87.2969 103.96L71.8569 91.7L87.7669 103.34L87.2969 103.96Z" fill="#513210"/>
<path d="M90.4367 100.61L76.3867 88.35L90.9467 100.01L90.4367 100.61Z" fill="#513210"/>
<path d="M93.7069 96.85L78.8369 84.16L94.2069 96.24L93.7069 96.85Z" fill="#513210"/>
<path d="M128.347 85.68C126.037 83.91 118.537 81.11 113.277 85.21C108.007 89.3 109.287 96.75 110.987 98.84C114.857 103.6 118.707 103.14 124.627 103.51L132.287 111.43L140.277 106.84L135.397 98.67C135.397 98.67 135.177 90.91 128.357 85.69L128.347 85.68Z" fill="#95774A" stroke="#472A07" stroke-width="1.57" stroke-miterlimit="10"/>
<path d="M133.727 110.49L128.307 103.24L134.337 110L133.727 110.49Z" fill="#513210"/>
<path d="M135.927 109.31L130.537 101.95L136.547 108.82L135.927 109.31Z" fill="#513210"/>
<path d="M138.177 108.07L132.897 100.57L138.797 107.59L138.177 108.07Z" fill="#513210"/>
<path d="M106.237 115.06C98.7069 119.11 97.2569 126.23 101.437 130.84C105.387 135.18 111.157 134.33 111.157 134.33L117.137 142.98L126.367 138.23L122.307 129.81C122.307 129.81 127.517 125.07 123.047 118.68C119.107 113.04 111.147 112.42 106.227 115.07L106.237 115.06Z" fill="#95774A" stroke="#472A07" stroke-width="1.57" stroke-miterlimit="10"/>
<path d="M118.627 142.29L114.407 134.41L119.307 141.89L118.627 142.29Z" fill="#513210"/>
<path d="M121.827 140.58L118.157 133.13L122.517 140.2L121.827 140.58Z" fill="#513210"/>
<path d="M124.217 139.33L120.587 131.55L124.917 138.96L124.217 139.33Z" fill="#513210"/>
<path d="M141.877 114.99C132.597 119.77 133.937 128.24 135.117 130.93C136.297 133.62 140.197 136.35 145.147 135.85L155.037 145.87L161.507 141.49L156.487 130.04C156.487 130.04 162.597 125.87 154.397 116.4C150.947 112.42 146.727 112.49 141.887 114.98L141.877 114.99Z" fill="#95774A" stroke="#472A07" stroke-width="1.57" stroke-miterlimit="10"/>
<path d="M155.817 145.32L148.937 135.76L156.437 144.84L155.817 145.32Z" fill="#513210"/>
<path d="M158.147 143.65L152.287 134.05L158.807 143.22L158.147 143.65Z" fill="#513210"/>
<path d="M160.027 142.33L154.667 131.97L160.707 141.95L160.027 142.33Z" fill="#513210"/>
<path d="M116.477 108.59C111.237 108.34 106.097 107.47 100.967 106.48L100.937 105.54C100.847 102.76 100.807 99.98 100.877 97.19L101.027 97.71C99.237 94.4 97.557 91.04 96.187 87.52C98.677 90.46 100.877 93.61 102.957 96.84C103.157 99.73 103.227 102.62 103.237 105.51L102.327 104.4C107.117 105.54 111.867 106.79 116.477 108.6V108.59Z" fill="#3F260B"/>
<path d="M102.557 106.59L93.5469 109.84L92.9669 110.04L92.8369 109.52L90.8369 101.97L93.8369 109.18L93.1169 108.87L101.617 104.44L102.557 106.59Z" fill="#3F260B"/>
<path d="M135.627 151.3C133.337 151.55 131.057 151.48 128.767 151.35C127.937 149.94 127.157 148.47 126.437 147C127.967 145.37 129.547 143.78 131.217 142.29L130.907 143.12C130.887 140.47 130.947 137.84 131.397 135.2C132.267 137.88 132.717 140.62 133.097 143.39C131.677 145 130.187 146.54 128.637 148.02L128.867 146.72C129.347 147.81 129.787 148.91 130.207 150.03L129.477 149.49C131.567 149.97 133.637 150.5 135.637 151.31L135.627 151.3Z" fill="#3F260B"/>
<path d="M127.717 134.79L129.737 137.26L129.487 137L132.157 137.84L131.027 139.9L128.877 138.1L128.647 137.9L128.627 137.85L127.717 134.79Z" fill="#3F260B"/>
<path d="M200.917 196.37C197.357 192.74 193.867 188.44 190.727 184.43L191.147 184.78L187.657 183.18C184.037 181.48 180.447 179.7 176.937 177.77C176.407 174.42 175.967 171.06 175.757 167.67C176.327 169.21 176.817 170.77 177.297 172.32C177.757 173.88 178.217 175.44 178.627 177.02L178.137 176.4C182.907 178.33 187.757 180.62 192.377 182.9C195.327 187.16 198.457 191.82 200.907 196.38L200.917 196.37Z" fill="#3F260B"/>
<path d="M156.327 156.46L166.727 169.54L166.407 169.29L177.407 172.89L176.587 175.1L165.917 170.59L165.697 170.5L165.597 170.35L156.327 156.46Z" fill="#3F260B"/>
<path d="M205.847 224.75L204.237 211.71L204.387 212L197.327 204.6L205.097 211.25L205.207 211.35L205.247 211.54L208.157 224.34L205.847 224.75Z" fill="#3F260B"/>
<path d="M227.467 193.8L221.297 193.32L221.107 193.31L221.027 193.27L209.787 188.18L221.587 191.81L221.317 191.76L227.497 191.45L227.467 193.8Z" fill="#3F260B"/>
<path d="M222.947 202.29L220.147 192.74L222.467 192.35L222.947 202.29Z" fill="#3F260B"/>
<path d="M272.297 253.45C268.957 251.08 265.957 248.29 262.937 245.53L263.407 245.78C255.727 244.73 248.087 243.39 240.507 241.8C240.177 240.3 239.867 238.79 239.587 237.29L239.717 237.59C237.497 234.01 235.347 230.4 233.387 226.66C236.167 229.89 238.757 233.26 241.287 236.67C241.677 238 242.037 239.34 242.387 240.68L241.557 239.89C249.097 241.04 256.587 242.43 264.017 244.1C266.797 247.1 269.547 250.39 272.277 253.45H272.297Z" fill="#3F260B"/>
<path d="M351.917 328.93C348.667 323.61 345.617 318.17 342.637 312.7C342.577 309.1 342.617 305.51 342.617 301.91L343.107 302.86C339.837 300.67 333.317 296.18 330.087 293.92L330.957 294.1C327.937 294.69 323.867 295.41 320.807 295.96C319.137 292.33 316.827 287.43 315.267 283.8C314.057 282.16 312.177 279.47 310.807 277.44C312.617 279.39 314.437 281.33 316.157 283.35C317.957 286.51 320.497 291.18 322.237 294.44L321.177 293.92C324.127 293.28 328.047 292.36 330.967 291.78C334.687 294.29 341.217 298.78 344.887 301.36C344.737 305.07 344.647 308.77 344.447 312.48L344.347 312.05C346.987 317.63 349.557 323.23 351.917 328.93Z" fill="#3F260B"/>
<path d="M352.017 302.06L343.717 303.11L343.757 300.75L352.017 302.06Z" fill="#3F260B"/>
<path d="M346.217 317.31L340.847 320.49L340.937 320.37L339.717 322.29L340.367 320.11C340.367 320.11 340.447 320.01 340.457 319.99L344.747 315.46L346.217 317.3V317.31Z" fill="#3F260B"/>
<path d="M168.547 154.64C169.757 154.72 170.247 156.4 170.257 157.01C170.267 157.62 170.367 159.76 168.807 159.99C167.237 160.23 166.917 157.73 166.977 156.84C167.037 155.95 167.657 154.58 168.547 154.64Z" fill="#00E1FF"/>
<path d="M160.967 183.08C161.777 182.81 162.207 180.35 161.657 178.86C161.097 177.37 159.727 176.14 158.587 176.48C157.447 176.82 157.087 179 157.567 180.17C158.047 181.34 158.837 183.79 160.967 183.08Z" fill="#00E1FF"/>
<path d="M152.377 173.97C154.197 173.68 155.267 171.32 154.007 168.31C152.747 165.3 150.917 164.11 149.167 164.46C147.427 164.81 147.087 168.81 148.047 170.54C148.997 172.27 149.707 174.41 152.377 173.97Z" fill="#00E1FF"/>
<path d="M162.647 174.14C163.587 173.84 163.697 172.57 163.117 171.34C162.787 170.64 162.237 169.94 161.187 170.27C160.567 170.46 160.187 171.71 160.567 172.56C161.067 173.67 161.827 174.4 162.647 174.14Z" fill="#00E1FF"/>
<path d="M228.407 214.45C230.747 214.72 231.237 217.83 231.087 219.76C230.937 221.69 230.877 225.15 227.987 225.23C225.097 225.31 224.607 220.96 224.757 219.03C224.907 217.1 225.897 214.16 228.397 214.44L228.407 214.45Z" fill="#00E1FF"/>
<path d="M236.077 212.02C237.077 212.07 237.307 213.55 237.237 214.33C237.167 215.11 237.087 216.9 235.747 216.81C234.407 216.72 234.377 214.9 234.477 214.02C234.567 213.14 234.847 211.95 236.077 212.02Z" fill="#00E1FF"/>
<path d="M241.337 220.05C242.697 219.59 244.227 221.76 244.787 223.24C245.487 225.1 245.287 227.89 243.017 228.38C240.747 228.87 239.627 225.43 239.427 224.36C239.227 223.29 239.377 220.72 241.347 220.05H241.337Z" fill="#00E1FF"/>
<path d="M117.607 92.45C115.857 92.91 113.747 93.99 114.597 96.38C115.447 98.77 119.237 99.1 121.277 98.24C123.577 97.28 124.577 95.59 123.337 93.7C122.407 92.28 119.087 92.05 117.597 92.45H117.607Z" fill="#513210"/>
<path d="M125.217 88.75C126.247 87.56 127.947 86.28 129.727 87.71C131.507 89.14 130.417 92.16 128.937 93.45C127.267 94.91 125.437 95.13 124.237 93.56C123.337 92.38 124.337 89.76 125.217 88.74V88.75Z" fill="#513210"/>
<path d="M127.307 96.51L130.937 98.17C131.037 98.22 131.047 98.36 130.947 98.41L127.267 100.67C127.147 100.74 126.997 100.66 126.997 100.52L126.957 96.73C126.957 96.55 127.137 96.43 127.307 96.5V96.51Z" fill="#5E3D16"/>
<path d="M149.627 128.49L153.447 130.1C153.547 130.14 153.577 130.27 153.487 130.34L149.627 132.58C149.517 132.66 149.357 132.6 149.337 132.46L149.297 128.75C149.277 128.57 149.447 128.43 149.617 128.49H149.627Z" fill="#513210"/>
<path d="M141.947 124.78C140.057 125.5 138.177 127.35 139.217 129.5C139.997 131.11 143.087 131.13 144.197 130.58C145.747 129.82 147.507 128.51 146.817 126.43C146.127 124.35 143.457 124.21 141.947 124.79V124.78Z" fill="#513210"/>
<path d="M149.567 120.44C151.127 119.15 153.717 118.98 154.877 120.76C155.857 122.26 154.527 124.57 153.497 125.27C152.067 126.24 150.057 127.12 148.587 125.49C147.117 123.86 148.317 121.47 149.567 120.44Z" fill="#513210"/>
<path d="M115.247 127.24L118.887 129.37C118.987 129.42 118.987 129.56 118.887 129.61L115.017 131.55C114.897 131.62 114.747 131.53 114.747 131.39L114.887 127.45C114.887 127.27 115.087 127.16 115.247 127.24Z" fill="#513210"/>
<path d="M106.617 122.83C104.517 123.57 102.397 125.58 103.427 128.01C104.207 129.84 107.567 129.96 108.817 129.38C110.537 128.58 112.517 127.17 111.857 124.83C111.197 122.48 108.297 122.24 106.617 122.83Z" fill="#513210"/>
<path d="M116.717 118.61C114.967 119.52 113.257 121.2 114.007 123.13C114.937 125.5 117.647 125.41 119.337 124.27C121.097 123.09 122.127 121.03 121.057 119.29C120.177 117.88 118.297 117.78 116.717 118.6V118.61Z" fill="#513210"/>
<g style="mix-blend-mode:multiply">
<path d="M58.1069 38.54C58.1069 38.54 75.4469 48.35 79.3069 62.85C83.1569 77.35 82.2869 81.08 82.2869 81.08L100.727 92.66L110.077 87.6L108.187 66L61.8769 13.44L58.1069 38.55V38.54Z" fill="#917D66"/>
</g>
<g style="mix-blend-mode:multiply">
<path d="M128.047 86.97C128.047 86.97 131.637 93.55 130.447 99.92L187.977 178.08L208.347 185.27L311.377 280.74L326.277 284.23L326.537 234.13L144.477 68.46L128.047 86.97Z" fill="#917D66"/>
</g>
<g style="mix-blend-mode:multiply">
<path d="M362.417 286.06C362.417 286.06 360.157 307.29 359.387 308.01C358.617 308.74 351.067 315.13 351.067 315.13L371.357 340.74L352.857 359.07C352.857 359.07 371.387 371.57 373.137 369.26C374.887 366.95 385.597 323.83 385.597 323.83L378.437 278.33L362.417 286.06Z" fill="#917D66"/>
</g>
<path d="M65.4369 44.64C65.4369 44.64 45.8269 42.07 32.2969 59.69C24.0369 70.45 25.2469 82.53 27.4969 87.88C30.6069 95.26 44.0569 104.91 46.2269 107.23C48.4069 109.55 13.7769 106.42 13.7769 106.42L15.3469 24.29C15.3469 24.29 62.5369 29.91 64.2469 30.31C65.9569 30.71 65.4169 44.64 65.4169 44.64H65.4369Z" fill="white"/>
<path d="M110.877 89.29C110.877 89.29 119.637 82.88 131.817 86.34C146.577 90.53 131.447 71.14 131.447 71.14L104.627 66.97L110.877 89.29Z" fill="white"/>
<path d="M95.1467 120.96L99.2167 121.01C99.2167 121.01 99.3067 127.07 106.047 134.4C110.477 139.21 100.747 142.83 100.747 142.83L85.5967 122.36L95.1367 120.97L95.1467 120.96Z" fill="white"/>
<path d="M110.667 134.96L114.977 134.98L166.177 200.17L139.677 203.63L110.667 134.96Z" fill="white"/>
<path d="M301.307 294.1L319.827 320.8L304.587 327.81L301.307 294.1Z" fill="white"/>
<path d="M46.5571 54.27C45.5671 54.64 43.8971 57.88 46.3071 56.63C48.7171 55.38 50.7371 51.93 48.9471 51.81C47.1571 51.69 46.5571 54.27 46.5571 54.27Z" fill="#7C5D35"/>
<path d="M51.8867 61.86C52.1667 62.61 54.2867 61.29 54.3267 60.16C54.3667 59.04 51.8867 61.86 51.8867 61.86Z" fill="#7C5D35"/>
<path d="M51.2766 93.45C49.7866 94.01 50.6766 96.03 52.1166 95.69C53.5566 95.35 54.5366 93.09 53.4666 92.83C52.3966 92.57 51.2766 93.45 51.2766 93.45Z" fill="#7C5D35"/>
<path d="M115.827 89.77C114.867 90 113.287 91.89 114.777 91.34C116.267 90.78 115.827 89.77 115.827 89.77Z" fill="#7C5D35"/>
<path d="M92.0268 112.98C90.0968 112.53 88.8268 114.04 91.3568 114.86C93.8868 115.68 95.9468 113.67 93.5668 112.2C91.1868 110.74 92.0268 112.97 92.0268 112.97V112.98Z" fill="#543614"/>
<path d="M129.157 115.11C128.577 115.65 128.347 118.55 129.517 117.46C130.677 116.37 129.157 115.11 129.157 115.11Z" fill="#543614"/>
<path d="M185.437 196.98C184.367 196.73 184.887 199.34 185.637 199.97C186.397 200.6 185.437 196.98 185.437 196.98Z" fill="#543614"/>
<path d="M211.377 195.58C209.967 192.86 205.927 196.57 209.317 197.59C212.707 198.61 212.307 197.39 211.377 195.58Z" fill="#543614"/>
<path d="M283.637 268.27C286.847 271.97 288.017 274.74 285.097 272.69C282.177 270.65 280.497 269.12 279.037 268.55C277.587 267.98 283.637 268.27 283.637 268.27Z" fill="#543614"/>
<path d="M304.227 278.09C302.347 277.42 301.027 279.15 301.887 279.36C302.747 279.57 304.227 278.09 304.227 278.09Z" fill="#543614"/>
<path d="M287.347 265.97C287.047 267.26 287.337 268.91 288.017 267.94C288.697 266.97 287.347 265.97 287.347 265.97Z" fill="#543614"/>
<path d="M317.887 281.36L365.947 300.03L368.017 273.78L317.887 281.36Z" fill="white"/>
</g>
<path d="M361.867 358.01C361.867 358.01 374.337 347.34 378.307 340.1L359.107 315.65L366.557 312.86L362.627 292.9L320.367 279.82L208.227 174.2L189.547 170.73L158.327 129.87C158.327 129.87 160.287 117.64 146.837 113.12L135.907 97.87C135.907 97.87 132.047 75.66 108.957 85.21L98.1371 84.94L87.6871 73.43C87.6871 73.43 88.6071 55.97 75.6371 47.49C62.6671 39.01 43.4471 39.19 29.6271 56.2C18.7971 69.53 20.5271 85.34 26.0971 92.54C30.1071 97.73 41.5471 109.76 59.5971 106.28L95.1371 120.96C95.1371 120.96 96.3171 133.9 110.667 134.96L158.527 194.75C158.527 194.75 249.747 246.51 300.357 295.54L312.707 320.19L327.337 317.73L361.867 358.01Z" stroke="black" stroke-width="3.13" stroke-miterlimit="10"/>
</svg>
