<svg width="400" height="400" viewBox="0 0 400 400" fill="none" xmlns="http://www.w3.org/2000/svg">
<path d="M309.811 272.267L75.2554 99.935C75.2554 99.935 75.2769 88.7103 72.7755 78.7404C70.2741 68.7705 66.5044 55.8474 66.5044 55.8474L351.923 268.838C351.923 268.838 333.046 268.167 323.92 268.571C314.794 268.975 309.803 272.265 309.803 272.265" fill="#2D440C"/>
<path d="M77.2763 124.275C77.2152 140.033 73.8581 170.084 78.5624 194.959C83.2667 219.834 100.836 247.735 124.156 267.074C147.477 286.413 179.627 298.278 217.137 296.049C254.645 293.829 311.618 270.637 311.618 270.637L75.5615 96.1697C75.5615 96.1697 77.3354 108.526 77.2743 124.283L77.2763 124.275ZM286.618 259.976C256.412 271.387 222.578 273.404 191.482 264.704C160.387 255.996 132.275 236.453 114.103 209.763C95.9302 183.074 88.0434 149.361 93.4529 117.528L93.9364 115.33C158.282 163.386 222.627 211.443 286.972 259.5L286.609 259.974L286.618 259.976Z" fill="#D0A40D"/>
<path d="M112.842 255.671L140.941 239.238C140.941 239.238 148.585 244.855 152.846 247.273C157.106 249.69 164.147 252.944 164.147 252.944L130.266 271.446C130.266 271.446 122.844 266.343 119.387 262.978C115.93 259.613 112.84 255.68 112.84 255.68" fill="#FFFF1B"/>
<path d="M146.611 280.406C146.611 280.406 141.712 278.86 137.451 276.442C133.19 274.025 131.848 272.781 131.848 272.781L165.729 254.279C165.729 254.279 170.138 257.036 173.156 257.971C176.175 258.898 182.294 260.935 182.294 260.935L146.611 280.406Z" fill="#FFFF1B"/>
<path d="M199.896 295.087L242.388 270.202L229.458 269.602L186.809 294.11L199.896 295.087Z" fill="#FFFF1B"/>
<path d="M286.811 280.239C286.811 280.239 236.133 297.785 203.242 296.115C170.348 294.453 139.91 285.243 113.695 258.005C87.4803 230.768 77.8044 201.087 76.2612 171.452C74.718 141.817 79.0552 131.044 77.578 118.687C76.0989 106.338 75.2656 99.9287 75.2656 99.9287C75.2656 99.9287 59.7109 166.874 62.4761 191.125C65.2413 215.376 73.3744 246.522 112.813 278.133C152.251 309.744 174.391 314.092 198.766 312.898C223.141 311.705 244.391 305.079 259.666 295.865C274.941 286.651 286.811 280.239 286.811 280.239Z" fill="#B6BAC3"/>
<path d="M62.706 192.05C63.1444 191.664 76.9492 184.768 76.9492 184.768L77.2128 187.279L62.7699 195.047L62.706 192.05Z" fill="#D7DBE6"/>
<path d="M63.1163 197.725L77.7331 189.884C77.7331 189.884 78.6727 194.932 79.5439 198.395C80.4152 201.858 80.8702 203.882 80.8702 203.882L65.5274 211.432C65.5274 211.432 63.7091 207.166 63.6628 203.755C63.6166 200.344 63.5741 198.346 63.5741 198.346L63.1144 197.734L63.1163 197.725Z" fill="#D7DBE6"/>
<path d="M90.0324 254.246L104.595 247.238L110.849 253.849L95.5964 261.159L90.0324 254.246Z" fill="#D7DBE6"/>
<path d="M95.761 263.909L112.816 255.63C112.816 255.63 116.679 260.441 120.622 264.005C124.564 267.57 130.23 271.412 130.23 271.412L115.639 278.84C115.639 278.84 110.719 276.296 105.417 271.902C100.114 267.508 95.7591 263.917 95.7591 263.917L95.761 263.909Z" fill="#D7DBE6"/>
<path d="M116.611 282.056L132.73 273.003C132.73 273.003 136.383 275.445 140.011 277.324C143.636 279.21 146.564 280.386 146.564 280.386L129.191 289.811C129.191 289.811 126.832 289.003 122.911 286.437C118.989 283.872 116.609 282.064 116.609 282.064L116.611 282.056Z" fill="#D7DBE6"/>
<path d="M163.337 306.943L187.484 294.023L197.939 295.819L173.18 309.199L163.337 306.943Z" fill="#D7DBE6"/>
<path d="M178.05 309.744L206.519 295.593C206.519 295.593 215.532 296.392 218.904 295.761C222.266 295.137 230.312 294.125 230.312 294.125L195.446 312.216C195.446 312.216 191.936 312.501 186.506 311.591C181.076 310.681 178.05 309.744 178.05 309.744Z" fill="#D7DBE6"/>
<path d="M91.4059 213.421C91.4059 213.421 88.1644 215.782 91.0357 219.456C93.9069 223.129 98.4048 222.193 98.4048 222.193C98.4048 222.193 93.4386 219.734 95.9738 215.718C98.509 211.702 106.562 207.615 106.204 206.79C105.846 205.966 95.0775 210.558 92.7944 208.259C90.9685 206.432 91.0337 201.826 91.0337 201.826C91.0337 201.826 85.1871 204.97 86.8358 208.839C88.4846 212.709 91.4059 213.421 91.4059 213.421Z" fill="#22D9F8"/>
<path d="M135.747 263.074C135.747 263.074 131.605 264.843 128.922 262.39C126.247 259.939 127.161 255.957 127.161 255.957C127.161 255.957 129.718 260.421 134.14 258.534C138.562 256.647 144.092 249.716 144.609 250.159C145.125 250.601 140.057 258.624 141.077 261.781C142.098 264.939 146.828 266.837 146.828 266.837C146.828 266.837 143.23 270.659 140.353 269.268C137.473 267.886 135.749 263.066 135.749 263.066L135.747 263.074Z" fill="#22D9F8"/>
<path d="M203.353 275.399C203.353 275.399 201.839 284.865 198.989 287.378C196.148 289.893 191.258 288.385 191.258 288.385C191.258 288.385 193.773 293.519 197.601 292.54C201.428 291.562 202.811 288.683 202.811 288.683C202.811 288.683 204.028 293.062 207.813 292.754C211.599 292.446 213.539 287.046 213.539 287.046C213.539 287.046 207.421 290.309 205.262 286.008C203.103 281.706 204.848 275.083 203.353 275.399Z" fill="#22D9F8"/>
<path d="M92.4483 134.611L92.8951 127.155L76.7253 134.662L76.6393 142.969" fill="#FFFF1B"/>
<path d="M199.159 295.709C199.159 295.709 194.822 295.95 191.944 295.353C189.073 294.766 187.531 294.007 187.531 294.007" fill="#FFFF1B"/>
<path d="M253.927 267.89C253.927 267.89 265.331 267.666 272.115 264.164C278.899 260.663 286.869 258.064 286.869 258.064L293.149 261.438L232.757 293.471C232.757 293.471 223.054 295.799 215.134 296.152C207.214 296.504 204.705 296.044 204.705 296.044L253.927 267.89Z" fill="#FFFF1B"/>
<path d="M318.4 268.8C319.232 268.444 319.879 257.722 318.936 257.799C317.994 257.877 300.468 262.734 300.468 262.734L300.738 244.984L284.606 249.248L283.575 230.752L264.089 234.814L264.359 217.064L246.409 222.432C246.409 222.432 245.583 202.868 244.632 202.944C243.682 203.02 227.389 209.967 227.389 209.967L226.283 190.52L208.257 194.938L206.801 174.67L186.874 179.24L187.226 160.158L168.444 165.882L168.993 148.023L151.747 152.761L151.115 134.427L135.212 141.534L134.852 123.08L119.578 128.607L118.905 110.935L102.016 116.506L102.488 97.6956L84.7267 104.284L87.4059 86.823L78.1721 90.4367C78.1721 90.4367 76.4392 87.9076 77.3898 87.8315C78.3403 87.7554 90.5755 81.2368 90.5755 81.2368L92.5042 82.6953C92.5042 82.6953 87.1081 100.669 87.9322 100.311C88.7563 99.9525 106.482 91.7511 106.482 91.7511L105.222 112.532L122.507 104.839C122.507 104.839 121.951 124.989 122.783 124.633C123.615 124.277 137.785 116.934 138.218 116.424C138.65 115.913 138.57 137.168 138.57 137.168L154.48 127.77L154.911 149.457L172.358 141.366L171.608 162.579L190.354 155.242L191.496 176.301L209.962 169.082L210.434 190.098L229.536 183.594L231.307 205.365L247.252 197.588L249.225 218.298L267.497 212.142L267.102 231.894L286.911 227.044L287.109 245.896L304.43 239.815L304.314 259.458L320.377 251.961L321.728 267.383L318.41 268.794L318.4 268.8Z" fill="#96CC30"/>
<path d="M313.66 269.087L76.3076 92.8379L76.4639 102.656L304.951 272.805L313.66 269.087Z" fill="#96CC30"/>
<path d="M341.956 268.733L71.7201 71.181L66.8433 58.3325L354.5 270.246L341.956 268.733Z" fill="#96CC30"/>
<path d="M77.8038 111.808C77.8038 111.808 82.6358 100.931 79.5885 86.8851C76.5412 72.8391 72.6556 63.7253 72.6556 63.7253L67.5015 60.0457C67.5015 60.0457 74.8445 74.2157 76.0432 90.0302C77.2337 105.843 77.814 111.801 77.814 111.801L77.8038 111.808Z" fill="white"/>
<path d="M71.8076 224.283C71.8076 224.283 67.4182 202.149 68.8695 179.53C70.3291 156.912 74.2173 147.586 75.1477 136.502C76.0699 125.417 75.343 111.403 75.343 111.403C75.343 111.403 63.1418 157.565 62.9521 178.428C62.7624 199.291 71.8057 224.292 71.8057 224.292L71.8076 224.283Z" fill="white"/>
<path d="M110.849 253.849L139.735 237.485C139.735 237.485 133.754 230.641 133.203 230.871C132.653 231.1 104.508 246.599 104.508 246.599L110.849 253.849Z" fill="#FFFF1B"/>
<path d="M81.3345 205.567L105.269 194.053C105.269 194.053 102.092 187.109 100.905 184.332C99.7178 181.554 99.3358 179.103 99.3358 179.103L77.7274 189.874C77.7274 189.874 78.9748 194.61 79.5382 198.385C80.1017 202.16 81.1524 205.638 81.3345 205.567Z" fill="#FFFF1B"/>
<path d="M77.2232 187.273L98.3138 176.704C98.3138 176.704 98.3963 173.828 97.8441 174.067C97.292 174.305 76.2839 185.006 76.2839 185.006L77.2213 187.281" fill="#FFFF1B"/>
<path d="M358.782 271.745C328.097 256.532 295.287 273.765 268.377 288.791C253.373 297.17 238.137 305.164 221.088 308.378C203.548 311.679 185.368 310.368 168.247 305.544C148.95 300.103 131.111 290.553 115.838 277.57C113.143 275.28 109.349 279.274 112.058 281.576C137.84 303.499 171.774 317.033 205.882 315.603C222.768 314.897 238.691 310.183 253.814 302.791C269.36 295.192 283.834 285.373 299.879 278.779C317.6 271.5 338.307 267.739 356.16 276.586C359.336 278.159 361.966 273.32 358.782 271.745Z" fill="black"/>
<path d="M116.131 277.96C90.8607 256.766 69.1831 230.641 65.3294 196.756C63.4093 179.842 65.449 162.694 68.5502 146.045C71.7812 128.686 77.4162 111.901 76.9898 94.0336C76.5894 77.5584 71.952 61.4959 60.4569 49.3277C58.2579 47.0044 54.8649 50.6207 57.0493 52.9319C68.3702 64.9115 72.204 81.2062 72.0502 97.3262C71.8863 115.371 65.713 132.597 62.7776 150.261C60.1087 166.286 58.4631 182.749 60.6119 198.941C62.6451 214.278 68.0525 228.749 76.2834 241.834C85.9355 257.176 98.9062 269.974 112.717 281.554C115.155 283.602 118.571 279.999 116.125 277.95L116.131 277.96Z" fill="black"/>
<path d="M360.306 270.816L127.159 98.3493L61.2276 49.5761C58.4063 47.4921 54.5973 51.4741 57.4478 53.5823L290.594 226.049L356.526 274.823C359.347 276.907 363.156 272.925 360.306 270.816Z" fill="black"/>
<path d="M92.2366 117.133L242.449 229.326L285.27 261.312L285.167 257.809C284.526 258.654 281.429 259.227 280.341 259.593C278.025 260.373 275.686 261.095 273.326 261.76C268.613 263.1 263.846 264.218 259.036 265.108C249.152 266.94 239.058 267.757 229.004 267.614C209.721 267.337 190.479 263.277 172.872 255.359C138.532 239.927 111.186 210.875 99.9485 174.729C94.1372 156.058 92.1275 135.129 96.3503 115.898C97.0366 112.788 92.2064 111.659 91.5183 114.778C83.4901 151.401 95.6543 191.973 119.105 220.566C144.698 251.766 183.221 270.252 223.35 272.371C235.081 272.99 246.855 272.223 258.428 270.215C263.941 269.262 269.414 268.028 274.8 266.496C277.861 265.627 280.892 264.665 283.892 263.608C285.563 263.019 287.647 262.682 288.773 261.208C289.512 260.237 289.83 258.567 288.67 257.705L138.458 145.512L95.6359 113.527C93.1022 111.632 89.68 115.224 92.2283 117.131L92.2366 117.133Z" fill="black"/>
<path d="M301.024 272.784C269.516 283.423 236.991 295.212 203.263 294.629C170.864 294.067 137.238 279.017 114.56 255.965C102.734 243.947 93.6283 229.595 86.5614 214.347C85.6651 212.421 82.875 214.19 83.7586 216.095C96.9961 244.666 117.36 267.696 145.418 282.318C160.664 290.264 177.272 295.762 194.429 297.42C211.05 299.024 227.871 296.908 244.112 293.34C263.819 289.007 282.931 282.383 302.012 275.934C304.025 275.259 303.05 272.094 301.034 272.778L301.024 272.784Z" fill="black"/>
<path d="M86.339 213.388C76.898 193.3 76.4064 170.675 77.487 148.902C78.5878 126.628 80.0073 104.559 75.6401 82.5171C75.2252 80.433 72.0737 81.4287 72.4841 83.4943C77.073 106.686 74.9004 129.897 73.9983 153.307C73.1814 174.356 74.4521 195.802 83.5445 215.138C84.449 217.065 87.2474 215.299 86.3473 213.39L86.339 213.388Z" fill="black"/>
</svg>
