<svg width="400" height="400" viewBox="0 0 400 400" fill="none" xmlns="http://www.w3.org/2000/svg">
<path d="M354.127 294.894C354.127 294.894 358.824 306.659 355.816 313.861C352.808 321.062 366.066 340.761 366.066 340.761L374.176 340.493C374.176 340.493 362.088 325.582 363.101 316.89C364.114 308.197 354.127 294.894 354.127 294.894Z" fill="#B23B00" stroke="black" stroke-width="4" stroke-linecap="round" stroke-linejoin="round"/>
<path d="M354.127 294.894C354.127 294.894 358.824 306.659 355.816 313.861C352.808 321.062 366.066 340.761 366.066 340.761L374.176 340.493C374.176 340.493 362.088 325.582 363.101 316.89C364.114 308.197 354.127 294.894 354.127 294.894Z" fill="#B23B00"/>
<path d="M353.901 297.724C353.901 297.724 353.77 310.391 348.252 315.909C342.733 321.428 347.489 344.674 347.489 344.674L355.067 347.464C355.067 347.464 349.553 329.104 353.777 321.403C358.001 313.701 353.901 297.724 353.901 297.724Z" fill="#B23B00" stroke="black" stroke-width="4" stroke-linecap="round" stroke-linejoin="round"/>
<path d="M353.901 297.724C353.901 297.724 353.77 310.391 348.252 315.909C342.733 321.428 347.489 344.674 347.489 344.674L355.067 347.464C355.067 347.464 349.553 329.104 353.777 321.403C358.001 313.701 353.901 297.724 353.901 297.724Z" fill="#B23B00"/>
<path d="M108.892 97.5213L369.273 291.309C369.273 291.309 367.303 297.072 364.836 299.931C362.59 302.551 357.152 304.568 357.152 304.568L97.9694 112.278L108.892 97.5213Z" fill="#FF7F00" stroke="black" stroke-width="8.71" stroke-miterlimit="10"/>
<path d="M112.901 100.821L369.275 291.308C369.275 291.308 367.306 297.071 364.839 299.931C362.593 302.55 357.155 304.568 357.155 304.568L101.979 115.578L112.901 100.821Z" fill="#FF7F00"/>
<path d="M116.929 125.834L137.568 119.639L150.827 128.408L128.799 134.72L116.929 125.834Z" fill="#B23B00"/>
<path d="M144.397 124.779L157.441 134.406L155.084 154.72L142.255 144.235L144.397 124.779Z" fill="#B23B00"/>
<path d="M169.978 142.557L155.965 154.95L169.965 164.36L183.122 153.567L169.978 142.557Z" fill="#B23B00"/>
<path d="M117.326 94.457L28.5916 48.4468L92.8742 124.498L123.594 117.555L117.326 94.457Z" fill="#848483" stroke="black" stroke-width="8.71" stroke-linecap="round" stroke-linejoin="round"/>
<path d="M117.326 94.457L28.5916 48.4468L92.8742 124.498L123.594 117.555L117.326 94.457Z" fill="#4C4C4C"/>
<path d="M117.495 94.2487L38.5513 53.3247L95.7388 120.979L123.067 114.804L117.495 94.2487Z" fill="#848483"/>
<path d="M115.51 114.862L63.7385 70.8877L120.14 105.394L123.124 115.507L115.51 114.862Z" fill="#4C4C4C"/>
<path d="M348.053 276.054L340.76 292.345L353.175 301.876L359.072 283.485L348.053 276.054Z" fill="#B23B00"/>
<path d="M343.274 272.651L333.01 264.845L318.415 276.315L331.164 285.904L343.274 272.651Z" fill="#B23B00"/>
<g style="mix-blend-mode:multiply" opacity="0.3">
<path d="M364.83 299.953C362.584 302.572 357.146 304.59 357.146 304.59L110.153 120.733L118.049 119.536" fill="black"/>
</g>
</svg>
