<svg width="400" height="400" viewBox="0 0 400 400" fill="none" xmlns="http://www.w3.org/2000/svg">
<path d="M347.109 296.938C347.109 296.938 351.807 308.704 348.798 315.905C345.79 323.106 359.048 342.805 359.048 342.805L367.159 342.538C367.159 342.538 355.071 327.627 356.084 318.934C357.097 310.242 347.109 296.938 347.109 296.938Z" fill="#B23B00" stroke="black" stroke-width="4" stroke-linecap="round" stroke-linejoin="round"/>
<path d="M347.109 296.938C347.109 296.938 351.807 308.704 348.798 315.905C345.79 323.106 359.048 342.805 359.048 342.805L367.159 342.538C367.159 342.538 355.071 327.627 356.084 318.934C357.097 310.242 347.109 296.938 347.109 296.938Z" fill="#E5CB9C"/>
<path d="M346.884 299.768C346.884 299.768 346.753 312.435 341.234 317.954C335.716 323.472 340.472 346.719 340.472 346.719L348.049 349.509C348.049 349.509 342.535 331.149 346.759 323.447C350.983 315.746 346.884 299.768 346.884 299.768Z" fill="#B23B00" stroke="black" stroke-width="4" stroke-linecap="round" stroke-linejoin="round"/>
<path d="M346.884 299.768C346.884 299.768 346.753 312.435 341.234 317.954C335.716 323.472 340.472 346.719 340.472 346.719L348.049 349.509C348.049 349.509 342.535 331.149 346.759 323.447C350.983 315.746 346.884 299.768 346.884 299.768Z" fill="#E5CB9C"/>
<path d="M101.874 99.5658L362.255 293.353C362.255 293.353 360.286 299.116 357.819 301.976C355.573 304.595 350.135 306.613 350.135 306.613L90.9521 114.323L101.874 99.5658Z" fill="#FF7F00" stroke="black" stroke-width="8.71" stroke-miterlimit="10"/>
<path d="M105.884 102.866L362.258 293.353C362.258 293.353 360.289 299.116 357.822 301.975C355.576 304.595 350.138 306.613 350.138 306.613L94.9618 117.623L105.884 102.866Z" fill="#EAA10F"/>
<path d="M120.011 136.443L109.471 128.194L131.793 121.545L142.721 130.251L120.011 136.443Z" fill="#E5CB9C" stroke="black"/>
<path d="M135.448 147.77L139.251 126.373L151.867 135.718L149.013 157.594L135.448 147.77Z" fill="#E5CB9C" stroke="black"/>
<path d="M177.624 155.477L162.388 167.857L149.206 157.97L164.878 144.859L177.624 155.477Z" fill="#E5CB9C" stroke="black"/>
<path d="M110.309 96.5014L21.5742 50.4912L85.8569 126.543L116.577 119.599L110.309 96.5014Z" fill="#848483" stroke="black" stroke-width="8.71" stroke-linecap="round" stroke-linejoin="round"/>
<path d="M110.309 96.5014L21.5742 50.4912L85.8569 126.543L116.577 119.599L110.309 96.5014Z" fill="#90531F"/>
<path d="M110.478 96.2931L31.5342 55.3691L88.7217 123.023L116.05 116.848L110.478 96.2931Z" fill="#FFCA1B"/>
<path d="M345.889 303.084L334.355 294.229L341.6 277.296L351.324 285.168L345.889 303.084Z" fill="#E5CB9C" stroke="black"/>
<path d="M194.278 168.491L172.4 175.141L189.998 187.491L211.4 180.841L194.278 168.491Z" fill="#FFCA1B"/>
<path d="M265.278 221.491L243.4 228.141L271.4 248.491L292.803 241.841L265.278 221.491Z" fill="#FFDD55"/>
<path d="M214.278 183.491L192.4 190.141L197.998 193.641L219.4 186.991L214.278 183.491Z" fill="#FFCA1B"/>
<path d="M326.917 266.128L336.175 273.072L324.072 287.266L312.205 278.34L326.917 266.128Z" fill="#E5CB9C" stroke="black"/>
<path d="M82.4004 81.9912L63.4004 92.9912L66.9004 96.9912L87.4004 84.4912L82.4004 81.9912Z" fill="#FFDD55"/>
<g style="mix-blend-mode:multiply" opacity="0.3">
<path d="M357.818 302.696C355.572 305.316 350.134 307.334 350.134 307.334L103.141 123.477L111.037 122.28" fill="black"/>
</g>
<path d="M60.9004 70.9912L50.4004 76.9912L59.9004 88.9912L77.4004 78.9912L60.9004 70.9912Z" fill="#FFDD55"/>
<path d="M90.9004 85.9912L68.9004 99.4912L83.9004 117.491L110.4 96.4912L90.9004 85.9912Z" fill="#FFDD55"/>
<path d="M108.493 116.906L56.7217 72.9321L113.123 107.438L116.107 117.551L108.493 116.906Z" fill="#D28F00"/>
</svg>
