<svg width="400" height="400" viewBox="0 0 400 400" fill="none" xmlns="http://www.w3.org/2000/svg">
<path d="M193.529 53.0151L200.53 53.2173C200.53 53.2173 234.813 86.042 259.595 139.87C284.384 193.698 291.311 234.84 279.146 269.454C266.982 304.067 243.792 324.629 230.268 334.638C216.743 344.646 213.013 345.363 209.975 346.643C206.937 347.923 205.694 345.197 205.694 345.197L193.97 54.2402" fill="#2C2C2C"/>
<path d="M193.529 53.0151L200.53 53.2173C200.53 53.2173 234.813 86.042 259.595 139.87C284.384 193.698 291.311 234.84 279.146 269.454C266.982 304.067 243.792 324.629 230.268 334.638C216.743 344.646 213.013 345.363 209.975 346.643C206.937 347.923 205.694 345.197 205.694 345.197L193.97 54.2402" stroke="black" stroke-width="5" stroke-miterlimit="10"/>
<path d="M193.529 53.0151C193.529 53.0151 175.803 92.0324 160.863 139.312C145.924 186.599 139.07 226.351 150.451 261.626C166.266 310.639 205.7 345.197 205.7 345.197C205.7 345.197 239.921 326.951 260.109 290.206C280.298 253.461 281.725 213.335 251.148 143.949C231.78 99.9828 193.529 53.0151 193.529 53.0151Z" fill="#444444" stroke="black" stroke-width="5" stroke-linecap="round" stroke-linejoin="round"/>
<g style="mix-blend-mode:multiply" opacity="0.15">
<path d="M155.688 270.127C155.688 270.127 266.535 197.538 269.75 197.52C272.966 197.501 278.883 198.794 278.883 198.794C278.883 198.794 288.916 229.542 278.748 263.733C268.581 297.923 242.285 322.589 234.065 329.897C225.845 337.204 209.975 346.643 209.975 346.643L205.694 345.197C205.694 345.197 181.91 320.041 170.688 302.278C159.467 284.515 155.682 270.134 155.682 270.134L155.688 270.127Z" fill="#3D3D3D"/>
</g>
<path d="M182.247 119.02C182.247 119.02 194.056 108.497 202.398 119.491C210.245 129.837 202.417 142.173 193.866 145.303C185.315 148.433 179.135 144.023 177.444 140.078C175.754 136.133 175.619 134.878 175.619 134.878" fill="#1E1E1E"/>
<path d="M182.247 119.02C182.247 119.02 194.056 108.497 202.398 119.491C210.245 129.837 202.417 142.173 193.866 145.303C185.315 148.433 179.135 144.023 177.444 140.078C175.754 136.133 175.619 134.878 175.619 134.878" stroke="black" stroke-width="4" stroke-miterlimit="10"/>
<path d="M215.831 149.743C215.831 149.743 216.627 137.224 227.064 138.265C235.652 139.122 238.953 148.874 239.394 155.666C239.884 163.231 238.077 170.085 229.606 170.992C221.135 171.898 218.158 158.888 218.293 160.144" fill="#1E1E1E"/>
<path d="M215.831 149.743C215.831 149.743 216.627 137.224 227.064 138.265C235.652 139.122 238.953 148.874 239.394 155.666C239.884 163.231 238.077 170.085 229.606 170.992C221.135 171.898 218.158 158.888 218.293 160.144" stroke="black" stroke-width="4" stroke-miterlimit="10"/>
<path d="M225.95 145.683L198.062 157.859L229.227 161.51C229.227 161.51 233.183 156.965 231.395 152.077C229.606 147.189 225.95 145.677 225.95 145.677V145.683Z" fill="#949494" stroke="black" stroke-width="5" stroke-linecap="round" stroke-linejoin="round"/>
<path d="M169.862 233.744C169.862 233.744 172.593 220.624 181.977 221.138C191.361 221.653 195.465 230.957 195.789 241.596C196.089 251.599 189.97 257.981 182.443 258.784C174.915 259.586 172.863 251.617 172.863 251.617" fill="#1E1E1E"/>
<path d="M169.862 233.744C169.862 233.744 172.593 220.624 181.977 221.138C191.361 221.653 195.465 230.957 195.789 241.596C196.089 251.599 189.97 257.981 182.443 258.784C174.915 259.586 172.863 251.617 172.863 251.617" stroke="black" stroke-width="4" stroke-miterlimit="10"/>
<path d="M163.914 200.539C163.914 200.539 162.597 191.162 165.77 182.256C168.943 173.35 177.64 159.728 178.927 159.911C180.213 160.095 180.415 170.857 176.716 180.774C173.016 190.684 166.456 200.588 163.914 200.546V200.539Z" fill="#74FFFE"/>
<path d="M194.944 72.2173C195.759 71.2067 208.407 85.3741 210.827 90.1946C213.246 95.0151 216.676 115.271 216.676 115.271C216.676 115.271 204.359 103.897 201.523 98.1696C198.693 92.4426 194.381 72.9156 194.944 72.2234V72.2173Z" fill="#74FFFE"/>
<path d="M212.174 174.128C211.231 174.226 210.263 188.926 211.806 194.469C213.35 200.013 221.895 214.652 223.114 214.205C224.332 213.758 222.783 195.786 221.741 192.46C220.296 187.854 212.168 174.128 212.168 174.128H212.174Z" fill="#74FFFE"/>
<path d="M245.538 210.223C245.422 206.934 251.945 187.015 252.919 187.223C253.893 187.432 255.308 206.64 255.05 210.156C254.793 213.672 249.238 232.984 246.8 233.879C244.362 234.773 245.697 214.646 245.544 210.217L245.538 210.223Z" fill="#74FFFE"/>
<path d="M202.227 235.471C203.973 234.013 215.353 245.492 217.123 247.207C218.894 248.922 225.552 263.757 224.118 265.178C222.685 266.599 210.68 255.194 209.504 253.099C208.328 251.005 202.227 235.477 202.227 235.477V235.471Z" fill="#74FFFE"/>
<path d="M185.456 271.53C185.456 271.53 189.977 290.083 189.615 292.662C189.254 295.241 185.517 313.72 184.262 313.855C183.006 313.99 180.715 295.516 180.795 293.287C180.875 291.057 185.45 271.53 185.45 271.53H185.456Z" fill="#74FFFE"/>
<path d="M199.36 294.787C200.371 293.538 209.295 310.541 210.465 312.636C211.635 314.731 214.422 331.881 213.338 333.584C212.254 335.287 203.011 320.09 202.496 318.241C201.982 316.391 198.233 296.172 199.354 294.781L199.36 294.787Z" fill="#74FFFE"/>
<path d="M200.708 120.018C200.708 120.018 187.275 110.445 179.815 127.319C175.638 136.771 182.43 143.643 182.43 143.643C182.43 143.643 171.644 134.308 177.138 125.157C182.626 116.006 190.92 115.124 194.681 115.945C198.442 116.766 200.708 120.018 200.708 120.018Z" fill="#B5B5B5"/>
<path d="M193.884 57.0515L196.157 58.6502C196.157 58.6502 145.961 167.035 148.417 229.126C150.31 277.067 187.931 323.643 187.931 323.643C187.931 323.643 149.036 285.753 146.518 228.727C143.86 168.444 193.884 57.0515 193.884 57.0515Z" fill="#B5B5B5"/>
<path d="M133.796 105.716C134.525 106.592 191.183 120.208 191.183 120.208C191.183 120.208 198.172 123.271 194.932 131.546C191.691 139.821 181.419 138.7 181.419 138.7L133.796 105.716Z" fill="#949494" stroke="black" stroke-width="5" stroke-linecap="round" stroke-linejoin="round"/>
<path d="M144.124 110.99L182.228 137.346C182.228 137.346 190.185 138.485 193.088 132.213C196.439 124.992 191.729 122.37 191.729 122.37L188.77 121.415C188.77 121.415 191.882 126.793 188.488 130.645C185.095 134.498 183.637 132.752 183.637 132.752L144.118 110.99H144.124Z" fill="#6F6F6F"/>
<path d="M147.438 110.977C148.05 111.694 171.687 120.098 184.433 122.921C188.458 123.816 193.676 124.765 193.45 124.214C192.99 123.093 190.944 121.752 190.944 121.752L147.444 110.977H147.438Z" fill="#DCDCDC"/>
<path d="M235.836 147.416C235.836 147.416 230.819 139.594 224.253 141.26C219.512 142.461 218.091 146.742 218.091 146.742C218.091 146.742 218.422 140.746 224.406 139.637C232.602 138.118 235.842 147.416 235.842 147.416H235.836Z" fill="#DCDCDC"/>
<path d="M221.778 164.315C221.778 164.315 223.212 167.213 225.288 168.597C227.364 169.981 230.77 169.54 230.77 169.54C230.77 169.54 227.861 169.369 225.435 167.703C223.009 166.036 221.778 164.315 221.778 164.315Z" fill="#DCDCDC"/>
<path d="M225.729 147.52C225.729 147.52 227.683 149.431 227.898 152.653C228.112 155.875 226.195 156.432 226.195 156.432C226.195 156.432 204.469 157.308 204.579 157.173C204.689 157.039 228.443 159.936 228.443 159.936C228.443 159.936 231.003 157.094 230.127 153.443C228.78 147.845 225.729 147.52 225.729 147.52Z" fill="#6F6F6F"/>
<path d="M226.035 147.379C226.035 147.379 226.574 147.514 227.242 148.126C227.91 148.739 228.296 149.204 228.296 149.204C228.296 149.204 216.082 153.645 212.578 154.821C209.075 155.997 205.988 157.088 205.51 157.137C205.032 157.186 204.205 156.91 204.205 156.91L226.029 147.379H226.035Z" fill="#DCDCDC"/>
<path d="M179.643 228.997C179.643 228.997 114.037 262.336 115.011 262.551C115.985 262.765 184.017 249.155 184.017 249.155C184.017 249.155 187.839 243.354 185.566 236.935C183.294 230.516 179.643 229.003 179.643 229.003V228.997Z" fill="#949494" stroke="black" stroke-width="5" stroke-linecap="round" stroke-linejoin="round"/>
<path d="M125.803 258.728C126.569 258.649 181.708 233.125 181.708 233.125L179.876 230.479L125.803 258.728Z" fill="#DCDCDC"/>
<path d="M224.376 279.425C224.376 279.425 233.416 271.175 240.117 277.441C246.812 283.707 247.97 291.498 244.111 300.796C240.454 309.604 233.061 310.223 229.165 309.371C225.27 308.52 221.858 305.457 220.596 300.453C220.125 298.591 220.125 296.061 220.125 296.061" fill="#1E1E1E"/>
<path d="M224.376 279.425C224.376 279.425 233.416 271.175 240.117 277.441C246.812 283.707 247.97 291.498 244.111 300.796C240.454 309.604 233.061 310.223 229.165 309.371C225.27 308.52 221.858 305.457 220.596 300.453C220.125 298.591 220.125 296.061 220.125 296.061" stroke="black" stroke-width="4" stroke-miterlimit="10"/>
<path d="M183.386 236.065C183.386 236.065 183.454 239.489 181.383 242.203C179.313 244.916 131.096 257.767 131.096 257.767L182.841 247.764C182.841 247.764 185.199 244.941 184.832 241.284C184.544 238.43 183.38 236.065 183.38 236.065H183.386Z" fill="#6F6F6F"/>
<path d="M184.654 100.969C185.015 100.387 185.407 99.7806 186.032 99.4927C186.657 99.2048 187.557 99.4315 187.723 100.093C187.784 100.332 187.741 100.589 187.698 100.828C187.563 101.569 187.184 102.506 186.43 102.439C185.646 102.372 185.193 101.189 184.427 101.361" fill="#343434"/>
<path d="M223.451 114.61C223.64 113.899 223.849 113.158 224.369 112.644C224.89 112.129 225.833 111.958 226.335 112.49C226.617 112.791 226.697 113.219 226.752 113.63C226.881 114.561 226.917 115.602 226.311 116.319C225.772 116.962 224.755 117.139 224.026 116.723C223.297 116.306 222.936 115.339 223.218 114.548" fill="#343434"/>
<path d="M211.311 126.382L212.45 126.1C212.934 125.984 213.473 125.874 213.895 126.131C214.569 126.541 214.471 127.528 214.287 128.293C213.54 128.397 212.768 128.306 212.07 128.024C211.684 127.871 211.311 127.65 211.096 127.295C210.882 126.94 210.888 126.431 211.2 126.162C211.335 126.039 211.635 126.254 211.458 126.29" fill="#343434"/>
<path d="M236.154 131.497C235.621 130.817 234.813 130.364 233.955 130.259C233.41 130.192 232.736 130.351 232.571 130.878C232.399 131.417 232.871 131.926 233.3 132.293L234.029 132.918C234.145 133.022 234.286 133.132 234.445 133.114C234.592 133.095 234.702 132.973 234.788 132.85C235.217 132.293 235.597 131.693 235.927 131.068" fill="#343434"/>
<path d="M237.226 136.826C237.575 135.876 238.145 134.761 239.156 134.719C239.529 134.7 239.884 134.847 240.227 134.994C241.575 135.582 242.99 136.421 243.431 137.83C243.529 138.143 243.572 138.486 243.455 138.798C243.376 139.012 243.223 139.196 243.045 139.343C242.261 140.005 241.073 139.998 240.129 139.594C239.186 139.19 238.433 138.449 237.71 137.714C237.416 137.414 237.11 137.077 237.085 136.66" fill="#343434"/>
<path d="M168.195 151.961C168.643 151.128 169.482 150.515 170.413 150.35C171.509 150.154 172.624 150.552 173.61 151.073C173.941 151.25 174.284 151.465 174.419 151.808C174.566 152.194 174.412 152.622 174.253 153.002C174.063 153.462 173.861 153.933 173.512 154.288C172.777 155.036 171.613 155.091 170.566 155.097C169.604 155.103 168.434 154.987 168.03 154.117C167.73 153.468 168.018 152.714 168.324 152.071" fill="#343434"/>
<path d="M192.665 151.22C192.322 151.985 191.679 152.61 190.901 152.929C191.018 153.505 191.661 153.854 192.249 153.835C192.837 153.817 193.382 153.529 193.897 153.247C194.044 152.188 193.247 151.079 192.194 150.883" fill="#343434"/>
<path d="M194.135 188.375L194.221 189.465C194.307 190.549 194.411 191.701 195.06 192.577C195.71 193.453 197.112 193.863 197.902 193.116C198.68 192.381 198.49 190.997 199.262 190.255C199.403 190.121 199.575 189.998 199.599 189.802C199.63 189.551 199.379 189.367 199.195 189.196C198.282 188.35 198.441 186.354 197.094 185.919C195.893 185.533 194.05 187.174 194.142 188.369L194.135 188.375Z" fill="#343434"/>
<path d="M240.889 185.655C240.981 185.398 240.724 185.116 240.454 185.098C240.185 185.08 239.927 185.239 239.731 185.429C239.18 185.955 238.892 186.758 238.984 187.517C240.123 188.124 241.685 187.775 242.463 186.739C242.751 186.476 242.255 186.078 241.863 186.029C241.471 185.98 240.944 185.661 241.177 185.349" fill="#343434"/>
<path d="M251.822 172.744C251.926 172.823 251.7 172.903 251.571 172.86C251.13 172.725 250.658 173.117 250.56 173.57C250.462 174.024 250.64 174.489 250.873 174.887C251.841 176.553 253.678 177.478 255.418 178.311C256.141 177.693 256.263 176.578 255.926 175.69C255.589 174.802 254.891 174.103 254.162 173.503C253.727 173.148 253.256 172.805 252.704 172.707C252.153 172.609 251.504 172.835 251.289 173.35" fill="#343434"/>
<path d="M266.272 231.551C265.867 230.504 264.722 229.971 263.662 229.603C262.94 229.352 262.174 229.126 261.421 229.254C260.667 229.383 259.938 229.977 259.914 230.743C259.883 231.704 260.955 232.378 261.917 232.354C262.878 232.329 263.748 231.827 264.636 231.459C265.034 231.294 265.445 231.147 265.855 231.006" fill="#282828"/>
<path d="M262.964 241.119C262.817 241.56 262.664 242.001 262.621 242.46C262.572 242.993 262.658 243.526 262.75 244.053L263.105 246.141C264.017 246.227 264.924 245.804 265.61 245.198C266.296 244.592 266.811 243.814 267.313 243.048C268.158 241.756 268.213 238.405 266.78 237.254C264.869 235.71 263.515 239.489 262.964 241.119Z" fill="#282828"/>
<path d="M238.537 235.49C238.31 235.563 238.225 235.214 238.096 235.018C237.931 234.773 237.551 234.748 237.306 234.908C237.061 235.067 236.92 235.355 236.859 235.643C236.699 236.359 236.963 237.192 237.588 237.572C238.212 237.952 239.168 237.738 239.462 237.064C239.756 236.39 239.119 235.477 238.402 235.618L238.506 235.11" fill="#282828"/>
<path d="M214.814 215.926C214.71 215.393 214.153 215.038 213.607 215.019C213.062 215.001 212.548 215.258 212.107 215.577C212.015 215.638 211.929 215.712 211.874 215.81C211.727 216.085 211.96 216.416 212.199 216.618C212.701 217.041 213.313 217.335 213.957 217.457C214.563 217.574 215.292 217.494 215.641 216.986C215.99 216.477 215.494 215.571 214.918 215.791" fill="#343434"/>
<path d="M243.547 246.503C242.996 246.129 242.175 246.46 241.863 247.054C241.55 247.648 241.655 248.377 241.918 248.989C242.04 249.277 242.206 249.584 242.151 249.896C242.089 250.221 241.802 250.466 241.728 250.784C241.618 251.28 242.065 251.746 242.549 251.893C243.474 252.168 244.515 251.599 244.938 250.735C245.36 249.871 245.244 248.812 244.803 247.954C244.362 247.097 243.639 246.417 242.867 245.847" fill="#282828"/>
<path d="M210.079 263.567C209.253 262.692 207.972 262.269 206.79 262.477C206.19 262.587 205.584 262.881 205.314 263.427C205.045 263.972 205.277 264.768 205.865 264.915C206.08 264.97 206.319 264.94 206.527 265.019C206.784 265.123 206.931 265.381 207.146 265.558C207.587 265.932 208.236 265.913 208.793 265.76C209.418 265.589 210.049 265.209 210.233 264.59C210.416 263.972 209.871 263.175 209.246 263.329" fill="#282828"/>
<path d="M201.602 263.978C200.5 263.77 199.495 263.065 198.931 262.091C198.815 261.889 198.711 261.669 198.521 261.534C198.019 261.16 197.302 261.595 196.947 262.11C196.677 262.508 196.5 263.077 196.812 263.439C197.523 262.93 198.699 263.543 198.693 264.419C199.085 264.688 199.489 264.964 199.954 265.068C200.42 265.172 200.959 265.068 201.247 264.694C201.535 264.321 201.424 263.659 200.977 263.506" fill="#282828"/>
<path d="M159.461 225.493C159.657 224.863 159.302 224.146 158.763 223.772C158.224 223.399 157.525 223.288 156.864 223.282C156.172 223.282 155.363 223.454 155.069 224.085C154.806 224.642 155.075 225.297 155.345 225.855C155.859 226.927 156.68 228.182 157.862 228.023C158.475 227.943 158.971 227.46 159.246 226.908C159.522 226.357 159.602 225.732 159.687 225.12" fill="#343434"/>
<path d="M175.834 272.081C174.774 271.028 172.679 271.469 172.14 272.859C172.838 273.19 173.622 273.337 174.388 273.288C174.915 273.251 175.509 273.061 175.693 272.565C175.876 272.069 175.197 271.444 174.835 271.83" fill="#282828"/>
<path d="M177.071 294.928C177.132 294.236 176.569 293.544 175.877 293.464C175.184 293.385 174.48 293.924 174.382 294.616C174.364 294.757 174.364 294.904 174.437 295.026C174.523 295.179 174.694 295.265 174.86 295.339C175.331 295.553 175.84 295.773 176.348 295.682C176.857 295.59 177.31 295.032 177.089 294.561" fill="#282828"/>
<path d="M194.914 314.449C196.102 314.841 197.413 313.567 197.223 312.33C197.033 311.093 195.661 310.253 194.424 310.437C194.032 310.498 193.64 310.651 193.401 310.97C193.223 311.209 193.156 311.515 193.107 311.809C193.009 312.403 192.96 313.04 193.205 313.585C193.45 314.131 194.087 314.553 194.656 314.363" fill="#282828"/>
<path d="M223.518 318.835C223.45 318.59 223.714 318.381 223.959 318.32C224.204 318.259 224.479 318.277 224.688 318.136C225.104 317.861 224.951 317.156 224.528 316.881C224.106 316.605 223.573 316.642 223.077 316.679C222.789 316.991 222.483 317.334 222.44 317.763C222.397 318.191 222.758 318.669 223.175 318.571C223.512 318.492 223.879 318.093 224.106 318.345" fill="#282828"/>
<path d="M228.32 318.933C227.297 319.374 226.219 319.858 225.57 320.764C224.921 321.671 224.914 323.141 225.852 323.741C226.415 324.102 227.144 324.066 227.812 323.968C228.559 323.863 229.337 323.686 229.913 323.19C230.488 322.693 230.764 321.787 230.341 321.156C230.06 320.74 229.563 320.544 229.141 320.274C228.718 320.005 228.332 319.527 228.473 319.043" fill="#282828"/>
<path d="M252.208 277.202C252.949 277.165 253.568 278.059 253.262 278.739C252.955 279.419 251.883 279.56 251.412 278.984C250.94 278.409 251.308 277.38 252.037 277.226" fill="#282828"/>
<path d="M241.177 281.275C241.177 281.275 235.523 275.524 230.145 278.513C224.767 281.496 221.049 296.833 223.769 301.801C226.488 306.768 226.911 306.229 228.712 307.172C229.294 307.472 231.327 308.312 231.327 308.312C231.327 308.312 222.562 307.546 221.588 298.928C220.725 291.351 223.34 280.534 229.159 277.527C236.632 273.662 241.17 281.281 241.17 281.281L241.177 281.275Z" fill="#C1C1C1"/>
<path d="M234.568 282.782C234.568 282.782 195.452 273 195.863 273.906C196.273 274.813 227.861 303.166 228.835 303.381C229.808 303.595 238.065 303.663 239.425 295.59C240.785 287.517 234.568 282.782 234.568 282.782Z" fill="#949494" stroke="black" stroke-width="5" stroke-linecap="round" stroke-linejoin="round"/>
<path d="M204.365 277.098L207.672 279.37L237.716 291.933C237.716 291.933 237.986 290.371 236.387 287.694C234.788 285.018 233.998 283.786 233.998 283.786L204.365 277.092V277.098Z" fill="#DCDCDC"/>
<path d="M202.827 277.043C203.501 277.19 227.328 297.213 230.237 297.776C233.147 298.34 234.035 298.469 235.866 297.176C237.698 295.884 237.661 293.477 237.661 293.477C237.661 293.477 238.408 298.438 235.321 300.3C232.234 302.162 229.178 302.272 229.178 302.272C229.178 302.272 200.108 276.24 200.781 276.387C201.455 276.534 202.821 277.043 202.821 277.043H202.827Z" fill="#6F6F6F"/>
</svg>
