<svg width="416" height="416" viewBox="0 0 416 416" fill="none" xmlns="http://www.w3.org/2000/svg">
<path d="M230.82 115.49C236.155 121.788 245.107 143.83 245.107 143.83C245.107 143.83 242.551 168.663 231.635 187.878C220.707 207.092 213.038 216.774 213.038 216.774L164.681 196.077L153.987 194.694L130.5 181.938C130.5 181.938 143.207 153.042 142.157 153.931C141.107 154.82 133.747 137.038 133.747 137.038C133.747 137.038 136.625 131.877 141.342 122.455L151.134 105.105C151.134 105.105 155.765 103.5 166.891 100.511C175.832 98.1031 184.093 97.5845 184.093 97.5845C184.093 97.5845 192.391 97.1894 206.641 100.98C220.892 104.771 225.485 109.205 230.808 115.502L230.82 115.49Z" fill="#FFCA1B" stroke="black" stroke-width="5.55" stroke-linecap="round" stroke-linejoin="round"/>
<path d="M148.5 115.573L219 197.073L211 213.073L140.5 130.573L148.5 115.573Z" fill="#FFDD55"/>
<path d="M181 101.073L241 168.573L228 194.573L156 107.073L181 101.073Z" fill="#D28F00"/>
<path d="M207.345 210.797C207.345 210.797 211.211 208.414 221.509 189.014C238.501 156.969 235.488 145.707 235.488 145.707C235.488 145.707 225.202 125.307 225.053 121.627C224.905 117.948 227.14 116.515 227.14 116.515C227.14 116.515 230.363 120.109 233.92 126.876C237.476 133.63 241.65 144.658 241.65 144.658C241.65 144.658 234.475 177.147 225.979 191.126C217.484 205.092 212.001 213.118 212.001 213.118L207.37 210.797H207.345Z" fill="#D28F00"/>
<path d="M190.514 167.379C190.514 167.379 190.749 168.206 191.156 169.577C192.996 175.628 198.417 192.36 203.641 196.904C210.05 202.474 213.433 200.473 215.026 197.843C216.619 195.213 217.755 176.048 217.755 176.048" fill="#D28F00"/>
<path d="M229.153 136.31C229.153 136.31 217.224 126.233 205.913 132.247C194.589 138.273 187.23 150.029 188.39 159.402C189.551 168.774 194.071 172.442 198.343 174.529C202.616 176.616 205.444 175.122 205.444 175.122L229.166 136.297H229.153V136.31Z" fill="#291D01"/>
<path d="M211.273 106.451C211.273 106.451 204.679 109.921 204.604 116.07C204.271 123.492 212.532 129.197 217.756 129.938C222.979 130.679 225.535 128.901 227.215 127.011C228.894 125.134 228.45 123.48 228.45 123.48L212.137 106.513L211.285 106.438L211.273 106.451Z" fill="#291D01"/>
<path d="M223.597 190.051C223.597 190.051 220.929 183.679 215.249 183.111C208.42 182.21 202.481 189.372 201.382 194.139C200.27 198.905 201.715 201.412 203.32 203.116C204.926 204.82 206.481 204.536 206.481 204.536L223.461 190.841L223.597 190.063V190.051Z" fill="#291D01"/>
<path d="M149.801 138.385L142.12 153.944" stroke="black" stroke-width="4.75" stroke-linecap="round" stroke-linejoin="round"/>
<path d="M224.448 138.199C224.448 138.199 241.551 145.016 261.062 176.097C280.573 207.166 285.5 236.544 285.5 236.544C285.5 236.544 268.632 209.117 239.65 191.508C210.68 173.887 198.368 168.441 198.368 168.441C198.368 168.441 190.959 157.018 198.319 145.361C207.938 130.098 224.436 138.199 224.436 138.199H224.448Z" fill="#CA8A01" stroke="black" stroke-width="5.55" stroke-linecap="round" stroke-linejoin="round"/>
<path d="M214.594 139.533C215.397 139.088 232.388 152.758 248.318 172.973C264.26 193.188 275.658 212.773 275.658 212.773L277.35 220.058C277.35 220.058 254.492 184.716 240.538 171.306C226.584 157.895 204.246 144.04 204.246 144.04C204.246 144.04 205.999 141.373 208.642 140.311C211.284 139.249 214.582 139.533 214.582 139.533H214.594Z" fill="white"/>
<path d="M218.682 139.755C218.682 139.755 235.933 152.573 245.071 164.872C254.209 177.171 270.262 200.671 270.262 200.671C270.262 200.671 257.024 174.368 245.577 160.612C229.339 141.113 218.682 139.755 218.682 139.755Z" fill="#FCEFDF"/>
<path d="M201.85 145.806C201.85 145.806 201.789 146.09 201.752 146.596C201.591 148.597 201.69 154.203 207.21 160.377C214.125 168.108 224.621 171.17 239.094 181.321C253.566 191.484 264.841 204.141 268.484 208.216C272.126 212.291 275.794 218.366 275.794 218.366C275.794 218.366 267.162 204.919 249.961 194.138C232.747 183.37 227.82 180.567 216.607 174.269C205.394 167.972 200.751 166.391 200.751 166.391C200.751 166.391 197.454 160.55 198.541 154.672C199.628 148.794 201.863 145.806 201.863 145.806H201.85Z" fill="#986801"/>
<path d="M221.522 190.866C221.522 190.866 228.017 195.46 233.08 210.488C238.143 225.516 237.242 238.359 237.242 238.359C237.242 238.359 232.92 225.133 222.522 214.798C212.124 204.462 207.506 200.93 207.506 200.93C207.506 200.93 205.543 195.386 209.815 191.224C215.397 185.778 221.509 190.854 221.509 190.854L221.522 190.866Z" fill="#DAC19F" stroke="black" stroke-width="5.55" stroke-linecap="round" stroke-linejoin="round"/>
<path d="M221.904 191.199C221.904 191.199 228.178 195.447 233.142 209.821C238.106 224.195 237.34 236.63 237.34 236.63C237.34 236.63 233.105 223.973 223.053 214.291C213.001 204.61 208.543 201.338 208.543 201.338C208.543 201.338 206.629 196.04 210.692 191.903C216.014 186.482 221.917 191.199 221.917 191.199H221.904Z" fill="#CA8A01"/>
<path d="M216.99 189.52C217.36 189.409 222.559 194.373 228.128 204.721C233.006 214.291 236.649 223.824 236.649 223.824L237.278 228.665C237.278 228.665 229.684 211.278 225.028 204.635C220.373 197.991 212.272 190.446 212.272 190.446C212.272 190.446 213.236 189.52 214.433 189.322C215.631 189.125 216.977 189.52 216.977 189.52H216.99Z" fill="white"/>
<path d="M210.581 192.521C210.581 192.521 210.532 192.632 210.47 192.829C210.223 193.632 209.779 195.904 211.544 198.88C213.755 202.61 215.422 202.177 220.312 207.771C225.387 213.588 228.351 216.811 230.388 220.7C233.389 226.455 235.353 231.16 235.353 231.16C235.081 231.518 230.87 223.17 225.066 216.761C218.398 209.969 218.077 210.019 213.952 206.24C209.964 202.573 208.247 200.967 208.247 200.967C208.247 200.967 207.457 198.09 208.432 195.805C209.408 193.521 210.248 192.2 210.248 192.2L210.606 192.496L210.581 192.521Z" fill="#986801"/>
<path d="M215.693 107.834C215.693 107.834 222.534 103.759 238.328 105.253C254.122 106.735 265.483 112.786 265.483 112.786C265.483 112.786 251.64 111.353 237.97 116.651C224.3 121.948 219.2 124.739 219.2 124.739C219.2 124.739 213.335 124.27 211.272 118.676C208.568 111.366 215.693 107.834 215.693 107.834Z" fill="#DAC19F" stroke="black" stroke-width="5.55" stroke-linecap="round" stroke-linejoin="round"/>
<path d="M216.15 107.599C216.15 107.599 222.584 103.598 237.736 104.907C252.887 106.216 263.939 111.971 263.939 111.971C263.939 111.971 250.652 110.699 237.723 115.947C224.794 121.195 219.991 123.936 219.991 123.936C219.991 123.936 214.372 123.529 212.236 118.133C209.445 111.069 216.163 107.599 216.163 107.599H216.15Z" fill="#CA8A01"/>
<path d="M212.643 111.193C212.692 110.81 219.311 108.303 231.03 107.426C241.761 106.858 251.121 107.34 251.121 107.34L255.801 108.735C255.801 108.735 237.661 108.673 229.696 110.217C221.731 111.761 211.544 116.107 211.544 116.107C211.544 116.107 211.26 114.798 211.568 113.625C211.877 112.452 212.099 111.933 212.099 111.933L212.643 111.205V111.193Z" fill="white"/>
<path d="M212.174 117.923C212.174 117.923 212.816 118.589 212.977 118.725C213.607 119.269 215.508 120.615 218.941 120.207C223.251 119.713 223.523 117.997 230.623 115.811C237.995 113.539 241.132 112.786 245.491 112.181C252.925 111.156 258.086 111.773 258.086 111.773C258.296 112.168 248.985 112.427 240.774 115.132C231.858 118.466 231.771 118.775 226.647 121.01C221.67 123.171 219.509 124.085 219.509 124.085C219.509 124.085 216.323 123.714 214.632 121.899C212.94 120.084 212.31 118.701 212.31 118.701L212.149 117.923H212.174Z" fill="#986801"/>
<path d="M137.674 136.433L154.95 110.18C154.95 110.18 160.754 108.908 173.609 106.056C182.982 103.981 191.613 101.795 190.094 101.339C182.895 99.1652 153.333 107.389 153.333 107.389L137.687 136.433H137.674Z" fill="white"/>
<path d="M162.421 187.939L200.467 199.992C200.467 199.992 200.443 193.225 198.195 187.816C195.948 182.407 193.095 176.961 180.45 175.714C167.805 174.467 161.495 187.47 161.495 187.47L162.421 187.927V187.939Z" fill="#291D01"/>
<path d="M194.787 191.52C194.787 191.52 203.443 211.377 197.281 250.152C191.119 288.914 173.942 318.427 173.942 318.427C173.942 318.427 178.845 277.097 174.325 242.866C169.805 208.611 161.791 192.731 161.791 192.731C161.791 192.731 165.965 183.914 177.017 182.234C189.205 180.394 194.774 191.533 194.774 191.533L194.787 191.52Z" fill="#CA8A01" stroke="black" stroke-width="5.55" stroke-linecap="round" stroke-linejoin="round"/>
<path d="M185.291 186.766C185.291 186.766 191.675 213.958 190.835 236.358C189.996 258.759 185.377 283.654 185.377 283.654L179.45 299.756C179.45 299.756 184.525 260.092 184.624 237.371C184.723 214.65 176.709 185.927 176.709 185.927C176.709 185.927 178.783 184.778 181.068 185.408C183.513 186.099 185.291 186.779 185.291 186.779H185.303L185.291 186.766Z" fill="white"/>
<path d="M187.489 188.174C187.489 188.174 196.849 208.698 193.132 239.223C189.415 269.749 187.205 279.505 187.205 279.505C187.205 279.505 196.812 245.299 196.429 225.776C196.046 206.252 192.157 193.398 192.157 193.398L187.501 188.174H187.489Z" fill="#FCEFDF"/>
<path d="M170.213 188.125C170.361 188.73 179.252 207.438 180.178 237.136C181.092 266.847 179.363 294.953 179.363 294.953C179.363 294.953 179.746 248.781 175.671 228.542C171.584 208.315 165.594 194.756 165.594 194.756C165.594 194.756 165.323 193.113 166.891 191.088C168.768 188.643 170.225 188.112 170.225 188.112L170.213 188.125Z" fill="#986801"/>
<path d="M160.137 189.088L136.501 177.789L134.6 181.16L154.407 190.952L158.692 191.854L160.137 189.088Z" fill="#D28F00"/>
<path d="M214.693 108.562C214.693 108.562 217.015 106.241 224.152 105.191C231.29 104.142 240.094 105.167 240.094 105.167C240.094 105.167 228.079 105.623 222.769 106.624C217.459 107.624 214.681 108.562 214.681 108.562H214.693Z" fill="#FCEFDF"/>
</svg>
