<svg width="400" height="400" viewBox="0 0 400 400" fill="none" xmlns="http://www.w3.org/2000/svg">
<path d="M215.836 99.7852C221.898 105.847 233.084 127.925 233.084 127.925C233.084 127.925 232.571 153.881 222.913 174.739C213.242 195.596 206.126 206.282 206.126 206.282L154.227 188.982L143.027 188.468L117.585 177.269C117.585 177.269 128.27 146.227 127.256 147.241C126.241 148.256 117.084 130.455 117.084 130.455C117.084 130.455 119.627 124.855 123.698 114.683L132.355 95.8552C132.355 95.8552 137.017 93.8002 148.293 89.7418C157.348 86.4796 165.876 85.2338 165.876 85.2338C165.876 85.2338 174.442 84.1035 189.546 86.8135C204.649 89.5234 209.787 93.7232 215.849 99.7852H215.836Z" fill="#D46200" stroke="black" stroke-width="5.55" stroke-linecap="round" stroke-linejoin="round"/>
<path d="M199.692 200.579C199.692 200.579 203.493 197.779 212.496 176.781C227.356 142.104 223.259 130.699 223.259 130.699C223.259 130.699 210.84 110.432 210.364 106.631C209.889 102.829 212.085 101.159 212.085 101.159C212.085 101.159 215.746 104.614 219.997 111.306C224.248 117.997 229.539 129.068 229.539 129.068C229.539 129.068 224.89 163.359 217.287 178.579C209.684 193.785 204.688 202.583 204.688 202.583L199.692 200.579Z" fill="#A84D00"/>
<path d="M178.513 157.028C178.513 157.028 178.821 157.862 179.373 159.249C181.801 165.363 188.865 182.239 194.67 186.503C201.798 191.73 205.124 189.354 206.55 186.503C207.975 183.652 207.5 163.68 207.5 163.68" fill="#A84D00"/>
<path d="M215.887 121.503C215.887 121.503 202.658 112.089 191.446 119.294C180.221 126.512 173.607 139.33 175.623 148.949C177.627 158.569 182.636 161.972 187.246 163.77C191.857 165.568 194.657 163.77 194.657 163.77L215.9 121.49L215.887 121.503Z" fill="#D6B300"/>
<path d="M194.786 92.0923C194.786 92.0923 188.248 96.2535 188.698 102.637C188.993 110.355 198.035 115.57 203.519 115.878C208.99 116.199 211.495 114.131 213.074 112.038C214.654 109.944 214.051 108.275 214.051 108.275L195.685 92.0923H194.798H194.786Z" fill="#D6B300"/>
<path d="M214.757 177.68C214.757 177.68 211.443 171.309 205.51 171.207C198.356 170.86 192.821 178.797 192.088 183.832C191.344 188.866 193.065 191.345 194.863 192.963C196.673 194.594 198.266 194.157 198.266 194.157L214.693 178.502L214.77 177.68H214.757Z" fill="#D6B300"/>
<path d="M133.819 130.48L127.204 147.267" stroke="black" stroke-width="4.75" stroke-linecap="round" stroke-linejoin="round"/>
<path d="M211.174 123.866C211.174 123.866 229.488 129.466 252.388 159.995C275.287 190.523 282.916 220.551 282.916 220.551C282.916 220.551 263.073 193.58 231.517 177.808C199.974 162.037 186.746 157.451 186.746 157.451C186.746 157.451 178.089 146.252 184.716 133.537C193.373 116.892 211.174 123.866 211.174 123.866Z" fill="#DAC19F" stroke="black" stroke-width="5.55" stroke-linecap="round" stroke-linejoin="round"/>
<path d="M201.079 126.101C201.875 125.574 220.665 138.276 238.915 157.862C257.178 177.448 270.677 196.765 270.677 196.765L273.053 204.175C273.053 204.175 246.326 169.511 230.708 156.809C215.091 144.107 190.753 131.675 190.753 131.675C190.753 131.675 192.346 128.76 194.991 127.437C197.637 126.114 201.079 126.114 201.079 126.114V126.101Z" fill="#6DF0FF"/>
<path d="M205.33 125.973C205.33 125.973 224.312 137.776 234.844 149.733C245.375 161.69 264.037 184.666 264.037 184.666C264.037 184.666 248.06 158.543 235.011 145.263C216.504 126.448 205.343 125.96 205.343 125.96H205.33V125.973Z" fill="#FCEFDF"/>
<path d="M188.415 133.691C188.415 133.691 188.377 133.987 188.377 134.513C188.377 136.607 188.968 142.399 195.222 148.333C203.057 155.756 214.192 158.017 230.066 167.302C245.94 176.588 258.719 188.738 262.842 192.655C266.965 196.572 271.293 202.544 271.293 202.544C271.293 202.544 261.185 189.354 242.434 179.658C223.67 169.974 218.315 167.495 206.152 161.934C193.989 156.373 189.045 155.127 189.045 155.127C189.045 155.127 185.128 149.36 185.744 143.17C186.361 136.979 188.428 133.691 188.428 133.691H188.415Z" fill="#928168"/>
<path d="M212.676 178.72C212.676 178.72 219.804 182.92 226.341 198.062C232.879 213.204 233.058 226.6 233.058 226.6C233.058 226.6 227.446 213.256 215.771 203.443C204.11 193.631 199.011 190.369 199.011 190.369C199.011 190.369 196.506 184.782 200.578 180.12C205.895 173.994 212.676 178.733 212.676 178.733V178.72Z" fill="#DAC19F" stroke="black" stroke-width="5.55" stroke-linecap="round" stroke-linejoin="round"/>
<path d="M213.113 179.015C213.113 179.015 219.972 182.881 226.355 197.356C232.738 211.83 233.007 224.776 233.007 224.776C233.007 224.776 227.523 212.023 216.273 202.852C205.022 193.682 200.116 190.664 200.116 190.664C200.116 190.664 197.676 185.334 201.529 180.698C206.576 174.623 213.1 179.015 213.1 179.015H213.113Z" fill="#DAC19F"/>
<path d="M207.86 177.692C208.245 177.551 214.05 182.252 220.703 192.501C226.585 202.005 231.183 211.573 231.183 211.573L232.249 216.53C232.249 216.53 222.887 199.166 217.492 192.68C212.098 186.195 203.044 179.067 203.044 179.067C203.044 179.067 203.968 178.026 205.189 177.718C206.409 177.41 207.847 177.705 207.847 177.705L207.86 177.692Z" fill="#6DF0FF"/>
<path d="M201.477 181.366C201.477 181.366 201.438 181.481 201.387 181.7C201.194 182.547 200.938 184.949 203.018 187.89C205.625 191.563 207.321 190.972 212.869 196.354C218.623 201.941 221.988 205.023 224.428 208.889C228.024 214.591 230.477 219.305 230.477 219.305C230.22 219.69 225.147 211.406 218.571 205.267C211.071 198.807 210.75 198.884 206.152 195.326C201.695 191.871 199.782 190.356 199.782 190.356C199.782 190.356 198.716 187.44 199.525 184.987C200.334 182.534 201.092 181.096 201.092 181.096L201.477 181.378V181.366Z" fill="#928168"/>
<path d="M199.499 93.1452C199.499 93.1452 206.242 88.3417 222.733 88.5215C239.224 88.7013 251.527 93.9928 251.527 93.9928C251.527 93.9928 237.053 93.6974 223.349 100.363C209.645 107.029 204.585 110.355 204.585 110.355C204.585 110.355 198.472 110.381 195.852 104.755C192.423 97.4091 199.499 93.1452 199.499 93.1452Z" fill="#DAC19F" stroke="black" stroke-width="5.55" stroke-linecap="round" stroke-linejoin="round"/>
<path d="M199.949 92.8628C199.949 92.8628 206.267 88.1622 222.09 88.2136C237.9 88.2649 249.858 93.2867 249.858 93.2867C249.858 93.2867 235.974 93.1068 223.028 99.6569C210.082 106.207 205.33 109.456 205.33 109.456C205.33 109.456 199.461 109.521 196.802 104.114C193.309 97.0369 199.961 92.85 199.961 92.85L199.949 92.8628Z" fill="#DAC19F"/>
<path d="M196.622 96.8955C196.648 96.4845 203.288 93.325 215.361 91.4114C226.432 89.8959 236.18 89.5876 236.18 89.5876L241.15 90.6279C241.15 90.6279 222.335 92.1306 214.218 94.4167C206.101 96.7028 195.916 102.084 195.916 102.084C195.916 102.084 195.505 100.748 195.723 99.5026C195.942 98.2568 196.121 97.7046 196.121 97.7046L196.622 96.9083V96.8955Z" fill="#6DF0FF"/>
<path d="M196.725 103.908C196.725 103.908 197.457 104.537 197.624 104.665C198.317 105.179 200.398 106.399 203.943 105.693C208.361 104.807 208.502 103.009 215.682 100.132C223.131 97.1393 226.316 96.0861 230.772 95.0843C238.388 93.3762 243.795 93.5817 243.795 93.5817C244.052 93.967 234.42 95.0458 226.136 98.552C217.184 102.765 217.12 103.111 211.996 105.847C207.025 108.518 204.868 109.636 204.868 109.636C204.868 109.636 201.541 109.533 199.627 107.786C197.714 106.04 196.956 104.665 196.956 104.665L196.725 103.882V103.908Z" fill="#928168"/>
<path d="M121.091 129.492L136.734 100.8C136.734 100.8 142.642 98.9763 155.716 94.9178C165.246 91.9638 174.018 88.9585 172.399 88.6117C164.758 86.9806 134.82 98.0387 134.82 98.0387L121.103 129.492H121.091Z" fill="#FAE0C7"/>
<path d="M151.17 180.749L191.639 189.971C191.639 189.971 191.035 182.958 188.235 177.551C185.436 172.144 182.019 166.737 168.804 166.532C155.588 166.326 150.168 180.351 150.168 180.351L151.17 180.749Z" fill="#D6B300"/>
<path d="M185.025 181.674C185.025 181.674 195.71 201.517 192.654 242.23C189.597 282.943 174.339 315 174.339 315C174.339 315 175.868 271.744 168.239 236.643C160.61 201.53 150.939 185.758 150.939 185.758C150.939 185.758 154.509 176.254 165.824 173.57C178.295 170.616 185.025 181.687 185.025 181.687V181.674Z" fill="#DAC19F" stroke="black" stroke-width="5.55" stroke-linecap="round" stroke-linejoin="round"/>
<path d="M174.776 177.564C174.776 177.564 183.727 205.203 184.78 228.488C185.834 251.772 183.188 277.973 183.188 277.973L178.423 295.17C178.423 295.17 180.272 253.622 178.423 230.067C176.574 206.513 165.798 177.423 165.798 177.423C165.798 177.423 167.853 176.048 170.268 176.511C172.862 177.012 174.763 177.564 174.763 177.564H174.776Z" fill="#6DF0FF"/>
<path d="M177.177 178.835C177.177 178.835 188.646 199.308 187.413 231.262C186.18 263.216 184.729 273.529 184.729 273.529C184.729 273.529 191.741 237.247 189.674 217.044C187.606 196.842 182.456 183.857 182.456 183.857L177.177 178.848V178.835Z" fill="#FCEFDF"/>
<path d="M159.261 180.274C159.467 180.891 170.293 199.513 173.8 230.222C177.306 260.943 177.922 290.213 177.922 290.213C177.922 290.213 174.352 242.32 168.38 221.694C162.408 201.08 155.036 187.543 155.036 187.543C155.036 187.543 154.612 185.861 156.063 183.626C157.797 180.929 159.261 180.261 159.261 180.261V180.274Z" fill="#928168"/>
<path d="M148.909 182.136L123.428 172.465L121.746 176.125L143.117 184.564L147.651 185.129L148.909 182.136Z" fill="#A84D00"/>
<path d="M198.523 93.9929C198.523 93.9929 200.732 91.3857 208.04 89.6904C215.347 87.9951 224.569 88.2905 224.569 88.2905C224.569 88.2905 212.149 89.7932 206.742 91.2958C201.335 92.7985 198.535 94.0057 198.535 94.0057L198.523 93.9929Z" fill="#FCEFDF"/>
</svg>
