<svg width="400" height="400" viewBox="0 0 400 400" fill="none" xmlns="http://www.w3.org/2000/svg">
<path d="M266.546 223.127C268.046 218.827 263.946 217.527 260.246 214.227C254.746 209.427 250.046 201.927 246.446 196.127C241.446 188.127 235.946 180.527 229.846 173.327C223.046 165.127 215.546 157.527 207.446 150.527C205.146 144.727 200.546 140.027 195.046 137.227C183.046 121.327 171.046 105.427 158.646 89.927C143.146 70.427 120.646 50.727 94.2463 52.627C82.0463 53.527 72.0463 60.927 64.8463 70.827C60.6463 76.527 67.4463 81.427 72.4463 88.927C90.3463 110.027 114.646 123.927 135.046 144.527C154.746 164.327 175.546 180.627 196.946 198.627C208.646 208.427 217.246 221.627 230.546 229.227C231.646 229.827 233.246 232.527 234.446 232.727C238.946 236.427 243.846 240.227 249.346 245.927C253.146 249.927 255.346 245.127 256.746 241.227C258.446 236.027 264.846 228.327 266.546 223.127Z" fill="#6D6534"/>
<path d="M334.647 301.027C334.247 299.327 333.547 297.327 331.447 296.627C331.147 296.527 330.747 296.527 330.347 296.627C328.947 294.827 327.047 293.127 325.347 291.527C319.147 284.127 313.047 276.827 306.747 269.527C301.847 263.727 296.947 258.027 291.947 252.327C286.747 246.327 281.047 240.627 276.347 234.227C275.447 233.127 274.347 232.527 273.347 232.527C272.947 231.827 272.647 231.127 272.547 230.327C272.247 229.027 271.347 228.327 270.247 228.027C270.747 225.727 267.447 224.127 266.147 226.427C265.447 227.527 264.847 228.727 264.147 229.827C263.947 229.927 263.747 230.127 263.547 230.227C259.947 233.927 257.047 238.427 256.147 243.327C255.647 243.827 255.047 244.327 254.547 244.827C253.347 245.727 252.347 247.527 253.447 248.927C262.347 261.427 273.747 272.127 284.647 282.827C295.747 293.627 307.247 304.327 319.447 313.927C320.847 315.027 322.147 315.427 323.747 314.327C325.547 313.127 328.047 311.927 329.647 310.227C329.947 310.327 330.547 309.227 331.147 307.627C331.247 307.527 331.447 307.427 331.547 307.227C333.147 305.427 335.247 303.927 334.647 301.027Z" fill="#B29854"/>
<path d="M365.647 313.927C366.247 312.427 365.947 310.427 364.347 309.727C360.247 308.027 356.047 306.427 351.747 305.127C347.547 303.827 342.747 301.827 338.347 301.527C335.247 301.227 332.047 304.227 330.047 306.427C327.647 309.027 324.947 310.727 323.847 314.127C321.647 321.427 324.847 330.227 327.147 337.127C329.847 345.627 330.547 354.127 328.447 362.927C327.547 366.727 332.647 368.727 334.647 365.427C339.547 357.527 344.647 349.727 349.547 341.727C354.547 333.527 359.447 325.327 365.447 317.827C366.447 316.627 366.447 315.127 365.647 313.927Z" fill="#6D6534"/>
<path d="M355.246 352.127C355.346 351.727 355.246 351.327 355.046 351.027C355.446 349.927 355.646 348.827 355.946 347.827C356.346 346.427 356.846 345.027 357.246 343.627C358.146 340.727 359.146 337.927 360.146 335.127C361.146 332.327 362.146 329.627 363.146 326.827C363.646 325.427 364.146 324.127 364.646 322.727C365.146 321.227 365.846 319.727 366.046 318.227C366.046 318.127 366.046 318.127 366.046 318.027C366.346 317.527 366.546 317.027 366.746 316.627C366.946 316.227 367.146 315.727 367.346 315.327C367.646 314.727 367.646 314.227 367.846 313.627C368.146 312.827 366.946 312.127 366.346 312.727C365.746 313.427 365.146 314.027 364.646 314.827C364.046 315.627 363.546 316.527 363.046 317.327C362.046 318.927 360.946 320.527 359.946 322.227C357.946 325.527 356.046 328.827 354.146 332.127C350.246 338.727 346.446 345.327 342.546 351.927C340.346 355.627 338.146 359.427 335.946 363.027C334.646 365.227 338.146 367.227 339.346 364.927C339.646 364.327 340.046 363.727 340.346 363.127C342.846 362.027 345.246 360.727 347.446 359.127C348.846 358.127 350.146 357.127 351.346 356.127C351.946 355.627 352.646 355.027 353.246 354.527C354.246 353.727 355.046 353.127 355.246 352.127Z" fill="#463E20"/>
<path opacity="0.28" d="M75.6464 60.4269C75.6464 60.4269 77.9464 70.7269 83.3464 79.0269C88.7464 87.3269 109.346 109.827 121.746 121.527C132.646 131.827 141.446 135.927 152.046 145.527C162.646 155.127 204.346 192.427 216.646 204.927C228.946 217.427 259.746 244.827 267.146 251.227C274.546 257.627 298.846 280.327 304.446 285.327C310.046 290.327 321.246 303.427 326.846 311.227C332.446 318.927 338.246 338.727 338.246 343.827C338.346 350.227 338.646 358.727 338.646 358.727L330.246 368.127C330.246 368.127 328.246 342.927 325.746 330.927C323.246 318.927 319.346 314.227 319.346 314.227C319.346 314.227 185.046 190.327 175.546 179.527C166.046 168.727 106.146 119.427 100.446 115.727C94.7464 112.027 74.0464 90.1269 69.9464 84.6269C65.8464 79.1269 62.0464 74.6269 64.8464 70.8269C67.5464 67.0269 71.0464 62.8269 72.0464 61.9269C73.0464 61.0269 75.6464 60.4269 75.6464 60.4269Z" fill="black"/>
<path d="M134.546 62.4269C126.046 58.2269 116.546 55.9269 107.246 54.7269C102.346 54.1269 97.3465 53.7269 92.3465 53.7269C88.1465 53.7269 83.4465 53.4269 79.5465 55.1269C78.5465 55.5269 78.9465 57.1269 79.8465 57.3269C83.8465 58.4269 88.3465 57.8269 92.4465 58.0269C97.2465 58.2269 101.946 58.8269 106.746 59.6269C115.746 61.2269 124.246 63.9269 133.046 66.5269C135.246 67.2269 136.846 63.5269 134.546 62.4269Z" fill="white"/>
<path d="M74.8463 71.4269C75.5463 68.6269 76.5462 65.5269 76.5462 62.7269C76.5462 61.8269 75.5462 60.9269 74.6462 61.3269C71.4462 62.6269 68.8462 66.0269 67.6462 69.1269C66.2462 72.6269 64.7462 77.6269 66.1462 81.3269C67.5462 84.8269 71.7462 84.6269 73.1462 81.2269C74.3462 78.3269 74.0463 74.6269 74.8463 71.4269Z" fill="white"/>
<path d="M119.747 63.3269C117.547 56.7269 115.347 50.1269 113.147 43.5269C112.747 42.2269 111.347 42.0269 110.247 42.5269C109.847 40.1269 109.247 37.8269 108.547 35.5269C107.747 32.8269 103.347 33.6269 104.147 36.3269C104.547 37.6269 104.847 38.8269 105.147 40.1269C104.847 40.4269 104.647 40.9269 104.647 41.4269C104.647 48.7269 104.547 56.0269 104.547 63.4269C104.547 64.6269 105.347 65.7269 106.647 65.8269C110.247 66.0269 113.847 66.3269 117.547 66.5269C119.447 66.5269 120.247 64.8269 119.747 63.3269Z" fill="#2F2023"/>
<path opacity="0.28" d="M136.346 68.8268C136.346 68.8268 170.946 109.927 181.546 122.727C192.146 135.527 229.946 182.427 229.946 182.427C229.946 182.427 208.746 159.827 193.746 141.927C178.646 124.127 136.346 68.8268 136.346 68.8268Z" fill="black"/>
<path d="M166.746 74.627C167.046 73.827 167.346 73.127 167.646 72.327C167.846 71.927 167.746 71.427 167.446 71.127C167.446 71.127 167.446 71.127 167.446 71.027C167.846 70.427 168.146 69.927 168.546 69.327C168.746 68.927 168.646 68.327 168.246 68.127C167.846 67.927 167.346 68.027 167.046 68.427C166.646 69.027 166.346 69.527 165.946 70.127C165.746 70.427 165.546 70.727 165.446 71.027C165.346 71.127 165.346 71.327 165.246 71.427C165.246 71.427 165.246 71.427 165.246 71.527C165.246 71.527 165.146 71.527 165.146 71.627C164.746 72.127 164.446 72.627 164.146 73.127C161.046 76.627 158.046 80.127 155.046 83.627C154.146 83.827 153.446 84.727 154.046 85.727L154.146 85.927C154.046 86.227 154.046 86.627 154.346 87.027C155.146 88.227 155.946 89.327 156.746 90.527C157.046 91.027 157.646 91.227 158.246 91.227H158.346C158.546 91.527 158.946 91.727 159.246 91.727C159.946 91.827 160.446 91.327 160.646 90.727C161.846 87.727 163.046 84.627 164.246 81.627C165.046 79.527 165.746 77.427 166.446 75.427C166.546 75.227 166.646 74.927 166.746 74.627Z" fill="#2F2023"/>
<path d="M175.946 101.827C176.046 101.627 176.146 101.527 176.246 101.327C176.446 100.927 176.446 100.327 176.046 100.127C175.646 99.827 175.246 99.727 174.746 99.927C174.846 99.827 174.546 100.027 174.546 100.027C174.446 100.027 174.346 100.127 174.246 100.127C174.046 100.227 173.846 100.327 173.546 100.327C173.146 100.427 172.746 100.627 172.246 100.827C171.346 101.127 170.446 101.427 169.646 102.127C169.446 102.327 169.446 102.627 169.546 102.827C169.546 102.927 169.646 103.027 169.746 103.127C169.746 103.327 169.846 103.527 169.946 103.727C170.546 104.727 171.246 105.627 171.846 106.627C172.146 107.027 172.546 107.327 173.046 107.327C173.546 107.327 174.046 107.027 174.246 106.627C174.846 105.327 175.546 104.127 175.946 102.827C176.146 102.327 176.046 102.027 175.946 101.827Z" fill="#2F2023"/>
<path d="M201.246 122.927C201.846 122.227 201.246 120.727 200.246 121.127C192.546 124.327 184.446 126.427 176.246 127.927C175.846 128.027 175.746 128.327 175.746 128.627C175.746 128.727 175.746 128.827 175.646 128.927C175.646 129.027 175.646 129.127 175.646 129.227C175.646 129.527 175.546 129.727 175.546 130.027C175.546 130.427 175.646 130.927 175.746 131.327C175.446 131.627 175.246 132.127 175.446 132.527C176.446 135.027 177.546 137.727 179.646 139.427C181.246 140.727 183.246 141.527 185.246 141.327V141.427C185.246 141.527 185.246 141.627 185.246 141.727C185.246 141.827 185.246 141.927 185.246 142.027C185.246 142.127 185.246 142.327 185.346 142.427C185.346 142.527 185.446 142.627 185.446 142.627C185.546 142.727 185.646 142.827 185.746 142.927C185.946 143.027 186.046 143.027 186.246 143.027C186.446 143.027 186.646 142.927 186.846 142.827C187.046 142.727 187.146 142.627 187.246 142.427C187.246 142.427 187.246 142.327 187.346 142.327L187.446 142.127C187.546 142.027 187.546 141.927 187.646 141.827C187.746 141.627 187.846 141.427 187.946 141.227C188.046 140.927 188.146 140.627 188.046 140.427C189.646 139.527 190.946 138.027 191.946 136.527C192.846 135.127 193.646 133.527 194.546 132.127C194.746 131.927 194.946 131.727 195.046 131.527C196.046 130.427 197.046 129.327 197.946 128.127C198.446 127.527 198.846 126.927 199.346 126.327C199.946 125.627 200.646 124.827 200.946 123.927C201.046 123.727 201.046 123.427 200.946 123.227C200.946 123.227 201.146 123.127 201.246 122.927Z" fill="#2F2023"/>
<path d="M75.9464 50.5268C67.3463 46.3268 60.4463 38.7268 52.6463 34.2268C51.6463 33.6268 51.1463 35.4268 51.6463 36.3268C51.6463 36.5268 51.6463 36.8268 51.8463 37.0268C55.7463 45.1268 61.1464 52.5268 65.3464 60.4268C65.7464 61.2268 66.9463 61.5268 67.7463 61.0268C69.2463 60.1268 70.7463 59.1268 72.1463 58.1268C74.5463 57.7268 76.9463 56.4268 78.7463 53.9268C79.8463 52.5268 77.4464 50.8268 75.9464 50.5268Z" fill="#2F2023"/>
<path d="M94.4461 48.8269C94.7461 47.8269 95.1461 46.6269 94.7461 45.6269C94.3461 44.4269 92.8461 43.9269 91.9461 44.8269C91.2461 45.5269 91.1461 46.4269 90.7461 47.2269C90.4461 48.0269 90.0461 48.9269 89.6461 49.7269C88.5461 52.0269 91.8461 54.0269 93.1461 51.7269C93.6461 50.9269 94.1461 49.9269 94.4461 48.8269Z" fill="#2F2023"/>
<path opacity="0.28" d="M152.546 120.927C152.446 117.727 152.346 114.627 152.346 111.427C152.346 109.827 149.946 109.527 149.546 111.127C149.346 111.827 149.246 112.427 149.046 113.127C148.646 112.927 148.346 112.727 147.946 112.527C147.346 112.227 146.846 112.227 146.446 112.527C146.346 112.527 146.246 112.527 146.146 112.627C144.846 111.927 143.546 111.227 142.246 110.427C141.346 109.927 140.246 110.227 139.746 111.127C139.246 112.027 139.646 113.027 140.446 113.627C140.546 113.727 140.646 113.727 140.746 113.827C142.246 115.227 143.846 116.527 145.346 117.827C147.046 119.227 148.646 120.627 150.346 121.927C151.146 122.527 152.546 122.127 152.546 120.927Z" fill="black"/>
<path d="M73.2463 89.6269C72.0463 88.4269 70.8463 87.2269 69.5463 86.0269C68.6463 85.1269 67.5463 83.5269 66.3463 82.9269C64.0463 81.7269 59.5463 83.3269 57.1463 83.5269C53.3463 83.9269 49.3463 84.1269 45.3463 84.5269C42.9463 84.5269 40.4463 84.7269 38.1463 85.2269C37.7463 85.3269 37.4463 85.4269 37.1463 85.6269C36.5463 85.7269 35.9463 85.8269 35.3463 86.0269C33.6463 86.4269 34.1463 88.7269 35.7463 88.8269C36.1463 88.8269 36.4463 88.8269 36.8463 88.8269C37.2463 89.5269 37.9463 90.0269 38.8463 90.1269C44.1463 90.6269 49.4463 90.1269 54.7463 90.6269C60.1463 91.1269 65.8463 91.9269 71.0463 93.2269C73.1463 93.8269 74.7463 91.1269 73.2463 89.6269Z" fill="#2F2023"/>
<path opacity="0.28" d="M126.547 121.127C126.547 120.327 126.447 119.527 126.347 118.827C126.247 118.027 126.147 117.227 126.047 116.427C125.947 115.627 125.847 114.827 125.747 114.127C125.747 113.727 125.647 113.327 125.647 112.927C125.547 112.427 125.547 111.927 125.447 111.527C125.247 110.927 124.647 110.527 124.047 110.627C123.347 110.727 123.047 111.227 122.947 111.927C122.947 112.327 122.947 112.727 123.047 113.127L123.147 114.327C123.247 115.127 123.347 115.927 123.447 116.727C123.447 117.027 123.547 117.327 123.547 117.727C123.347 117.527 123.047 117.227 122.747 117.027C122.847 117.127 122.947 117.227 123.047 117.227C122.747 117.027 122.547 116.827 122.247 116.627C121.947 116.427 121.647 116.327 121.247 116.227C121.147 116.227 120.947 116.227 120.847 116.227C120.647 116.227 120.447 116.227 120.247 116.327C119.947 116.427 119.647 116.727 119.447 117.027C119.347 117.327 119.247 117.527 119.247 117.827C119.247 118.227 119.447 118.627 119.747 118.927C120.247 119.627 120.847 120.227 121.447 120.927C121.747 121.227 122.047 121.527 122.347 121.827C122.747 122.227 123.147 122.727 123.647 122.927C123.947 123.027 124.147 123.127 124.447 123.127C124.747 123.127 125.147 123.027 125.347 122.827C125.447 122.727 125.447 122.727 125.547 122.627C126.147 122.227 126.547 121.727 126.547 121.127Z" fill="black"/>
<path opacity="0.28" d="M173.547 155.227C172.347 154.427 171.247 153.527 169.947 152.827C169.347 152.527 168.747 152.027 168.147 151.727C167.547 151.427 166.947 151.127 166.247 150.827C163.647 149.627 160.847 148.527 158.147 147.927C155.747 147.327 154.947 150.827 157.247 151.527C158.347 151.927 159.447 152.227 160.547 152.627C161.247 153.327 162.247 153.727 163.147 154.127C164.247 154.527 165.247 155.027 166.347 155.427C168.447 156.227 170.547 156.927 172.647 157.727C173.947 158.227 174.747 156.027 173.547 155.227Z" fill="black"/>
<path d="M99.4465 140.227C101.546 136.127 103.546 131.727 105.046 127.427C106.446 123.427 105.246 120.627 102.646 117.427C101.846 116.527 100.846 116.427 99.9465 116.927C99.9465 116.927 99.9465 116.927 99.9465 116.827C99.9465 116.827 99.9465 116.827 99.9465 116.727C99.9465 116.527 99.9465 116.427 99.8465 116.227C99.8465 116.127 99.8465 116.127 99.7465 116.027C99.7465 115.927 99.6465 115.827 99.6465 115.727C99.5465 115.527 99.3465 115.327 99.1465 115.227C98.9465 115.027 98.7465 114.927 98.4465 114.927L97.9465 114.827C97.7465 114.827 97.4465 114.827 97.2465 115.027C97.0465 115.027 96.9465 115.127 96.8465 115.227C96.6465 115.327 96.4465 115.527 96.3465 115.727C96.2465 115.927 96.2465 116.027 96.1465 116.227C96.0465 116.527 96.0465 116.827 96.1465 117.127C96.1465 117.227 96.1465 117.327 96.2465 117.427C96.3465 117.727 96.4465 118.027 96.6465 118.227C96.1465 121.427 96.2465 124.627 96.1465 127.827C96.0465 131.727 95.7465 135.827 96.1465 139.727C96.1465 140.027 96.2465 140.227 96.3465 140.427C96.2465 140.727 96.1465 141.027 96.0465 141.227C95.6465 142.527 97.6465 143.327 98.2465 142.127C98.4465 141.727 98.6465 141.427 98.8465 141.027C99.2465 140.927 99.4465 140.627 99.4465 140.227Z" fill="#2F2023"/>
<path d="M146.847 156.727C144.647 154.827 142.747 152.627 140.647 150.627C139.547 149.527 137.747 149.727 136.947 151.127C135.047 154.427 133.247 157.627 131.547 160.927C130.747 162.427 132.147 164.827 134.047 164.127C137.247 162.927 140.447 161.427 143.647 160.027C143.747 160.027 143.847 159.927 143.847 159.927C143.947 160.027 144.147 160.127 144.247 160.127C146.247 161.027 148.747 158.427 146.847 156.727Z" fill="#2F2023"/>
<path opacity="0.28" d="M198.046 153.127C197.546 152.427 197.046 151.727 196.546 151.027C194.146 147.427 191.546 144.027 189.046 140.527C187.946 139.027 185.446 140.427 186.546 142.027C186.946 142.527 187.246 143.027 187.646 143.627C186.546 142.727 185.446 141.727 184.446 140.827C183.646 140.127 182.846 139.427 182.046 138.827C181.646 138.527 181.246 138.227 180.946 137.927C180.446 137.527 179.946 137.327 179.446 136.927C178.646 136.327 177.646 137.327 178.346 138.027C178.646 138.427 178.946 138.827 179.246 139.227C179.546 139.627 179.946 139.927 180.246 140.327C180.946 141.127 181.746 141.827 182.446 142.527C183.846 143.927 185.346 145.427 186.746 146.827C189.646 149.627 192.646 152.427 195.646 155.127C196.846 156.127 199.146 154.627 198.046 153.127Z" fill="black"/>
<path d="M167.946 148.827C167.746 148.627 167.446 148.527 167.246 148.427C165.646 147.427 164.146 146.527 162.746 145.327C161.246 144.027 160.146 142.327 158.446 141.327C158.146 141.127 157.846 141.027 157.546 141.127C155.946 140.427 154.446 141.927 153.546 143.227C152.246 145.027 151.646 147.127 152.246 149.327C152.646 150.627 153.746 151.127 154.746 150.927C155.246 151.327 155.846 151.627 156.546 151.627C159.246 151.627 161.946 151.427 164.446 152.427C164.846 152.627 165.246 152.827 165.646 153.027C168.446 154.027 170.546 150.527 167.946 148.827Z" fill="#2F2023"/>
<path d="M150.547 109.427C149.947 107.727 148.747 106.227 147.847 104.727C147.047 103.427 146.147 101.427 144.647 100.727C144.647 100.727 144.647 100.727 144.547 100.727C144.547 100.627 144.447 100.527 144.447 100.427C144.147 99.7269 143.147 99.1269 142.447 99.9269C141.447 101.227 141.247 102.627 140.947 104.127C140.647 105.827 140.247 107.627 139.947 109.327C139.647 111.027 140.947 111.927 142.147 111.827C144.247 113.227 147.647 113.227 149.547 111.527C150.347 111.227 150.847 110.327 150.547 109.427Z" fill="#2F2023"/>
<path d="M124.946 110.927C124.746 110.627 124.546 110.427 124.246 110.227C124.246 110.027 124.146 109.727 123.846 109.527C121.146 107.527 117.746 108.727 114.946 109.927C113.646 110.527 113.646 112.327 114.546 113.227C114.646 113.327 114.846 113.427 114.946 113.527C114.946 113.727 114.946 113.827 115.046 114.027C115.346 115.427 116.446 116.427 117.846 116.827C119.046 117.227 120.446 117.027 121.546 116.427C122.146 116.127 122.746 115.627 123.246 115.127C123.646 114.627 124.046 114.027 124.446 113.627C125.346 113.227 125.446 111.827 124.946 110.927Z" fill="#2F2023"/>
<path opacity="0.28" d="M128.446 73.7269C128.246 73.4269 128.046 73.2269 127.946 72.9269C128.046 72.6269 128.046 72.3269 127.846 72.0269C127.146 70.9269 126.346 69.8269 125.546 68.8269C125.146 68.2269 124.746 67.7269 124.346 67.1269C123.646 66.1269 122.946 65.2269 122.146 64.2269C122.046 64.1269 122.046 64.0269 121.946 63.9269C121.246 62.9269 119.846 63.6269 119.546 64.6269C115.546 64.9269 111.546 64.4269 107.546 63.4269C106.646 63.2269 105.946 63.7269 105.546 64.4269C105.346 64.4269 105.046 64.4269 104.846 64.5269C104.446 64.6269 104.146 65.0269 104.246 65.5269C104.646 66.4269 105.446 66.8269 106.246 67.2269C107.146 67.6269 108.046 68.0269 108.946 68.4269C110.846 69.2269 112.746 70.1269 114.646 70.9269C118.446 72.6269 122.146 74.2269 125.946 75.9269C126.646 76.2269 127.546 76.1269 127.946 75.4269C128.046 75.3269 128.046 75.1269 128.046 75.0269C128.646 74.7269 128.746 74.2269 128.446 73.7269Z" fill="black"/>
<path opacity="0.28" d="M101.846 93.527C101.746 92.627 101.746 91.727 101.546 90.927C101.346 90.127 101.246 89.227 101.146 88.427C100.846 86.627 100.546 84.927 100.246 83.127C99.8464 80.427 99.7464 76.727 97.5464 74.727C96.8464 74.127 95.8464 74.927 96.2464 75.727C96.5464 76.327 96.7464 76.827 96.9464 77.427C96.2464 77.527 95.5464 78.127 95.4464 79.027C95.4464 80.027 95.4464 81.027 95.5464 82.027C95.4464 82.127 95.3464 82.127 95.2464 82.227C95.0464 82.427 94.8464 82.727 94.8464 83.027C93.7464 83.227 92.7464 84.427 93.5464 85.627C94.5464 87.127 95.8464 88.327 96.9464 89.827C98.0464 91.227 98.9464 92.727 99.8464 94.227C100.346 94.927 102.046 94.727 101.846 93.527Z" fill="black"/>
<path d="M98.8465 81.3269C98.8465 79.3269 98.2464 77.2269 97.2464 75.6269C96.7464 74.7269 95.8464 74.4269 95.0464 74.6269C94.6464 74.4269 94.1464 74.3269 93.5464 74.4269C90.7464 75.2269 87.9464 76.1269 85.1464 76.9269C82.8464 77.5269 79.8464 77.8269 78.2464 79.6269C77.6464 80.3269 77.9464 81.3269 78.7464 81.6269C79.4464 81.8269 80.2464 81.8269 81.0464 81.8269C82.7464 82.5269 84.4465 82.8269 86.3465 82.9269C86.6465 83.3269 87.1464 83.6269 87.7464 83.7269C90.5464 84.3269 93.2464 84.9269 96.0464 85.5269C98.7464 86.0269 100.146 82.9269 98.8465 81.3269Z" fill="#2F2023"/>
<path d="M49.8462 32.1269L72.2462 47.7269L51.8462 37.0269L49.8462 32.1269Z" fill="white"/>
<path d="M30.5464 87.1269L66.3464 82.9269L68.8464 85.0269L30.5464 87.1269Z" fill="white"/>
<path d="M76.2466 80.4269L97.0466 77.3269L95.1466 74.6269L76.2466 80.4269Z" fill="white"/>
<path d="M105.146 31.1269L108.746 66.5269L104.346 65.6269L105.146 31.1269Z" fill="white"/>
<path d="M168.246 69.1269L155.646 86.2269L155.046 83.7269L168.246 69.1269Z" fill="white"/>
<path d="M176.047 100.127L171.047 104.227L169.747 102.027L176.047 100.127Z" fill="white"/>
<path d="M142.446 99.9269L143.046 112.627L139.646 111.027L142.446 99.9269Z" fill="white"/>
<path d="M123.846 109.527L115.046 114.127L113.846 111.327C113.846 111.327 116.946 109.027 119.646 108.827C122.346 108.627 123.846 109.527 123.846 109.527Z" fill="white"/>
<path d="M93.4464 42.8268C93.1464 43.5268 90.9464 52.1268 90.9464 52.1268H88.0464L93.4464 42.8268Z" fill="white"/>
<path d="M202.046 121.327L176.246 127.927L175.946 132.027L202.046 121.327Z" fill="white"/>
<path d="M154.946 142.027L169.946 152.827L158.646 139.927L154.946 142.027Z" fill="white"/>
<path d="M330.846 305.527L365.346 311.627L336.346 300.427L330.846 305.527Z" fill="white"/>
<path d="M266.547 222.227C260.547 230.227 255.647 239.127 252.047 248.527C251.547 249.827 253.647 250.427 254.147 249.127C257.647 239.927 262.547 231.227 268.447 223.427C269.347 222.227 267.347 221.127 266.547 222.227Z" fill="#4B4325"/>
<path d="M256.446 252.427C263.946 245.727 271.446 239.027 278.846 232.427C279.946 231.427 278.346 229.927 277.246 230.827C269.746 237.527 262.246 244.227 254.846 250.827C253.846 251.827 255.446 253.427 256.446 252.427Z" fill="#4B4325"/>
<path d="M261.546 255.927C269.346 252.127 277.446 248.827 285.646 246.027C286.946 245.527 286.446 243.427 285.046 243.927C276.646 246.827 268.346 250.127 260.346 254.027C259.146 254.627 260.246 256.527 261.546 255.927Z" fill="#4B4325"/>
<path d="M290.046 249.627C285.046 257.027 280.146 264.327 275.146 271.727C274.346 272.927 276.246 274.027 277.046 272.827C282.046 265.427 286.946 258.127 291.946 250.727C292.746 249.627 290.846 248.527 290.046 249.627Z" fill="#4B4325"/>
<path d="M280.846 276.827C288.646 272.227 296.346 267.627 304.146 263.127C305.546 262.327 304.246 260.027 302.846 260.927C295.046 265.527 287.346 270.127 279.546 274.627C278.146 275.427 279.346 277.627 280.846 276.827Z" fill="#4B4325"/>
<path d="M303.546 266.427C298.646 271.927 293.646 277.327 288.746 282.827C287.746 283.927 289.346 285.427 290.346 284.427C295.246 278.927 300.246 273.527 305.146 268.027C306.046 266.927 304.546 265.327 303.546 266.427Z" fill="#4B4325"/>
<path d="M295.447 290.827C302.347 287.527 309.247 284.327 316.147 281.027C317.447 280.427 316.347 278.527 315.047 279.127C308.147 282.427 301.247 285.627 294.347 288.927C293.047 289.527 294.147 291.427 295.447 290.827Z" fill="#4B4325"/>
<path d="M321.946 286.827C315.846 289.527 310.346 293.427 305.746 298.227C304.746 299.227 306.346 300.827 307.346 299.827C311.846 295.127 317.146 291.427 323.046 288.727C324.346 288.227 323.246 286.327 321.946 286.827Z" fill="#4B4325"/>
<path d="M327.146 294.227C324.546 300.327 321.846 306.327 319.246 312.427C318.646 313.727 320.646 314.827 321.146 313.527C323.746 307.427 326.446 301.427 329.046 295.327C329.646 294.127 327.746 292.927 327.146 294.227Z" fill="#4B4325"/>
<path d="M322.847 316.927C326.247 311.627 330.447 306.427 335.747 302.827C336.947 302.027 335.847 300.127 334.647 300.927C329.047 304.727 324.647 310.127 320.947 315.827C320.147 317.027 322.047 318.127 322.847 316.927Z" fill="#4B4325"/>
<path d="M118.247 58.127C128.847 60.827 137.347 69.227 144.247 77.227C152.847 87.227 161.047 97.5269 169.447 107.627C174.347 113.527 179.147 119.427 184.047 125.227C184.847 126.127 186.447 126.027 187.147 125.227C188.047 124.327 187.947 123.027 187.147 122.127C178.347 111.527 169.547 100.927 160.847 90.327C156.547 85.127 152.247 79.827 147.847 74.6269C144.247 70.327 140.347 66.327 136.047 62.827C131.147 58.827 125.647 55.427 119.447 53.827C116.747 53.227 115.547 57.427 118.247 58.127Z" fill="black"/>
<path d="M194.347 135.727C200.547 145.427 207.747 154.427 214.947 163.327C224.547 175.227 234.447 186.727 244.447 198.327C255.447 210.927 266.447 223.427 277.547 235.927C287.947 247.727 298.347 259.427 308.647 271.327C312.947 276.327 317.247 281.427 321.547 286.427C323.447 288.627 325.247 290.927 327.147 293.227C327.947 294.227 328.747 295.227 329.547 296.227C329.947 296.727 330.347 297.227 330.747 297.727C330.947 297.927 331.047 298.127 331.247 298.327C331.347 298.427 331.447 298.627 331.547 298.727C331.847 299.127 331.547 298.727 331.647 298.927C332.347 299.827 333.047 300.727 333.647 301.627C334.347 302.627 335.547 303.127 336.647 302.427C337.547 301.827 338.147 300.327 337.447 299.427C330.547 290.127 322.947 281.327 315.447 272.527C305.447 260.927 295.347 249.427 285.147 237.927C274.047 225.427 262.947 212.927 252.047 200.327C241.747 188.527 231.547 176.727 221.647 164.627C214.047 155.327 206.747 146.327 200.047 136.327C199.447 135.427 198.847 134.527 198.247 133.527C196.647 131.027 192.747 133.327 194.347 135.727Z" fill="black"/>
<path d="M335.646 302.827C347.046 305.427 358.146 309.027 368.746 313.827C369.846 314.327 371.146 314.127 371.746 313.027C372.346 312.127 372.046 310.527 370.946 310.027C359.946 305.127 348.546 301.227 336.746 298.527C334.046 297.827 332.846 302.127 335.646 302.827Z" fill="black"/>
<path d="M324.347 315.027C306.947 298.427 289.647 281.927 272.147 265.427C254.647 248.927 237.147 232.527 219.447 216.327C201.747 200.127 183.947 184.027 165.847 168.227C147.847 152.527 129.647 137.027 111.147 121.927C95.6466 109.227 79.1466 96.4269 68.9466 78.6269C67.8466 76.7269 67.0466 74.6269 65.8466 72.8269C65.9466 73.4269 65.9466 73.9269 66.0466 74.5269C66.7466 70.8269 67.7466 66.9269 70.6466 64.3269C72.6466 62.6269 70.1466 59.6269 67.9466 60.8269H67.8466C68.5466 62.1269 69.3466 63.4269 70.0466 64.6269C72.7466 62.7269 75.4466 60.9269 78.1466 59.0269C79.5466 58.0269 80.9466 56.9269 82.3466 56.1269C82.7466 55.9269 83.6466 55.7269 84.3466 55.6269C90.7466 54.5269 97.2466 54.4269 103.647 55.2269C104.847 55.4269 105.847 54.1269 105.847 53.0269C105.847 51.7269 104.847 50.9269 103.647 50.8269C96.8466 50.0269 90.0466 50.3269 83.2466 51.4269C82.4466 51.5269 81.6466 51.7269 80.9466 52.0269C79.4466 52.7269 78.0466 54.0269 76.6466 54.9269C73.7466 56.9269 70.8466 58.9269 67.9466 60.9269C65.6466 62.5269 67.6466 66.1269 70.1466 64.7269H70.2466C69.3466 63.5269 68.4466 62.4269 67.5466 61.2269C65.5466 62.9269 64.2466 65.1269 63.3466 67.5269C62.9466 68.6269 62.5466 69.7269 62.3466 70.8269C62.0466 72.1269 61.3466 73.8269 62.0466 75.0269C64.4466 79.4269 66.7466 83.7269 69.6466 87.8269C75.8466 96.5269 83.4466 104.127 91.4466 111.127C100.147 118.727 109.247 125.827 118.147 133.227C127.847 141.227 137.447 149.427 147.047 157.627C166.247 174.127 185.047 190.827 203.747 207.827C222.547 224.827 241.047 242.127 259.547 259.527C277.947 276.827 296.247 294.227 314.547 311.727C316.847 313.927 319.047 316.027 321.347 318.227C323.347 320.227 326.447 317.027 324.347 315.027Z" fill="black"/>
<path d="M104.046 66.227C109.746 68.527 115.546 68.727 121.146 66.127C121.446 65.927 121.646 65.527 121.746 65.127C121.746 63.827 120.946 62.427 120.546 61.227C119.946 59.627 119.346 58.127 118.746 56.527C117.446 53.427 116.146 50.427 114.746 47.327C111.946 41.127 108.946 35.027 106.246 28.827C105.946 28.127 104.946 28.227 104.546 28.627C103.646 29.427 103.846 30.527 103.846 31.727C103.846 33.427 103.746 35.027 103.746 36.727C103.646 40.127 103.646 43.527 103.546 46.927C103.446 50.227 103.446 53.627 103.346 56.927C103.346 58.627 103.246 60.227 103.246 61.927C103.246 63.127 103.046 64.327 103.446 65.527C103.946 66.827 106.046 66.327 105.546 64.927C105.146 63.927 105.446 62.727 105.446 61.727C105.446 60.227 105.546 58.727 105.546 57.227C105.646 54.127 105.646 51.027 105.746 48.027C105.846 41.927 105.946 35.927 106.146 29.827C106.046 30.127 105.946 30.327 105.846 30.627C105.946 30.527 106.046 30.427 106.146 30.327C105.546 30.227 104.946 30.127 104.446 30.127C106.946 36.127 109.846 41.927 112.546 47.827C113.946 50.827 115.246 53.827 116.546 56.827C117.146 58.327 117.746 59.827 118.346 61.327C118.546 62.027 118.846 62.627 119.046 63.327C119.246 63.927 119.646 64.627 119.646 65.227C119.846 64.927 120.046 64.627 120.246 64.227C115.246 66.627 109.946 66.127 104.846 64.127C103.346 63.527 102.746 65.727 104.046 66.227Z" fill="black"/>
<path d="M93.0465 39.8268C91.3465 43.5268 89.5465 47.2268 87.4465 50.7268C86.6465 51.9268 88.6465 53.0268 89.3465 51.8268C91.5465 48.3268 93.2465 44.6268 94.9465 40.9268C95.2465 40.4268 95.1465 39.7268 94.5465 39.4268C94.0465 39.2268 93.2465 39.3268 93.0465 39.8268Z" fill="black"/>
<path d="M92.9463 40.6268C92.9463 44.5268 93.3463 48.4268 93.3463 52.2268C93.3463 53.6268 95.5463 53.6268 95.5463 52.2268C95.5463 48.3268 95.1463 44.4268 95.1463 40.6268C95.1463 39.2268 92.9463 39.2268 92.9463 40.6268Z" fill="black"/>
<path d="M46.9463 30.527C57.6463 39.027 69.0463 46.627 80.1463 54.527C81.0463 55.127 82.2463 53.927 81.6463 53.027C81.4463 52.827 81.3463 52.527 81.1463 52.327C80.3463 51.127 78.4463 52.227 79.2463 53.427C79.4463 53.627 79.5463 53.927 79.7463 54.127C80.2463 53.627 80.7463 53.127 81.2463 52.627C70.2463 44.827 59.0463 37.327 48.4463 28.927C47.4463 28.027 45.8463 29.627 46.9463 30.527Z" fill="black"/>
<path d="M46.8462 30.4268C53.6462 41.6268 59.8462 53.1268 66.6462 64.3268C67.3462 65.5268 69.3462 64.4268 68.5462 63.2268C61.7462 52.0268 55.5462 40.5268 48.7462 29.3268C48.0462 28.1268 46.1462 29.2268 46.8462 30.4268Z" fill="black"/>
<path d="M29.3465 88.427C41.7465 86.327 54.2465 84.527 66.6465 83.027C68.0465 82.827 68.0465 80.627 66.6465 80.827C53.9465 82.427 41.3465 84.227 28.7465 86.327C27.3465 86.527 27.9465 88.727 29.3465 88.427Z" fill="black"/>
<path d="M28.7465 88.627C43.9465 90.727 59.1465 92.627 74.3465 94.827C75.7465 95.027 76.3465 92.927 74.9465 92.727C59.7465 90.627 44.5465 88.727 29.3465 86.527C27.9465 86.227 27.3465 88.427 28.7465 88.627Z" fill="black"/>
<path d="M74.5464 81.527C81.0464 78.927 87.9464 77.427 94.5464 75.327C95.9464 74.927 95.3464 72.727 93.9464 73.227C87.2464 75.327 80.4464 76.827 73.9464 79.427C72.6464 79.927 73.2464 82.027 74.5464 81.527Z" fill="black"/>
<path d="M94.0464 75.1269C97.5464 76.2269 98.9464 81.2269 96.7464 84.1269C96.3464 84.6269 96.6464 85.3269 97.1464 85.6269C97.7464 85.9269 98.3464 85.7269 98.6464 85.2269C101.746 81.1269 99.4464 74.5269 94.5464 72.9269C93.2464 72.6269 92.6464 74.7269 94.0464 75.1269Z" fill="black"/>
<path d="M73.7465 81.7269C81.4465 83.2269 89.2465 84.8269 96.9465 86.3269C98.3465 86.6269 98.9465 84.4269 97.5465 84.2269C89.8465 82.7269 82.0465 81.1269 74.3465 79.6269C72.9465 79.3269 72.3465 81.5269 73.7465 81.7269Z" fill="black"/>
<path d="M168.946 65.7269C164.046 71.0269 159.246 76.2269 154.346 81.5269C153.346 82.5269 154.946 84.1269 155.946 83.1269C160.846 77.8269 165.646 72.6269 170.546 67.3269C171.546 66.2269 169.946 64.7269 168.946 65.7269Z" fill="black"/>
<path d="M168.846 66.127C165.746 74.427 162.946 82.827 159.846 91.027C159.346 92.327 161.546 92.927 161.946 91.627C165.046 83.327 167.846 74.927 170.946 66.727C171.446 65.427 169.346 64.827 168.846 66.127Z" fill="black"/>
<path d="M169.046 102.227C172.146 101.427 175.146 100.627 178.246 99.8269C179.646 99.4269 179.046 97.3269 177.646 97.7269C174.546 98.5269 171.546 99.3268 168.446 100.127C167.046 100.427 167.646 102.527 169.046 102.227Z" fill="black"/>
<path d="M176.847 98.1269C175.647 100.927 174.447 103.627 173.247 106.427C173.047 107.027 173.047 107.627 173.647 107.927C174.147 108.227 174.947 108.127 175.147 107.527C176.347 104.727 177.547 102.027 178.747 99.2269C178.947 98.6269 178.947 98.0269 178.347 97.7269C177.847 97.5269 177.047 97.6269 176.847 98.1269Z" fill="black"/>
<path d="M175.946 128.927C184.846 126.327 193.746 124.027 202.646 121.427C204.046 121.027 203.446 118.827 202.046 119.327C193.146 121.927 184.246 124.227 175.346 126.827C173.946 127.227 174.546 129.327 175.946 128.927Z" fill="black"/>
<path d="M201.746 119.827C197.346 127.627 191.846 134.627 186.446 141.727C185.546 142.827 187.546 143.927 188.346 142.827C193.746 135.727 199.246 128.727 203.646 120.927C204.346 119.727 202.446 118.627 201.746 119.827Z" fill="black"/>
<path d="M174.546 127.927C173.746 135.427 179.746 142.527 187.146 143.427C187.746 143.527 188.246 142.827 188.246 142.327C188.246 141.627 187.746 141.327 187.146 141.227C180.846 140.427 176.146 134.127 176.746 127.927C176.846 127.327 176.146 126.827 175.646 126.827C175.046 126.827 174.646 127.327 174.546 127.927Z" fill="black"/>
<path d="M157.446 140.727C161.746 145.227 166.146 149.727 169.746 154.927C170.546 156.127 172.446 155.027 171.646 153.827C168.046 148.427 163.546 143.827 159.046 139.227C157.946 138.127 156.446 139.627 157.446 140.727Z" fill="black"/>
<path d="M152.747 151.627C158.547 152.827 164.347 154.227 170.147 155.427C171.547 155.727 172.147 153.627 170.747 153.327C164.947 152.127 159.147 150.727 153.347 149.527C151.947 149.227 151.347 151.327 152.747 151.627Z" fill="black"/>
<path d="M157.646 138.827C152.446 139.827 149.446 146.427 151.946 151.027C152.646 152.327 154.546 151.127 153.846 149.927C152.046 146.527 154.346 141.727 158.246 141.027C158.846 140.927 159.146 140.227 159.046 139.627C158.846 138.927 158.246 138.727 157.646 138.827Z" fill="black"/>
<path d="M141.246 97.327C140.646 101.927 139.646 106.527 138.946 111.127C138.846 111.727 139.146 112.327 139.746 112.527C140.246 112.627 141.046 112.327 141.146 111.727C141.946 106.927 142.946 102.127 143.546 97.327C143.646 96.727 142.946 96.227 142.446 96.227C141.746 96.127 141.346 96.727 141.246 97.327Z" fill="black"/>
<path d="M141.846 97.627C144.646 101.727 147.346 106.027 149.946 110.227C150.746 111.427 152.646 110.327 151.846 109.127C149.146 104.927 146.546 100.627 143.746 96.527C143.046 95.327 141.046 96.427 141.846 97.627Z" fill="black"/>
<path d="M139.946 112.427C143.646 115.427 149.346 114.627 152.046 110.827C152.446 110.327 152.146 109.627 151.646 109.327C151.046 109.027 150.446 109.227 150.146 109.727C148.246 112.327 143.946 112.827 141.546 110.827C141.046 110.427 140.446 110.327 139.946 110.827C139.546 111.227 139.446 112.027 139.946 112.427Z" fill="black"/>
<path d="M114.946 111.727C117.246 109.627 120.046 108.827 123.046 109.527C123.646 109.627 124.246 109.327 124.446 108.727C124.646 108.127 124.246 107.527 123.646 107.327C121.846 106.927 119.946 106.927 118.146 107.427C116.346 107.927 114.746 108.927 113.346 110.127C112.946 110.527 112.946 111.327 113.346 111.727C113.846 112.127 114.446 112.127 114.946 111.727Z" fill="black"/>
<path d="M122.547 109.127C122.847 109.427 122.947 109.527 123.047 109.727C123.147 109.827 123.147 109.927 123.247 110.127C123.247 110.227 123.447 110.627 123.347 110.427C123.447 110.727 123.547 111.027 123.647 111.327C123.647 111.427 123.647 111.427 123.647 111.527C123.647 111.727 123.647 111.927 123.647 112.127C123.647 112.327 123.647 112.427 123.647 112.627C123.647 112.727 123.647 113.027 123.647 112.827C123.647 113.127 123.547 113.527 123.447 113.827C123.247 114.427 123.047 114.727 122.647 115.327C122.647 115.327 122.447 115.527 122.647 115.427C122.647 115.527 122.547 115.527 122.547 115.627C122.447 115.727 122.347 115.827 122.247 115.927C122.147 116.027 122.147 116.027 122.047 116.127C122.047 116.127 121.847 116.327 121.947 116.227C122.047 116.127 121.747 116.327 121.847 116.327C121.747 116.427 121.647 116.427 121.547 116.527C121.047 116.827 120.547 117.027 119.947 117.027C118.647 117.127 117.447 116.427 116.447 115.527C115.947 115.027 115.547 114.327 115.347 113.727C115.047 112.927 115.047 112.227 115.247 111.527C115.547 110.127 113.447 109.527 113.147 110.927C112.147 114.827 115.447 118.827 119.347 119.227C123.047 119.627 125.747 116.327 126.047 112.827C126.247 110.927 125.547 109.027 124.247 107.727C123.047 106.527 121.447 108.127 122.547 109.127Z" fill="black"/>
<path d="M94.6465 113.227C94.9465 124.827 95.2465 136.427 95.4465 148.027C95.4465 149.427 97.7465 149.427 97.6465 148.027C97.3465 136.427 97.0465 124.827 96.8465 113.227C96.8465 111.827 94.6465 111.827 94.6465 113.227Z" fill="black"/>
<path d="M105.446 122.527C102.146 130.627 98.9462 138.827 95.6462 146.927C96.3462 147.127 97.0462 147.327 97.7462 147.527C97.9462 147.027 98.1462 146.527 98.3462 146.027C98.8462 144.727 96.6462 144.127 96.2462 145.427C96.0462 145.927 95.8462 146.427 95.6462 146.927C95.1462 148.327 97.2462 148.827 97.7462 147.527C101.046 139.427 104.246 131.227 107.546 123.127C108.146 121.827 105.946 121.227 105.446 122.527Z" fill="black"/>
<path d="M136.747 148.127C134.247 153.827 131.747 159.527 129.247 165.227C128.647 166.527 130.547 167.627 131.147 166.327C133.647 160.627 136.147 154.927 138.647 149.227C139.247 148.027 137.247 146.827 136.747 148.127Z" fill="black"/>
<path d="M130.747 166.827C136.847 164.327 142.847 161.627 149.047 159.427C150.347 158.927 149.847 156.827 148.447 157.327C142.247 159.527 136.247 162.327 130.147 164.727C128.847 165.227 129.447 167.427 130.747 166.827Z" fill="black"/>
<path d="M332.246 368.027C332.346 350.727 330.046 333.227 324.746 316.827C323.846 314.127 319.546 315.227 320.446 318.027C325.646 334.127 327.846 351.127 327.746 368.027C327.746 370.827 332.246 370.827 332.246 368.027Z" fill="black"/>
<path d="M364.646 312.727C355.946 326.727 347.446 340.927 339.146 355.127C336.746 359.227 334.446 363.327 332.046 367.427C331.346 368.627 333.246 369.827 333.946 368.527C342.146 354.227 350.546 340.027 359.046 325.927C361.546 321.927 363.946 317.827 366.446 313.827C367.346 312.627 365.446 311.527 364.646 312.727Z" fill="black"/>
<path d="M331.246 371.427C341.146 367.227 350.046 361.127 357.746 353.627C359.846 351.627 356.646 348.527 354.646 350.527C347.246 357.727 338.646 363.527 329.046 367.627C327.946 368.127 327.746 369.727 328.246 370.627C328.846 371.727 330.046 371.927 331.246 371.427Z" fill="black"/>
<path d="M367.546 311.427C362.946 324.627 358.946 338.027 353.946 351.127C353.546 352.227 354.446 353.527 355.546 353.827C356.846 354.127 357.846 353.427 358.246 352.227C363.346 339.127 367.246 325.727 371.846 312.527C372.846 309.827 368.546 308.727 367.546 311.427Z" fill="black"/>
<path d="M153.646 95.027L168.246 116.227L167.046 129.127L174.946 141.427L177.446 147.527L180.446 152.227L202.346 159.827L201.946 158.627L200.846 155.127L200.946 150.427L202.846 151.627L211.046 171.827L208.046 178.827C208.046 178.827 211.146 183.027 213.146 186.027C214.246 187.627 215.046 188.927 215.046 189.127C215.046 189.927 217.246 195.427 217.246 195.427L234.446 205.827L237.746 209.927L248.146 206.527L252.546 211.027L246.946 209.827L239.846 212.227L242.846 219.827L252.046 223.427L260.646 230.127L259.046 232.427L252.446 226.127L250.546 225.727L249.146 233.927L246.446 239.227L247.946 232.127L248.246 224.627L241.946 222.427L237.646 212.527L230.246 205.427L224.346 203.027L226.846 212.027L229.446 225.227L226.746 223.227L224.946 211.327L221.846 203.127L220.846 200.727L214.246 197.827L212.246 188.727L205.346 178.627L207.746 171.927L203.646 162.127L198.746 160.427L194.746 159.827L180.946 154.627L176.846 150.827L174.146 143.027L166.046 132.227L165.246 129.927C165.246 129.927 161.046 123.827 161.046 124.127C161.046 124.327 162.146 124.127 162.146 124.127L165.046 128.027L166.346 117.327L153.646 95.027Z" fill="#00FFFF"/>
<path d="M334.046 307.727L338.846 312.527C338.846 312.527 344.246 311.727 344.646 311.627C345.046 311.527 348.846 312.127 348.846 312.127L351.246 313.127L344.046 313.227L340.746 314.027L343.846 318.227L342.046 327.427L343.546 334.727L340.846 329.727L335.946 334.127L335.346 335.927L335.946 344.827L334.346 357.027L333.946 343.527L332.946 334.127L340.546 326.727L342.046 319.727L335.346 311.327L334.046 307.727Z" fill="#00FFFF"/>
</svg>
