<svg width="400" height="400" viewBox="0 0 400 400" fill="none" xmlns="http://www.w3.org/2000/svg">
<path d="M291.955 297.016C291.955 297.016 343.894 355.595 345.038 354.715C346.191 353.838 364.989 350.591 364.989 350.591L371.575 357.566L391.09 345.961C391.09 345.961 304.091 276.649 303.946 277.317C303.801 277.985 291.955 297.016 291.955 297.016Z" fill="#612209"/>
<path d="M307.061 310.731C309.704 303.144 312.327 295.559 314.969 287.973C315.527 286.367 313.051 285.489 312.485 287.091C309.842 294.677 307.219 302.262 304.576 309.849C304.018 311.454 306.495 312.333 307.061 310.731Z" fill="#8A491B"/>
<path d="M317.694 321.749C320.218 313.257 322.912 304.814 325.433 296.331C325.912 294.712 323.438 293.825 322.949 295.449C320.424 303.94 317.731 312.383 315.21 320.867C314.731 322.486 317.204 323.372 317.694 321.749Z" fill="#8A491B"/>
<path d="M329.071 332.651C331.65 323.719 334.729 314.902 338.295 306.328C338.95 304.762 336.463 303.888 335.81 305.446C332.241 314.029 329.162 322.845 326.587 331.769C326.117 333.391 328.598 334.281 329.071 332.651Z" fill="#8A491B"/>
<path d="M343.824 347.271L353.612 319.797C354.178 318.195 351.702 317.317 351.128 318.915L341.34 346.389C340.774 347.991 343.25 348.87 343.824 347.271Z" fill="#8A491B"/>
<path d="M361.925 350.26C364.069 343.661 366.228 337.069 368.372 330.47C368.894 328.86 366.409 327.978 365.887 329.588C363.744 336.187 361.584 342.779 359.441 349.378C358.919 350.988 361.403 351.87 361.925 350.26Z" fill="#8A491B"/>
<path d="M92.8548 115.587L212.018 230.335L208.52 247.826L256.687 297.815L282.459 270.634L288.929 244.83L95.9634 84.0522L92.8548 115.587Z" fill="#E49329"/>
<path d="M96.0646 89.919L287.442 257.065L289.95 247.671C289.95 247.671 94.0057 82.3726 94.3024 83.9621C94.5991 85.5516 96.0646 89.919 96.0646 89.919Z" fill="#FECB5E"/>
<path d="M127.715 146.688C127.802 145.177 117.955 105.173 117.955 105.173L142.051 123.77L151.342 168.737L127.715 146.688Z" fill="#FFE8AB"/>
<path d="M157.183 175.856L171.821 189.893L161.482 141.396L151.489 132.076L157.183 175.856Z" fill="#FFE8AB"/>
<path d="M231.608 272.375L247.802 288.741C247.802 288.741 230.951 198.105 229.661 197.23C228.371 196.356 212.519 181.795 212.368 182.951C212.208 184.103 225.336 227.589 227.327 238.059C229.313 248.518 231.605 272.383 231.605 272.383L231.608 272.375Z" fill="#FFE8AB"/>
<path d="M94.9655 102.479L131.191 135.749L167.417 169.019L203.472 202.126L239.697 235.396L275.923 268.666L280.429 272.809C281.993 274.247 283.966 271.605 282.423 270.186L246.197 236.916L209.971 203.646L173.916 170.538L137.691 137.268L101.465 103.998L96.9591 99.8553C95.3948 98.418 93.4223 101.06 94.9655 102.479Z" fill="black"/>
<path d="M237.64 216.029L274.436 249.64L284.879 259.178C285.508 259.75 286.297 258.699 285.676 258.13L248.88 224.519L238.437 214.981C237.808 214.409 237.019 215.46 237.64 216.029Z" fill="black"/>
<path d="M253.833 261.394L274.358 280.645C274.975 281.222 275.764 280.171 275.155 279.597L254.63 260.346C254.013 259.769 253.224 260.82 253.833 261.394Z" fill="black"/>
<path d="M297.666 216.615C297.098 217.962 283.351 271.868 283.351 271.868L238.568 321.328L275.596 315.946L329.931 242.755L301.111 215.147L297.671 216.626L297.666 216.615Z" fill="#471F0E"/>
<path d="M232.449 257.26L266.039 289.955C266.641 290.545 267.433 289.486 266.835 288.907L233.245 256.212C232.643 255.622 231.851 256.681 232.449 257.26Z" fill="black"/>
<path d="M295.776 228.397C295.868 228.377 296.413 228.784 297.293 229.504C303.245 234.368 324.487 253.595 324.487 253.595L328.953 245.645L302.802 216.221L298.251 217.839L295.865 228.385" fill="#713D12"/>
<path d="M253.883 316.961L264.97 309.24L284.51 285.38C284.51 285.38 282.732 282.735 284.999 279.005C287.266 275.275 291.2 276.634 291.2 276.634L314.543 244.973L317.45 234.184L319.846 236.369L317.021 245.824L293.393 278.125C293.393 278.125 296.25 280.806 293.845 284.34C290.347 289.472 286.388 287.518 286.388 287.518L267.514 310.419L260.967 315.961L253.896 316.975L253.883 316.961Z" fill="#00FDFF"/>
<path d="M290.823 283.807C291.796 282.812 291.801 281.238 290.834 280.291C289.866 279.345 288.293 279.385 287.32 280.38C286.346 281.375 286.341 282.949 287.309 283.895C288.276 284.841 289.85 284.802 290.823 283.807Z" fill="#471F0E"/>
<path d="M301.815 281.884L307.81 287.557C307.81 287.557 301.456 297.749 301.898 298.199C315.845 312.383 347.941 346.855 348.89 347.264C350.107 347.779 364.918 343.634 366.724 343.292C368.53 342.95 377.618 353.566 377.618 353.566L373.056 357.659L363.699 349.716L349.382 355.05L343.796 351.248L290.372 296.354L301.815 281.884Z" fill="#361206"/>
<mask id="mask0_5624_9319" style="mask-type:luminance" maskUnits="userSpaceOnUse" x="290" y="281" width="88" height="77">
<path d="M301.815 281.884L307.81 287.557C307.81 287.557 301.456 297.749 301.898 298.199C315.845 312.383 347.941 346.855 348.89 347.264C350.107 347.779 364.918 343.634 366.724 343.292C368.53 342.95 377.618 353.566 377.618 353.566L373.056 357.659L363.699 349.716L349.382 355.05L343.796 351.248L290.372 296.354L301.815 281.884Z" fill="white"/>
</mask>
<g mask="url(#mask0_5624_9319)">
<path d="M307.061 310.731C309.704 303.144 312.327 295.559 314.969 287.973C315.527 286.367 313.051 285.489 312.485 287.091C309.842 294.677 307.219 302.262 304.576 309.849C304.018 311.454 306.495 312.333 307.061 310.731Z" fill="#5C2F0E"/>
<path d="M317.694 321.749C320.218 313.257 322.912 304.814 325.433 296.331C325.912 294.712 323.438 293.825 322.949 295.449C320.424 303.94 317.731 312.383 315.21 320.867C314.731 322.486 317.204 323.372 317.694 321.749Z" fill="#5C2F0E"/>
<path d="M329.071 332.651C331.65 323.719 334.729 314.902 338.295 306.328C338.95 304.762 336.463 303.888 335.81 305.446C332.241 314.029 329.162 322.845 326.587 331.769C326.117 333.391 328.598 334.281 329.071 332.651Z" fill="#5C2F0E"/>
<path d="M343.824 347.271L353.612 319.797C354.178 318.195 351.702 317.317 351.128 318.915L341.34 346.389C340.774 347.991 343.25 348.87 343.824 347.271Z" fill="#5C2F0E"/>
<path d="M361.925 350.26C364.069 343.661 366.228 337.069 368.372 330.47C368.894 328.86 366.409 327.978 365.887 329.588C363.744 336.187 361.584 342.779 359.441 349.378C358.919 350.988 361.403 351.87 361.925 350.26Z" fill="#5C2F0E"/>
</g>
<path d="M302.009 284.79C303.226 285.306 381.903 351.106 381.903 351.106L388.711 347.573C388.711 347.573 386.083 343.588 385.52 342.571C384.953 341.561 304.473 276.095 303.954 277.32C303.435 278.545 302.009 284.79 302.009 284.79Z" fill="#843F0E"/>
<mask id="mask1_5624_9319" style="mask-type:luminance" maskUnits="userSpaceOnUse" x="302" y="277" width="87" height="75">
<path d="M302.009 284.79C303.226 285.306 381.903 351.106 381.903 351.106L388.711 347.573C388.711 347.573 386.083 343.588 385.52 342.571C384.953 341.561 304.473 276.095 303.954 277.32C303.435 278.545 302.009 284.79 302.009 284.79Z" fill="white"/>
</mask>
<g mask="url(#mask1_5624_9319)">
<path d="M307.061 310.731C309.704 303.145 312.327 295.56 314.969 287.973C315.527 286.368 313.051 285.489 312.485 287.091C309.842 294.678 307.219 302.263 304.576 309.849C304.018 311.455 306.495 312.334 307.061 310.731Z" fill="#D07C40"/>
<path d="M317.694 321.75C320.218 313.258 322.912 304.815 325.433 296.331C325.912 294.713 323.438 293.826 322.949 295.449C320.424 303.941 317.731 312.384 315.21 320.868C314.731 322.486 317.204 323.373 317.694 321.75Z" fill="#D07C40"/>
<path d="M329.071 332.652C331.65 323.719 334.729 314.903 338.295 306.329C338.95 304.762 336.463 303.888 335.81 305.447C332.241 314.029 329.162 322.846 326.587 331.77C326.117 333.391 328.598 334.281 329.071 332.652Z" fill="#D07C40"/>
<path d="M343.824 347.271L353.612 319.798C354.178 318.196 351.702 317.317 351.128 318.916L341.34 346.389C340.774 347.991 343.25 348.87 343.824 347.271Z" fill="#D07C40"/>
<path d="M361.925 350.26C364.069 343.661 366.228 337.069 368.372 330.47C368.894 328.86 366.409 327.978 365.887 329.589C363.744 336.187 361.584 342.779 359.441 349.378C358.919 350.988 361.403 351.87 361.925 350.26Z" fill="#D07C40"/>
</g>
<path d="M95.8317 110.274C98.7473 113.751 212.441 224.668 214.661 226.491C216.882 228.314 217.583 230.047 217.051 233.142C216.518 236.238 214.156 246.794 215.152 248.098C216.148 249.401 262.121 292.628 262.121 292.628L258.66 298.633L208.811 246.793L212.84 232.568L94.6719 116.324L92.3218 105.927L95.8383 110.258L95.8317 110.274Z" fill="#8A4A00"/>
<path d="M94.3491 114.988C94.952 104.303 96.3317 93.7026 97.6073 83.0797C97.9646 80.1399 93.3852 79.6162 93.0247 82.5641C91.7409 93.1838 90.3693 103.787 89.7664 114.472C89.5977 117.412 94.1787 117.955 94.3491 114.988Z" fill="black"/>
<path d="M94.0635 84.913C143.216 127.122 193.07 168.5 243.037 209.734C258.235 222.279 273.455 234.814 288.667 247.346C290.964 249.237 293.738 245.559 291.457 243.674C239.987 201.272 188.49 158.916 137.545 115.885C123.934 104.391 110.371 92.8494 96.8539 81.2415C94.6039 79.3033 91.8265 82.9894 94.0635 84.913Z" fill="black"/>
<path d="M90.8537 116.605C130.223 155.489 170.421 193.528 210.018 232.174C212.437 234.538 215.598 230.317 213.205 227.982C173.612 189.328 133.41 151.298 94.0409 112.413C91.6367 110.036 88.4756 114.257 90.8537 116.605Z" fill="black"/>
<path d="M211.529 248.503L214.747 231.267C215.371 227.944 210.138 227.356 209.514 230.68L206.297 247.916C205.673 251.239 210.905 251.827 211.529 248.503Z" fill="black"/>
<path d="M206.425 250.56L253.937 298.985C256.288 301.378 260.467 298.169 258.096 295.758L210.584 247.333C208.233 244.94 204.054 248.149 206.425 250.56Z" fill="black"/>
<path d="M217.31 265.093L252.222 302.324C254.812 305.087 259.503 301.469 256.901 298.693L221.989 261.461C219.4 258.699 214.708 262.316 217.31 265.093Z" fill="black"/>
<path d="M239.728 324.952L283.41 275.512C285.942 272.651 281.204 269.085 278.691 271.925L235.009 321.364C232.477 324.225 237.215 327.791 239.728 324.952Z" fill="black"/>
<path d="M284.793 273.587C290.047 253.904 296.257 234.491 301.51 214.808C302.477 211.17 296.993 208.926 296.01 212.605C290.757 232.288 284.547 251.701 279.293 271.384C278.326 275.022 283.81 277.266 284.793 273.587Z" fill="black"/>
<path d="M296.669 214.915L326.675 244.694C329.345 247.348 334.053 243.737 331.353 241.063L301.347 211.283C298.677 208.63 293.969 212.24 296.669 214.915Z" fill="black"/>
<path d="M327.019 241.316L273.547 313.316C271.272 316.383 275.987 319.959 278.267 316.903L331.738 244.903C334.013 241.836 329.299 238.26 327.019 241.316Z" fill="black"/>
<path d="M238.458 325.791C251.225 323.127 263.995 320.502 276.758 317.846C280.472 317.071 279.633 311.21 275.88 311.988C263.113 314.653 250.343 317.278 237.58 319.934C233.866 320.709 234.705 326.57 238.458 325.791Z" fill="black"/>
<path d="M289.852 299.936L343.71 356.125C346.331 358.853 351.023 355.236 348.388 352.493L294.531 296.304C291.909 293.576 287.217 297.193 289.852 299.936Z" fill="black"/>
<path d="M346.789 357.075C353.266 355.427 359.999 354.645 366.171 351.97C369.674 350.45 367.349 345.003 363.838 346.52C358.133 348.995 351.898 349.685 345.911 351.218C342.257 352.149 343.082 358.023 346.789 357.075Z" fill="black"/>
<path d="M363.402 351.728L370.667 358.588C371.83 359.686 373.93 359.197 374.814 358.025C375.87 356.637 375.414 354.974 374.251 353.877L366.986 347.017C365.823 345.92 363.723 346.408 362.839 347.581C361.783 348.968 362.239 350.631 363.402 351.728Z" fill="black"/>
<path d="M374.131 358.835C380.456 355.495 386.844 352.256 392.971 348.563C396.237 346.599 392.56 341.94 389.339 343.884C383.647 347.317 377.679 350.282 371.806 353.388C368.458 355.158 370.76 360.614 374.139 358.838L374.131 358.835Z" fill="black"/>
<path d="M303.825 281.36L389.094 348.546C392.097 350.909 395.668 346.183 392.681 343.827L307.412 276.641C304.409 274.278 300.838 279.004 303.825 281.36Z" fill="black"/>
<path d="M303.812 309.873C305.389 310.505 306.368 308.059 304.792 307.428C303.216 306.797 302.236 309.242 303.812 309.873Z" fill="black"/>
<path d="M103.87 129.242C103.785 129.171 103.706 129.11 103.621 129.039C103.612 129.063 103.589 129.073 103.582 129.089C98.4853 137.343 94.6859 151.395 83.2199 152.648C78.5263 153.162 74.1023 150.58 71.042 147.204C67.3597 143.146 65.6117 138.025 64.6829 132.694C63.6553 126.786 63.5215 120.765 62.6141 114.839C61.7261 109.006 60.2027 103.277 58.1348 97.7538C53.994 86.6961 47.0702 77.5499 40.6521 67.7767C34.0147 57.68 27.6001 47.4273 30.3419 32.6024C30.7768 30.2689 30.6307 29.9747 29.9408 31.7913C25.8585 42.5251 29.2579 54.2569 34.714 63.8428C41.021 74.9291 49.4544 84.5196 54.3797 96.4195C56.8943 102.499 58.6547 108.86 59.6447 115.356C60.6396 121.864 60.6918 128.512 62.0475 134.966C64.0146 144.343 70.3413 154.956 80.9856 155.684C94.9955 156.648 99.961 140.884 105.79 131.227C105.106 130.605 104.487 129.914 103.862 129.239L103.87 129.242Z" fill="#00FDFF"/>
<path d="M190.993 213.735C190.614 213.338 190.218 212.962 189.814 212.584C189.682 212.653 189.552 212.743 189.43 212.882C186.796 215.74 182.757 216.291 179.176 215.017C175.182 213.596 172.582 209.943 171.163 206.094C167.891 197.223 170.124 187.106 172.637 178.336C175.191 169.441 178.518 160.592 179.046 151.272C179.508 143.057 177.727 133.944 171.841 127.834C166.202 121.975 155.024 120.297 147.433 123.95C147.818 124.237 148.178 124.56 148.531 124.881C148.891 125.204 149.237 125.541 149.598 125.864C149.64 125.9 149.674 125.933 149.717 125.968C149.793 126.037 149.865 126.093 149.944 126.154C157.19 123.456 167.109 126.043 171.367 131.981C176.785 139.544 176.799 149.561 175.09 158.323C173.243 167.784 169.457 176.742 167.623 186.217C166.007 194.583 165.751 204.237 170.598 211.647C174.951 218.292 185.308 221.762 191.376 215.18C191.563 214.972 191.682 214.746 191.745 214.517C191.5 214.258 191.25 213.988 191.001 213.738L190.993 213.735Z" fill="#00FDFF"/>
<path d="M250.853 181.522C241.343 176.384 228.707 177.687 220.785 185.157C221.005 185.312 221.215 185.471 221.421 185.638C221.891 185.996 222.351 186.378 222.788 186.77C222.906 186.874 223.03 186.99 223.145 187.102C230.272 180.746 241.459 179.579 249.776 184.353C259.747 190.081 262.73 202.664 261.035 213.345C259.103 225.488 251.485 235.918 244.094 245.355C240.174 250.365 236.136 255.29 232.529 260.53C229.144 265.452 225.777 270.845 224.06 276.615C222.372 282.312 222.855 289.274 227.958 293.128C232.641 296.663 239.027 295.667 244.361 294.588C244.535 294.554 244.683 294.491 244.826 294.416C244.569 294.163 244.305 293.906 244.066 293.631C243.483 293.086 242.917 292.521 242.407 291.911C237.699 292.816 231.978 293.494 228.561 289.599C224.151 284.58 226.598 277.292 229.165 272.06C234.788 260.586 243.749 251.231 251.201 240.98C258.114 231.464 264.277 220.48 264.51 208.412C264.714 197.897 260.522 186.734 250.864 181.517L250.853 181.522Z" fill="#00FDFF"/>
<path d="M115.254 140.363L115.246 140.36C98.4261 143.446 79.998 141.439 66.2233 130.567C59.9282 125.595 54.8835 118.983 52.1128 111.425C48.8292 102.464 50.0377 93.068 50.9666 83.8051C51.9705 73.837 50.4405 64.7111 44.7922 55.9816C43.7431 54.3641 43.2261 54.9489 44.2671 56.5632C49.7562 65.031 48.7893 75.6833 47.7936 85.2306C46.8241 94.5243 46.113 103.761 49.3868 112.699C55.2496 128.708 70.1797 139.543 86.4474 143.155C96.4458 145.378 106.879 145.079 116.891 143.102C117.219 143.036 117.463 142.898 117.652 142.709C116.827 141.945 115.977 141.218 115.254 140.363Z" fill="#00FDFF"/>
<path d="M200.772 223.12C200.249 222.684 199.74 222.235 199.287 221.742C195.385 225.789 189.743 231.024 184.288 232.733C179.316 234.296 173.674 233.318 170.774 228.649C168.137 224.406 168.037 218.983 168.439 214.167C168.895 208.674 170.152 203.276 172.164 198.133C176.009 188.322 183.243 180.783 188.387 171.729C193.253 163.157 194.959 153.13 189.701 144.274C183.841 134.404 171.8 130.288 161.032 134.036C160.562 134.196 160.297 134.505 160.196 134.851C160.607 135.12 161.022 135.38 161.426 135.664C161.831 135.949 162.251 136.287 162.601 136.663C172.875 133.255 184.2 138.403 188.399 148.372C192.7 158.56 187.475 168.309 181.658 176.594C178.761 180.723 175.676 184.729 173.165 189.116C170.458 193.848 168.374 198.934 167.057 204.223C164.89 212.905 163.079 225.643 170.177 232.681C174.011 236.479 179.694 237.19 184.728 235.709C190.912 233.896 197.074 228.351 201.412 223.828C201.448 223.786 201.472 223.749 201.508 223.706C201.259 223.503 201.019 223.303 200.77 223.1L200.772 223.12Z" fill="#00FDFF"/>
<path d="M250.554 198.014C245.51 191.12 235.87 187.485 227.822 191.031C227.776 191.05 227.747 191.076 227.702 191.096C228.451 191.697 229.2 192.299 229.869 192.982C230.015 193.087 230.161 193.193 230.299 193.296C237.924 190.759 246.281 195.643 249.813 202.525C254.346 211.355 252.669 221.78 249.61 230.783C246.484 239.977 242.289 248.733 239.564 258.078C236.9 267.202 235.161 276.744 235.461 286.282C235.6 290.806 236.428 295.824 239.931 299.036C242.868 301.731 247.427 302.916 250.979 300.709C250.213 299.987 249.475 299.239 248.811 298.426C245.233 299.897 241.417 297.209 239.889 293.844C237.925 289.522 238.288 284.19 238.592 279.57C239.25 269.689 241.754 260.049 245.104 250.766C248.355 241.754 252.723 233.086 254.679 223.659C256.467 215.052 255.88 205.314 250.538 198.008L250.554 198.014Z" fill="#00FDFF"/>
<path d="M36.2107 39.7229C36.1425 39.6108 36.0564 39.5197 35.9411 39.4546C35.9248 39.4481 35.9037 39.4303 35.8907 39.4156C35.8744 39.4091 35.8501 39.3994 35.8371 39.3847C35.7542 39.3327 35.6648 39.2969 35.5624 39.2936C35.4666 39.2741 35.3723 39.274 35.2764 39.3016C35.1724 39.3259 35.0814 39.3649 35.005 39.438C34.9188 39.4883 34.8505 39.5647 34.8066 39.6508L34.735 39.8295C34.6943 39.9546 34.6894 40.0846 34.7235 40.2114C34.7446 40.2764 34.777 40.3366 34.7981 40.4016C34.8631 40.5219 34.9573 40.6162 35.0727 40.6813C34.9557 40.5967 34.9183 40.5723 34.9606 40.6081L34.9768 40.6146C34.9768 40.6146 35.032 40.665 35.0613 40.6861C35.0856 40.6959 35.1117 40.7251 35.136 40.7349C35.1523 40.7414 35.1766 40.7512 35.1896 40.7658C35.2806 40.8211 35.3732 40.8488 35.4756 40.8521C35.5796 40.8749 35.6771 40.8668 35.773 40.8392C35.8998 40.8051 36.012 40.7369 36.1063 40.6427C36.2006 40.5485 36.2656 40.4331 36.2982 40.3047C36.3291 40.204 36.3324 40.1017 36.3048 40.0058C36.2967 39.9082 36.2691 39.8123 36.2107 39.7229Z" fill="#00FDFF"/>
<path d="M25.8258 61.3195C25.8047 61.2544 25.7722 61.1943 25.7251 61.1471C25.6715 61.0691 25.6033 61.0041 25.5091 60.9569L25.3303 60.8853L25.1353 60.8543C25.0329 60.851 24.9322 60.8673 24.846 60.9176C24.7501 60.9452 24.6721 60.9987 24.6038 61.0751C24.4982 61.0799 24.3974 61.0961 24.2983 61.1318C24.2186 61.1659 24.1438 61.2114 24.0772 61.2602C24.0479 61.2861 24.0154 61.3203 23.9942 61.3495C23.965 61.3755 23.9325 61.4096 23.9113 61.4389C23.7845 61.6143 23.7373 61.8028 23.7388 62.0108C23.7355 62.1603 23.7679 62.3147 23.8345 62.4545C23.8442 62.4773 23.8653 62.4951 23.8783 62.5098C23.8735 62.5455 23.849 62.5829 23.8523 62.6219C23.8766 62.8202 23.9545 63.0022 24.0991 63.1356C24.294 63.3079 24.5946 63.3812 24.8385 63.2903L25.0156 63.201C25.0709 63.1571 25.1294 63.1052 25.1766 63.0581C25.2058 63.0321 25.227 63.0028 25.2562 62.9768C25.3424 62.8794 25.4124 62.7754 25.4904 62.6746C25.5603 62.5707 25.6254 62.4553 25.6823 62.3367C25.7539 62.158 25.8255 61.9792 25.8727 61.7907L25.9037 61.5957C25.907 61.4933 25.8908 61.3926 25.8404 61.3064L25.8258 61.3195Z" fill="#00FDFF"/>
<path d="M52.7731 58.2734C52.7227 58.3287 52.6788 58.3676 52.6316 58.4147L52.7812 58.2767L52.7731 58.2734Z" fill="#00FDFF"/>
<path d="M53.1901 56.9035C53.0846 56.7669 52.9709 56.6271 52.8653 56.4905C52.901 56.5426 52.9449 56.5979 52.9839 56.6418C52.8604 56.4792 52.8069 56.4011 52.6769 56.2548C52.7159 56.2987 52.7597 56.354 52.7987 56.3979C52.6802 56.2467 52.5665 56.0597 52.4122 55.9508C52.3001 55.8776 52.1863 55.832 52.0628 55.8109C51.9637 55.7994 51.8662 55.8075 51.7751 55.8465C51.6744 55.8627 51.5882 55.9131 51.5037 55.9829C51.4045 56.0657 51.3264 56.1664 51.2858 56.2916C51.2369 56.4134 51.2239 56.5402 51.2466 56.6718C51.2693 56.8035 51.3229 56.9286 51.4106 57.0392C51.4642 57.1172 51.534 57.2017 51.5909 57.2716C51.5551 57.2196 51.5194 57.1676 51.4837 57.1156C51.5324 57.1822 51.5811 57.2489 51.6379 57.3188L51.6282 57.3432C51.4932 57.4683 51.4346 57.7087 51.4524 57.8761C51.4719 58.063 51.5758 58.2744 51.7269 58.3914C51.878 58.5085 52.0762 58.5785 52.2663 58.5509L52.4549 58.5039C52.5768 58.4584 52.6841 58.3789 52.7703 58.2814C52.8873 58.1774 52.9962 58.0702 53.1084 57.9549C53.2385 57.8184 53.3588 57.6592 53.3736 57.4577C53.3802 57.253 53.3298 57.0726 53.2015 56.8986L53.1901 56.9035Z" fill="#00FDFF"/>
<path d="M36.5355 78.7134C36.4739 78.5378 36.2919 78.3801 36.1213 78.3118C35.9507 78.2435 35.7183 78.2352 35.5444 78.3164C35.3705 78.3976 35.2095 78.5405 35.1428 78.7306C35.0745 78.9012 35.0776 79.0817 35.1393 79.2572L35.1296 79.2344L35.1409 79.2767C35.1409 79.2767 35.1377 79.2848 35.1425 79.2962L35.1474 79.3547L35.1539 79.3856L35.1571 79.4246L35.1473 79.4489L35.1538 79.527L35.1278 79.592C35.1278 79.592 35.1212 79.6553 35.1082 79.6878C35.0985 79.7122 35.0855 79.7447 35.0757 79.7691C35.0627 79.8015 35.0302 79.8357 35.009 79.8649C34.9488 79.9445 34.9131 80.0339 34.9016 80.133C34.874 80.2256 34.8739 80.3199 34.8901 80.4207L34.9567 80.6076C35.0038 80.7019 35.0573 80.7799 35.1451 80.8433C35.2637 80.9474 35.4197 81.0287 35.5805 81.0271C35.7772 81.0305 35.9852 80.9818 36.1348 80.8438C36.2405 80.7447 36.3332 80.631 36.4388 80.5319C36.5071 80.4555 36.5592 80.3727 36.5787 80.2768C36.6178 80.1793 36.6373 80.0834 36.6211 79.9827C36.6276 79.9664 36.6097 79.9404 36.6081 79.9209L36.5691 80.0656C36.5691 80.0656 36.5723 80.0574 36.5756 80.0493C36.5886 80.0168 36.6049 79.9761 36.6081 79.9209C36.6081 79.9209 36.6065 79.9014 36.6016 79.89C36.6147 79.8104 36.6472 79.7292 36.6408 79.6511C36.6359 79.6869 36.6391 79.7259 36.6342 79.7617L36.6293 79.8446C36.6391 79.7731 36.6489 79.7015 36.6554 79.6381L36.6619 79.6219C36.6652 79.5195 36.6652 79.4253 36.6572 79.3278C36.6507 79.2026 36.6329 79.0823 36.5956 78.9637C36.5729 78.8792 36.5469 78.8028 36.5209 78.7264L36.5355 78.7134Z" fill="#00FDFF"/>
<path d="M62.7552 76.686C62.6967 76.5966 62.6252 76.5397 62.531 76.4925L62.3522 76.4209C62.2206 76.3965 62.0955 76.4029 61.9687 76.437L61.8175 76.5084C61.8175 76.5084 61.7932 76.4987 61.7769 76.4922C61.681 76.4726 61.5803 76.4888 61.4844 76.5164C61.3836 76.5326 61.2893 76.5797 61.2162 76.6446L61.0861 76.7811C61.008 76.8818 60.9592 77.0037 60.9462 77.1304L60.9428 77.3271C60.9623 77.4669 61.011 77.5807 61.0987 77.6912C61.1247 77.7205 61.1588 77.753 61.1929 77.7855C61.2189 77.8148 61.253 77.8473 61.2823 77.8684C61.3456 77.9221 61.4268 77.9546 61.5048 77.9953C61.6023 78.0343 61.7063 78.0571 61.8168 78.0637C61.8721 78.0669 61.9273 78.0702 61.9859 78.0654L62.0102 78.0751L62.033 78.0654L62.2264 78.0297C62.2264 78.0297 62.2768 78.0216 62.2995 78.0119C62.3337 77.9973 62.3678 77.9827 62.4019 77.9681C62.4247 77.9583 62.4393 77.9453 62.4621 77.9356L62.6214 77.8203L62.6279 77.804L62.6539 77.7862C62.7303 77.7131 62.7791 77.6383 62.8376 77.5392C62.8376 77.5392 62.8442 77.5229 62.8474 77.5148C62.8474 77.5148 62.8507 77.5067 62.8539 77.4986C62.906 77.4157 62.9255 77.3199 62.9288 77.2175C62.9484 77.1216 62.9403 77.0241 62.9094 76.9363C62.8818 76.8404 62.8315 76.7543 62.7665 76.6811L62.7552 76.686Z" fill="#00FDFF"/>
<path d="M62.8177 77.5407C62.7836 77.6024 62.7445 77.6528 62.7055 77.7031L62.8177 77.5407Z" fill="#00FDFF"/>
<path d="M57.0519 109.896C56.8878 109.764 56.67 109.743 56.4718 109.72L56.6717 109.762C56.592 109.749 56.5238 109.732 56.4523 109.722C56.3987 109.644 56.3386 109.582 56.2638 109.533C56.233 109.445 56.194 109.354 56.1437 109.268C55.9748 108.984 55.7246 108.761 55.4175 108.657C54.9723 108.497 54.3564 108.599 54.166 109.098C54.0651 109.35 54.1316 109.631 54.2908 109.846C54.3606 109.93 54.4484 109.994 54.554 110.036C54.5279 110.101 54.4857 110.16 54.4759 110.231C54.4676 110.605 54.7258 110.925 55.0931 110.997C55.1093 111.003 55.1369 111.005 55.1564 111.003C55.1564 111.003 55.1662 111.026 55.1711 111.038C55.387 111.416 55.7558 111.696 56.2027 111.734C56.6577 111.774 57.1048 111.482 57.2951 111.078C57.4122 110.832 57.4205 110.553 57.3247 110.297C57.2728 110.145 57.1672 110.008 57.0454 109.912L57.0519 109.896Z" fill="#00FDFF"/>
<path d="M70.0654 99.3644C70.0329 99.3043 69.9664 99.2116 69.9436 99.1742L69.929 99.1401C69.791 98.8962 69.8413 98.9824 69.7065 98.7775C69.6692 98.706 69.6286 98.6426 69.5799 98.576C69.5003 98.4687 69.3915 98.3874 69.2615 98.3353C69.1315 98.2833 69.0047 98.2702 68.865 98.2896C68.7333 98.3123 68.6195 98.361 68.5122 98.4406C68.4049 98.5202 68.3236 98.629 68.2715 98.759C68.2455 98.824 68.2195 98.889 68.1967 98.9459C68.1837 98.9784 68.1739 99.0027 68.1609 99.0352C68.1349 99.1002 68.0942 99.1782 68.0731 99.2546C68.0373 99.344 68.0096 99.4366 68.0177 99.5341C68.0063 99.6332 68.0225 99.734 68.0614 99.825C68.0971 99.9242 68.1507 100.002 68.2271 100.07C68.2921 100.144 68.3717 100.204 68.461 100.24C68.526 100.266 68.5975 100.275 68.669 100.285C68.7161 100.332 68.7665 100.371 68.8575 100.427C68.9192 100.461 68.9923 100.49 69.0606 100.508C69.1857 100.549 69.3401 100.563 69.4766 100.552C69.5465 100.542 69.6082 100.529 69.6733 100.508C69.7984 100.455 69.9138 100.378 70.0033 100.273L70.1074 100.107C70.1513 100.021 70.1789 99.9284 70.1741 99.8227C70.1888 99.7626 70.179 99.6927 70.1661 99.631C70.158 99.5334 70.1223 99.4343 70.0606 99.353L70.0654 99.3644Z" fill="#00FDFF"/>
<path d="M79.4758 105.764L79.5766 105.748L79.6774 105.732L79.484 105.767L79.4758 105.764Z" fill="#00FDFF"/>
<path d="M80.6158 106.494C80.6223 106.431 80.6093 106.369 80.5768 106.309C80.5574 106.216 80.5103 106.122 80.4453 106.049L80.3073 105.899L80.1334 105.792C80.0684 105.766 80.0115 105.743 79.94 105.733C79.9043 105.728 79.8214 105.723 79.8214 105.723C79.7938 105.722 79.7385 105.718 79.6995 105.722C79.6605 105.725 79.6296 105.731 79.5874 105.743C79.4362 105.767 79.3241 105.788 79.1697 105.868C79.0152 105.947 78.9275 106.025 78.8218 106.124C78.7307 106.21 78.6949 106.253 78.5909 106.418C78.5844 106.435 78.5811 106.443 78.5746 106.459C78.5079 106.602 78.433 106.789 78.4232 106.954C78.4118 107.054 78.4199 107.151 78.4556 107.25C78.4718 107.351 78.5189 107.445 78.592 107.522C78.6537 107.603 78.7252 107.66 78.8194 107.707C78.9023 107.759 78.9916 107.795 79.094 107.798C79.185 107.806 79.2826 107.798 79.3785 107.771C79.3216 107.748 79.2647 107.725 79.2079 107.702C79.2403 107.715 79.2647 107.725 79.2972 107.738C79.3297 107.751 79.346 107.758 79.3866 107.774C79.4597 107.803 79.5474 107.82 79.6693 107.821C79.8188 107.825 79.9927 107.79 80.1244 107.721C80.1959 107.683 80.2593 107.643 80.3178 107.591C80.3764 107.539 80.4187 107.48 80.4691 107.425C80.5195 107.37 80.5455 107.305 80.5667 107.228C80.6155 107.107 80.6367 106.983 80.6221 106.855C80.6221 106.855 80.6351 106.822 80.6384 106.814C80.6416 106.806 80.6286 106.791 80.6319 106.783C80.6351 106.728 80.6417 106.665 80.6368 106.606C80.6336 106.567 80.6353 106.539 80.632 106.5L80.6158 106.494Z" fill="#00FDFF"/>
<path d="M79.5651 105.752L79.4757 105.764C79.4757 105.764 79.5569 105.749 79.596 105.746C79.6155 105.744 79.6268 105.739 79.6577 105.733L79.5651 105.752Z" fill="#00FDFF"/>
<path d="M78.7649 106.196C78.7649 106.196 78.8088 106.157 78.8381 106.131C78.8674 106.105 78.8706 106.097 78.9145 106.058L78.773 106.199L78.7649 106.196Z" fill="#00FDFF"/>
<path d="M80.6096 106.84C80.5998 106.912 80.6014 106.978 80.603 107.045C80.6014 106.978 80.608 106.915 80.6096 106.84Z" fill="#00FDFF"/>
<path d="M74.6699 121.977C74.6699 121.977 74.6959 121.912 74.7089 121.88C74.7219 121.847 74.7236 121.82 74.7366 121.787C74.7105 121.852 74.6878 121.909 74.6699 121.977Z" fill="#00FDFF"/>
<path d="M76.5368 122.093L76.519 121.973C76.4946 121.916 76.4654 121.848 76.441 121.791L76.3354 121.655C76.3241 121.565 76.3014 121.481 76.2478 121.403C76.2088 121.312 76.1439 121.238 76.0643 121.178C75.9099 121.069 75.715 120.991 75.5216 121.027C75.32 121.059 75.1347 121.145 75.0111 121.313C74.9721 121.363 74.9331 121.413 74.8989 121.475C74.868 121.529 74.8371 121.582 74.8095 121.628C74.7656 121.714 74.7411 121.799 74.7053 121.888C74.5784 122.205 74.536 122.546 74.5797 122.884L74.6235 123.081L74.7128 123.258C74.76 123.305 74.7989 123.349 74.8428 123.404C74.9191 123.472 74.9971 123.513 75.0897 123.541C75.1547 123.567 75.2116 123.59 75.2815 123.58C75.3497 123.598 75.4115 123.585 75.4765 123.564C75.5432 123.562 75.6082 123.541 75.6634 123.497C75.7089 123.478 75.7447 123.435 75.7886 123.396C75.7886 123.396 75.7967 123.4 75.8049 123.403C75.8959 123.458 75.9917 123.478 76.0941 123.481C76.19 123.501 76.2907 123.484 76.3866 123.457C76.4825 123.429 76.5687 123.379 76.6337 123.311C76.7118 123.257 76.7801 123.181 76.8159 123.091C76.8956 122.916 76.9363 122.697 76.8616 122.506C76.7967 122.339 76.6862 122.191 76.5254 122.098L76.5368 122.093Z" fill="#00FDFF"/>
<path d="M79.2231 142.666C79.1842 142.575 79.1306 142.497 79.0542 142.428C78.9892 142.355 78.9096 142.295 78.8121 142.256C78.7147 142.217 78.6188 142.197 78.5213 142.205C78.4221 142.194 78.3295 142.213 78.2352 142.26C78.167 142.29 78.0987 142.319 78.0385 142.351C78.0158 142.361 77.9898 142.379 77.967 142.389C77.8776 142.447 77.7898 142.525 77.7053 142.595C77.6061 142.678 77.5362 142.782 77.4662 142.886C77.4061 142.965 77.3703 143.055 77.3345 143.144C77.2987 143.233 77.2499 143.308 77.2304 143.404C77.2108 143.5 77.1799 143.601 77.1685 143.7C77.1635 143.783 77.1635 143.877 77.1667 143.963L77.1667 144.01L77.1569 144.035C77.1569 144.035 77.1699 144.096 77.1991 144.259L77.1634 144.065C77.2007 144.278 77.2023 144.298 77.2705 144.504C77.3241 144.63 77.415 144.732 77.5271 144.805C77.6067 144.865 77.6961 144.901 77.7952 144.912C77.8846 144.948 77.9902 144.943 78.0829 144.924C78.2145 144.901 78.3429 144.84 78.4454 144.749C78.5234 144.695 78.5852 144.635 78.6291 144.549C78.6649 144.507 78.6795 144.446 78.7104 144.393C78.7641 144.282 78.8145 144.18 78.8438 144.06C78.8211 144.117 78.8113 144.188 78.7885 144.245C78.8438 144.06 78.8471 144.099 78.8634 144.011C78.8992 143.875 78.9155 143.74 78.9351 143.597C78.9383 143.589 78.9415 143.58 78.9367 143.569C78.9594 143.559 78.9822 143.55 78.9968 143.537C79.1041 143.457 79.1854 143.348 79.2342 143.226C79.2733 143.129 79.2928 143.033 79.2847 142.935C79.2962 142.836 79.2767 142.744 79.2296 142.649L79.2231 142.666Z" fill="#00FDFF"/>
<path d="M77.288 143.238C77.288 143.238 77.3108 143.181 77.3319 143.152C77.345 143.12 77.358 143.087 77.3677 143.063L77.2961 143.242L77.288 143.238Z" fill="#00FDFF"/>
<path d="M78.7808 144.289C78.7646 144.33 78.7402 144.367 78.7239 144.408C78.7174 144.424 78.7109 144.44 78.7011 144.464C78.7239 144.408 78.7499 144.343 78.7808 144.289Z" fill="#00FDFF"/>
<path d="M77.1686 143.983L77.1751 143.967C77.1703 143.908 77.1654 143.85 77.1687 143.794L77.1686 143.983Z" fill="#00FDFF"/>
<path d="M88.3263 130.389C88.3392 130.45 88.3522 130.512 88.3619 130.582C88.3538 130.485 88.3262 130.389 88.2987 130.293C88.2727 130.216 88.2353 130.145 88.1866 130.078C88.1103 129.963 88.0128 129.877 87.8942 129.82C87.8 129.773 87.7074 129.745 87.6017 129.75C87.5026 129.738 87.4051 129.746 87.314 129.785C87.1921 129.831 87.08 129.899 86.9938 129.996C86.8149 130.255 86.6279 130.51 86.4539 130.78L86.5206 130.684C86.5206 130.684 86.475 130.75 86.4539 130.78C86.4393 130.793 86.4165 130.802 86.4019 130.815C86.2962 130.914 86.2246 131.046 86.1775 131.187C86.1286 131.356 86.1432 131.438 86.1659 131.616C86.187 131.681 86.2113 131.738 86.2324 131.803L86.3445 131.971L86.5004 132.099C86.5833 132.151 86.6727 132.187 86.7718 132.198C86.8287 132.221 86.8953 132.22 86.9652 132.21C86.9928 132.211 87.0269 132.197 87.0578 132.19C87.0822 132.2 87.1066 132.21 87.1391 132.223C87.3292 132.243 87.534 132.202 87.6884 132.075L87.8299 131.934C87.9112 131.825 87.96 131.703 87.9763 131.568C87.9877 131.516 87.9959 131.473 88.0073 131.421C88.0902 131.378 88.1568 131.33 88.2137 131.258L88.3178 131.092C88.3666 130.97 88.3959 130.85 88.3846 130.714C88.3603 130.61 88.3359 130.506 88.3116 130.402L88.3263 130.389Z" fill="#00FDFF"/>
<path d="M93.014 129.702C93.014 129.702 93.0595 129.682 93.0741 129.669L93.1083 129.654C93.2221 129.606 93.0676 129.638 92.8823 129.771C92.9051 129.762 92.9311 129.744 92.9539 129.734C92.9766 129.724 92.9912 129.711 93.014 129.702Z" fill="#00FDFF"/>
<path d="M94.0908 130.237C94.0908 130.237 94.0794 130.147 94.06 130.102C94.0324 130.006 93.9788 129.928 93.9105 129.863C93.8602 129.824 93.8098 129.785 93.7595 129.746L93.5726 129.671C93.5239 129.651 93.4735 129.659 93.4182 129.656C93.4182 129.656 93.4101 129.653 93.402 129.65L93.3354 129.651C93.3354 129.651 93.3029 129.638 93.2801 129.648C93.2801 129.648 93.2801 129.648 93.2687 129.653L93.2135 129.65C93.2135 129.65 93.142 129.687 93.1078 129.702C93.0737 129.716 93.0379 129.711 93.0119 129.729C92.9892 129.739 92.9827 129.755 92.968 129.768C92.9306 129.791 92.8916 129.794 92.8542 129.817C92.7876 129.866 92.729 129.918 92.6591 129.974L92.8087 129.836C92.7421 129.885 92.6835 129.937 92.625 129.989C92.5453 130.07 92.4705 130.163 92.4039 130.259C92.2705 130.45 92.2022 130.668 92.1501 130.892L92.1548 131.092C92.1629 131.19 92.2019 131.281 92.2522 131.367C92.2766 131.424 92.3204 131.479 92.3708 131.518C92.4358 131.591 92.5154 131.651 92.6048 131.687L92.8013 131.738L93.0013 131.733C93.0988 131.725 93.1898 131.686 93.2759 131.636C93.367 131.597 93.4401 131.532 93.5003 131.452C93.5361 131.41 93.5719 131.368 93.6028 131.314C93.6759 131.296 93.7555 131.309 93.8238 131.28C94.0611 131.158 94.214 130.918 94.232 130.661C94.2385 130.503 94.1915 130.362 94.1135 130.227L94.0908 130.237Z" fill="#00FDFF"/>
<path d="M92.8756 129.787C92.8756 129.787 92.8579 129.808 92.8466 129.813C92.8611 129.8 92.8756 129.787 92.8982 129.778L92.8902 129.774L92.8756 129.787Z" fill="#00FDFF"/>
<path d="M107.816 136.243C107.801 136.162 107.784 136.088 107.761 136.004C107.735 135.88 107.701 135.754 107.675 135.63C107.675 135.63 107.667 135.627 107.665 135.607C107.655 135.585 107.657 135.557 107.647 135.534C107.62 135.438 107.566 135.36 107.49 135.292C107.428 135.211 107.357 135.154 107.259 135.115C107.194 135.089 107.137 135.066 107.066 135.056C106.962 135.033 106.864 135.041 106.768 135.069C106.702 135.071 106.645 135.095 106.581 135.136C106.49 135.175 106.412 135.228 106.352 135.308L106.276 135.428L106.196 135.462C106.129 135.511 106.063 135.56 106.012 135.615C105.98 135.649 105.97 135.673 105.942 135.719C105.876 135.815 105.833 135.873 105.801 136.001C105.775 136.066 105.768 136.13 105.767 136.205C105.768 136.318 105.765 136.421 105.794 136.536C105.804 136.559 105.81 136.59 105.82 136.613C105.825 136.624 105.835 136.647 105.84 136.658L105.94 136.83L105.957 136.837C105.957 136.837 106.015 136.926 106.057 136.962C106.1 136.998 106.179 137.058 106.225 137.086L106.249 137.095C106.249 137.095 106.314 137.121 106.346 137.134C106.387 137.151 106.423 137.156 106.467 137.164C106.507 137.18 106.543 137.185 106.587 137.193C106.611 137.203 106.634 137.193 106.662 137.195C106.678 137.201 106.697 137.2 106.717 137.198C106.725 137.201 106.736 137.196 106.748 137.191C106.748 137.191 106.764 137.198 106.772 137.201C106.858 137.245 106.951 137.273 107.057 137.268C107.156 137.279 107.253 137.271 107.344 137.232L107.521 137.143C107.637 137.067 107.723 136.969 107.783 136.843C107.806 136.786 107.832 136.721 107.847 136.661C107.871 136.529 107.865 136.404 107.822 136.274L107.816 136.243Z" fill="#00FDFF"/>
<path d="M111.395 149.621C111.361 149.542 111.335 149.465 111.27 149.392C111.218 149.334 111.155 149.28 111.091 149.226C111.138 149.274 111.189 149.313 111.228 149.356C111.155 149.28 111.091 149.226 111.031 149.165C110.57 148.433 109.753 148.002 108.893 148.054C108.822 148.044 108.755 148.045 108.677 148.052C108.661 148.045 108.652 148.042 108.63 148.052C108.63 148.052 108.626 148.06 108.607 148.062C108.557 148.07 108.496 148.055 108.444 148.091C108.267 148.18 108.121 148.31 108.043 148.505C107.906 148.846 108.047 149.223 108.338 149.415C108.541 149.591 108.752 149.77 108.956 149.945C108.793 150.399 108.823 150.911 109.158 151.299C109.504 151.683 110.066 151.88 110.567 151.76C111.118 151.632 111.506 151.203 111.606 150.649C111.666 150.286 111.569 149.917 111.376 149.623L111.395 149.621Z" fill="#00FDFF"/>
<path d="M145.472 103.236C145.472 103.236 145.487 103.223 145.498 103.218C145.539 103.187 145.579 103.156 145.628 103.128L145.472 103.236Z" fill="#00FDFF"/>
<path d="M146.985 103.012C146.855 102.866 146.681 102.758 146.488 102.747L146.296 102.755C146.164 102.778 146.039 102.831 145.929 102.919C145.865 102.959 145.807 103.011 145.743 103.052C145.795 103.016 145.85 102.972 145.911 102.94C145.807 103.011 145.709 103.067 145.613 103.141L145.781 103.029C145.677 103.101 145.587 103.159 145.494 103.226C145.454 103.257 145.405 103.284 145.364 103.315C145.312 103.351 145.252 103.383 145.205 103.43L145.373 103.318C145.257 103.395 145.142 103.471 145.023 103.556L144.886 103.708C144.86 103.773 144.829 103.827 144.795 103.889L144.756 104.08C144.745 104.179 144.764 104.272 144.803 104.363C144.816 104.425 144.849 104.485 144.884 104.537C144.917 104.597 144.953 104.649 145.014 104.683C145.058 104.739 145.112 104.77 145.177 104.796C145.23 104.826 145.291 104.841 145.354 104.848C145.391 104.919 145.437 104.994 145.5 105.048C145.565 105.121 145.648 105.173 145.737 105.209C145.835 105.248 145.931 105.267 146.028 105.259C146.131 105.262 146.231 105.246 146.326 105.199C146.443 105.142 146.55 105.063 146.628 104.962C146.74 104.8 146.799 104.606 146.766 104.405C146.757 104.335 146.716 104.271 146.687 104.203L146.693 104.187L146.869 104.078C146.95 104.016 147.007 103.945 147.046 103.847C147.098 103.764 147.126 103.672 147.137 103.573C147.149 103.474 147.141 103.376 147.102 103.285C147.085 103.184 147.035 103.098 146.965 103.014L146.985 103.012Z" fill="#00FDFF"/>
<path d="M151.635 120.118C151.689 120.055 151.734 119.988 151.747 119.909C151.783 119.82 151.803 119.724 151.795 119.626L151.751 119.429C151.723 119.334 151.673 119.247 151.596 119.179C151.493 119.062 151.343 118.965 151.184 118.938C151.041 118.919 150.901 118.938 150.768 118.989C150.729 118.945 150.69 118.901 150.639 118.862C150.552 118.798 150.462 118.763 150.363 118.751C150.271 118.723 150.176 118.723 150.072 118.748L149.889 118.806C149.798 118.845 149.716 118.907 149.656 118.987C149.601 119.03 149.567 119.092 149.544 119.149C149.492 119.232 149.469 119.336 149.469 119.43C149.466 119.627 149.521 119.818 149.651 119.965L149.677 119.994C149.661 120.082 149.644 120.17 149.667 120.254C149.672 120.36 149.703 120.448 149.761 120.537C149.85 120.667 149.977 120.774 150.131 120.836C150.156 120.893 150.169 120.955 150.208 120.999C150.318 121.147 150.521 121.275 150.703 121.291C150.893 121.311 151.106 121.274 151.261 121.147L151.399 121.014C151.48 120.905 151.526 120.791 151.542 120.656L151.519 120.713C151.519 120.713 151.536 120.673 151.542 120.656L151.568 120.591C151.568 120.591 151.584 120.504 151.593 120.46L151.557 120.549L151.542 120.656C151.591 120.487 151.638 120.299 151.619 120.112L151.635 120.118Z" fill="#00FDFF"/>
<path d="M164.819 119.403L164.983 119.441C164.983 119.441 164.951 119.428 164.934 119.421L164.811 119.4L164.819 119.403Z" fill="#00FDFF"/>
<path d="M165.384 120.676C165.35 120.738 165.311 120.788 165.267 120.827L165.384 120.676Z" fill="#00FDFF"/>
<path d="M165.422 119.758C165.32 119.613 165.165 119.504 164.988 119.452C164.68 119.375 164.376 119.31 164.069 119.253L164.148 119.266L164.255 119.281C164.176 119.268 164.108 119.25 164.028 119.237C163.987 119.221 163.943 119.213 163.9 119.204L163.706 119.193C163.601 119.198 163.513 119.229 163.427 119.279C163.362 119.3 163.31 119.336 163.259 119.391C163.178 119.453 163.121 119.524 163.082 119.622C163.053 119.695 163.027 119.76 163.005 119.836C163.028 119.779 163.054 119.714 163.077 119.658C163.048 119.731 163.015 119.812 162.991 119.896C162.991 119.896 162.984 119.913 162.981 119.921C162.97 119.973 162.966 120.028 162.962 120.064C162.952 120.088 162.947 120.124 162.945 120.151C162.934 120.298 162.961 120.441 162.973 120.577C162.981 120.628 162.99 120.65 163.036 120.819L163.117 120.993C163.167 121.08 163.236 121.145 163.319 121.197C163.366 121.244 163.422 121.267 163.491 121.284C163.58 121.32 163.681 121.351 163.782 121.335C163.832 121.327 163.882 121.319 163.933 121.311C163.982 121.33 164.027 121.358 164.079 121.369C164.18 121.4 164.277 121.392 164.381 121.368C164.516 121.337 164.646 121.295 164.767 121.23C164.841 121.184 164.939 121.129 165.017 121.076C165.183 120.944 165.261 120.843 165.384 120.676C165.391 120.66 165.402 120.655 165.409 120.639C165.471 120.531 165.513 120.426 165.534 120.302C165.554 120.206 165.554 120.112 165.526 120.016C165.518 119.919 165.479 119.828 165.425 119.75L165.422 119.758Z" fill="#00FDFF"/>
<path d="M162.984 120.573L162.964 120.386C162.977 120.495 162.98 120.534 162.984 120.573Z" fill="#00FDFF"/>
<path d="M163.956 129.89C163.868 129.779 163.735 129.688 163.597 129.633C163.61 129.6 163.623 129.568 163.633 129.543C163.65 129.475 163.657 129.412 163.675 129.344C163.686 129.244 163.67 129.144 163.628 129.061C163.571 128.897 163.48 128.794 163.349 128.675C163.209 128.554 163.063 128.448 162.92 128.334C162.718 128.178 162.396 128.181 162.182 128.293C162.062 128.358 161.962 128.441 161.886 128.561C161.827 128.66 161.805 128.764 161.787 128.88C161.665 128.972 161.556 129.079 161.507 129.201C161.439 129.372 161.422 129.601 161.495 129.772C161.525 129.84 161.568 129.895 161.612 129.95C161.606 129.967 161.594 129.972 161.596 129.991C161.537 130.137 161.508 130.305 161.549 130.462C161.571 130.547 161.635 130.6 161.68 130.675C161.708 130.913 161.841 131.145 162.059 131.26C162.198 131.335 162.367 131.384 162.533 131.347C162.676 131.319 162.822 131.236 162.931 131.129C163.099 131.111 163.258 131.09 163.422 131.081C163.796 131.042 164.084 130.723 164.089 130.358C164.095 130.2 164.053 130.023 163.953 129.898L163.956 129.89Z" fill="#00FDFF"/>
<path d="M121.246 159.365L121.045 159.35C120.917 159.365 120.798 159.402 120.691 159.482C120.57 159.453 120.452 159.443 120.328 159.469C120.227 159.485 120.133 159.532 120.052 159.594C119.966 159.644 119.901 159.712 119.845 159.803C119.793 159.886 119.758 159.975 119.746 160.075C119.718 160.167 119.715 160.27 119.743 160.365C119.774 160.5 119.834 160.609 119.916 160.708C119.934 160.734 119.944 160.757 119.973 160.778C120.08 160.887 120.214 160.978 120.363 161.029C120.444 161.061 120.54 161.081 120.631 161.089C120.778 161.101 120.93 161.096 121.08 161.052C121.275 160.989 121.41 160.911 121.556 160.781C121.559 160.773 121.574 160.76 121.585 160.755C121.624 160.704 121.678 160.641 121.712 160.579C121.755 160.521 121.777 160.464 121.803 160.399C121.836 160.318 121.849 160.238 121.851 160.163C121.862 160.064 121.857 159.959 121.81 159.864C121.727 159.624 121.498 159.419 121.24 159.381L121.246 159.365Z" fill="#00FDFF"/>
<path d="M119.775 160.473L119.795 160.518C119.795 160.518 119.817 160.556 119.827 160.578C119.855 160.627 119.886 160.668 119.925 160.712C119.785 160.448 119.731 160.37 119.78 160.484L119.775 160.473Z" fill="#00FDFF"/>
<path d="M119.933 160.715C119.933 160.715 119.933 160.715 119.928 160.704L119.936 160.707L119.933 160.715Z" fill="#00FDFF"/>
<path d="M138.943 174.146C138.875 174.034 138.777 173.947 138.662 173.882L138.483 173.811C138.344 173.783 138.218 173.79 138.08 173.828C138.134 173.812 138.145 173.807 138.123 173.817C138.1 173.827 138.08 173.828 138.053 173.827C137.949 173.851 137.866 173.893 137.789 173.966C137.711 174.02 137.646 174.088 137.599 174.183C137.547 174.265 137.519 174.358 137.516 174.46C137.497 174.556 137.501 174.662 137.529 174.758C137.553 174.815 137.583 174.883 137.607 174.94C137.675 175.052 137.769 175.146 137.877 175.208L138.055 175.28C138.184 175.312 138.314 175.317 138.452 175.278C138.262 175.306 138.208 175.322 138.278 175.312L138.317 175.309C138.317 175.309 138.356 175.306 138.375 175.304C138.426 175.296 138.488 175.283 138.541 175.267C138.637 175.239 138.723 175.189 138.788 175.121C138.866 175.067 138.935 174.991 138.97 174.901C139.026 174.81 139.045 174.715 139.045 174.62C139.065 174.524 139.06 174.419 139.024 174.32L138.943 174.146Z" fill="#00FDFF"/>
<path d="M159.953 199.86C159.953 199.86 160.004 199.824 160.03 199.806L159.953 199.86Z" fill="#00FDFF"/>
<path d="M160.986 199.963L160.841 199.829C160.732 199.748 160.607 199.707 160.472 199.691L160.272 199.696C160.152 199.714 160.051 199.777 159.95 199.84C159.887 199.881 159.824 199.922 159.765 199.974C159.817 199.938 159.881 199.897 159.933 199.862C159.881 199.897 159.84 199.928 159.799 199.959C159.736 200 159.672 200.04 159.606 200.089L159.468 200.222C159.437 200.276 159.406 200.329 159.364 200.388L159.308 200.573C159.285 200.677 159.293 200.775 159.329 200.874C159.334 200.932 159.367 200.992 159.402 201.044C159.388 201.152 159.407 201.244 159.451 201.347C159.504 201.472 159.584 201.579 159.693 201.66C159.772 201.721 159.859 201.764 159.954 201.784C160.044 201.82 160.146 201.823 160.247 201.807C160.387 201.787 160.512 201.734 160.611 201.651C160.774 201.528 160.896 201.341 160.946 201.144C160.964 201.076 160.966 201.001 160.967 200.926C161.003 200.884 161.044 200.853 161.063 200.805C161.115 200.722 161.146 200.621 161.158 200.522C161.169 200.423 161.161 200.325 161.117 200.223C161.098 200.13 161.047 200.044 160.982 199.971L160.986 199.963Z" fill="#00FDFF"/>
<path d="M159.866 199.91L159.944 199.856C159.944 199.856 159.932 199.861 159.921 199.866C159.898 199.876 159.881 199.897 159.866 199.91Z" fill="#00FDFF"/>
<path d="M163.762 174.602L163.762 174.649C163.762 174.649 163.769 174.727 163.772 174.766C163.772 174.766 163.765 174.783 163.773 174.786C163.765 174.594 163.767 174.519 163.762 174.602Z" fill="#00FDFF"/>
<path d="M165.533 174.416C165.465 174.304 165.379 174.213 165.264 174.148C165.247 174.141 165.226 174.123 165.21 174.117C165.165 174.089 165.114 174.05 165.069 174.022C164.986 173.97 164.89 173.951 164.791 173.94C164.731 173.925 164.677 173.941 164.615 173.954C164.599 173.947 164.575 173.938 164.558 173.931L164.355 173.944C164.22 173.975 164.103 174.032 164.001 174.123C163.962 174.173 163.915 174.22 163.876 174.271C163.816 174.35 163.788 174.443 163.768 174.539C163.744 174.623 163.744 174.717 163.767 174.802C163.765 174.83 163.771 174.86 163.778 174.891C163.801 174.976 163.822 175.041 163.859 175.112C163.887 175.161 163.922 175.213 163.958 175.265C164.02 175.347 164.095 175.395 164.182 175.459C164.22 175.483 164.247 175.485 164.387 175.56L164.215 175.472C164.272 175.495 164.338 175.54 164.395 175.563C164.428 175.576 164.584 175.61 164.499 175.586C164.532 175.599 164.567 175.604 164.603 175.608C164.603 175.608 164.678 175.61 164.714 175.615C164.749 175.62 164.788 175.617 164.816 175.618L164.894 175.612L164.998 175.587C165.151 175.536 165.289 175.449 165.401 175.334C165.496 175.24 165.557 175.133 165.598 175.008C165.637 174.91 165.632 174.804 165.613 174.712C165.605 174.614 165.577 174.518 165.527 174.432L165.533 174.416Z" fill="#00FDFF"/>
<path d="M163.773 174.834C163.773 174.834 163.78 174.817 163.775 174.805L163.781 174.837L163.773 174.834Z" fill="#00FDFF"/>
<path d="M164.193 175.454C164.143 175.415 164.093 175.376 164.042 175.337C164.135 175.412 164.161 175.441 164.193 175.454Z" fill="#00FDFF"/>
<path d="M168.164 159.961L168.171 159.945C168.182 159.893 168.189 159.83 168.2 159.778C168.193 159.841 168.175 159.909 168.169 159.973L168.164 159.961Z" fill="#00FDFF"/>
<path d="M169.981 159.615C169.965 159.514 169.923 159.431 169.861 159.35C169.802 159.26 169.723 159.2 169.629 159.153C169.549 159.093 169.456 159.065 169.352 159.042C169.162 159.023 168.949 159.06 168.798 159.179L168.769 159.205C168.684 159.227 168.6 159.25 168.522 159.304L168.371 159.422L168.254 159.573C168.192 159.681 168.162 159.801 168.161 159.923C168.138 160.027 168.123 160.134 168.109 160.241L168.136 160.054L168.087 160.365C168.084 160.467 168.092 160.565 168.143 160.651C168.17 160.747 168.22 160.833 168.294 160.909C168.311 160.935 168.339 160.937 168.368 160.958C168.391 160.995 168.391 161.043 168.414 161.08C168.464 161.166 168.544 161.226 168.63 161.27C168.709 161.33 168.799 161.366 168.898 161.378C169.096 161.4 169.306 161.371 169.468 161.248C169.516 161.201 169.559 161.162 169.607 161.115C169.681 161.022 169.724 160.916 169.753 160.796C169.769 160.756 169.789 160.707 169.789 160.66L169.846 160.588C169.911 160.473 169.951 160.348 169.956 160.218C169.958 160.143 169.965 160.08 169.966 160.005C169.974 159.961 169.971 159.922 169.979 159.878C169.999 159.782 169.991 159.685 169.96 159.597L169.981 159.615Z" fill="#00FDFF"/>
<path d="M169.784 160.79C169.784 160.79 169.775 160.814 169.771 160.822C169.752 160.871 169.74 160.923 169.729 160.975C169.752 160.918 169.77 160.85 169.784 160.79Z" fill="#00FDFF"/>
<path d="M183.218 156.13L183.238 156.081L183.231 156.05C183.254 155.993 183.264 155.922 183.278 155.862L183.285 155.657L183.238 155.468L183.145 155.299L183.015 155.153L182.861 155.044C182.796 155.018 182.739 154.995 182.674 154.969L182.499 154.937L182.307 154.945C182.237 154.954 182.156 154.969 182.087 154.998C182.008 155.032 181.922 155.083 181.852 155.14C181.808 155.179 181.79 155.2 181.743 155.247C181.671 155.331 181.671 155.331 181.624 155.426C181.57 155.536 181.59 155.487 181.549 155.612C181.523 155.677 181.517 155.741 181.53 155.803C181.53 155.85 181.538 155.9 181.549 155.942C181.521 156.082 181.533 156.219 181.578 156.34C181.667 156.518 181.76 156.687 181.861 156.859C181.883 156.896 181.898 156.93 181.921 156.968C181.931 156.991 181.94 157.013 181.95 157.036C181.95 157.036 181.958 157.039 181.966 157.043C181.966 157.043 181.976 157.065 181.984 157.069C182.02 157.121 182.065 157.148 182.116 157.187C182.132 157.194 182.142 157.217 182.163 157.235C182.163 157.235 182.163 157.235 182.171 157.238C182.179 157.241 182.192 157.256 182.197 157.267C182.255 157.309 182.324 157.327 182.392 157.345C182.4 157.348 182.408 157.352 182.416 157.355C182.416 157.355 182.441 157.365 182.457 157.371L182.662 157.378C182.767 157.373 182.855 157.342 182.945 157.284C183.001 157.259 183.053 157.224 183.104 157.168C183.177 157.103 183.234 157.032 183.273 156.934L183.328 156.749C183.328 156.749 183.322 156.718 183.32 156.699C183.335 156.591 183.333 156.478 183.298 156.379C183.298 156.379 183.304 156.362 183.299 156.351C183.267 156.291 183.242 156.234 183.218 156.177C183.216 156.158 183.212 156.146 183.21 156.127L183.216 156.11L183.218 156.13Z" fill="#00FDFF"/>
<path d="M181.898 156.883L181.889 156.88C181.868 156.815 181.833 156.763 181.808 156.706C181.841 156.766 181.873 156.826 181.906 156.887L181.898 156.883Z" fill="#00FDFF"/>
<path d="M186.595 146.075L186.586 146.072C186.586 146.072 186.596 146.048 186.583 146.033C186.552 145.945 186.502 145.859 186.445 145.789C186.431 145.755 186.416 145.721 186.398 145.695C186.385 145.68 186.38 145.669 186.367 145.654C186.255 145.487 186.171 145.368 186.041 145.222C185.916 145.087 185.805 144.986 185.666 144.864L185.81 144.997C185.602 144.81 185.644 144.846 185.432 144.695C185.402 144.674 185.373 144.653 185.336 144.628C185.248 144.565 185.159 144.529 185.06 144.518C184.967 144.49 184.865 144.487 184.772 144.506C184.583 144.553 184.392 144.655 184.287 144.821L184.177 145.003L184.284 144.829C184.138 145.053 184.013 145.296 183.964 145.559C183.923 145.778 183.903 146.015 183.965 146.238C183.989 146.342 184.032 146.425 184.101 146.51C184.148 146.557 184.199 146.596 184.246 146.643C184.384 146.745 184.625 146.804 184.798 146.77C184.829 146.763 184.867 146.741 184.898 146.734C184.976 146.822 185.065 146.905 185.182 146.942C185.279 146.981 185.385 146.977 185.499 146.975C185.507 146.978 185.515 146.982 185.523 146.985C185.606 147.037 185.695 147.073 185.795 147.084L185.991 147.087C186.097 147.083 186.188 147.044 186.277 146.985C186.342 146.964 186.389 146.917 186.428 146.867C186.502 146.802 186.562 146.722 186.589 146.629C186.612 146.572 186.622 146.501 186.637 146.441C186.655 146.325 186.629 146.202 186.588 146.091L186.595 146.075Z" fill="#00FDFF"/>
<path d="M186.256 145.487C186.256 145.487 186.327 145.591 186.363 145.643C186.327 145.591 186.291 145.539 186.256 145.487Z" fill="#00FDFF"/>
<path d="M183.651 191.911C183.651 191.911 183.617 191.879 183.595 191.861C183.553 191.825 183.5 191.794 183.451 191.774C183.36 191.719 183.262 191.68 183.158 191.657L183.337 191.729C183.11 191.638 183.205 191.657 183.035 191.636C183.01 191.626 182.955 191.623 182.919 191.618C182.845 191.616 182.762 191.612 182.689 191.629C182.526 191.659 182.351 191.72 182.214 191.826C182.06 191.953 181.934 192.1 181.9 192.303C181.877 192.407 181.877 192.502 181.905 192.598C181.921 192.698 181.949 192.794 182.019 192.879C182.137 193.03 182.301 193.162 182.496 193.193C182.54 193.201 182.59 193.193 182.638 193.193C182.655 193.266 182.67 193.347 182.699 193.415C182.764 193.536 182.855 193.638 182.967 193.711C183.05 193.763 183.139 193.799 183.239 193.811C183.331 193.838 183.425 193.838 183.529 193.814C183.664 193.783 183.781 193.726 183.884 193.635L184.02 193.483L184.089 193.359C184.346 193.189 184.479 192.856 184.442 192.548C184.387 192.168 184.042 191.898 183.67 191.909L183.651 191.911Z" fill="#00FDFF"/>
<path d="M196.132 176.801C196.132 176.801 196.119 176.786 196.114 176.775C196.117 176.767 196.115 176.747 196.11 176.736C196.104 176.705 196.078 176.676 196.068 176.653C196.078 176.628 196.091 176.596 196.093 176.568L196.077 176.373L196.002 176.183C195.958 176.128 195.922 176.076 195.878 176.021C195.813 175.947 195.731 175.895 195.641 175.86C195.588 175.829 195.519 175.811 195.456 175.804C195.415 175.788 195.37 175.807 195.323 175.807L195.267 175.757C195.267 175.757 195.254 175.742 195.246 175.739C195.17 175.671 195.084 175.627 194.988 175.607C194.891 175.568 194.791 175.557 194.691 175.573L194.494 175.617C194.395 175.653 194.317 175.706 194.252 175.774C194.2 175.81 194.161 175.861 194.127 175.922C194.066 176.002 194.031 176.091 194.019 176.19C194.021 176.257 194.014 176.32 194.013 176.395C194.024 176.532 194.069 176.654 194.157 176.764C194.196 176.808 194.23 176.841 194.264 176.873L194.157 176.764C194.248 176.867 194.339 176.969 194.433 177.063C194.386 177.016 194.342 176.961 194.295 176.914C194.383 177.024 194.474 177.127 194.573 177.232C194.537 177.18 194.49 177.133 194.454 177.081C194.503 177.148 194.56 177.218 194.617 177.288C194.635 177.314 194.664 177.335 194.682 177.361C194.695 177.375 194.7 177.387 194.713 177.401L194.721 177.405C194.721 177.405 194.747 177.434 194.768 177.452C194.82 177.51 194.875 177.561 194.927 177.619C195.003 177.688 195.086 177.74 195.182 177.759C195.28 177.798 195.375 177.818 195.476 177.802C195.582 177.797 195.67 177.766 195.756 177.716C195.847 177.677 195.925 177.623 195.985 177.543C196.113 177.387 196.192 177.192 196.17 176.986C196.158 176.924 196.145 176.863 196.135 176.793L196.132 176.801Z" fill="#00FDFF"/>
<path d="M225.746 156.694C225.746 156.694 225.733 156.679 225.736 156.671C225.732 156.659 225.738 156.643 225.736 156.624C225.72 156.523 225.681 156.432 225.616 156.359C225.569 156.312 225.53 156.268 225.483 156.221C225.382 156.143 225.264 156.086 225.132 156.061C224.952 156.017 224.794 156.058 224.638 156.118C224.573 156.139 224.5 156.157 224.435 156.178L224.412 156.188C224.217 156.251 223.99 156.301 223.829 156.444C223.729 156.527 223.656 156.639 223.616 156.764C223.58 156.854 223.568 156.953 223.576 157.05C223.573 157.153 223.593 157.245 223.64 157.339C223.697 157.457 223.787 157.559 223.896 157.64C224.008 157.713 224.122 157.759 224.26 157.767C224.296 157.772 224.322 157.754 224.353 157.748C224.426 157.824 224.509 157.876 224.606 157.915L224.798 157.954C224.928 157.959 225.057 157.945 225.174 157.888C225.276 157.844 225.369 157.777 225.456 157.699C225.471 157.686 225.489 157.665 225.504 157.652C225.51 157.636 225.624 157.493 225.634 157.469C225.666 157.388 225.692 157.323 225.718 157.258C225.738 157.209 225.738 157.162 225.757 157.113C225.767 157.041 225.772 156.959 225.762 156.889C225.761 156.822 225.748 156.76 225.723 156.703L225.746 156.694Z" fill="#00FDFF"/>
<path d="M226.54 175.66L226.447 175.491C226.447 175.491 226.397 175.451 226.376 175.434L226.309 175.247L226.186 175.084C226.113 175.008 226.033 174.948 225.941 174.92C225.887 174.889 225.819 174.871 225.755 174.865C225.698 174.842 225.632 174.843 225.567 174.864C225.5 174.866 225.438 174.879 225.378 174.911C225.282 174.939 225.196 174.989 225.128 175.066C225.06 175.142 225.024 175.184 224.986 175.254L224.964 175.264L224.941 175.274L224.91 175.28C224.91 175.28 224.824 175.283 224.77 175.3L224.585 175.386C224.47 175.462 224.383 175.559 224.318 175.675C224.274 175.761 224.247 175.854 224.243 175.956C224.224 176.052 224.232 176.149 224.268 176.248C224.274 176.279 224.303 176.3 224.31 176.331C224.29 176.38 224.271 176.429 224.263 176.473C224.237 176.538 224.25 176.599 224.263 176.661C224.271 176.759 224.29 176.851 224.349 176.941L224.464 177.1C224.514 177.139 224.573 177.181 224.623 177.22C224.714 177.276 224.807 177.303 224.906 177.315C225.002 177.334 225.096 177.334 225.192 177.307C225.283 177.268 225.328 177.248 225.371 177.237C225.371 177.237 225.442 177.2 225.483 177.169L225.419 177.209C225.419 177.209 225.52 177.146 225.569 177.118L225.595 177.101L225.572 177.11C225.572 177.11 225.647 177.065 225.684 177.042C225.795 177.049 225.905 177.055 226.009 177.031C226.105 177.003 226.188 176.961 226.261 176.896C226.348 176.846 226.416 176.769 226.463 176.675L226.561 176.29C226.554 176.354 226.548 176.417 226.538 176.488C226.557 176.345 226.574 176.211 226.593 176.068C226.592 176.001 226.59 175.934 226.597 175.871L226.55 175.682L226.54 175.66Z" fill="#00FDFF"/>
<path d="M225.582 177.086L225.485 177.141L225.421 177.182L225.582 177.086Z" fill="#00FDFF"/>
<path d="M225.486 177.141L225.566 177.079C225.566 177.079 225.503 177.12 225.486 177.141Z" fill="#00FDFF"/>
<path d="M228.112 185.057C228.062 184.971 227.986 184.902 227.895 184.847C227.841 184.816 227.775 184.818 227.726 184.798C227.75 184.525 227.736 184.255 227.643 183.992C227.574 183.813 227.431 183.652 227.255 183.573C227.088 183.496 226.85 183.476 226.68 183.55C226.327 183.701 226.119 184.079 226.224 184.451C226.224 184.451 226.228 184.49 226.229 184.51L226.241 184.552L226.25 184.575L226.257 184.606L226.247 184.63L226.263 184.637C226.263 184.637 226.25 184.716 226.249 184.744L226.236 184.776L226.206 184.849L226.167 184.9C226.135 184.934 226.091 184.973 226.058 185.007L226.117 184.955C225.878 185.152 225.741 185.493 225.86 185.785C225.905 185.907 225.982 186.023 226.079 186.109C226.134 186.159 226.207 186.189 226.272 186.215C226.337 186.382 226.41 186.506 226.548 186.608C226.678 186.707 226.849 186.775 227.016 186.758C227.145 186.743 227.272 186.709 227.38 186.649C227.523 186.574 227.683 186.365 227.712 186.197C227.766 186.181 227.828 186.168 227.873 186.149C228.084 186.045 228.219 185.825 228.255 185.595C228.289 185.392 228.239 185.211 228.116 185.049L228.112 185.057Z" fill="#00FDFF"/>
<path d="M239.356 187.184C239.356 187.184 239.293 187.131 239.256 187.106C239.262 186.996 239.261 186.882 239.22 186.771C239.166 186.646 239.095 186.542 238.986 186.461C239.033 186.508 239.028 186.497 238.968 186.435C238.921 186.388 238.879 186.352 238.829 186.313C238.768 186.251 238.708 186.189 238.645 186.136L238.577 186.071C238.396 185.885 238.083 185.845 237.854 185.922C237.613 186.005 237.384 186.225 237.355 186.486C237.348 186.55 237.345 186.605 237.341 186.66L237.333 186.657L237.176 186.792C237.078 186.894 237.021 187.013 236.997 187.144C236.961 187.234 236.966 187.339 236.966 187.434C236.966 187.575 237.018 187.775 237.091 187.898C237.136 187.973 237.186 188.059 237.247 188.121C237.298 188.18 237.37 188.236 237.437 188.282C237.487 188.321 237.536 188.341 237.593 188.363C237.664 188.467 237.739 188.563 237.81 188.667L237.955 188.801L238.135 188.892C238.289 188.954 238.462 188.947 238.618 188.887C238.736 188.85 238.827 188.764 238.907 188.682C239.161 188.614 239.377 188.428 239.44 188.151C239.468 188.012 239.515 187.87 239.535 187.727C239.554 187.537 239.49 187.322 239.368 187.179L239.356 187.184Z" fill="#00FDFF"/>
<path d="M247.772 186.954C247.725 186.86 247.657 186.795 247.577 186.735C247.431 186.629 247.21 186.569 247.025 186.608C246.832 186.643 246.64 186.746 246.524 186.916C246.43 187.057 246.378 187.235 246.396 187.402L246.345 187.41C246.241 187.434 246.158 187.477 246.085 187.542C246.025 187.574 245.978 187.621 245.944 187.683C245.875 187.759 245.832 187.845 245.812 187.941C245.779 188.07 245.786 188.195 245.809 188.326C245.833 188.43 245.875 188.513 245.94 188.587C245.95 188.609 245.982 188.622 245.995 188.637C245.99 188.673 245.969 188.702 245.984 188.736C246.003 188.923 246.083 189.125 246.234 189.242C246.382 189.367 246.59 189.459 246.791 189.427C246.853 189.414 246.939 189.411 246.996 189.387C247.115 189.349 247.225 189.262 247.316 189.175C247.337 189.146 247.367 189.12 247.385 189.099C247.438 189.036 247.503 188.968 247.557 188.904L247.563 188.888C247.658 188.794 247.741 188.704 247.819 188.604C247.879 188.524 247.915 188.435 247.926 188.336C247.962 188.246 247.954 188.149 247.938 188.048C247.917 187.983 247.904 187.921 247.879 187.864C247.869 187.841 247.853 187.835 247.84 187.82C247.85 187.796 247.86 187.772 247.866 187.755C247.897 187.607 247.886 187.471 247.881 187.318C247.883 187.291 247.884 187.263 247.875 187.24C247.858 187.139 247.823 187.04 247.761 186.959L247.772 186.954Z" fill="#00FDFF"/>
<path d="M247.907 187.489L247.89 187.293L247.884 187.31C247.897 187.371 247.902 187.43 247.907 187.489Z" fill="#00FDFF"/>
<path d="M252.456 179.167C252.424 179.107 252.373 179.068 252.312 179.034C252.235 178.965 252.141 178.918 252.042 178.907L251.852 178.887L251.658 178.923C251.562 178.95 251.48 178.993 251.403 179.066C251.322 179.127 251.257 179.196 251.21 179.29C251.148 179.444 251.089 179.59 251.052 179.755C251.078 179.69 251.101 179.633 251.119 179.564C251.063 179.703 251.032 179.803 251.003 179.923L251.036 179.842C251.009 179.907 250.98 179.98 250.954 180.045C250.977 179.989 251.003 179.924 251.018 179.863C250.969 179.985 250.931 180.102 250.902 180.223C250.883 180.318 250.879 180.421 250.91 180.509C250.918 180.606 250.957 180.697 251.011 180.775C251.058 180.822 251.094 180.874 251.141 180.921C251.246 181.011 251.365 181.068 251.501 181.104C251.566 181.13 251.652 181.126 251.722 181.117C251.914 181.109 252.119 181.021 252.27 180.902C252.454 180.75 252.573 180.524 252.592 180.287C252.597 180.204 252.571 180.127 252.561 180.057C252.597 179.968 252.617 179.872 252.628 179.773C252.64 179.721 252.643 179.666 252.638 179.607C252.625 179.546 252.615 179.476 252.602 179.414C252.575 179.318 252.533 179.235 252.459 179.159L252.456 179.167Z" fill="#00FDFF"/>
<path d="M259.328 201.764C259.26 201.652 259.166 201.558 259.059 201.496C258.994 201.47 258.921 201.441 258.856 201.415C258.799 201.392 258.688 201.385 258.644 201.377C258.549 201.357 258.545 201.366 258.326 201.372L258.518 201.364C258.443 201.362 258.36 201.357 258.29 201.367C258.24 201.375 258.147 201.395 258.105 201.406C258.012 201.426 258.032 201.424 257.845 201.49L258.028 201.432C257.936 201.451 257.845 201.49 257.762 201.533C257.679 201.575 257.593 201.625 257.512 201.687C257.445 201.736 257.386 201.788 257.336 201.843C257.209 201.971 257.112 202.121 257.043 202.291C256.972 202.47 256.954 202.68 257.02 202.867C257.056 202.966 257.106 203.052 257.183 203.12C257.222 203.164 257.275 203.195 257.321 203.223C257.33 203.245 257.34 203.268 257.353 203.283C257.404 203.369 257.472 203.434 257.563 203.489C257.678 203.554 257.806 203.587 257.941 203.603C258.135 203.615 258.331 203.524 258.471 203.41C258.541 203.353 258.606 203.285 258.671 203.217L258.53 203.358C258.761 203.158 258.991 202.958 259.217 202.747L259.079 202.881C259.141 202.82 259.211 202.764 259.27 202.712C259.338 202.635 259.39 202.552 259.409 202.456C259.435 202.391 259.458 202.335 259.449 202.265C259.457 202.221 259.453 202.182 259.453 202.135C259.45 202.001 259.413 201.883 259.345 201.771L259.328 201.764Z" fill="#00FDFF"/>
<path d="M243.886 214.453L243.771 214.293C243.68 214.191 243.565 214.126 243.439 214.085C243.368 214.075 243.308 214.061 243.236 214.051C243.106 214.046 242.979 214.08 242.862 214.137C242.757 214.189 242.659 214.244 242.554 214.296L242.728 214.215C242.602 214.269 242.482 214.333 242.367 214.41C242.268 214.493 242.185 214.582 242.12 214.697C242.054 214.813 242.022 214.941 242.033 215.078C242.041 215.175 242.053 215.264 242.069 215.365C242.069 215.412 242.077 215.463 242.08 215.502C242.093 215.611 242.132 215.702 242.194 215.783C242.241 215.877 242.309 215.942 242.389 216.002C242.468 216.063 242.558 216.098 242.657 216.11C242.746 216.146 242.849 216.149 242.941 216.129L243.133 216.074C243.258 216.021 243.357 215.938 243.439 215.829C243.461 215.772 243.504 215.714 243.526 215.657C243.549 215.6 243.533 215.546 243.544 215.494L243.579 215.48C243.67 215.441 243.743 215.376 243.795 215.293C243.863 215.217 243.915 215.134 243.938 215.03C243.977 214.932 243.98 214.83 243.961 214.737C243.961 214.643 243.933 214.547 243.883 214.461L243.886 214.453Z" fill="#00FDFF"/>
<path d="M240.762 231.501C240.694 231.388 240.597 231.302 240.489 231.24L240.311 231.169C240.171 231.141 240.046 231.148 239.908 231.187C239.875 231.173 239.838 231.196 239.807 231.203C239.748 231.208 239.695 231.224 239.636 231.229C239.583 231.245 239.524 231.25 239.474 231.258C239.37 231.282 239.283 231.333 239.21 231.397C239.132 231.451 239.064 231.527 239.017 231.622C238.965 231.705 238.945 231.8 238.937 231.891C238.918 231.987 238.926 232.085 238.953 232.181C238.978 232.238 239.007 232.306 239.031 232.363C239.099 232.475 239.194 232.569 239.317 232.637L239.496 232.709C239.616 232.738 239.733 232.729 239.857 232.703C239.907 232.695 239.965 232.69 240.019 232.674C240.058 232.67 240.108 232.662 240.151 232.651C240.221 232.641 240.282 232.628 240.355 232.61C240.451 232.583 240.534 232.541 240.611 232.467C240.689 232.414 240.757 232.337 240.801 232.251C240.856 232.16 240.876 232.065 240.884 231.974C240.904 231.878 240.899 231.772 240.863 231.673L240.782 231.499L240.762 231.501Z" fill="#00FDFF"/>
<path d="M239.802 232.719L239.833 232.713C239.833 232.713 239.915 232.698 239.957 232.687L239.848 232.7L239.864 232.706C239.76 232.73 239.741 232.732 239.791 232.724L239.802 232.719Z" fill="#00FDFF"/>
<path d="M239.856 232.702C239.856 232.702 239.795 232.715 239.767 232.714L239.856 232.702Z" fill="#00FDFF"/>
<path d="M178.554 210.026C178.554 210.026 178.554 210.026 178.533 210.008C178.512 209.99 178.499 209.975 178.481 209.949C178.455 209.92 178.426 209.899 178.4 209.87C178.336 209.816 178.265 209.759 178.19 209.71C178.099 209.655 178 209.596 177.891 209.562C177.834 209.539 177.782 209.528 177.722 209.513C177.708 209.479 177.716 209.435 177.698 209.409C177.613 209.244 177.451 209.084 177.266 209.029C177.081 208.973 176.868 208.964 176.687 209.061L176.52 209.173C176.421 209.256 176.359 209.363 176.313 209.477C176.26 209.587 176.206 209.698 176.152 209.808C176.12 209.89 176.074 209.956 176.042 210.037C175.977 210.2 175.959 210.362 175.996 210.528C176.027 210.663 176.087 210.772 176.178 210.874C176.243 210.948 176.326 211 176.415 211.035C176.501 211.079 176.594 211.107 176.696 211.11C176.834 211.119 176.961 211.084 177.081 211.02L177.145 210.979L177.179 210.964L177.195 210.971C177.195 210.971 177.245 210.963 177.265 210.961C177.289 210.971 177.309 210.969 177.336 210.971C177.336 210.971 177.411 211.02 177.445 211.052C177.445 211.052 177.462 211.059 177.475 211.073C177.551 211.142 177.639 211.205 177.747 211.239C177.933 211.295 178.147 211.277 178.321 211.196C178.547 211.079 178.734 210.824 178.728 210.557C178.723 210.357 178.665 210.174 178.535 210.027L178.554 210.026Z" fill="#00FDFF"/>
<path d="M171.36 220.786C171.298 220.752 171.247 220.713 171.186 220.678L171.356 220.794C171.165 220.66 170.983 220.55 170.788 220.425L170.953 220.529C170.857 220.462 170.757 220.384 170.65 220.322C170.57 220.262 170.481 220.226 170.381 220.215C170.292 220.179 170.19 220.176 170.089 220.192L169.897 220.247C169.798 220.283 169.725 220.348 169.657 220.424C169.601 220.468 169.57 220.522 169.548 220.579C169.505 220.637 169.496 220.709 169.481 220.769C169.361 220.834 169.263 220.936 169.195 221.059C169.13 221.175 169.097 221.303 169.105 221.448C169.108 221.581 169.146 221.7 169.214 221.812C169.334 221.983 169.419 222.054 169.589 222.17C169.68 222.225 169.797 222.262 169.898 222.293C169.999 222.324 170.112 222.323 170.215 222.326C170.317 222.329 170.429 222.308 170.525 222.28C170.537 222.276 170.551 222.263 170.571 222.261C170.644 222.29 170.709 222.316 170.787 222.31C170.889 222.313 170.99 222.297 171.073 222.255C171.169 222.227 171.255 222.177 171.331 222.104C171.429 222.001 171.492 221.867 171.531 221.722C171.538 221.706 171.561 221.696 171.567 221.68C171.603 221.59 171.639 221.501 171.626 221.392C171.637 221.293 171.626 221.204 171.59 221.104C171.548 220.974 171.468 220.867 171.363 220.778L171.36 220.786Z" fill="#00FDFF"/>
<path d="M176.843 219.899L176.833 219.876C176.809 219.819 176.775 219.74 176.739 219.688C176.689 219.602 176.613 219.533 176.544 219.468C176.4 219.335 176.218 219.272 176.031 219.244C175.932 219.232 175.834 219.241 175.743 219.279C175.735 219.276 175.729 219.292 175.717 219.297L175.659 219.302C175.519 219.322 175.402 219.378 175.291 219.466C175.143 219.577 175.036 219.75 174.984 219.928C174.934 220.077 174.927 220.235 174.951 220.386C174.959 220.436 174.971 220.478 174.99 220.524C175.002 220.566 175.016 220.6 175.039 220.638C175.091 220.743 175.102 220.786 175.19 220.896C175.216 220.926 175.247 220.966 175.284 220.991C175.31 221.02 175.351 221.036 175.38 221.057C175.425 221.132 175.474 221.199 175.549 221.247L175.718 221.343C175.807 221.379 175.903 221.399 176.001 221.391C176.1 221.402 176.204 221.378 176.295 221.339L176.467 221.238C176.548 221.176 176.605 221.105 176.652 221.011C176.677 220.973 176.685 220.929 176.701 220.889C176.711 220.864 176.745 220.85 176.755 220.825C176.862 220.652 176.898 220.515 176.913 220.314C176.923 220.195 176.9 220.063 176.871 219.948C176.866 219.937 176.864 219.917 176.859 219.906L176.843 219.899Z" fill="#00FDFF"/>
<path d="M190.476 223.003C190.297 222.931 190.088 222.913 189.906 222.991C189.781 223.045 189.673 223.125 189.566 223.204C189.499 223.253 189.425 223.298 189.363 223.358C189.334 223.384 189.304 223.41 189.283 223.44C189.233 223.495 189.179 223.558 189.133 223.625C189.064 223.729 189.002 223.836 188.948 223.946C188.839 224.195 188.782 224.455 188.777 224.726L188.805 224.917C188.832 225.013 188.874 225.095 188.939 225.169C188.972 225.229 189.022 225.268 189.084 225.302C189.16 225.37 189.246 225.414 189.354 225.429C189.516 225.447 189.667 225.47 189.83 225.488L189.84 225.463C189.895 225.466 189.957 225.501 190.026 225.491C190.124 225.483 190.22 225.455 190.298 225.402C190.389 225.363 190.467 225.309 190.527 225.229C190.561 225.168 190.6 225.117 190.634 225.056C190.682 224.961 190.709 224.869 190.701 224.771C190.708 224.708 190.706 224.641 190.685 224.576C190.683 224.557 190.67 224.542 190.669 224.523C190.682 224.49 190.695 224.458 190.692 224.419C190.682 224.349 190.677 224.29 190.664 224.228C190.664 224.228 190.687 224.219 190.701 224.206C190.775 224.141 190.832 224.069 190.871 223.972C190.906 223.882 190.934 223.79 190.926 223.692C190.937 223.593 190.921 223.492 190.882 223.401C190.801 223.227 190.669 223.062 190.483 222.987L190.476 223.003Z" fill="#00FDFF"/>
<path d="M189.486 223.238C189.486 223.238 189.535 223.211 189.561 223.193C189.59 223.167 189.62 223.141 189.657 223.118L189.498 223.233L189.486 223.238Z" fill="#00FDFF"/>
<path d="M195.38 234.252C195.37 234.183 195.346 234.126 195.31 234.074C195.286 234.017 195.25 233.965 195.191 233.922C195.126 233.849 195.047 233.789 194.957 233.753L194.764 233.695L194.559 233.688L194.371 233.735L194.322 233.763C194.181 233.716 194.031 233.665 193.885 233.654C193.813 233.644 193.747 233.646 193.672 233.644C193.555 233.654 193.448 233.686 193.345 233.73C193.225 233.795 193.126 233.878 193.044 233.986C192.971 234.099 192.931 234.224 192.914 234.359C192.909 234.489 192.932 234.62 192.989 234.737C193.054 234.858 193.137 234.957 193.246 235.038C193.311 235.064 193.369 235.106 193.431 235.14L193.257 235.033C193.38 235.101 193.493 235.175 193.626 235.219C193.683 235.241 193.762 235.254 193.814 235.266C193.926 235.292 194.03 235.315 194.141 235.321L194.157 235.328C194.23 235.357 194.289 235.399 194.368 235.412C194.461 235.44 194.563 235.443 194.656 235.424C194.845 235.377 195.044 235.278 195.14 235.109C195.16 235.06 195.188 235.015 195.215 234.969L195.222 234.953C195.222 234.953 195.292 234.896 195.308 234.855C195.36 234.772 195.379 234.677 195.391 234.577C195.401 234.553 195.388 234.538 195.389 234.511C195.396 234.495 195.406 234.47 195.396 234.447C195.406 234.376 195.401 234.317 195.372 234.249L195.38 234.252Z" fill="#00FDFF"/>
<path d="M238.667 248.951C238.667 248.951 238.632 248.918 238.611 248.9C238.587 248.702 238.495 248.486 238.317 248.386C238.256 248.352 238.194 248.318 238.132 248.284C238.194 248.318 238.248 248.349 238.309 248.383C238.111 248.266 237.929 248.155 237.724 248.055L237.822 248.094L237.848 248.123L237.897 248.142C237.848 248.123 237.794 248.092 237.749 248.064C237.62 247.985 237.513 247.923 237.365 247.845L237.539 247.952C237.414 247.864 237.291 247.796 237.153 247.741C237.218 247.767 237.274 247.79 237.336 247.824C237.221 247.759 237.114 247.697 236.998 247.632C236.845 247.542 236.587 247.552 236.431 247.612C236.255 247.674 236.077 247.838 236.005 248.016C235.933 248.195 235.907 248.402 235.985 248.584L236.083 248.764C236.136 248.842 236.214 248.883 236.289 248.932L236.282 248.948C236.282 248.948 236.344 248.982 236.373 249.003C236.373 249.003 236.382 249.006 236.39 249.01L236.282 248.948C236.19 249.062 236.113 249.182 236.099 249.336C236.082 249.518 236.133 249.746 236.254 249.889C236.384 250.035 236.563 250.154 236.765 250.168C236.922 250.175 237.077 250.143 237.223 250.06L237.32 250.099C237.377 250.122 237.441 250.128 237.509 250.146C237.6 250.154 237.689 250.143 237.769 250.109C237.81 250.125 237.842 250.138 237.883 250.154L238.083 250.197C238.182 250.208 238.283 250.192 238.377 250.145C238.521 250.09 238.671 249.999 238.757 249.854C238.822 249.739 238.871 249.617 238.879 249.479C238.892 249.305 238.813 249.056 238.693 248.933L238.667 248.951Z" fill="#00FDFF"/>
<path d="M230.256 257.781C230.256 257.781 230.317 257.721 230.361 257.682C230.368 257.666 230.391 257.656 230.397 257.64L230.256 257.781Z" fill="#00FDFF"/>
<path d="M232.043 258.073C232.035 257.975 232.007 257.879 231.957 257.793C231.936 257.728 231.9 257.676 231.842 257.634C231.78 257.553 231.7 257.492 231.603 257.453L231.393 257.388L231.187 257.362L231.179 257.359C231.104 257.357 230.972 257.38 230.953 257.382L231.148 257.365C231.078 257.375 231.003 257.374 230.93 257.391C230.922 257.388 230.899 257.398 230.888 257.403C230.811 257.429 230.738 257.447 230.67 257.476C230.625 257.495 230.584 257.526 230.546 257.549C230.512 257.563 230.464 257.591 230.431 257.625C230.405 257.643 230.387 257.664 230.366 257.693C230.319 257.74 230.264 257.784 230.221 257.843C230.176 257.909 230.13 257.976 230.09 258.054C230.067 258.111 230.041 258.176 230.026 258.236C230.007 258.332 230.007 258.426 230.034 258.522C230.036 258.589 230.057 258.654 230.101 258.709C230.14 258.8 230.201 258.881 230.278 258.95C230.359 259.029 230.44 259.109 230.525 259.18C230.593 259.245 230.65 259.315 230.721 259.372C230.798 259.441 230.887 259.476 230.983 259.496C231.072 259.532 231.171 259.543 231.272 259.527L231.472 259.475C231.571 259.439 231.649 259.386 231.717 259.309C231.769 259.274 231.812 259.215 231.834 259.158C231.895 259.079 231.922 258.986 231.942 258.89C231.94 258.824 231.947 258.76 231.945 258.694C231.942 258.655 231.916 258.625 231.91 258.594C231.979 258.49 232.014 258.382 232.043 258.261L232.054 258.068L232.043 258.073Z" fill="#00FDFF"/>
<path d="M230.879 257.399C230.814 257.42 230.738 257.446 230.705 257.46L230.879 257.399Z" fill="#00FDFF"/>
<path d="M209.554 270.984C209.505 270.87 209.456 270.804 209.375 270.724C209.289 270.633 209.182 270.571 209.068 270.525C209.003 270.499 208.935 270.482 208.86 270.48C208.8 270.465 208.741 270.47 208.683 270.475C208.476 270.496 208.276 270.595 208.145 270.759C208.094 270.814 208.052 270.873 208.026 270.938C207.982 271.024 207.954 271.116 207.951 271.219C207.94 271.318 207.948 271.416 207.983 271.515C207.983 271.515 208 271.521 207.993 271.537C207.995 271.557 207.988 271.573 207.993 271.585C208.027 271.711 208.099 271.815 208.196 271.902C208.32 272.017 208.459 272.092 208.627 272.121L208.651 272.131C208.651 272.131 208.729 272.124 208.776 272.124C208.812 272.129 208.851 272.126 208.89 272.123C208.96 272.113 209.025 272.092 209.09 272.071L209.124 272.056C209.218 272.009 209.308 271.951 209.379 271.866C209.43 271.811 209.475 271.744 209.513 271.675C209.529 271.634 209.545 271.593 209.561 271.553C209.578 271.512 209.594 271.472 209.602 271.428C209.605 271.372 209.617 271.273 209.607 271.203C209.594 271.142 209.583 271.052 209.554 270.984Z" fill="#00FDFF"/>
<path d="M208.371 272.028L208.55 272.1C208.435 272.035 208.319 271.97 208.204 271.905C208.204 271.905 208.204 271.905 208.209 271.916L208.363 272.025L208.371 272.028Z" fill="#00FDFF"/>
<path d="M221.383 276.637L221.364 276.591C221.364 276.591 221.348 276.538 221.338 276.515C221.322 276.461 221.297 276.404 221.273 276.347C221.294 276.412 221.318 276.469 221.331 276.531C221.289 276.401 221.252 276.282 221.206 276.161C221.197 276.138 221.19 276.107 221.18 276.084L221.166 276.05C221.103 275.902 221.01 275.78 220.883 275.673C220.789 275.579 220.685 275.509 220.56 275.468C220.462 275.429 220.368 275.429 220.267 275.445C220.251 275.439 220.225 275.456 220.206 275.458C220.173 275.445 220.147 275.416 220.107 275.399C220.017 275.364 219.915 275.36 219.817 275.368C219.715 275.365 219.619 275.393 219.533 275.443C219.361 275.544 219.216 275.693 219.165 275.89C219.151 275.95 219.144 276.013 219.126 276.082C219.125 276.203 219.154 276.319 219.198 276.421C219.248 276.555 219.295 276.696 219.357 276.824C219.381 276.881 219.414 276.941 219.438 276.998C219.482 277.054 219.529 277.101 219.565 277.153L219.735 277.268C219.821 277.312 219.914 277.34 220.016 277.343C220.049 277.356 220.075 277.338 220.111 277.343C220.15 277.387 220.166 277.441 220.219 277.472C220.385 277.576 220.574 277.623 220.775 277.59C220.876 277.574 220.975 277.539 221.056 277.477C221.143 277.426 221.216 277.362 221.268 277.279C221.341 277.167 221.386 277.053 221.395 276.915C221.411 276.78 221.388 276.648 221.323 276.528L221.367 276.63L221.383 276.637Z" fill="#00FDFF"/>
<path d="M219.28 276.613L219.211 276.436C219.211 276.436 219.217 276.466 219.222 276.478C219.241 276.523 219.261 276.568 219.28 276.613Z" fill="#00FDFF"/>
<path d="M219.933 289.367C218.981 289.533 219.287 291.003 220.24 290.838C221.192 290.673 220.886 289.202 219.933 289.367Z" fill="#00FDFF"/>
<path d="M231.324 289.432C231.311 289.371 231.278 289.31 231.231 289.263C231.218 289.249 231.202 289.242 231.2 289.223C231.182 289.197 231.184 289.169 231.166 289.143C231.104 289.062 231.036 288.997 230.95 288.953C230.921 288.932 230.885 288.927 230.852 288.914L230.908 288.917C230.851 288.894 230.786 288.868 230.726 288.854L230.685 288.837L230.497 288.837C230.438 288.842 230.381 288.866 230.328 288.883C230.328 288.883 230.311 288.876 230.308 288.884L230.316 288.887C230.316 288.887 230.269 288.887 230.246 288.897C230.201 288.917 230.172 288.943 230.134 288.965C230.108 288.983 230.071 289.006 230.033 289.029C230.019 289.042 230.004 289.055 229.989 289.068C229.931 289.12 229.885 289.186 229.848 289.256C229.828 289.305 229.809 289.354 229.786 289.411C229.763 289.467 229.747 289.508 229.744 289.563L229.737 289.58C229.747 289.649 229.749 289.716 229.75 289.783C229.771 289.848 229.784 289.909 229.809 289.966C229.825 290.02 229.852 290.069 229.883 290.109C229.916 290.17 229.952 290.222 230.013 290.256C230.039 290.285 230.069 290.306 230.098 290.327C230.13 290.34 230.156 290.37 230.189 290.383L230.368 290.454L230.442 290.456L230.636 290.467C230.702 290.466 230.756 290.449 230.821 290.428C230.863 290.417 230.905 290.406 230.943 290.383C230.988 290.363 231.026 290.341 231.055 290.315C231.118 290.274 231.166 290.227 231.216 290.172L231.304 290.047L231.359 289.909L231.398 289.717C231.41 289.618 231.393 289.517 231.346 289.423L231.324 289.432Z" fill="#00FDFF"/>
<path d="M231.368 280.777C231.289 280.623 231.219 280.538 231.087 280.42C230.956 280.301 230.79 280.244 230.623 280.215C230.455 280.185 230.348 280.218 230.193 280.25C230.193 280.25 230.128 280.224 230.089 280.227C230.021 280.21 229.948 280.227 229.87 280.234C229.807 280.227 229.747 280.213 229.683 280.206L229.488 280.222C229.387 280.238 229.293 280.286 229.22 280.351C229.16 280.383 229.113 280.43 229.074 280.48C229.009 280.549 228.957 280.632 228.937 280.727C228.917 280.823 228.895 280.927 228.891 281.03C228.886 281.113 228.901 281.194 228.916 281.275C228.917 281.295 228.927 281.317 228.925 281.345C228.95 281.449 228.997 281.543 229.032 281.642C229.042 281.665 229.047 281.677 229.057 281.699C229.08 281.737 229.106 281.766 229.136 281.807C229.247 281.955 229.182 281.881 229.369 282.051C229.478 282.132 229.595 282.169 229.718 282.19C229.817 282.202 229.915 282.194 230.014 282.158C230.064 282.15 230.108 282.111 230.157 282.083C230.241 282.108 230.332 282.116 230.425 282.096C230.514 282.132 230.607 282.16 230.713 282.155C230.849 282.144 230.971 282.098 231.083 282.03C231.212 281.921 231.296 281.852 231.374 281.704C231.438 281.569 231.478 281.444 231.49 281.297C231.492 281.223 231.48 281.133 231.474 281.055C231.461 280.993 231.423 280.875 231.389 280.795L231.368 280.777Z" fill="#00FDFF"/>
<path d="M236.188 267.142C236.123 267.069 236.035 267.006 235.964 266.949C235.935 266.928 235.897 266.904 235.857 266.887C235.694 266.822 235.556 266.767 235.384 266.773C235.148 266.773 234.94 266.822 234.734 266.937C234.648 266.987 234.56 267.065 234.495 267.134C234.465 267.16 234.441 267.197 234.42 267.226C234.357 267.314 234.295 267.421 234.264 267.522C234.231 267.603 234.215 267.691 234.215 267.785C234.212 267.84 234.205 267.951 234.223 268.024C234.238 268.105 234.255 268.178 234.281 268.255C234.348 268.442 234.455 268.598 234.6 268.731C234.809 268.938 235.146 269.063 235.44 269.011C235.459 269.009 235.485 268.992 235.508 268.982C235.547 268.979 235.596 268.998 235.638 268.987C235.872 268.92 236.077 268.785 236.226 268.6C236.344 268.449 236.409 268.287 236.456 268.098C236.469 268.066 236.469 268.019 236.474 267.983C236.477 267.88 236.48 267.778 236.464 267.677C236.427 267.464 236.334 267.295 236.203 267.13L236.188 267.142Z" fill="#00FDFF"/>
<path d="M252.757 255.716C252.757 255.716 252.744 255.748 252.737 255.765C252.718 255.813 252.709 255.857 252.698 255.909C252.724 255.844 252.739 255.784 252.757 255.716Z" fill="#00FDFF"/>
<path d="M252.775 254.705C252.726 254.638 252.663 254.585 252.596 254.539C252.552 254.484 252.523 254.415 252.465 254.373C252.388 254.305 252.291 254.266 252.195 254.246C252.106 254.21 252.003 254.207 251.91 254.227C251.779 254.249 251.657 254.295 251.558 254.378C251.543 254.391 251.52 254.4 251.506 254.413C251.447 254.465 251.385 254.525 251.332 254.589C251.264 254.665 251.221 254.771 251.177 254.857C251.164 254.889 251.148 254.93 251.135 254.962C251.114 255.039 251.101 255.118 251.088 255.198C251.083 255.281 251.094 255.37 251.093 255.445L251.086 255.461C251.086 255.461 251.123 255.627 251.143 255.673C251.139 255.681 251.153 255.695 251.157 255.707L251.148 255.731C251.149 255.798 251.151 255.864 251.141 255.936C251.154 255.998 251.175 256.063 251.185 256.133C251.217 256.193 251.245 256.241 251.277 256.302C251.324 256.349 251.363 256.393 251.411 256.44C251.464 256.471 251.515 256.51 251.576 256.544C251.674 256.583 251.766 256.611 251.864 256.603C251.935 256.612 251.994 256.608 252.062 256.578C252.132 256.569 252.189 256.544 252.241 256.508C252.298 256.484 252.35 256.448 252.4 256.393C252.452 256.357 252.491 256.307 252.517 256.242C252.548 256.188 252.573 256.151 252.604 256.097C252.617 256.065 252.63 256.032 252.643 256C252.675 255.919 252.704 255.846 252.717 255.766C252.731 255.734 252.747 255.693 252.752 255.657L252.761 255.633C252.761 255.633 252.807 255.566 252.828 255.537C252.88 255.454 252.908 255.361 252.919 255.262C252.939 255.166 252.939 255.072 252.911 254.976C252.887 254.872 252.845 254.789 252.772 254.713L252.775 254.705Z" fill="#00FDFF"/>
<path d="M251.104 255.44C251.099 255.382 251.097 255.315 251.093 255.257C251.096 255.296 251.096 255.39 251.104 255.44Z" fill="#00FDFF"/>
<path d="M251.109 255.452L251.1 255.449L251.104 255.44L251.109 255.452Z" fill="#00FDFF"/>
<path d="M265.486 233.607C265.486 233.607 265.47 233.506 265.459 233.464C265.412 233.228 265.278 233.043 265.061 232.927C264.978 232.875 264.885 232.848 264.786 232.836C264.651 232.82 264.528 232.846 264.399 232.907L264.377 232.917L264.201 233.026L264.29 232.968L264.284 232.984C264.284 232.984 264.204 233.018 264.178 233.036C264.123 233.08 263.985 233.213 263.999 233.2C264.047 233.153 264.099 233.117 264.146 233.07C264.014 233.187 263.92 233.281 263.817 233.419C263.775 233.478 263.686 233.677 263.702 233.637C263.653 233.759 263.625 233.851 263.62 233.981C263.596 234.113 263.607 234.249 263.653 234.371C263.698 234.493 263.77 234.597 263.867 234.683C263.917 234.723 263.989 234.732 264.043 234.763C264.044 234.783 264.049 234.794 264.051 234.814C264.085 234.94 264.138 235.066 264.21 235.17C264.304 235.311 264.418 235.404 264.553 235.514C264.762 235.674 265.09 235.654 265.305 235.542C265.531 235.425 265.702 235.164 265.7 234.909C265.703 234.806 265.687 234.705 265.668 234.613C265.652 234.512 265.632 234.419 265.613 234.327C265.569 234.083 265.525 233.839 265.473 233.592L265.486 233.607Z" fill="#00FDFF"/>
<path d="M265.592 234.167C265.605 234.229 265.61 234.288 265.626 234.341L265.584 234.164L265.592 234.167Z" fill="#00FDFF"/>
<path d="M265.673 234.577C265.673 234.577 265.676 234.616 265.678 234.636C265.689 234.678 265.701 234.72 265.701 234.767L265.673 234.577Z" fill="#00FDFF"/>
</svg>
