<svg width="400" height="400" viewBox="0 0 400 400" fill="none" xmlns="http://www.w3.org/2000/svg">
<path d="M293.156 297.417C293.156 297.417 345.095 355.996 346.24 355.116C347.392 354.239 366.19 350.992 366.19 350.992L372.777 357.967L392.292 346.362C392.292 346.362 305.292 277.05 305.147 277.718C305.002 278.386 293.156 297.417 293.156 297.417Z" fill="#612209"/>
<path d="M308.263 311.132C310.905 303.545 313.528 295.96 316.171 288.374C316.729 286.768 314.253 285.89 313.687 287.492C311.044 295.078 308.421 302.663 305.778 310.25C305.22 311.855 307.696 312.734 308.263 311.132Z" fill="#8A491B"/>
<path d="M318.896 322.15C321.42 313.658 324.113 305.215 326.635 296.731C327.113 295.113 324.64 294.226 324.15 295.849C321.626 304.341 318.932 312.784 316.411 321.268C315.933 322.886 318.406 323.773 318.896 322.15Z" fill="#8A491B"/>
<path d="M330.273 333.052C332.851 324.12 335.93 315.303 339.496 306.729C340.152 305.163 337.664 304.289 337.012 305.847C333.442 314.429 330.364 323.246 327.789 332.17C327.318 333.792 329.799 334.682 330.273 333.052Z" fill="#8A491B"/>
<path d="M345.026 347.672L354.814 320.198C355.38 318.596 352.904 317.717 352.329 319.316L342.542 346.79C341.975 348.392 344.452 349.271 345.026 347.672Z" fill="#8A491B"/>
<path d="M363.127 350.661C365.27 344.062 367.43 337.47 369.573 330.871C370.095 329.261 367.611 328.379 367.089 329.989C364.945 336.588 362.786 343.18 360.642 349.779C360.12 351.389 362.604 352.271 363.127 350.661Z" fill="#8A491B"/>
<path d="M94.0565 115.987L213.22 230.736L209.721 248.227L257.889 298.215L283.661 271.035L290.131 245.231L97.165 84.4531L94.0565 115.987Z" fill="#EAA10F"/>
<path d="M97.2663 90.3199L288.643 257.466L291.152 248.072C291.152 248.072 95.2074 82.7735 95.5041 84.363C95.8007 85.9525 97.2663 90.3199 97.2663 90.3199Z" fill="#FECB5E"/>
<path d="M128.916 147.089C129.003 145.578 119.157 105.574 119.157 105.574L143.252 124.171L152.544 169.138L128.916 147.089Z" fill="#FFDD55"/>
<path d="M158.385 176.257L173.022 190.294L162.684 141.796L152.69 132.477L158.385 176.257Z" fill="#FFDD55"/>
<path d="M232.81 272.775L249.003 289.141C249.003 289.141 232.153 198.506 230.863 197.631C229.573 196.756 213.721 182.196 213.569 183.352C213.41 184.504 226.537 227.99 228.528 238.46C230.514 248.919 232.806 272.784 232.806 272.784L232.81 272.775Z" fill="#FFDD55"/>
<path d="M96.1672 102.88L132.393 136.15L168.618 169.42L204.673 202.527L240.899 235.797L277.124 269.067L281.631 273.21C283.195 274.647 285.167 272.006 283.624 270.586L247.399 237.316L211.173 204.046L175.118 170.939L138.893 137.669L102.667 104.399L98.1608 100.256C96.5964 98.8188 94.6239 101.46 96.1672 102.88Z" fill="black"/>
<path d="M238.841 216.43L275.637 250.041L286.081 259.579C286.71 260.151 287.498 259.1 286.878 258.531L250.082 224.92L239.638 215.382C239.01 214.809 238.221 215.861 238.841 216.43Z" fill="black"/>
<path d="M255.035 261.795L275.56 281.046C276.177 281.623 276.966 280.572 276.357 279.998L255.832 260.747C255.214 260.17 254.426 261.221 255.035 261.795Z" fill="black"/>
<path d="M298.868 217.016C298.3 218.363 284.553 272.269 284.553 272.269L239.769 321.729L276.797 316.347L331.133 243.156L302.312 215.548L298.873 217.027L298.868 217.016Z" fill="#D28F00"/>
<path d="M233.65 257.661L267.24 290.356C267.843 290.946 268.635 289.887 268.037 289.308L234.447 256.613C233.844 256.023 233.053 257.082 233.65 257.661Z" fill="black"/>
<path d="M296.977 228.798C297.07 228.778 297.614 229.185 298.495 229.905C304.447 234.769 325.689 253.995 325.689 253.995L330.155 246.046L304.004 216.622L299.452 218.24L297.067 228.786" fill="#965B00"/>
<path d="M255.085 317.362L266.172 309.641L285.712 285.781C285.712 285.781 283.933 283.136 286.201 279.406C288.468 275.676 292.402 277.034 292.402 277.034L315.745 245.374L318.652 234.585L321.048 236.77L318.223 246.225L294.595 278.526C294.595 278.526 297.452 281.207 295.047 284.74C291.549 289.873 287.589 287.919 287.589 287.919L268.716 310.82L262.169 316.362L255.098 317.376L255.085 317.362Z" fill="white"/>
<path d="M292.025 284.208C292.998 283.213 293.003 281.639 292.035 280.692C291.068 279.746 289.495 279.786 288.521 280.781C287.548 281.776 287.543 283.35 288.511 284.296C289.478 285.242 291.051 285.203 292.025 284.208Z" fill="#D28F00"/>
<path d="M303.016 282.285L309.012 287.958C309.012 287.958 302.658 298.149 303.1 298.6C317.047 312.784 349.142 347.256 350.091 347.665C351.308 348.18 366.12 344.035 367.926 343.693C369.732 343.351 378.819 353.967 378.819 353.967L374.257 358.06L364.9 350.117L350.584 355.451L344.998 351.649L291.574 296.755L303.016 282.285Z" fill="#361206"/>
<mask id="mask0_7149_5437" style="mask-type:luminance" maskUnits="userSpaceOnUse" x="291" y="282" width="88" height="77">
<path d="M303.016 282.285L309.012 287.958C309.012 287.958 302.658 298.149 303.1 298.6C317.047 312.784 349.142 347.256 350.091 347.665C351.308 348.18 366.12 344.035 367.926 343.693C369.732 343.351 378.819 353.967 378.819 353.967L374.257 358.06L364.9 350.117L350.584 355.451L344.998 351.649L291.574 296.755L303.016 282.285Z" fill="white"/>
</mask>
<g mask="url(#mask0_7149_5437)">
<path d="M308.263 311.132C310.905 303.545 313.528 295.96 316.171 288.374C316.729 286.768 314.253 285.89 313.687 287.492C311.044 295.078 308.421 302.663 305.778 310.25C305.22 311.855 307.696 312.734 308.263 311.132Z" fill="#5C2F0E"/>
<path d="M318.896 322.15C321.42 313.658 324.113 305.215 326.635 296.731C327.113 295.113 324.64 294.226 324.15 295.849C321.626 304.341 318.932 312.784 316.411 321.268C315.933 322.886 318.406 323.773 318.896 322.15Z" fill="#5C2F0E"/>
<path d="M330.273 333.052C332.851 324.12 335.93 315.303 339.496 306.729C340.152 305.163 337.664 304.289 337.012 305.847C333.442 314.429 330.364 323.246 327.789 332.17C327.318 333.792 329.799 334.682 330.273 333.052Z" fill="#5C2F0E"/>
<path d="M345.026 347.672L354.814 320.198C355.38 318.596 352.904 317.717 352.329 319.316L342.542 346.79C341.975 348.392 344.452 349.271 345.026 347.672Z" fill="#5C2F0E"/>
<path d="M363.127 350.661C365.27 344.062 367.43 337.47 369.573 330.871C370.095 329.261 367.611 328.379 367.089 329.989C364.945 336.588 362.786 343.18 360.642 349.779C360.12 351.389 362.604 352.271 363.127 350.661Z" fill="#5C2F0E"/>
</g>
<path d="M303.21 285.191C304.427 285.707 383.105 351.507 383.105 351.507L389.912 347.974C389.912 347.974 387.285 343.989 386.721 342.972C386.155 341.962 305.675 276.496 305.156 277.721C304.637 278.946 303.21 285.191 303.21 285.191Z" fill="#843F0E"/>
<mask id="mask1_7149_5437" style="mask-type:luminance" maskUnits="userSpaceOnUse" x="303" y="277" width="87" height="75">
<path d="M303.21 285.191C304.427 285.707 383.105 351.507 383.105 351.507L389.912 347.974C389.912 347.974 387.285 343.989 386.721 342.972C386.155 341.962 305.675 276.496 305.156 277.721C304.637 278.946 303.21 285.191 303.21 285.191Z" fill="white"/>
</mask>
<g mask="url(#mask1_7149_5437)">
<path d="M308.263 311.132C310.905 303.546 313.528 295.961 316.171 288.374C316.729 286.769 314.253 285.89 313.687 287.492C311.044 295.079 308.421 302.664 305.778 310.25C305.22 311.856 307.696 312.734 308.263 311.132Z" fill="#D07C40"/>
<path d="M318.896 322.15C321.42 313.659 324.113 305.216 326.635 296.732C327.113 295.114 324.64 294.227 324.15 295.85C321.626 304.342 318.932 312.785 316.411 321.269C315.933 322.887 318.406 323.774 318.896 322.15Z" fill="#D07C40"/>
<path d="M330.273 333.053C332.851 324.12 335.93 315.304 339.496 306.73C340.152 305.163 337.664 304.289 337.012 305.848C333.442 314.43 330.364 323.247 327.789 332.171C327.318 333.792 329.799 334.682 330.273 333.053Z" fill="#D07C40"/>
<path d="M345.026 347.672L354.814 320.199C355.38 318.597 352.904 317.718 352.329 319.317L342.542 346.79C341.975 348.392 344.452 349.271 345.026 347.672Z" fill="#D07C40"/>
<path d="M363.127 350.661C365.27 344.062 367.43 337.47 369.573 330.871C370.095 329.261 367.611 328.379 367.089 329.989C364.945 336.588 362.786 343.18 360.642 349.779C360.12 351.389 362.604 352.271 363.127 350.661Z" fill="#D07C40"/>
</g>
<path d="M97.0334 110.675C99.949 114.152 213.642 225.069 215.863 226.892C218.084 228.715 218.785 230.447 218.252 233.543C217.719 236.639 215.358 247.195 216.354 248.498C217.349 249.802 263.323 293.029 263.323 293.029L259.862 299.034L210.013 247.194L214.042 232.969L95.8736 116.725L93.5234 106.328L97.0399 110.659L97.0334 110.675Z" fill="#8A4A00"/>
<path d="M95.5508 115.389C96.1536 104.704 97.5333 94.1035 98.809 83.4805C99.1662 80.5408 94.5868 80.0171 94.2263 82.9649C92.9425 93.5846 91.571 104.188 90.9681 114.873C90.7994 117.813 95.3804 118.356 95.5508 115.389Z" fill="black"/>
<path d="M95.2651 85.3138C144.418 127.523 194.271 168.901 244.239 210.135C259.436 222.68 274.657 235.215 289.869 247.747C292.166 249.638 294.94 245.96 292.659 244.075C241.189 201.673 189.691 159.317 138.746 116.286C125.136 104.792 111.573 93.2503 98.0555 81.6423C95.8056 79.7041 93.0282 83.3903 95.2651 85.3138Z" fill="black"/>
<path d="M92.0554 117.006C131.425 155.89 171.623 193.929 211.22 232.574C213.639 234.938 216.8 230.718 214.407 228.383C174.814 189.729 134.612 151.699 95.2425 112.814C92.8384 110.437 89.6772 114.658 92.0554 117.006Z" fill="black"/>
<path d="M212.731 248.904L215.948 231.668C216.572 228.345 211.34 227.757 210.716 231.08L207.498 248.317C206.874 251.64 212.107 252.227 212.731 248.904Z" fill="black"/>
<path d="M207.627 250.961L255.139 299.386C257.489 301.779 261.669 298.57 259.297 296.159L211.786 247.734C209.435 245.341 205.255 248.55 207.627 250.961Z" fill="black"/>
<path d="M218.512 265.494L253.424 302.725C256.013 305.487 260.705 301.87 258.103 299.093L223.191 261.862C220.601 259.1 215.909 262.717 218.512 265.494Z" fill="black"/>
<path d="M240.93 325.353L284.612 275.913C287.143 273.052 282.406 269.486 279.892 272.326L236.211 321.765C233.679 324.626 238.416 328.192 240.93 325.353Z" fill="black"/>
<path d="M285.995 273.988C291.248 254.305 297.459 234.892 302.712 215.209C303.679 211.571 298.195 209.327 297.212 213.006C291.959 232.689 285.748 252.102 280.495 271.785C279.528 275.423 285.012 277.667 285.995 273.988Z" fill="black"/>
<path d="M297.87 215.316L327.876 245.095C330.547 247.749 335.255 244.138 332.555 241.464L302.549 211.684C299.879 209.03 295.17 212.641 297.87 215.316Z" fill="black"/>
<path d="M328.221 241.717L274.749 313.717C272.474 316.784 277.188 320.36 279.468 317.304L332.94 245.304C335.215 242.237 330.501 238.661 328.221 241.717Z" fill="black"/>
<path d="M239.66 326.192C252.426 323.528 265.196 320.903 277.96 318.247C281.674 317.471 280.834 311.611 277.082 312.389C264.315 315.053 251.545 317.679 238.782 320.335C235.068 321.11 235.907 326.971 239.66 326.192Z" fill="black"/>
<path d="M291.054 300.337L344.911 356.526C347.533 359.254 352.225 355.637 349.59 352.894L295.732 296.705C293.111 293.977 288.419 297.594 291.054 300.337Z" fill="black"/>
<path d="M347.991 357.476C354.467 355.828 361.201 355.046 367.373 352.371C370.875 350.851 368.551 345.404 365.04 346.92C359.334 349.396 353.1 350.086 347.112 351.619C343.459 352.55 344.283 358.424 347.991 357.476Z" fill="black"/>
<path d="M364.604 352.129L371.868 358.989C373.031 360.087 375.131 359.598 376.016 358.425C377.071 357.038 376.615 355.375 375.452 354.278L368.188 347.418C367.025 346.321 364.925 346.809 364.04 347.982C362.985 349.369 363.441 351.032 364.604 352.129Z" fill="black"/>
<path d="M375.333 359.236C381.658 355.896 388.046 352.656 394.173 348.964C397.438 347 393.761 342.341 390.541 344.285C384.848 347.718 378.881 350.683 373.008 353.789C369.659 355.559 371.961 361.015 375.341 359.239L375.333 359.236Z" fill="black"/>
<path d="M305.027 281.761L390.295 348.947C393.299 351.31 396.87 346.584 393.882 344.228L308.614 277.042C305.61 274.679 302.039 279.405 305.027 281.761Z" fill="black"/>
<path d="M305.014 310.274C306.59 310.906 307.57 308.46 305.994 307.829C304.417 307.198 303.438 309.643 305.014 310.274Z" fill="black"/>
<path d="M102.668 128.842C102.583 128.77 102.504 128.71 102.419 128.638C102.41 128.663 102.387 128.673 102.38 128.689C97.2834 136.942 93.484 150.995 82.018 152.247C77.3244 152.762 72.9004 150.179 69.8401 146.804C66.1578 142.746 64.4098 137.624 63.481 132.294C62.4533 126.386 62.3196 120.365 61.4122 114.439C60.5242 108.606 59.0008 102.877 56.9329 97.3534C52.7921 86.2957 45.8683 77.1496 39.4502 67.3763C32.8128 57.2796 26.3982 47.0269 29.14 32.202C29.5749 29.8685 29.4288 29.5743 28.7389 31.3909C24.6566 42.1247 28.056 53.8565 33.5121 63.4424C39.8191 74.5287 48.2525 84.1192 53.1778 96.0191C55.6924 102.098 57.4528 108.46 58.4428 114.956C59.4377 121.463 59.4899 128.112 60.8456 134.566C62.8127 143.942 69.1394 154.556 79.7837 155.284C93.7936 156.247 98.7591 140.484 104.588 130.827C103.904 130.204 103.285 129.513 102.66 128.838L102.668 128.842Z" fill="#00FDFF"/>
<path d="M189.791 213.334C189.413 212.938 189.016 212.562 188.612 212.183C188.48 212.253 188.35 212.342 188.228 212.482C185.594 215.339 181.555 215.89 177.974 214.616C173.98 213.196 171.38 209.543 169.961 205.694C166.689 196.822 168.922 186.705 171.435 177.935C173.989 169.041 177.316 160.192 177.844 150.872C178.306 142.657 176.525 133.544 170.639 127.434C165 121.574 153.822 119.897 146.231 123.55C146.616 123.836 146.976 124.16 147.329 124.48C147.69 124.804 148.036 125.14 148.396 125.464C148.438 125.5 148.473 125.532 148.515 125.568C148.591 125.636 148.663 125.693 148.742 125.753C155.988 123.056 165.907 125.642 170.165 131.581C175.583 139.144 175.597 149.161 173.888 157.923C172.041 167.384 168.255 176.341 166.421 185.817C164.805 194.182 164.549 203.837 169.396 211.247C173.749 217.892 184.106 221.362 190.174 214.779C190.361 214.571 190.48 214.345 190.543 214.116C190.298 213.858 190.048 213.588 189.799 213.338L189.791 213.334Z" fill="#00FDFF"/>
<path d="M249.651 181.122C240.141 175.984 227.505 177.286 219.583 184.757C219.804 184.911 220.013 185.071 220.219 185.238C220.689 185.596 221.149 185.978 221.586 186.37C221.704 186.474 221.828 186.589 221.943 186.701C229.071 180.345 240.257 179.179 248.574 183.952C258.545 189.681 261.528 202.264 259.833 212.945C257.901 225.087 250.283 235.517 242.892 244.954C238.972 249.964 234.934 254.89 231.327 260.129C227.942 265.052 224.575 270.444 222.858 276.215C221.17 281.911 221.653 288.874 226.756 292.728C231.44 296.263 237.825 295.266 243.159 294.188C243.333 294.154 243.481 294.091 243.624 294.016C243.368 293.762 243.103 293.505 242.864 293.231C242.281 292.686 241.716 292.12 241.206 291.51C236.497 292.415 230.776 293.094 227.359 289.198C222.949 284.179 225.396 276.892 227.963 271.66C233.586 260.186 242.547 250.831 249.999 240.579C256.912 231.064 263.075 220.079 263.308 208.011C263.512 197.497 259.32 186.333 249.662 181.117L249.651 181.122Z" fill="#00FDFF"/>
<path d="M114.052 139.963L114.044 139.959C97.2242 143.046 78.7961 141.039 65.0214 130.167C58.7263 125.194 53.6816 118.583 50.9109 111.025C47.6273 102.064 48.8358 92.6676 49.7646 83.4048C50.7686 73.4366 49.2386 64.3107 43.5903 55.5812C42.5412 53.9637 42.0242 54.5485 43.0652 56.1628C48.5543 64.6306 47.5874 75.2829 46.5917 84.8302C45.6222 94.1239 44.9111 103.361 48.1849 112.299C54.0477 128.308 68.9778 139.143 85.2454 142.755C95.2439 144.977 105.677 144.678 115.689 142.702C116.018 142.635 116.261 142.497 116.45 142.309C115.625 141.545 114.775 140.818 114.052 139.963Z" fill="#00FDFF"/>
<path d="M199.57 222.719C199.047 222.283 198.538 221.835 198.085 221.342C194.183 225.388 188.541 230.624 183.087 232.332C178.115 233.895 172.473 232.918 169.572 228.249C166.935 224.006 166.835 218.583 167.237 213.766C167.693 208.273 168.95 202.875 170.962 197.733C174.807 187.922 182.041 180.383 187.185 171.328C192.051 162.756 193.758 152.73 188.499 143.874C182.639 134.003 170.598 129.888 159.83 133.635C159.36 133.796 159.095 134.105 158.994 134.451C159.405 134.719 159.82 134.979 160.224 135.264C160.629 135.549 161.049 135.887 161.399 136.262C171.673 132.854 182.998 138.003 187.197 147.972C191.498 158.16 186.273 167.909 180.457 176.194C177.559 180.322 174.474 184.328 171.963 188.715C169.256 193.448 167.172 198.534 165.855 203.823C163.688 212.505 161.877 225.242 168.976 232.281C172.809 236.079 178.492 236.79 183.526 235.308C189.71 233.496 195.872 227.95 200.21 223.428C200.246 223.386 200.27 223.348 200.306 223.306C200.057 223.103 199.817 222.903 199.568 222.7L199.57 222.719Z" fill="#00FDFF"/>
<path d="M249.353 197.614C244.308 190.72 234.668 187.085 226.62 190.63C226.575 190.65 226.545 190.676 226.5 190.695C227.249 191.297 227.998 191.899 228.667 192.581C228.813 192.687 228.959 192.793 229.097 192.895C236.722 190.359 245.08 195.243 248.611 202.125C253.144 210.955 251.468 221.379 248.408 230.383C245.282 239.577 241.087 248.333 238.362 257.677C235.698 266.801 233.959 276.343 234.259 285.882C234.398 290.406 235.226 295.423 238.729 298.636C241.666 301.33 246.225 302.515 249.777 300.308C249.011 299.586 248.273 298.839 247.609 298.026C244.031 299.496 240.215 296.808 238.687 293.444C236.723 289.122 237.086 283.79 237.39 279.169C238.048 269.289 240.552 259.648 243.902 250.365C247.153 241.354 251.521 232.686 253.477 223.259C255.265 214.651 254.678 204.913 249.336 197.608L249.353 197.614Z" fill="#00FDFF"/>
<path d="M35.0088 39.3225C34.9406 39.2104 34.8545 39.1193 34.7391 39.0542C34.7229 39.0477 34.7018 39.0299 34.6888 39.0152C34.6725 39.0087 34.6482 38.999 34.6352 38.9843C34.5523 38.9323 34.4629 38.8965 34.3605 38.8932C34.2647 38.8737 34.1704 38.8736 34.0745 38.9012C33.9705 38.9256 33.8795 38.9645 33.8031 39.0376C33.7169 39.0879 33.6486 39.1643 33.6047 39.2504L33.5331 39.4291C33.4924 39.5542 33.4875 39.6842 33.5216 39.811C33.5427 39.876 33.5751 39.9362 33.5962 40.0012C33.6612 40.1215 33.7554 40.2158 33.8708 40.2809C33.7538 40.1963 33.7164 40.1719 33.7587 40.2077L33.7749 40.2142C33.7749 40.2142 33.8301 40.2646 33.8594 40.2857C33.8837 40.2955 33.9097 40.3247 33.9341 40.3345C33.9504 40.341 33.9747 40.3508 33.9877 40.3654C34.0787 40.4207 34.1713 40.4484 34.2737 40.4517C34.3777 40.4745 34.4752 40.4664 34.5711 40.4388C34.6979 40.4047 34.8101 40.3365 34.9044 40.2423C34.9987 40.1481 35.0637 40.0327 35.0963 39.9043C35.1272 39.8036 35.1305 39.7013 35.1029 39.6054C35.0948 39.5079 35.0672 39.412 35.0088 39.3225Z" fill="#00FDFF"/>
<path d="M24.6239 60.9191C24.6028 60.854 24.5703 60.7939 24.5232 60.7467C24.4696 60.6687 24.4014 60.6037 24.3072 60.5565L24.1284 60.4849L23.9334 60.454C23.831 60.4507 23.7303 60.4669 23.6441 60.5172C23.5482 60.5448 23.4702 60.5983 23.4019 60.6747C23.2963 60.6795 23.1955 60.6957 23.0964 60.7314C23.0167 60.7655 22.9419 60.811 22.8753 60.8598C22.846 60.8857 22.8135 60.9199 22.7923 60.9491C22.7631 60.9751 22.7306 61.0092 22.7094 61.0385C22.5826 61.2139 22.5354 61.4024 22.5369 61.6104C22.5336 61.7599 22.566 61.9143 22.6326 62.0541C22.6423 62.0769 22.6634 62.0947 22.6764 62.1094C22.6715 62.1451 22.6471 62.1825 22.6504 62.2215C22.6747 62.4198 22.7526 62.6018 22.8972 62.7352C23.0921 62.9075 23.3927 62.9808 23.6366 62.8899L23.8137 62.8006C23.869 62.7567 23.9275 62.7048 23.9747 62.6577C24.0039 62.6317 24.0251 62.6024 24.0543 62.5764C24.1405 62.479 24.2105 62.375 24.2885 62.2742C24.3584 62.1703 24.4235 62.0549 24.4804 61.9363C24.552 61.7576 24.6236 61.5789 24.6708 61.3904L24.7018 61.1953C24.7051 61.093 24.6889 60.9922 24.6385 60.9061L24.6239 60.9191Z" fill="#00FDFF"/>
<path d="M51.5712 57.873C51.5208 57.9283 51.4769 57.9672 51.4297 58.0143L51.5793 57.8763L51.5712 57.873Z" fill="#00FDFF"/>
<path d="M51.9882 56.5031C51.8827 56.3665 51.769 56.2267 51.6634 56.0901C51.6991 56.1422 51.743 56.1975 51.782 56.2414C51.6585 56.0788 51.605 56.0007 51.475 55.8544C51.514 55.8983 51.5578 55.9536 51.5968 55.9975C51.4783 55.8463 51.3646 55.6593 51.2103 55.5504C51.0982 55.4772 50.9844 55.4317 50.8609 55.4105C50.7618 55.399 50.6643 55.4072 50.5732 55.4461C50.4725 55.4623 50.3863 55.5127 50.3018 55.5825C50.2026 55.6653 50.1245 55.7661 50.0839 55.8912C50.035 56.013 50.022 56.1398 50.0447 56.2714C50.0674 56.4031 50.121 56.5282 50.2087 56.6388C50.2623 56.7168 50.3321 56.8013 50.389 56.8713C50.3532 56.8192 50.3175 56.7672 50.2818 56.7152C50.3305 56.7818 50.3792 56.8485 50.436 56.9184L50.4263 56.9428C50.2913 57.0679 50.2327 57.3084 50.2505 57.4757C50.27 57.6626 50.3739 57.874 50.525 57.991C50.676 58.1081 50.8743 58.1781 51.0644 58.1505L51.253 58.1035C51.3749 58.0581 51.4822 57.9785 51.5683 57.881C51.6854 57.777 51.7943 57.6698 51.9065 57.5545C52.0366 57.4181 52.1569 57.2588 52.1717 57.0573C52.1782 56.8526 52.1279 56.6722 51.9996 56.4982L51.9882 56.5031Z" fill="#00FDFF"/>
<path d="M35.3336 78.313C35.272 78.1374 35.09 77.9797 34.9194 77.9114C34.7488 77.8431 34.5164 77.8348 34.3425 77.916C34.1686 77.9972 34.0076 78.1401 33.9409 78.3302C33.8726 78.5008 33.8757 78.6813 33.9374 78.8568L33.9277 78.834L33.939 78.8763C33.939 78.8763 33.9358 78.8844 33.9406 78.8958L33.9455 78.9543L33.952 78.9852L33.9552 79.0242L33.9454 79.0485L33.9519 79.1266L33.9259 79.1916C33.9259 79.1916 33.9193 79.2549 33.9063 79.2874C33.8966 79.3118 33.8835 79.3443 33.8738 79.3687C33.8608 79.4012 33.8283 79.4353 33.8071 79.4645C33.7469 79.5441 33.7111 79.6335 33.6997 79.7326C33.6721 79.8253 33.672 79.9195 33.6882 80.0203L33.7548 80.2072C33.8019 80.3015 33.8554 80.3795 33.9432 80.4429C34.0618 80.547 34.2178 80.6283 34.3786 80.6267C34.5753 80.6301 34.7833 80.5814 34.9329 80.4434C35.0386 80.3443 35.1313 80.2306 35.2369 80.1315C35.3052 80.0552 35.3573 79.9723 35.3768 79.8764C35.4158 79.7789 35.4354 79.683 35.4192 79.5823C35.4257 79.566 35.4078 79.54 35.4062 79.5205L35.3672 79.6652C35.3672 79.6652 35.3704 79.657 35.3737 79.6489C35.3867 79.6164 35.4029 79.5758 35.4062 79.5205C35.4062 79.5205 35.4046 79.501 35.3997 79.4896C35.4128 79.41 35.4453 79.3288 35.4389 79.2508C35.434 79.2865 35.4372 79.3255 35.4323 79.3613L35.4274 79.4442C35.4372 79.3727 35.447 79.3011 35.4535 79.2377L35.46 79.2215C35.4633 79.1192 35.4633 79.0249 35.4552 78.9274C35.4488 78.8022 35.431 78.6819 35.3937 78.5633C35.371 78.4788 35.345 78.4024 35.319 78.326L35.3336 78.313Z" fill="#00FDFF"/>
<path d="M61.5533 76.2856C61.4948 76.1962 61.4233 76.1393 61.3291 76.0921L61.1503 76.0205C61.0187 75.9961 60.8936 76.0025 60.7668 76.0366L60.6156 76.108C60.6156 76.108 60.5913 76.0983 60.575 76.0918C60.4791 76.0722 60.3784 76.0884 60.2825 76.116C60.1817 76.1322 60.0874 76.1793 60.0143 76.2443L59.8842 76.3807C59.8061 76.4814 59.7573 76.6033 59.7443 76.73L59.7409 76.9267C59.7604 77.0665 59.8091 77.1803 59.8968 77.2908C59.9228 77.3201 59.9569 77.3526 59.991 77.3851C60.017 77.4144 60.0511 77.4469 60.0804 77.468C60.1437 77.5217 60.2249 77.5542 60.3029 77.5949C60.4004 77.6339 60.5044 77.6567 60.6149 77.6633C60.6702 77.6665 60.7254 77.6698 60.7839 77.665L60.8083 77.6747L60.8311 77.665L61.0245 77.6293C61.0245 77.6293 61.0749 77.6212 61.0976 77.6115C61.1318 77.5969 61.1659 77.5823 61.2 77.5677C61.2228 77.5579 61.2374 77.5449 61.2602 77.5352L61.4195 77.4199L61.426 77.4036L61.452 77.3858C61.5284 77.3127 61.5772 77.2379 61.6357 77.1388C61.6357 77.1388 61.6423 77.1225 61.6455 77.1144C61.6455 77.1144 61.6488 77.1063 61.652 77.0982C61.7041 77.0153 61.7236 76.9195 61.7269 76.8171C61.7465 76.7212 61.7384 76.6237 61.7075 76.5359C61.6799 76.44 61.6296 76.3539 61.5646 76.2807L61.5533 76.2856Z" fill="#00FDFF"/>
<path d="M61.6158 77.1403C61.5817 77.202 61.5426 77.2524 61.5036 77.3027L61.6158 77.1403Z" fill="#00FDFF"/>
<path d="M55.85 109.496C55.6859 109.364 55.4681 109.343 55.2699 109.32L55.4697 109.362C55.3901 109.349 55.3219 109.331 55.2504 109.321C55.1968 109.243 55.1367 109.182 55.0619 109.133C55.0311 109.045 54.9921 108.954 54.9418 108.868C54.7729 108.583 54.5227 108.361 54.2156 108.256C53.7704 108.097 53.1545 108.199 52.9641 108.698C52.8632 108.95 52.9297 109.231 53.0889 109.446C53.1587 109.53 53.2464 109.593 53.3521 109.636C53.326 109.701 53.2838 109.759 53.274 109.831C53.2657 110.205 53.5239 110.525 53.8912 110.596C53.9074 110.603 53.935 110.605 53.9545 110.603C53.9545 110.603 53.9643 110.626 53.9692 110.637C54.1851 111.016 54.5539 111.296 55.0008 111.333C55.4558 111.374 55.9029 111.082 56.0932 110.677C56.2103 110.432 56.2186 110.152 56.1228 109.897C56.0708 109.744 55.9653 109.608 55.8435 109.512L55.85 109.496Z" fill="#00FDFF"/>
<path d="M68.8635 98.964C68.831 98.9039 68.7645 98.8112 68.7417 98.7738L68.7271 98.7397C68.5891 98.4959 68.6394 98.582 68.5046 98.3771C68.4673 98.3056 68.4267 98.2423 68.378 98.1756C68.2984 98.0683 68.1895 97.987 68.0596 97.9349C67.9296 97.8829 67.8028 97.8698 67.663 97.8893C67.5314 97.9119 67.4176 97.9606 67.3103 98.0402C67.203 98.1198 67.1217 98.2287 67.0696 98.3586C67.0436 98.4236 67.0176 98.4886 66.9948 98.5455C66.9818 98.578 66.972 98.6023 66.959 98.6348C66.933 98.6998 66.8923 98.7778 66.8712 98.8542C66.8354 98.9436 66.8077 99.0362 66.8158 99.1337C66.8044 99.2328 66.8206 99.3336 66.8595 99.4246C66.8952 99.5238 66.9488 99.6018 67.0252 99.6701C67.0902 99.7432 67.1698 99.8034 67.2591 99.8392C67.3241 99.8653 67.3956 99.8751 67.4671 99.8848C67.5142 99.932 67.5646 99.971 67.6556 100.026C67.7173 100.06 67.7904 100.09 67.8587 100.108C67.9838 100.148 68.1382 100.163 68.2747 100.152C68.3446 100.142 68.4063 100.129 68.4713 100.108C68.5965 100.054 68.7119 99.978 68.8014 99.8724L68.9055 99.7067C68.9494 99.6206 68.977 99.528 68.9722 99.4223C68.9868 99.3622 68.9771 99.2923 68.9642 99.2306C68.9561 99.1331 68.9204 99.0339 68.8587 98.9526L68.8635 98.964Z" fill="#00FDFF"/>
<path d="M78.2739 105.364L78.3747 105.347L78.4755 105.331L78.2821 105.367L78.2739 105.364Z" fill="#00FDFF"/>
<path d="M79.4139 106.094C79.4204 106.03 79.4074 105.968 79.3749 105.908C79.3555 105.816 79.3084 105.721 79.2434 105.648L79.1054 105.499L78.9315 105.391C78.8665 105.365 78.8096 105.342 78.7381 105.333C78.7024 105.328 78.6195 105.323 78.6195 105.323C78.5919 105.321 78.5366 105.318 78.4976 105.321C78.4586 105.324 78.4277 105.331 78.3855 105.342C78.2343 105.367 78.1222 105.388 77.9678 105.467C77.8133 105.547 77.7255 105.625 77.6199 105.724C77.5288 105.81 77.493 105.852 77.389 106.018C77.3825 106.034 77.3792 106.042 77.3727 106.058C77.306 106.201 77.2311 106.388 77.2213 106.554C77.2099 106.653 77.218 106.751 77.2537 106.85C77.2699 106.951 77.317 107.045 77.3901 107.121C77.4518 107.203 77.5233 107.26 77.6175 107.307C77.7004 107.359 77.7897 107.395 77.8921 107.398C77.9831 107.406 78.0807 107.398 78.1765 107.37C78.1197 107.348 78.0628 107.325 78.0059 107.302C78.0384 107.315 78.0628 107.325 78.0953 107.338C78.1278 107.351 78.1441 107.357 78.1847 107.374C78.2578 107.403 78.3455 107.419 78.4674 107.421C78.6169 107.424 78.7908 107.39 78.9225 107.32C78.994 107.283 79.0574 107.242 79.1159 107.19C79.1745 107.138 79.2168 107.08 79.2672 107.025C79.3176 106.969 79.3436 106.904 79.3648 106.828C79.4136 106.706 79.4348 106.583 79.4202 106.454C79.4202 106.454 79.4332 106.422 79.4365 106.414C79.4397 106.406 79.4267 106.391 79.43 106.383C79.4332 106.328 79.4398 106.264 79.4349 106.206C79.4317 106.167 79.4333 106.139 79.4301 106.1L79.4139 106.094Z" fill="#00FDFF"/>
<path d="M78.3632 105.352L78.2738 105.363C78.2738 105.363 78.355 105.349 78.394 105.345C78.4136 105.344 78.4249 105.339 78.4558 105.332L78.3632 105.352Z" fill="#00FDFF"/>
<path d="M77.563 105.796C77.563 105.796 77.6069 105.757 77.6362 105.731C77.6655 105.705 77.6687 105.697 77.7126 105.658L77.5711 105.799L77.563 105.796Z" fill="#00FDFF"/>
<path d="M79.4077 106.44C79.3979 106.511 79.3995 106.578 79.4011 106.645C79.3995 106.578 79.4061 106.515 79.4077 106.44Z" fill="#00FDFF"/>
<path d="M73.468 121.577C73.468 121.577 73.494 121.512 73.507 121.479C73.52 121.447 73.5217 121.419 73.5347 121.387C73.5086 121.452 73.4859 121.509 73.468 121.577Z" fill="#00FDFF"/>
<path d="M75.3349 121.693L75.317 121.573C75.2927 121.516 75.2635 121.448 75.2391 121.391L75.1335 121.254C75.1222 121.165 75.0995 121.08 75.0459 121.002C75.0069 120.911 74.942 120.838 74.8624 120.778C74.708 120.669 74.5131 120.591 74.3197 120.627C74.1181 120.659 73.9328 120.745 73.8092 120.912C73.7702 120.963 73.7312 121.013 73.697 121.075C73.6661 121.128 73.6352 121.182 73.6076 121.228C73.5637 121.314 73.5392 121.398 73.5034 121.487C73.3765 121.804 73.3341 122.146 73.3778 122.484L73.4216 122.68L73.5109 122.857C73.558 122.905 73.597 122.949 73.6409 123.004C73.7172 123.072 73.7952 123.113 73.8878 123.14C73.9528 123.166 74.0097 123.189 74.0796 123.179C74.1478 123.197 74.2096 123.184 74.2746 123.163C74.3412 123.162 74.4063 123.141 74.4615 123.097C74.507 123.077 74.5428 123.035 74.5867 122.996C74.5867 122.996 74.5948 122.999 74.603 123.003C74.6939 123.058 74.7898 123.077 74.8922 123.081C74.9881 123.1 75.0888 123.084 75.1847 123.057C75.2806 123.029 75.3668 122.979 75.4318 122.91C75.5099 122.857 75.5782 122.78 75.6139 122.691C75.6937 122.516 75.7344 122.296 75.6597 122.106C75.5948 121.939 75.4843 121.791 75.3235 121.698L75.3349 121.693Z" fill="#00FDFF"/>
<path d="M78.0212 142.265C77.9823 142.174 77.9287 142.096 77.8523 142.028C77.7873 141.955 77.7077 141.894 77.6102 141.855C77.5127 141.816 77.4169 141.797 77.3194 141.805C77.2202 141.794 77.1276 141.813 77.0333 141.86C76.9651 141.889 76.8968 141.918 76.8366 141.951C76.8139 141.961 76.7879 141.979 76.7651 141.988C76.6757 142.047 76.5879 142.125 76.5034 142.195C76.4042 142.277 76.3343 142.381 76.2643 142.485C76.2042 142.565 76.1684 142.654 76.1326 142.744C76.0968 142.833 76.048 142.908 76.0284 143.004C76.0089 143.1 75.978 143.2 75.9665 143.299C75.9616 143.382 75.9616 143.477 75.9648 143.563L75.9648 143.61L75.955 143.634C75.955 143.634 75.968 143.696 75.9972 143.859L75.9615 143.665C75.9988 143.878 76.0004 143.898 76.0686 144.104C76.1222 144.229 76.2131 144.332 76.3252 144.405C76.4048 144.465 76.4942 144.501 76.5933 144.512C76.6827 144.548 76.7883 144.543 76.881 144.524C77.0126 144.501 77.141 144.439 77.2435 144.348C77.3215 144.295 77.3833 144.235 77.4272 144.148C77.463 144.106 77.4776 144.046 77.5085 143.992C77.5622 143.882 77.6126 143.78 77.6419 143.659C77.6192 143.716 77.6094 143.788 77.5866 143.845C77.6419 143.659 77.6452 143.698 77.6615 143.611C77.6973 143.474 77.7136 143.339 77.7332 143.196C77.7364 143.188 77.7396 143.18 77.7348 143.169C77.7575 143.159 77.7803 143.149 77.7949 143.136C77.9022 143.057 77.9835 142.948 78.0323 142.826C78.0714 142.728 78.0909 142.632 78.0828 142.535C78.0943 142.436 78.0748 142.343 78.0277 142.249L78.0212 142.265Z" fill="#00FDFF"/>
<path d="M76.0861 142.838C76.0861 142.838 76.1089 142.781 76.13 142.752C76.143 142.719 76.1561 142.687 76.1658 142.662L76.0942 142.841L76.0861 142.838Z" fill="#00FDFF"/>
<path d="M77.5789 143.889C77.5627 143.929 77.5383 143.967 77.522 144.007C77.5155 144.023 77.509 144.04 77.4992 144.064C77.522 144.007 77.548 143.942 77.5789 143.889Z" fill="#00FDFF"/>
<path d="M75.9667 143.583L75.9732 143.566C75.9684 143.508 75.9635 143.449 75.9668 143.394L75.9667 143.583Z" fill="#00FDFF"/>
<path d="M87.1244 129.988C87.1373 130.05 87.1503 130.112 87.16 130.182C87.1519 130.084 87.1243 129.988 87.0967 129.892C87.0708 129.816 87.0334 129.745 86.9847 129.678C86.9084 129.562 86.8109 129.476 86.6923 129.419C86.5981 129.372 86.5055 129.344 86.3998 129.349C86.3007 129.338 86.2032 129.346 86.1121 129.385C85.9902 129.43 85.8781 129.499 85.7919 129.596C85.613 129.854 85.426 130.109 85.252 130.379L85.3187 130.283C85.3187 130.283 85.2731 130.35 85.252 130.379C85.2374 130.392 85.2146 130.402 85.2 130.415C85.0943 130.514 85.0227 130.646 84.9755 130.787C84.9267 130.956 84.9413 131.037 84.964 131.216C84.9851 131.281 85.0094 131.338 85.0305 131.403L85.1426 131.57L85.2985 131.699C85.3814 131.751 85.4708 131.787 85.5699 131.798C85.6268 131.821 85.6934 131.819 85.7633 131.809C85.7909 131.811 85.825 131.796 85.8559 131.79C85.8803 131.8 85.9047 131.81 85.9372 131.823C86.1273 131.842 86.3321 131.802 86.4865 131.675L86.628 131.534C86.7093 131.425 86.7581 131.303 86.7744 131.168C86.7858 131.116 86.7939 131.072 86.8053 131.02C86.8882 130.978 86.9549 130.929 87.0118 130.858L87.1159 130.692C87.1647 130.57 87.194 130.45 87.1827 130.313C87.1584 130.209 87.134 130.105 87.1097 130.001L87.1244 129.988Z" fill="#00FDFF"/>
<path d="M91.8121 129.301C91.8121 129.301 91.8576 129.282 91.8722 129.269L91.9064 129.254C92.0202 129.205 91.8657 129.238 91.6804 129.371C91.7032 129.361 91.7292 129.343 91.752 129.334C91.7747 129.324 91.7893 129.311 91.8121 129.301Z" fill="#00FDFF"/>
<path d="M92.8889 129.836C92.8889 129.836 92.8775 129.747 92.8581 129.701C92.8305 129.605 92.7769 129.527 92.7086 129.462C92.6583 129.423 92.6079 129.384 92.5576 129.345L92.3707 129.27C92.322 129.251 92.2716 129.259 92.2163 129.256C92.2163 129.256 92.2082 129.253 92.2001 129.249L92.1334 129.251C92.1334 129.251 92.1009 129.238 92.0782 129.248C92.0782 129.248 92.0782 129.248 92.0668 129.252L92.0116 129.249C92.0116 129.249 91.9401 129.287 91.9059 129.301C91.8718 129.316 91.836 129.311 91.81 129.329C91.7873 129.338 91.7808 129.355 91.7661 129.368C91.7287 129.39 91.6897 129.394 91.6523 129.416C91.5857 129.465 91.5271 129.517 91.4572 129.574L91.6068 129.436C91.5402 129.485 91.4816 129.537 91.4231 129.589C91.3434 129.67 91.2686 129.762 91.202 129.858C91.0686 130.05 91.0003 130.268 90.9481 130.492L90.9529 130.692C90.961 130.789 91 130.88 91.0503 130.967C91.0747 131.023 91.1185 131.079 91.1689 131.118C91.2339 131.191 91.3135 131.251 91.4028 131.287L91.5994 131.337L91.7994 131.333C91.8969 131.324 91.9879 131.286 92.074 131.235C92.1651 131.196 92.2382 131.131 92.2984 131.052C92.3342 131.009 92.3699 130.967 92.4008 130.914C92.474 130.896 92.5536 130.909 92.6219 130.88C92.8592 130.758 93.0121 130.517 93.0301 130.261C93.0366 130.103 92.9896 129.961 92.9116 129.827L92.8889 129.836Z" fill="#00FDFF"/>
<path d="M91.6737 129.387C91.6737 129.387 91.656 129.408 91.6447 129.413C91.6592 129.4 91.6737 129.387 91.6963 129.377L91.6883 129.374L91.6737 129.387Z" fill="#00FDFF"/>
<path d="M106.614 135.842C106.6 135.761 106.582 135.688 106.559 135.604C106.533 135.48 106.499 135.353 106.473 135.23C106.473 135.23 106.465 135.226 106.463 135.207C106.453 135.184 106.455 135.157 106.445 135.134C106.418 135.038 106.364 134.96 106.288 134.892C106.226 134.81 106.155 134.753 106.057 134.714C105.992 134.688 105.935 134.666 105.864 134.656C105.76 134.633 105.662 134.641 105.566 134.669C105.5 134.67 105.443 134.695 105.379 134.735C105.288 134.774 105.21 134.828 105.15 134.907L105.074 135.028L104.994 135.062C104.928 135.11 104.861 135.159 104.81 135.214C104.778 135.248 104.768 135.273 104.741 135.318C104.674 135.414 104.632 135.473 104.599 135.601C104.573 135.666 104.566 135.729 104.565 135.804C104.566 135.918 104.563 136.02 104.592 136.136C104.602 136.158 104.609 136.189 104.618 136.212C104.623 136.224 104.633 136.246 104.638 136.258L104.738 136.43L104.755 136.436C104.755 136.436 104.813 136.526 104.855 136.562C104.898 136.597 104.977 136.658 105.023 136.685L105.047 136.695C105.047 136.695 105.112 136.721 105.145 136.734C105.185 136.75 105.221 136.755 105.265 136.763C105.305 136.78 105.341 136.784 105.385 136.793C105.409 136.802 105.432 136.793 105.46 136.794C105.476 136.801 105.496 136.799 105.515 136.798C105.523 136.801 105.535 136.796 105.546 136.791C105.546 136.791 105.562 136.798 105.57 136.801C105.656 136.845 105.749 136.872 105.855 136.868C105.954 136.879 106.051 136.871 106.142 136.832L106.32 136.743C106.435 136.666 106.521 136.569 106.581 136.442C106.604 136.385 106.63 136.32 106.645 136.26C106.669 136.129 106.663 136.003 106.621 135.873L106.614 135.842Z" fill="#00FDFF"/>
<path d="M110.193 149.221C110.159 149.141 110.133 149.065 110.068 148.992C110.016 148.933 109.953 148.88 109.889 148.826C109.937 148.873 109.987 148.912 110.026 148.956C109.953 148.88 109.889 148.826 109.829 148.764C109.368 148.033 108.551 147.602 107.691 147.653C107.62 147.643 107.553 147.645 107.475 147.652C107.459 147.645 107.451 147.642 107.428 147.652C107.428 147.652 107.425 147.66 107.405 147.661C107.355 147.669 107.295 147.655 107.243 147.69C107.065 147.78 106.919 147.91 106.841 148.105C106.704 148.446 106.846 148.823 107.136 149.015C107.339 149.19 107.551 149.369 107.754 149.545C107.591 149.998 107.622 150.51 107.956 150.899C108.302 151.282 108.864 151.479 109.365 151.359C109.916 151.231 110.305 150.802 110.404 150.248C110.464 149.886 110.367 149.517 110.174 149.223L110.193 149.221Z" fill="#00FDFF"/>
<path d="M144.27 102.835C144.27 102.835 144.285 102.822 144.296 102.817C144.337 102.787 144.377 102.756 144.426 102.728L144.27 102.835Z" fill="#00FDFF"/>
<path d="M145.783 102.612C145.653 102.465 145.479 102.358 145.286 102.346L145.094 102.355C144.962 102.377 144.837 102.431 144.727 102.518C144.663 102.559 144.605 102.611 144.541 102.652C144.593 102.616 144.649 102.572 144.709 102.54C144.605 102.611 144.507 102.666 144.411 102.741L144.579 102.629C144.475 102.7 144.385 102.759 144.293 102.825C144.252 102.856 144.203 102.884 144.163 102.915C144.111 102.95 144.05 102.983 144.003 103.03L144.171 102.918C144.055 102.994 143.94 103.071 143.821 103.155L143.685 103.308C143.659 103.373 143.628 103.426 143.593 103.488L143.554 103.68C143.543 103.779 143.562 103.872 143.601 103.963C143.614 104.024 143.647 104.085 143.683 104.137C143.715 104.197 143.751 104.249 143.812 104.283C143.856 104.338 143.91 104.369 143.975 104.395C144.029 104.426 144.089 104.441 144.152 104.447C144.189 104.519 144.235 104.594 144.298 104.647C144.363 104.72 144.446 104.772 144.535 104.808C144.633 104.847 144.729 104.867 144.826 104.859C144.929 104.862 145.029 104.846 145.124 104.799C145.241 104.742 145.348 104.662 145.426 104.562C145.538 104.399 145.597 104.206 145.564 104.004C145.555 103.934 145.514 103.871 145.485 103.803L145.491 103.786L145.667 103.678C145.748 103.616 145.805 103.544 145.844 103.447C145.896 103.364 145.924 103.271 145.935 103.172C145.947 103.073 145.939 102.976 145.9 102.885C145.884 102.784 145.833 102.698 145.763 102.613L145.783 102.612Z" fill="#00FDFF"/>
<path d="M150.433 119.718C150.487 119.655 150.532 119.588 150.545 119.508C150.581 119.419 150.601 119.323 150.593 119.226L150.549 119.029C150.521 118.933 150.471 118.847 150.395 118.779C150.291 118.662 150.141 118.564 149.982 118.538C149.839 118.518 149.699 118.538 149.566 118.588C149.527 118.544 149.488 118.5 149.438 118.461C149.35 118.398 149.26 118.362 149.161 118.351C149.069 118.323 148.974 118.323 148.87 118.347L148.687 118.406C148.596 118.445 148.514 118.507 148.454 118.586C148.399 118.63 148.365 118.692 148.342 118.749C148.29 118.831 148.267 118.935 148.267 119.03C148.264 119.226 148.319 119.418 148.449 119.564L148.475 119.594C148.459 119.681 148.442 119.769 148.465 119.854C148.47 119.959 148.501 120.047 148.559 120.137C148.648 120.267 148.775 120.374 148.93 120.436C148.954 120.493 148.967 120.554 149.006 120.598C149.116 120.746 149.319 120.875 149.501 120.891C149.692 120.911 149.904 120.873 150.059 120.747L150.197 120.613C150.278 120.505 150.324 120.391 150.34 120.256L150.317 120.313C150.317 120.313 150.334 120.272 150.34 120.256L150.366 120.191C150.366 120.191 150.383 120.103 150.391 120.059L150.355 120.149L150.34 120.256C150.389 120.087 150.436 119.898 150.417 119.712L150.433 119.718Z" fill="#00FDFF"/>
<path d="M163.617 119.003L163.781 119.04C163.781 119.04 163.749 119.027 163.732 119.021L163.609 118.999L163.617 119.003Z" fill="#00FDFF"/>
<path d="M164.182 120.275C164.148 120.337 164.109 120.388 164.065 120.426L164.182 120.275Z" fill="#00FDFF"/>
<path d="M164.22 119.357C164.118 119.213 163.964 119.104 163.786 119.052C163.478 118.975 163.174 118.91 162.867 118.853L162.946 118.866L163.054 118.881C162.974 118.868 162.906 118.85 162.826 118.837C162.785 118.82 162.742 118.812 162.698 118.804L162.504 118.793C162.399 118.797 162.311 118.828 162.225 118.879C162.16 118.9 162.108 118.935 162.057 118.991C161.976 119.052 161.919 119.124 161.88 119.221C161.851 119.294 161.825 119.359 161.804 119.436C161.826 119.379 161.852 119.314 161.875 119.257C161.846 119.33 161.813 119.411 161.789 119.496C161.789 119.496 161.782 119.512 161.779 119.52C161.768 119.572 161.764 119.628 161.76 119.663C161.75 119.688 161.745 119.723 161.743 119.751C161.732 119.897 161.759 120.04 161.771 120.177C161.779 120.227 161.789 120.25 161.834 120.419L161.915 120.593C161.966 120.679 162.034 120.744 162.117 120.796C162.164 120.843 162.221 120.866 162.289 120.884C162.378 120.92 162.479 120.951 162.58 120.935C162.63 120.926 162.68 120.918 162.731 120.91C162.78 120.93 162.825 120.957 162.877 120.969C162.978 121 163.075 120.992 163.179 120.967C163.314 120.937 163.444 120.894 163.565 120.829C163.639 120.784 163.737 120.729 163.815 120.675C163.981 120.544 164.059 120.443 164.182 120.276C164.189 120.259 164.2 120.254 164.207 120.238C164.269 120.131 164.311 120.025 164.332 119.902C164.352 119.806 164.352 119.712 164.324 119.616C164.316 119.518 164.277 119.427 164.223 119.349L164.22 119.357Z" fill="#00FDFF"/>
<path d="M161.782 120.172L161.762 119.985C161.775 120.094 161.778 120.133 161.782 120.172Z" fill="#00FDFF"/>
<path d="M162.754 129.489C162.666 129.379 162.533 129.288 162.395 129.232C162.408 129.2 162.421 129.167 162.431 129.143C162.449 129.075 162.455 129.011 162.473 128.943C162.484 128.844 162.468 128.743 162.426 128.66C162.369 128.496 162.278 128.394 162.147 128.275C162.007 128.153 161.861 128.047 161.718 127.934C161.516 127.777 161.194 127.781 160.98 127.893C160.86 127.958 160.76 128.04 160.684 128.161C160.626 128.26 160.603 128.364 160.585 128.479C160.463 128.572 160.354 128.679 160.305 128.801C160.237 128.971 160.22 129.201 160.293 129.371C160.323 129.439 160.367 129.495 160.41 129.55C160.404 129.566 160.393 129.571 160.394 129.591C160.336 129.737 160.306 129.904 160.347 130.062C160.369 130.146 160.433 130.2 160.478 130.275C160.506 130.512 160.639 130.745 160.857 130.86C160.996 130.935 161.165 130.984 161.331 130.946C161.474 130.919 161.621 130.836 161.729 130.729C161.897 130.711 162.056 130.69 162.22 130.68C162.594 130.641 162.882 130.323 162.887 129.957C162.893 129.8 162.851 129.623 162.751 129.497L162.754 129.489Z" fill="#00FDFF"/>
<path d="M120.045 158.965L119.843 158.95C119.715 158.965 119.596 159.002 119.489 159.081C119.368 159.052 119.25 159.042 119.126 159.068C119.026 159.084 118.931 159.132 118.85 159.193C118.764 159.244 118.699 159.312 118.643 159.403C118.591 159.486 118.556 159.575 118.544 159.674C118.517 159.767 118.513 159.869 118.541 159.965C118.572 160.1 118.632 160.209 118.715 160.308C118.732 160.334 118.742 160.357 118.771 160.378C118.879 160.487 119.012 160.578 119.161 160.628C119.243 160.661 119.338 160.681 119.429 160.689C119.576 160.7 119.728 160.695 119.878 160.652C120.073 160.588 120.208 160.51 120.354 160.38C120.358 160.372 120.372 160.359 120.384 160.354C120.423 160.304 120.476 160.241 120.51 160.179C120.553 160.12 120.575 160.064 120.601 159.999C120.634 159.917 120.647 159.838 120.649 159.763C120.66 159.664 120.655 159.558 120.608 159.464C120.525 159.223 120.296 159.018 120.038 158.981L120.045 158.965Z" fill="#00FDFF"/>
<path d="M118.573 160.072L118.593 160.118C118.593 160.118 118.615 160.155 118.625 160.178C118.653 160.227 118.684 160.267 118.723 160.311C118.583 160.048 118.529 159.97 118.578 160.084L118.573 160.072Z" fill="#00FDFF"/>
<path d="M118.731 160.315C118.731 160.315 118.731 160.315 118.726 160.303L118.734 160.307L118.731 160.315Z" fill="#00FDFF"/>
<path d="M137.741 173.745C137.673 173.633 137.576 173.547 137.46 173.482L137.281 173.41C137.142 173.383 137.017 173.389 136.878 173.428C136.932 173.412 136.943 173.407 136.921 173.417C136.898 173.426 136.878 173.428 136.851 173.426C136.747 173.451 136.664 173.493 136.587 173.566C136.509 173.62 136.444 173.688 136.397 173.782C136.345 173.865 136.317 173.958 136.314 174.06C136.295 174.156 136.299 174.262 136.327 174.357C136.351 174.414 136.381 174.483 136.405 174.539C136.473 174.652 136.567 174.746 136.675 174.808L136.853 174.879C136.982 174.912 137.112 174.917 137.25 174.878C137.06 174.905 137.006 174.922 137.076 174.912L137.115 174.909C137.115 174.909 137.154 174.905 137.174 174.904C137.224 174.896 137.286 174.883 137.339 174.867C137.435 174.839 137.521 174.789 137.586 174.72C137.664 174.667 137.733 174.59 137.769 174.501C137.824 174.41 137.843 174.314 137.843 174.22C137.863 174.124 137.858 174.018 137.822 173.919L137.741 173.745Z" fill="#00FDFF"/>
<path d="M158.751 199.459C158.751 199.459 158.802 199.424 158.828 199.406L158.751 199.459Z" fill="#00FDFF"/>
<path d="M159.784 199.562L159.639 199.429C159.53 199.348 159.405 199.307 159.27 199.291L159.07 199.296C158.95 199.313 158.849 199.377 158.749 199.44C158.685 199.481 158.622 199.521 158.563 199.573C158.615 199.537 158.679 199.497 158.731 199.461C158.679 199.497 158.638 199.528 158.597 199.559C158.534 199.599 158.471 199.64 158.404 199.689L158.266 199.822C158.235 199.875 158.204 199.929 158.162 199.987L158.106 200.173C158.084 200.277 158.092 200.374 158.127 200.473C158.132 200.532 158.165 200.592 158.2 200.644C158.186 200.751 158.205 200.844 158.249 200.946C158.303 201.071 158.382 201.179 158.491 201.26C158.571 201.32 158.657 201.364 158.753 201.384C158.842 201.419 158.944 201.423 159.045 201.407C159.185 201.387 159.31 201.334 159.409 201.251C159.572 201.127 159.694 200.94 159.744 200.744C159.762 200.676 159.764 200.601 159.765 200.526C159.801 200.484 159.842 200.453 159.861 200.404C159.913 200.321 159.944 200.221 159.956 200.121C159.967 200.022 159.959 199.925 159.915 199.822C159.896 199.73 159.845 199.644 159.78 199.57L159.784 199.562Z" fill="#00FDFF"/>
<path d="M158.664 199.509L158.742 199.456C158.742 199.456 158.73 199.461 158.719 199.466C158.697 199.475 158.679 199.496 158.664 199.509Z" fill="#00FDFF"/>
<path d="M162.56 174.202L162.56 174.249C162.56 174.249 162.567 174.327 162.57 174.366C162.57 174.366 162.563 174.382 162.571 174.386C162.563 174.194 162.565 174.119 162.56 174.202Z" fill="#00FDFF"/>
<path d="M164.331 174.016C164.263 173.903 164.177 173.812 164.062 173.747C164.045 173.741 164.024 173.723 164.008 173.716C163.963 173.689 163.912 173.65 163.867 173.622C163.784 173.57 163.688 173.551 163.589 173.539C163.529 173.524 163.475 173.541 163.413 173.554C163.397 173.547 163.373 173.537 163.357 173.531L163.153 173.544C163.018 173.575 162.901 173.631 162.799 173.722C162.76 173.773 162.713 173.82 162.674 173.87C162.614 173.95 162.586 174.042 162.566 174.138C162.542 174.223 162.542 174.317 162.565 174.402C162.563 174.429 162.57 174.46 162.576 174.491C162.599 174.575 162.62 174.641 162.657 174.712C162.685 174.761 162.721 174.813 162.756 174.865C162.818 174.946 162.893 174.995 162.98 175.058C163.018 175.083 163.045 175.084 163.185 175.159L163.013 175.071C163.07 175.094 163.136 175.14 163.193 175.162C163.226 175.175 163.382 175.21 163.297 175.185C163.33 175.198 163.366 175.203 163.401 175.208C163.401 175.208 163.476 175.21 163.512 175.215C163.548 175.219 163.587 175.216 163.614 175.218L163.692 175.211L163.796 175.187C163.949 175.135 164.087 175.049 164.199 174.934C164.294 174.84 164.355 174.732 164.396 174.607C164.435 174.51 164.43 174.404 164.411 174.311C164.403 174.214 164.375 174.118 164.325 174.032L164.331 174.016Z" fill="#00FDFF"/>
<path d="M162.571 174.434C162.571 174.434 162.578 174.417 162.573 174.405L162.58 174.437L162.571 174.434Z" fill="#00FDFF"/>
<path d="M162.991 175.054C162.941 175.015 162.891 174.976 162.84 174.937C162.933 175.011 162.959 175.041 162.991 175.054Z" fill="#00FDFF"/>
<path d="M166.962 159.561L166.969 159.545C166.98 159.493 166.987 159.429 166.998 159.377C166.992 159.441 166.974 159.509 166.967 159.572L166.962 159.561Z" fill="#00FDFF"/>
<path d="M168.779 159.214C168.763 159.114 168.721 159.031 168.659 158.949C168.601 158.86 168.521 158.8 168.427 158.753C168.347 158.693 168.254 158.665 168.15 158.642C167.96 158.623 167.747 158.66 167.596 158.778L167.567 158.804C167.482 158.827 167.398 158.85 167.32 158.903L167.169 159.022L167.052 159.173C166.99 159.28 166.961 159.401 166.959 159.522C166.936 159.626 166.921 159.734 166.907 159.841L166.934 159.654L166.886 159.964C166.882 160.067 166.89 160.164 166.941 160.25C166.968 160.346 167.019 160.433 167.092 160.509C167.11 160.535 167.137 160.537 167.166 160.558C167.189 160.595 167.189 160.642 167.212 160.68C167.262 160.766 167.342 160.826 167.428 160.87C167.508 160.93 167.597 160.966 167.696 160.977C167.894 161 168.104 160.971 168.266 160.847C168.314 160.8 168.358 160.761 168.405 160.714C168.479 160.622 168.522 160.516 168.551 160.396C168.567 160.355 168.587 160.306 168.587 160.259L168.644 160.188C168.709 160.072 168.75 159.947 168.754 159.817C168.756 159.743 168.763 159.679 168.764 159.604C168.772 159.561 168.769 159.522 168.777 159.478C168.797 159.382 168.789 159.284 168.758 159.197L168.779 159.214Z" fill="#00FDFF"/>
<path d="M168.583 160.389C168.583 160.389 168.573 160.414 168.57 160.422C168.55 160.47 168.539 160.522 168.527 160.574C168.55 160.518 168.568 160.449 168.583 160.389Z" fill="#00FDFF"/>
<path d="M182.016 155.729L182.036 155.681L182.029 155.65C182.052 155.593 182.062 155.521 182.076 155.461L182.083 155.257L182.036 155.068L181.943 154.899L181.813 154.753L181.659 154.644C181.594 154.618 181.537 154.595 181.472 154.569L181.297 154.536L181.105 154.544C181.035 154.554 180.954 154.569 180.886 154.598C180.806 154.632 180.72 154.682 180.65 154.739C180.606 154.778 180.588 154.799 180.541 154.846C180.469 154.931 180.469 154.931 180.422 155.025C180.369 155.136 180.388 155.087 180.347 155.212C180.321 155.277 180.315 155.34 180.328 155.402C180.328 155.449 180.336 155.5 180.347 155.542C180.32 155.682 180.331 155.818 180.376 155.94C180.466 156.117 180.558 156.286 180.659 156.459C180.682 156.496 180.696 156.53 180.719 156.567C180.729 156.59 180.738 156.613 180.748 156.636C180.748 156.636 180.756 156.639 180.764 156.642C180.764 156.642 180.774 156.665 180.782 156.668C180.818 156.72 180.863 156.748 180.914 156.787C180.93 156.793 180.94 156.816 180.961 156.834C180.961 156.834 180.961 156.834 180.969 156.837C180.977 156.841 180.99 156.855 180.995 156.867C181.054 156.909 181.122 156.927 181.19 156.945C181.198 156.948 181.206 156.951 181.214 156.954C181.214 156.954 181.239 156.964 181.255 156.971L181.46 156.977C181.565 156.973 181.653 156.942 181.743 156.883C181.8 156.859 181.852 156.823 181.902 156.768C181.975 156.703 182.032 156.631 182.071 156.534L182.126 156.349C182.126 156.349 182.12 156.318 182.118 156.298C182.133 156.191 182.131 156.077 182.096 155.978C182.096 155.978 182.102 155.962 182.097 155.951C182.065 155.89 182.04 155.834 182.016 155.777C182.015 155.757 182.01 155.746 182.008 155.726L182.015 155.71L182.016 155.729Z" fill="#00FDFF"/>
<path d="M180.696 156.483L180.688 156.48C180.666 156.415 180.631 156.363 180.606 156.306C180.639 156.366 180.671 156.426 180.704 156.486L180.696 156.483Z" fill="#00FDFF"/>
<path d="M185.393 145.675L185.385 145.672C185.385 145.672 185.394 145.647 185.381 145.633C185.35 145.545 185.3 145.459 185.243 145.389C185.229 145.355 185.214 145.32 185.196 145.294C185.183 145.28 185.178 145.268 185.165 145.254C185.053 145.086 184.969 144.968 184.839 144.821C184.714 144.686 184.603 144.586 184.464 144.464L184.608 144.597C184.4 144.41 184.442 144.446 184.23 144.295C184.2 144.273 184.171 144.252 184.134 144.228C184.046 144.164 183.957 144.129 183.858 144.117C183.765 144.09 183.663 144.086 183.57 144.106C183.381 144.153 183.19 144.255 183.086 144.421L182.975 144.603L183.082 144.429C182.936 144.653 182.811 144.895 182.762 145.158C182.721 145.378 182.701 145.615 182.763 145.838C182.787 145.942 182.83 146.025 182.899 146.109C182.947 146.156 182.997 146.195 183.044 146.243C183.182 146.345 183.423 146.404 183.597 146.37C183.627 146.363 183.665 146.34 183.696 146.334C183.774 146.422 183.863 146.505 183.98 146.542C184.078 146.581 184.183 146.576 184.297 146.575C184.305 146.578 184.313 146.581 184.321 146.584C184.404 146.636 184.494 146.672 184.593 146.684L184.789 146.687C184.895 146.682 184.986 146.643 185.075 146.585C185.14 146.564 185.188 146.516 185.227 146.466C185.3 146.401 185.36 146.322 185.388 146.229C185.41 146.172 185.42 146.101 185.435 146.04C185.453 145.925 185.427 145.802 185.386 145.691L185.393 145.675Z" fill="#00FDFF"/>
<path d="M185.054 145.086C185.054 145.086 185.125 145.19 185.161 145.242C185.125 145.19 185.089 145.138 185.054 145.086Z" fill="#00FDFF"/>
<path d="M182.449 191.511C182.449 191.511 182.415 191.478 182.394 191.46C182.351 191.424 182.298 191.394 182.249 191.374C182.158 191.319 182.06 191.28 181.956 191.257L182.135 191.328C181.908 191.237 182.004 191.257 181.833 191.236C181.809 191.226 181.753 191.223 181.718 191.218C181.643 191.216 181.56 191.211 181.487 191.229C181.324 191.258 181.149 191.32 181.012 191.425C180.858 191.552 180.732 191.7 180.698 191.903C180.675 192.007 180.675 192.101 180.703 192.197C180.719 192.298 180.747 192.394 180.817 192.478C180.935 192.63 181.099 192.761 181.294 192.792C181.338 192.8 181.389 192.792 181.436 192.792C181.454 192.865 181.468 192.947 181.497 193.015C181.562 193.135 181.653 193.238 181.765 193.311C181.848 193.363 181.938 193.399 182.037 193.41C182.129 193.438 182.224 193.438 182.328 193.414C182.462 193.383 182.58 193.326 182.682 193.235L182.819 193.082L182.887 192.959C183.144 192.788 183.277 192.455 183.24 192.148C183.185 191.768 182.84 191.498 182.468 191.509L182.449 191.511Z" fill="#00FDFF"/>
<path d="M194.93 176.4C194.93 176.4 194.917 176.386 194.912 176.374C194.915 176.366 194.913 176.347 194.909 176.335C194.902 176.304 194.876 176.275 194.866 176.252C194.876 176.228 194.889 176.196 194.891 176.168L194.875 175.973L194.8 175.783C194.756 175.728 194.72 175.675 194.677 175.62C194.612 175.547 194.529 175.495 194.439 175.459C194.386 175.428 194.317 175.41 194.254 175.404C194.213 175.388 194.168 175.407 194.121 175.407L194.066 175.357C194.066 175.357 194.053 175.342 194.044 175.339C193.968 175.27 193.882 175.227 193.786 175.207C193.689 175.168 193.59 175.157 193.489 175.173L193.292 175.217C193.193 175.252 193.115 175.306 193.05 175.374C192.998 175.41 192.959 175.46 192.925 175.522C192.864 175.602 192.829 175.691 192.817 175.79C192.819 175.857 192.812 175.92 192.811 175.995C192.822 176.131 192.867 176.253 192.955 176.364C192.994 176.408 193.028 176.44 193.062 176.473L192.955 176.364C193.046 176.466 193.137 176.569 193.231 176.663C193.184 176.616 193.14 176.56 193.093 176.513C193.181 176.624 193.272 176.726 193.371 176.832C193.335 176.78 193.288 176.733 193.252 176.681C193.301 176.747 193.358 176.817 193.415 176.887C193.433 176.913 193.462 176.934 193.48 176.96C193.493 176.975 193.498 176.986 193.511 177.001L193.519 177.004C193.519 177.004 193.545 177.034 193.566 177.051C193.618 177.11 193.673 177.16 193.725 177.219C193.801 177.287 193.884 177.339 193.98 177.359C194.078 177.398 194.174 177.417 194.274 177.401C194.38 177.396 194.468 177.365 194.554 177.315C194.645 177.276 194.723 177.223 194.783 177.143C194.912 176.987 194.99 176.792 194.969 176.586C194.956 176.524 194.943 176.462 194.933 176.392L194.93 176.4Z" fill="#00FDFF"/>
<path d="M224.544 156.293C224.544 156.293 224.531 156.279 224.535 156.27C224.53 156.259 224.536 156.243 224.535 156.223C224.518 156.123 224.479 156.032 224.414 155.958C224.367 155.911 224.328 155.867 224.281 155.82C224.18 155.742 224.062 155.685 223.93 155.661C223.75 155.617 223.592 155.657 223.436 155.717C223.371 155.739 223.298 155.756 223.233 155.777L223.21 155.787C223.015 155.85 222.788 155.901 222.627 156.044C222.528 156.127 222.454 156.239 222.414 156.364C222.378 156.453 222.366 156.552 222.375 156.65C222.371 156.752 222.391 156.845 222.438 156.939C222.495 157.056 222.586 157.159 222.694 157.24C222.807 157.313 222.92 157.359 223.058 157.367C223.094 157.372 223.12 157.354 223.151 157.347C223.224 157.424 223.307 157.476 223.404 157.515L223.596 157.554C223.726 157.559 223.855 157.544 223.972 157.487C224.074 157.444 224.167 157.377 224.255 157.299C224.269 157.286 224.287 157.265 224.302 157.252C224.308 157.236 224.422 157.093 224.432 157.068C224.464 156.987 224.49 156.922 224.516 156.857C224.536 156.808 224.536 156.761 224.555 156.713C224.565 156.641 224.57 156.558 224.56 156.488C224.559 156.422 224.546 156.36 224.522 156.303L224.544 156.293Z" fill="#00FDFF"/>
<path d="M225.338 175.259L225.245 175.09C225.245 175.09 225.195 175.051 225.174 175.033L225.107 174.846L224.984 174.684C224.911 174.607 224.831 174.547 224.739 174.519C224.685 174.489 224.617 174.471 224.553 174.464C224.497 174.441 224.43 174.443 224.365 174.464C224.298 174.466 224.237 174.479 224.176 174.511C224.08 174.539 223.994 174.589 223.926 174.665C223.858 174.742 223.822 174.784 223.785 174.854L223.762 174.864L223.739 174.873L223.708 174.88C223.708 174.88 223.622 174.883 223.568 174.899L223.383 174.985C223.268 175.062 223.181 175.159 223.116 175.274C223.073 175.361 223.045 175.453 223.042 175.556C223.022 175.651 223.03 175.749 223.066 175.848C223.072 175.879 223.101 175.9 223.108 175.931C223.088 175.98 223.069 176.028 223.061 176.072C223.035 176.137 223.048 176.199 223.061 176.261C223.069 176.358 223.088 176.451 223.147 176.54L223.262 176.7C223.312 176.739 223.371 176.781 223.421 176.82C223.512 176.875 223.605 176.903 223.704 176.914C223.8 176.934 223.894 176.934 223.99 176.906C224.081 176.867 224.127 176.848 224.169 176.837C224.169 176.837 224.24 176.799 224.281 176.768L224.218 176.809C224.218 176.809 224.318 176.746 224.367 176.718L224.393 176.7L224.37 176.71C224.37 176.71 224.445 176.665 224.483 176.642C224.593 176.648 224.704 176.655 224.808 176.631C224.903 176.603 224.986 176.561 225.059 176.496C225.146 176.445 225.214 176.369 225.261 176.275L225.359 175.89C225.352 175.953 225.346 176.016 225.336 176.088C225.356 175.945 225.372 175.81 225.391 175.667C225.39 175.6 225.388 175.534 225.395 175.47L225.348 175.282L225.338 175.259Z" fill="#00FDFF"/>
<path d="M224.38 176.685L224.283 176.741L224.22 176.781L224.38 176.685Z" fill="#00FDFF"/>
<path d="M224.284 176.74L224.364 176.679C224.364 176.679 224.301 176.719 224.284 176.74Z" fill="#00FDFF"/>
<path d="M226.911 184.656C226.86 184.57 226.784 184.502 226.693 184.447C226.639 184.416 226.573 184.417 226.524 184.398C226.548 184.125 226.534 183.855 226.441 183.592C226.372 183.413 226.229 183.252 226.053 183.172C225.886 183.096 225.649 183.076 225.478 183.149C225.125 183.3 224.917 183.679 225.022 184.051C225.022 184.051 225.026 184.09 225.027 184.109L225.039 184.152L225.048 184.174L225.055 184.205L225.045 184.23L225.061 184.236C225.061 184.236 225.048 184.316 225.047 184.343L225.034 184.376L225.004 184.449L224.965 184.499C224.933 184.533 224.889 184.573 224.856 184.607L224.915 184.555C224.676 184.751 224.539 185.092 224.658 185.385C224.703 185.507 224.78 185.622 224.877 185.708C224.932 185.759 225.005 185.788 225.07 185.814C225.135 185.982 225.208 186.105 225.346 186.208C225.476 186.307 225.647 186.375 225.814 186.357C225.943 186.343 226.07 186.309 226.179 186.249C226.322 186.174 226.481 185.964 226.51 185.797C226.564 185.781 226.626 185.768 226.671 185.748C226.882 185.644 227.017 185.425 227.053 185.194C227.088 184.991 227.037 184.811 226.914 184.648L226.911 184.656Z" fill="#00FDFF"/>
<path d="M238.154 186.784C238.154 186.784 238.091 186.73 238.054 186.706C238.06 186.595 238.059 186.482 238.018 186.371C237.965 186.246 237.893 186.142 237.784 186.061C237.831 186.108 237.826 186.096 237.766 186.035C237.719 185.987 237.677 185.952 237.627 185.913C237.567 185.851 237.506 185.789 237.443 185.735L237.375 185.67C237.195 185.485 236.881 185.444 236.652 185.522C236.411 185.605 236.182 185.824 236.153 186.086C236.146 186.149 236.143 186.204 236.14 186.26L236.131 186.256L235.974 186.391C235.876 186.494 235.819 186.612 235.795 186.744C235.759 186.833 235.764 186.939 235.764 187.033C235.764 187.175 235.816 187.374 235.889 187.498C235.934 187.573 235.985 187.659 236.045 187.721C236.097 187.779 236.168 187.836 236.235 187.882C236.285 187.921 236.334 187.94 236.391 187.963C236.462 188.067 236.537 188.163 236.608 188.267L236.753 188.4L236.933 188.491C237.088 188.553 237.26 188.547 237.416 188.487C237.535 188.449 237.626 188.363 237.705 188.282C237.959 188.214 238.175 188.027 238.239 187.751C238.266 187.611 238.313 187.47 238.333 187.327C238.353 187.137 238.288 186.922 238.166 186.779L238.154 186.784Z" fill="#00FDFF"/>
<path d="M246.57 186.554C246.523 186.459 246.455 186.394 246.376 186.334C246.229 186.229 246.008 186.168 245.823 186.207C245.63 186.243 245.438 186.345 245.322 186.516C245.228 186.657 245.176 186.834 245.194 187.002L245.143 187.01C245.039 187.034 244.956 187.076 244.883 187.141C244.823 187.174 244.776 187.221 244.742 187.283C244.674 187.359 244.63 187.445 244.61 187.541C244.578 187.669 244.584 187.794 244.607 187.926C244.631 188.03 244.673 188.113 244.738 188.186C244.748 188.209 244.78 188.222 244.793 188.237C244.789 188.272 244.767 188.302 244.782 188.336C244.801 188.523 244.881 188.724 245.032 188.841C245.18 188.966 245.388 189.059 245.589 189.027C245.651 189.014 245.737 189.011 245.794 188.986C245.913 188.949 246.023 188.861 246.114 188.775C246.136 188.746 246.165 188.72 246.183 188.699C246.236 188.635 246.301 188.567 246.355 188.504L246.362 188.488C246.456 188.393 246.539 188.304 246.617 188.203C246.677 188.124 246.713 188.034 246.724 187.935C246.76 187.846 246.752 187.748 246.736 187.648C246.715 187.582 246.702 187.521 246.677 187.464C246.668 187.441 246.651 187.435 246.638 187.42C246.648 187.396 246.658 187.371 246.664 187.355C246.695 187.207 246.684 187.071 246.679 186.918C246.681 186.89 246.682 186.863 246.673 186.84C246.656 186.739 246.621 186.64 246.559 186.559L246.57 186.554Z" fill="#00FDFF"/>
<path d="M246.705 187.088L246.688 186.893L246.682 186.909C246.695 186.971 246.7 187.03 246.705 187.088Z" fill="#00FDFF"/>
<path d="M251.254 178.766C251.222 178.706 251.171 178.667 251.11 178.633C251.033 178.565 250.939 178.518 250.84 178.506L250.65 178.487L250.456 178.522C250.361 178.55 250.278 178.592 250.201 178.665C250.12 178.727 250.055 178.795 250.008 178.889C249.946 179.044 249.887 179.19 249.85 179.354C249.876 179.289 249.899 179.232 249.917 179.164C249.861 179.302 249.83 179.403 249.801 179.523L249.834 179.442C249.808 179.507 249.778 179.58 249.752 179.645C249.775 179.588 249.801 179.523 249.816 179.463C249.767 179.585 249.729 179.702 249.7 179.822C249.681 179.918 249.677 180.02 249.708 180.108C249.716 180.206 249.755 180.297 249.809 180.375C249.856 180.422 249.892 180.474 249.939 180.521C250.044 180.61 250.163 180.667 250.299 180.703C250.364 180.729 250.451 180.726 250.52 180.716C250.712 180.708 250.917 180.621 251.068 180.502C251.252 180.349 251.371 180.124 251.39 179.886C251.395 179.803 251.369 179.727 251.359 179.657C251.395 179.568 251.415 179.472 251.426 179.373C251.438 179.321 251.441 179.265 251.436 179.207C251.423 179.145 251.413 179.075 251.4 179.014C251.373 178.918 251.331 178.835 251.258 178.758L251.254 178.766Z" fill="#00FDFF"/>
<path d="M258.127 201.364C258.058 201.252 257.964 201.157 257.857 201.095C257.792 201.069 257.719 201.04 257.654 201.014C257.597 200.991 257.486 200.985 257.443 200.977C257.347 200.957 257.343 200.965 257.124 200.972L257.316 200.964C257.241 200.962 257.158 200.957 257.088 200.967C257.038 200.975 256.945 200.994 256.903 201.006C256.81 201.025 256.83 201.024 256.643 201.09L256.827 201.032C256.734 201.051 256.643 201.09 256.56 201.132C256.477 201.175 256.391 201.225 256.31 201.287C256.243 201.335 256.184 201.387 256.134 201.442C256.007 201.571 255.91 201.72 255.841 201.891C255.77 202.07 255.752 202.279 255.818 202.466C255.854 202.565 255.904 202.651 255.981 202.72C256.02 202.764 256.073 202.795 256.119 202.822C256.129 202.845 256.138 202.868 256.151 202.882C256.202 202.969 256.27 203.034 256.361 203.089C256.476 203.154 256.605 203.186 256.739 203.203C256.933 203.214 257.13 203.123 257.269 203.01C257.339 202.953 257.404 202.885 257.469 202.816L257.328 202.958C257.559 202.758 257.79 202.558 258.016 202.347L257.877 202.48C257.939 202.42 258.009 202.363 258.068 202.311C258.136 202.235 258.188 202.152 258.208 202.056C258.234 201.991 258.256 201.934 258.247 201.864C258.255 201.821 258.251 201.781 258.251 201.734C258.248 201.601 258.211 201.482 258.143 201.37L258.127 201.364Z" fill="#00FDFF"/>
<path d="M242.684 214.052L242.569 213.893C242.478 213.791 242.363 213.726 242.238 213.685C242.166 213.675 242.106 213.66 242.034 213.651C241.904 213.646 241.778 213.68 241.661 213.737C241.555 213.789 241.457 213.844 241.352 213.896L241.526 213.815C241.4 213.868 241.28 213.933 241.165 214.009C241.066 214.092 240.983 214.182 240.918 214.297C240.853 214.412 240.82 214.541 240.831 214.677C240.839 214.775 240.851 214.864 240.867 214.965C240.867 215.012 240.875 215.062 240.878 215.101C240.891 215.21 240.93 215.301 240.992 215.383C241.039 215.477 241.107 215.542 241.187 215.602C241.266 215.662 241.356 215.698 241.455 215.709C241.544 215.745 241.647 215.749 241.739 215.729L241.931 215.674C242.056 215.62 242.155 215.538 242.237 215.429C242.259 215.372 242.302 215.313 242.325 215.256C242.347 215.2 242.331 215.146 242.343 215.094L242.377 215.079C242.468 215.04 242.541 214.975 242.593 214.893C242.661 214.816 242.713 214.733 242.736 214.629C242.775 214.532 242.778 214.429 242.759 214.337C242.759 214.243 242.731 214.147 242.681 214.061L242.684 214.052Z" fill="#00FDFF"/>
<path d="M239.56 231.1C239.492 230.988 239.395 230.902 239.287 230.84L239.109 230.768C238.969 230.741 238.844 230.747 238.706 230.786C238.673 230.773 238.636 230.796 238.605 230.802C238.546 230.807 238.493 230.823 238.434 230.828C238.381 230.844 238.322 230.849 238.272 230.857C238.168 230.882 238.082 230.932 238.008 230.997C237.93 231.051 237.862 231.127 237.815 231.221C237.763 231.304 237.743 231.4 237.735 231.491C237.716 231.587 237.724 231.684 237.751 231.78C237.776 231.837 237.805 231.905 237.829 231.962C237.897 232.074 237.992 232.169 238.115 232.237L238.294 232.309C238.414 232.338 238.531 232.328 238.655 232.302C238.705 232.294 238.764 232.289 238.817 232.273C238.856 232.27 238.907 232.262 238.949 232.25C239.019 232.241 239.08 232.228 239.154 232.21C239.249 232.182 239.332 232.14 239.409 232.067C239.487 232.013 239.555 231.937 239.599 231.851C239.654 231.76 239.674 231.664 239.682 231.573C239.702 231.477 239.697 231.372 239.661 231.272L239.58 231.099L239.56 231.1Z" fill="#00FDFF"/>
<path d="M238.601 232.319L238.631 232.312C238.631 232.312 238.713 232.298 238.755 232.286L238.646 232.299L238.662 232.306C238.558 232.33 238.539 232.332 238.589 232.324L238.601 232.319Z" fill="#00FDFF"/>
<path d="M238.654 232.302C238.654 232.302 238.593 232.315 238.565 232.313L238.654 232.302Z" fill="#00FDFF"/>
<path d="M177.352 209.625C177.352 209.625 177.352 209.625 177.331 209.607C177.31 209.589 177.297 209.575 177.279 209.549C177.253 209.52 177.224 209.498 177.198 209.469C177.134 209.416 177.063 209.359 176.988 209.31C176.897 209.255 176.798 209.196 176.689 209.162C176.632 209.139 176.58 209.128 176.52 209.113C176.506 209.079 176.514 209.035 176.496 209.009C176.412 208.843 176.249 208.684 176.064 208.628C175.879 208.573 175.666 208.563 175.485 208.661L175.318 208.773C175.219 208.856 175.157 208.963 175.111 209.077C175.058 209.187 175.004 209.297 174.95 209.408C174.918 209.489 174.872 209.556 174.84 209.637C174.775 209.8 174.757 209.962 174.794 210.128C174.825 210.263 174.885 210.372 174.976 210.474C175.041 210.547 175.124 210.599 175.213 210.635C175.299 210.679 175.392 210.707 175.494 210.71C175.632 210.718 175.759 210.684 175.879 210.619L175.943 210.579L175.977 210.564L175.993 210.57C175.993 210.57 176.044 210.562 176.063 210.561C176.087 210.57 176.107 210.569 176.135 210.571C176.135 210.571 176.209 210.619 176.243 210.652C176.243 210.652 176.26 210.658 176.273 210.673C176.349 210.741 176.437 210.805 176.546 210.839C176.731 210.894 176.945 210.876 177.119 210.795C177.345 210.678 177.532 210.423 177.526 210.157C177.521 209.957 177.463 209.773 177.333 209.627L177.352 209.625Z" fill="#00FDFF"/>
<path d="M170.158 220.385C170.096 220.351 170.045 220.312 169.984 220.278L170.154 220.393C169.963 220.26 169.781 220.15 169.586 220.024L169.751 220.128C169.656 220.062 169.555 219.984 169.448 219.922C169.368 219.862 169.279 219.826 169.18 219.814C169.09 219.779 168.988 219.775 168.887 219.792L168.695 219.847C168.596 219.882 168.523 219.947 168.455 220.024C168.399 220.068 168.368 220.121 168.346 220.178C168.303 220.237 168.294 220.308 168.279 220.368C168.159 220.433 168.061 220.536 167.993 220.659C167.928 220.774 167.895 220.903 167.903 221.047C167.906 221.181 167.944 221.299 168.012 221.411C168.132 221.582 168.217 221.654 168.387 221.769C168.478 221.824 168.595 221.862 168.696 221.893C168.797 221.924 168.91 221.922 169.013 221.925C169.115 221.929 169.227 221.908 169.323 221.88C169.335 221.875 169.349 221.862 169.369 221.861C169.442 221.89 169.507 221.916 169.585 221.909C169.687 221.913 169.788 221.897 169.871 221.854C169.967 221.827 170.053 221.776 170.129 221.703C170.227 221.601 170.29 221.466 170.329 221.322C170.336 221.305 170.359 221.296 170.365 221.279C170.401 221.19 170.437 221.101 170.424 220.992C170.435 220.893 170.424 220.803 170.388 220.704C170.346 220.574 170.266 220.467 170.161 220.377L170.158 220.385Z" fill="#00FDFF"/>
<path d="M175.641 219.499L175.631 219.476C175.607 219.419 175.573 219.339 175.537 219.287C175.487 219.201 175.411 219.133 175.342 219.068C175.198 218.935 175.016 218.871 174.829 218.843C174.73 218.832 174.632 218.84 174.541 218.879C174.533 218.876 174.527 218.892 174.515 218.897L174.457 218.902C174.317 218.921 174.2 218.978 174.089 219.066C173.941 219.176 173.834 219.35 173.782 219.527C173.732 219.677 173.725 219.834 173.749 219.985C173.757 220.036 173.769 220.078 173.788 220.124C173.8 220.166 173.814 220.2 173.837 220.237C173.889 220.343 173.9 220.385 173.988 220.496C174.014 220.525 174.045 220.566 174.082 220.59C174.108 220.619 174.149 220.636 174.178 220.657C174.224 220.732 174.272 220.798 174.347 220.847L174.516 220.943C174.605 220.979 174.701 220.998 174.799 220.99C174.898 221.002 175.002 220.977 175.093 220.938L175.265 220.838C175.346 220.776 175.403 220.705 175.451 220.61C175.475 220.573 175.483 220.529 175.499 220.488C175.509 220.464 175.543 220.449 175.553 220.425C175.66 220.251 175.696 220.115 175.711 219.913C175.721 219.795 175.698 219.663 175.669 219.548C175.664 219.536 175.662 219.517 175.657 219.505L175.641 219.499Z" fill="#00FDFF"/>
<path d="M189.274 222.603C189.095 222.531 188.886 222.513 188.704 222.591C188.579 222.645 188.471 222.724 188.364 222.804C188.297 222.852 188.223 222.898 188.161 222.958C188.132 222.984 188.102 223.01 188.081 223.039C188.031 223.094 187.977 223.158 187.932 223.224C187.862 223.328 187.8 223.436 187.746 223.546C187.637 223.795 187.58 224.055 187.575 224.326L187.603 224.516C187.63 224.612 187.673 224.695 187.737 224.768C187.77 224.828 187.82 224.867 187.882 224.902C187.958 224.97 188.045 225.014 188.152 225.028C188.314 225.046 188.465 225.069 188.628 225.087L188.638 225.063C188.693 225.066 188.755 225.1 188.825 225.091C188.922 225.082 189.018 225.055 189.096 225.001C189.187 224.962 189.265 224.909 189.325 224.829C189.359 224.767 189.398 224.717 189.433 224.655C189.48 224.561 189.507 224.468 189.499 224.371C189.506 224.307 189.504 224.241 189.483 224.176C189.482 224.156 189.469 224.142 189.467 224.122C189.48 224.09 189.493 224.057 189.49 224.018C189.48 223.948 189.475 223.89 189.462 223.828C189.462 223.828 189.485 223.818 189.5 223.805C189.573 223.74 189.63 223.669 189.669 223.571C189.704 223.482 189.732 223.389 189.724 223.292C189.736 223.193 189.719 223.092 189.68 223.001C189.599 222.827 189.468 222.661 189.281 222.586L189.274 222.603Z" fill="#00FDFF"/>
<path d="M188.285 222.838C188.285 222.838 188.333 222.81 188.359 222.792C188.389 222.766 188.418 222.74 188.455 222.718L188.296 222.833L188.285 222.838Z" fill="#00FDFF"/>
<path d="M194.178 233.852C194.168 233.782 194.144 233.725 194.108 233.673C194.084 233.616 194.048 233.564 193.989 233.522C193.924 233.449 193.845 233.389 193.755 233.353L193.562 233.294L193.357 233.288L193.169 233.335L193.12 233.362C192.979 233.315 192.829 233.265 192.683 233.253C192.611 233.244 192.545 233.245 192.47 233.243C192.353 233.253 192.246 233.286 192.143 233.329C192.023 233.394 191.924 233.477 191.843 233.586C191.769 233.698 191.729 233.823 191.712 233.958C191.707 234.088 191.73 234.22 191.787 234.337C191.852 234.457 191.935 234.556 192.044 234.638C192.109 234.664 192.167 234.706 192.229 234.74L192.055 234.633C192.178 234.701 192.291 234.774 192.424 234.818C192.481 234.841 192.56 234.854 192.612 234.865C192.724 234.891 192.828 234.914 192.939 234.921L192.955 234.927C193.028 234.957 193.087 234.999 193.166 235.012C193.259 235.04 193.361 235.043 193.454 235.023C193.643 234.976 193.843 234.877 193.939 234.708C193.958 234.66 193.986 234.614 194.013 234.569L194.02 234.552C194.02 234.552 194.09 234.496 194.106 234.455C194.158 234.372 194.178 234.276 194.189 234.177C194.199 234.153 194.186 234.138 194.187 234.11C194.194 234.094 194.204 234.07 194.194 234.047C194.204 233.976 194.199 233.917 194.17 233.849L194.178 233.852Z" fill="#00FDFF"/>
<path d="M237.465 248.55C237.465 248.55 237.431 248.518 237.409 248.5C237.385 248.301 237.293 248.085 237.116 247.986C237.054 247.952 236.992 247.918 236.93 247.884C236.992 247.918 237.046 247.949 237.107 247.983C236.909 247.866 236.727 247.755 236.523 247.654L236.62 247.693L236.646 247.723L236.695 247.742C236.646 247.723 236.592 247.692 236.547 247.664C236.419 247.584 236.311 247.523 236.163 247.444L236.337 247.552C236.212 247.464 236.089 247.396 235.951 247.34C236.016 247.366 236.072 247.389 236.134 247.423C236.019 247.358 235.912 247.296 235.796 247.231C235.644 247.142 235.385 247.152 235.229 247.212C235.054 247.273 234.875 247.437 234.803 247.616C234.732 247.795 234.705 248.001 234.783 248.183L234.881 248.364C234.934 248.442 235.012 248.482 235.087 248.531L235.081 248.547C235.081 248.547 235.142 248.582 235.172 248.603C235.172 248.603 235.18 248.606 235.188 248.609L235.081 248.547C234.988 248.661 234.911 248.781 234.897 248.936C234.88 249.118 234.931 249.345 235.053 249.488C235.182 249.635 235.361 249.753 235.563 249.768C235.72 249.775 235.875 249.742 236.021 249.659L236.119 249.698C236.175 249.721 236.239 249.728 236.307 249.746C236.398 249.754 236.487 249.743 236.567 249.708C236.608 249.725 236.64 249.738 236.681 249.754L236.881 249.796C236.98 249.808 237.081 249.792 237.175 249.744C237.32 249.689 237.469 249.598 237.555 249.454C237.62 249.338 237.669 249.217 237.677 249.078C237.69 248.905 237.611 248.656 237.491 248.532L237.465 248.55Z" fill="#00FDFF"/>
<path d="M229.054 257.381C229.054 257.381 229.116 257.32 229.159 257.281C229.166 257.265 229.189 257.255 229.195 257.239L229.054 257.381Z" fill="#00FDFF"/>
<path d="M230.841 257.672C230.833 257.575 230.805 257.479 230.755 257.393C230.734 257.328 230.698 257.276 230.64 257.234C230.578 257.152 230.498 257.092 230.401 257.053L230.191 256.988L229.985 256.962L229.977 256.959C229.902 256.957 229.77 256.98 229.751 256.981L229.946 256.965C229.876 256.975 229.801 256.973 229.728 256.991C229.72 256.988 229.697 256.997 229.686 257.002C229.609 257.028 229.536 257.046 229.468 257.075C229.423 257.095 229.382 257.126 229.345 257.148C229.31 257.163 229.262 257.191 229.229 257.225C229.203 257.243 229.185 257.264 229.164 257.293C229.117 257.34 229.062 257.384 229.019 257.442C228.974 257.509 228.928 257.576 228.888 257.654C228.865 257.711 228.839 257.776 228.824 257.836C228.805 257.932 228.805 258.026 228.832 258.122C228.834 258.188 228.855 258.253 228.899 258.309C228.938 258.4 228.999 258.481 229.076 258.549C229.157 258.629 229.238 258.709 229.323 258.78C229.391 258.845 229.448 258.915 229.519 258.972C229.596 259.04 229.685 259.076 229.781 259.096C229.87 259.131 229.969 259.143 230.07 259.127L230.27 259.075C230.369 259.039 230.447 258.985 230.515 258.909C230.567 258.873 230.61 258.815 230.633 258.758C230.693 258.678 230.72 258.586 230.74 258.49C230.738 258.423 230.745 258.36 230.743 258.293C230.74 258.254 230.714 258.225 230.708 258.194C230.778 258.09 230.812 257.981 230.841 257.861L230.852 257.668L230.841 257.672Z" fill="#00FDFF"/>
<path d="M229.677 256.998C229.612 257.019 229.537 257.045 229.503 257.06L229.677 256.998Z" fill="#00FDFF"/>
<path d="M208.352 270.584C208.303 270.47 208.254 270.403 208.173 270.323C208.087 270.232 207.98 270.171 207.866 270.125C207.801 270.099 207.733 270.081 207.658 270.079C207.598 270.065 207.539 270.07 207.481 270.075C207.274 270.096 207.074 270.195 206.943 270.359C206.892 270.414 206.85 270.472 206.824 270.537C206.78 270.624 206.752 270.716 206.749 270.818C206.738 270.918 206.746 271.015 206.781 271.114C206.781 271.114 206.798 271.121 206.791 271.137C206.793 271.157 206.786 271.173 206.791 271.184C206.825 271.311 206.897 271.415 206.994 271.501C207.118 271.617 207.257 271.691 207.425 271.721L207.449 271.731C207.449 271.731 207.527 271.724 207.574 271.724C207.61 271.729 207.649 271.726 207.688 271.722C207.758 271.713 207.823 271.692 207.888 271.671L207.922 271.656C208.016 271.609 208.106 271.55 208.177 271.466C208.228 271.411 208.273 271.344 208.311 271.274C208.327 271.234 208.343 271.193 208.359 271.152C208.376 271.112 208.392 271.071 208.4 271.027C208.403 270.972 208.415 270.873 208.405 270.803C208.392 270.741 208.381 270.652 208.352 270.584Z" fill="#00FDFF"/>
<path d="M207.169 271.628L207.348 271.7C207.233 271.635 207.117 271.569 207.002 271.504C207.002 271.504 207.002 271.504 207.007 271.516L207.161 271.625L207.169 271.628Z" fill="#00FDFF"/>
<path d="M220.181 276.236L220.162 276.191C220.162 276.191 220.146 276.137 220.136 276.114C220.12 276.061 220.095 276.004 220.071 275.947C220.092 276.012 220.117 276.069 220.13 276.131C220.087 276.001 220.05 275.882 220.005 275.76C219.995 275.737 219.988 275.707 219.979 275.684L219.964 275.65C219.901 275.502 219.808 275.38 219.681 275.272C219.587 275.178 219.483 275.108 219.358 275.068C219.261 275.028 219.166 275.028 219.066 275.045C219.049 275.038 219.023 275.056 219.004 275.058C218.971 275.045 218.945 275.015 218.905 274.999C218.815 274.963 218.713 274.96 218.615 274.968C218.513 274.965 218.417 274.992 218.331 275.043C218.159 275.143 218.014 275.293 217.964 275.489C217.949 275.55 217.942 275.613 217.924 275.681C217.923 275.803 217.952 275.918 217.996 276.021C218.046 276.154 218.093 276.296 218.155 276.424C218.179 276.481 218.212 276.541 218.236 276.598C218.28 276.653 218.327 276.7 218.363 276.752L218.533 276.868C218.619 276.912 218.712 276.939 218.814 276.943C218.847 276.956 218.873 276.938 218.909 276.943C218.948 276.987 218.964 277.04 219.017 277.071C219.183 277.175 219.372 277.222 219.573 277.19C219.674 277.174 219.773 277.138 219.854 277.076C219.941 277.026 220.014 276.961 220.066 276.878C220.139 276.766 220.185 276.652 220.193 276.514C220.209 276.379 220.186 276.248 220.121 276.127L220.165 276.23L220.181 276.236Z" fill="#00FDFF"/>
<path d="M218.078 276.213L218.009 276.035C218.009 276.035 218.015 276.066 218.02 276.077C218.039 276.122 218.059 276.168 218.078 276.213Z" fill="#00FDFF"/>
<path d="M218.731 288.967C217.779 289.132 218.085 290.603 219.038 290.438C219.99 290.272 219.684 288.801 218.731 288.967Z" fill="#00FDFF"/>
<path d="M230.122 289.032C230.109 288.97 230.076 288.91 230.029 288.863C230.016 288.848 230 288.842 229.998 288.822C229.98 288.796 229.982 288.769 229.964 288.743C229.902 288.661 229.834 288.596 229.748 288.552C229.719 288.531 229.683 288.526 229.651 288.513L229.706 288.517C229.649 288.494 229.584 288.468 229.524 288.453L229.483 288.437L229.295 288.437C229.236 288.442 229.179 288.466 229.126 288.482C229.126 288.482 229.109 288.476 229.106 288.484L229.114 288.487C229.114 288.487 229.067 288.487 229.044 288.497C228.999 288.516 228.97 288.542 228.932 288.565C228.906 288.583 228.869 288.606 228.831 288.628C228.817 288.641 228.802 288.654 228.788 288.667C228.729 288.719 228.684 288.786 228.646 288.856C228.627 288.905 228.607 288.953 228.584 289.01C228.561 289.067 228.545 289.108 228.542 289.163L228.535 289.179C228.545 289.249 228.547 289.316 228.548 289.382C228.569 289.447 228.582 289.509 228.607 289.566C228.623 289.62 228.651 289.668 228.681 289.709C228.714 289.769 228.75 289.821 228.811 289.855C228.837 289.885 228.867 289.906 228.896 289.927C228.928 289.94 228.954 289.969 228.987 289.982L229.166 290.054L229.24 290.055L229.434 290.067C229.5 290.065 229.554 290.049 229.619 290.028C229.661 290.017 229.704 290.005 229.741 289.982C229.786 289.963 229.824 289.94 229.853 289.914C229.916 289.874 229.964 289.827 230.014 289.771L230.102 289.646L230.157 289.508L230.196 289.316C230.208 289.217 230.191 289.117 230.144 289.022L230.122 289.032Z" fill="#00FDFF"/>
<path d="M230.166 280.377C230.087 280.222 230.017 280.138 229.885 280.019C229.754 279.901 229.588 279.844 229.421 279.814C229.253 279.785 229.146 279.817 228.992 279.85C228.992 279.85 228.927 279.824 228.888 279.827C228.819 279.809 228.746 279.827 228.668 279.833C228.605 279.827 228.545 279.812 228.481 279.806L228.286 279.822C228.185 279.838 228.091 279.885 228.018 279.95C227.958 279.983 227.911 280.03 227.872 280.08C227.807 280.148 227.755 280.231 227.735 280.327C227.716 280.423 227.693 280.527 227.689 280.629C227.685 280.712 227.699 280.793 227.714 280.875C227.715 280.894 227.725 280.917 227.723 280.945C227.748 281.049 227.795 281.143 227.831 281.242C227.84 281.265 227.845 281.276 227.855 281.299C227.878 281.336 227.904 281.366 227.934 281.406C228.045 281.554 227.98 281.481 228.167 281.65C228.276 281.731 228.393 281.769 228.516 281.79C228.615 281.801 228.713 281.793 228.812 281.758C228.862 281.75 228.906 281.711 228.955 281.683C229.039 281.707 229.13 281.716 229.223 281.696C229.312 281.732 229.405 281.76 229.511 281.755C229.647 281.743 229.769 281.698 229.881 281.63C230.01 281.521 230.094 281.451 230.172 281.303C230.236 281.168 230.277 281.043 230.288 280.897C230.29 280.822 230.278 280.733 230.272 280.655C230.259 280.593 230.222 280.474 230.187 280.395L230.166 280.377Z" fill="#00FDFF"/>
<path d="M234.986 266.742C234.921 266.669 234.833 266.606 234.762 266.549C234.733 266.527 234.695 266.503 234.655 266.487C234.492 266.422 234.354 266.366 234.182 266.373C233.946 266.373 233.738 266.421 233.532 266.537C233.446 266.587 233.358 266.665 233.293 266.733C233.264 266.759 233.239 266.797 233.218 266.826C233.155 266.914 233.093 267.021 233.062 267.122C233.029 267.203 233.013 267.291 233.013 267.385C233.01 267.44 233.003 267.551 233.021 267.624C233.036 267.705 233.053 267.778 233.079 267.854C233.146 268.041 233.253 268.197 233.398 268.331C233.607 268.537 233.944 268.663 234.238 268.611C234.257 268.609 234.283 268.591 234.306 268.581C234.345 268.578 234.394 268.598 234.436 268.586C234.67 268.52 234.875 268.385 235.025 268.2C235.142 268.049 235.207 267.886 235.254 267.698C235.267 267.665 235.267 267.618 235.272 267.582C235.275 267.48 235.278 267.378 235.262 267.277C235.225 267.064 235.132 266.895 235.001 266.729L234.986 266.742Z" fill="#00FDFF"/>
<path d="M251.555 255.315C251.555 255.315 251.542 255.348 251.535 255.364C251.516 255.413 251.507 255.457 251.496 255.509C251.522 255.444 251.537 255.384 251.555 255.315Z" fill="#00FDFF"/>
<path d="M251.573 254.304C251.524 254.238 251.461 254.184 251.394 254.139C251.35 254.083 251.321 254.015 251.263 253.973C251.186 253.904 251.089 253.865 250.993 253.846C250.904 253.81 250.801 253.807 250.709 253.826C250.577 253.849 250.455 253.894 250.356 253.977C250.341 253.99 250.318 254 250.304 254.013C250.245 254.065 250.184 254.125 250.13 254.188C250.062 254.265 250.019 254.37 249.975 254.456C249.962 254.489 249.946 254.53 249.933 254.562C249.912 254.638 249.899 254.718 249.886 254.798C249.881 254.881 249.892 254.97 249.891 255.045L249.884 255.061C249.884 255.061 249.921 255.227 249.941 255.272C249.938 255.28 249.951 255.295 249.955 255.306L249.946 255.331C249.947 255.397 249.949 255.464 249.939 255.536C249.952 255.597 249.973 255.662 249.983 255.732C250.015 255.792 250.043 255.841 250.075 255.901C250.123 255.948 250.162 255.992 250.209 256.039C250.262 256.07 250.313 256.109 250.374 256.144C250.472 256.183 250.565 256.21 250.662 256.202C250.734 256.212 250.792 256.207 250.86 256.178C250.93 256.168 250.987 256.144 251.039 256.108C251.096 256.084 251.148 256.048 251.198 255.993C251.25 255.957 251.289 255.907 251.315 255.842C251.346 255.788 251.371 255.751 251.402 255.697C251.415 255.665 251.428 255.632 251.441 255.6C251.473 255.518 251.503 255.445 251.516 255.366C251.529 255.333 251.545 255.292 251.55 255.257L251.56 255.232C251.56 255.232 251.605 255.166 251.626 255.137C251.678 255.054 251.706 254.961 251.717 254.862C251.737 254.766 251.737 254.672 251.709 254.576C251.685 254.472 251.643 254.389 251.57 254.313L251.573 254.304Z" fill="#00FDFF"/>
<path d="M249.902 255.04C249.897 254.982 249.895 254.915 249.891 254.856C249.894 254.895 249.894 254.99 249.902 255.04Z" fill="#00FDFF"/>
<path d="M249.907 255.052L249.899 255.048L249.902 255.04L249.907 255.052Z" fill="#00FDFF"/>
<path d="M264.284 233.206C264.284 233.206 264.268 233.106 264.257 233.063C264.21 232.828 264.077 232.642 263.859 232.527C263.776 232.475 263.683 232.447 263.584 232.436C263.449 232.419 263.326 232.445 263.197 232.507L263.175 232.517L262.999 232.626L263.089 232.567L263.082 232.583C263.082 232.583 263.002 232.618 262.976 232.635C262.921 232.679 262.783 232.812 262.797 232.799C262.845 232.752 262.897 232.717 262.944 232.669C262.812 232.786 262.718 232.881 262.615 233.019C262.573 233.077 262.484 233.277 262.5 233.236C262.451 233.358 262.423 233.451 262.418 233.581C262.394 233.713 262.405 233.849 262.451 233.971C262.496 234.093 262.568 234.197 262.665 234.283C262.716 234.322 262.787 234.332 262.841 234.363C262.842 234.382 262.847 234.394 262.849 234.413C262.883 234.54 262.936 234.665 263.008 234.769C263.102 234.911 263.216 235.003 263.351 235.114C263.56 235.273 263.888 235.254 264.103 235.142C264.329 235.025 264.5 234.763 264.498 234.508C264.502 234.406 264.485 234.305 264.466 234.212C264.45 234.112 264.43 234.019 264.411 233.926C264.367 233.683 264.323 233.439 264.271 233.192L264.284 233.206Z" fill="#00FDFF"/>
<path d="M264.39 233.767C264.403 233.829 264.408 233.887 264.424 233.941L264.382 233.764L264.39 233.767Z" fill="#00FDFF"/>
<path d="M264.471 234.177C264.471 234.177 264.474 234.216 264.476 234.235C264.487 234.278 264.499 234.32 264.499 234.367L264.471 234.177Z" fill="#00FDFF"/>
</svg>
