<svg width="400" height="400" viewBox="0 0 400 400" fill="none" xmlns="http://www.w3.org/2000/svg">
<path d="M353.986 279.945L354.096 279.815L347.974 274.187C346.835 272.876 345.544 271.706 344.127 270.701L343.593 270.204L343.563 270.289C343.125 269.996 342.704 269.719 342.215 269.451C339.097 267.732 335.63 266.744 332.074 266.561C328.518 266.378 324.967 267.005 321.689 268.394L260.871 215.629C260.871 215.629 252.012 228.892 248.018 232.739C244.024 236.585 234.091 243.717 234.091 243.717L302.497 302.375C303.19 306.695 305.012 310.756 307.779 314.145L307.755 314.211L308.339 314.779C309.113 315.643 309.953 316.445 310.853 317.176L314.221 320.396C315.855 322.287 317.801 323.884 319.974 325.119C331.927 331.954 347.983 326.345 355.832 312.608C362.183 301.363 361.125 288.151 353.986 279.945Z" fill="#FFBC00" stroke="black" stroke-width="10" stroke-linecap="round" stroke-linejoin="round"/>
<path d="M349.585 306.639C357.438 292.896 354.117 276.22 342.167 269.392C330.217 262.564 314.164 268.17 306.311 281.913C298.459 295.657 301.78 312.333 313.73 319.161C325.68 325.989 341.733 320.383 349.585 306.639Z" fill="#B56300"/>
<path d="M257.13 212.712L335.976 281.308C335.976 281.308 337.141 292.691 326.203 301.312C315.265 309.934 308.84 307.647 308.84 307.647L230.337 240.838C230.337 240.838 240.305 233.666 244.264 229.859C248.223 226.053 257.13 212.712 257.13 212.712Z" fill="#E5CB9C" stroke="#231100" stroke-miterlimit="10"/>
<path d="M317.982 266.104L298.577 299.755L306.988 306.767L324.836 272.628L317.982 266.104Z" fill="#E5CB9C" stroke="#231100" stroke-miterlimit="10"/>
<path d="M344.949 303.991C352.188 291.322 350.445 276.702 341.056 271.337C331.667 265.973 318.187 271.894 310.948 284.563C303.709 297.232 305.452 311.851 314.841 317.216C324.231 322.581 337.71 316.66 344.949 303.991Z" fill="#B56300"/>
<path d="M354.377 311.952C362.244 298.282 358.986 281.656 347.1 274.816C335.215 267.976 319.202 273.512 311.335 287.181C303.469 300.85 306.726 317.477 318.612 324.317C330.498 331.157 346.51 325.621 354.377 311.952Z" fill="#FFBC00"/>
<path d="M344.239 305.69C348.175 298.851 346.545 290.532 340.597 287.109C334.65 283.686 326.637 286.456 322.701 293.295C318.765 300.135 320.396 308.454 326.343 311.877C332.291 315.3 340.303 312.53 344.239 305.69Z" fill="#90531F"/>
<path d="M340.598 303.109C344.084 297.008 342.987 289.821 338.148 287.056C333.309 284.291 326.561 286.996 323.075 293.097C319.589 299.198 320.685 306.385 325.524 309.15C330.363 311.915 337.112 309.21 340.598 303.109Z" fill="#D28F00"/>
<path d="M259.921 215.823L239.132 248.951L247.533 255.96L266.776 222.347L259.921 215.823Z" fill="#E5CB9C" stroke="#231100" stroke-miterlimit="10"/>
<path d="M281.083 180.895L264.324 180.855L254.376 191.324L110.655 66.3822L70.357 69.565L63.9712 110.249L214.024 237.922L206.824 246.892L200.272 273.586L213.365 279.871L248.775 226.769L285.437 193.069L281.083 180.895Z" fill="#FFBC00" stroke="black" stroke-width="10" stroke-linecap="round" stroke-linejoin="round"/>
<path d="M281.083 180.896L264.324 180.855L235.174 211.531L206.824 246.892L200.272 273.587L281.083 180.896Z" fill="#B56300"/>
<path d="M281.084 180.895L285.438 193.069L248.776 226.769L213.365 279.871L200.272 273.586L281.084 180.895Z" fill="#FFBC00"/>
<path d="M312.23 259.822L291.44 292.95L299.841 299.959L319.084 266.346L312.23 259.822Z" fill="#E5CB9C" stroke="#231100" stroke-miterlimit="10"/>
<path d="M304.748 253.988L283.959 287.116L292.36 294.125L311.603 260.512L304.748 253.988Z" fill="#E5CB9C" stroke="#231100" stroke-miterlimit="10"/>
<path d="M297.267 248.154L276.478 281.282L284.879 288.291L304.122 254.678L297.267 248.154Z" fill="#E5CB9C" stroke="#231100" stroke-miterlimit="10"/>
<path d="M290.12 241.378L269.331 274.506L277.732 281.515L296.975 247.902L290.12 241.378Z" fill="#E5CB9C" stroke="#231100" stroke-miterlimit="10"/>
<path d="M275.492 228.767L254.703 261.896L263.104 268.905L282.347 235.291L275.492 228.767Z" fill="#E5CB9C" stroke="#231100" stroke-miterlimit="10"/>
<path d="M282.973 234.601L262.184 267.73L270.585 274.739L289.828 241.125L282.973 234.601Z" fill="#E5CB9C" stroke="#231100" stroke-miterlimit="10"/>
<path d="M239.063 223.698L255.254 192.08L110.655 66.3822L70.357 69.565L63.9712 110.249L217.147 240.577L239.063 223.698Z" fill="#FFCA1B"/>
<path d="M110.655 66.3822L114.816 70.4457L75.8349 73.7766L70.357 69.565L110.655 66.3822Z" fill="#D28F00"/>
<path d="M69.1547 114.632L75.8348 73.7766L70.3569 69.5649L63.9711 110.249L69.1547 114.632Z" fill="#773D04"/>
<path d="M127.76 81.1328L118.033 155.495L130.709 166.639L141.218 92.883L127.76 81.1328Z" fill="#FFE98F"/>
<path d="M214.362 155.777L204.583 230.046L217.187 241.154L227.748 167.491L214.362 155.777Z" fill="#FFE98F"/>
<path d="M198.164 142.387L188.795 216.218L201.647 227.372L211.799 154.147L198.164 142.387Z" fill="#EAA10F"/>
<path d="M153.857 104.131L144.417 177.682L146.077 179.586L156.299 106.641L153.857 104.131Z" fill="#EAA10F"/>
<path d="M147.672 100.029L138.232 173.581L141.654 176.109L151.876 103.164L147.672 100.029Z" fill="#EAA10F"/>
<path d="M241.691 217.002L100.157 89.9285L114.818 89.6919" stroke="white" stroke-width="2" stroke-linecap="round" stroke-linejoin="round"/>
<path d="M236.478 224.734L92.728 97.1196L93.8698 111.741" stroke="white" stroke-width="2" stroke-linecap="round" stroke-linejoin="round"/>
</svg>
