<svg width="420" height="400" viewBox="0 0 420 400" fill="none" xmlns="http://www.w3.org/2000/svg">
<path d="M104.467 133.709C104.467 133.709 85.7448 130.897 71.5693 144.232C57.3939 157.568 53.645 168.613 53.645 168.613C53.645 168.613 60.6516 159.672 71.5166 154.141C85.7714 146.882 112.701 153.132 112.701 153.132L104.467 133.709Z" fill="#D28F00" stroke="black" stroke-width="4" stroke-linecap="round" stroke-linejoin="round"/>
<path d="M53.6445 168.613C53.6445 168.613 68.5458 141.063 94.5855 136.824L90.1186 133.566C90.1186 133.566 65.5629 139.814 53.6463 168.607L53.6445 168.613Z" fill="white"/>
<path d="M104.467 133.709C104.467 133.709 85.7448 130.897 71.5693 144.232C57.3939 157.568 53.645 168.613 53.645 168.613C53.645 168.613 60.6516 159.672 71.5166 154.141C85.7714 146.882 112.701 153.132 112.701 153.132L104.467 133.709Z" stroke="black" stroke-width="4" stroke-linecap="round" stroke-linejoin="round"/>
<path d="M114.822 121.314C114.822 121.314 108.282 103.55 118.47 86.9656C128.658 70.3815 138.721 64.4847 138.721 64.4847C138.721 64.4847 133.548 70.1594 129.175 84.3536C123.458 102.914 135.508 125.447 135.508 125.447L114.822 121.314Z" fill="#D28F00" stroke="black" stroke-width="4" stroke-linecap="round" stroke-linejoin="round"/>
<path d="M115.771 111.292C115.771 111.292 116.294 87.276 136.71 66.2415L129.93 71.418L120.257 83.3785L113.912 96.3985L112.097 109.023L115.777 111.294L115.771 111.292Z" fill="white"/>
<path d="M114.822 121.314C114.822 121.314 108.282 103.55 118.47 86.9656C128.658 70.3815 138.721 64.4847 138.721 64.4847C138.721 64.4847 133.548 70.1594 129.175 84.3536C123.458 102.914 135.508 125.447 135.508 125.447L114.822 121.314Z" stroke="black" stroke-width="4" stroke-linecap="round" stroke-linejoin="round"/>
<path d="M104.849 128.496C103.445 128.18 48.5439 105.305 48.5439 105.305L113.634 148.929L104.841 128.5L104.849 128.496Z" fill="#D28F00" stroke="black" stroke-width="4" stroke-linecap="round" stroke-linejoin="round"/>
<path d="M109.586 122.676C108.993 121.368 75.4863 72.2336 75.4863 72.2336L131.374 127.154L109.586 122.676Z" fill="#D28F00" stroke="black" stroke-width="4" stroke-linecap="round" stroke-linejoin="round"/>
<path d="M48.5459 105.299L97.4917 131.151L88.4112 121.657L48.5459 105.299Z" fill="white"/>
<path d="M107.059 111.458L77.2705 74.8333L98.8263 107.366L107.059 111.458Z" fill="white"/>
<path d="M104.849 128.496C103.445 128.18 48.5439 105.305 48.5439 105.305L113.634 148.929L104.841 128.5L104.849 128.496Z" stroke="black" stroke-width="4" stroke-linecap="round" stroke-linejoin="round"/>
<path d="M109.586 122.676C108.993 121.368 75.4863 72.2336 75.4863 72.2336L131.374 127.154L109.586 122.676Z" stroke="black" stroke-width="4" stroke-linecap="round" stroke-linejoin="round"/>
<path d="M114.896 150.776L55.7695 83.5386L132.318 125.988L114.896 150.776Z" fill="#D28F00" stroke="black" stroke-width="4" stroke-linecap="round" stroke-linejoin="round"/>
<path d="M55.7695 83.5386L114.36 133.854L117.64 129.687L55.7695 83.5386Z" fill="white"/>
<path d="M114.896 150.776L55.7695 83.5386L132.318 125.988L114.896 150.776Z" stroke="black" stroke-width="4" stroke-linecap="round" stroke-linejoin="round"/>
<path d="M315.826 321.119L306.392 350.748L332.955 334.652L315.826 321.119Z" fill="#FFDD55" stroke="black" stroke-width="4" stroke-linecap="round" stroke-linejoin="round"/>
<path d="M320.114 326.515L305.398 352.112L315.774 322.796L320.114 326.515Z" fill="white"/>
<path d="M307.568 349.286L327.614 331.624L331.311 335.849L307.568 349.286Z" fill="#D28F00"/>
<path d="M315.826 321.119L306.392 350.748L332.955 334.652L315.826 321.119Z" stroke="black" stroke-width="4" stroke-linecap="round" stroke-linejoin="round"/>
<path d="M341.006 290.21L368.116 274.972L357.727 304.245L341.006 290.21Z" fill="#FFDD55" stroke="black" stroke-width="4" stroke-linecap="round" stroke-linejoin="round"/>
<path d="M367.213 275.068L353.282 297.867L358.082 300.775L367.213 275.068Z" fill="#D28F00"/>
<path d="M346.513 293.271L368.116 274.972L341.006 290.21L346.513 293.271Z" fill="white"/>
<path d="M341.006 290.21L368.116 274.972L357.727 304.245L341.006 290.21Z" stroke="black" stroke-width="4" stroke-linecap="round" stroke-linejoin="round"/>
<path d="M357.091 329.068C367.108 316.767 365.928 309.175 364.713 308.183C362.716 306.558 337.128 285.716 334.47 283.548C331.812 281.38 324.053 278.377 312.413 292.669C300.773 306.96 305.283 313.951 307.941 316.119C310.599 318.287 336.193 339.131 338.184 340.754C339.405 341.749 347.082 341.365 357.097 329.07L357.091 329.068Z" fill="#FFDD55" stroke="black" stroke-width="4" stroke-linecap="round" stroke-linejoin="round"/>
<path d="M315.165 291.535C308.287 300.705 302.046 308.202 304.438 310.917C308.629 315.677 317.371 310.024 324.249 300.853C331.126 291.683 334.409 282.678 328.364 280.755C324.816 279.625 322.042 282.364 315.165 291.535Z" fill="white"/>
<path d="M329.103 291.736C329.103 291.736 330.452 288.766 330.472 286.33" stroke="black" stroke-width="3" stroke-linecap="round" stroke-linejoin="round"/>
<path d="M347.02 338.795L312.865 310.016L316.548 306.629L351.294 335.596L347.02 338.795Z" fill="white"/>
<path d="M352.639 333.419L318.485 304.641L319.842 303.444L354.978 332.209L352.639 333.419Z" fill="white"/>
<path d="M357.091 328.883C367.108 316.582 365.928 308.99 364.713 307.998C362.716 306.373 337.128 285.53 334.47 283.363C331.812 281.195 324.053 278.192 312.413 292.484C300.773 306.775 305.283 313.766 307.941 315.934C310.599 318.102 336.193 338.946 338.184 340.569C339.405 341.564 347.082 341.18 357.097 328.885L357.091 328.883Z" stroke="black" stroke-width="4" stroke-linecap="round" stroke-linejoin="round"/>
<path d="M346.646 320.003C351.038 314.611 350.134 306.603 344.627 302.118C339.12 297.633 331.095 298.369 326.703 303.762C322.311 309.154 323.215 317.162 328.722 321.647C334.229 326.132 342.254 325.396 346.646 320.003Z" fill="#9DA3A8" stroke="black" stroke-width="3" stroke-linecap="round" stroke-linejoin="round"/>
<path d="M328.562 292.293C328.562 292.293 271.799 245.588 263.321 238.683C254.844 231.778 248.854 233.533 245.33 237.85C241.813 242.169 241.31 248.398 249.782 255.301C258.26 262.206 315.022 308.912 315.022 308.912C315.022 308.912 318.122 306.804 322.182 302.234C326.241 297.664 328.562 292.293 328.562 292.293Z" fill="#D28F00" stroke="black" stroke-width="4" stroke-linecap="round" stroke-linejoin="round"/>
<path d="M269.042 246.142L249.042 252.142L259.042 260.142L280.042 254.642L269.042 246.142Z" fill="#FFCA1B"/>
<path d="M306.904 277.098L286.904 283.098L296.904 291.098L317.904 285.598L306.904 277.098Z" fill="#FFCA1B"/>
<path d="M281.427 255.106L258.93 260.607L262.424 263.105L284.429 257.608L281.427 255.106Z" fill="#FFCA1B"/>
<path d="M251.532 256.718C251.532 256.718 260.974 250.728 264.732 240.513" stroke="#FFDD55" stroke-width="2" stroke-linecap="round" stroke-linejoin="round"/>
<path d="M260.599 264.104C260.599 264.104 270.041 258.114 273.799 247.899" stroke="#FFDD55" stroke-width="2" stroke-linecap="round" stroke-linejoin="round"/>
<path d="M269.915 271.692C269.915 271.692 279.356 265.702 283.115 255.487" stroke="#FFDD55" stroke-width="2" stroke-linecap="round" stroke-linejoin="round"/>
<path d="M278.929 279.035C278.929 279.035 288.371 273.044 292.129 262.829" stroke="#FFDD55" stroke-width="2" stroke-linecap="round" stroke-linejoin="round"/>
<path d="M288.855 287.123C288.855 287.123 298.297 281.133 302.055 270.918" stroke="#FFDD55" stroke-width="2" stroke-linecap="round" stroke-linejoin="round"/>
<path d="M298.077 294.636C298.077 294.636 307.518 288.646 311.277 278.431" stroke="#FFDD55" stroke-width="2" stroke-linecap="round" stroke-linejoin="round"/>
<path d="M307.997 302.352C307.997 302.352 317.438 296.361 321.197 286.146" stroke="#FFDD55" stroke-width="2" stroke-linecap="round" stroke-linejoin="round"/>
<path d="M255.743 235.047C255.743 235.047 255.807 242.688 245.197 248.847L242.329 248.384L242.78 241.194L252.009 234.81L255.741 235.053L255.743 235.047Z" fill="white"/>
<path d="M315.016 309.399C315.016 309.399 311.687 311.407 309.307 311.927" stroke="black" stroke-width="3" stroke-linecap="round" stroke-linejoin="round"/>
<path d="M347.458 306.37C347.458 306.37 358.58 322.935 353.741 327.908C348.902 332.881 329.333 322.988 328.727 321.701C328.12 320.413 347.452 306.368 347.452 306.368L347.458 306.37Z" fill="#7E491B"/>
<path d="M328.562 292.293C328.562 292.293 271.799 245.588 263.321 238.683C254.844 231.778 248.854 233.533 245.33 237.85C241.813 242.169 241.31 248.398 249.782 255.301C258.26 262.206 315.022 308.912 315.022 308.912C315.022 308.912 318.122 306.804 322.182 302.234C326.241 297.664 328.562 292.293 328.562 292.293Z" stroke="black" stroke-width="4" stroke-linecap="round" stroke-linejoin="round"/>
<path d="M346.646 320.003C351.038 314.611 350.134 306.603 344.627 302.118C339.12 297.633 331.095 298.369 326.703 303.762C322.311 309.154 323.215 317.162 328.722 321.647C334.229 326.132 342.254 325.396 346.646 320.003Z" fill="#FFDD55" stroke="black" stroke-width="3" stroke-linecap="round" stroke-linejoin="round"/>
<path d="M347.458 306.369L336.315 311.688L331.059 323.478C331.059 323.478 340.701 327.582 346.971 320.55C353.087 313.69 347.462 306.377 347.462 306.377L347.458 306.369Z" fill="#D28F00"/>
<path d="M324.194 310.377L335.721 311.733L326.713 303.813L324.194 310.377Z" fill="white"/>
<path d="M346.646 320.003C351.038 314.611 350.134 306.603 344.627 302.118C339.12 297.633 331.095 298.369 326.703 303.762C322.311 309.154 323.215 317.162 328.722 321.647C334.229 326.132 342.254 325.396 346.646 320.003Z" stroke="black" stroke-width="3" stroke-linecap="round" stroke-linejoin="round"/>
<path d="M230.518 217.304L252.01 234.811C252.01 234.811 253.664 235.793 249.423 240.996C245.18 246.204 243.707 245 243.707 245L221.662 227.043L230.518 217.304Z" fill="#FFDD55" stroke="black" stroke-width="4" stroke-linecap="round" stroke-linejoin="round"/>
<path d="M238.355 234.367L247.151 241.237L246.289 243.249L236.305 235.428L238.355 234.367Z" fill="white"/>
<path d="M243.037 227.553C243.037 227.553 241.123 233.06 234.542 237.876L226.164 231.374L234.797 220.802L243.041 227.561L243.037 227.553Z" fill="#7E491B"/>
<path d="M230.518 217.304L252.01 234.811C252.01 234.811 253.664 235.793 249.423 240.996C245.18 246.204 243.707 245 243.707 245L221.662 227.043L230.518 217.304Z" stroke="black" stroke-width="4" stroke-linecap="round" stroke-linejoin="round"/>
<path d="M230.351 225.646C217.493 241.433 209.667 238.376 209.667 238.376C209.667 238.376 213.842 224.086 190.743 205.267C167.642 186.454 170.302 188.615 170.302 188.615L180.779 173.374C180.779 173.374 191.915 182.447 201.883 190.562C223.152 207.887 238.664 203.105 238.664 203.105C238.664 203.105 242.669 210.515 230.353 225.64L230.351 225.646Z" fill="#D28F00" stroke="black" stroke-width="4" stroke-linecap="round" stroke-linejoin="round"/>
<path d="M205.448 196.112L188.448 201.112L198.448 210.112L220.948 203.612C219.782 203.112 215.916 201.808 212.948 200.112C209.448 198.112 207.282 197.279 205.448 196.112Z" fill="#FFCA1B"/>
<path d="M222.854 203.582L198.848 211.58L204.849 217.58L238.351 205.081C237.184 204.581 233.854 205.582 229.855 205.082C225.855 204.582 224.687 204.748 222.854 203.582Z" fill="#FFCA1B"/>
<path d="M214.639 237.958C214.639 237.958 215.686 227.03 203.451 212.918C199.606 208.484 172.034 186.835 172.034 186.835" stroke="#FFDD55" stroke-width="2" stroke-linecap="round" stroke-linejoin="round"/>
<path d="M221.326 234.563C221.326 234.563 218.387 224.314 205.375 210.555C201.346 206.29 173.958 184.471 173.958 184.471" stroke="#FFDD55" stroke-width="2" stroke-linecap="round" stroke-linejoin="round"/>
<path d="M239.158 207.854C239.158 207.854 228.11 211.77 211.82 202.646C206.701 199.78 179.922 177.152 179.922 177.152" stroke="#FFDD55" stroke-width="2" stroke-linecap="round" stroke-linejoin="round"/>
<path d="M236.633 215.772C236.633 215.772 225.999 214.967 209.891 205.003C204.9 201.917 177.993 179.509 177.993 179.509" stroke="#FFDD55" stroke-width="2" stroke-linecap="round" stroke-linejoin="round"/>
<path d="M175.243 181.538L229.969 226.111" stroke="#FFDD55" stroke-width="2" stroke-linecap="round" stroke-linejoin="round"/>
<path d="M230.351 225.646C217.493 241.433 209.667 238.376 209.667 238.376C209.667 238.376 213.842 224.086 190.743 205.267C167.642 186.454 170.302 188.615 170.302 188.615L180.779 173.374C180.779 173.374 191.915 182.447 201.883 190.562C223.152 207.887 238.664 203.105 238.664 203.105C238.664 203.105 242.669 210.515 230.353 225.64L230.351 225.646Z" stroke="black" stroke-width="4" stroke-linecap="round" stroke-linejoin="round"/>
<path d="M201.64 214.251C201.64 214.251 216.746 228.306 214.638 237.959L209.666 238.376C209.666 238.376 210.455 227.607 201.64 214.251Z" fill="white"/>
<path d="M214.657 199.869C214.657 199.869 230.774 211.113 239.271 207.069L238.419 204.447C238.419 204.447 228.861 207.241 214.657 199.869Z" fill="white"/>
<path d="M230.351 225.646C217.493 241.433 209.667 238.376 209.667 238.376C209.667 238.376 213.842 224.086 190.743 205.267C167.642 186.454 170.302 188.615 170.302 188.615L180.779 173.374C180.779 173.374 191.915 182.447 201.883 190.562C223.152 207.887 238.664 203.105 238.664 203.105C238.664 203.105 242.669 210.515 230.353 225.64L230.351 225.646Z" stroke="black" stroke-width="4" stroke-linecap="round" stroke-linejoin="round"/>
<path d="M169.794 151.994L189.876 140.707L182.183 162.39L169.794 151.994Z" fill="#FFDD55" stroke="black" stroke-width="4" stroke-linecap="round" stroke-linejoin="round"/>
<path d="M180.181 156.686L190.064 140.116L183.318 159.886L180.181 156.686Z" fill="#D28F00"/>
<path d="M175.318 153.797L186.207 144.301L189.877 140.708L180.032 146.778L172.346 150.2L175.318 153.797Z" fill="white"/>
<path d="M169.794 151.994L189.876 140.707L182.183 162.39L169.794 151.994Z" stroke="black" stroke-width="4" stroke-linecap="round" stroke-linejoin="round"/>
<path d="M145.906 181.322L138.915 203.274L158.594 191.351L145.906 181.322Z" fill="#FFDD55" stroke="black" stroke-width="4" stroke-linecap="round" stroke-linejoin="round"/>
<path d="M148.9 186.098L138.914 203.274L145.066 184.064L148.9 186.098Z" fill="white"/>
<path d="M152.362 189.446L139.047 203.413L156.284 191.612L152.362 189.446Z" fill="#D28F00"/>
<path d="M145.906 181.322L138.915 203.274L158.594 191.351L145.906 181.322Z" stroke="black" stroke-width="4" stroke-linecap="round" stroke-linejoin="round"/>
<path d="M180.602 185.312C190.619 173.011 189.439 165.419 188.224 164.427C186.227 162.802 168.015 147.967 165.357 145.799C163.521 144.303 158.478 143.512 146.838 157.804C135.198 172.096 137.431 177.235 138.822 178.368C141.48 180.536 159.698 195.373 161.689 196.996C162.91 197.991 170.587 197.607 180.602 185.312Z" fill="#FFDD55" stroke="black" stroke-width="4" stroke-linecap="round" stroke-linejoin="round"/>
<path d="M143.985 174.237L169.798 195.58L173.36 192.839L148.354 172.807L143.985 174.237Z" fill="white"/>
<path d="M149.87 167.388L176.556 188.814L174.378 190.44L149.216 170.346L149.87 167.388Z" fill="white"/>
<path d="M163.975 144.43C169.056 142.79 157.496 172.98 138.517 177.362L136.312 174.055L146.838 157.618L159.57 145.399C159.57 145.399 160.454 145.57 163.975 144.43Z" fill="white"/>
<path d="M173.54 179.425C176.466 175.832 175.866 170.498 172.198 167.511C168.53 164.523 163.184 165.015 160.258 168.608C157.331 172.202 157.932 177.536 161.6 180.523C165.268 183.51 170.613 183.019 173.54 179.425Z" fill="#FFDD55" stroke="black" stroke-width="4" stroke-linecap="round" stroke-linejoin="round"/>
<path d="M180.601 185.126C190.618 172.825 189.438 165.233 188.223 164.241C186.226 162.616 168.014 147.781 165.356 145.613C163.52 144.117 158.477 143.326 146.837 157.618C135.197 171.91 137.43 177.049 138.821 178.182C141.479 180.35 159.697 195.187 161.688 196.81C162.909 197.805 170.586 197.421 180.601 185.126Z" stroke="black" stroke-width="4" stroke-linecap="round" stroke-linejoin="round"/>
<path d="M115.663 158.315L51.1365 138.096L130.216 144.181L121.069 160.504L115.663 158.315Z" fill="#D28F00" stroke="black" stroke-width="4" stroke-linecap="round" stroke-linejoin="round"/>
<path d="M109.935 151.978L51.1368 138.096L100.899 153.871L109.935 151.978Z" fill="#202223"/>
<path d="M141.184 127.305L108.329 68.1985L130.289 144.413L144.422 132.152L141.184 127.305Z" fill="#D28F00" stroke="black" stroke-width="4" stroke-linecap="round" stroke-linejoin="round"/>
<path d="M51.137 138.096L122.38 148.605L115.676 143.169L51.137 138.096Z" fill="white"/>
<path d="M115.663 158.315L51.1365 138.096L130.216 144.181L121.069 160.504L115.663 158.315Z" stroke="black" stroke-width="4" stroke-linecap="round" stroke-linejoin="round"/>
<path d="M134.382 154.658C134.382 154.658 112.497 146.229 87.3806 158.395C62.2641 170.561 61.3903 197.768 61.3903 197.768C61.3903 197.768 70.4141 181.341 83.5833 174.935C104.191 164.903 129.49 169.481 144.854 173.699C144.854 173.699 148.413 172.728 152.702 168.478C155.138 166.062 134.382 154.658 134.382 154.658Z" fill="#D28F00" stroke="black" stroke-width="4" stroke-linecap="round" stroke-linejoin="round"/>
<path d="M133.455 135.26L106.338 63.5662L126.426 130.822L133.455 135.26Z" fill="white"/>
<path d="M108.329 68.1988C108.166 68.0558 135.479 127.548 135.479 127.548L133.816 113.368L108.329 68.1988Z" fill="#202223"/>
<path d="M141.184 127.305L108.329 68.1985L130.289 144.413L144.422 132.152L141.184 127.305Z" stroke="black" stroke-width="4" stroke-linecap="round" stroke-linejoin="round"/>
<path d="M142.507 166.745C142.507 166.745 120.612 159.942 103.192 163.517C85.7719 167.092 68.1172 177.771 61.3897 197.768L76.9004 178.598L98.5682 169.861L111.902 168.894L134.833 171.273L148.929 171.759L142.507 166.745Z" fill="#965B00"/>
<path d="M141.844 145.491C141.844 145.491 129.163 125.76 135.998 98.7108C142.829 71.6539 169.297 65.2911 169.297 65.2911C169.297 65.2911 155.035 77.4459 151.422 91.6474C145.769 113.856 155.366 137.712 162.607 151.902C162.607 151.902 162.374 155.58 159.083 160.642C157.211 163.518 141.844 145.491 141.844 145.491Z" fill="#D28F00" stroke="black" stroke-width="4" stroke-linecap="round" stroke-linejoin="round"/>
<path d="M145.533 145.076C145.533 145.076 137.062 122.652 139.296 105.316C141.07 91.5515 147.77 74.6521 169.303 65.2928C169.303 65.2928 155.363 69.272 148.458 76.5839C141.553 83.8957 134.875 96.7966 133.822 113.369C132.769 129.942 138.061 140.393 138.061 140.393L145.539 145.077L145.533 145.076Z" fill="white"/>
<path d="M156.657 152.672C156.657 152.672 145.049 132.905 144.564 115.126C144.079 97.3477 150.458 77.7282 168.404 66.628L153.268 86.0926L149.692 109.183L151.783 122.386L159.316 144.172L161.416 156.629L156.657 152.672Z" fill="#965B00"/>
<path d="M141.844 145.491C141.844 145.491 129.163 125.76 135.998 98.7108C142.829 71.6539 169.297 65.2911 169.297 65.2911C169.297 65.2911 155.035 77.4459 151.422 91.6474C145.769 113.856 155.366 137.712 162.607 151.902C162.607 151.902 162.374 155.58 159.083 160.642C157.211 163.518 141.844 145.491 141.844 145.491Z" stroke="black" stroke-width="4" stroke-linecap="round" stroke-linejoin="round"/>
<path d="M175.949 171.153C176.717 171.932 179.782 180.722 176.879 183.706C173.065 187.625 169.042 185.642 164.543 183.642C159.717 180.387 175.951 171.147 175.951 171.147L175.949 171.153Z" fill="#965B00"/>
<path d="M61.3897 197.768C61.3897 197.768 63.7278 177.012 84.159 163.974C104.59 150.936 131.982 157.164 131.982 157.164L126.277 152.046L107.596 151.97L87.3801 158.395L75.0771 166.562L65.8417 178.291L62.1194 188.843L61.3916 197.762L61.3897 197.768Z" fill="white"/>
<path d="M134.382 154.658C134.382 154.658 112.497 146.229 87.3806 158.395C62.2641 170.561 61.3903 197.768 61.3903 197.768C61.3903 197.768 70.4141 181.341 83.5833 174.935C104.191 164.903 129.49 169.481 144.854 173.699C144.854 173.699 148.413 172.728 152.702 168.478C155.138 166.062 134.382 154.658 134.382 154.658Z" stroke="black" stroke-width="4" stroke-linecap="round" stroke-linejoin="round"/>
<path d="M161.273 156.936C161.273 156.936 123.027 128.549 119.571 126.003C116.115 123.458 109.427 122.164 106.991 125.153C104.555 128.142 107.511 134.697 110.534 137.437C113.556 140.177 148.931 171.753 148.931 171.753C148.931 171.753 152.283 168.997 155.685 164.816C159.092 160.638 161.28 156.932 161.28 156.932L161.273 156.936Z" fill="#D28F00" stroke="black" stroke-width="4" stroke-linecap="round" stroke-linejoin="round"/>
<path d="M173.543 170.629L166.831 173.834L163.666 180.935C163.666 180.935 169.52 183.476 173.538 179.465C177.556 175.455 173.549 170.631 173.549 170.631L173.543 170.629Z" fill="#D28F00"/>
<path d="M110.531 137.442C110.531 137.442 105.88 130.505 109.751 126.526C113.622 122.547 119.568 126.009 119.568 126.009C119.568 126.009 111.455 121.539 106.989 125.158C102.522 128.778 110.531 137.442 110.531 137.442Z" fill="white"/>
<path d="M158.867 172.765L166.932 174.029L160.255 168.648C160.255 168.648 159.074 169.373 158.867 172.765Z" fill="white"/>
<path d="M173.54 179.425C176.466 175.832 175.866 170.498 172.198 167.511C168.53 164.523 163.184 165.015 160.258 168.608C157.331 172.202 157.932 177.536 161.6 180.523C165.268 183.51 170.613 183.019 173.54 179.425Z" stroke="black" stroke-width="4" stroke-linecap="round" stroke-linejoin="round"/>
<path d="M166.502 174.869C167.074 175.051 167.685 174.735 167.867 174.163C168.049 173.592 167.733 172.981 167.161 172.799C166.589 172.617 165.979 172.933 165.797 173.504C165.615 174.076 165.931 174.687 166.502 174.869Z" fill="black"/>
<g style="mix-blend-mode:multiply">
<path d="M192.589 183.234C192.589 183.234 189.331 193.003 180.982 198.097L174.079 191.563C174.079 191.563 181.005 185.332 186.103 177.354L192.589 183.234Z" fill="#8D9499"/>
</g>
<path d="M161.273 156.936C161.273 156.936 123.027 128.549 119.571 126.003C116.115 123.458 109.427 122.164 106.991 125.153C104.555 128.142 107.511 134.697 110.534 137.437C113.556 140.177 148.931 171.753 148.931 171.753C148.931 171.753 152.283 168.997 155.685 164.816C159.092 160.638 161.28 156.932 161.28 156.932L161.273 156.936Z" stroke="black" stroke-width="4" stroke-linecap="round" stroke-linejoin="round"/>
<path d="M108.193 127.333L120.21 136.543L110.128 125.343L108.193 127.333Z" fill="white"/>
<path d="M116.058 125.908L122.113 137.48L109.558 133.889" stroke="black" stroke-width="4" stroke-linecap="round" stroke-linejoin="round"/>
<path d="M336.427 313.098C336.999 313.28 337.61 312.964 337.791 312.392C337.973 311.821 337.657 311.21 337.086 311.028C336.514 310.846 335.903 311.162 335.721 311.734C335.54 312.305 335.856 312.916 336.427 313.098Z" fill="black"/>
</svg>
