<svg width="400" height="400" viewBox="0 0 400 400" fill="none" xmlns="http://www.w3.org/2000/svg">
<path d="M291.544 280.823C291.922 280.528 287.837 280.519 288.215 280.224C276.739 279.475 269.726 278.434 258.249 277.686L257.393 276.854C250.071 261.64 242.936 246.717 233.633 232.627L233.808 231.881C181.457 189.275 130.668 144.75 81.5768 98.4278L81.6515 99.3064L39.2807 41.1827L39.0049 40.9102L83.598 91.9115L84.7813 92.5491C132.849 133.657 182.479 172.944 233.518 210.302L233.507 210.725C243.462 209.39 253.946 208.195 264.618 206.213L267.199 206.72C283.732 215.011 300.534 222.766 317.576 229.958L319.302 231.752C311.332 248.825 302.015 264.942 291.796 280.774L291.547 280.83L291.542 280.828L291.544 280.823Z" fill="#4D6E81"/>
<path d="M294.464 277.866C306.446 289.189 318.462 300.334 331.905 310.936L327.029 316.336C320.265 323.928 317.022 329.922 311.854 342.19L311.19 344.837C318.65 334.818 326.835 324.891 337.757 318.828L338.017 318.654L342.226 321.529L343.454 322.495C335.815 328.099 327.518 339.327 324.65 348.355L324.434 348.586C331.299 340.603 339.868 332.716 349.614 328.733L352.545 330.645C359.357 329.295 361.971 324.591 365.226 319.407L366.119 316.925C365.123 316.037 363.94 314.703 362.975 314.211L362.045 313.635C365.84 304.596 373.607 296.263 380.379 289.919L380.918 289.388C371.194 294.859 364.052 299.251 356.71 307.644L356.388 308.132C354.364 306.143 352.272 305.394 350.612 303.602L349.928 302.903C357 293.559 365.128 285.009 374.097 277.463L375.142 276.983C364.545 281.95 357.197 285.342 348.111 292.716L345.427 295.426C331.749 284.198 318.55 272.548 304.871 261.32" fill="#C5AE78"/>
<path d="M269.452 229.553C266.236 232.984 265.9 238.423 267.648 242.784C270.222 249.206 277.221 253.655 284.106 252.961C290.99 252.267 297.058 246.296 297.563 239.396C298.069 232.495 292.712 225.574 285.858 224.618C278.946 223.65 273.812 224.718 269.279 230.023" fill="#EBDCBB"/>
<path d="M71.0437 81.1768L81.3013 94.4061L227.3 212.216C230.243 214.955 233.001 214.672 234.106 214.541L264.322 210.951L315.944 235.751L318.136 230.954L267.189 206.712L233.498 210.717L83.5923 91.9101L71.0437 81.1768Z" fill="#3BD2FF"/>
<path d="M262.497 206.452C252.367 207.665 242.159 208.607 232.081 210.217C228.998 210.711 229.516 214.83 232.614 214.633C242.747 213.991 252.872 212.466 262.961 211.319C265.836 210.992 265.372 206.109 262.497 206.452Z" fill="white"/>
<path d="M272.876 209.563C271.638 208.982 270.398 208.405 269.145 207.858C267.818 207.279 266.559 206.576 265.127 206.326C262.955 205.953 261.217 208.873 263.23 210.262C265.471 211.805 268.298 212.842 270.809 213.904C273.404 215.001 275.545 210.808 272.878 209.558L272.876 209.563Z" fill="white"/>
<path d="M314.062 286.714C312.606 286.911 310.244 285.023 309.177 284.093C307.615 282.733 306.317 281.006 305.82 278.978C305.094 276.01 300.06 278.39 301.762 281.405C303.072 283.727 304.483 285.906 306.533 287.649C308.59 289.405 310.875 290.175 313.275 291.277C316.919 292.957 317.468 286.251 314.062 286.714Z" fill="#9B7B52"/>
<path d="M313.184 289.144C313.215 289.037 313.244 288.935 313.282 288.841C313.348 288.533 313.359 288.476 313.184 289.144Z" fill="#9B7B52"/>
<path d="M327.936 298.557C325.828 299.468 316.569 292.116 317.504 290.398C319.068 287.523 314.351 286.017 313.282 288.841C313.197 289.237 313.009 290.046 312.998 290.181C312.948 290.858 313.04 291.481 313.256 292.118C313.775 293.666 315.012 294.927 316.092 296.099C319.297 299.583 323.921 303.617 328.978 302.931C332.627 302.433 330.702 297.358 327.936 298.557Z" fill="#9B7B52"/>
<path d="M343.975 308.858C339.526 308.192 333.341 305.978 330.99 301.732C329.291 298.668 324.995 302.758 327.349 304.715C329.355 306.379 330.839 308.17 332.833 309.665C331.775 311.06 330.718 312.454 329.664 313.856C329.189 314.489 329.162 315.222 329.398 315.865C324.262 319.47 319.861 324.005 316.596 329.651L316.593 329.661C316.485 329.846 316.366 330.028 316.263 330.214C315.185 332.145 317.813 334.612 319.517 332.949C325.852 326.778 332.555 321.099 339.849 316.12C340.917 315.597 341.918 314.861 342.819 314.129C343.006 313.978 343.147 313.797 343.263 313.603C343.447 313.54 343.629 313.465 343.813 313.401C345.66 312.763 346.458 309.226 343.98 308.859L343.975 308.858Z" fill="#9B7B52"/>
<path d="M359.183 322.703C358.23 322.767 357.291 322.703 356.397 322.524C355.668 322.21 354.914 321.967 354.145 321.796C351.311 320.509 349.175 317.967 348.558 314.732C348.793 314.086 349.047 313.451 349.35 312.836C350.728 310.073 347.184 308.062 345.475 310.631C344.363 312.292 343.658 314.02 343.257 315.863C340.584 315.485 339.161 319.894 342.009 320.51C343.407 320.806 344.557 321.5 345.61 322.36C344.65 322.683 343.723 323.081 342.836 323.551C337.639 326.31 334.059 331.18 330.702 335.853C329.294 337.817 332.009 341.1 334.013 339.279C339.545 334.25 346.08 330.84 353.368 329.161C353.771 329.066 354.073 328.882 354.294 328.652C356.453 329.105 358.723 328.731 360.451 327.136C361.931 325.774 361.78 322.534 359.18 322.713L359.183 322.703Z" fill="#9B7B52"/>
<path d="M304.534 276.497C303.948 275.318 302.748 274.874 301.671 275.274C300.785 275.18 300.071 274.683 299.952 273.764L299.98 273.706C300.689 272.178 299.518 270.686 297.926 270.645C297.191 270.623 296.482 270.879 295.979 271.437C295.712 271.731 295.538 272.068 295.456 272.454C295.38 272.853 295.415 273.233 295.567 273.609C295.481 273.407 295.47 273.465 295.524 273.779C295.541 274.088 295.568 274.399 295.607 274.704C295.686 275.202 295.822 275.672 296.024 276.128C296.335 276.837 296.784 277.491 297.345 278.022C298.097 278.735 299.11 279.313 300.118 279.557C301.013 279.775 301.889 279.65 302.794 279.754C304.539 279.955 305.138 277.727 304.527 276.501L304.534 276.497Z" fill="#9B7B52"/>
<path d="M311.514 266.645C311.383 266.193 311.86 267.347 311.514 266.645V266.645Z" fill="#EBDCBB"/>
<path d="M311.58 266.858C311.547 266.76 311.526 266.699 311.514 266.645L311.501 266.614C311.242 266.087 310.87 265.648 310.475 265.214C309.244 263.872 307.831 262.704 305.993 262.404C304.625 262.178 303.364 263.415 303.258 264.712C303.209 265.329 303.356 265.857 303.771 266.319C303.946 266.557 304.177 266.734 304.467 266.845C304.6 266.899 304.733 266.938 304.87 266.96C304.92 266.98 304.975 267.001 305.04 267.025C305.428 267.175 305.828 267.284 306.211 267.455C307.159 267.87 307.51 268.866 308.231 269.554C309.589 270.856 311.759 269.94 311.829 268.074C311.846 267.609 311.726 267.276 311.583 266.848L311.58 266.858Z" fill="#EBDCBB"/>
<path d="M322.975 275.867C320.202 273.154 317.175 270.805 314.29 268.231C311.74 265.952 309.001 270.344 311.681 272.03C314.534 273.826 317.198 276.264 319.59 278.63C320.451 279.485 321.738 279.954 322.804 279.109C323.72 278.381 323.835 276.705 322.982 275.863L322.976 275.862L322.975 275.867Z" fill="#EBDCBB"/>
<path d="M336.572 287.863C334.845 286.052 333.091 284.278 331.213 282.629C329.643 281.256 327.863 279.324 325.914 278.523C323.469 277.519 321.392 280.524 323.409 282.324C325.176 283.897 327.221 285.157 329.019 286.717C330.428 287.939 331.812 289.209 333.085 290.575C335.175 292.816 338.712 290.102 336.577 287.864L336.572 287.863Z" fill="#EBDCBB"/>
<path d="M344.013 293.838C342.162 292.732 340.314 291.423 338.248 290.776C336.062 290.089 334.252 292.911 335.984 294.491C337.676 296.037 340.066 297.02 342.06 298.128C344.708 299.6 346.408 295.265 344.013 293.838Z" fill="#EBDCBB"/>
<path d="M362.173 283.626C358.39 285.02 354.656 286.451 350.932 287.966C348.378 289.005 350.215 292.688 352.672 292.009C356.485 290.956 360.166 289.455 363.884 288.081C366.506 287.112 364.92 282.61 362.175 283.621L362.173 283.626Z" fill="#EBDCBB"/>
<path d="M354.895 305.719C353.807 305.48 352.703 305.147 351.582 305.257C350.529 305.359 349.62 306.083 349.368 307.117C349.089 308.265 349.746 309.216 350.824 309.602C351.988 310.019 353.201 310.222 354.412 310.475C355.617 310.726 356.765 309.578 356.835 308.426C356.916 307.139 356.182 305.994 354.901 305.716L354.896 305.714L354.895 305.719Z" fill="#EBDCBB"/>
<path d="M366.303 319.256C365.886 317.505 365.815 315.748 365.622 313.968C365.486 312.707 364.38 311.837 363.119 311.896C362.059 311.946 360.575 312.937 360.818 314.195C361.202 316.175 361.678 318.103 361.973 320.106C362.43 323.201 366.984 322.15 366.302 319.261L366.303 319.256Z" fill="#EBDCBB"/>
<path d="M88.6231 104.892C90.3124 107.992 294.101 276.064 293.374 276.265L290.374 280.792L258.256 277.682L232.456 232.893L83.0771 99.7146L88.6282 104.893L88.6231 104.892Z" fill="#314B5A"/>
<path d="M290.504 248.036C285.741 248.563 281.778 249.308 277.527 246.404C273.327 243.537 269.965 236.336 272.446 231.361C273.896 228.459 268.833 227.235 268.513 230.379C268.184 233.575 267.441 236.111 268.176 239.396C268.952 242.864 270.707 246.044 273.336 248.45C277.972 252.692 285.832 254.617 291.576 251.589C293.362 250.646 292.542 247.812 290.509 248.037L290.504 248.036Z" fill="#CEBD9F"/>
<path d="M290.312 231.578C290.082 230.39 288.243 229.786 287.245 229.389C286.301 229.014 285.323 228.762 284.325 228.575C283.248 228.378 282.151 228.329 281.058 228.381C280.324 228.414 279.588 228.452 278.861 228.52C277.815 228.619 276.932 229.057 275.936 229.347C274.433 229.79 275.259 231.984 276.616 231.433C277.374 231.125 278.21 231.044 279.002 230.867C279.77 230.694 280.455 230.58 281.243 230.59C282.351 230.604 283.508 230.753 284.58 231.026C285.61 231.294 286.608 231.651 287.558 232.139C288.025 232.378 288.483 232.653 288.986 232.791C289.769 233.01 290.467 232.369 290.317 231.58L290.312 231.578Z" fill="white"/>
<path d="M291.99 235.106C291.348 235.127 290.806 235.514 290.707 236.187C290.627 236.718 290.991 237.513 291.632 237.492C292.274 237.472 292.816 237.085 292.915 236.411C292.995 235.881 292.631 235.085 291.99 235.106Z" fill="white"/>
<path d="M153.714 154.724L153.719 154.709L153.745 154.694L153.785 154.651L153.803 154.628C153.698 154.742 153.666 154.777 153.716 154.719L153.714 154.724Z" fill="#3BD2FF"/>
<path d="M153.893 154.527C153.866 154.563 153.83 154.592 153.798 154.627C153.823 154.595 153.854 154.565 153.893 154.527Z" fill="#3BD2FF"/>
<path d="M153.854 154.565L153.858 154.55C153.952 154.455 154.018 154.341 154.072 154.229C154.131 154.119 154.18 154.006 154.206 153.875C154.247 153.677 154.236 153.48 154.176 153.286C154.115 153.092 154.006 152.933 153.851 152.8C153.694 152.672 153.515 152.599 153.312 152.574C153.003 152.535 152.692 152.634 152.446 152.818C152.397 152.854 152.357 152.898 152.317 152.942C152.309 152.95 152.301 152.959 152.294 152.963L152.299 152.947L152.276 152.969L152.258 152.991L152.233 153.023C152.115 153.127 151.993 153.225 151.892 153.345C151.774 153.505 151.704 153.69 151.686 153.889L151.701 154.186C151.743 154.386 151.832 154.556 151.973 154.701C152.079 154.815 152.2 154.894 152.342 154.94C152.481 155.013 152.626 155.049 152.786 155.05C153.005 155.058 153.217 155.013 153.42 154.922C153.567 154.854 153.685 154.749 153.795 154.637L153.817 154.616C153.817 154.616 153.841 154.589 153.851 154.575L153.854 154.565Z" fill="#3BD2FF"/>
<path d="M160.7 158.119L160.538 157.873C160.468 157.809 160.392 157.748 160.321 157.684L160.059 157.559L159.765 157.503C159.603 157.489 159.454 157.507 159.304 157.569C159.198 157.589 159.098 157.632 159.011 157.701C158.875 157.773 158.758 157.872 158.666 158.001C158.637 158.042 158.617 158.075 158.584 158.132C158.5 158.252 158.445 158.385 158.428 158.541C158.429 158.635 158.428 158.734 158.424 158.827C158.451 158.924 158.48 159.015 158.503 159.11L158.665 159.355C158.735 159.42 158.812 159.48 158.882 159.544C159.007 159.63 159.142 159.68 159.292 159.695C159.389 159.723 159.492 159.73 159.591 159.714C159.699 159.723 159.799 159.702 159.894 159.658C160 159.638 160.1 159.595 160.187 159.526C160.282 159.481 160.361 159.421 160.423 159.339C160.344 159.421 160.26 159.502 160.181 159.585L160.187 159.564C160.187 159.564 160.229 159.532 160.244 159.52C160.266 159.499 160.282 159.481 160.305 159.46C160.355 159.419 160.397 159.37 160.444 159.323C160.444 159.323 160.447 159.313 160.453 159.309L160.539 159.223L160.46 159.305C160.526 159.247 160.579 159.179 160.614 159.095C160.676 159.013 160.713 158.924 160.729 158.829C160.766 158.74 160.782 158.645 160.771 158.548C160.785 158.403 160.76 158.258 160.689 158.121L160.699 158.124L160.7 158.119Z" fill="#3BD2FF"/>
<path d="M158.688 157.98C158.662 158.012 158.653 158.026 158.669 158.008L158.675 157.987L158.688 157.98Z" fill="#3BD2FF"/>
<path d="M158.888 157.744L158.872 157.761L158.842 157.791C158.842 157.791 158.803 157.83 158.785 157.852C158.752 157.893 158.718 157.933 158.69 157.974C158.765 157.885 158.961 157.665 158.89 157.739L158.888 157.744Z" fill="#3BD2FF"/>
<path d="M171.854 166.595C171.799 166.518 171.745 166.436 171.689 166.359C171.554 166.215 171.389 166.113 171.197 166.052C171.046 165.998 170.891 165.981 170.735 166.003C170.57 166 170.417 166.034 170.268 166.107C170.125 166.166 170 166.252 169.905 166.373C169.794 166.469 169.71 166.589 169.654 166.727C169.579 166.911 169.557 167.104 169.591 167.296C169.583 167.111 169.582 167.055 169.578 167.126L169.573 167.147L169.579 167.182C169.579 167.182 169.578 167.242 169.581 167.271C169.583 167.304 169.586 167.333 169.592 167.368C169.607 167.433 169.61 167.5 169.612 167.567C169.636 167.718 169.692 167.85 169.791 167.967C169.866 168.093 169.969 168.195 170.098 168.265C170.225 168.345 170.361 168.39 170.513 168.4C170.664 168.433 170.814 168.431 170.964 168.391L171.265 168.284C171.453 168.188 171.614 168.052 171.736 167.877L171.876 167.618C171.946 167.434 171.966 167.246 171.934 167.049C171.963 166.891 171.938 166.746 171.851 166.605L171.854 166.595Z" fill="#3BD2FF"/>
<path d="M181.034 175.921C180.983 175.829 180.936 175.743 180.885 175.651C180.8 175.522 180.69 175.424 180.561 175.354C180.486 175.288 180.397 175.252 180.302 175.235C180.163 175.179 180.018 175.165 179.872 175.19C179.85 175.189 179.966 175.189 179.945 175.189C179.842 175.198 179.742 175.202 179.642 175.201L179.362 175.293L179.127 175.457C179.01 175.557 178.931 175.678 178.874 175.817C178.821 175.906 178.79 175.997 178.781 176.105C178.751 176.207 178.739 176.309 178.757 176.419C178.754 176.584 178.788 176.737 178.86 176.891L179.016 177.157L179.227 177.366C179.342 177.466 179.474 177.526 179.617 177.55C179.673 177.566 179.729 177.582 179.783 177.587L179.755 177.59L179.788 177.588C179.858 177.597 179.93 177.595 180 177.582L180.01 177.585C180.01 177.585 179.977 177.587 180 177.582L180.015 177.587C180.015 177.587 180.072 177.581 180.099 177.583C180.133 177.582 180.165 177.585 180.2 177.579L180.484 177.494C180.623 177.435 180.737 177.345 180.825 177.232C180.899 177.165 180.955 177.087 180.988 176.991C181.07 176.86 181.116 176.718 181.127 176.561C181.125 176.456 181.123 176.345 181.12 176.239C181.094 176.137 181.064 176.029 181.038 175.928L181.033 175.926L181.034 175.921Z" fill="#3BD2FF"/>
<path d="M188.567 181.17C187.953 181.193 187.444 181.849 187.523 182.441C187.613 183.131 188.282 183.383 188.885 183.362C189.488 183.341 190.009 182.683 189.93 182.091C189.839 181.401 189.171 181.149 188.567 181.17Z" fill="#3BD2FF"/>
<path d="M199.387 190.158C199.293 189.965 199.156 189.804 198.988 189.679C198.789 189.505 198.573 189.427 198.347 189.445C198.189 189.455 198.019 189.49 197.877 189.56C197.698 189.646 197.56 189.779 197.456 189.948C197.376 190.074 197.33 190.216 197.316 190.361C197.279 190.511 197.28 190.661 197.318 190.815C197.368 191.029 197.462 191.221 197.602 191.389C197.734 191.548 197.9 191.662 198.088 191.738C198.153 191.762 198.216 191.775 198.284 191.789L198.178 191.792L198.199 191.797L198.229 191.789L198.279 191.787L198.315 191.797C198.205 191.794 198.145 191.793 198.139 191.791L198.005 191.797C198.082 191.819 198.163 191.826 198.243 191.816C198.282 191.816 198.32 191.816 198.361 191.811C198.457 191.822 198.551 191.821 198.65 191.805C198.847 191.773 199.022 191.685 199.171 191.55C199.231 191.474 199.291 191.402 199.351 191.326C199.45 191.155 199.504 190.966 199.512 190.763C199.518 190.549 199.471 190.348 199.377 190.155L199.387 190.158Z" fill="#3BD2FF"/>
<path d="M206.002 195.658C205.945 195.509 205.86 195.38 205.741 195.274C205.599 195.134 205.427 195.04 205.238 194.986C205.049 194.932 204.852 194.942 204.663 195.004C204.547 195.042 204.445 195.107 204.352 195.18L204.32 195.198C204.173 195.267 204.049 195.37 203.946 195.5L203.783 195.758C203.712 195.892 203.676 196.037 203.684 196.183C203.666 196.283 203.673 196.374 203.701 196.47C203.719 196.619 203.775 196.751 203.869 196.867L204.075 197.075C204.235 197.193 204.415 197.261 204.609 197.278C204.629 197.283 204.658 197.281 204.683 197.288C204.699 197.292 204.71 197.29 204.727 197.289L204.808 197.296C204.864 197.295 204.924 197.296 204.98 197.295L204.692 197.296C204.832 197.308 204.978 197.322 205.118 197.335C205.319 197.326 205.502 197.268 205.667 197.155C205.827 197.04 205.947 196.892 206.027 196.71C206.108 196.524 206.143 196.323 206.129 196.12C206.122 195.952 206.077 195.801 206.002 195.658Z" fill="#3BD2FF"/>
<path d="M244.776 218.88C244.776 218.88 244.782 218.898 244.784 218.91L244.776 218.88Z" fill="#3BD2FF"/>
<path d="M244.83 219.077C244.824 219.02 244.805 218.971 244.788 218.916L244.831 219.094L244.835 219.079L244.83 219.077Z" fill="#3BD2FF"/>
<path d="M242.513 219.575C242.506 219.523 242.509 219.552 242.527 219.662C242.532 219.647 242.526 219.629 242.52 219.61C242.523 219.6 242.516 219.587 242.513 219.575Z" fill="#3BD2FF"/>
<path d="M244.883 219.375C244.883 219.375 244.881 219.324 244.878 219.296C244.877 219.279 244.87 219.266 244.869 219.249C244.863 219.214 244.856 219.179 244.852 219.134L244.865 219.226C244.86 219.186 244.848 219.149 244.838 219.107C244.88 219.578 244.907 219.735 244.905 219.569L244.909 219.554L244.905 219.53C244.904 219.475 244.895 219.428 244.888 219.376L244.883 219.375Z" fill="#3BD2FF"/>
<path d="M244.843 219.164C244.843 219.164 244.833 219.106 244.825 219.076L244.829 219.099L244.845 219.159L244.843 219.164Z" fill="#3BD2FF"/>
<path d="M244.657 218.674C244.611 218.584 244.549 218.511 244.46 218.457C244.392 218.383 244.308 218.331 244.209 218.308C244.125 218.256 244.031 218.235 243.933 218.229C243.836 218.201 243.735 218.206 243.64 218.228C243.484 218.233 243.338 218.28 243.2 218.356C243.11 218.419 243.02 218.482 242.936 218.546C242.863 218.625 242.794 218.71 242.722 218.789C242.674 218.88 242.631 218.973 242.582 219.064C242.56 219.163 242.537 219.261 242.516 219.355C242.522 219.451 242.521 219.55 242.527 219.646C242.545 219.795 242.599 219.932 242.694 220.047C242.766 220.179 242.869 220.285 243.008 220.359C243.134 220.439 243.271 220.484 243.423 220.494C243.569 220.525 243.72 220.518 243.865 220.477L244.156 220.367C244.352 220.262 244.51 220.114 244.634 219.934C244.682 219.843 244.725 219.75 244.774 219.659C244.838 219.472 244.857 219.29 244.83 219.094C244.816 219.029 244.806 218.966 244.785 218.904C244.754 218.818 244.716 218.741 244.659 218.669L244.657 218.674Z" fill="#3BD2FF"/>
<path d="M245.851 223.816C245.768 223.815 245.68 223.812 245.598 223.81C245.647 223.813 245.694 223.821 245.74 223.818C245.778 223.818 245.812 223.816 245.851 223.816Z" fill="#3BD2FF"/>
<path d="M245.598 223.811L245.577 223.805C245.577 223.805 245.559 223.81 245.554 223.809L245.598 223.811Z" fill="#3BD2FF"/>
<path d="M247.188 222.214C247.116 222.022 247 221.867 246.837 221.743C246.677 221.625 246.497 221.557 246.298 221.539C246.253 221.542 246.204 221.539 246.158 221.543C246.074 221.547 245.916 221.54 245.806 221.558C245.644 221.562 245.495 221.602 245.35 221.682C245.196 221.737 245.06 221.826 244.947 221.948C244.833 222.059 244.747 222.184 244.7 222.331C244.629 222.46 244.594 222.605 244.593 222.759L244.626 223.051C244.68 223.249 244.781 223.416 244.93 223.553C245.008 223.608 245.093 223.66 245.171 223.716C245.303 223.776 245.439 223.804 245.574 223.815C245.769 223.831 245.962 223.832 246.156 223.81C246.37 223.777 246.565 223.695 246.736 223.561C246.911 223.434 247.042 223.267 247.136 223.073C247.208 222.939 247.238 222.793 247.237 222.643C247.258 222.494 247.243 222.351 247.183 222.213L247.188 222.214Z" fill="#3BD2FF"/>
<path d="M245.529 223.818L245.55 223.824L245.595 223.82C245.595 223.82 245.65 223.82 245.678 223.822C245.693 223.826 245.706 223.819 245.721 223.823C245.518 223.82 245.445 223.822 245.528 223.823L245.529 223.818Z" fill="#3BD2FF"/>
<path d="M250.48 230.318C250.451 230.227 250.423 230.131 250.394 230.039C250.331 229.894 250.237 229.778 250.11 229.698C250.043 229.624 249.959 229.572 249.86 229.549C249.726 229.477 249.585 229.448 249.434 229.454C249.336 229.465 249.233 229.48 249.136 229.491C248.926 229.547 248.737 229.648 248.578 229.796L248.548 229.826C248.523 229.852 248.494 229.877 248.47 229.903C248.388 229.996 248.162 230.263 248.203 230.197L248.054 230.469C247.977 230.658 247.949 230.854 247.974 231.055C247.997 231.15 248.026 231.241 248.049 231.336C248.105 231.485 248.194 231.599 248.318 231.69C248.419 231.802 248.546 231.877 248.696 231.914C248.841 231.967 248.988 231.976 249.138 231.952C249.293 231.953 249.443 231.913 249.586 231.837C249.786 231.74 249.953 231.6 250.082 231.421L249.881 231.64L249.897 231.622L249.919 231.601L249.966 231.554L250.013 231.506C250.114 231.402 250.194 231.298 250.292 231.188C250.384 231.059 250.442 230.916 250.464 230.762C250.505 230.618 250.515 230.467 250.485 230.32L250.48 230.318Z" fill="#3BD2FF"/>
<path d="M248.606 229.759L248.581 229.786C248.619 229.752 248.627 229.743 248.611 229.761L248.606 229.759Z" fill="#3BD2FF"/>
<path d="M252.804 226.609C252.189 226.632 251.647 227.213 251.698 227.825C251.755 228.494 252.411 228.831 253.014 228.81C253.617 228.789 254.171 228.207 254.12 227.595C254.063 226.926 253.407 226.589 252.804 226.609Z" fill="#3BD2FF"/>
<path d="M255.762 232.229C255.145 232.18 254.568 232.518 254.383 233.123C254.21 233.709 254.582 234.513 255.293 234.484C255.935 234.463 256.594 234.226 256.764 233.517C256.931 232.819 256.434 232.278 255.758 232.223L255.763 232.224L255.762 232.229Z" fill="#3BD2FF"/>
<path d="M258.072 226.868L257.986 226.877L257.992 226.857C256.537 226.628 256.156 229.234 257.659 229.139C258.305 229.103 258.956 228.858 259.112 228.14C259.257 227.462 258.758 226.866 258.072 226.868Z" fill="#3BD2FF"/>
<path d="M261.474 231.769C261.427 231.623 261.346 231.5 261.229 231.406C261.17 231.323 261.087 231.266 260.993 231.228C260.868 231.142 260.73 231.103 260.577 231.098L260.283 231.119C260.078 231.159 259.897 231.251 259.732 231.381L259.62 231.504C259.496 231.607 259.385 231.724 259.279 231.843C259.16 232.008 259.086 232.191 259.061 232.394L259.065 232.689C259.1 232.892 259.184 233.065 259.322 233.221C259.421 233.338 259.542 233.417 259.684 233.463C259.818 233.535 259.962 233.571 260.117 233.571C260.336 233.578 260.543 233.532 260.736 233.438C260.84 233.385 260.935 233.324 261.017 233.248C260.986 233.3 260.978 233.325 261.019 233.281L261.035 233.264L261.083 233.211C261.083 233.211 261.109 233.18 261.125 233.162C261.133 233.154 261.142 233.14 261.15 233.131L261.187 233.081C261.217 233.034 261.252 232.989 261.287 232.943C261.391 232.813 261.46 232.667 261.489 232.509C261.541 232.364 261.557 232.213 261.54 232.059L261.472 231.774L261.474 231.769Z" fill="#3BD2FF"/>
<path d="M268.461 227.029C268.467 226.931 268.443 226.841 268.401 226.757C268.364 226.614 268.29 226.488 268.176 226.383C268.099 226.323 268.016 226.266 267.939 226.205C267.73 226.239 267.525 226.28 267.316 226.314C267.244 226.316 267.165 226.321 267.095 226.334C267.047 226.347 266.999 226.361 266.954 226.382L266.505 226.463C266.378 226.56 266.284 226.676 266.217 226.812C266.155 226.894 266.118 226.983 266.101 227.083C266.067 227.162 266.054 227.247 266.051 227.334C266.037 227.441 266.04 227.547 266.07 227.655L266.183 227.936C266.243 228.014 266.299 228.091 266.359 228.169C266.394 228.201 266.436 228.23 266.477 228.258C266.551 228.329 266.636 228.381 266.733 228.409C266.954 228.505 266.843 228.468 267.177 228.519L267.499 228.495C267.556 228.49 267.604 228.476 267.657 228.447C267.712 228.429 267.766 228.412 267.815 228.398C267.958 228.34 268.083 228.253 268.183 228.133C268.299 228.039 268.383 227.919 268.436 227.774C268.502 227.638 268.526 227.496 268.508 227.347C268.517 227.239 268.492 227.132 268.456 227.028L268.461 227.029Z" fill="#3BD2FF"/>
<path d="M261.113 222.386L261.103 222.384L261.075 222.386C261.075 222.386 261.036 222.386 261.019 222.387C260.98 222.387 260.947 222.389 260.908 222.389C260.898 222.386 260.885 222.393 260.875 222.39C261.129 222.391 261.211 222.392 261.118 222.388L261.113 222.386Z" fill="#3BD2FF"/>
<path d="M261.966 223.117C261.91 222.924 261.808 222.762 261.657 222.631L261.41 222.471C261.238 222.395 261.057 222.37 260.875 222.39C260.859 222.386 260.836 222.39 260.819 222.391C260.663 222.396 260.523 222.439 260.392 222.512C260.243 222.568 260.112 222.658 260.005 222.782C259.888 222.898 259.801 223.028 259.752 223.18C259.681 223.314 259.65 223.46 259.65 223.615C259.661 223.712 259.672 223.81 259.677 223.905C259.721 224.1 259.817 224.266 259.96 224.406L260.199 224.574C260.378 224.664 260.561 224.7 260.759 224.685C260.803 224.687 260.848 224.683 260.899 224.681C261.051 224.669 261.192 224.621 261.322 224.536C261.467 224.473 261.594 224.377 261.696 224.251C261.807 224.134 261.886 223.996 261.93 223.842C261.991 223.705 262.022 223.559 262.012 223.401C261.996 223.303 261.983 223.211 261.967 223.112L261.966 223.117Z" fill="#3BD2FF"/>
<path d="M260.841 222.391C260.841 222.391 260.856 222.396 260.868 222.394L260.842 222.386L260.841 222.391Z" fill="#3BD2FF"/>
<path d="M280.867 219.649C280.964 219.638 281.061 219.627 281.162 219.623L280.862 219.647L280.867 219.649Z" fill="#3BD2FF"/>
<path d="M281.932 220.081C281.806 219.923 281.655 219.814 281.466 219.738C281.271 219.665 281.074 219.642 280.868 219.666L280.871 219.656C280.807 219.665 280.746 219.686 280.686 219.702L280.504 219.739C280.308 219.804 280.138 219.916 279.995 220.068C279.887 220.176 279.813 220.298 279.777 220.443C279.715 220.58 279.691 220.722 279.708 220.877C279.728 221.076 279.798 221.256 279.924 221.414L279.962 221.458L279.988 221.482C280.216 221.747 280.443 221.845 280.691 221.866C280.803 221.881 280.917 221.887 281.026 221.873C281.445 221.822 281.833 221.568 282.025 221.186C282.115 221.007 282.152 220.819 282.142 220.622C282.128 220.419 282.058 220.239 281.934 220.076L281.932 220.081Z" fill="#3BD2FF"/>
<path d="M286.334 221.701C286.305 221.61 286.27 221.517 286.241 221.426C286.154 221.246 286.024 221.104 285.854 221C285.805 220.98 285.753 220.949 285.703 220.929C285.668 220.919 285.633 220.904 285.604 220.89C285.53 220.858 285.454 220.836 285.373 220.829C285.311 220.811 285.252 220.805 285.188 220.798C285.027 220.78 284.869 220.79 284.712 220.817C284.504 220.851 284.309 220.933 284.138 221.067C283.981 221.188 283.86 221.341 283.779 221.528C283.699 221.71 283.677 221.903 283.709 222.1C283.741 222.297 283.829 222.472 283.965 222.616C284.104 222.788 284.277 222.915 284.481 222.996C284.428 222.969 284.368 222.947 284.315 222.92C284.366 222.952 284.428 222.969 284.486 222.997C284.496 223 284.505 223.008 284.515 223.011C284.531 223.016 284.551 223.021 284.565 223.031C284.672 223.084 284.777 223.141 284.893 223.18C285.036 223.221 285.179 223.223 285.322 223.187C285.47 223.174 285.611 223.126 285.74 223.041C285.82 222.975 285.903 222.916 285.982 222.851C286.104 222.736 286.192 222.601 286.246 222.451C286.301 222.356 286.334 222.26 286.338 222.151C286.38 222.002 286.379 221.853 286.344 221.704L286.334 221.701Z" fill="#3BD2FF"/>
<path d="M295.336 224.6C295.287 224.404 295.186 224.237 295.038 224.095L294.8 223.922C294.628 223.828 294.446 223.787 294.254 223.782C294.254 223.782 294.229 223.775 294.212 223.775L294.165 223.784C293.999 223.786 293.83 223.815 293.668 223.879L293.622 223.905L293.392 224.032C293.23 224.152 293.104 224.304 293.017 224.489C292.946 224.624 292.92 224.771 292.933 224.919C292.918 225.069 292.948 225.216 293.019 225.353C293.079 225.491 293.168 225.605 293.291 225.696C293.398 225.804 293.525 225.885 293.672 225.932C293.878 226.002 294.088 226.024 294.302 225.991C294.399 225.98 294.484 225.954 294.568 225.912C294.724 225.868 294.857 225.79 294.978 225.676C295.095 225.577 295.184 225.458 295.242 225.315C295.317 225.187 295.362 225.05 295.362 224.895L295.331 224.599L295.336 224.6Z" fill="#3BD2FF"/>
<path d="M305.783 232.05C305.728 231.857 305.627 231.69 305.484 231.549L305.249 231.327C305.138 231.213 305.011 231.137 304.864 231.09C304.719 231.015 304.563 230.981 304.397 230.984C304.228 230.974 304.071 231.001 303.926 231.064C303.776 231.104 303.644 231.177 303.526 231.282L303.33 231.502C303.216 231.669 303.157 231.856 303.149 232.058C303.16 232.156 303.174 232.259 303.185 232.356C303.24 232.549 303.342 232.717 303.484 232.857C303.563 232.929 303.642 233.002 303.719 233.079C303.83 233.194 303.958 233.269 304.104 233.317C304.249 233.391 304.405 233.425 304.572 233.423C304.74 233.432 304.898 233.405 305.043 233.342C305.193 233.302 305.324 233.229 305.442 233.125L305.638 232.904C305.752 232.738 305.812 232.55 305.82 232.348C305.809 232.251 305.794 232.147 305.783 232.05Z" fill="#3BD2FF"/>
<path d="M305.137 231.953L305.096 231.98L305.083 231.987C305.158 231.937 305.177 231.926 305.137 231.953Z" fill="#3BD2FF"/>
<path d="M306.797 232.661C306.789 232.515 306.741 232.374 306.655 232.25C306.588 232.175 306.528 232.097 306.46 232.023C306.305 231.89 306.128 231.811 305.932 231.783C305.833 231.782 305.733 231.781 305.641 231.777C305.435 231.801 305.248 231.874 305.076 231.991C305.056 232.002 305.035 232.018 305.015 232.029C304.988 232.049 304.961 232.063 304.939 232.084L304.898 232.111C304.833 232.165 304.759 232.21 304.694 232.263C304.61 232.306 304.486 232.37 304.41 232.425C304.273 232.497 304.163 232.592 304.077 232.717C303.974 232.826 303.905 232.95 303.868 233.1C303.826 233.248 303.817 233.395 303.858 233.539C303.871 233.687 303.921 233.823 304.012 233.948L304.208 234.17C304.369 234.305 304.548 234.395 304.75 234.442L305.073 234.473C305.29 234.469 305.494 234.411 305.683 234.311C305.724 234.284 305.759 234.26 305.795 234.232C305.87 234.182 305.931 234.122 305.993 234.062C306.045 234.033 306.193 233.942 306.258 233.889C306.4 233.797 306.511 233.68 306.591 233.537C306.693 233.411 306.756 233.269 306.79 233.112C306.832 232.964 306.836 232.816 306.801 232.668L306.796 232.666L306.797 232.661Z" fill="#3BD2FF"/>
<path d="M311.468 234.718L311.324 234.466L311.107 234.26C311.05 234.227 310.996 234.201 310.94 234.168C310.979 234.185 310.984 234.186 310.94 234.168L310.924 234.164C310.867 234.131 310.815 234.099 310.757 234.072C310.675 234.031 310.591 233.996 310.501 233.96C310.307 233.904 310.117 233.894 309.922 233.937C309.72 233.985 309.539 234.077 309.383 234.215C309.22 234.361 309.096 234.542 309.016 234.745C308.951 234.893 308.931 235.042 308.941 235.2C308.931 235.351 308.955 235.497 309.015 235.636C309.094 235.824 309.211 235.974 309.378 236.088L309.373 236.086C309.373 236.086 309.4 236.105 309.416 236.11C309.44 236.122 309.464 236.135 309.493 236.148C309.508 236.153 309.524 236.157 309.538 236.167L309.701 236.252L309.971 236.374C310.111 236.425 310.256 236.439 310.401 236.414C310.506 236.416 310.599 236.399 310.69 236.353C310.791 236.327 310.88 236.286 310.962 236.215C311.059 236.166 311.14 236.095 311.198 236.006C311.281 235.931 311.344 235.844 311.384 235.744C311.472 235.609 311.52 235.463 311.538 235.302C311.539 235.203 311.54 235.103 311.536 235.003C311.513 234.908 311.485 234.811 311.463 234.716L311.468 234.718Z" fill="#3BD2FF"/>
<path d="M310.027 239.265C309.954 239.073 309.838 238.918 309.673 238.799C309.514 238.682 309.333 238.619 309.133 238.6C308.932 238.609 308.831 238.613 308.837 238.61C308.623 238.642 308.434 238.726 308.257 238.858C308.083 238.985 307.952 239.152 307.858 239.347C307.771 239.532 307.734 239.72 307.748 239.923C307.762 240.126 307.832 240.307 307.951 240.468C308.071 240.63 308.227 240.741 308.417 240.812C308.483 240.831 308.55 240.85 308.614 240.857C308.531 240.856 308.525 240.859 308.606 240.866L308.626 240.872L308.66 240.87C308.745 240.884 308.829 240.88 308.914 240.871C308.924 240.874 308.941 240.874 308.953 240.871C308.968 240.876 308.986 240.87 309.003 240.869C309.217 240.836 309.407 240.753 309.583 240.621C309.758 240.494 309.889 240.326 309.983 240.132C310.055 239.998 310.085 239.852 310.084 239.702C310.105 239.553 310.09 239.411 310.03 239.272L310.025 239.271L310.027 239.265Z" fill="#3BD2FF"/>
<path d="M308.833 238.603C308.928 238.58 309.025 238.569 309.122 238.581C308.93 238.592 308.833 238.603 308.833 238.603Z" fill="#3BD2FF"/>
<path d="M313.886 238.092C313.842 237.897 313.757 237.729 313.622 237.585L313.392 237.403C313.219 237.31 313.039 237.264 312.848 237.275C312.837 237.272 312.827 237.269 312.821 237.273L312.648 237.279C312.498 237.28 312.358 237.323 312.227 237.396C312.084 237.449 311.96 237.535 311.854 237.654C311.738 237.77 311.65 237.905 311.601 238.057C311.527 238.197 311.49 238.346 311.494 238.508L311.52 238.803C311.563 238.998 311.648 239.166 311.784 239.31L312.014 239.492C312.185 239.59 312.371 239.633 312.573 239.624L312.763 239.618C312.913 239.616 313.052 239.573 313.184 239.5C313.326 239.447 313.45 239.361 313.556 239.242C313.672 239.126 313.761 238.991 313.81 238.839C313.883 238.7 313.92 238.55 313.917 238.389L313.891 238.094L313.886 238.092Z" fill="#3BD2FF"/>
<path d="M312.998 237.29L312.978 237.285C312.978 237.285 312.922 237.285 312.895 237.283C312.88 237.279 312.868 237.281 312.852 237.282L313.025 237.293L313 237.285L312.998 237.29Z" fill="#3BD2FF"/>
<path d="M237.659 216.792C236.133 216.847 236.171 219.031 237.707 218.979C239.243 218.926 239.189 216.738 237.659 216.792Z" fill="white"/>
<path d="M238.187 213.984C237.561 214.004 236.941 214.335 236.837 215.008C236.745 215.579 237.223 216.23 237.838 216.207C238.452 216.184 239.078 215.854 239.187 215.183C239.279 214.612 238.801 213.961 238.187 213.984Z" fill="white"/>
<path d="M244.829 213.249C243.377 213.297 243.838 215.647 245.229 215.597C246.62 215.548 246.22 213.199 244.829 213.249Z" fill="white"/>
<path d="M250.806 218.118C250.805 218.063 250.798 218.011 250.791 217.959L250.794 217.949L250.784 217.924C250.784 217.924 250.776 217.894 250.775 217.877C250.773 217.865 250.767 217.847 250.765 217.835C250.746 217.786 250.727 217.736 250.703 217.685C250.686 217.63 250.662 217.579 250.638 217.528L250.632 217.527L250.624 217.497L250.603 217.457L250.59 217.443C250.56 217.395 250.521 217.356 250.484 217.312C250.443 217.262 250.411 217.22 250.373 217.176C250.361 217.161 250.347 217.152 250.338 217.144C250.249 217.068 250.154 216.997 250.047 216.944C250.032 216.94 250.018 216.93 250.003 216.926C249.893 216.883 249.785 216.836 249.667 216.824C249.472 216.79 249.279 216.807 249.094 216.876C248.907 216.949 248.752 217.065 248.633 217.23L248.572 217.346L248.776 217.116C248.665 217.212 248.579 217.32 248.509 217.449C248.431 217.565 248.373 217.692 248.335 217.825C248.38 217.727 248.424 217.63 248.464 217.53C248.44 217.573 248.417 217.616 248.395 217.654C248.369 217.708 248.342 217.761 248.321 217.816C248.251 217.945 248.215 218.089 248.216 218.239L248.235 218.482C248.259 218.555 248.277 218.627 248.3 218.7C248.347 218.824 248.421 218.934 248.524 219.019C248.582 219.085 248.65 219.138 248.726 219.182C248.843 219.276 248.977 219.331 249.129 219.358L249.334 219.378C249.387 219.404 249.448 219.421 249.513 219.429L249.653 219.458C249.804 219.474 249.949 219.449 250.086 219.377L250.142 219.355L250.098 219.392L250.118 219.381L250.188 219.329L250.219 219.316L250.304 219.252C250.304 219.252 250.339 219.229 250.36 219.213C250.368 219.204 250.381 219.196 250.388 219.193C250.409 219.177 250.425 219.159 250.441 219.142L250.465 219.115L250.549 218.996C250.568 218.968 250.587 218.94 250.605 218.918L250.609 218.902L250.614 218.904C250.614 218.904 250.63 218.886 250.633 218.876L250.637 218.861C250.637 218.861 250.665 218.824 250.675 218.805C250.678 218.795 250.681 218.785 250.689 218.776C250.717 218.718 250.717 218.679 250.738 218.607C250.758 218.536 250.779 218.464 250.794 218.391C250.806 218.35 250.806 218.312 250.806 218.273L250.794 218.12L250.804 218.123L250.806 218.118Z" fill="white"/>
<path d="M253.097 219.344C253.003 219.345 252.886 219.35 252.815 219.363L253.148 219.342L253.097 219.344Z" fill="white"/>
<path d="M254.043 220.367C254.017 220.266 253.994 220.171 253.968 220.069C253.921 219.984 253.875 219.893 253.827 219.808C253.76 219.733 253.697 219.665 253.629 219.591C253.516 219.486 253.39 219.423 253.243 219.397C253.15 219.354 253.053 219.343 252.955 219.359L252.81 219.362L252.536 219.449C252.455 219.503 252.373 219.557 252.292 219.606C252.17 219.704 252.081 219.822 252.018 219.964C251.955 220.051 251.92 220.152 251.906 220.258C251.865 220.363 251.853 220.464 251.866 220.573C251.854 220.73 251.876 220.886 251.939 221.031C251.987 221.117 252.033 221.207 252.08 221.293C252.147 221.367 252.211 221.435 252.278 221.51C252.392 221.614 252.517 221.678 252.665 221.703C252.805 221.755 252.95 221.769 253.104 221.735L253.378 221.648L253.622 221.491C253.744 221.393 253.833 221.275 253.896 221.132C253.959 221.046 253.994 220.945 254.008 220.838C254.058 220.681 254.075 220.526 254.051 220.358L254.048 220.369L254.043 220.367Z" fill="white"/>
<path d="M253.069 221.742L253.093 221.737L253.103 221.74L253.059 221.739L253.069 221.742Z" fill="white"/>
<path d="M259.25 216.765L259.255 216.75C259.255 216.75 259.277 216.729 259.285 216.72C259.288 216.71 259.303 216.697 259.311 216.689L259.317 216.668C259.249 216.77 259.215 216.81 259.25 216.765Z" fill="white"/>
<path d="M259.566 216.186C259.624 216.042 259.651 215.89 259.636 215.731C259.634 215.581 259.598 215.438 259.525 215.306C259.475 215.17 259.393 215.053 259.278 214.953C259.193 214.902 259.115 214.846 259.03 214.794C258.85 214.709 258.657 214.687 258.463 214.709L258.385 214.731L258.411 214.716L258.127 214.779C257.986 214.827 257.869 214.909 257.771 215.02C257.727 215.057 257.687 215.101 257.647 215.144C257.616 215.174 257.603 215.22 257.581 215.258C257.427 215.391 257.311 215.546 257.241 215.731C257.172 215.915 257.155 216.11 257.193 216.303C257.217 216.454 257.279 216.582 257.38 216.694C257.454 216.82 257.559 216.917 257.694 216.988C257.87 217.089 258.062 217.149 258.266 217.152C258.485 217.16 258.692 217.114 258.89 217.021C259.07 216.934 259.216 216.81 259.339 216.652C259.381 216.581 259.422 216.516 259.464 216.445C259.51 216.364 259.545 216.28 259.571 216.188L259.566 216.186Z" fill="white"/>
<path d="M259.348 216.638C259.348 216.638 259.339 216.647 259.333 216.651L259.327 216.672L259.348 216.638Z" fill="white"/>
<path d="M256.783 212.984C256.728 212.791 256.62 212.627 256.471 212.491C256.448 212.473 256.427 212.451 256.403 212.438C256.393 212.435 256.384 212.427 256.38 212.421L256.368 212.406L256.355 212.391C256.272 212.334 256.188 212.282 256.104 212.225C255.972 212.165 255.836 212.138 255.695 212.13L255.37 212.126L255.051 212.195L254.773 212.336C254.64 212.414 254.537 212.523 254.46 212.656C254.394 212.731 254.348 212.817 254.33 212.917C254.282 213.009 254.266 213.104 254.275 213.206C254.258 213.306 254.268 213.403 254.301 213.501C254.325 213.651 254.387 213.78 254.486 213.897C254.544 213.985 254.613 214.071 254.699 214.14C254.738 214.179 254.775 214.223 254.813 214.261C254.902 214.359 255.005 214.443 255.133 214.497C255.315 214.576 255.506 214.604 255.707 214.578C255.866 214.563 256.007 214.515 256.137 214.43C256.288 214.363 256.41 214.265 256.518 214.141C256.659 213.977 256.757 213.789 256.807 213.577C256.852 213.38 256.849 213.18 256.793 212.987L256.783 212.984Z" fill="white"/>
<path d="M263.692 214.039C263.665 213.788 263.566 213.572 263.38 213.391C263.362 213.375 263.337 213.368 263.319 213.352C263.289 213.321 263.261 213.285 263.225 213.258C263.066 213.135 262.881 213.066 262.682 213.047C262.02 213.024 261.841 213.376 262.114 214.085C261.728 215.086 261.909 215.536 262.669 215.411C262.864 215.367 263.044 215.28 263.191 215.151C263.279 215.076 263.348 214.991 263.406 214.903C263.606 214.667 263.726 214.364 263.692 214.039Z" fill="white"/>
<path d="M268.515 219.153C268.482 219.055 268.443 218.961 268.41 218.863C268.345 218.723 268.256 218.609 268.138 218.52C268.071 218.445 267.993 218.39 267.901 218.364C267.773 218.288 267.635 218.249 267.48 218.249L267.187 218.286L266.921 218.404C266.79 218.477 266.688 218.58 266.608 218.707C266.508 218.822 266.442 218.958 266.403 219.113C266.555 219.565 266.714 220.015 266.867 220.468C266.697 220.115 266.53 219.768 266.36 219.416L266.385 219.251L266.381 219.267C266.385 219.213 266.393 219.165 266.403 219.113C266.393 219.165 266.389 219.219 266.38 219.272L266.331 219.385C266.275 219.579 266.265 219.77 266.302 219.968C266.336 220.061 266.367 220.147 266.401 220.24C266.499 220.418 266.631 220.555 266.809 220.65C266.937 220.725 267.076 220.76 267.224 220.764C267.372 220.789 267.519 220.776 267.662 220.723C267.818 220.679 267.955 220.608 268.068 220.502C268.204 220.414 268.315 220.296 268.395 220.153C268.5 219.979 268.561 219.786 268.57 219.578L268.507 219.162L268.51 219.152L268.515 219.153Z" fill="white"/>
<path d="M272.398 215.985C272.249 215.926 272.115 215.91 271.993 215.913C271.993 215.913 271.954 215.913 271.932 215.912C271.92 215.915 271.904 215.915 271.887 215.916C270.493 215.992 270.876 218.673 272.51 218.24L272.659 218.2C273.15 218.07 273.446 217.557 273.392 217.071C273.329 216.5 272.891 216.176 272.399 215.98L272.398 215.985Z" fill="white"/>
<path d="M293.583 280.843L293.592 280.774C293.686 279.828 292.898 279.104 292.114 278.791C291.065 278.38 289.803 278.732 288.774 278.327L290.252 280.31L290.261 280.24C290.377 279.101 289.261 278.25 288.241 278.18C278.235 277.509 268.278 276.305 258.276 275.642L259.731 276.274C258.634 275.202 258.132 273.671 257.466 272.291C256.463 270.212 255.464 268.139 254.448 266.068C252.581 262.237 250.682 258.42 248.725 254.635C244.652 246.766 240.288 239.046 235.425 231.636L235.601 233.185L235.776 232.439C235.925 231.802 235.846 230.922 235.29 230.469C194.431 197.205 154.513 162.784 115.612 127.244C104.681 117.255 93.8295 107.18 83.0588 97.0164C81.8838 95.9056 79.3888 96.5073 79.5424 98.4038L79.6171 99.2824L83.4392 98.3143L61.3221 67.9681L50.42 53.0112L45.1244 45.7432C43.6564 43.7246 42.2727 41.2379 40.4868 39.4987C38.6025 37.6594 35.8097 40.3436 37.5384 42.3208L62.2748 70.6079L74.4679 84.5519L80.3918 91.3252C82.041 93.2133 83.7725 94.3507 85.6657 95.9657C103.773 111.427 122.029 126.715 140.492 141.746C158.985 156.804 177.689 171.611 196.634 186.096C206.121 193.348 215.671 200.512 225.283 207.595C228.083 209.658 231.262 213.057 234.985 212.57C240.772 211.81 246.558 211.089 252.336 210.261C255.578 209.796 258.811 209.301 262.035 208.742C264.047 208.395 265.094 208.12 267.075 208.925C273.486 211.529 279.643 215.112 285.916 218.059C292.234 221.025 298.591 223.912 304.981 226.721C307.864 227.989 310.751 229.242 313.648 230.481C315.664 231.341 316.384 231.646 317.837 233.157L317.571 230.687C309.606 247.684 300.228 263.938 290.065 279.708L291.3 278.796L291.051 278.852C288.49 279.434 289.497 283.389 292.059 282.807C293.692 282.434 294.393 280.528 295.209 279.241C296.494 277.225 297.771 275.202 299.028 273.167C301.716 268.822 304.337 264.44 306.878 260.009C311.963 251.135 316.709 242.075 321.048 232.816C321.435 231.987 321.456 231.042 320.782 230.345C320.245 229.788 319.723 229.119 319.128 228.628C318.045 227.737 316.538 227.322 315.253 226.771C310.925 224.929 306.615 223.042 302.32 221.126C294.035 217.42 285.809 213.588 277.649 209.62C274.344 208.009 270.883 205.691 267.355 204.686C264.493 203.866 261.847 204.668 258.961 205.146C250.339 206.576 241.657 207.601 232.998 208.754L234.568 208.988C228.791 205.796 223.609 201.337 218.323 197.395C211.359 192.204 204.436 186.97 197.541 181.694C183.974 171.31 170.537 160.765 157.208 150.073C143.748 139.278 130.413 128.336 117.166 117.281C110.622 111.823 104.108 106.335 97.6075 100.824C94.2078 97.9421 90.8161 95.0518 87.431 92.1578C86.5245 91.3839 85.4733 90.7676 84.6143 90.0018C82.9911 88.5636 81.6305 86.5757 80.1973 84.9375L40.4824 39.514L37.534 42.3361C39.3323 44.0899 40.6919 46.5641 42.1723 48.5974L47.4679 55.8654L58.37 70.8222L79.8647 100.31C80.9088 101.743 83.8737 101.624 83.6868 99.3419L83.6121 98.4634L80.0958 99.8508C118.424 136.001 157.774 171.073 198.098 204.986C209.432 214.514 220.842 223.953 232.327 233.304L231.84 231.334C231.173 234.184 233.875 236.739 235.297 239.054C237.357 242.404 239.328 245.816 241.222 249.262C245.091 256.298 248.66 263.492 252.16 270.716C253.398 273.266 254.399 277.131 256.63 278.975C257.717 279.873 258.889 279.777 260.259 279.876C262.145 280.013 264.026 280.164 265.904 280.326C273.334 280.972 280.739 281.782 288.184 282.278L286.164 280.217L286.156 280.286C286.062 281.233 286.85 281.956 287.634 282.269C288.683 282.68 289.945 282.328 290.974 282.734L289.496 280.751L289.487 280.82C289.227 283.428 293.304 283.462 293.567 280.861L293.583 280.843Z" fill="black"/>
<path d="M232.073 232.49C251.055 248.39 270.503 263.726 289.486 279.625C291.195 281.055 293.735 278.653 292.014 277.208C273.032 261.309 253.584 245.973 234.601 230.073C232.892 228.643 230.352 231.046 232.073 232.49Z" fill="black"/>
<path d="M268.249 228.29C257.716 240.487 273.024 258.287 287.071 254.153C293.713 252.201 299.023 246.057 299.328 239.044C299.624 232.238 294.915 225.586 288.483 223.445C281.188 221.013 273.123 223.05 268.07 228.759C266.589 230.436 268.998 232.973 270.487 231.287C274.748 226.469 281.325 224.686 287.521 226.803C294.598 229.223 297.944 237.929 294.198 244.388C290.515 250.738 282.617 253.06 276.131 249.599C269.78 246.209 265.291 237.032 270.66 230.817C272.124 229.124 269.715 226.587 268.243 228.289L268.249 228.29Z" fill="black"/>
<path d="M280.357 238.012L280.078 239.238C279.906 239.99 280.167 240.8 280.845 241.21C281.977 241.894 283.471 242.007 284.627 241.292C285.909 240.504 286.404 238.893 285.856 237.502C285.279 236.043 283.585 235.315 282.156 236.056C280.727 236.797 280.209 238.335 280.898 239.716C281.21 240.342 281.968 240.669 282.633 240.589C283.252 240.512 284 240.024 284.106 239.346L284.31 238.033C284.452 237.134 284.11 236.107 283.111 235.87C282.283 235.672 281.098 236.101 280.947 237.07L280.743 238.383L283.951 238.013C284.144 238.4 284.068 238.705 283.876 239.048C283.771 239.162 283.777 239.163 283.88 239.054L283.698 239.185C283.888 239.063 283.679 239.196 283.589 239.22C283.2 239.324 282.792 239.125 282.603 238.783C282.712 238.98 282.616 238.775 282.581 238.683C282.678 238.981 282.595 238.443 282.587 238.645C282.578 238.87 282.679 238.323 282.611 238.542C282.545 238.733 282.857 238.203 282.636 238.494C282.717 238.384 282.85 238.284 282.674 238.416C282.73 238.377 283.109 238.192 282.935 238.259C282.879 238.281 282.619 238.301 282.837 238.291C283.094 238.282 282.715 238.273 282.661 238.269C282.815 238.274 282.912 238.34 282.731 238.256C282.319 238.055 283.068 238.452 282.676 238.218L283.444 240.191L283.723 238.965C283.927 238.078 283.475 237.031 282.523 236.802C281.642 236.594 280.578 237.047 280.36 238.002L280.357 238.012Z" fill="black"/>
<path d="M263.937 246.532C265.773 251.029 269.614 254.59 274.164 256.258C275.449 256.731 276.793 257.039 278.157 257.18C278.528 257.22 278.535 256.636 278.164 256.596C273.502 256.096 269.145 253.488 266.387 249.717C265.604 248.647 264.955 247.476 264.449 246.248C264.305 245.902 263.797 246.188 263.937 246.532Z" fill="black"/>
<path d="M340.445 320.007C345.823 315.863 350.239 310.253 353.15 304.125C354.266 301.773 350.794 299.628 349.667 301.999C346.882 307.86 342.773 313.092 337.628 317.06C335.548 318.665 338.386 321.596 340.45 320.009L340.445 320.007Z" fill="black"/>
<path d="M292.988 279.274C305.227 290.836 317.627 302.224 330.837 312.676L330.492 309.459C326.63 313.733 322.663 317.928 319.429 322.715C315.102 329.113 311.109 336.779 309.228 344.275C308.646 346.597 311.579 347.708 312.932 345.9C316.755 340.779 320.714 335.741 325.21 331.184C329.424 326.916 334.064 323.749 339.006 320.436L336.954 320.396C338.79 321.651 340.644 322.863 342.386 324.235L342.041 321.017C337.463 324.451 333.61 328.789 330.273 333.413C328.505 335.86 326.897 338.424 325.514 341.109C324.956 342.188 324.441 343.29 323.967 344.404C323.683 345.069 323.363 345.763 323.142 346.457C322.983 346.97 322.997 347.135 323.021 347.108L325.843 350.057C332.775 342.055 340.731 334.667 350.602 330.515L348.551 330.475C349.787 331.277 351.246 332.69 352.789 332.651C355.44 332.586 358.461 330.725 360.423 329.069C363.944 326.101 366.536 321.762 368.076 317.486C368.302 316.853 368.084 315.972 367.59 315.516C366.144 314.173 364.785 312.932 363.107 311.898L364.006 314.202C368.029 304.924 375.269 297.856 382.324 290.869C383.953 289.256 381.98 286.451 379.923 287.609C375.103 290.326 370.323 293.111 365.878 296.411C361.897 299.363 357.404 302.904 354.641 307.068L357.859 306.723C355.801 304.834 353.352 303.497 351.398 301.494L351.664 303.965C355.509 298.922 359.639 294.115 364.06 289.569C366.104 287.473 368.211 285.427 370.365 283.445C372.135 281.823 373.934 279.772 376.121 278.756L374.141 275.186C363.384 280.229 352.469 285.398 344.007 293.935L346.892 293.999C333.25 282.78 319.984 271.112 306.336 259.892C304.331 258.245 301.361 261.044 303.388 262.714C317.031 273.932 330.296 285.601 343.944 296.821C344.776 297.507 345.981 297.741 346.829 296.884C355.044 288.591 365.679 283.646 376.123 278.751C378.506 277.631 376.514 274.085 374.142 275.181C372.019 276.166 370.354 277.945 368.63 279.503C366.089 281.789 363.623 284.163 361.241 286.611C356.571 291.406 352.235 296.507 348.179 301.827C347.645 302.531 347.863 303.7 348.444 304.298C350.415 306.317 352.841 307.636 354.904 309.527C355.894 310.435 357.357 310.329 358.122 309.182C360.684 305.315 365.091 301.976 368.802 299.273C372.955 296.242 377.432 293.681 381.903 291.163L379.502 287.903C371.873 295.463 364.422 303.056 360.079 313.066C359.725 313.877 360.289 314.94 360.979 315.37C362.35 316.221 363.449 317.228 364.639 318.326L364.152 316.356C362.141 321.952 358.084 327.31 352.034 328.663L353.604 328.897C352.332 328.068 350.725 326.474 349.103 326.751C347.481 327.027 345.709 328.234 344.354 328.968C342.692 329.864 341.082 330.852 339.526 331.921C333.326 336.173 327.931 341.436 323.016 347.107C321.322 349.066 324.027 351.997 325.838 350.055C327.265 348.529 327.711 345.814 328.637 343.933C329.902 341.37 331.395 338.917 333.025 336.568C336.313 331.825 340.224 327.437 344.858 323.964C346.028 323.083 345.419 321.465 344.513 320.747C342.768 319.367 340.914 318.156 339.082 316.907C338.527 316.527 337.599 316.483 337.03 316.867C331.789 320.376 326.864 323.71 322.394 328.231C317.651 333.034 313.485 338.371 309.455 343.771L313.16 345.396C316.387 332.544 324.637 322.022 333.326 312.405C334.289 311.337 334.057 310.043 332.981 309.187C320.051 298.953 307.933 287.762 295.955 276.446C294.048 274.644 291.096 277.46 293.006 279.268L292.988 279.274Z" fill="black"/>
<path d="M326.985 305.197C332.011 301.897 335.666 297.381 337.875 291.792C338.839 289.353 334.914 288.245 333.955 290.669C332.169 295.185 329.062 298.968 325.004 301.627C322.819 303.058 324.785 306.641 326.985 305.197Z" fill="black"/>
<path d="M312.452 293.823C318.297 289.884 322.61 284.556 325.284 278.038C326.277 275.613 322.346 274.509 321.364 276.916C319.139 282.35 315.342 286.975 310.476 290.255C308.311 291.714 310.273 295.29 312.457 293.825L312.452 293.823Z" fill="black"/>
<path d="M301.339 282.362C306.278 278.556 309.866 273.578 312.133 267.785C313.087 265.343 309.157 264.234 308.213 266.662C306.215 271.786 302.866 276.064 298.522 279.415C296.442 281.02 299.28 283.951 301.344 282.363L301.339 282.362Z" fill="black"/>
</svg>
