<svg width="400" height="400" viewBox="0 0 400 400" fill="none" xmlns="http://www.w3.org/2000/svg">
<path d="M94.5949 133.75C94.5949 133.75 75.8722 130.938 61.6968 144.274C47.5213 157.609 43.7724 168.654 43.7724 168.654C43.7724 168.654 50.779 159.714 61.6441 154.183C75.8988 146.923 102.828 153.173 102.828 153.173L94.5949 133.75Z" fill="#35383A" stroke="black" stroke-width="4" stroke-linecap="round" stroke-linejoin="round"/>
<path d="M43.7724 168.654C43.7724 168.654 58.6737 141.104 84.7134 136.865L80.2466 133.607C80.2466 133.607 55.6908 139.855 43.7743 168.648L43.7724 168.654Z" fill="white"/>
<path d="M94.5949 133.75C94.5949 133.75 75.8722 130.938 61.6968 144.274C47.5213 157.609 43.7724 168.654 43.7724 168.654C43.7724 168.654 50.779 159.714 61.6441 154.183C75.8988 146.923 102.828 153.173 102.828 153.173L94.5949 133.75Z" stroke="black" stroke-width="4" stroke-linecap="round" stroke-linejoin="round"/>
<path d="M104.748 121.291C104.748 121.291 98.2076 103.526 108.395 86.9421C118.583 70.358 128.646 64.4613 128.646 64.4613C128.646 64.4613 123.473 70.136 119.1 84.3302C113.383 102.89 125.434 125.424 125.434 125.424L104.748 121.291Z" fill="#35383A" stroke="black" stroke-width="4" stroke-linecap="round" stroke-linejoin="round"/>
<path d="M105.696 111.269C105.696 111.269 106.219 87.2526 126.635 66.218L119.855 71.3946L110.181 83.3551L103.837 96.375L102.022 108.999L105.702 111.271L105.696 111.269Z" fill="white"/>
<path d="M104.748 121.291C104.748 121.291 98.2076 103.526 108.395 86.9421C118.583 70.358 128.646 64.4613 128.646 64.4613C128.646 64.4613 123.473 70.136 119.1 84.3302C113.383 102.89 125.434 125.424 125.434 125.424L104.748 121.291Z" stroke="black" stroke-width="4" stroke-linecap="round" stroke-linejoin="round"/>
<path d="M94.9772 128.537C93.5733 128.221 38.6719 105.346 38.6719 105.346L103.762 148.97L94.9694 128.541L94.9772 128.537Z" fill="#35383A" stroke="black" stroke-width="4" stroke-linecap="round" stroke-linejoin="round"/>
<path d="M99.7144 122.717C99.1213 121.408 65.6143 72.2744 65.6143 72.2744L121.502 127.194L99.7144 122.717Z" fill="#35383A" stroke="black" stroke-width="4" stroke-linecap="round" stroke-linejoin="round"/>
<path d="M38.6736 105.34L87.6194 131.192L78.5389 121.698L38.6736 105.34Z" fill="white"/>
<path d="M97.1874 111.499L67.3984 74.8745L88.9542 107.408L97.1874 111.499Z" fill="white"/>
<path d="M94.9772 128.537C93.5733 128.221 38.6719 105.346 38.6719 105.346L103.762 148.97L94.9694 128.541L94.9772 128.537Z" stroke="black" stroke-width="4" stroke-linecap="round" stroke-linejoin="round"/>
<path d="M99.7144 122.717C99.1213 121.408 65.6143 72.2744 65.6143 72.2744L121.502 127.194L99.7144 122.717Z" stroke="black" stroke-width="4" stroke-linecap="round" stroke-linejoin="round"/>
<path d="M105.024 150.817L45.8972 83.5796L122.446 126.03L105.024 150.817Z" fill="#35383A" stroke="black" stroke-width="4" stroke-linecap="round" stroke-linejoin="round"/>
<path d="M45.8972 83.5796L104.488 133.895L107.767 129.728L45.8972 83.5796Z" fill="white"/>
<path d="M105.024 150.817L45.8972 83.5796L122.446 126.03L105.024 150.817Z" stroke="black" stroke-width="4" stroke-linecap="round" stroke-linejoin="round"/>
<path d="M305.751 321.096L296.317 350.724L322.879 334.628L305.751 321.096Z" fill="#9DA3A8" stroke="black" stroke-width="4" stroke-linecap="round" stroke-linejoin="round"/>
<path d="M310.039 326.492L295.323 352.088L305.7 322.773L310.039 326.492Z" fill="white"/>
<path d="M297.493 349.262L317.539 331.6L321.235 335.825L297.493 349.262Z" fill="#74797C"/>
<path d="M305.751 321.096L296.317 350.724L322.879 334.628L305.751 321.096Z" stroke="black" stroke-width="4" stroke-linecap="round" stroke-linejoin="round"/>
<path d="M330.931 290.186L358.041 274.948L347.653 304.221L330.931 290.186Z" fill="#9DA3A8" stroke="black" stroke-width="4" stroke-linecap="round" stroke-linejoin="round"/>
<path d="M357.138 275.045L343.207 297.843L348.007 300.751L357.138 275.045Z" fill="#74797C"/>
<path d="M336.438 293.247L358.041 274.948L330.931 290.186L336.438 293.247Z" fill="white"/>
<path d="M330.931 290.186L358.041 274.948L347.653 304.221L330.931 290.186Z" stroke="black" stroke-width="4" stroke-linecap="round" stroke-linejoin="round"/>
<path d="M347.016 328.859C357.033 316.558 355.853 308.966 354.638 307.974C352.642 306.349 327.053 285.507 324.395 283.339C321.737 281.171 313.978 278.168 302.338 292.46C290.698 306.752 295.208 313.742 297.866 315.91C300.524 318.078 326.118 338.922 328.109 340.545C329.33 341.54 337.007 341.156 347.022 328.861L347.016 328.859Z" fill="#9DA3A8" stroke="black" stroke-width="4" stroke-linecap="round" stroke-linejoin="round"/>
<path d="M305.089 291.511C298.211 300.681 291.97 308.179 294.363 310.894C298.554 315.653 307.295 310 314.173 300.83C321.051 291.66 324.333 282.654 318.289 280.731C314.74 279.602 311.967 282.341 305.089 291.511Z" fill="white"/>
<path d="M319.028 291.713C319.028 291.713 320.377 288.742 320.396 286.306" stroke="black" stroke-width="3" stroke-linecap="round" stroke-linejoin="round"/>
<path d="M336.945 338.772L302.79 309.993L306.473 306.606L341.22 335.573L336.945 338.772Z" fill="white"/>
<path d="M342.564 333.395L308.409 304.617L309.767 303.42L344.903 332.185L342.564 333.395Z" fill="white"/>
<path d="M347.016 328.859C357.033 316.558 355.853 308.966 354.638 307.974C352.642 306.349 327.053 285.507 324.395 283.339C321.737 281.171 313.978 278.168 302.338 292.46C290.698 306.752 295.208 313.742 297.866 315.91C300.524 318.078 326.118 338.922 328.109 340.545C329.33 341.54 337.007 341.156 347.022 328.861L347.016 328.859Z" stroke="black" stroke-width="4" stroke-linecap="round" stroke-linejoin="round"/>
<path d="M336.571 319.979C340.963 314.587 340.059 306.579 334.552 302.094C329.045 297.609 321.02 298.345 316.629 303.738C312.237 309.13 313.141 317.138 318.647 321.623C324.154 326.108 332.179 325.372 336.571 319.979Z" fill="#9DA3A8" stroke="black" stroke-width="3" stroke-linecap="round" stroke-linejoin="round"/>
<path d="M318.486 292.27C318.486 292.27 261.724 245.565 253.246 238.66C244.768 231.755 238.778 233.509 235.255 237.827C231.738 242.146 231.234 248.375 239.706 255.278C248.184 262.183 304.947 308.888 304.947 308.888C304.947 308.888 308.046 306.781 312.106 302.211C316.165 297.641 318.486 292.27 318.486 292.27Z" fill="#35383A" stroke="black" stroke-width="4" stroke-linecap="round" stroke-linejoin="round"/>
<path d="M241.456 256.694C241.456 256.694 250.898 250.704 254.656 240.489" stroke="#72787C" stroke-width="2" stroke-linecap="round" stroke-linejoin="round"/>
<path d="M250.524 264.08C250.524 264.08 259.965 258.09 263.724 247.875" stroke="#72787C" stroke-width="2" stroke-linecap="round" stroke-linejoin="round"/>
<path d="M259.839 271.669C259.839 271.669 269.281 265.678 273.039 255.463" stroke="#72787C" stroke-width="2" stroke-linecap="round" stroke-linejoin="round"/>
<path d="M268.855 279.012C268.855 279.012 278.296 273.021 282.055 262.806" stroke="#72787C" stroke-width="2" stroke-linecap="round" stroke-linejoin="round"/>
<path d="M278.78 287.1C278.78 287.1 288.221 281.11 291.98 270.895" stroke="#72787C" stroke-width="2" stroke-linecap="round" stroke-linejoin="round"/>
<path d="M288.002 294.613C288.002 294.613 297.444 288.623 301.202 278.408" stroke="#72787C" stroke-width="2" stroke-linecap="round" stroke-linejoin="round"/>
<path d="M297.922 302.329C297.922 302.329 307.363 296.338 311.122 286.123" stroke="#72787C" stroke-width="2" stroke-linecap="round" stroke-linejoin="round"/>
<path d="M245.668 235.024C245.668 235.024 245.732 242.664 235.122 248.824L232.254 248.361L232.705 241.171L241.934 234.787L245.666 235.03L245.668 235.024Z" fill="white"/>
<path d="M304.941 309.375C304.941 309.375 301.612 311.383 299.232 311.903" stroke="black" stroke-width="3" stroke-linecap="round" stroke-linejoin="round"/>
<path d="M337.383 306.346C337.383 306.346 348.505 322.911 343.666 327.884C338.827 332.857 319.258 322.964 318.651 321.677C318.045 320.39 337.377 306.344 337.377 306.344L337.383 306.346Z" fill="#74797C"/>
<path d="M318.486 292.27C318.486 292.27 261.724 245.565 253.246 238.66C244.768 231.755 238.778 233.509 235.255 237.827C231.738 242.146 231.234 248.375 239.706 255.278C248.184 262.183 304.947 308.888 304.947 308.888C304.947 308.888 308.046 306.781 312.106 302.211C316.165 297.641 318.486 292.27 318.486 292.27Z" stroke="black" stroke-width="4" stroke-linecap="round" stroke-linejoin="round"/>
<path d="M336.571 319.979C340.963 314.587 340.059 306.579 334.552 302.094C329.045 297.609 321.02 298.345 316.629 303.738C312.237 309.13 313.141 317.138 318.647 321.623C324.154 326.108 332.179 325.372 336.571 319.979Z" fill="#9DA3A8" stroke="black" stroke-width="3" stroke-linecap="round" stroke-linejoin="round"/>
<path d="M337.382 306.346L326.239 311.665L320.983 323.455C320.983 323.455 330.626 327.558 336.895 320.526C343.012 313.667 337.386 306.354 337.386 306.354L337.382 306.346Z" fill="#74797C"/>
<path d="M314.119 310.355L325.646 311.71L316.638 303.79L314.119 310.355Z" fill="white"/>
<path d="M336.571 319.979C340.963 314.587 340.059 306.579 334.552 302.094C329.045 297.609 321.02 298.345 316.629 303.738C312.237 309.13 313.141 317.138 318.647 321.623C324.154 326.108 332.179 325.372 336.571 319.979Z" stroke="black" stroke-width="3" stroke-linecap="round" stroke-linejoin="round"/>
<path d="M220.443 217.28L241.934 234.787C241.934 234.787 243.588 235.769 239.347 240.972C235.104 246.18 233.631 244.976 233.631 244.976L211.586 227.019L220.443 217.28Z" fill="#9DA3A8" stroke="black" stroke-width="4" stroke-linecap="round" stroke-linejoin="round"/>
<path d="M228.28 234.344L237.075 241.213L236.213 243.225L226.229 235.404L228.28 234.344Z" fill="white"/>
<path d="M232.962 227.529C232.962 227.529 231.047 233.036 224.467 237.852L216.089 231.351L224.722 220.778L232.966 227.537L232.962 227.529Z" fill="#70767A"/>
<path d="M220.443 217.28L241.934 234.787C241.934 234.787 243.588 235.769 239.347 240.972C235.104 246.18 233.631 244.976 233.631 244.976L211.586 227.019L220.443 217.28Z" stroke="black" stroke-width="4" stroke-linecap="round" stroke-linejoin="round"/>
<path d="M220.276 225.623C207.418 241.409 199.591 238.352 199.591 238.352C199.591 238.352 203.767 224.062 180.668 205.243C157.567 186.43 160.227 188.592 160.227 188.592L170.703 173.35C170.703 173.35 181.839 182.423 191.808 190.538C213.077 207.863 228.588 203.081 228.588 203.081C228.588 203.081 232.594 210.491 220.278 225.617L220.276 225.623Z" fill="#35383A" stroke="black" stroke-width="4" stroke-linecap="round" stroke-linejoin="round"/>
<path d="M204.563 237.935C204.563 237.935 205.611 227.007 193.375 212.895C189.53 208.461 161.958 186.811 161.958 186.811" stroke="#72787C" stroke-width="2" stroke-linecap="round" stroke-linejoin="round"/>
<path d="M211.251 234.54C211.251 234.54 208.312 224.291 195.3 210.531C191.271 206.266 163.883 184.447 163.883 184.447" stroke="#72787C" stroke-width="2" stroke-linecap="round" stroke-linejoin="round"/>
<path d="M229.083 207.831C229.083 207.831 218.035 211.747 201.744 202.623C196.625 199.756 169.846 177.129 169.846 177.129" stroke="#72787C" stroke-width="2" stroke-linecap="round" stroke-linejoin="round"/>
<path d="M226.557 215.748C226.557 215.748 215.923 214.944 199.815 204.979C194.825 201.893 167.918 179.485 167.918 179.485" stroke="#72787C" stroke-width="2" stroke-linecap="round" stroke-linejoin="round"/>
<path d="M165.168 181.515L219.894 226.087" stroke="#72787C" stroke-width="2" stroke-linecap="round" stroke-linejoin="round"/>
<path d="M220.276 225.623C207.418 241.409 199.591 238.352 199.591 238.352C199.591 238.352 203.767 224.062 180.668 205.243C157.567 186.43 160.227 188.592 160.227 188.592L170.703 173.35C170.703 173.35 181.839 182.423 191.808 190.538C213.077 207.863 228.588 203.081 228.588 203.081C228.588 203.081 232.594 210.491 220.278 225.617L220.276 225.623Z" stroke="black" stroke-width="4" stroke-linecap="round" stroke-linejoin="round"/>
<path d="M191.565 214.227C191.565 214.227 206.671 228.282 204.563 237.935L199.591 238.352C199.591 238.352 200.38 227.583 191.565 214.227Z" fill="white"/>
<path d="M204.581 199.846C204.581 199.846 220.699 211.09 229.196 207.046L228.343 204.424C228.343 204.424 218.785 207.218 204.581 199.846Z" fill="white"/>
<path d="M220.276 225.623C207.418 241.409 199.591 238.352 199.591 238.352C199.591 238.352 203.767 224.062 180.668 205.243C157.567 186.43 160.227 188.592 160.227 188.592L170.703 173.35C170.703 173.35 181.839 182.423 191.808 190.538C213.077 207.863 228.588 203.081 228.588 203.081C228.588 203.081 232.594 210.491 220.278 225.617L220.276 225.623Z" stroke="black" stroke-width="4" stroke-linecap="round" stroke-linejoin="round"/>
<path d="M159.719 151.97L179.801 140.684L172.107 162.367L159.719 151.97Z" fill="#9DA3A8" stroke="black" stroke-width="4" stroke-linecap="round" stroke-linejoin="round"/>
<path d="M170.106 156.663L179.989 140.093L173.243 159.862L170.106 156.663Z" fill="#74797C"/>
<path d="M165.242 153.773L176.131 144.277L179.801 140.684L169.956 146.754L162.27 150.177L165.242 153.773Z" fill="white"/>
<path d="M159.719 151.97L179.801 140.684L172.107 162.367L159.719 151.97Z" stroke="black" stroke-width="4" stroke-linecap="round" stroke-linejoin="round"/>
<path d="M135.83 181.298L128.839 203.25L148.518 191.327L135.83 181.298Z" fill="#9DA3A8" stroke="black" stroke-width="4" stroke-linecap="round" stroke-linejoin="round"/>
<path d="M138.824 186.074L128.839 203.25L134.991 184.04L138.824 186.074Z" fill="white"/>
<path d="M142.286 189.422L128.971 203.39L146.208 191.589L142.286 189.422Z" fill="#74797C"/>
<path d="M135.83 181.298L128.839 203.25L148.518 191.327L135.83 181.298Z" stroke="black" stroke-width="4" stroke-linecap="round" stroke-linejoin="round"/>
<path d="M170.526 185.102C180.543 172.801 179.363 165.21 178.148 164.217C176.152 162.592 157.939 147.757 155.282 145.589C153.445 144.093 148.402 143.302 136.762 157.594C125.122 171.886 127.355 177.026 128.747 178.159C131.404 180.327 149.622 195.163 151.613 196.787C152.834 197.781 160.511 197.397 170.526 185.102Z" fill="#9DA3A8" stroke="black" stroke-width="4" stroke-linecap="round" stroke-linejoin="round"/>
<path d="M133.91 174.213L159.723 195.557L163.286 192.815L138.28 172.784L133.91 174.213Z" fill="white"/>
<path d="M139.795 167.365L166.481 188.791L164.303 190.416L139.141 170.322L139.795 167.365Z" fill="white"/>
<path d="M153.9 144.407C158.981 142.767 147.421 172.957 128.441 177.338L126.237 174.032L136.762 157.594L149.495 145.376C149.495 145.376 150.378 145.546 153.9 144.407Z" fill="white"/>
<path d="M163.465 179.402C166.391 175.808 165.79 170.474 162.123 167.487C158.455 164.5 153.109 164.991 150.183 168.585C147.256 172.178 147.857 177.512 151.525 180.499C155.193 183.487 160.538 182.995 163.465 179.402Z" fill="#9DA3A8" stroke="black" stroke-width="4" stroke-linecap="round" stroke-linejoin="round"/>
<path d="M170.526 185.102C180.543 172.801 179.363 165.21 178.148 164.217C176.152 162.592 157.939 147.757 155.282 145.589C153.445 144.093 148.402 143.302 136.762 157.594C125.122 171.886 127.355 177.026 128.747 178.159C131.404 180.327 149.622 195.163 151.613 196.787C152.834 197.781 160.511 197.397 170.526 185.102Z" stroke="black" stroke-width="4" stroke-linecap="round" stroke-linejoin="round"/>
<path d="M105.79 158.356L41.2642 138.137L120.344 144.222L111.197 160.545L105.79 158.356Z" fill="#35383A" stroke="black" stroke-width="4" stroke-linecap="round" stroke-linejoin="round"/>
<path d="M100.063 152.019L41.2645 138.137L91.0262 153.912L100.063 152.019Z" fill="#202223"/>
<path d="M131.108 127.281L98.2537 68.175L120.213 144.389L134.347 132.128L131.108 127.281Z" fill="#35383A" stroke="black" stroke-width="4" stroke-linecap="round" stroke-linejoin="round"/>
<path d="M41.2645 138.137L112.508 148.646L105.803 143.21L41.2645 138.137Z" fill="white"/>
<path d="M105.79 158.356L41.2642 138.137L120.344 144.222L111.197 160.545L105.79 158.356Z" stroke="black" stroke-width="4" stroke-linecap="round" stroke-linejoin="round"/>
<path d="M124.307 154.634C124.307 154.634 102.422 146.205 77.3049 158.371C52.1884 170.537 51.3146 197.744 51.3146 197.744C51.3146 197.744 60.3385 181.317 73.5077 174.911C94.1154 164.879 119.414 169.458 134.778 173.675C134.778 173.675 138.337 172.704 142.627 168.455C145.063 166.038 124.307 154.634 124.307 154.634Z" fill="#35383A" stroke="black" stroke-width="4" stroke-linecap="round" stroke-linejoin="round"/>
<path d="M123.379 135.237L96.2625 63.5427L116.351 130.799L123.379 135.237Z" fill="white"/>
<path d="M98.2535 68.1751C98.0906 68.0321 125.404 127.524 125.404 127.524L123.741 113.344L98.2535 68.1751Z" fill="#202223"/>
<path d="M131.108 127.281L98.2537 68.175L120.213 144.389L134.347 132.128L131.108 127.281Z" stroke="black" stroke-width="4" stroke-linecap="round" stroke-linejoin="round"/>
<path d="M132.431 166.722C132.431 166.722 110.537 159.918 93.1169 163.494C75.6967 167.069 58.042 177.747 51.3145 197.744L66.8252 178.575L88.493 169.838L101.827 168.87L124.758 171.249L138.854 171.735L132.431 166.722Z" fill="#202223"/>
<path d="M131.77 145.468C131.77 145.468 119.088 125.736 125.923 98.6871C132.755 71.6302 159.222 65.2674 159.222 65.2674C159.222 65.2674 144.96 77.4222 141.347 91.6237C135.694 113.832 145.291 137.688 152.532 151.879C152.532 151.879 152.3 155.556 149.008 160.618C147.136 163.494 131.77 145.468 131.77 145.468Z" fill="#35383A" stroke="black" stroke-width="4" stroke-linecap="round" stroke-linejoin="round"/>
<path d="M135.458 145.052C135.458 145.052 126.987 122.629 129.221 105.292C130.995 91.5281 137.695 74.6286 159.228 65.2694C159.228 65.2694 145.288 69.2485 138.383 76.5604C131.477 83.8723 124.8 96.7732 123.747 113.346C122.694 129.919 127.986 140.369 127.986 140.369L135.464 145.054L135.458 145.052Z" fill="white"/>
<path d="M146.581 152.649C146.581 152.649 134.973 132.881 134.488 115.103C134.004 97.3242 140.383 77.7048 158.328 66.6046L143.192 86.0691L139.616 109.16L141.707 122.363L149.24 144.149L151.34 156.606L146.581 152.649Z" fill="#202223"/>
<path d="M131.77 145.468C131.77 145.468 119.088 125.736 125.923 98.6871C132.755 71.6302 159.222 65.2674 159.222 65.2674C159.222 65.2674 144.96 77.4222 141.347 91.6237C135.694 113.832 145.291 137.688 152.532 151.879C152.532 151.879 152.3 155.556 149.008 160.618C147.136 163.494 131.77 145.468 131.77 145.468Z" stroke="black" stroke-width="4" stroke-linecap="round" stroke-linejoin="round"/>
<path d="M165.874 171.13C166.642 171.908 169.707 180.699 166.804 183.683C162.991 187.602 156.349 183.789 151.523 180.534C146.697 177.279 165.876 171.124 165.876 171.124L165.874 171.13Z" fill="#74797C"/>
<path d="M51.3146 197.744C51.3146 197.744 53.6527 176.989 74.0838 163.951C94.5149 150.912 121.907 157.14 121.907 157.14L116.202 152.023L97.5204 151.947L77.3049 158.371L65.0019 166.538L55.7665 178.267L52.0442 188.819L51.3164 197.738L51.3146 197.744Z" fill="white"/>
<path d="M124.307 154.634C124.307 154.634 102.422 146.205 77.3049 158.371C52.1884 170.537 51.3146 197.744 51.3146 197.744C51.3146 197.744 60.3385 181.317 73.5077 174.911C94.1154 164.879 119.414 169.458 134.778 173.675C134.778 173.675 138.337 172.704 142.627 168.455C145.063 166.038 124.307 154.634 124.307 154.634Z" stroke="black" stroke-width="4" stroke-linecap="round" stroke-linejoin="round"/>
<path d="M151.197 156.912C151.197 156.912 112.951 128.525 109.495 125.98C106.039 123.434 99.3519 122.14 96.9157 125.129C94.4796 128.119 97.4351 134.673 100.458 137.413C103.481 140.153 138.856 171.73 138.856 171.73C138.856 171.73 142.208 168.973 145.609 164.793C149.016 160.614 151.205 156.908 151.205 156.908L151.197 156.912Z" fill="#35383A" stroke="black" stroke-width="4" stroke-linecap="round" stroke-linejoin="round"/>
<path d="M163.468 170.605L156.756 173.81L153.591 180.912C153.591 180.912 159.445 183.452 163.463 179.442C167.481 175.432 163.474 170.607 163.474 170.607L163.468 170.605Z" fill="#74797C"/>
<path d="M100.456 137.419C100.456 137.419 95.8054 130.481 99.6766 126.503C103.548 122.524 109.493 125.985 109.493 125.985C109.493 125.985 101.381 121.515 96.9138 125.135C92.447 128.755 100.456 137.419 100.456 137.419Z" fill="white"/>
<path d="M148.792 172.742L156.857 174.005L150.18 168.624C150.18 168.624 148.998 169.349 148.792 172.742Z" fill="white"/>
<path d="M163.465 179.402C166.391 175.808 165.79 170.474 162.123 167.487C158.455 164.5 153.109 164.991 150.183 168.585C147.256 172.178 147.857 177.512 151.525 180.499C155.193 183.487 160.538 182.995 163.465 179.402Z" stroke="black" stroke-width="4" stroke-linecap="round" stroke-linejoin="round"/>
<path d="M156.427 174.845C156.998 175.027 157.609 174.711 157.791 174.139C157.973 173.568 157.657 172.957 157.085 172.775C156.514 172.593 155.903 172.909 155.721 173.481C155.539 174.052 155.855 174.663 156.427 174.845Z" fill="black"/>
<g style="mix-blend-mode:multiply">
<path d="M182.513 183.211C182.513 183.211 179.255 192.979 170.907 198.073L164.004 191.539C164.004 191.539 170.93 185.309 176.028 177.33L182.513 183.211Z" fill="#8D9499"/>
</g>
<path d="M151.197 156.912C151.197 156.912 112.951 128.525 109.495 125.98C106.039 123.434 99.3519 122.14 96.9157 125.129C94.4796 128.119 97.4351 134.673 100.458 137.413C103.481 140.153 138.856 171.729 138.856 171.729C138.856 171.729 142.208 168.973 145.609 164.793C149.016 160.614 151.205 156.908 151.205 156.908L151.197 156.912Z" stroke="black" stroke-width="4" stroke-linecap="round" stroke-linejoin="round"/>
<path d="M98.1171 127.309L110.134 136.519L100.053 125.32L98.1171 127.309Z" fill="white"/>
<path d="M105.983 125.884L112.037 137.457L99.483 133.866" stroke="black" stroke-width="4" stroke-linecap="round" stroke-linejoin="round"/>
<path d="M326.352 313.074C326.923 313.256 327.534 312.94 327.716 312.368C327.898 311.797 327.582 311.186 327.01 311.004C326.439 310.822 325.828 311.138 325.646 311.71C325.464 312.281 325.78 312.892 326.352 313.074Z" fill="black"/>
</svg>
