<svg width="400" height="400" viewBox="0 0 400 400" fill="none" xmlns="http://www.w3.org/2000/svg">
<path d="M177.18 107.49C171.845 113.788 162.893 135.83 162.893 135.83C162.893 135.83 165.449 160.663 176.365 179.878C187.293 199.092 194.962 208.773 194.962 208.773L243.319 188.077L254.013 186.694L277.5 173.938C277.5 173.938 264.793 145.042 265.843 145.931C266.893 146.82 274.253 129.038 274.253 129.038C274.253 129.038 271.375 123.877 266.658 114.455L256.866 97.1047C256.866 97.1047 252.235 95.4994 241.109 92.511C232.168 90.103 223.907 89.5844 223.907 89.5844C223.907 89.5844 215.609 89.1892 201.359 92.9803C187.108 96.7713 182.515 101.204 177.192 107.502L177.18 107.49Z" fill="#FFCA1B" stroke="black" stroke-width="5.55" stroke-linecap="round" stroke-linejoin="round"/>
<path d="M259.5 107.573L189 189.073L197 205.073L267.5 122.573L259.5 107.573Z" fill="#FFDD55"/>
<path d="M227 93.0726L167 160.573L180 186.573L252 99.0726L227 93.0726Z" fill="#D28F00"/>
<path d="M200.655 202.797C200.655 202.797 196.789 200.413 186.491 181.014C169.499 148.969 172.512 137.707 172.512 137.707C172.512 137.707 182.798 117.307 182.947 113.627C183.095 109.947 180.86 108.515 180.86 108.515C180.86 108.515 177.637 112.108 174.08 118.875C170.524 125.63 166.35 136.657 166.35 136.657C166.35 136.657 173.525 169.147 182.021 183.125C190.516 197.092 195.999 205.118 195.999 205.118L200.63 202.797H200.655Z" fill="#D28F00"/>
<path d="M217.486 159.379C217.486 159.379 217.251 160.206 216.844 161.577C215.004 167.628 209.583 184.36 204.359 188.904C197.95 194.474 194.567 192.473 192.974 189.843C191.381 187.213 190.245 168.048 190.245 168.048" fill="#D28F00"/>
<path d="M178.847 128.31C178.847 128.31 190.776 118.233 202.087 124.247C213.411 130.273 220.77 142.029 219.61 151.402C218.449 160.774 213.929 164.442 209.657 166.529C205.384 168.616 202.556 167.121 202.556 167.121L178.834 128.297H178.847V128.31Z" fill="#291D01"/>
<path d="M196.727 98.4506C196.727 98.4506 203.321 101.921 203.396 108.07C203.729 115.492 195.468 121.197 190.244 121.938C185.021 122.679 182.465 120.9 180.785 119.011C179.106 117.134 179.55 115.479 179.55 115.479L195.863 98.5123L196.715 98.4382L196.727 98.4506Z" fill="#291D01"/>
<path d="M184.403 182.051C184.403 182.051 187.071 175.679 192.751 175.111C199.58 174.21 205.519 181.372 206.618 186.138C207.73 190.905 206.285 193.412 204.68 195.116C203.074 196.82 201.519 196.536 201.519 196.536L184.539 182.841L184.403 182.063V182.051Z" fill="#291D01"/>
<path d="M258.199 130.384L265.88 145.944" stroke="black" stroke-width="4.75" stroke-linecap="round" stroke-linejoin="round"/>
<path d="M183.552 130.199C183.552 130.199 166.449 137.015 146.938 168.097C127.427 199.166 122.5 228.543 122.5 228.543C122.5 228.543 139.368 201.117 168.35 183.508C197.32 165.886 209.632 160.441 209.632 160.441C209.632 160.441 217.041 149.018 209.681 137.361C200.062 122.098 183.564 130.199 183.564 130.199H183.552Z" fill="#CA8A01" stroke="black" stroke-width="5.55" stroke-linecap="round" stroke-linejoin="round"/>
<path d="M193.406 131.533C192.603 131.088 175.612 144.758 159.682 164.973C143.74 185.187 132.342 204.772 132.342 204.772L130.65 212.058C130.65 212.058 153.508 176.716 167.462 163.306C181.416 149.895 203.754 136.04 203.754 136.04C203.754 136.04 202.001 133.373 199.358 132.311C196.716 131.249 193.418 131.533 193.418 131.533H193.406Z" fill="white"/>
<path d="M189.318 131.755C189.318 131.755 172.067 144.573 162.929 156.872C153.791 169.171 137.738 192.671 137.738 192.671C137.738 192.671 150.976 166.368 162.423 152.612C178.661 133.113 189.318 131.755 189.318 131.755Z" fill="#FCEFDF"/>
<path d="M206.15 137.806C206.15 137.806 206.211 138.09 206.248 138.596C206.409 140.597 206.31 146.203 200.79 152.377C193.875 160.108 183.379 163.17 168.906 173.321C154.434 183.484 143.159 196.141 139.516 200.216C135.874 204.291 132.206 210.366 132.206 210.366C132.206 210.366 140.838 196.919 158.039 186.138C175.253 175.37 180.18 172.567 191.393 166.269C202.606 159.972 207.249 158.391 207.249 158.391C207.249 158.391 210.546 152.55 209.459 146.672C208.372 140.794 206.137 137.806 206.137 137.806H206.15Z" fill="#986801"/>
<path d="M186.478 182.866C186.478 182.866 179.983 187.46 174.92 202.488C169.857 217.516 170.758 230.359 170.758 230.359C170.758 230.359 175.08 217.133 185.478 206.798C195.876 196.462 200.494 192.93 200.494 192.93C200.494 192.93 202.457 187.386 198.185 183.224C192.603 177.778 186.491 182.854 186.491 182.854L186.478 182.866Z" fill="#DAC19F" stroke="black" stroke-width="5.55" stroke-linecap="round" stroke-linejoin="round"/>
<path d="M186.096 183.199C186.096 183.199 179.822 187.447 174.858 201.821C169.894 216.195 170.66 228.63 170.66 228.63C170.66 228.63 174.895 215.973 184.947 206.291C194.999 196.61 199.457 193.338 199.457 193.338C199.457 193.338 201.371 188.04 197.308 183.903C191.986 178.482 186.083 183.199 186.083 183.199H186.096Z" fill="#CA8A01"/>
<path d="M191.01 181.52C190.64 181.409 185.441 186.373 179.872 196.721C174.994 206.291 171.351 215.824 171.351 215.824L170.722 220.665C170.722 220.665 178.316 203.278 182.972 196.635C187.627 189.991 195.728 182.446 195.728 182.446C195.728 182.446 194.764 181.52 193.567 181.322C192.369 181.125 191.023 181.52 191.023 181.52H191.01Z" fill="white"/>
<path d="M197.419 184.521C197.419 184.521 197.468 184.632 197.53 184.829C197.777 185.632 198.221 187.904 196.456 190.88C194.245 194.61 192.578 194.177 187.688 199.771C182.613 205.587 179.649 208.81 177.612 212.7C174.611 218.455 172.647 223.16 172.647 223.16C172.919 223.518 177.13 215.17 182.934 208.761C189.602 201.969 189.923 202.019 194.048 198.24C198.036 194.572 199.753 192.967 199.753 192.967C199.753 192.967 200.543 190.09 199.568 187.805C198.592 185.521 197.752 184.2 197.752 184.2L197.394 184.496L197.419 184.521Z" fill="#986801"/>
<path d="M192.307 99.8337C192.307 99.8337 185.466 95.7587 169.672 97.2529C153.878 98.7347 142.517 104.786 142.517 104.786C142.517 104.786 156.36 103.353 170.03 108.651C183.7 113.948 188.8 116.739 188.8 116.739C188.8 116.739 194.665 116.27 196.728 110.676C199.432 103.365 192.307 99.8337 192.307 99.8337Z" fill="#DAC19F" stroke="black" stroke-width="5.55" stroke-linecap="round" stroke-linejoin="round"/>
<path d="M191.85 99.5991C191.85 99.5991 185.416 95.5982 170.264 96.9071C155.113 98.2161 144.061 103.971 144.061 103.971C144.061 103.971 157.348 102.699 170.277 107.947C183.206 113.195 188.009 115.936 188.009 115.936C188.009 115.936 193.628 115.529 195.764 110.133C198.555 103.069 191.837 99.5991 191.837 99.5991H191.85Z" fill="#CA8A01"/>
<path d="M195.357 103.193C195.308 102.81 188.689 100.303 176.97 99.4261C166.239 98.8581 156.879 99.3398 156.879 99.3398L152.199 100.735C152.199 100.735 170.339 100.673 178.304 102.217C186.269 103.761 196.456 108.107 196.456 108.107C196.456 108.107 196.74 106.798 196.432 105.625C196.123 104.452 195.901 103.933 195.901 103.933L195.357 103.205V103.193Z" fill="white"/>
<path d="M195.826 109.923C195.826 109.923 195.184 110.589 195.023 110.725C194.393 111.269 192.492 112.615 189.059 112.207C184.749 111.713 184.477 109.997 177.377 107.811C170.005 105.539 166.868 104.786 162.509 104.181C155.075 103.156 149.914 103.773 149.914 103.773C149.704 104.168 159.015 104.427 167.226 107.132C176.142 110.466 176.229 110.775 181.353 113.01C186.33 115.171 188.491 116.085 188.491 116.085C188.491 116.085 191.677 115.714 193.368 113.899C195.06 112.084 195.69 110.701 195.69 110.701L195.851 109.923H195.826Z" fill="#986801"/>
<path d="M270.326 128.433L253.05 102.18C253.05 102.18 247.246 100.908 234.391 98.0556C225.018 95.9811 216.387 93.7954 217.906 93.3385C225.105 91.1651 254.667 99.3893 254.667 99.3893L270.313 128.433H270.326Z" fill="white"/>
<path d="M245.579 179.939L207.533 191.991C207.533 191.991 207.557 185.224 209.805 179.816C212.052 174.407 214.905 168.961 227.55 167.714C240.195 166.467 246.505 179.47 246.505 179.47L245.579 179.927V179.939Z" fill="#291D01"/>
<path d="M213.213 183.52C213.213 183.52 204.557 203.377 210.719 242.152C216.881 280.914 234.058 310.427 234.058 310.427C234.058 310.427 229.155 269.097 233.675 234.866C238.195 200.611 246.209 184.731 246.209 184.731C246.209 184.731 242.035 175.914 230.983 174.234C218.795 172.394 213.226 183.533 213.226 183.533L213.213 183.52Z" fill="#CA8A01" stroke="black" stroke-width="5.55" stroke-linecap="round" stroke-linejoin="round"/>
<path d="M222.709 178.766C222.709 178.766 216.325 205.958 217.165 228.358C218.004 250.759 222.623 275.654 222.623 275.654L228.55 291.756C228.55 291.756 223.475 252.092 223.376 229.371C223.277 206.649 231.291 177.926 231.291 177.926C231.291 177.926 229.217 176.778 226.932 177.408C224.487 178.099 222.709 178.779 222.709 178.779H222.697L222.709 178.766Z" fill="white"/>
<path d="M220.511 180.174C220.511 180.174 211.151 200.697 214.868 231.223C218.585 261.749 220.795 271.504 220.795 271.504C220.795 271.504 211.188 237.299 211.571 217.776C211.954 198.252 215.843 185.397 215.843 185.397L220.499 180.174H220.511Z" fill="#FCEFDF"/>
<path d="M237.787 180.125C237.639 180.73 228.748 199.438 227.822 229.136C226.908 258.847 228.637 286.953 228.637 286.953C228.637 286.953 228.254 240.781 232.329 220.542C236.416 200.315 242.406 186.756 242.406 186.756C242.406 186.756 242.677 185.113 241.109 183.088C239.232 180.643 237.775 180.112 237.775 180.112L237.787 180.125Z" fill="#986801"/>
<path d="M247.863 181.088L271.499 169.789L273.4 173.16L253.593 182.952L249.308 183.854L247.863 181.088Z" fill="#D28F00"/>
<path d="M193.307 100.562C193.307 100.562 190.985 98.2408 183.848 97.1911C176.71 96.1415 167.906 97.1665 167.906 97.1665C167.906 97.1665 179.921 97.6234 185.231 98.6236C190.541 99.6238 193.319 100.562 193.319 100.562H193.307Z" fill="#FCEFDF"/>
</svg>
