<svg width="400" height="400" viewBox="0 0 400 400" fill="none" xmlns="http://www.w3.org/2000/svg">
<path d="M187.188 69.8731C185.161 68.3648 182.946 67.507 180.524 67.507C161.114 67.507 156.948 81.3734 156.948 81.3734C156.948 81.3734 135.22 79.0639 131.525 100.783C127.829 122.511 136.144 147.001 142.158 155.324C148.162 163.648 155.562 170.577 155.562 170.577C155.562 170.577 150.019 177.505 152.791 183.981C155.562 190.457 170.814 199.233 170.814 199.233C170.814 199.233 214.261 214.023 224.894 220.961C235.527 227.899 260.017 238.061 260.017 238.061C260.017 238.061 270.651 234.828 269.265 221.885C267.879 208.943 256.784 195.538 256.784 195.538C256.784 195.538 254.937 168.267 256.784 156.248C258.632 144.229 260.017 141.92 259.094 138.687C258.17 135.453 247.537 131.287 247.537 131.287C247.537 131.287 256.737 108.861 246.754 80.7418C239.666 60.7482 221.19 69.8165 221.19 69.8165C221.19 69.8165 214.101 63.1708 201.3 63.4536C192.778 63.6327 187.179 69.8731 187.179 69.8731H187.188Z" fill="#D28F00" stroke="black" stroke-width="7.27" stroke-linecap="round" stroke-linejoin="round"/>
<path d="M236.496 100.604L141.414 141.831L137.088 120.322L228.65 81.2588L232.965 92.1543L236.496 100.604Z" fill="#FFCA1B"/>
<path d="M203.383 120.578C203.383 120.578 200.998 131.475 207.813 131.475C214.629 131.475 221.095 110.021 215.986 94.0239C210.877 78.0271 203.732 68.1481 203.732 68.1481C203.732 68.1481 199.989 67.1301 195.898 68.8268C191.807 70.5236 190.789 72.5691 190.789 72.5691C190.789 72.5691 200.319 88.9147 202.026 99.8118C203.732 110.709 203.383 120.578 203.383 120.578Z" fill="#773D04"/>
<path d="M187.188 69.873C187.188 69.873 195.483 75.8589 202.308 92.9303C207.135 105.006 206.399 121.125 206.399 121.125" stroke="black" stroke-width="7.27" stroke-linecap="round" stroke-linejoin="round"/>
<path d="M221.199 69.8257C221.199 69.8257 228.052 78.2152 236.809 97.7659C244.756 115.507 246.16 130.372 246.16 130.372" stroke="black" stroke-width="7.27" stroke-linecap="round" stroke-linejoin="round"/>
<path d="M172.719 87.3876C165.988 90.7529 166.714 97.0969 169.485 108.183C172.257 119.268 180.712 142.58 187.047 140.996C196.294 138.687 196.756 117.421 193.975 105.411C191.195 93.4017 187.509 79.9878 172.719 87.3876Z" fill="black"/>
<path d="M225.451 71.6733C225.451 71.6733 236.791 68.1101 242.305 78.5359C249.498 92.1195 247.537 117.232 247.537 117.232C247.537 117.232 241.325 99.3402 236.791 89.8099C232.257 80.2797 225.451 71.6639 225.451 71.6639V71.6733Z" fill="#773D04"/>
<path d="M222.425 213.854C222.425 213.854 224.008 251.928 213.856 282.375C205.74 306.734 185.897 335.145 188.15 336.493C190.403 337.841 222.67 317.329 239.637 283.403C257.68 247.318 261.234 225.562 261.234 225.562C261.234 225.562 259.405 209.819 242.201 207.255C225.224 204.729 222.434 213.845 222.434 213.845L222.425 213.854Z" fill="#FFCA1B" stroke="black" stroke-width="6.67"/>
<path d="M171.314 231.661C171.314 231.661 176.517 235.12 187.33 238.721C196.511 241.785 203.345 242.963 203.345 242.963" fill="white"/>
<path d="M171.314 231.661C171.314 231.661 176.517 235.12 187.33 238.721C196.511 241.785 203.345 242.963 203.345 242.963" stroke="black" stroke-width="6.67"/>
<path d="M151.792 84.833C151.792 84.833 144.91 100.99 147.389 117.317C149.869 133.644 158.767 143.532 158.767 143.532C158.767 143.532 164.461 143.296 169.636 150.385C172.973 154.947 173.105 160.349 173.105 160.349L156.062 167.494C156.062 167.494 142.176 153.468 137.539 135.435C132.486 115.809 133.843 98.5675 138.255 92.6853C143.6 85.5589 151.792 84.8519 151.792 84.8519V84.833Z" fill="#773D04"/>
<path d="M150.604 145.719C150.604 145.719 148.803 148.877 148.351 153.383C147.898 157.888 148.803 162.856 148.803 162.856" stroke="black" stroke-width="7.27" stroke-linecap="round" stroke-linejoin="round"/>
<path d="M166.95 186.762C166.95 186.762 171.013 216.983 168.307 244.49C165.602 272.006 157.033 308.081 152.518 318.007C148.012 327.933 143.949 332.892 146.655 335.145C149.36 337.398 177.771 305.828 193.108 271.101C208.445 236.373 209.793 204.352 207.993 197.583C206.192 190.815 199.877 179.541 186.793 178.636C173.709 177.731 166.95 186.752 166.95 186.752V186.762Z" fill="#FFCA1B" stroke="black" stroke-width="6.67"/>
<path d="M184.438 281.386L162.644 288.438L159.369 302.674L176.879 294.74C177.469 293.265 178.556 292.348 180.281 289.068C181.54 286.672 182.674 284.536 184.438 281.386Z" fill="#FFE98F"/>
<path d="M179.395 275.849L169.455 279.037L165.55 285.144L186.184 278.544C186.774 277.069 188.165 274.267 188.491 273.223C184.553 274.723 180.989 275.474 179.395 275.849Z" fill="#FFE98F"/>
<path d="M177.149 183.199C177.149 183.199 182.786 213.618 176.989 255.378C174.057 276.521 151.688 327.924 151.688 327.924C151.688 327.924 166.827 281.433 171.201 244.094C174.142 218.982 170.362 187.799 170.362 187.799C170.362 187.799 171.729 186.423 173.435 185.197C175.499 183.717 177.158 183.189 177.158 183.189L177.149 183.199Z" fill="#D28F00"/>
<path d="M164.329 258.413C164.329 258.413 169.881 261.288 181.023 263.682C190.487 265.719 197.406 266.143 197.406 266.143" fill="white"/>
<path d="M164.329 258.413C164.329 258.413 169.881 261.288 181.023 263.682C190.487 265.719 197.406 266.143 197.406 266.143" stroke="black" stroke-width="8"/>
<path d="M169.325 230.954C169.325 230.954 178.553 241.106 183.219 247.441C189.809 256.386 195.229 266.275 195.229 266.275" fill="white"/>
<path d="M169.325 230.954C169.325 230.954 178.553 241.106 183.219 247.441C189.809 256.386 195.229 266.275 195.229 266.275" stroke="black" stroke-width="8"/>
<path d="M205.061 241.964C205.061 241.964 196.832 241.351 186.161 238.919C175.49 236.487 171.531 234.347 171.531 234.347" fill="white"/>
<path d="M205.061 241.964C205.061 241.964 196.832 241.351 186.161 238.919C175.49 236.487 171.531 234.347 171.531 234.347" stroke="black" stroke-width="8"/>
<path d="M168.788 259.949C168.788 259.949 184.03 252.022 190.733 249.589C197.435 247.157 202.93 245.63 202.93 245.63" fill="white"/>
<path d="M168.788 259.949C168.788 259.949 184.03 252.022 190.733 249.589C197.435 247.157 202.93 245.63 202.93 245.63" stroke="black" stroke-width="8"/>
<path d="M180.363 239.683C180.363 239.683 187.018 241.643 191.713 242.68C195.304 243.482 199.64 243.764 199.64 243.764L199.81 242.435C199.81 242.435 194.936 242.096 191.053 241.634C187.169 241.172 180.354 239.673 180.354 239.673L180.363 239.683Z" fill="white"/>
<path d="M172.407 237.138C172.407 237.138 181.391 246.253 184.926 251.221C187.867 255.359 192.571 262.853 192.571 262.853L190.054 262.222C190.054 262.222 188.583 258.866 183.974 252.154C179.364 245.442 172.417 237.138 172.417 237.138H172.407Z" fill="white"/>
<path d="M175.575 258.234C175.575 258.234 176.734 257.197 178.516 256.132C180.599 254.888 183.55 254.454 183.55 254.454L175.575 258.234Z" fill="white"/>
<path d="M190.808 251.579C190.808 251.579 192.976 250.042 194.211 249.552C196.332 248.722 198.17 248.911 198.17 248.911C198.17 248.911 196.511 249.373 194.579 250.014C193.174 250.485 190.808 251.579 190.808 251.579Z" fill="white"/>
<path d="M169.928 261.269C169.928 261.269 172.002 262.862 178.959 264.813C185.916 266.765 190.601 267.472 190.601 267.472C190.601 267.472 185.802 267.472 178.959 265.615C172.115 263.758 169.683 262.626 169.683 262.626L169.928 261.278V261.269Z" fill="white"/>
<path d="M250.625 249.534L223.4 256.258L228.973 239.782L256.364 231.821L253.577 241.497L250.625 249.534Z" fill="#FFE98F"/>
<path d="M252.564 171.096L208.533 185.999L206.113 171.39L254.367 149.763L252.564 161.782V171.096Z" fill="#FFCA1B"/>
<path d="M254.281 147.347L201.378 169.849L198.471 164.724L254.69 140.601L255.303 143.054L254.281 147.347Z" fill="#FFCA1B"/>
<path d="M225.611 214.976C225.611 214.976 225.931 254.642 219.267 275.371C212.602 296.1 193.532 330.403 193.532 330.403C193.532 330.403 219.738 297.288 226.176 269.178C232.615 241.068 232.822 210.281 232.822 210.281C232.822 210.281 230.616 210.894 228.401 212.468C226.327 213.939 225.62 214.976 225.62 214.976H225.611Z" fill="#D28F00"/>
<path d="M219.86 250.325C219.86 250.325 224.97 253.917 235.687 257.8C244.793 261.1 251.59 262.448 251.59 262.448" fill="white"/>
<path d="M219.86 250.325C219.86 250.325 224.97 253.917 235.687 257.8C244.793 261.1 251.59 262.448 251.59 262.448" stroke="black" stroke-width="8"/>
<path d="M214.176 282.63C214.176 282.63 218.343 284.685 226.384 286.033C233.208 287.173 238.091 287.136 238.091 287.136" fill="white"/>
<path d="M214.176 282.63C214.176 282.63 218.343 284.685 226.384 286.033C233.208 287.173 238.091 287.136 238.091 287.136" stroke="black" stroke-width="8"/>
<path d="M220.407 249.392C220.407 249.392 227.948 259.083 231.757 265.134C237.149 273.675 240.778 281.744 240.778 281.744" fill="white"/>
<path d="M220.407 249.392C220.407 249.392 227.948 259.083 231.757 265.134C237.149 273.675 240.778 281.744 240.778 281.744" stroke="black" stroke-width="8"/>
<path d="M216.74 283.355C216.74 283.355 218.428 284.666 223.028 285.891C228.618 287.371 233.076 288.238 233.076 288.238C233.076 288.238 227.6 287.984 221.944 286.608C218.041 285.665 216.335 284.656 216.335 284.656L216.75 283.355H216.74Z" fill="white"/>
<path d="M224.564 257.423C224.819 257.8 229.994 264.248 233.284 269.046C236.574 273.844 237.96 278.774 237.96 278.774L224.564 257.423Z" fill="white"/>
<path d="M216.354 279.811C216.354 279.811 225.488 277.332 233.416 274.278C241.344 271.223 246.764 266.425 246.764 266.425" fill="white"/>
<path d="M216.354 279.811C216.354 279.811 225.488 277.332 233.416 274.278C241.344 271.223 246.764 266.425 246.764 266.425" stroke="black" stroke-width="8"/>
<path d="M220.671 280.066C220.671 280.066 227.477 277.521 232.69 275.324C237.14 273.448 244.266 269.027 244.266 269.027C244.266 269.027 239.119 274.014 233.228 276.352C227.336 278.69 220.671 280.066 220.671 280.066Z" fill="white"/>
<path d="M228.241 138.96C228.241 138.96 225.177 146.794 225.516 152.921C225.856 159.048 225.856 163.818 229.259 164.836C232.662 165.854 237.432 157.681 237.432 157.681L228.241 138.951V138.96Z" fill="#773D04"/>
<path d="M228.41 134.039C233.755 128.695 234.98 134.077 238.676 136.396C242.371 138.715 244.859 133.436 248.3 137.452C250.873 140.459 246.914 149.471 242.757 155.013C238.6 160.556 236.545 165.269 232.049 163.771C228.306 162.526 231.295 154.485 229.909 149.866C228.523 145.247 223.97 138.489 228.41 134.039Z" fill="black"/>
<path d="M244.737 207.265C244.737 207.265 244.247 200.251 241.523 196.17C238.798 192.088 235.056 189.364 231.304 190.043L227.562 190.721C227.562 190.721 218.711 183.227 214.28 181.191C209.85 179.155 207.474 178.806 207.474 178.806L209.18 211.158L219.059 218.652C219.059 218.652 223.829 208.094 231.663 207.076C239.496 206.058 244.756 207.274 244.756 207.274L244.737 207.265Z" fill="#773D04"/>
<path d="M223.216 193.078C223.216 193.078 231.342 186.432 243.059 188.572C254.776 190.712 259.735 199.205 259.735 199.205" stroke="black" stroke-width="7.27" stroke-linecap="round" stroke-linejoin="round"/>
<path d="M220.058 216.531C220.058 216.531 228.523 201.769 244.727 207.265C269.981 215.833 260.017 238.061 260.017 238.061" stroke="black" stroke-width="7.27" stroke-linecap="round" stroke-linejoin="round"/>
<path d="M170.352 160.075C170.352 160.075 161.161 168.588 164.564 174.036C167.967 179.485 175.122 180.163 175.122 180.163C175.122 180.163 169.334 182.454 166.949 186.762C164.564 191.07 165.243 191.739 165.243 191.739C165.243 191.739 155.713 186.63 155.364 181.521C154.77 172.613 154.685 168.917 158.767 165.854C162.849 162.79 170.343 160.066 170.343 160.066L170.352 160.075Z" fill="#773D04"/>
<path d="M153.328 169.954C153.328 169.954 161.02 157.342 182.173 159.255C214.139 162.149 208.483 202.646 208.483 202.646" stroke="black" stroke-width="7.27" stroke-linecap="round" stroke-linejoin="round"/>
<path d="M165.658 191.155C165.658 191.155 166.252 176.365 188.357 179.07C210.453 181.776 208.492 211.488 208.492 211.488" stroke="black" stroke-width="7.27" stroke-linecap="round" stroke-linejoin="round"/>
</svg>
