<svg width="400" height="400" viewBox="0 0 400 400" fill="none" xmlns="http://www.w3.org/2000/svg">
<path d="M322.404 261.723L321.349 259.088C321.288 258.899 320.979 258.79 320.812 258.901C320.605 258.997 320.527 259.225 320.629 259.425L321.685 262.06C321.746 262.249 322.054 262.358 322.221 262.247C322.428 262.151 322.491 261.963 322.404 261.723Z" fill="white"/>
<path d="M288.943 218.458C290.819 218.479 294.967 219.315 294.967 219.315C294.967 219.315 290.409 205.168 288.259 204.994C286.559 204.864 283.555 219.069 283.555 219.069C283.555 219.069 287.073 218.433 288.948 218.455L288.943 218.458Z" fill="#EED6B5" stroke="black" stroke-width="1.2" stroke-miterlimit="10"/>
<path d="M288.624 206.35C288.624 206.35 290.013 208.31 291.099 211.149C292.171 213.952 293.757 218.356 293.757 218.356C293.757 218.356 292.893 218.251 291.778 218.072C290.663 217.892 289.168 217.727 288.99 217.711C288.788 217.587 290.118 216.333 290.293 214.547C290.603 211.43 288.618 206.353 288.618 206.353L288.624 206.35Z" fill="#99836C"/>
<path d="M286.905 212.209C286.902 212.421 287.028 212.632 287.239 212.723C287.455 212.727 287.705 212.589 287.708 212.377C287.789 211.063 287.994 209.835 288.378 208.619C288.429 208.428 288.381 208.189 288.17 208.098C288.011 208.029 287.697 208.106 287.643 208.296C287.238 209.559 286.974 210.856 286.906 212.205L286.905 212.209Z" fill="white"/>
<path d="M265.099 232.154C265.099 232.154 254.96 232.258 254.549 233.795C254.138 235.332 263.338 241.843 263.338 241.843L264.086 233.82L265.099 232.154Z" fill="#EED6B5" stroke="black" stroke-width="1.2" stroke-miterlimit="10"/>
<path d="M262.967 237.26C262.8 237.371 261.745 237.553 259.908 236.916C258.453 236.412 256.271 235.151 256.271 235.151C256.271 235.151 258.434 237.205 260.086 238.49C261.601 239.689 262.687 240.398 262.687 240.398L262.968 237.256L262.967 237.26Z" fill="#99836C"/>
<path d="M260.667 233.395C259.589 233.274 258.512 233.406 257.486 233.765C257.292 233.824 257.228 234.136 257.303 234.289C257.404 234.493 257.646 234.535 257.839 234.475C258.714 234.187 259.688 234.108 260.611 234.175C260.817 234.202 261.012 234.019 261.039 233.817C261.039 233.564 260.886 233.387 260.671 233.396L260.667 233.395Z" fill="white"/>
<path d="M319.275 252.737C319.275 252.737 322.843 239.719 315.118 230.484C307.388 221.247 292.398 214.957 280.475 220.162C268.553 225.366 264.274 232.921 264.084 233.824C263.898 234.729 263.447 250.506 263.447 250.506C263.447 250.506 260.134 254.443 259.228 255.436C258.322 256.43 258.625 263.298 258.625 263.298C258.625 263.298 254.839 268.587 254.466 270.268C254.092 271.948 255.067 273.461 257.074 275.838C259.081 278.214 261.631 279.643 262.538 279.75C263.446 279.857 267.396 276.43 267.396 276.43C267.396 276.43 270.387 279.062 277.249 284.635C284.11 290.208 285.382 291.489 286.327 291.606C287.272 291.723 290.394 290.788 293.214 289.621C296.033 288.455 297.773 287.163 298.368 286.322C298.964 285.477 304.166 268.779 304.166 268.779C304.166 268.779 307.972 267.239 308.877 266.503C309.781 265.766 317.661 255.167 319.282 252.743L319.275 252.737Z" fill="#F33100" stroke="black" stroke-width="1.2" stroke-miterlimit="10"/>
<path d="M264.079 235.42C263.963 235.505 263.546 248.722 263.546 248.722L264.4 248.109L265.708 233.824L264.083 235.421L264.079 235.42Z" fill="white"/>
<path d="M316.571 231.617C316.571 231.617 331.714 233.671 332.208 234.472C332.702 235.272 320.049 245.017 320.049 245.017C320.049 245.017 319.563 238.669 318.682 236.768C317.801 234.866 316.574 231.623 316.574 231.623L316.571 231.617Z" fill="#EED6B5" stroke="black" stroke-width="1.2" stroke-miterlimit="10"/>
<path d="M301.317 220.471C301.317 220.471 304.508 222.628 305.789 223.571C307.071 224.513 311.132 228.697 311.132 228.697C311.132 228.697 314.381 213.262 313.337 212.799C312.293 212.336 301.314 220.466 301.314 220.466L301.317 220.471Z" fill="#EED6B5" stroke="black" stroke-width="1.2" stroke-miterlimit="10"/>
<path d="M278.286 221.126C278.286 221.126 268.501 209.665 266.596 210.811C264.691 211.958 268.904 227.544 268.904 227.544C268.904 227.544 272.348 224.826 273.998 223.803C275.645 222.775 278.286 221.126 278.286 221.126Z" fill="#EED6B5" stroke="black" stroke-width="1.2" stroke-miterlimit="10"/>
<path d="M319.275 252.736C319.275 252.736 324.837 263.493 324.05 264.27C323.264 265.047 313.114 261.741 313.114 261.741L319.277 252.732L319.275 252.736Z" fill="#EED6B5" stroke="black" stroke-width="1.2" stroke-miterlimit="10"/>
<path d="M299.464 257.141C299.464 257.141 293.52 276.69 293.506 276.979C293.491 277.268 294.319 282.642 294.319 282.642L288.504 284.032L284.08 289.184L282.818 288.118L286.969 283.378L286.256 276.446L292.026 275.798L297.687 256.191L299.458 257.144L299.464 257.141Z" fill="#71F9FE" stroke="black" stroke-width="1.2" stroke-miterlimit="10"/>
<path d="M279.601 247.383L272.257 262.148L269.907 261.238L276.848 244.326L279.601 247.383Z" fill="#EF8145"/>
<path d="M289.86 251.131L280.375 271.154L276.978 268.721L288.14 248.697L289.86 251.131Z" fill="#EF8145"/>
<path d="M268.752 249.118C268.675 249.342 266.022 263.147 266.022 263.147L264.912 262.512L267.643 248.483L268.752 249.118Z" fill="#EF8145"/>
<path d="M290.668 251.566C290.485 251.837 283.608 268.292 283.502 268.592C283.396 268.892 283.987 273.72 283.987 273.72L278.391 274.849L272.522 280.802L271.494 279.688L276.872 273.901L275.898 267.721L281.85 267.174L288.666 250.784L290.669 251.562L290.668 251.566Z" fill="#71F9FE" stroke="black" stroke-width="1.2" stroke-miterlimit="10"/>
<path d="M280.674 248.19L273.256 261.893L273.08 267.676L266.58 268.197L258.349 276.485L257.071 275.832L265.386 266.941C265.386 266.941 264.933 261.359 265.266 261.39C265.6 261.421 272.193 260.512 272.193 260.512L278.628 248.279L280.678 248.192L280.674 248.19Z" fill="#71F9FE" stroke="black" stroke-width="1.2" stroke-miterlimit="10"/>
<path d="M266.926 249.9L260.571 256.146L258.862 259.803L258.94 262.645L261.42 257.281C261.42 257.281 269.227 249.35 269.447 249.089L266.93 249.901L266.926 249.9Z" fill="#71F9FE" stroke="black" stroke-width="1.2" stroke-miterlimit="10"/>
<path d="M291.884 277.93L292.111 281.33L288.903 282.154L288.154 278.278L291.884 277.93Z" fill="#CF4500" stroke="black" stroke-width="1.2" stroke-linecap="round" stroke-linejoin="round"/>
<path d="M281.782 269.091L282.353 272.986L278.623 273.082L277.734 269.116L281.782 269.091Z" fill="#CF4500" stroke="black" stroke-width="1.2" stroke-linecap="round" stroke-linejoin="round"/>
<path d="M271.404 262.89C271.35 263.164 271.168 266.634 271.168 266.634L267.557 266.517L267.277 263.266L271.404 262.89Z" fill="#CF4500" stroke="black" stroke-width="1.2" stroke-linecap="round" stroke-linejoin="round"/>
<path d="M293.116 249.743L287.98 247.19L292.381 228.404L301.845 231.875L293.116 249.743Z" fill="#EF8145"/>
<path d="M267.997 246.589L268.652 231.55C268.652 231.55 266.154 231.568 266.115 231.682C266.076 231.796 266.37 247.055 266.37 247.055L267.996 246.593L267.997 246.589Z" fill="#EF8145"/>
<path d="M279.446 244.716L281.415 221.022C281.415 221.022 274.499 224.108 274.46 224.222C274.421 224.336 275.884 244.448 275.884 244.448L279.45 244.717L279.446 244.716Z" fill="#EF8145"/>
<g style="mix-blend-mode:multiply" opacity="0.6">
<path d="M303.222 269.248C303.222 268.995 302.487 265.083 298.039 260.601C293.591 256.115 286.904 252.496 280.151 251.291C273.394 250.085 269.046 250.722 269.046 250.722L259.113 261.91L259.333 258.831L259.768 255.996L264.257 250.782C264.257 250.782 277.407 244.66 289.017 250.53C304.434 258.309 304.837 268.207 304.837 268.207L303.227 269.245L303.222 269.248Z" fill="#8C1D00"/>
</g>
<path d="M323.172 263.585C323.172 263.585 319.234 262.304 317.828 260.557C316.418 258.808 316.696 257.892 316.696 257.892L314.334 261.322C314.334 261.322 318.385 262.643 319.215 262.844C320.044 263.046 323.167 263.584 323.167 263.584L323.172 263.585Z" fill="#99836C"/>
<path d="M327.265 238.266C327.265 238.266 324.594 240.244 322.528 239.4C320.458 238.555 319.122 235.992 319.122 235.992C319.122 235.992 320.197 239.054 320.366 240.545C320.535 242.036 320.687 243.558 320.687 243.558L327.268 238.271L327.265 238.266Z" fill="#99836C"/>
<path d="M312.304 217.943L310.62 227.111C310.62 227.111 310.093 226.652 308.508 225.079C306.879 223.389 305.992 222.803 305.992 222.803C305.992 222.803 307.669 223.54 309.667 222.445C311.665 221.349 312.303 217.947 312.303 217.947L312.304 217.943Z" fill="#99836C"/>
<g style="mix-blend-mode:multiply" opacity="0.6">
<path d="M314.96 230.947C314.96 230.947 313.759 237.733 308.469 245.104C303.178 252.475 298.456 253.99 298.456 253.99L303.688 259.203L307.725 266.952L317.159 254.315L319.017 251.954C319.017 251.954 319.746 244.551 318.947 239.975C318.292 236.146 314.96 230.947 314.96 230.947Z" fill="#8C1D00"/>
</g>
<path d="M266.994 213.973C266.994 213.973 267.665 218.295 270.414 220.415C272.949 222.368 274.534 222.516 274.534 222.516C274.534 222.516 272.875 223.453 271.659 224.462C270.443 225.471 269.312 226.255 269.312 226.255C269.312 226.255 267.987 220.58 267.546 218.157C267.105 215.733 266.99 213.968 266.99 213.968L266.994 213.973Z" fill="#99836C"/>
<path d="M317.144 254.772C317.274 254.399 318.311 248.364 318.311 248.364L312.654 249.055L304.475 259.762L303.706 258.529L311.731 247.644L318.439 246.774C318.439 246.774 318.701 241.356 316.561 236.664C314.408 232.008 308.8 227.162 308.8 227.162L301.683 232.515L298.09 231.356L291.213 247.558L289.563 246.988L296.173 230.57L291.833 228.73L290.793 221.139C290.793 221.139 290.228 221.029 289.31 220.959C287.3 220.809 283.479 220.916 279.193 222.964C272.927 226.004 269.085 230.099 269.085 230.099L273.973 232.213L273.348 245.41L271.757 245.907L272.506 232.964L268.048 231.084L264.15 235.705L265.064 232.114C265.064 232.114 272.001 222.494 280.441 220.122C288.882 217.749 305.428 217.637 314.439 229.461C323.453 241.287 319.388 251.906 319.242 252.692C319.095 253.483 317.137 254.78 317.137 254.78L317.144 254.772Z" fill="#00FDFF" stroke="black" stroke-width="1.2" stroke-miterlimit="10"/>
<path d="M307.46 266.594L304.463 267.66C304.463 267.66 304.262 261.24 298.468 256.544C292.675 251.844 287.078 248.687 278.688 248.22C270.759 247.786 263.496 250.607 263.496 250.607L263.779 248.814C263.779 248.814 269.892 244.123 279.961 244.834C288.439 245.418 295.89 249.301 301.481 255.066C307.9 261.661 307.459 266.598 307.459 266.598L307.46 266.594Z" fill="#5E1B02" stroke="black" stroke-width="1.2" stroke-miterlimit="10"/>
<g style="mix-blend-mode:multiply" opacity="0.6">
<path d="M258.859 261.275C258.859 261.275 267.774 263.314 274.674 267.299C280.142 270.458 291.05 280.73 295.347 284.862C295.577 285.082 302.662 270.054 302.853 270.238C303.596 270.953 297.677 286.436 297.677 286.436C297.677 286.436 295.056 288.41 291.65 289.665C288.242 290.924 286.076 291.096 286.076 291.096C286.076 291.096 280.362 286.297 274.888 281.921C269.413 277.544 267.252 275.615 267.252 275.615C267.252 275.615 265.507 277.283 264.438 278.003C263.368 278.727 262.364 279.389 262.364 279.389C262.364 279.389 259.147 277.895 257.23 275.635C255.313 273.371 255.08 272.072 255.182 270.932C255.281 269.787 259.409 263.776 259.409 263.776L258.867 261.277L258.859 261.275Z" fill="#8C1D00"/>
</g>
<path d="M271.118 272.543L267.434 276.44" stroke="black" stroke-width="1.2" stroke-miterlimit="10"/>
<path d="M328.283 234.751C326.964 234.589 325.606 234.54 324.275 234.539C324.056 234.547 323.875 234.695 323.848 234.896C323.822 235.097 324 235.327 324.216 235.317C325.548 235.314 326.868 235.353 328.223 235.53C328.763 235.588 328.817 234.813 328.283 234.751Z" fill="white"/>
<path d="M311.495 215.87C311.712 215.754 311.792 215.536 311.698 215.356C311.604 215.175 311.354 215.061 311.17 215.154C310.071 215.702 309.016 216.372 307.983 217.07C307.827 217.193 307.793 217.473 307.92 217.63C308.07 217.816 308.331 217.819 308.488 217.696C309.431 217.014 310.447 216.427 311.49 215.873L311.495 215.87Z" fill="white"/>
<path d="M273.235 217.146C272.169 215.892 271 214.691 269.79 213.599C269.623 213.458 269.395 213.38 269.2 213.563C269.07 213.688 269.005 213.999 269.172 214.141C270.419 215.247 271.55 216.438 272.617 217.688C272.972 218.021 273.58 217.517 273.235 217.146Z" fill="white"/>
<mask id="mask0_5624_7745" style="mask-type:luminance" maskUnits="userSpaceOnUse" x="15" y="33" width="367" height="344">
<path d="M268.308 251.636C268.308 251.636 268.237 255.898 265.185 260.694C262.133 265.49 256.854 266.56 256.854 266.56C256.854 266.56 77.8223 123.986 77.1569 124.573C76.4914 125.16 33.5916 147.697 32.6273 148.458C31.663 149.219 19.4482 133.76 19.4482 133.76L42.6265 94.2896L15.0083 47.5037L28.1648 33.4068C28.1648 33.4068 81.184 66.0297 82.0274 65.7426C82.8709 65.4555 127.576 50.5341 127.576 50.5341L133.37 59.4536L114.093 97.6627L127.398 111.883L128.422 124.381C128.422 124.381 358.972 319.878 359.625 320.308C360.279 320.738 381.213 366.781 381.213 366.781L373.378 376.172L282.549 292.576C282.549 292.576 286.138 293.197 292.409 290.455C294.607 289.493 298.474 288.222 299.178 286.501C300.506 283.258 303.485 281.558 303.485 281.558L268.31 251.646L268.308 251.636Z" fill="white"/>
</mask>
<g mask="url(#mask0_5624_7745)">
<path d="M61.7161 63.9677C56.2301 61.6292 51.6952 57.6745 46.7914 54.3765C41.869 51.0646 36.4523 48.6824 30.9969 46.3963C30.9565 46.3812 30.9162 46.366 30.8758 46.3509C28.5505 42.3952 22.1824 46.0077 24.2852 50.335C29.366 60.7959 40.0388 68.0291 42.9862 79.545C43.6864 82.2812 47.9461 82.9998 49.5533 80.7143C52.5099 76.5143 56.5719 72.8817 61.4496 71.0798C64.5424 69.9371 64.8315 65.2887 61.71 63.9572L61.7161 63.9677Z" fill="#D5B366"/>
<path d="M117.321 58.8417C108.701 63.0696 99.9205 66.8781 91.0337 70.5032C90.611 70.6753 90.2582 70.9191 89.965 71.2054C88.8599 71.3079 88.0248 71.8988 87.4924 72.7207C84.2556 72.3614 81.3337 77.3026 84.4776 79.5051C90.1854 83.5039 95.3625 87.7482 99.7785 93.1754C101.897 95.7811 106.189 94.5163 106.639 91.2236C107.341 86.0722 110.103 81.599 113.105 77.4641C116.295 73.0686 119.658 68.8429 122.229 64.0353C123.748 61.1941 120.296 57.3748 117.318 58.8365L117.321 58.8417Z" fill="#D5B366"/>
<path d="M116.279 108.112C115.817 107.529 115.174 107.106 114.469 106.853C113.879 105.863 112.579 105.967 111.679 105.174C111.728 104.3 110.459 103.68 109.647 102.827C103.661 96.5271 95.6223 89.6493 91.3541 84.8202C91.0365 84.4612 90.5275 84.4064 90.0892 84.3525C89.9953 84.0704 89.8743 83.7899 89.7251 83.5153C88.8111 81.8051 87.4371 80.4922 85.8328 79.5798C83.0195 77.0832 79.894 74.9787 76.5753 73.1514C76.5743 73.0713 76.5722 72.9953 76.5671 72.9141C76.4543 71.4957 75.4822 69.8543 73.9774 69.5051C62.5866 66.8645 50.6414 73.2962 47.8555 84.968C47.6205 85.9573 47.7051 86.8448 48.0028 87.5979C47.9904 87.7454 47.9697 87.8908 47.9562 88.0425C47.9267 88.3719 47.9577 88.6906 48.0379 88.9913C48.0149 89.0784 47.996 89.1666 47.9782 89.2506C47.6297 90.8531 48.6191 92.2949 49.9782 93.0271C50.0881 93.2825 50.2273 93.5278 50.4054 93.7435C52.814 96.6965 56.0973 98.2216 59.6337 99.41C61.9441 100.185 64.3304 100.808 66.27 102.23C66.6801 102.592 67.0944 102.954 67.5046 103.315C67.9568 103.719 68.4223 103.989 68.8851 104.151C68.9364 104.209 68.9876 104.267 69.041 104.316C72.8375 108.027 75.4465 112.537 76.9273 117.622C77.3167 118.968 78.4452 119.75 79.7058 119.999C79.889 120.296 80.0976 120.564 80.3326 120.799C82.3362 122.784 84.4254 124.681 86.6233 126.452C88.6711 128.102 91.0395 130.268 93.7389 130.663C93.7897 130.672 93.8386 130.672 93.8853 130.68C94.444 131.369 95.1903 131.868 96.0073 131.849C97.0344 131.823 98.2151 132.357 99.2985 132.404C100.289 132.449 101.299 132.388 102.278 132.243C103.801 132.02 105.307 131.545 106.713 130.923C109.314 129.779 111.657 127.865 113.477 125.698C117.495 120.923 120.68 113.664 116.282 108.1L116.279 108.112Z" fill="#972400"/>
<g style="mix-blend-mode:multiply" opacity="0.6">
<path d="M51.1385 86.5462C51.2671 87.0328 96.2056 125.65 96.0243 126.352C95.8431 127.054 91.8596 129.048 91.8596 129.048C91.8596 129.048 68.4905 115.12 63.8152 110.321C59.141 105.517 50.7581 95.2964 50.7581 95.2964L48.179 93.0214L51.1374 86.5504L51.1385 86.5462Z" fill="#7B1A00"/>
</g>
<path d="M48.9602 91.795C48.9602 91.795 50.9116 83.4117 59.0501 77.4504C67.1886 71.489 76.0045 72.845 76.0045 72.845L71.5561 68.6471L65.8257 67.8366C65.8257 67.8366 59.2529 69.8245 54.3237 74.7227C49.3987 79.622 46.7029 87.2805 46.7029 87.2805L48.9591 91.7992L48.9602 91.795Z" fill="#FDB700"/>
<path d="M91.0612 129.116C91.0612 129.116 97.5587 126.926 104.764 119.848C111.862 112.871 114.262 107.423 114.262 107.423L117.1 111.786C117.1 111.786 115.031 116.624 109.346 122.72C103.121 129.396 95.7865 131.546 95.7865 131.546L91.0623 129.112L91.0612 129.116Z" fill="#FDB700"/>
<path d="M352.105 334.916C347.162 329.052 342.112 323.386 336.69 318.021C336.716 317.925 336.746 317.827 336.767 317.731C337.056 316.321 336.523 315.031 335.523 314.048L334.849 313.443C335.088 313.68 335.324 313.911 335.563 314.147C334.859 313.437 334.133 312.762 333.392 312.091L333.288 311.983C333.144 311.839 332.993 311.706 332.838 311.585C332.813 311.565 332.792 311.542 332.766 311.522L332.827 311.578C331.962 310.905 330.913 310.596 329.882 310.736C325.412 305.446 320.309 300.755 314.736 296.615C314.243 296.249 313.666 296.083 313.072 296.064C310.738 293.902 308.404 291.741 306.07 289.575C305.274 288.797 304.462 288.041 303.635 287.294C303.493 286.689 303.168 286.106 302.606 285.598C294.597 278.359 286.62 271.081 278.622 263.832C277.738 263.03 276.77 262.766 275.86 262.871C274.331 261.49 272.702 260.216 270.963 259.06C269.658 257.787 268.354 256.511 267.045 255.237C266.305 254.514 265.478 254.166 264.668 254.094C260.627 249.564 256.582 245.03 252.536 240.503C251.471 239.312 250.011 239.112 248.716 239.515C247.707 238.498 246.698 237.482 245.688 236.469C245.527 236.307 245.359 236.173 245.186 236.052C245.04 235.734 244.834 235.422 244.565 235.13C238.883 228.888 232.434 223.899 225.225 219.521C225.156 219.481 225.086 219.445 225.016 219.408C224.019 218.111 223.189 216.689 222.554 215.115C221.603 212.756 219.182 212.231 217.32 212.914C202.174 199.262 187.025 185.619 171.914 171.937C171.072 171.177 169.87 171.01 168.777 171.267C166.543 169.265 164.31 167.259 162.075 165.257C160.882 163.916 159.515 162.725 158.003 161.682C157.61 161.409 157.202 161.24 156.796 161.15C152.963 157.155 149.054 153.232 145.037 149.433C136.424 141.289 127.494 133.625 118.466 125.958C114.665 122.734 109.6 128.869 113.541 131.899C122.724 138.96 131.415 146.943 139.719 155.013C146.425 161.53 152.969 168.185 159.269 175.096C160.335 176.265 161.651 176.573 162.83 176.308C165.833 179.01 168.838 181.704 171.846 184.403C173.887 186.615 176.144 188.632 178.581 190.439C179.668 191.246 180.773 191.41 181.74 191.159C195.371 203.461 208.994 215.778 222.618 228.086C223.677 229.014 224.844 229.216 225.887 228.96C226.747 229.533 227.596 230.131 228.431 230.75C228.539 231.48 228.886 232.233 229.546 232.94C233.811 237.546 238.418 241.8 243.331 245.699C249.135 252.421 255.661 258.49 262.878 263.696C263.187 263.919 263.497 264.09 263.811 264.226C264.99 265.155 266.189 266.053 267.425 266.917C267.57 267.022 267.721 267.106 267.868 267.185C269.258 268.507 270.676 269.787 272.135 271.029C273.652 272.508 275.172 273.988 276.689 275.468C277.372 276.137 278.226 276.566 279.112 276.69C279.202 277.641 279.678 278.574 280.663 279.31C291.882 287.65 302.079 297.233 311.105 307.908C312.204 309.205 314.057 309.598 315.578 308.98C318.517 311.705 321.458 314.422 324.403 317.144C324.366 319.246 326.451 320.853 328.533 320.85C334.777 326.663 340.811 332.882 345.986 339.65C349.015 343.614 355.298 338.728 352.097 334.931L352.105 334.916Z" fill="#464B4E"/>
<path d="M173.98 175.092C173.589 175.836 173.748 176.743 174.376 177.304C188.05 189.541 329.235 315.862 331.34 316.814C333.551 317.812 336.315 316.018 336.315 316.018L332.745 311.955L174.174 174.731L173.98 175.092Z" fill="#F8F7F1"/>
<path d="M111.638 128.61C111.638 128.61 112.142 129.018 112.222 129.084C125.369 140.166 355.137 341.365 355.137 341.365L363.683 353.488L108.4 132.665L111.638 128.61Z" fill="#34302A"/>
<path d="M374.389 362.105C361.497 346.539 349.19 330.506 337.494 314.028C336.223 312.241 333.246 313.951 334.526 315.754C346.395 332.469 358.883 348.74 371.956 364.527C373.368 366.232 375.788 363.793 374.389 362.105Z" fill="black"/>
<path d="M121.735 143.552L124.253 145.722C124.253 145.722 124.341 141.03 124.609 138.678C124.876 136.326 125.859 132.944 125.859 132.944L123.34 130.627C123.34 130.627 122.087 136.068 121.821 138.415C121.555 140.763 121.736 143.548 121.736 143.548L121.735 143.552Z" fill="#00FDFF"/>
<path d="M136.566 157.156C136.566 157.156 135.778 152.622 136.172 148.951C136.567 145.279 136.675 142.052 136.675 142.052L139.784 144.653C139.784 144.653 139.234 147.591 138.984 150.968C138.734 154.344 139.821 159.609 139.821 159.609L136.566 157.156Z" fill="#00FDFF"/>
<path d="M151.685 170.458L154.352 172.77C154.352 172.77 153.101 166.481 153.208 163.107C153.316 159.732 154.006 156.352 154.006 156.352L151.044 153.896C151.044 153.896 150.652 157.861 150.699 161.524C150.745 165.188 151.241 170.022 151.241 170.022L151.686 170.454L151.685 170.458Z" fill="#00FDFF"/>
<path d="M166 166.033L165.911 182.753C165.911 182.753 168.735 185.798 168.585 185.359C168.435 184.92 167.613 177.746 167.87 174.811C168.128 171.876 168.388 169.38 168.388 169.38L166.003 166.039L166 166.033Z" fill="#00FDFF"/>
<path d="M181.874 180.942L182.059 196.19C182.059 196.19 184.601 200.266 184.59 199.384C184.58 198.503 184.688 183.253 184.688 183.253L181.874 180.942Z" fill="#00FDFF"/>
<path d="M198.024 194.824L198.962 211.82C198.962 211.82 201.785 214.718 201.924 214.276C202.063 213.833 201.909 212.958 201.909 212.958L200.974 196.398L198.024 194.824Z" fill="#00FDFF"/>
<path d="M214.916 209.137L216.731 225.686L219.704 229.023C219.704 229.023 218.128 219.951 218.253 218.338C218.378 216.725 218.474 212.323 218.474 212.323L214.914 209.141L214.916 209.137Z" fill="#00FDFF"/>
<path d="M231.073 223.309L232.748 240.592L235.857 243.194L235.981 241.283L234.617 225.612L231.073 223.309Z" fill="#00FDFF"/>
<path d="M247.676 238.064L250.378 255.336C250.378 255.336 254.393 259.831 254.236 259.249C254.08 258.666 250.773 239.788 250.773 239.788L247.671 238.067L247.676 238.064Z" fill="#00FDFF"/>
<path d="M262.489 250.492L266.392 269.949C266.392 269.949 270.255 274.01 270.101 273.57C269.947 273.13 265.741 252.652 265.741 252.652L262.489 250.492Z" fill="#00FDFF"/>
<path d="M279.538 265.685L283.884 285.281L286.854 288.325C286.854 288.325 284.283 269.735 283.982 269.296C283.681 268.857 279.538 265.685 279.538 265.685Z" fill="#00FDFF"/>
<path d="M297.021 280.429L300.92 299.588L304.778 303.501L300.121 282.296L297.021 280.429Z" fill="#00FDFF"/>
<path d="M314.069 295.764L319.744 316.222C319.744 316.222 323.763 321.305 323.76 320.865C323.756 320.424 318.064 298.791 318.064 298.791L314.07 295.76L314.069 295.764Z" fill="#00FDFF"/>
<path d="M337.373 318.796L343.454 336.611C343.454 336.611 347.619 341.545 347.614 340.959C347.61 340.372 341.833 323.871 341.833 323.871L337.374 318.792L337.373 318.796Z" fill="#00FDFF"/>
<path d="M85.923 109.661L85.9833 109.668C85.5845 109.314 86.8374 108.753 86.9861 108.677C87.3926 108.466 88.1876 108.379 88.5709 108.724C88.7467 108.881 88.8863 109.091 89.0651 109.254C89.2008 109.379 89.3576 109.473 89.4794 109.617C89.6301 109.785 89.7594 109.917 89.9458 110.05C90.0427 110.12 90.1925 110.191 90.2704 110.283C90.3482 110.374 90.3315 110.454 90.3927 110.541C90.5141 110.72 90.734 110.845 90.8487 111.048C90.9513 111.23 91.056 111.489 90.9979 111.709C90.9617 111.845 90.8438 112.023 90.7816 112.157C90.7046 112.314 90.6028 112.531 90.3993 112.579C90.1623 112.637 89.7692 112.244 89.5789 112.092C89.264 111.84 89.0536 111.78 88.694 111.68C88.582 111.651 88.5655 111.562 88.4227 111.582C88.3352 111.594 88.3141 111.691 88.2224 111.702C88.0379 111.728 87.8676 111.55 87.7062 111.49C87.4463 111.399 87.1707 111.317 86.8978 111.192C86.6248 111.066 86.2965 111.033 86.0434 110.833C85.8488 110.679 85.6574 110.447 85.7215 110.171C85.7758 109.932 85.9353 109.832 85.9283 109.658L85.923 109.661Z" fill="#631900"/>
<path d="M95.3002 100.26C95.0136 100.22 94.9483 100.047 94.7877 99.8494C94.6628 99.7011 94.4913 99.6113 94.3249 99.5362C94.1905 99.474 94.0558 99.4296 93.9245 99.3727C93.6928 99.2759 93.7239 99.2087 93.5608 99.0369C93.3188 98.7776 92.8518 99.151 92.671 99.3649C92.5864 99.4668 92.524 99.6188 92.4344 99.706C92.291 99.8456 92.1034 99.7161 91.9642 99.8567C91.807 100.015 91.8502 100.74 91.9788 100.925C92.0696 101.051 92.2954 101.204 92.424 101.305C92.5856 101.432 92.7697 101.441 92.9409 101.548C93.1235 101.663 93.2498 101.856 93.4081 101.996C93.5911 102.159 93.7712 102.3 93.9638 102.444C94.1306 102.568 94.3156 102.657 94.5076 102.77C94.6727 102.867 94.8043 103.057 95.0091 103.071L95.0495 103.237C95.3821 103.254 95.3166 103.485 95.6239 103.145C95.7676 102.988 95.8697 102.82 95.9774 102.631C96.0723 102.456 96.1854 102.331 96.2563 102.163C96.3498 101.944 96.3638 101.908 96.2501 101.7C96.0948 101.415 95.9376 101.121 95.755 100.855C95.5306 100.53 95.1141 100.477 94.8895 100.169" fill="#631900"/>
<path d="M86.468 95.0047C86.414 94.773 86.618 94.5386 86.5674 94.2768C86.547 94.1693 86.4729 94.1142 86.4495 94.0016C86.4241 93.8795 86.4926 93.7379 86.4443 93.6187C86.3879 93.4795 86.1996 93.4031 86.1118 93.2823C85.9943 93.1225 85.9321 92.9552 85.914 92.7553C85.7814 92.7202 85.5454 92.7065 85.4076 92.7411C85.3126 92.7647 85.3075 92.8344 85.2125 92.858C85.1321 92.8767 85.0442 92.8402 84.9575 92.866C84.8531 92.8916 84.7238 92.9949 84.6427 93.0667C84.4816 93.2059 84.5182 93.2689 84.4728 93.4742C84.3331 93.4151 84.2158 93.322 84.104 93.5098C84.0316 93.6326 84.0686 93.8953 84.1368 94.0065C84.205 94.1177 84.3853 94.2408 84.5023 94.285C84.6917 94.3573 84.9292 94.4823 85.1255 94.512C85.3394 94.542 85.4169 94.5004 85.5811 94.668C85.7001 94.7882 85.8026 94.9041 85.9332 95.014C86.0566 95.1177 86.2648 95.3369 86.4571 95.197C86.6273 95.0734 86.5712 94.7658 86.5725 94.5931" fill="#631900"/>
<path d="M74.2458 82.2598C74.5921 82.3425 74.716 81.9582 74.6552 81.6848C74.6109 81.5001 74.5171 81.1337 74.364 80.9912C74.1534 80.7979 73.8917 81.0659 73.6934 81.111C73.5327 81.1483 73.3514 81.0959 73.1948 81.1344C73.057 81.1689 72.9666 81.2426 72.805 81.2664C72.7961 81.3838 72.6796 81.4551 72.6762 81.5518C72.668 81.7004 72.8099 81.8178 72.8991 81.9168C73.0702 82.1085 73.2234 82.1668 73.4418 82.2467C73.6851 82.3333 73.9901 82.4716 74.247 82.473C74.6007 82.4779 74.7675 82.1493 74.755 81.8443" fill="#631900"/>
<path d="M61.8939 84.5778C61.7842 84.154 61.436 84.5143 61.2758 84.6672C61.163 84.7749 61.0954 84.7791 61.0681 84.9494C61.0408 85.1196 61.2345 85.2596 61.167 85.397C61.1659 85.4012 60.9311 85.5343 60.9038 85.5537C60.7989 85.6146 60.6586 85.6086 60.564 85.6811C60.3926 85.8088 60.2847 86.2506 60.3934 86.4434C60.4513 86.5431 60.59 86.6729 60.6614 86.7717C60.7329 86.8705 60.7991 86.9723 60.8726 87.0804C61.0377 87.3282 61.2807 87.5167 61.4985 87.7163C61.628 87.8304 61.8607 88.0073 61.9326 88.1549C62.0732 88.445 61.9872 88.8038 62.0809 89.1036C62.2511 89.6677 62.9427 89.8374 63.4327 89.9138C63.6714 89.9503 63.8968 89.9034 64.1317 89.9212C64.3831 89.9433 64.6007 90.0098 64.8607 90.0164C65.2256 90.0287 65.5266 90.2325 65.8917 90.0097C66.0239 89.9293 66.109 89.7921 66.1932 89.6414C66.2774 89.4906 66.4056 89.3249 66.4721 89.1739C66.5967 88.8874 66.6531 88.4898 66.5365 88.1927C66.4199 87.8957 66.1213 87.515 65.9061 87.2718C65.6572 86.9886 65.3461 86.9906 65.0471 86.7961C64.6861 86.5675 64.3826 86.2388 64.028 86.003C63.8094 85.8564 63.599 85.6455 63.3521 85.5225C63.0318 85.3579 62.7072 85.21 62.439 84.966C62.1965 84.7422 62.0313 84.5786 61.8918 84.5861L61.8939 84.5778Z" fill="#631900"/>
<path d="M24.4986 45.7554L54.4597 73.8404L56.644 72.4928L26.6841 44.5545L24.4986 45.7554Z" fill="#00FDFF"/>
<path d="M60.1416 76.6121L105.155 120.178L107.032 118.079L62.3259 75.4154L60.1416 76.6121Z" fill="#00FDFF"/>
<path d="M89.1843 83.5318L121.586 59.0871C121.586 59.0871 118.197 57.6624 117.913 58.3993C117.629 59.1361 87.6986 81.9365 87.6986 81.9365L89.1843 83.5318Z" fill="#00FDFF"/>
<path d="M75.1422 72.8344L74.6527 75.0872L102.978 101.022L107.654 101.656L109.582 103.879C109.582 103.879 104.047 103.772 102.834 103.442C101.622 103.113 72.0673 75.6367 71.0227 74.9566C69.9782 74.2766 70.6514 72.8886 70.6514 72.8886L75.1463 72.8354L75.1422 72.8344Z" fill="#00FDFF"/>
<path d="M88.0583 125.238C88.0583 125.238 89.532 118.477 89.3471 117.616C89.1622 116.755 59.2517 88.2442 58.3826 87.7393C57.5136 87.2343 50.1457 92.6809 50.1457 92.6809L51.7242 94.5625L57.7248 90.5111L86.407 117.477L85.783 123.19L88.0541 125.237L88.0583 125.238Z" fill="#00FDFF"/>
<path d="M24.378 47.9551C24.9671 48.0932 62.32 69.0476 62.32 69.0476L66.7051 67.9672C66.7051 67.9672 30.8041 45.9683 28.8903 45.4044C26.9765 44.8405 25.0725 45.0111 24.4955 45.7502C23.9184 46.4893 24.375 47.9499 24.375 47.9499L24.378 47.9551Z" fill="#F8F7F1"/>
<path d="M82.6492 76.5727C83.0905 76.716 83.8295 77.2931 86.3215 77.1138C88.8123 76.9386 118.093 61.0381 119.116 60.8783C120.139 60.7185 122.048 60.6957 122.048 60.6957C122.048 60.6957 120.686 57.3408 117.913 58.3995C115.14 59.4582 82.6492 76.5727 82.6492 76.5727Z" fill="#F8F7F1"/>
<path d="M71.1339 73.0607C71.1339 73.0607 84.8412 81.518 85.2064 81.5126C85.5717 81.5072 85.684 80.898 85.684 80.898C85.684 80.898 77.2003 72.5005 76.8362 72.5017C76.472 72.503 74.899 72.6636 73.9237 72.7783C72.9702 72.8943 71.1435 73.0411 71.135 73.0565L71.1339 73.0607Z" fill="#F8F7F1"/>
<path d="M40.9063 63.8933C40.8899 63.8047 40.7395 63.6185 40.6832 63.5459C40.5943 63.4292 40.4825 63.3154 40.3789 63.2037C40.259 63.0699 40.1737 62.9231 40.0645 62.7656C39.9808 62.6458 39.817 62.5271 39.7615 62.4015C39.6281 62.1177 39.6769 61.8157 39.4098 61.5676C39.1787 61.3512 38.9581 61.1286 38.7291 60.9039C38.5135 60.6961 38.3369 60.5251 38.0311 60.5241C37.6056 60.5224 37.3677 60.8011 37.0585 61.0476C36.9407 61.1407 36.695 61.3818 36.6597 61.5322C36.6044 61.7748 36.7936 61.7805 36.846 61.9852C36.8925 62.1616 36.8055 62.2052 36.6864 62.3201C36.5599 62.4463 36.3983 62.4701 36.2896 62.5789C36.4579 62.8319 36.5424 63.116 36.7504 63.3529C36.8354 63.4508 36.9364 63.5219 37.0098 63.63C37.1037 63.7614 37.1391 63.9127 37.2164 64.0396C37.3151 64.2033 37.4228 64.4669 37.5554 64.5863C37.727 64.7426 38.071 64.767 38.2894 64.847C38.6942 64.994 39.066 65.2654 39.4454 65.4411C39.5757 65.5022 39.6501 65.5396 39.7924 65.5551C39.9825 65.5743 40.1254 65.621 40.3123 65.6527C40.6942 65.7182 40.8217 65.5213 40.9485 65.2265C41.0934 64.8966 41.355 64.8638 41.0987 64.5076C41.0151 64.3879 40.8701 64.2652 40.8156 64.1355C40.7884 64.0706 40.6795 63.7446 40.9085 63.885L40.9063 63.8933Z" fill="#B18840"/>
<path d="M96.502 80.237L96.5022 80.3036C96.5049 79.7231 96.7368 79.2654 97.3052 79.0121C97.6014 78.8819 97.857 78.7543 98.1359 78.5885C98.3037 78.4909 98.5095 78.3502 98.7253 78.4738C98.7872 78.5079 98.8391 78.5971 98.8768 78.6558C98.997 78.8385 98.944 78.8378 99.159 78.8636C99.4176 78.8921 99.5996 78.8249 99.8099 79.0358C99.929 79.156 100.042 79.3812 100.086 79.5348C100.098 79.5734 100.182 79.7909 100.182 79.8086C100.188 79.9387 100.129 79.9411 100.109 80.0511C100.061 80.3667 100.127 81.0053 99.7075 81.1338C99.4651 81.2116 99.05 81.1373 98.7961 81.1411C98.5557 81.1441 98.2634 81.1422 98.0472 81.0539C97.8238 80.9593 97.916 80.6776 97.7169 80.5584C97.6209 80.5019 97.2124 80.4027 97.1099 80.4377C96.8916 80.5086 96.9654 80.8165 96.7039 80.7651C96.3626 80.697 96.5768 80.3233 96.5949 80.1373" fill="#B18840"/>
<path d="M107.121 71.3384L107.052 71.3333C107.433 71.5674 107.726 71.2811 107.943 70.9657C108.008 70.8719 108.202 70.6748 108.228 70.5753C108.271 70.4136 108.131 70.3722 108.122 70.2056C107.852 70.152 107.705 70.0553 107.457 70.1851C107.247 70.2936 107.137 70.4242 107.035 70.6413C106.984 70.7519 106.983 70.8226 106.886 70.9035C106.811 70.968 106.669 70.9348 106.619 71.0548C106.526 71.2741 106.875 71.4151 107.017 71.4972C107.036 71.4579 107.072 71.4407 107.121 71.4403" fill="#B18840"/>
<path d="M103.995 77.2546C103.997 77.3795 103.933 77.4556 103.817 77.4561C103.636 77.1196 103.217 77.0578 103.161 76.6482C103.11 76.2709 103.499 75.9433 103.777 75.7286C103.982 75.5743 104.406 75.5 104.623 75.6683C104.759 75.7753 104.773 75.9388 104.831 76.0873C104.909 76.2808 104.916 76.2559 104.835 76.4431C104.812 76.4948 104.823 76.5907 104.79 76.6308C104.734 76.7091 104.625 76.7337 104.574 76.8089C104.499 76.9265 104.459 77.1111 104.5 77.2552C104.537 77.3847 104.768 77.5169 104.729 77.6661C104.71 77.7366 104.523 77.8558 104.45 77.8631C104.276 77.8836 104.11 77.7243 104.037 77.5631C103.982 77.4375 104.007 77.209 103.888 77.1064C103.753 76.9954 103.536 77.0756 103.366 77.0483C103.004 76.9924 103.059 76.8694 103.052 76.5437" fill="#B18840"/>
<g style="mix-blend-mode:multiply" opacity="0.63">
<path d="M89.0921 82.5224C89.0921 82.5224 95.3475 85.0379 100.852 82.7275C106.358 80.4129 114.191 70.8084 116.388 66.4607C118.581 62.1119 120.267 58.2899 120.267 58.2899C120.267 58.2899 124.24 57.8946 122.578 63.6218C120.917 69.3489 104.16 98.5978 104.16 98.5978L89.0951 82.5277L89.0921 82.5224Z" fill="#B18840"/>
</g>
<g style="mix-blend-mode:multiply" opacity="0.63">
<path d="M30.3787 59.551C30.3787 59.551 38.6151 68.6152 44.5186 70.6161C50.4222 72.617 56.6439 72.4927 56.6439 72.4927C56.6439 72.4927 52.5128 74.3235 50.1389 77.9811C47.765 81.6388 47.1142 86.1116 47.1142 86.1116L30.3869 60.2409L30.3787 59.551Z" fill="#B18840"/>
</g>
<path d="M76.9284 114.535C75.9485 111.782 72.7565 109.359 70.5505 107.568C66.69 104.435 62.257 102.007 57.5667 100.367C55.1874 99.5336 52.6575 100.896 52.2648 103.454C52.1862 103.953 52.0994 104.449 52.0042 104.942C46.7763 111.07 43.1248 118.25 39.1357 125.229C36.7919 128.203 34.3751 131.117 31.9474 133.988C28.9836 137.494 34.2874 141.746 37.5366 139.207C38.1513 139.214 38.7617 139.087 39.3233 138.792C50.05 133.143 60.9544 127.811 71.7421 122.266C74.8851 120.649 78.4423 118.791 76.9242 114.534L76.9284 114.535Z" fill="#D5B366"/>
<path d="M31.9387 139.07C31.9387 139.07 66.8429 103.305 66.4017 103.312C65.9605 103.32 64.3259 101.432 64.3259 101.432L31.0323 137.029L31.9387 139.07Z" fill="#00FDFF"/>
<path d="M33.9989 139.633C33.9989 139.633 51.3859 110.533 52.5367 108.615C53.6874 106.697 53.9602 105.078 53.9602 105.078L53.922 101.852C53.922 101.852 31.2981 134.682 31.1742 136.441C31.0504 138.201 31.7981 139.366 32.5349 139.649C33.2718 139.933 33.9989 139.633 33.9989 139.633Z" fill="#F8F7F1"/>
<path d="M46.825 126.331C46.994 126.296 47.1212 126.05 47.2569 125.94C47.5661 125.693 47.8402 125.429 48.0282 125.07C48.152 124.837 48.2546 124.718 48.2488 124.454C48.2396 124.137 48.2511 123.976 48.4983 123.779C48.5772 123.716 48.6766 123.676 48.7533 123.621C48.8562 123.55 48.8862 123.487 48.9777 123.409C49.1724 123.243 49.35 123.193 49.5739 123.252C50.0341 123.374 50.6241 123.29 51.1225 123.285C51.3587 123.281 51.589 123.248 51.7816 123.392C52.0422 123.581 51.8998 123.65 51.8456 123.889C51.7856 124.165 51.8951 124.221 51.6779 124.439C51.5218 124.593 51.3503 124.738 51.2158 124.911C50.9055 125.312 51.1386 125.84 50.6785 126.171C50.5262 126.277 50.3269 126.393 50.1644 126.487C49.9704 126.6 49.7652 126.621 49.5651 126.723C49.0937 126.963 48.6135 127.235 48.0734 127.247C47.806 127.252 47.6452 127.138 47.447 126.948C47.2427 126.748 47.08 126.474 46.8239 126.336L46.825 126.331Z" fill="#B18840"/>
<path d="M42.9781 132.155L43.0594 132.216C43.3846 132.094 43.0896 131.532 42.9994 131.353C42.7967 130.962 42.5973 131.011 42.2489 131.154C42.1694 131.186 42.084 131.275 41.993 131.233C41.9061 131.192 41.9643 131.123 41.9122 131.052C41.8192 130.934 41.6643 130.849 41.52 130.824C41.3757 130.799 41.2087 130.844 41.1044 130.936C41.0002 131.028 40.9461 131.182 40.8765 131.328C40.7714 131.558 40.5782 131.919 40.8309 132.154C40.8843 132.204 40.9633 132.207 41.0189 132.249C41.1374 132.338 41.1183 132.359 41.2009 132.483C41.2926 132.623 41.3529 132.63 41.4853 132.682C41.597 132.73 41.7273 132.791 41.8484 132.836C42.0419 132.91 42.0468 132.858 42.2193 132.792C42.5017 132.681 42.7713 132.517 42.7905 132.176L42.872 132.153" fill="#B18840"/>
<g style="mix-blend-mode:multiply" opacity="0.63">
<path d="M52.0166 104.409C52.0166 104.409 57.2013 104.347 60.0176 108.46C62.8327 112.576 63.2263 116.371 62.3892 118.63C61.5522 120.888 50.6343 132.778 50.6343 132.778L77.786 119.309C77.786 119.309 76.136 111.375 70.1934 106.436C64.2561 101.493 53.7355 99.9569 53.7355 99.9569L52.0166 104.409Z" fill="#B18840"/>
</g>
<mask id="mask1_5624_7745" style="mask-type:luminance" maskUnits="userSpaceOnUse" x="46" y="67" width="31" height="25">
<path d="M48.9602 91.795C48.9602 91.795 50.9116 83.4117 59.0501 77.4504C67.1886 71.489 76.0045 72.845 76.0045 72.845L71.5561 68.6471L65.8257 67.8366C65.8257 67.8366 59.2529 69.8245 54.3237 74.7227C49.3987 79.622 46.7029 87.2805 46.7029 87.2805L48.9591 91.7992L48.9602 91.795Z" fill="white"/>
</mask>
<g mask="url(#mask1_5624_7745)">
<path d="M53.3936 75.5236L57.7993 79.1113C57.7993 79.1113 59.0415 77.1995 61.446 75.9589C63.8504 74.7184 66.2889 74.3386 65.8977 73.9556C65.3649 73.4376 61.7958 70.0578 61.7958 70.0578C61.7958 70.0578 58.8728 71.0282 56.6412 72.4875C54.4096 73.9468 53.3906 75.5183 53.3906 75.5183L53.3936 75.5236Z" fill="#F8F7F1"/>
<path d="M48.6684 83.2219L51.9855 85.7764L50.8009 88.0406L48.008 85.6514L48.6684 83.2219Z" fill="#F8F7F1"/>
<path d="M63.5214 69.5207C63.3573 70.0407 68.7122 73.7465 68.7122 73.7465L72.6854 73.3513L67.6657 68.7804C67.6657 68.7804 66.4269 68.08 64.9734 68.6271C63.5199 69.1743 63.5256 69.5218 63.5256 69.5218L63.5214 69.5207Z" fill="#F8F7F1"/>
</g>
<mask id="mask2_5624_7745" style="mask-type:luminance" maskUnits="userSpaceOnUse" x="91" y="107" width="27" height="25">
<path d="M91.0612 129.116C91.0612 129.116 97.5587 126.926 104.764 119.848C111.862 112.871 114.262 107.423 114.262 107.423L117.1 111.786C117.1 111.786 115.031 116.624 109.346 122.72C103.121 129.396 95.7865 131.546 95.7865 131.546L91.0623 129.112L91.0612 129.116Z" fill="white"/>
</mask>
<g mask="url(#mask2_5624_7745)">
<path d="M96.0249 126.352L100.961 130.182L103.703 128.419L99.1148 124.583L96.0249 126.352Z" fill="#F8F7F1"/>
<path d="M101.775 122.159L106.467 126.492C106.467 126.492 108.345 124.74 109.202 123.866L111.252 121.769L107.153 117.224C107.153 117.224 105.702 117.963 104.34 119.537C102.979 121.111 101.779 122.16 101.779 122.16L101.775 122.159Z" fill="#F8F7F1"/>
<path d="M110.802 112.368L114.436 117.247L115.794 115.331L111.986 110.104L110.802 112.368Z" fill="#F8F7F1"/>
</g>
<path d="M48.5298 84.0814C40.6243 73.5653 33.512 62.5492 26.6427 51.3357C25.4908 49.4516 22.5201 51.1723 23.6751 53.0617C30.5444 64.2752 37.6566 75.2913 45.5622 85.8074C46.8752 87.5522 49.855 85.8472 48.5298 84.0814Z" fill="black"/>
<path d="M45.4554 85.673C44.5278 88.928 45.4315 92.3879 47.7871 94.8034C49.3333 96.3881 51.758 93.9639 50.2202 92.3814C48.6823 90.799 48.1769 88.6511 48.7736 86.5464C49.3703 84.4416 46.0628 83.5445 45.4565 85.6689L45.4554 85.673Z" fill="black"/>
<path d="M48.0613 95.0931L52.3075 100.307C52.8938 101.025 54.1239 100.92 54.7335 100.31C55.4443 99.6016 55.3268 98.6033 54.7364 97.8837L50.4901 92.67C49.9038 91.9515 48.6738 92.0565 48.0642 92.6671C47.3533 93.3753 47.4708 94.3735 48.0613 95.0931Z" fill="black"/>
<path d="M30.2486 133.685C28.6849 136.058 28.5252 139.077 30.8004 141.058C33.3881 143.318 36.6101 142.693 39.5211 141.533C41.5493 140.725 40.6603 137.411 38.6039 138.225C37.1019 138.821 35.2998 139.68 33.7042 138.903C32.1085 138.126 32.3598 136.706 33.2129 135.41C34.4292 133.562 31.4586 131.845 30.2497 133.681L30.2486 133.685Z" fill="black"/>
<path d="M26.0491 50.611C25.4272 49.6079 24.2227 47.6877 25.1933 46.9197C26.265 46.0719 28.3246 46.0844 29.579 47.095C31.283 48.4685 33.7315 46.0551 32.012 44.673C29.4847 42.638 25.7991 42.1644 23.1184 44.2147C20.4376 46.265 21.5313 49.8284 23.0868 52.3339C24.2492 54.2119 27.2199 52.4912 26.0544 50.6079L26.0491 50.611Z" fill="black"/>
<path d="M30.6303 47.7146C42.0954 54.7536 53.6105 61.7038 65.1629 68.5973C67.0637 69.7301 68.7842 66.7647 66.8917 65.6341C55.3393 58.7406 43.8242 51.7904 32.3591 44.7514C30.4743 43.5918 28.7526 46.5613 30.6303 47.7146Z" fill="black"/>
<path d="M66.463 69.234C68.1744 69.0035 70.1927 69.0716 71.7118 69.9703C73.6148 71.0948 75.3406 68.1264 73.4406 67.0072C71.4189 65.8113 68.734 65.4959 66.4297 65.8047C65.5052 65.9284 64.7334 66.5316 64.7332 67.5387C64.7332 68.3772 65.551 69.361 66.4672 69.2351L66.463 69.234Z" fill="black"/>
<path d="M71.9692 70.0209L79.0383 76.2697C80.6892 77.7268 83.1241 75.3142 81.4713 73.8477L74.4022 67.5989C72.7514 66.1418 70.3164 68.5544 71.9692 70.0209Z" fill="black"/>
<path d="M81.7444 77.3447C93.9096 71.9428 105.907 66.1682 117.753 60.0961C119.723 59.0868 117.991 56.1264 116.027 57.1285C104.177 63.1995 92.1836 68.9752 80.0184 74.3771C78.0026 75.2724 79.7443 78.2309 81.7444 77.3447Z" fill="black"/>
<path d="M117.094 60.5738C118.149 60.2095 120.716 58.7725 121.276 60.3937C121.676 61.5507 121.196 63.0787 120.615 64.083C119.506 65.9945 122.475 67.7203 123.579 65.8118C124.786 63.731 125.383 60.717 124.195 58.4995C122.452 55.2435 118.956 56.3017 116.177 57.2656C114.101 57.9853 114.999 61.2974 117.094 60.5738Z" fill="black"/>
<path d="M120.592 64.1347C114.616 74.8517 108.014 85.221 102.381 96.131C101.37 98.0907 104.333 99.8237 105.345 97.8598C110.977 86.9499 117.578 76.5847 123.555 65.8635C124.629 63.9338 121.666 62.205 120.592 64.1347Z" fill="black"/>
<path d="M118.417 123.358C121.673 118.363 120.233 111.412 116.757 106.943C115.399 105.2 112.987 107.645 114.324 109.365C116.89 112.662 117.808 118.015 115.454 121.629C114.245 123.483 117.216 125.201 118.417 123.358Z" fill="black"/>
<path d="M103.106 98.594L114.071 109.015C115.674 110.534 118.106 108.117 116.504 106.593L105.539 96.1721C103.935 94.6521 101.503 97.07 103.106 98.594Z" fill="black"/>
<path d="M77.1889 121.232L92.2469 132.264C94.0268 133.569 95.7371 130.592 93.9757 129.301L78.9177 118.268C77.1379 116.964 75.4276 119.941 77.1889 121.232Z" fill="black"/>
<path d="M92.1028 132.289C96.2877 135.05 102.373 135.427 107.135 134.278C109.282 133.759 108.369 130.452 106.218 130.969C102.303 131.917 97.2649 131.591 93.8316 129.325C91.9839 128.109 90.2664 131.08 92.1028 132.289Z" fill="black"/>
<path d="M107.051 133.235C141.475 163.286 175.967 193.261 210.44 223.254C244.936 253.266 279.387 283.329 313.836 313.399L371.801 364.003C373.46 365.449 375.899 363.037 374.234 361.581C339.775 331.499 305.321 301.413 270.856 271.338C236.429 241.3 201.94 211.33 167.471 181.338C148.13 164.509 128.795 147.674 109.483 130.817C107.825 129.372 105.386 131.783 107.05 133.239L107.051 133.235Z" fill="black"/>
<path d="M115.286 124.296C142.232 148.784 169.818 172.563 197.469 196.252C226.736 221.323 256.1 246.282 285.119 271.638C301.685 286.113 318.135 300.721 334.389 315.549C336.019 317.036 338.455 314.619 336.822 313.127C307.973 286.809 278.501 261.187 248.877 235.751C220.198 211.124 191.362 186.682 162.84 161.879C147.674 148.688 132.598 135.392 117.723 121.875C116.092 120.392 113.656 122.809 115.29 124.297L115.286 124.296Z" fill="black"/>
<path d="M107.651 132.866C109.482 131.846 111.189 130.559 112.706 129.119C114.222 127.679 115.608 126.062 116.405 124.157C116.627 123.621 116.566 123.011 116.017 122.688C115.567 122.427 114.775 122.537 114.548 123.076C113.817 124.834 112.559 126.303 111.191 127.6C109.823 128.897 108.251 130.079 106.57 131.014C105.363 131.688 106.443 133.54 107.65 132.87L107.651 132.866Z" fill="black"/>
<path d="M48.9009 84.8762C50.8355 78.9551 55.5786 74.123 60.9883 71.2152C62.5037 70.4005 64.0929 69.7428 65.7421 69.2607C67.0645 68.8741 66.4987 66.8034 65.1711 67.1931C58.7131 69.0827 52.8753 73.4744 49.265 79.1563C48.2391 80.7704 47.4184 82.5142 46.8267 84.3319C46.3999 85.6431 48.4742 86.1874 48.8998 84.8803L48.9009 84.8762Z" fill="black"/>
<path d="M79.1344 119.444C77.3121 110.87 71.2667 103.552 63.1712 100.177C60.6617 99.1317 58.0573 98.4783 55.3553 98.1938C54.7767 98.1339 54.2908 98.7463 54.2919 99.279C54.2968 99.9147 54.7995 100.278 55.377 100.342C63.7032 101.218 71.1216 106.415 74.9037 113.853C75.8955 115.805 76.6111 117.88 77.0657 120.019C77.3521 121.368 79.4208 120.793 79.1333 119.448L79.1344 119.444Z" fill="black"/>
<path d="M81.1587 77.3273L97.7879 92.8352L102.549 97.2756C103.56 98.2173 105.079 96.7026 104.068 95.7608L87.4387 80.253L82.6774 75.8125C81.6666 74.8708 80.1479 76.3856 81.1587 77.3273Z" fill="black"/>
<path d="M33.3613 135.099C41.2194 123.908 48.3857 112.264 55.3744 100.519C56.5072 98.6183 53.5388 96.8926 52.4112 98.7903C45.4173 110.538 38.2562 122.179 30.3981 133.37C29.125 135.18 32.102 136.891 33.3613 135.099Z" fill="black"/>
<path d="M39.9943 141.37L77.691 121.764C79.6555 120.744 77.9242 117.78 75.965 118.796L38.2683 138.402C36.3038 139.422 38.035 142.386 39.9943 141.37Z" fill="black"/>
</g>
<path d="M257.786 266.106C257.786 266.106 262.573 263.925 264.937 260.505C267.302 257.084 268.805 252.074 268.805 252.074" stroke="black" stroke-width="3.63" stroke-linecap="round" stroke-linejoin="round"/>
</svg>
