<svg width="486" height="400" viewBox="0 0 486 400" fill="none" xmlns="http://www.w3.org/2000/svg">
<mask id="mask0_7149_5423" style="mask-type:luminance" maskUnits="userSpaceOnUse" x="58" y="33" width="367" height="344">
<path d="M311.308 251.636C311.308 251.636 311.237 255.898 308.185 260.694C305.133 265.49 299.854 266.56 299.854 266.56C299.854 266.56 120.822 123.986 120.157 124.573C119.491 125.16 76.5916 147.697 75.6273 148.458C74.663 149.219 62.4482 133.76 62.4482 133.76L85.6265 94.2896L58.0083 47.5037L71.1648 33.4068C71.1648 33.4068 124.184 66.0297 125.027 65.7426C125.871 65.4555 170.576 50.5341 170.576 50.5341L176.37 59.4536L157.093 97.6627L170.398 111.883L171.422 124.381C171.422 124.381 401.972 319.878 402.625 320.308C403.279 320.738 424.213 366.781 424.213 366.781L416.378 376.172L325.549 292.576C325.549 292.576 329.138 293.197 335.409 290.455C337.607 289.493 341.474 288.222 342.178 286.501C343.506 283.258 346.485 281.558 346.485 281.558L311.31 251.646L311.308 251.636Z" fill="white"/>
</mask>
<g mask="url(#mask0_7149_5423)">
<path d="M104.716 63.9677C99.2301 61.6292 94.6952 57.6745 89.7914 54.3765C84.869 51.0646 79.4523 48.6824 73.9969 46.3963C73.9565 46.3812 73.9162 46.366 73.8758 46.3509C71.5505 42.3952 65.1824 46.0077 67.2852 50.335C72.366 60.7959 83.0388 68.0291 85.9862 79.545C86.6864 82.2812 90.9461 82.9998 92.5533 80.7143C95.5099 76.5143 99.5719 72.8817 104.45 71.0798C107.542 69.9371 107.831 65.2887 104.71 63.9572L104.716 63.9677Z" fill="#CA8A01"/>
<path d="M160.321 58.8417C151.7 63.0696 142.92 66.8781 134.033 70.5032C133.611 70.6753 133.258 70.9191 132.965 71.2054C131.86 71.3079 131.025 71.8988 130.492 72.7207C127.255 72.3614 124.333 77.3026 127.477 79.5051C133.185 83.5039 138.362 87.7482 142.778 93.1754C144.897 95.7811 149.189 94.5163 149.639 91.2236C150.34 86.0722 153.103 81.599 156.105 77.4641C159.295 73.0686 162.657 68.8429 165.229 64.0353C166.748 61.1941 163.295 57.3748 160.318 58.8365L160.321 58.8417Z" fill="#CA8A01"/>
<path d="M159.279 108.112C158.817 107.529 158.174 107.106 157.469 106.853C156.88 105.863 155.579 105.967 154.679 105.174C154.729 104.3 153.46 103.68 152.647 102.827C146.661 96.5271 138.623 89.6493 134.354 84.8202C134.037 84.4612 133.528 84.4064 133.089 84.3525C132.996 84.0704 132.875 83.7899 132.725 83.5153C131.811 81.8051 130.437 80.4922 128.833 79.5798C126.02 77.0832 122.894 74.9787 119.576 73.1514C119.575 73.0713 119.572 72.9953 119.567 72.9141C119.455 71.4957 118.482 69.8543 116.978 69.5051C105.587 66.8645 93.6417 73.2962 90.8558 84.968C90.6207 85.9573 90.7054 86.8448 91.003 87.5979C90.9906 87.7454 90.9699 87.8908 90.9564 88.0425C90.9269 88.3719 90.958 88.6906 91.0381 88.9913C91.0151 89.0784 90.9962 89.1666 90.9784 89.2506C90.6299 90.8531 91.6194 92.2949 92.9785 93.0271C93.0884 93.2825 93.2275 93.5278 93.4056 93.7435C95.8143 96.6965 99.0975 98.2216 102.634 99.41C104.944 100.185 107.331 100.808 109.27 102.23C109.68 102.592 110.095 102.954 110.505 103.315C110.957 103.719 111.423 103.989 111.885 104.151C111.937 104.209 111.988 104.267 112.041 104.316C115.838 108.027 118.447 112.537 119.928 117.622C120.317 118.968 121.445 119.75 122.706 119.999C122.889 120.296 123.098 120.564 123.333 120.799C125.336 122.784 127.426 124.681 129.624 126.452C131.671 128.102 134.04 130.268 136.739 130.663C136.79 130.672 136.839 130.672 136.886 130.68C137.444 131.369 138.191 131.868 139.007 131.849C140.035 131.823 141.215 132.357 142.299 132.404C143.29 132.449 144.3 132.388 145.278 132.243C146.801 132.02 148.307 131.545 149.714 130.923C152.314 129.779 154.657 127.865 156.477 125.698C160.495 120.923 163.68 113.664 159.282 108.1L159.279 108.112Z" fill="#FFCA1B"/>
<g style="mix-blend-mode:multiply" opacity="0.6">
<path d="M94.1383 86.5462C94.2669 87.0328 139.205 125.65 139.024 126.352C138.843 127.054 134.859 129.048 134.859 129.048C134.859 129.048 111.49 115.12 106.815 110.321C102.141 105.517 93.7579 95.2964 93.7579 95.2964L91.1787 93.0214L94.1372 86.5504L94.1383 86.5462Z" fill="#E4950B"/>
</g>
<path d="M91.9602 91.795C91.9602 91.795 93.9116 83.4117 102.05 77.4504C110.189 71.489 119.004 72.845 119.004 72.845L114.556 68.6471L108.826 67.8366C108.826 67.8366 102.253 69.8245 97.3237 74.7227C92.3987 79.622 89.7029 87.2805 89.7029 87.2805L91.9591 91.7992L91.9602 91.795Z" fill="#FDB700"/>
<path d="M134.061 129.116C134.061 129.116 140.558 126.926 147.763 119.848C154.862 112.871 157.261 107.423 157.261 107.423L160.1 111.786C160.1 111.786 158.031 116.624 152.345 122.72C146.121 129.396 138.786 131.546 138.786 131.546L134.062 129.112L134.061 129.116Z" fill="#FDB700"/>
<path d="M395.105 334.916C390.162 329.052 385.112 323.386 379.69 318.021C379.716 317.925 379.746 317.827 379.767 317.731C380.056 316.321 379.523 315.031 378.523 314.048L377.849 313.443C378.088 313.68 378.324 313.911 378.563 314.147C377.859 313.437 377.133 312.762 376.392 312.091L376.288 311.983C376.144 311.839 375.993 311.706 375.838 311.585C375.813 311.565 375.792 311.542 375.766 311.522L375.827 311.578C374.962 310.905 373.913 310.596 372.882 310.736C368.412 305.446 363.309 300.755 357.736 296.615C357.243 296.249 356.666 296.083 356.072 296.064C353.738 293.902 351.404 291.741 349.07 289.575C348.274 288.797 347.462 288.041 346.635 287.294C346.493 286.689 346.168 286.106 345.606 285.598C337.597 278.359 329.62 271.081 321.622 263.832C320.738 263.03 319.77 262.766 318.86 262.871C317.331 261.49 315.702 260.216 313.963 259.06C312.658 257.787 311.354 256.511 310.045 255.237C309.305 254.514 308.478 254.166 307.668 254.094C303.627 249.564 299.582 245.03 295.536 240.503C294.471 239.312 293.011 239.112 291.716 239.515C290.707 238.498 289.698 237.482 288.688 236.469C288.527 236.307 288.359 236.173 288.186 236.052C288.04 235.734 287.834 235.422 287.565 235.13C281.883 228.888 275.434 223.899 268.225 219.521C268.156 219.481 268.086 219.445 268.016 219.408C267.019 218.111 266.189 216.689 265.554 215.115C264.603 212.756 262.182 212.231 260.32 212.914C245.174 199.262 230.025 185.619 214.914 171.937C214.072 171.177 212.87 171.01 211.777 171.267C209.543 169.265 207.31 167.259 205.075 165.257C203.882 163.916 202.515 162.725 201.003 161.682C200.61 161.409 200.202 161.24 199.796 161.15C195.963 157.155 192.054 153.232 188.037 149.433C179.424 141.289 170.494 133.625 161.466 125.958C157.665 122.734 152.6 128.869 156.541 131.899C165.724 138.96 174.415 146.943 182.719 155.013C189.425 161.53 195.969 168.185 202.269 175.096C203.335 176.265 204.651 176.573 205.83 176.308C208.833 179.01 211.838 181.704 214.846 184.403C216.887 186.615 219.144 188.632 221.581 190.439C222.668 191.246 223.773 191.41 224.74 191.159C238.371 203.461 251.994 215.778 265.618 228.086C266.677 229.014 267.844 229.216 268.887 228.96C269.747 229.533 270.596 230.131 271.431 230.75C271.539 231.48 271.886 232.233 272.546 232.94C276.811 237.546 281.418 241.8 286.331 245.699C292.135 252.421 298.661 258.49 305.878 263.696C306.187 263.919 306.497 264.09 306.811 264.226C307.99 265.155 309.189 266.053 310.425 266.917C310.57 267.022 310.721 267.106 310.868 267.185C312.258 268.507 313.676 269.787 315.135 271.029C316.652 272.508 318.172 273.988 319.689 275.468C320.372 276.137 321.226 276.566 322.112 276.69C322.202 277.641 322.678 278.574 323.663 279.31C334.882 287.65 345.079 297.233 354.105 307.908C355.204 309.205 357.057 309.598 358.578 308.98C361.517 311.705 364.458 314.422 367.403 317.144C367.366 319.246 369.451 320.853 371.533 320.85C377.777 326.663 383.811 332.882 388.986 339.65C392.015 343.614 398.298 338.728 395.097 334.931L395.105 334.916Z" fill="#FFCA1B"/>
<path d="M216.98 175.092C216.589 175.836 216.748 176.743 217.376 177.304C231.05 189.541 372.235 315.862 374.34 316.814C376.551 317.812 379.315 316.018 379.315 316.018L375.745 311.955L217.174 174.731L216.98 175.092Z" fill="#F8F7F1"/>
<path d="M154.638 128.61C154.638 128.61 155.142 129.018 155.222 129.084C168.368 140.166 398.137 341.365 398.137 341.365L406.682 353.488L151.4 132.665L154.638 128.61Z" fill="#E4950B"/>
<path d="M417.389 362.105C404.497 346.539 392.19 330.506 380.494 314.028C379.223 312.241 376.246 313.951 377.526 315.754C389.395 332.469 401.883 348.74 414.956 364.527C416.368 366.232 418.788 363.793 417.389 362.105Z" fill="black"/>
<path d="M164.735 143.552L167.253 145.722C167.253 145.722 167.341 141.03 167.609 138.678C167.876 136.326 168.859 132.944 168.859 132.944L166.34 130.627C166.34 130.627 165.087 136.068 164.821 138.415C164.555 140.763 164.736 143.548 164.736 143.548L164.735 143.552Z" fill="white"/>
<path d="M179.566 157.156C179.566 157.156 178.778 152.622 179.172 148.951C179.566 145.279 179.675 142.052 179.675 142.052L182.784 144.653C182.784 144.653 182.233 147.591 181.983 150.968C181.734 154.344 182.821 159.609 182.821 159.609L179.566 157.156Z" fill="white"/>
<path d="M194.685 170.458L197.352 172.77C197.352 172.77 196.101 166.481 196.208 163.107C196.316 159.732 197.006 156.352 197.006 156.352L194.044 153.896C194.044 153.896 193.652 157.861 193.699 161.524C193.745 165.188 194.241 170.022 194.241 170.022L194.686 170.454L194.685 170.458Z" fill="white"/>
<path d="M209 166.033L208.912 182.753C208.912 182.753 211.735 185.798 211.585 185.359C211.435 184.92 210.613 177.746 210.87 174.811C211.128 171.876 211.389 169.38 211.389 169.38L209.003 166.039L209 166.033Z" fill="white"/>
<path d="M224.874 180.942L225.059 196.19C225.059 196.19 227.602 200.266 227.591 199.384C227.58 198.503 227.688 183.253 227.688 183.253L224.874 180.942Z" fill="white"/>
<path d="M241.024 194.824L241.963 211.82C241.963 211.82 244.785 214.718 244.924 214.276C245.063 213.833 244.909 212.958 244.909 212.958L243.975 196.398L241.024 194.824Z" fill="white"/>
<path d="M257.916 209.137L259.731 225.686L262.704 229.023C262.704 229.023 261.128 219.951 261.253 218.338C261.378 216.725 261.474 212.323 261.474 212.323L257.914 209.141L257.916 209.137Z" fill="white"/>
<path d="M274.074 223.309L275.748 240.592L278.858 243.194L278.981 241.283L277.617 225.612L274.074 223.309Z" fill="white"/>
<path d="M290.676 238.064L293.378 255.336C293.378 255.336 297.393 259.831 297.236 259.249C297.08 258.666 293.773 239.788 293.773 239.788L290.67 238.067L290.676 238.064Z" fill="white"/>
<path d="M305.489 250.492L309.392 269.949C309.392 269.949 313.256 274.01 313.101 273.57C312.947 273.13 308.742 252.652 308.742 252.652L305.489 250.492Z" fill="white"/>
<path d="M322.539 265.685L326.884 285.281L329.854 288.325C329.854 288.325 327.283 269.735 326.982 269.296C326.682 268.857 322.539 265.685 322.539 265.685Z" fill="#00FDFF"/>
<path d="M340.021 280.429L343.92 299.588L347.778 303.501L343.121 282.296L340.021 280.429Z" fill="white"/>
<path d="M357.069 295.764L362.744 316.222C362.744 316.222 366.763 321.305 366.76 320.865C366.756 320.424 361.064 298.791 361.064 298.791L357.07 295.76L357.069 295.764Z" fill="white"/>
<path d="M380.372 318.796L386.454 336.611C386.454 336.611 390.618 341.545 390.614 340.959C390.609 340.372 384.833 323.871 384.833 323.871L380.374 318.792L380.372 318.796Z" fill="white"/>
<path d="M128.923 109.661L128.983 109.668C128.584 109.314 129.837 108.753 129.986 108.677C130.392 108.466 131.187 108.379 131.571 108.724C131.746 108.881 131.886 109.091 132.065 109.254C132.201 109.379 132.357 109.473 132.479 109.617C132.63 109.785 132.759 109.917 132.946 110.05C133.042 110.12 133.192 110.191 133.27 110.283C133.348 110.374 133.331 110.454 133.392 110.541C133.514 110.72 133.734 110.845 133.849 111.048C133.951 111.23 134.056 111.489 133.998 111.709C133.961 111.845 133.844 112.023 133.781 112.157C133.704 112.314 133.603 112.531 133.399 112.579C133.162 112.637 132.769 112.244 132.579 112.092C132.264 111.84 132.053 111.78 131.694 111.68C131.582 111.651 131.565 111.562 131.422 111.582C131.335 111.594 131.314 111.691 131.222 111.702C131.038 111.728 130.867 111.55 130.706 111.49C130.446 111.399 130.17 111.317 129.898 111.192C129.625 111.066 129.296 111.033 129.043 110.833C128.849 110.679 128.657 110.447 128.721 110.171C128.776 109.932 128.935 109.832 128.928 109.658L128.923 109.661Z" fill="#D28F00"/>
<path d="M138.3 100.26C138.013 100.22 137.948 100.047 137.787 99.8494C137.663 99.7011 137.491 99.6113 137.325 99.5362C137.19 99.474 137.056 99.4296 136.924 99.3727C136.693 99.2759 136.724 99.2087 136.561 99.0369C136.319 98.7776 135.852 99.151 135.671 99.3649C135.586 99.4668 135.524 99.6188 135.434 99.706C135.291 99.8456 135.103 99.7161 134.964 99.8567C134.807 100.015 134.85 100.74 134.979 100.925C135.069 101.051 135.295 101.204 135.424 101.305C135.585 101.432 135.769 101.441 135.941 101.548C136.123 101.663 136.25 101.856 136.408 101.996C136.591 102.159 136.771 102.3 136.964 102.444C137.13 102.568 137.315 102.657 137.507 102.77C137.672 102.867 137.804 103.057 138.009 103.071L138.049 103.237C138.382 103.254 138.316 103.485 138.624 103.145C138.767 102.988 138.869 102.82 138.977 102.631C139.072 102.456 139.185 102.331 139.256 102.163C139.35 101.944 139.364 101.908 139.25 101.7C139.095 101.415 138.937 101.121 138.755 100.855C138.53 100.53 138.114 100.477 137.889 100.169" fill="#D28F00"/>
<path d="M129.468 95.0047C129.414 94.773 129.618 94.5386 129.567 94.2768C129.547 94.1693 129.473 94.1142 129.449 94.0016C129.424 93.8795 129.493 93.7379 129.444 93.6187C129.388 93.4795 129.2 93.4031 129.112 93.2823C128.994 93.1225 128.932 92.9552 128.914 92.7553C128.781 92.7202 128.545 92.7065 128.408 92.7411C128.313 92.7647 128.307 92.8344 128.213 92.858C128.132 92.8767 128.044 92.8402 127.958 92.866C127.853 92.8916 127.724 92.9949 127.643 93.0667C127.482 93.2059 127.518 93.2689 127.473 93.4742C127.333 93.4151 127.216 93.322 127.104 93.5098C127.032 93.6326 127.069 93.8953 127.137 94.0065C127.205 94.1177 127.385 94.2408 127.502 94.285C127.692 94.3573 127.929 94.4823 128.125 94.512C128.339 94.542 128.417 94.5004 128.581 94.668C128.7 94.7882 128.803 94.9041 128.933 95.014C129.057 95.1177 129.265 95.3369 129.457 95.197C129.627 95.0734 129.571 94.7658 129.572 94.5931" fill="#D28F00"/>
<path d="M117.246 82.2598C117.592 82.3425 117.716 81.9582 117.655 81.6848C117.611 81.5001 117.517 81.1337 117.364 80.9912C117.153 80.7979 116.892 81.0659 116.693 81.111C116.533 81.1483 116.351 81.0959 116.195 81.1344C116.057 81.1689 115.967 81.2426 115.805 81.2664C115.796 81.3838 115.68 81.4551 115.676 81.5518C115.668 81.7004 115.81 81.8178 115.899 81.9168C116.07 82.1085 116.223 82.1668 116.442 82.2467C116.685 82.3333 116.99 82.4716 117.247 82.473C117.601 82.4779 117.767 82.1493 117.755 81.8443" fill="#D28F00"/>
<path d="M104.894 84.5778C104.784 84.154 104.436 84.5143 104.276 84.6672C104.163 84.7749 104.095 84.7791 104.068 84.9494C104.041 85.1196 104.234 85.2596 104.167 85.397C104.166 85.4012 103.931 85.5343 103.904 85.5537C103.799 85.6146 103.658 85.6086 103.564 85.6811C103.392 85.8088 103.284 86.2506 103.393 86.4434C103.451 86.5431 103.59 86.6729 103.661 86.7717C103.733 86.8705 103.799 86.9723 103.872 87.0804C104.037 87.3282 104.28 87.5167 104.498 87.7163C104.628 87.8304 104.86 88.0073 104.932 88.1549C105.073 88.445 104.987 88.8038 105.081 89.1036C105.251 89.6677 105.942 89.8374 106.432 89.9138C106.671 89.9503 106.897 89.9034 107.131 89.9212C107.383 89.9433 107.6 90.0098 107.86 90.0164C108.225 90.0287 108.526 90.2325 108.891 90.0097C109.024 89.9293 109.109 89.7921 109.193 89.6414C109.277 89.4906 109.405 89.3249 109.472 89.1739C109.596 88.8874 109.653 88.4898 109.536 88.1927C109.42 87.8957 109.121 87.515 108.906 87.2718C108.657 86.9886 108.346 86.9906 108.047 86.7961C107.686 86.5675 107.382 86.2388 107.028 86.003C106.809 85.8564 106.599 85.6455 106.352 85.5225C106.032 85.3579 105.707 85.21 105.439 84.966C105.196 84.7422 105.031 84.5786 104.892 84.5861L104.894 84.5778Z" fill="#D28F00"/>
<path d="M67.4986 45.7554L97.4597 73.8404L99.644 72.4928L69.6841 44.5545L67.4986 45.7554Z" fill="white"/>
<path d="M103.142 76.6121L148.155 120.178L150.033 118.079L105.326 75.4154L103.142 76.6121Z" fill="white"/>
<path d="M132.185 83.5318L164.586 59.0871C164.586 59.0871 161.197 57.6624 160.913 58.3993C160.629 59.1361 130.699 81.9365 130.699 81.9365L132.185 83.5318Z" fill="white"/>
<path d="M118.142 72.8344L117.653 75.0872L145.978 101.022L150.654 101.656L152.582 103.879C152.582 103.879 147.047 103.772 145.834 103.442C144.622 103.113 115.067 75.6367 114.023 74.9566C112.978 74.2766 113.651 72.8886 113.651 72.8886L118.146 72.8354L118.142 72.8344Z" fill="white"/>
<path d="M131.058 125.238C131.058 125.238 132.532 118.477 132.347 117.616C132.162 116.755 102.251 88.2442 101.382 87.7393C100.513 87.2343 93.1455 92.6809 93.1455 92.6809L94.724 94.5625L100.725 90.5111L129.407 117.477L128.783 123.19L131.054 125.237L131.058 125.238Z" fill="white"/>
<path d="M67.3783 47.9551C67.9673 48.0932 105.32 69.0476 105.32 69.0476L109.705 67.9672C109.705 67.9672 73.8043 45.9683 71.8906 45.4044C69.9768 44.8405 68.0728 45.0111 67.4957 45.7502C66.9187 46.4893 67.3752 47.9499 67.3752 47.9499L67.3783 47.9551Z" fill="#F8F7F1"/>
<path d="M125.649 76.5727C126.09 76.716 126.83 77.2931 129.321 77.1138C131.812 76.9386 161.093 61.0381 162.116 60.8783C163.139 60.7185 165.048 60.6957 165.048 60.6957C165.048 60.6957 163.686 57.3408 160.913 58.3995C158.14 59.4582 125.649 76.5727 125.649 76.5727Z" fill="#F8F7F1"/>
<path d="M114.134 73.0607C114.134 73.0607 127.841 81.518 128.206 81.5126C128.571 81.5072 128.684 80.898 128.684 80.898C128.684 80.898 120.2 72.5005 119.836 72.5017C119.472 72.503 117.899 72.6636 116.923 72.7783C115.97 72.8943 114.143 73.0411 114.135 73.0565L114.134 73.0607Z" fill="#F8F7F1"/>
<path d="M83.9066 63.8933C83.8901 63.8047 83.7397 63.6185 83.6835 63.5459C83.5946 63.4292 83.4827 63.3154 83.3792 63.2037C83.2593 63.0699 83.1739 62.9231 83.0647 62.7656C82.9811 62.6458 82.8173 62.5271 82.7618 62.4015C82.6283 62.1177 82.6772 61.8157 82.4101 61.5676C82.1789 61.3512 81.9583 61.1286 81.7294 60.9039C81.5137 60.6961 81.3371 60.5251 81.0313 60.5241C80.6058 60.5224 80.368 60.8011 80.0588 61.0476C79.941 61.1407 79.6953 61.3818 79.6599 61.5322C79.6046 61.7748 79.7939 61.7805 79.8462 61.9852C79.8927 62.1616 79.8058 62.2052 79.6867 62.3201C79.5601 62.4463 79.3985 62.4701 79.2899 62.5789C79.4581 62.8319 79.5427 63.116 79.7506 63.3529C79.8356 63.4508 79.9366 63.5219 80.01 63.63C80.1039 63.7614 80.1393 63.9127 80.2167 64.0396C80.3153 64.2033 80.4231 64.4669 80.5556 64.5863C80.7272 64.7426 81.0713 64.767 81.2897 64.847C81.6944 64.994 82.0663 65.2654 82.4457 65.4411C82.5759 65.5022 82.6503 65.5396 82.7926 65.5551C82.9827 65.5743 83.1257 65.621 83.3125 65.6527C83.6944 65.7182 83.822 65.5213 83.9487 65.2265C84.0937 64.8966 84.3552 64.8638 84.099 64.5076C84.0153 64.3879 83.8703 64.2652 83.8159 64.1355C83.7887 64.0706 83.6797 63.7446 83.9088 63.885L83.9066 63.8933Z" fill="#AE7700"/>
<path d="M139.502 80.237L139.502 80.3036C139.505 79.7231 139.737 79.2654 140.305 79.0121C140.601 78.8819 140.857 78.7543 141.136 78.5885C141.304 78.4909 141.51 78.3502 141.725 78.4738C141.787 78.5079 141.839 78.5971 141.877 78.6558C141.997 78.8385 141.944 78.8378 142.159 78.8636C142.418 78.8921 142.6 78.8249 142.81 79.0358C142.929 79.156 143.042 79.3812 143.086 79.5348C143.098 79.5734 143.182 79.7909 143.182 79.8086C143.188 79.9387 143.129 79.9411 143.109 80.0511C143.061 80.3667 143.127 81.0053 142.707 81.1338C142.465 81.2116 142.05 81.1373 141.796 81.1411C141.556 81.1441 141.263 81.1422 141.047 81.0539C140.824 80.9593 140.916 80.6776 140.717 80.5584C140.621 80.5019 140.212 80.4027 140.11 80.4377C139.892 80.5086 139.965 80.8165 139.704 80.7651C139.363 80.697 139.577 80.3233 139.595 80.1373" fill="#AE7700"/>
<path d="M150.121 71.3384L150.052 71.3333C150.434 71.5674 150.727 71.2811 150.943 70.9657C151.008 70.8719 151.202 70.6748 151.228 70.5753C151.271 70.4136 151.131 70.3722 151.122 70.2056C150.852 70.152 150.705 70.0553 150.458 70.1851C150.247 70.2936 150.137 70.4242 150.035 70.6413C149.984 70.7519 149.983 70.8226 149.886 70.9035C149.811 70.968 149.669 70.9348 149.62 71.0548C149.526 71.2741 149.875 71.4151 150.017 71.4972C150.037 71.4579 150.072 71.4407 150.121 71.4403" fill="#AE7700"/>
<path d="M146.995 77.2546C146.997 77.3795 146.933 77.4556 146.817 77.4561C146.636 77.1196 146.217 77.0578 146.161 76.6482C146.11 76.2709 146.499 75.9433 146.777 75.7286C146.982 75.5743 147.406 75.5 147.623 75.6683C147.759 75.7753 147.773 75.9388 147.831 76.0873C147.909 76.2808 147.916 76.2559 147.835 76.4431C147.812 76.4948 147.823 76.5907 147.79 76.6308C147.734 76.7091 147.625 76.7337 147.574 76.8089C147.499 76.9265 147.459 77.1111 147.5 77.2552C147.537 77.3847 147.768 77.5169 147.729 77.6661C147.71 77.7366 147.523 77.8558 147.45 77.8631C147.276 77.8836 147.11 77.7243 147.037 77.5631C146.982 77.4375 147.007 77.209 146.888 77.1064C146.753 76.9954 146.536 77.0756 146.366 77.0483C146.004 76.9924 146.059 76.8694 146.052 76.5437" fill="#AE7700"/>
<g style="mix-blend-mode:multiply" opacity="0.63">
<path d="M132.092 82.5224C132.092 82.5224 138.348 85.0379 143.852 82.7275C149.358 80.4129 157.191 70.8084 159.389 66.4607C161.582 62.1119 163.267 58.2899 163.267 58.2899C163.267 58.2899 167.24 57.8946 165.579 63.6218C163.917 69.3489 147.161 98.5978 147.161 98.5978L132.095 82.5277L132.092 82.5224Z" fill="#B37301" fill-opacity="0.49"/>
</g>
<g style="mix-blend-mode:multiply" opacity="0.63">
<path d="M73.3784 59.551C73.3784 59.551 81.6148 68.6152 87.5184 70.6161C93.4219 72.617 99.6437 72.4927 99.6437 72.4927C99.6437 72.4927 95.5126 74.3235 93.1387 77.9811C90.7648 81.6388 90.1139 86.1116 90.1139 86.1116L73.3867 60.2409L73.3784 59.551Z" fill="#B37301" fill-opacity="0.49"/>
</g>
<path d="M119.929 114.535C118.949 111.782 115.757 109.359 113.551 107.568C109.69 104.435 105.257 102.007 100.567 100.367C98.1877 99.5336 95.6578 100.896 95.2651 103.454C95.1865 103.953 95.0996 104.449 95.0045 104.942C89.7766 111.07 86.125 118.25 82.136 125.229C79.7922 128.203 77.3753 131.117 74.9476 133.988C71.9838 137.494 77.2877 141.746 80.5369 139.207C81.1516 139.214 81.7619 139.087 82.3235 138.792C93.0502 133.143 103.955 127.811 114.742 122.266C117.885 120.649 121.443 118.791 119.924 114.534L119.929 114.535Z" fill="#CA8A01"/>
<path d="M74.9385 139.07C74.9385 139.07 109.843 103.305 109.401 103.312C108.96 103.32 107.326 101.432 107.326 101.432L74.0321 137.029L74.9385 139.07Z" fill="white"/>
<path d="M76.9991 139.633C76.9991 139.633 94.3862 110.533 95.5369 108.615C96.6876 106.697 96.9604 105.078 96.9604 105.078L96.9222 101.852C96.9222 101.852 74.2983 134.682 74.1745 136.441C74.0506 138.201 74.7983 139.366 75.5352 139.649C76.272 139.933 76.9991 139.633 76.9991 139.633Z" fill="#F8F7F1"/>
<path d="M89.8248 126.331C89.9938 126.296 90.1209 126.05 90.2566 125.94C90.5659 125.693 90.8399 125.429 91.0279 125.07C91.1518 124.837 91.2543 124.718 91.2485 124.454C91.2393 124.137 91.2509 123.976 91.4981 123.779C91.5769 123.716 91.6763 123.676 91.753 123.621C91.8559 123.55 91.8859 123.487 91.9775 123.409C92.1722 123.243 92.3497 123.193 92.5736 123.252C93.0339 123.374 93.6238 123.29 94.1222 123.285C94.3584 123.281 94.5888 123.248 94.7814 123.392C95.042 123.581 94.8996 123.65 94.8453 123.889C94.7854 124.165 94.8949 124.221 94.6776 124.439C94.5216 124.593 94.35 124.738 94.2155 124.911C93.9053 125.312 94.1384 125.84 93.6782 126.171C93.5259 126.277 93.3267 126.393 93.1641 126.487C92.9701 126.6 92.7649 126.621 92.5648 126.723C92.0934 126.963 91.6132 127.235 91.0732 127.247C90.8057 127.252 90.645 127.138 90.4468 126.948C90.2425 126.748 90.0798 126.474 89.8237 126.336L89.8248 126.331Z" fill="#AE7700"/>
<path d="M85.9781 132.155L86.0594 132.216C86.3846 132.094 86.0896 131.532 85.9994 131.353C85.7967 130.962 85.5973 131.011 85.2489 131.154C85.1694 131.186 85.084 131.275 84.993 131.233C84.9061 131.192 84.9643 131.123 84.9122 131.052C84.8192 130.934 84.6643 130.849 84.52 130.824C84.3757 130.799 84.2087 130.844 84.1044 130.936C84.0002 131.028 83.9461 131.182 83.8765 131.328C83.7714 131.558 83.5782 131.919 83.8309 132.154C83.8843 132.204 83.9633 132.207 84.0189 132.249C84.1374 132.338 84.1183 132.359 84.2009 132.483C84.2926 132.623 84.3529 132.63 84.4853 132.682C84.597 132.73 84.7273 132.791 84.8484 132.836C85.0419 132.91 85.0468 132.858 85.2193 132.792C85.5017 132.681 85.7713 132.517 85.7905 132.176L85.872 132.153" fill="#AE7700"/>
<g style="mix-blend-mode:multiply" opacity="0.63">
<path d="M95.0164 104.409C95.0164 104.409 100.201 104.347 103.017 108.46C105.832 112.576 106.226 116.371 105.389 118.63C104.552 120.888 93.6341 132.778 93.6341 132.778L120.786 119.309C120.786 119.309 119.136 111.375 113.193 106.436C107.256 101.493 96.7353 99.9569 96.7353 99.9569L95.0164 104.409Z" fill="#986801" fill-opacity="0.44"/>
</g>
<mask id="mask1_7149_5423" style="mask-type:luminance" maskUnits="userSpaceOnUse" x="89" y="67" width="31" height="25">
<path d="M91.9602 91.795C91.9602 91.795 93.9116 83.4117 102.05 77.4504C110.189 71.489 119.004 72.845 119.004 72.845L114.556 68.6471L108.826 67.8366C108.826 67.8366 102.253 69.8245 97.3237 74.7227C92.3987 79.622 89.7029 87.2805 89.7029 87.2805L91.9591 91.7992L91.9602 91.795Z" fill="white"/>
</mask>
<g mask="url(#mask1_7149_5423)">
<path d="M96.3934 75.5236L100.799 79.1113C100.799 79.1113 102.041 77.1995 104.446 75.9589C106.85 74.7184 109.289 74.3386 108.897 73.9556C108.365 73.4376 104.796 70.0578 104.796 70.0578C104.796 70.0578 101.873 71.0282 99.641 72.4875C97.4094 73.9468 96.3903 75.5183 96.3903 75.5183L96.3934 75.5236Z" fill="#F8F7F1"/>
<path d="M91.668 83.2219L94.985 85.7764L93.8005 88.0406L91.0075 85.6514L91.668 83.2219Z" fill="#F8F7F1"/>
<path d="M106.521 69.5207C106.357 70.0407 111.712 73.7465 111.712 73.7465L115.685 73.3513L110.665 68.7804C110.665 68.7804 109.426 68.08 107.973 68.6271C106.519 69.1743 106.525 69.5218 106.525 69.5218L106.521 69.5207Z" fill="#F8F7F1"/>
</g>
<mask id="mask2_7149_5423" style="mask-type:luminance" maskUnits="userSpaceOnUse" x="134" y="107" width="27" height="25">
<path d="M134.061 129.116C134.061 129.116 140.558 126.926 147.763 119.848C154.862 112.871 157.261 107.423 157.261 107.423L160.1 111.786C160.1 111.786 158.031 116.624 152.345 122.72C146.121 129.396 138.786 131.546 138.786 131.546L134.062 129.112L134.061 129.116Z" fill="white"/>
</mask>
<g mask="url(#mask2_7149_5423)">
<path d="M139.024 126.352L143.96 130.182L146.703 128.419L142.114 124.583L139.024 126.352Z" fill="#F8F7F1"/>
<path d="M144.774 122.159L149.466 126.492C149.466 126.492 151.345 124.74 152.202 123.866L154.252 121.769L150.152 117.224C150.152 117.224 148.702 117.963 147.34 119.537C145.979 121.111 144.779 122.16 144.779 122.16L144.774 122.159Z" fill="#F8F7F1"/>
<path d="M153.801 112.368L157.435 117.247L158.794 115.331L154.986 110.104L153.801 112.368Z" fill="#F8F7F1"/>
</g>
<path d="M91.5296 84.0814C83.624 73.5653 76.5117 62.5492 69.6425 51.3357C68.4905 49.4516 65.5199 51.1723 66.6749 53.0617C73.5441 64.2752 80.6564 75.2913 88.562 85.8074C89.875 87.5522 92.8548 85.8472 91.5296 84.0814Z" fill="black"/>
<path d="M88.4554 85.673C87.5278 88.928 88.4315 92.3879 90.7871 94.8034C92.3333 96.3881 94.758 93.9639 93.2202 92.3814C91.6823 90.799 91.1769 88.6511 91.7736 86.5464C92.3703 84.4416 89.0628 83.5445 88.4565 85.6689L88.4554 85.673Z" fill="black"/>
<path d="M91.0615 95.0931L95.3078 100.307C95.8941 101.025 97.1241 100.92 97.7337 100.31C98.4445 99.6016 98.3271 98.6033 97.7366 97.8837L93.4904 92.67C92.9041 91.9515 91.674 92.0565 91.0644 92.6671C90.3536 93.3753 90.4711 94.3735 91.0615 95.0931Z" fill="black"/>
<path d="M73.2488 133.685C71.6852 136.058 71.5254 139.077 73.8006 141.058C76.3883 143.318 79.6104 142.693 82.5214 141.533C84.5495 140.725 83.6605 137.411 81.6042 138.225C80.1021 138.821 78.3001 139.68 76.7044 138.903C75.1087 138.126 75.3601 136.706 76.2131 135.41C77.4295 133.562 74.4589 131.845 73.2499 133.681L73.2488 133.685Z" fill="black"/>
<path d="M69.0494 50.611C68.4274 49.6079 67.2229 47.6877 68.1936 46.9197C69.2652 46.0719 71.3249 46.0844 72.5792 47.095C74.2833 48.4685 76.7318 46.0551 75.0123 44.673C72.485 42.638 68.7994 42.1644 66.1186 44.2147C63.4379 46.265 64.5316 49.8284 66.087 52.3339C67.2495 54.2119 70.2201 52.4912 69.0546 50.6079L69.0494 50.611Z" fill="black"/>
<path d="M73.6303 47.7146C85.0954 54.7536 96.6105 61.7038 108.163 68.5973C110.064 69.7301 111.784 66.7647 109.892 65.6341C98.3393 58.7406 86.8242 51.7904 75.3591 44.7514C73.4743 43.5918 71.7526 46.5613 73.6303 47.7146Z" fill="black"/>
<path d="M109.463 69.234C111.175 69.0035 113.193 69.0716 114.712 69.9703C116.615 71.0948 118.341 68.1264 116.441 67.0072C114.419 65.8113 111.734 65.4959 109.43 65.8047C108.505 65.9284 107.734 66.5316 107.733 67.5387C107.733 68.3772 108.551 69.361 109.467 69.2351L109.463 69.234Z" fill="black"/>
<path d="M114.969 70.0209L122.038 76.2697C123.689 77.7268 126.124 75.3142 124.471 73.8477L117.402 67.5989C115.751 66.1418 113.316 68.5544 114.969 70.0209Z" fill="black"/>
<path d="M124.744 77.3447C136.909 71.9428 148.907 66.1682 160.753 60.0961C162.723 59.0868 160.991 56.1264 159.027 57.1285C147.177 63.1995 135.183 68.9752 123.018 74.3771C121.002 75.2724 122.744 78.2309 124.744 77.3447Z" fill="black"/>
<path d="M160.094 60.5738C161.149 60.2095 163.716 58.7725 164.277 60.3937C164.676 61.5507 164.196 63.0787 163.616 64.083C162.507 65.9945 165.475 67.7203 166.579 65.8118C167.786 63.731 168.384 60.717 167.196 58.4995C165.453 55.2435 161.956 56.3017 159.177 57.2656C157.101 57.9853 158 61.2974 160.094 60.5738Z" fill="black"/>
<path d="M163.592 64.1347C157.616 74.8517 151.014 85.221 145.381 96.131C144.37 98.0907 147.333 99.8237 148.345 97.8598C153.977 86.9499 160.578 76.5847 166.555 65.8635C167.629 63.9338 164.666 62.205 163.592 64.1347Z" fill="black"/>
<path d="M161.417 123.358C164.673 118.363 163.233 111.412 159.757 106.943C158.399 105.2 155.987 107.645 157.324 109.365C159.89 112.662 160.807 118.015 158.454 121.629C157.245 123.483 160.215 125.201 161.417 123.358Z" fill="black"/>
<path d="M146.106 98.594L157.071 109.015C158.674 110.534 161.106 108.117 159.504 106.593L148.539 96.1721C146.935 94.6521 144.503 97.07 146.106 98.594Z" fill="black"/>
<path d="M120.189 121.232L135.247 132.264C137.027 133.569 138.737 130.592 136.975 129.301L121.918 118.268C120.138 116.964 118.427 119.941 120.189 121.232Z" fill="black"/>
<path d="M135.103 132.289C139.288 135.05 145.373 135.427 150.135 134.278C152.282 133.759 151.369 130.452 149.218 130.969C145.303 131.917 140.265 131.591 136.832 129.325C134.984 128.109 133.266 131.08 135.103 132.289Z" fill="black"/>
<path d="M150.052 133.235C184.475 163.286 218.967 193.261 253.441 223.254C287.936 253.266 322.387 283.329 356.836 313.399L414.802 364.003C416.46 365.449 418.899 363.037 417.235 361.581C382.775 331.499 348.321 301.413 313.856 271.338C279.429 241.3 244.941 211.33 210.471 181.338C191.13 164.509 171.795 147.674 152.484 130.817C150.825 129.372 148.386 131.783 150.051 133.239L150.052 133.235Z" fill="black"/>
<path d="M158.285 124.296C185.232 148.784 212.818 172.563 240.468 196.252C269.736 221.323 299.1 246.282 328.119 271.638C344.684 286.113 361.135 300.721 377.389 315.549C379.019 317.036 381.455 314.619 379.822 313.127C350.973 286.809 321.501 261.187 291.877 235.751C263.197 211.124 234.362 186.682 205.84 161.879C190.674 148.688 175.598 135.392 160.723 121.875C159.092 120.392 156.656 122.809 158.29 124.297L158.285 124.296Z" fill="black"/>
<path d="M150.651 132.866C152.482 131.846 154.189 130.559 155.706 129.119C157.222 127.679 158.608 126.062 159.405 124.157C159.627 123.621 159.566 123.011 159.017 122.688C158.567 122.427 157.775 122.537 157.548 123.076C156.817 124.834 155.559 126.303 154.191 127.6C152.823 128.897 151.251 130.079 149.57 131.014C148.363 131.688 149.443 133.54 150.65 132.87L150.651 132.866Z" fill="black"/>
<path d="M91.9012 84.8762C93.8357 78.9551 98.5788 74.123 103.989 71.2152C105.504 70.4005 107.093 69.7428 108.742 69.2607C110.065 68.8741 109.499 66.8034 108.171 67.1931C101.713 69.0827 95.8756 73.4744 92.2652 79.1563C91.2393 80.7704 90.4187 82.5142 89.8269 84.3319C89.4002 85.6431 91.4744 86.1874 91.9001 84.8803L91.9012 84.8762Z" fill="black"/>
<path d="M122.134 119.444C120.312 110.87 114.266 103.552 106.171 100.177C103.661 99.1317 101.057 98.4783 98.3551 98.1938C97.7764 98.1339 97.2906 98.7463 97.2917 99.279C97.2965 99.9147 97.7992 100.278 98.3768 100.342C106.703 101.218 114.121 106.415 117.903 113.853C118.895 115.805 119.611 117.88 120.065 120.019C120.352 121.368 122.421 120.793 122.133 119.448L122.134 119.444Z" fill="black"/>
<path d="M124.159 77.3273L140.788 92.8352L145.549 97.2756C146.56 98.2173 148.079 96.7026 147.068 95.7608L130.439 80.253L125.677 75.8125C124.667 74.8708 123.148 76.3856 124.159 77.3273Z" fill="black"/>
<path d="M76.3615 135.099C84.2196 123.908 91.3859 112.264 98.3746 100.519C99.5074 98.6183 96.539 96.8926 95.4115 98.7903C88.4175 110.538 81.2565 122.179 73.3983 133.37C72.1253 135.18 75.1022 136.891 76.3615 135.099Z" fill="black"/>
<path d="M82.994 141.37L120.691 121.764C122.655 120.744 120.924 117.78 118.965 118.796L81.268 138.402C79.3035 139.422 81.0348 142.386 82.994 141.37Z" fill="black"/>
</g>
<path d="M300.786 266.106C300.786 266.106 305.573 263.925 307.938 260.505C310.302 257.084 311.805 252.074 311.805 252.074" stroke="black" stroke-width="2" stroke-linecap="round" stroke-linejoin="round"/>
<path d="M364.362 251.998C364.362 251.998 368.208 238.456 360.448 228.808C352.598 219.038 337.454 212.543 325.184 217.912C312.913 223.282 308.422 231.132 308.218 232.071C308.015 233.01 307.311 249.44 307.311 249.44C307.311 249.44 303.862 253.529 302.924 254.556C301.987 255.584 302.186 262.744 302.186 262.744C302.186 262.744 298.235 268.237 297.826 269.984C297.416 271.73 298.391 273.311 300.404 275.796C302.416 278.281 304.965 279.765 305.932 279.893C306.899 280.021 310.95 276.458 310.95 276.458C310.95 276.458 313.965 279.213 320.894 285.045C327.822 290.877 329.105 292.216 330.068 292.343C331.03 292.47 334.279 291.52 337.137 290.305C339.995 289.09 341.834 287.764 342.495 286.905C343.157 286.045 348.692 268.66 348.692 268.66C348.692 268.66 352.609 267.073 353.542 266.306C354.474 265.54 362.655 254.526 364.354 252.01L364.362 251.998Z" fill="#FFCA1B" stroke="black" stroke-miterlimit="10"/>
<path d="M361.915 229.992C361.915 229.992 377.366 232.192 377.857 233.031C378.348 233.869 365.262 243.958 365.262 243.958C365.262 243.958 364.862 237.345 363.992 235.361C363.122 233.377 361.915 229.992 361.915 229.992Z" fill="#CA8A01" stroke="black" stroke-miterlimit="10"/>
<path d="M357.008 224.663C357.008 224.663 361.468 211.254 360.674 210.397C359.879 209.54 345.731 217.932 345.731 217.932C345.731 217.932 351.162 220.455 352.503 221.376C353.844 222.298 357.002 224.666 357.002 224.666L357.008 224.663Z" fill="#CA8A01" stroke="black" stroke-miterlimit="10"/>
<path d="M339.23 216.303C339.23 216.303 335.715 201.573 333.982 201.744C331.751 201.953 327.571 216.782 327.571 216.782C327.571 216.782 331.826 215.847 333.698 215.77C335.57 215.694 339.23 216.303 339.23 216.303Z" fill="#CA8A01" stroke="black" stroke-miterlimit="10"/>
<path d="M322.937 218.907C322.937 218.907 313.106 206.93 311.142 208.115C309.177 209.304 313.247 225.551 313.247 225.551C313.247 225.551 316.811 222.737 318.55 221.689C320.29 220.641 322.937 218.907 322.937 218.907Z" fill="#CA8A01" stroke="black" stroke-miterlimit="10"/>
<path d="M309.243 230.322C309.243 230.322 298.877 230.384 298.431 231.988C297.986 233.592 307.294 240.408 307.294 240.408L308.182 232.055L309.243 230.322Z" fill="#CA8A01" stroke="black" stroke-miterlimit="10"/>
<path d="M349.012 265.941L336.154 281.66L334.247 280.097L347.706 262.831L349.012 265.941Z" fill="#FFEB9A"/>
<path d="M364.363 251.998C364.363 251.998 369.884 263.225 369.066 264.031C368.247 264.838 357.922 261.351 357.922 261.351L364.363 251.998Z" fill="#CA8A01" stroke="black" stroke-miterlimit="10"/>
<path d="M344.039 256.497C344.039 256.497 337.663 276.834 337.646 277.133C337.629 277.432 338.391 283.034 338.391 283.034L332.424 284.455L327.821 289.8L326.549 288.685L330.867 283.762L330.247 276.543L336.16 275.891L342.249 255.498L344.049 256.495L344.039 256.497Z" fill="white" stroke="black" stroke-miterlimit="10"/>
<path d="M335.144 250.619C334.955 250.902 327.67 268.008 327.56 268.321C327.45 268.633 327.976 273.661 327.976 273.661L322.236 274.815L316.105 280.979L315.072 279.815L320.7 273.825L319.798 267.385L325.889 266.844L333.107 249.802L335.143 250.623L335.144 250.619Z" fill="white" stroke="black" stroke-miterlimit="10"/>
<path d="M324.927 247.086L317.134 261.321L316.864 267.341L310.21 267.859L301.666 276.454L300.369 275.771L309.006 266.549C309.006 266.549 308.629 260.733 308.969 260.767C309.31 260.802 316.065 259.879 316.065 259.879L322.829 247.167L324.927 247.086Z" fill="white" stroke="black" stroke-miterlimit="10"/>
<path d="M335.946 278.068L336.155 281.66L332.859 282.502L332.164 278.423L335.946 278.068Z" fill="#965B00" stroke="black" stroke-linecap="round" stroke-linejoin="round"/>
<path d="M325.751 268.818L326.275 272.877L322.484 273.015L321.599 268.868L325.751 268.818Z" fill="#965B00" stroke="black" stroke-linecap="round" stroke-linejoin="round"/>
<path d="M315.272 262.327C315.212 262.613 314.973 266.227 314.973 266.227L311.281 266.091L311.042 262.705L315.27 262.331L315.272 262.327Z" fill="#965B00" stroke="black" stroke-linecap="round" stroke-linejoin="round"/>
<path d="M362.472 251.493C362.351 251.583 351.74 265.819 351.74 265.819L352.028 266.361L353.12 265.653L361.815 254.427L362.472 251.493Z" fill="white"/>
<path d="M363.406 247.428L351.099 261.719L350.175 259.756L364.131 241.969L363.406 247.428Z" fill="#FFEB9A"/>
<path d="M361.423 233.819C361.328 233.963 354.937 241.216 351.428 245.727C347.917 250.233 345.596 253.756 345.596 253.756L340.84 249.718L354.857 225.875L361.422 233.824L361.423 233.819Z" fill="#FFEB9A"/>
<path d="M328.535 244.023L334.156 218.793C334.156 218.793 331.599 218.799 331.558 218.918C331.517 219.036 327.75 244.002 327.75 244.002L328.536 244.019L328.535 244.023Z" fill="#FFEB9A"/>
<path d="M345.279 276.093C345.037 276.271 338.058 283.582 338.058 283.582L338.796 284.595L344.765 277.891L345.279 276.093Z" fill="#FFDD55"/>
<path d="M342.74 257.175L329.256 274.873L327.458 273.259L339.929 253.968L342.74 257.175Z" fill="#FFEB9A"/>
<path d="M327.136 249.023C327.051 249.254 319.757 267.368 319.757 267.368L318.633 266.7L326.012 248.355L327.136 249.023Z" fill="#FFEB9A"/>
<g style="mix-blend-mode:multiply" opacity="0.6">
<path d="M346.962 269.122C346.967 268.861 346.276 264.784 341.796 260.091C337.314 255.403 330.538 251.606 323.647 250.32C316.759 249.035 312.299 249.679 312.299 249.679L301.97 261.288L302.241 258.086L302.688 255.12L307.356 249.711C307.356 249.711 320.892 243.391 332.678 249.558C348.319 257.727 348.583 268.033 348.583 268.033L346.962 269.122Z" fill="#8C1D00"/>
</g>
<path d="M368.177 263.314C368.177 263.314 364.173 261.964 362.759 260.135C361.346 258.307 361.641 257.359 361.641 257.359L359.173 260.921C359.173 260.921 363.256 262.3 364.14 262.529C365.024 262.758 368.171 263.317 368.171 263.317L368.177 263.314Z" fill="#986801"/>
<path d="M372.711 236.946C372.711 236.946 369.954 238.992 367.848 238.107C365.785 237.235 364.417 234.541 364.417 234.541C364.417 234.541 365.472 237.738 365.619 239.285C365.767 240.833 365.901 242.423 365.901 242.423L372.711 236.946Z" fill="#986801"/>
<path d="M355.984 213.16C355.984 213.16 352.837 214.937 352.404 217.247C351.971 219.557 353.237 220.937 353.237 220.937C353.237 220.937 352.374 220.274 350.183 219.27C347.992 218.265 347.502 217.909 347.502 217.909L355.983 213.164L355.984 213.16Z" fill="#986801"/>
<path d="M333.624 203.112C333.624 203.112 331.944 208.891 332.025 211.251C332.102 213.61 333.841 214.897 333.607 214.942C333.422 214.965 331.9 215.167 330.764 215.375C329.629 215.584 328.753 215.708 328.753 215.708C328.753 215.708 330.235 211.09 331.244 208.152C332.254 205.214 333.625 203.108 333.625 203.108L333.624 203.112Z" fill="#986801"/>
<path d="M311.459 211.399C311.459 211.399 312.655 216.408 314.857 218.123C317.059 219.837 319.081 220.341 319.081 220.341C319.081 220.341 317.369 221.313 316.114 222.355C314.858 223.397 313.686 224.212 313.686 224.212C313.686 224.212 312.459 218.313 312.007 215.774C311.556 213.235 311.481 211.359 311.465 211.396L311.459 211.399Z" fill="#986801"/>
<path d="M307.025 235.641C306.854 235.756 305.773 235.94 303.901 235.267C302.38 234.721 300.207 233.413 300.207 233.413C300.207 233.413 302.384 235.56 304.058 236.906C305.587 238.162 306.687 238.906 306.687 238.906L307.025 235.641Z" fill="#986801"/>
<path d="M362.151 254.109C362.289 253.721 363.443 247.444 363.443 247.444L357.648 248.136L349.086 259.235L348.316 257.945L356.725 246.66L363.597 245.783C363.597 245.783 363.947 240.144 361.832 235.246C359.718 230.348 354.04 225.32 354.04 225.32L346.73 230.841L343.038 229.605L335.76 246.446L334.083 245.843L341.089 228.773L336.676 226.839L335.729 218.93C335.729 218.93 335.157 218.81 334.215 218.737C332.161 218.57 328.256 218.668 323.841 220.781C317.388 223.92 313.399 228.167 313.399 228.167L318.366 230.388L317.528 244.128L315.892 244.641L316.855 231.164L312.328 229.186L308.274 233.979L309.263 230.239C309.263 230.239 316.502 220.251 325.167 217.814C333.833 215.377 350.75 215.331 359.786 227.687C368.821 240.043 364.503 251.082 364.34 251.903C364.177 252.723 362.1 254.093 362.139 254.105L362.151 254.109Z" fill="white" stroke="black" stroke-miterlimit="10"/>
<path d="M352.069 266.379L348.991 267.474C348.991 267.474 348.88 260.791 343.033 255.871C337.053 250.821 331.505 247.64 322.934 247.116C314.833 246.628 307.366 249.536 307.366 249.536L307.687 247.669C307.687 247.669 314.007 242.809 324.291 243.592C332.952 244.237 340.513 248.312 346.138 254.338C352.557 261.221 352.076 266.371 352.076 266.371L352.069 266.379Z" fill="#5E1B02" stroke="black" stroke-width="1.85" stroke-miterlimit="10"/>
<g style="mix-blend-mode:multiply" opacity="0.6">
<path d="M323.042 218.855C323.042 218.855 320.131 224.148 319.62 232.064C319.11 239.98 321.426 243.583 321.426 243.583L315.093 244.302L308.17 247.405L308.801 233.635L309.431 230.164C309.431 230.164 313.023 226.039 316.058 223.343C318.587 221.082 323.043 218.851 323.043 218.851L323.042 218.855Z" fill="#D28F00"/>
</g>
<path d="M347.773 267.92C347.675 268.194 340.946 285.718 340.946 285.718L341.585 286.518L342.038 286.109L348.514 267.702L348.364 266.285" fill="white"/>
<g style="mix-blend-mode:multiply" opacity="0.6">
<path d="M302.418 260.615C302.418 260.615 311.503 262.776 318.498 266.958C325.493 271.14 341.177 287.16 341.177 287.16C341.177 287.16 339.01 289.022 335.509 290.32C332.008 291.619 329.789 291.79 329.789 291.79C329.789 291.79 324.019 286.771 318.49 282.188C312.96 277.608 310.781 275.592 310.781 275.592C310.781 275.592 308.973 277.321 307.868 278.067C306.764 278.814 305.726 279.497 305.726 279.497C305.726 279.497 302.459 277.929 300.536 275.565C298.612 273.201 298.392 271.846 298.513 270.658C298.634 269.469 302.942 263.224 302.942 263.224L302.426 260.618L302.418 260.615Z" fill="#D28F00"/>
</g>
<path d="M314.836 272.381L310.954 276.445" stroke="black" stroke-miterlimit="10"/>
<path d="M366.681 261.723L365.643 258.976C365.582 258.779 365.625 258.53 365.839 258.427C366.036 258.366 366.322 258.426 366.383 258.622L367.422 261.37C367.483 261.566 367.439 261.815 367.225 261.918C367.011 262.021 366.727 261.957 366.681 261.723Z" fill="white"/>
<path d="M373.77 234.117C372.425 233.942 371.039 233.882 369.673 233.88C369.451 233.887 369.272 233.649 369.303 233.439C369.347 233.19 369.523 233.075 369.745 233.069C371.109 233.075 372.457 233.119 373.841 233.306C374.351 233.354 374.321 234.183 373.77 234.117Z" fill="white"/>
<path d="M359.112 213.273C358.925 214.526 358.611 215.777 358.254 217.016C358.185 217.21 357.918 217.334 357.724 217.265C357.493 217.18 357.406 216.928 357.475 216.734C357.841 215.588 358.092 214.401 358.301 213.202C358.333 212.992 358.494 212.788 358.742 212.832C358.953 212.864 359.144 213.063 359.112 213.273Z" fill="white"/>
<path d="M335.832 211.914C335.73 210.6 335.459 209.272 335.029 208.017C334.968 207.821 335.012 207.572 335.226 207.469C335.422 207.408 335.708 207.468 335.769 207.664C336.224 208.974 336.52 210.356 336.645 211.719C336.652 211.941 336.528 212.16 336.293 212.21C336.097 212.271 335.834 212.135 335.828 211.913L335.832 211.914Z" fill="white"/>
<path d="M317.161 215.249C316.088 213.942 314.912 212.683 313.694 211.542C313.529 211.393 313.584 211.105 313.733 210.941C313.921 210.787 314.169 210.831 314.334 210.98C315.595 212.134 316.728 213.38 317.801 214.688C318.171 215.129 317.543 215.652 317.161 215.249Z" fill="white"/>
<path d="M304.621 232.404C303.654 232.276 302.693 232.374 301.781 232.707C301.584 232.769 301.335 232.725 301.237 232.512C301.121 232.341 301.235 232.03 301.433 231.964C302.491 231.596 303.595 231.462 304.692 231.593C304.902 231.625 305.094 231.824 305.062 232.034C305.03 232.244 304.869 232.448 304.621 232.404Z" fill="white"/>
</svg>
