<svg width="400" height="400" viewBox="0 0 400 400" fill="none" xmlns="http://www.w3.org/2000/svg">
<path d="M147.04 171.983C142.956 168.934 140.452 162.364 141.444 157.319L145.821 135.08C146.813 130.035 150.932 128.413 155.009 131.459C159.078 134.548 161.597 141.078 160.602 146.129L156.228 168.362C155.233 173.413 151.117 175.029 147.04 171.983Z" fill="#FFE000" stroke="black" stroke-width="7.81" stroke-linecap="round" stroke-linejoin="round"/>
<path d="M161.598 184.747C157.514 181.698 155.01 175.128 156.005 170.077L160.379 147.844C161.374 142.793 165.49 141.177 169.574 144.226C173.651 147.272 176.154 153.842 175.162 158.887L170.785 181.126C169.788 186.184 165.688 187.798 161.598 184.747Z" fill="#FFE000" stroke="black" stroke-width="7.81" stroke-linecap="round" stroke-linejoin="round"/>
<path d="M175.506 196.933C171.423 193.884 168.916 187.321 169.911 182.269L174.285 160.037C175.28 154.985 179.399 153.363 183.483 156.412C187.544 159.499 190.063 166.028 189.069 171.079L184.694 193.312C183.7 198.364 179.581 199.986 175.506 196.933Z" fill="#FFE000" stroke="black" stroke-width="7.81" stroke-linecap="round" stroke-linejoin="round"/>
<path d="M353.811 311.042L144.835 138.012L138.341 151.398L346.67 324.005L353.811 311.042Z" fill="#FFE000" stroke="black" stroke-width="8.71" stroke-linecap="round" stroke-linejoin="round"/>
<path d="M97.3462 52.8188C97.3462 52.8188 135.592 72.5967 149.148 94.91C162.705 117.223 152.316 139.071 152.316 139.071L135.963 124.315C135.963 124.315 144.904 108.446 127.548 87.423C110.193 66.3999 97.3462 52.8188 97.3462 52.8188Z" fill="#FFE000" stroke="black" stroke-width="8.71" stroke-linecap="round" stroke-linejoin="round"/>
<path d="M45.8989 113.67C45.8989 113.67 71.6986 148.119 95.9237 157.86C120.149 167.602 139.998 153.729 139.998 153.729L122.762 140.021C122.762 140.021 108.567 151.449 84.9869 137.776C61.4063 124.104 45.8989 113.67 45.8989 113.67Z" fill="#FFE000" stroke="black" stroke-width="8.71" stroke-linecap="round" stroke-linejoin="round"/>
<path d="M31.5728 52.8325L138.722 156.251L154.732 137.353L31.5728 52.8325Z" fill="#FFE000" stroke="black" stroke-width="8.71" stroke-linecap="round" stroke-linejoin="round"/>
<path d="M357.537 314.386L144.835 138.012L138.341 151.398L350.396 327.348L357.537 314.386Z" fill="#FFE000"/>
<path d="M97.3462 52.8188C97.3462 52.8188 135.592 72.5967 149.148 94.91C162.705 117.223 152.316 139.071 152.316 139.071L135.963 124.315C135.963 124.315 144.904 108.446 127.548 87.423C110.193 66.3999 97.3462 52.8188 97.3462 52.8188Z" fill="#FFE000"/>
<path d="M45.8989 113.67C45.8989 113.67 71.6986 148.119 95.9237 157.86C120.149 167.602 139.998 153.729 139.998 153.729L122.762 140.021C122.762 140.021 108.567 151.449 84.9869 137.776C61.4063 124.104 45.8989 113.67 45.8989 113.67Z" fill="#FFE000"/>
<path d="M31.5728 52.8325L138.722 156.251L154.732 137.353L31.5728 52.8325Z" fill="#FFE000"/>
<path d="M45.8984 113.67C45.8984 113.67 67.6019 140.642 80.7085 149.484C94.7531 158.953 102.327 162.048 115.541 161.931C125.521 161.842 133.794 156.665 133.794 156.665C133.794 156.665 106.148 159.066 86.8889 148.163C67.6294 137.261 45.8984 113.67 45.8984 113.67Z" fill="#FFFFF0"/>
<path d="M31.5728 52.8325L122.762 140.021L121.444 134.134L31.5728 52.8325Z" fill="#FFFFF0"/>
<path d="M97.3462 52.8188C97.3462 52.8188 119.172 77.2917 127.547 87.407C141.19 103.923 138.218 116.582 138.218 116.582C138.218 116.582 144.605 104.447 136.611 92.1233C128.616 79.7992 97.3462 52.8188 97.3462 52.8188Z" fill="#FFFFF0"/>
<path d="M183.474 189.108L346.583 318.724L344.508 323.179L183.474 189.108Z" fill="#FFFFF0"/>
<path d="M147.04 171.983C142.956 168.934 140.452 162.364 141.444 157.319L145.821 135.08C146.813 130.035 150.932 128.413 155.009 131.459C159.078 134.548 161.597 141.078 160.602 146.129L156.228 168.362C155.233 173.413 151.117 175.029 147.04 171.983Z" fill="#FFE000" stroke="black" stroke-width="2" stroke-miterlimit="10"/>
<path d="M161.598 184.747C157.514 181.698 155.01 175.128 156.005 170.077L160.379 147.844C161.374 142.793 165.49 141.177 169.574 144.226C173.651 147.272 176.154 153.842 175.162 158.887L170.785 181.126C169.788 186.184 165.688 187.798 161.598 184.747Z" fill="#FFE000" stroke="black" stroke-width="2" stroke-miterlimit="10"/>
<path d="M175.506 196.933C171.423 193.884 168.916 187.321 169.911 182.269L174.285 160.037C175.28 154.985 179.399 153.363 183.483 156.412C187.544 159.499 190.063 166.028 189.069 171.079L184.694 193.312C183.7 198.364 179.581 199.986 175.506 196.933Z" fill="#FFE000" stroke="black" stroke-width="2" stroke-miterlimit="10"/>
<path d="M358.72 341.49C366.966 344.633 376.199 340.497 379.342 332.251C382.485 324.005 378.348 314.772 370.102 311.629C361.856 308.486 352.623 312.623 349.48 320.869C346.337 329.115 350.474 338.347 358.72 341.49Z" fill="#FFE000" stroke="black" stroke-width="6.04" stroke-linecap="round" stroke-linejoin="round"/>
<path d="M372.012 317.867C375.11 314.057 374.535 308.458 370.727 305.361C366.919 302.263 361.321 302.841 358.222 306.65L344.588 323.412C341.489 327.221 342.064 332.82 345.872 335.918C349.68 339.015 355.279 338.438 358.378 334.628L372.012 317.867Z" fill="#FFE000" stroke="black" stroke-width="7.88" stroke-linecap="round" stroke-linejoin="round"/>
<path d="M359.205 339.552C366.624 342.38 374.873 338.808 377.63 331.575C380.388 324.342 376.608 316.186 369.19 313.358C361.771 310.53 353.522 314.102 350.765 321.335C348.008 328.568 351.787 336.724 359.205 339.552Z" fill="#FFE000"/>
<path d="M372.012 317.867C375.11 314.057 374.535 308.458 370.727 305.361C366.919 302.263 361.321 302.841 358.222 306.65L344.588 323.412C341.489 327.221 342.064 332.82 345.872 335.918C349.68 339.015 355.279 338.438 358.378 334.628L372.012 317.867Z" fill="#FFE000" stroke="black" stroke-width="1.68" stroke-miterlimit="10"/>
</svg>
