<svg width="400" height="400" viewBox="0 0 400 400" fill="none" xmlns="http://www.w3.org/2000/svg">
<path d="M147.04 171.983C142.956 168.934 140.452 162.364 141.444 157.319L145.821 135.08C146.813 130.035 150.932 128.413 155.009 131.459C159.078 134.548 161.597 141.078 160.602 146.129L156.228 168.362C155.233 173.413 151.117 175.029 147.04 171.983Z" fill="#FFE000" stroke="black" stroke-width="7.81" stroke-linecap="round" stroke-linejoin="round"/>
<path d="M161.598 184.747C157.514 181.698 155.011 175.128 156.005 170.077L160.38 147.844C161.374 142.793 165.49 141.177 169.574 144.226C173.651 147.272 176.155 153.842 175.163 158.887L170.786 181.126C169.789 186.184 165.689 187.798 161.598 184.747Z" fill="#FFE000" stroke="black" stroke-width="7.81" stroke-linecap="round" stroke-linejoin="round"/>
<path d="M175.506 196.933C171.423 193.884 168.916 187.321 169.911 182.269L174.285 160.037C175.28 154.985 179.399 153.363 183.483 156.412C187.544 159.499 190.063 166.028 189.069 171.079L184.694 193.312C183.7 198.364 179.581 199.986 175.506 196.933Z" fill="#FFE000" stroke="black" stroke-width="7.81" stroke-linecap="round" stroke-linejoin="round"/>
<path d="M353.811 311.042L144.835 138.012L138.341 151.398L346.67 324.005L353.811 311.042Z" fill="#FFE000" stroke="black" stroke-width="8.71" stroke-linecap="round" stroke-linejoin="round"/>
<path d="M97.3462 52.8188C97.3462 52.8188 135.592 72.5967 149.148 94.91C162.705 117.223 152.316 139.071 152.316 139.071L135.963 124.315C135.963 124.315 144.904 108.446 127.548 87.423C110.193 66.3999 97.3462 52.8188 97.3462 52.8188Z" fill="#FFE000" stroke="black" stroke-width="8.71" stroke-linecap="round" stroke-linejoin="round"/>
<path d="M45.8989 113.67C45.8989 113.67 71.6986 148.119 95.9237 157.86C120.149 167.602 139.998 153.729 139.998 153.729L122.762 140.021C122.762 140.021 108.567 151.449 84.9869 137.776C61.4063 124.104 45.8989 113.67 45.8989 113.67Z" fill="#FFE000" stroke="black" stroke-width="8.71" stroke-linecap="round" stroke-linejoin="round"/>
<path d="M31.5728 52.8325L138.722 156.251L154.732 137.353L31.5728 52.8325Z" fill="#FFE000" stroke="black" stroke-width="8.71" stroke-linecap="round" stroke-linejoin="round"/>
<path d="M357.537 314.386L144.835 138.012L138.341 151.398L350.396 327.348L357.537 314.386Z" fill="#FFCA1B"/>
<path d="M97.3462 52.8188C97.3462 52.8188 135.592 72.5967 149.148 94.91C162.705 117.223 152.316 139.071 152.316 139.071L135.963 124.315C135.963 124.315 144.904 108.446 127.548 87.423C110.193 66.3999 97.3462 52.8188 97.3462 52.8188Z" fill="#FFCA1B"/>
<path d="M45.8989 113.67C45.8989 113.67 71.6986 148.119 95.9237 157.86C120.149 167.602 139.998 153.729 139.998 153.729L122.762 140.021C122.762 140.021 108.567 151.449 84.9869 137.776C61.4063 124.104 45.8989 113.67 45.8989 113.67Z" fill="#FFCA1B"/>
<path d="M31.5728 52.8325L138.722 156.251L154.732 137.353L31.5728 52.8325Z" fill="#FFCA1B"/>
<path d="M98.6384 157.735L97.0689 143.018C97.0689 143.018 95.0102 142.92 86.6775 138.705C78.3448 134.489 76.4822 132.725 76.4822 132.725L79.7219 147.35L98.6384 157.735Z" fill="#FFE98F"/>
<path d="M109.616 127.881L105.319 103.768L97.1587 97.833L100.682 119.346L109.616 127.881Z" fill="#FFE98F"/>
<path d="M130.744 87.6005L127.739 72.4551L119.579 66.5205L121.81 79.0653L130.744 87.6005Z" fill="#FFDD55"/>
<path d="M146.704 131.149L146.4 90.6403C143.878 88.045 142.752 86.3842 139.788 83.1162C136.672 80.0001 135.174 79.0882 132.119 75.9443L134.24 97.1763C134.24 97.1763 138.116 103.788 138.648 111.388C139.18 118.989 136.216 124.385 136.216 124.385L142.224 151.834L146.704 131.149Z" fill="#FFE98F"/>
<path d="M57.6204 78.0215L55.0876 68.7875L47.0591 63.5474L49.4704 70.7802L57.6204 78.0215Z" fill="#FFDD55"/>
<path d="M97.3462 52.8188C97.3462 52.8188 119.172 77.2917 127.547 87.407C141.19 103.923 138.218 116.582 138.218 116.582C138.218 116.582 144.605 104.447 136.611 92.1233C128.616 79.7992 97.3462 52.8188 97.3462 52.8188Z" fill="#D28F00"/>
<path d="M147.04 171.983C142.956 168.934 140.452 162.364 141.444 157.319L145.821 135.08C146.813 130.035 150.932 128.413 155.009 131.459C159.078 134.548 161.597 141.078 160.602 146.129L156.228 168.362C155.233 173.413 151.117 175.029 147.04 171.983Z" fill="#FFCA1B" stroke="black" stroke-width="2" stroke-miterlimit="10"/>
<path d="M161.598 184.747C157.514 181.698 155.011 175.128 156.005 170.077L160.38 147.844C161.374 142.793 165.49 141.177 169.574 144.226C173.651 147.272 176.155 153.842 175.163 158.887L170.786 181.126C169.789 186.184 165.689 187.798 161.598 184.747Z" fill="#FFCA1B" stroke="black" stroke-width="2" stroke-miterlimit="10"/>
<path d="M175.506 196.933C171.423 193.884 168.916 187.321 169.911 182.269L174.285 160.037C175.28 154.985 179.399 153.363 183.483 156.412C187.544 159.499 190.063 166.028 189.069 171.079L184.694 193.312C183.7 198.364 179.581 199.986 175.506 196.933Z" fill="#FFCA1B" stroke="black" stroke-width="2" stroke-miterlimit="10"/>
<path d="M358.72 341.49C366.966 344.633 376.199 340.497 379.342 332.251C382.485 324.005 378.348 314.772 370.102 311.629C361.856 308.486 352.623 312.623 349.48 320.869C346.337 329.115 350.474 338.347 358.72 341.49Z" fill="#FFE000" stroke="black" stroke-width="6.04" stroke-linecap="round" stroke-linejoin="round"/>
<path d="M372.012 317.867C375.11 314.057 374.535 308.458 370.727 305.361C366.919 302.263 361.321 302.841 358.222 306.65L344.588 323.412C341.489 327.221 342.064 332.82 345.872 335.918C349.68 339.015 355.279 338.438 358.378 334.628L372.012 317.867Z" fill="#FFE000" stroke="black" stroke-width="7.88" stroke-linecap="round" stroke-linejoin="round"/>
<path d="M359.206 339.552C366.625 342.38 374.874 338.808 377.631 331.575C380.388 324.342 376.609 316.186 369.19 313.358C361.771 310.53 353.522 314.102 350.765 321.335C348.008 328.568 351.787 336.724 359.206 339.552Z" fill="#FFCA1B"/>
<path d="M271.247 262.318L265.747 238.318L246.747 222.818L254.57 247.843L271.247 262.318Z" fill="#FFE98F"/>
<path d="M332.247 312.818L326.411 288.313L299.747 266.818L307.08 291.588L332.247 312.818Z" fill="#FFE98F"/>
<path d="M224.747 223.318L219.747 200.818L214.247 195.818L218.747 218.318L224.747 223.318Z" fill="#FFE98F"/>
<path d="M138.886 155.881L129.984 120.088L109.279 105.872L112.736 131.215L122.729 140.456L126.647 159.817L138.886 155.881Z" fill="#FFE98F"/>
<path d="M250.909 244.974L244.747 220.818L238.747 215.818L244.38 239.73L250.909 244.974Z" fill="#EAA10F"/>
<path d="M147.747 162.318C143.747 159.518 142.746 154.485 143.246 151.818C142.747 154.152 142.241 156.34 141.747 158.318C141.247 160.318 140.401 169.75 148.747 172.318C155.247 174.318 155.246 167.318 156.747 160.318C155.414 162.152 151.747 165.118 147.747 162.318Z" fill="#D28F00"/>
<path d="M162.287 175.169C158.59 172.369 157.666 167.336 158.128 164.669C157.666 167.002 157.199 169.19 156.742 171.169C156.28 173.169 155.449 182.753 163.211 185.169C170.123 187.32 169.217 180.169 170.604 173.169C169.372 175.002 165.983 177.969 162.287 175.169Z" fill="#D28F00"/>
<path d="M176.842 187.171C173.146 184.371 172.026 177.606 172.488 174.939C172.026 177.273 171.337 180.427 170.879 182.406C170.417 184.406 170.005 194.756 177.766 197.171C184.679 199.322 183.773 192.171 185.16 185.171C183.927 187.005 180.539 189.971 176.842 187.171Z" fill="#D28F00"/>
<path d="M31.7583 53.9453L122.947 141.134L121.63 135.247L31.7583 53.9453Z" fill="#D28F00"/>
<path d="M45.8989 113.67C45.8989 113.67 67.6024 140.642 80.709 149.484C94.7536 158.953 102.328 162.048 115.542 161.931C125.521 161.842 133.795 156.665 133.795 156.665C133.795 156.665 106.149 159.066 86.8894 148.163C67.6299 137.261 45.8989 113.67 45.8989 113.67Z" fill="#D28F00"/>
<path d="M183.474 189.108L344.701 317.212L341.775 320.961L183.474 189.108Z" fill="#D28F00"/>
<path d="M370.634 315.867C373.732 312.058 373.157 306.459 369.349 303.361C365.541 300.264 359.943 300.841 356.844 304.651L343.21 321.412C340.111 325.222 340.686 330.821 344.494 333.918C348.302 337.016 353.901 336.438 357 332.629L370.634 315.867Z" fill="#FFCA1B" stroke="black" stroke-width="1.68" stroke-miterlimit="10"/>
<path d="M359.821 327.948C356.974 329.464 352.123 329.811 348.84 327.061C345.614 324.358 345.49 320.857 347.039 318.016C345.994 319.15 345.735 319.319 343.961 321.183C341.742 323.512 340.189 328.946 344.404 333.161C348.619 337.376 353.499 334.936 355.273 333.272C356.679 331.954 358.311 329.874 359.779 328.002L359.821 327.948Z" fill="#D28F00"/>
<path d="M368.759 334.647C362.598 335.725 359.277 333.821 358.186 332.538L354.018 336.015C355.508 337.506 357.848 341.104 366.93 340.685C374.284 340.346 378.384 331.503 378.384 327.332C377.742 329.321 374.919 333.569 368.759 334.647Z" fill="#D28F00"/>
</svg>
