<svg width="400" height="400" viewBox="0 0 400 400" fill="none" xmlns="http://www.w3.org/2000/svg">
<path d="M192.451 312.004L251.598 295.958L251.775 296.164C258.25 314.319 265.571 336.421 272.039 354.576L272.318 354.488L284.071 353.525L284.277 352.805C292.37 342.808 300.984 333.341 309.07 323.345L309.231 322.536C299.786 307.145 292.267 291.394 282.829 276.009L282.021 275.848C289.055 274.341 296.074 274.128 303.109 272.628H302.947C297.824 250.438 292.796 227.153 286.85 205.168H287.173C289.908 202.595 293.796 199.597 296.993 196.634L296.611 197.266C278.302 177.73 260.69 159.839 241.617 140.126L241.455 139.641C250.474 138.678 262.065 138.516 273.171 137.222L273.009 135.87L285.505 77.7812L284.299 77.2006C281.484 76.3406 279.573 76.0686 276.545 75.0763H276.06C271.782 76.5905 265.042 79.3615 260.764 80.8757L260.418 80.9124C243.285 68.0422 226.865 58.4869 209.731 45.6166L208.842 45.2932L195.428 46.4619L194.913 46.5795C190.599 63.9481 186.181 79.5012 181.859 96.8698L182.749 96.5831C161.521 106.594 139.963 116.84 118.28 126.601V127.41C117.795 144.462 118.824 159.677 118.339 176.723L132.605 173.775C132.363 184.771 132.745 194.224 132.495 205.219L131.914 206.557L90.8413 247.094L91.5616 247.652L101.521 277.31L102.609 278.369C117.412 277.715 132.422 277.274 147.343 276.612L147.218 276.267L176.89 329.343L177.037 329.299C180.014 329.299 184.924 328.975 188.629 329.137" fill="#DED8C0"/>
<path d="M193.208 314.775L252.355 298.729L249.562 297.994C249.929 298.428 250.628 301.53 251.047 302.728C251.892 305.131 252.73 307.535 253.56 309.945C255.354 315.127 257.133 320.324 258.919 325.513C262.329 335.473 265.74 345.432 269.268 355.348C269.775 356.781 271.223 357.825 272.796 357.347C276.148 356.333 280.565 356.686 284.064 356.399C285.343 356.296 286.467 355.583 286.828 354.297C287.21 352.937 289.011 351.518 289.922 350.431C291.443 348.608 292.98 346.792 294.523 344.984C297.449 341.551 300.403 338.134 303.329 334.701C304.718 333.069 306.1 331.438 307.467 329.798C308.753 328.255 310.65 326.601 311.539 324.808C313.105 321.669 310.304 318.839 308.775 316.237C304.27 308.571 300.087 300.721 295.81 292.93C293.56 288.821 291.282 284.72 288.93 280.67C287.423 278.082 286.004 273.746 282.778 273.099V278.626C289.76 277.215 296.89 276.818 303.865 275.407C307.077 274.76 306.284 269.777 303.101 269.777H302.939L305.703 271.879C300.506 249.35 295.626 226.748 289.606 204.418L286.842 208.049C288.908 208.049 290.194 206.271 291.649 205.021C294.104 202.904 296.618 200.861 299.014 198.678L294.508 195.201L294.126 195.833L298.632 195.253C289.488 185.499 280.234 175.855 270.936 166.249C266.364 161.53 261.785 156.811 257.206 152.099C254.876 149.703 252.546 147.307 250.223 144.903C249.047 143.691 247.871 142.478 246.688 141.258C246.159 140.706 244.395 139.428 244.211 138.884L241.447 142.515C252.002 141.434 262.616 141.28 273.163 140.096C274.56 139.942 276.229 138.906 276.03 137.23C275.545 133.106 277.64 127.939 278.514 123.889L281.712 109.012L288.268 78.553C288.518 77.3916 288.121 75.8775 286.952 75.3115C284.02 73.9076 280.154 72.636 276.927 72.2685C273.7 71.901 269.915 74.3413 267.1 75.4291C265.299 76.1274 263.255 77.2741 261.359 77.6195C260.264 77.818 260.94 77.6195 260.697 77.5607C259.595 77.2961 258.184 75.7085 257.206 75.0028C252.847 71.8496 248.415 68.7919 243.961 65.7783C235.339 59.9569 226.622 54.2752 218.147 48.2406C214.847 45.8886 211.745 42.3384 207.497 42.5442C203.248 42.75 198.331 42.8456 194.156 43.8158C193.215 44.0363 192.384 44.8816 192.157 45.8151C187.967 62.6177 183.3 79.3027 179.103 96.1053C178.595 98.134 180.484 100.332 182.631 99.6334L183.52 99.3468L181.308 94.1061C159.867 104.22 138.448 114.378 116.839 124.124C115.949 124.529 115.42 125.675 115.42 126.601C115.42 143.294 115.913 160.038 115.479 176.723C115.428 178.685 117.346 179.854 119.11 179.486L133.377 176.539L129.746 173.775C129.599 181.023 129.709 188.27 129.724 195.517C129.724 197.34 129.724 199.163 129.709 200.986C129.694 202.176 130.047 203.757 129.606 204.764C129.011 206.116 126.842 207.549 125.799 208.586L121.69 212.636L88.8345 245.065C87.8348 246.057 87.6143 248.167 88.8345 249.122C89.6797 249.784 89.8414 251.474 90.1795 252.467L91.9877 257.862L95.6114 268.645C96.6551 271.746 97.3093 276.009 99.0733 278.766C99.7789 279.876 100.984 280.919 102.256 281.191C105.343 281.868 109.525 280.949 112.693 280.824C116.545 280.677 120.389 280.53 124.241 280.39C131.951 280.104 139.669 279.817 147.372 279.486C149.092 279.413 150.804 277.693 150.135 275.855L150.01 275.51L144.77 277.722L174.443 330.798C175.038 331.864 176.493 332.496 177.684 332.114C178.956 331.71 181.234 332.062 182.594 332.026C184.615 331.967 186.637 331.945 188.658 332.004C192.348 332.121 192.348 326.388 188.658 326.27C186.262 326.197 183.873 326.248 181.477 326.322C179.882 326.373 177.699 326.087 176.155 326.579L179.397 327.895L149.724 274.819C148.18 272.048 143.351 273.915 144.483 277.031L144.608 277.377L147.372 273.746C132.465 274.392 117.544 274.848 102.638 275.502L104.667 276.34C103.329 275.039 103.131 273.003 102.506 271.151L99.1101 261.037L95.9421 251.599C95.1851 249.358 94.8396 246.564 92.8991 245.05V249.108L128.327 214.15C130.496 212.011 133.619 209.828 134.854 207.006C136.089 204.183 135.479 200.508 135.479 197.546C135.494 189.622 135.339 181.691 135.501 173.768C135.538 171.805 133.641 170.637 131.87 171.004L117.603 173.952L121.234 176.715C121.668 160.03 121.175 143.286 121.175 126.594L119.757 129.071C141.367 119.332 162.785 109.167 184.226 99.0528C187.158 97.6709 185.093 92.8051 182.013 93.812L181.124 94.0987L184.652 97.6268C188.842 80.8242 193.509 64.1392 197.706 47.3366L195.707 49.3358C197.544 48.9095 199.617 48.9536 201.491 48.7919C203.366 48.6302 206.144 47.8584 208.04 48.2333C210.047 48.6302 212.384 51.0925 214.126 52.3421C216.037 53.7166 217.963 55.069 219.896 56.4141C227.849 61.9268 235.964 67.2042 243.961 72.6581C247.849 75.3115 251.701 78.0017 255.501 80.7801C258.963 83.3086 259.911 84.2568 263.88 82.772C267.541 81.3975 271.238 79.4791 275.016 78.4942C276.736 78.0458 277.434 78.3398 279.242 78.8102C280.874 79.2292 282.557 79.5159 284.079 80.2436L282.763 77.0021L275.905 108.88L272.553 124.463C271.693 128.468 269.841 133.114 270.326 137.208L273.193 134.341C262.645 135.517 252.024 135.679 241.477 136.759C239.742 136.936 238.066 138.465 238.713 140.39C239.521 142.809 241.947 144.551 243.674 146.337C246.012 148.748 248.356 151.159 250.694 153.569C255.611 158.634 260.536 163.698 265.446 168.762C275.236 178.869 284.983 189.012 294.604 199.28C295.89 200.655 298.176 200.229 299.11 198.7L299.492 198.068C301.234 195.208 297.346 192.445 294.986 194.591C291.774 197.509 288.356 200.185 285.166 203.125L287.195 202.287H286.872C285.005 202.287 283.623 204.117 284.108 205.918C290.128 228.24 295.008 250.85 300.205 273.378C300.484 274.598 301.748 275.48 302.969 275.48H303.13L302.366 269.85C295.383 271.261 288.253 271.658 281.278 273.069C278.544 273.621 278.536 278.053 281.278 278.597L282.087 278.758L280.374 277.443C289.665 292.672 297.485 308.74 306.776 323.97L306.489 321.757C306.276 322.808 305.019 323.801 304.35 324.609C303.138 326.072 301.918 327.527 300.683 328.983C298.228 331.886 295.743 334.76 293.274 337.648C290.804 340.537 288.327 343.426 285.894 346.344C284.27 348.292 282.028 350.254 281.33 352.746L284.093 350.644C280.08 350.974 275.155 350.636 271.297 351.798L274.825 353.797C271.069 343.257 267.46 332.665 263.829 322.073C261.984 316.7 260.146 311.327 258.279 305.962C257.015 302.323 256.133 296.892 253.649 293.907C253.009 293.143 251.774 292.922 250.856 293.172L191.708 309.218C188.151 310.181 189.658 315.715 193.23 314.745L193.208 314.775Z" fill="black"/>
<path d="M132.701 173.562L132.076 195.547L129.562 209.365L111.348 228.211L215.618 304.212L247.026 296.671L254.567 300.442L272.201 352.643L287.232 348.181L309.069 321.735L283.461 277.832L290.877 274.885L283.461 234.488C283.461 234.488 124.52 132.283 122.631 131.658L122.961 174.466L132.708 173.562H132.701Z" fill="#C5BEA2"/>
<path d="M284.233 198.31C285.401 200.185 286.872 201.691 288.643 203.007C289.848 203.904 291.899 203.242 292.568 201.978C293.362 200.479 292.833 199.016 291.539 198.053C291.105 197.73 291.701 198.222 291.458 197.987C291.348 197.877 291.215 197.781 291.098 197.671C290.804 197.406 290.517 197.127 290.245 196.833C290.135 196.715 290.032 196.598 289.929 196.473C289.76 196.274 289.62 196.076 289.856 196.399C289.62 196.076 289.4 195.752 289.187 195.407C288.393 194.135 286.592 193.525 285.262 194.378C283.931 195.23 283.388 196.943 284.233 198.303V198.31Z" fill="#999069"/>
<path d="M276.883 80.6183C275.677 87.0424 274.862 93.5621 273.891 100.023L279.522 100.787L281.087 86.6602C281.44 83.4482 276.126 82.7573 275.457 85.8958C272.054 101.787 268.915 117.73 266.041 133.724C265.394 137.333 270.922 138.884 271.569 135.245C274.443 119.251 277.581 103.308 280.984 87.4173L275.354 86.6529L273.788 100.78C273.436 103.963 278.941 104.742 279.419 101.544C280.382 95.0763 281.205 88.5639 282.41 82.1398C283.086 78.5309 277.559 76.9873 276.883 80.6183Z" fill="#9A916A"/>
<path d="M233.185 143.669C234.354 143.404 235.523 143.404 236.692 143.669V138.141C235.295 138.406 234.685 138.81 233.656 139.78C232.561 140.809 232.539 142.809 233.656 143.838L242.498 152.004L245.975 147.498C244.02 146.374 242.359 145.043 240.991 143.235L236.486 146.712C244.593 155.525 253.472 163.536 262.447 171.453C266.769 175.267 271.113 179.06 275.383 182.926C277.684 185.006 279.962 187.109 282.212 189.247C283.174 190.166 284.13 191.085 285.078 192.018C285.71 192.636 286.342 193.261 286.967 193.885C289.584 194.606 290.304 194.518 289.113 193.636C288.055 191.651 284.681 189.519 283.02 187.873C280.881 185.756 278.794 183.58 276.743 181.383C272.921 177.289 269.216 173.092 265.504 168.895C257.801 160.199 250.032 151.548 241.285 143.874C238.522 141.449 234.45 145.492 237.228 147.932C247.607 157.031 256.574 167.505 265.74 177.788C270.319 182.926 274.964 188.02 279.889 192.834C282.594 195.48 287.959 202.618 292.156 198.516C296.684 194.091 290.216 188.975 287.232 186.109C282.116 181.199 276.816 176.48 271.495 171.783C260.859 162.404 250.157 153.092 240.543 142.647C238.382 140.302 234.053 143.492 236.037 146.124C238.022 148.755 240.234 150.813 243.079 152.445C245.923 154.077 248.996 150.196 246.556 147.939L237.713 139.773V143.83L238.213 143.669C240.94 143.147 240.962 138.641 238.213 138.141C235.942 137.73 233.935 137.722 231.664 138.141C228.04 138.803 229.577 144.33 233.185 143.669Z" fill="#999069"/>
<path d="M201.756 50.8574C212.032 61.1183 224.328 68.8801 236.522 76.6199L246.409 82.897C249.172 84.6537 253.185 88.5273 256.53 88.564C258.22 88.5861 260.095 87.535 261.675 86.9911C263.476 86.3737 265.291 85.7856 267.114 85.2197C271.208 83.9407 275.339 82.7941 279.499 81.7357C284.659 80.42 282.476 72.4303 277.294 73.746C269.9 75.6276 262.608 77.8548 255.427 80.4274L258.617 80.8463C241.241 69.8062 222.285 59.6409 207.614 44.9919C203.836 41.2212 197.978 47.0794 201.756 50.85V50.8574Z" fill="#9A916A"/>
<path d="M110.584 227.145L219.301 305.153L192.891 312.217L189.209 326.344L180.3 328.181L148.974 277.208L106.901 278.126L100.756 275.98L92.7739 244.962L110.584 227.145Z" fill="#AFAA8D"/>
<path d="M302.234 322.331C300.551 323.441 297.904 322.11 295.971 323.433C293.524 325.109 292.355 328.88 290.591 331.202C286.041 337.185 280.896 342.786 276.037 348.527C274.626 350.195 275.354 353.716 278.066 353.422C283.417 352.834 286.703 347.564 290.113 343.882L303.417 329.527C305.924 326.822 301.881 322.757 299.36 325.469L288.908 336.744L284.152 341.868C282.829 343.294 280.11 347.454 278.059 347.682L280.087 352.577C284.623 347.211 289.268 341.919 293.685 336.465C294.509 335.451 295.317 334.429 296.082 333.371C296.912 332.217 297.706 329.945 298.735 329.056C300.448 327.579 303.064 328.644 305.122 327.277C308.187 325.249 305.321 320.28 302.226 322.323L302.234 322.331Z" fill="#999069"/>
<path d="M283.226 200.912C279.757 205.322 280.021 210.159 281.491 215.363C283.153 221.243 285.034 227.072 286.71 232.952C290.201 245.197 293.399 257.524 296.332 269.916L298.331 266.388L292.458 267.858L296.089 270.622L294.479 257.443L288.849 258.207C289.569 261.949 290.473 265.631 291.583 269.277C292.693 272.923 298.029 271.342 297.111 267.755C292.09 247.991 288.628 227.895 286.798 207.586C286.468 203.941 280.734 203.904 281.065 207.586C282.939 228.402 286.431 249.02 291.583 269.277L297.111 267.755C296.001 264.11 295.097 260.427 294.376 256.686C293.774 253.555 288.349 254.224 288.746 257.45L290.356 270.629C290.584 272.481 292.002 273.893 293.987 273.393L299.86 271.923C301.403 271.533 302.212 269.88 301.859 268.395C299.36 257.84 296.67 247.329 293.766 236.877C292.377 231.879 290.944 226.895 289.466 221.919C288.129 217.421 283.91 209.262 287.276 204.977C289.533 202.103 285.497 198.024 283.219 200.92L283.226 200.912Z" fill="#999069"/>
<path d="M282.417 273.826L276.522 274.547C274.913 274.745 272.965 276.259 273.759 278.178C277.772 287.895 282.138 297.465 286.93 306.829C288.996 310.864 290.907 315.539 293.722 319.119C296.537 322.698 300.602 323.029 304.85 322.58C307.327 322.323 309.194 318.538 306.298 317.237C303.182 315.84 301.873 311.585 300.389 308.747L294.773 297.994L283.535 276.487C281.822 273.216 276.875 276.112 278.581 279.383L291.142 303.418C293.127 307.211 295.104 311.011 297.088 314.804C298.647 317.773 300.205 320.758 303.402 322.191L304.85 316.847C302.954 317.046 300.844 317.428 299.169 316.37C297.493 315.311 296.691 313.047 295.787 311.379C293.788 307.682 291.855 303.955 289.981 300.199C286.144 292.481 282.572 284.631 279.286 276.664L276.522 280.295L282.417 279.574C286.034 279.133 286.078 273.393 282.417 273.841V273.826Z" fill="#999069"/>
<path d="M275.986 81.3828C278.669 80.3391 284.784 78.5457 284.784 78.5457" stroke="#F4EDD1" stroke-width="4.33" stroke-miterlimit="10"/>
<path d="M185.468 86.2487L156.802 223.242L136.104 247.108L149.665 280.971" stroke="#F4EDD1" stroke-width="4.33" stroke-miterlimit="10"/>
<path d="M136.104 206.219V246.072" stroke="#F4EDD1" stroke-width="4.33" stroke-miterlimit="10"/>
<path d="M156.89 223.889C157.515 227.66 209.893 278.898 209.893 278.898C209.893 278.898 247.019 227.579 246.394 225.065C245.769 222.551 233.119 198.024 233.119 198.024L156.89 223.889Z" stroke="#F4EDD1" stroke-width="4.33" stroke-miterlimit="10"/>
<path d="M177.044 327.77C177.044 327.77 195.008 267.924 195.008 264.786" stroke="#F4EDD1" stroke-width="4.33" stroke-miterlimit="10"/>
<path d="M180.911 312.562L196.772 309.24" stroke="#F4EDD1" stroke-width="4.33" stroke-miterlimit="10"/>
<path d="M191.312 281.64L290.371 272.805L279.059 203.088" stroke="#F4EDD1" stroke-width="4.33" stroke-miterlimit="10"/>
<path d="M226.298 137.759L285.549 200.016L246.394 225.072" stroke="#F4EDD1" stroke-width="4.33" stroke-miterlimit="10"/>
<path d="M247.651 137.759H206.196L233.48 199.288" stroke="#F4EDD1" stroke-width="4.33" stroke-miterlimit="10"/>
<path d="M195.516 47.3073L256.001 89.4387C256.001 89.4387 181.999 120.369 177.684 122.36" stroke="#F4EDD1" stroke-width="4.33" stroke-miterlimit="10"/>
<path d="M254.031 89.8503L274.935 81.89L265.24 136.502" stroke="#F4EDD1" stroke-width="4.33" stroke-miterlimit="10"/>
<path d="M271.524 274.694L295.508 322.786H308.783" stroke="#F4EDD1" stroke-width="4.33" stroke-miterlimit="10"/>
<path d="M295.39 321.801L273.935 350.997" stroke="#F4EDD1" stroke-width="4.33" stroke-miterlimit="10"/>
<path d="M248.283 275.951C248.283 278.464 255.825 305.477 255.825 305.477" stroke="#F4EDD1" stroke-width="4.33" stroke-miterlimit="10"/>
<path d="M196.397 115.076C197.654 116.958 206.195 137.752 206.195 137.752" stroke="#F4EDD1" stroke-width="4.33" stroke-miterlimit="10"/>
<path d="M169.371 160.126C164.52 161.861 121.278 173.04 121.278 173.04" stroke="#F4EDD1" stroke-width="4.33" stroke-miterlimit="10"/>
<path d="M105.703 277.663L96.4126 248.792L136.567 208.975L136.898 170.151" stroke="#F4EDD1" stroke-width="4.33" stroke-miterlimit="10"/>
<path d="M118.316 130.997L181.499 101.912" stroke="#F4EDD1" stroke-width="4.33" stroke-miterlimit="10"/>
<path d="M122.094 173.533L121.933 128.939" stroke="#F4EDD1" stroke-width="4.33" stroke-miterlimit="10"/>
<path d="M131.848 170.857C127.372 172.452 122.837 173.694 118.162 174.562C114.538 175.23 116.075 180.765 119.684 180.089C124.358 179.222 128.886 177.979 133.37 176.384C136.824 175.157 135.332 169.615 131.848 170.857Z" fill="black"/>
<path d="M190.863 328.38C192.193 323.044 193.45 317.693 194.781 312.356C195.677 308.777 190.143 307.248 189.253 310.835C187.923 316.171 186.666 321.522 185.336 326.858C184.439 330.438 189.974 331.967 190.863 328.38Z" fill="black"/>
<path d="M193.208 314.775L252.355 298.729L249.562 297.994C249.929 298.428 250.628 301.53 251.047 302.728C251.892 305.131 252.73 307.535 253.56 309.945C255.354 315.127 257.133 320.324 258.919 325.513C262.329 335.473 265.74 345.432 269.268 355.348C269.775 356.781 271.223 357.825 272.796 357.347C276.148 356.333 280.565 356.686 284.064 356.399C285.343 356.296 286.467 355.583 286.828 354.297C287.21 352.937 289.011 351.518 289.922 350.431C291.443 348.608 292.98 346.792 294.523 344.984C297.449 341.551 300.403 338.134 303.329 334.701C304.718 333.069 306.1 331.438 307.467 329.798C308.753 328.255 310.65 326.601 311.539 324.808C313.105 321.669 310.304 318.839 308.775 316.237C304.27 308.571 300.087 300.721 295.81 292.93C293.56 288.821 291.282 284.72 288.93 280.67C287.423 278.082 286.004 273.746 282.778 273.099V278.626C289.76 277.215 296.89 276.818 303.865 275.407C307.077 274.76 306.284 269.777 303.101 269.777H302.939L305.703 271.879C300.506 249.35 295.626 226.748 289.606 204.418L286.842 208.049C288.908 208.049 290.194 206.271 291.649 205.021C294.104 202.904 296.618 200.861 299.014 198.678L294.508 195.201L294.126 195.833L298.632 195.253C289.488 185.499 280.234 175.855 270.936 166.249C266.364 161.53 261.785 156.811 257.206 152.099C254.876 149.703 252.546 147.307 250.223 144.903C249.047 143.691 247.871 142.478 246.688 141.258C246.159 140.706 244.395 139.428 244.211 138.884L241.447 142.515C252.002 141.434 262.616 141.28 273.163 140.096C274.56 139.942 276.229 138.906 276.03 137.23C275.545 133.106 277.64 127.939 278.514 123.889L281.712 109.012L288.268 78.553C288.518 77.3916 288.121 75.8775 286.952 75.3115C284.02 73.9076 280.154 72.636 276.927 72.2685C273.7 71.901 269.915 74.3413 267.1 75.4291C265.299 76.1274 263.255 77.2741 261.359 77.6195C260.264 77.818 260.94 77.6195 260.697 77.5607C259.595 77.2961 258.184 75.7085 257.206 75.0028C252.847 71.8496 248.415 68.7919 243.961 65.7783C235.339 59.9569 226.622 54.2752 218.147 48.2406C214.847 45.8886 211.745 42.3384 207.497 42.5442C203.248 42.75 198.331 42.8456 194.156 43.8158C193.215 44.0363 192.384 44.8816 192.157 45.8151C187.967 62.6177 183.3 79.3027 179.103 96.1053C178.595 98.134 180.484 100.332 182.631 99.6334L183.52 99.3468L181.308 94.1061C159.867 104.22 138.448 114.378 116.839 124.124C115.949 124.529 115.42 125.675 115.42 126.601C115.42 143.294 115.913 160.038 115.479 176.723C115.428 178.685 117.346 179.854 119.11 179.486L133.377 176.539L129.746 173.775C129.599 181.023 129.709 188.27 129.724 195.517C129.724 197.34 129.724 199.163 129.709 200.986C129.694 202.176 130.047 203.757 129.606 204.764C129.011 206.116 126.842 207.549 125.799 208.586L121.69 212.636L88.8345 245.065C87.8348 246.057 87.6143 248.167 88.8345 249.122C89.6797 249.784 89.8414 251.474 90.1795 252.467L91.9877 257.862L95.6114 268.645C96.6551 271.746 97.3093 276.009 99.0733 278.766C99.7789 279.876 100.984 280.919 102.256 281.191C105.343 281.868 109.525 280.949 112.693 280.824C116.545 280.677 120.389 280.53 124.241 280.39C131.951 280.104 139.669 279.817 147.372 279.486C149.092 279.413 150.804 277.693 150.135 275.855L150.01 275.51L144.77 277.722L174.443 330.798C175.038 331.864 176.493 332.496 177.684 332.114C178.956 331.71 181.234 332.062 182.594 332.026C184.615 331.967 186.637 331.945 188.658 332.004C192.348 332.121 192.348 326.388 188.658 326.27C186.262 326.197 183.873 326.248 181.477 326.322C179.882 326.373 177.699 326.087 176.155 326.579L179.397 327.895L149.724 274.819C148.18 272.048 143.351 273.915 144.483 277.031L144.608 277.377L147.372 273.746C132.465 274.392 117.544 274.848 102.638 275.502L104.667 276.34C103.329 275.039 103.131 273.003 102.506 271.151L99.1101 261.037L95.9421 251.599C95.1851 249.358 94.8396 246.564 92.8991 245.05V249.108L128.327 214.15C130.496 212.011 133.619 209.828 134.854 207.006C136.089 204.183 135.479 200.508 135.479 197.546C135.494 189.622 135.339 181.691 135.501 173.768C135.538 171.805 133.641 170.637 131.87 171.004L117.603 173.952L121.234 176.715C121.668 160.03 121.175 143.286 121.175 126.594L119.757 129.071C141.367 119.332 162.785 109.167 184.226 99.0528C187.158 97.6709 185.093 92.8051 182.013 93.812L181.124 94.0987L184.652 97.6268C188.842 80.8242 193.509 64.1392 197.706 47.3366L195.707 49.3358C197.544 48.9095 199.617 48.9536 201.491 48.7919C203.366 48.6302 206.144 47.8584 208.04 48.2333C210.047 48.6302 212.384 51.0925 214.126 52.3421C216.037 53.7166 217.963 55.069 219.896 56.4141C227.849 61.9268 235.964 67.2042 243.961 72.6581C247.849 75.3115 251.701 78.0017 255.501 80.7801C258.963 83.3086 259.911 84.2568 263.88 82.772C267.541 81.3975 271.238 79.4791 275.016 78.4942C276.736 78.0458 277.434 78.3398 279.242 78.8102C280.874 79.2292 282.557 79.5159 284.079 80.2436L282.763 77.0021L275.905 108.88L272.553 124.463C271.693 128.468 269.841 133.114 270.326 137.208L273.193 134.341C262.645 135.517 252.024 135.679 241.477 136.759C239.742 136.936 238.066 138.465 238.713 140.39C239.521 142.809 241.947 144.551 243.674 146.337C246.012 148.748 248.356 151.159 250.694 153.569C255.611 158.634 260.536 163.698 265.446 168.762C275.236 178.869 284.983 189.012 294.604 199.28C295.89 200.655 298.176 200.229 299.11 198.7L299.492 198.068C301.234 195.208 297.346 192.445 294.986 194.591C291.774 197.509 288.356 200.185 285.166 203.125L287.195 202.287H286.872C285.005 202.287 283.623 204.117 284.108 205.918C290.128 228.24 295.008 250.85 300.205 273.378C300.484 274.598 301.748 275.48 302.969 275.48H303.13L302.366 269.85C295.383 271.261 288.253 271.658 281.278 273.069C278.544 273.621 278.536 278.053 281.278 278.597L282.087 278.758L280.374 277.443C289.665 292.672 297.485 308.74 306.776 323.97L306.489 321.757C306.276 322.808 305.019 323.801 304.35 324.609C303.138 326.072 301.918 327.527 300.683 328.983C298.228 331.886 295.743 334.76 293.274 337.648C290.804 340.537 288.327 343.426 285.894 346.344C284.27 348.292 282.028 350.254 281.33 352.746L284.093 350.644C280.08 350.974 275.155 350.636 271.297 351.798L274.825 353.797C271.069 343.257 267.46 332.665 263.829 322.073C261.984 316.7 260.146 311.327 258.279 305.962C257.015 302.323 256.133 296.892 253.649 293.907C253.009 293.143 251.774 292.922 250.856 293.172L191.708 309.218C188.151 310.181 189.658 315.715 193.23 314.745L193.208 314.775Z" fill="black"/>
</svg>
