<svg width="400" height="400" viewBox="0 0 400 400" fill="none" xmlns="http://www.w3.org/2000/svg">
<path d="M237.854 203.864L253.294 214.444L252.994 230.584L246.294 237.884L237.854 203.864Z" fill="#62862C" stroke="black" stroke-width="6.88" stroke-linecap="round" stroke-linejoin="round"/>
<path d="M159.844 155.394C161.164 154.934 175.014 145.634 181.224 146.864C187.424 148.094 191.414 148.914 191.414 148.914C191.414 148.914 187.524 154.274 187.144 158.254C186.764 162.234 190.274 217.404 190.274 217.404L199.684 226.094C199.684 226.094 201.674 240.644 199.904 240.224C198.134 239.804 176.574 245.884 176.574 245.884L159.844 155.384V155.394Z" fill="#62862C"/>
<path d="M162.584 157.524C162.584 157.524 165.984 164.384 166.234 168.174C166.534 172.744 165.934 176.394 165.934 176.394C165.934 176.394 172.574 214.034 172.324 216.274C171.514 223.484 173.234 248.844 173.234 248.844C173.234 248.844 156.684 255.194 156.354 252.844C155.934 249.854 157.304 250.574 156.484 232.964C155.364 208.974 152.084 165.314 152.324 164.544C152.744 163.214 157.024 154.314 160.964 152.044C164.904 149.774 162.574 157.534 162.574 157.534L162.584 157.524Z" fill="#3F6015"/>
<path d="M211.764 156.204C211.774 157.144 204.294 219.324 204.294 219.324C204.294 219.324 200.644 226.934 195.774 225.714C190.904 224.494 187.504 220.534 184.514 210.194C181.514 199.844 167.194 153.394 167.774 149.924C168.354 146.454 185.454 144.654 185.454 144.654L211.774 156.214L211.764 156.204Z" fill="#859E3B"/>
<path d="M152.084 176.474C151.624 175.154 150.574 164.564 150.574 164.564C150.574 164.564 171.844 139.934 183.374 142.844C194.904 145.754 210.084 155.684 221.684 163.014C233.284 170.344 235.084 172.524 235.574 175.614C236.064 178.704 235.934 198.584 235.934 198.584C235.934 198.584 220.664 182.474 211.374 181.734C202.084 180.994 176.414 177.854 168.464 177.984C160.514 178.104 152.644 183.534 152.644 183.534L152.094 176.474H152.084Z" stroke="black" stroke-width="9.17" stroke-linecap="round" stroke-linejoin="round"/>
<path d="M246.824 246.134C248.174 247.434 259.034 264.054 260.374 264.924C261.714 265.794 259.614 272.884 254.344 274.734C249.074 276.584 241.534 274.934 241.534 274.934L211.194 255.964L246.824 246.134Z" fill="#3F6015" stroke="black" stroke-width="9.17" stroke-linecap="round" stroke-linejoin="round"/>
<path d="M205.884 255.604C205.884 255.604 238.004 275.424 236.674 275.004C235.344 274.584 228.294 280.654 222.424 282.604C216.974 284.424 209.544 287.744 208.634 285.994C207.724 284.244 180.474 269.254 180.474 269.254C180.474 269.254 205.884 255.164 205.884 255.604Z" fill="#3F6015" stroke="black" stroke-width="9.17" stroke-linecap="round" stroke-linejoin="round"/>
<path d="M163.314 273.944C163.314 273.944 168.314 282.704 175.854 284.794C183.394 286.884 195.734 284.924 195.734 284.924L181.384 271.454L163.304 273.944H163.314Z" fill="#3F6015" stroke="black" stroke-width="9.17" stroke-linecap="round" stroke-linejoin="round"/>
<path d="M162.684 119.314C162.684 119.314 164.084 124.154 169.034 129.814C173.984 135.484 179.854 143.784 179.854 143.784C179.854 143.784 165.804 149.304 160.584 154.684C155.364 160.064 150.154 165.894 148.814 165.024C147.474 164.154 137.714 132.944 137.714 132.944L162.684 119.304V119.314Z" fill="#A1560E"/>
<path d="M196.274 120.114L190.914 144.494L167.034 143.094L157.804 117.614C157.804 117.614 173.654 114.274 179.864 115.504C186.064 116.734 196.284 120.104 196.284 120.104L196.274 120.114Z" fill="#FAA464"/>
<path d="M241.344 149.024L223.044 165.214L189.164 145.854L194.454 116.614C194.454 116.614 214.064 127.794 223.874 133.384C233.684 138.974 241.344 149.014 241.344 149.014V149.024Z" fill="#CA7E40"/>
<path d="M219.874 166.514C219.874 166.514 215.304 170.444 215.094 173.274C214.884 176.104 221.804 208.124 221.624 212.754C221.434 217.384 222.994 234.584 222.994 234.584L239.584 226.874L234.374 172.464L219.884 166.524L219.874 166.514Z" fill="#3F6015"/>
<path d="M193.024 147.484C193.664 148.104 204.424 202.894 205.204 212.014C205.974 221.134 207.034 230.584 207.034 230.584L221.324 224.394C221.324 224.394 221.994 166.114 221.974 165.174C221.954 164.234 193.024 147.474 193.024 147.474V147.484Z" fill="#62862C"/>
<path d="M260.494 187.164L239.084 202.514C239.084 202.514 238.734 179.984 235.574 175.614C232.414 171.244 223.044 165.204 223.044 165.204L238.674 147.284C238.674 147.284 249.954 162.574 253.144 168.704C256.334 174.844 260.534 189.354 260.534 189.354" fill="#A1560E"/>
<path d="M239.084 202.514L262.254 186.694C263.114 185.354 246.574 144.084 222.494 130.314C198.424 116.554 180.674 111.964 166.574 113.954C152.464 115.944 137.714 132.954 137.714 132.954L148.404 167.254C148.404 167.254 168.354 143.084 179.854 143.794C191.354 144.504 205.184 153.564 215.894 160.024C226.594 166.484 234.144 169.014 235.574 175.624C237.004 182.234 239.084 202.524 239.084 202.524V202.514Z" stroke="black" stroke-width="9.17" stroke-linecap="round" stroke-linejoin="round"/>
<path d="M232.024 203.064L240.804 227.674C240.804 227.674 203.894 240.614 204.314 239.284C204.734 237.954 203.064 215.884 203.064 215.884C203.064 215.884 209.094 206.074 217.024 204.624C224.954 203.174 232.024 203.064 232.024 203.064Z" stroke="black" stroke-width="9.17" stroke-linecap="round" stroke-linejoin="round"/>
<path d="M173.944 246.824L177.954 220.694C177.954 220.694 183.624 216.184 189.364 215.654C195.104 215.124 203.064 215.884 203.064 215.884L204.314 239.284L173.944 246.824Z" stroke="black" stroke-width="9.17" stroke-linecap="round" stroke-linejoin="round"/>
<path d="M159.094 229.384L155.414 248.444C155.414 248.444 155.924 252.854 158.584 253.254C161.244 253.654 166.074 251.814 166.074 251.814L174.784 243.724L176.674 223.374C176.674 223.374 170.044 223.474 166.974 224.404C163.904 225.334 159.094 229.384 159.094 229.384Z" stroke="black" stroke-width="9.17" stroke-linecap="round" stroke-linejoin="round"/>
<path d="M153.034 180.874L159.094 229.384C159.094 229.384 175.364 224.274 176.674 223.364C177.984 222.454 177.024 217.174 184.954 216.164C192.894 215.154 201.314 217.234 201.314 217.234C201.314 217.234 211.304 206.034 217.024 204.624C222.744 203.214 236.024 204.774 236.024 204.774L235.454 196.384C235.454 196.384 219.794 183.814 211.364 181.734C202.934 179.654 176.854 178.734 170.224 178.394C163.594 178.054 153.034 180.874 153.034 180.874Z" stroke="black" stroke-width="9.17" stroke-linecap="round" stroke-linejoin="round"/>
<path d="M223.084 224.854C223.084 224.854 204.624 230.884 207.864 240.554C211.104 250.224 214.774 259.004 228.444 257.024C242.114 255.044 248.664 250.524 247.644 241.704C246.624 232.884 239.404 223.274 223.084 224.854Z" fill="#A1560E" stroke="black" stroke-width="9.17" stroke-miterlimit="10"/>
<path d="M203.574 249.014C201.314 245.954 195.454 238.094 186.644 239.994C177.834 241.894 168.214 248.234 171.464 258.344C174.714 268.454 179.644 273.234 189.354 272.204C199.054 271.174 200.774 268.054 202.904 262.714C205.034 257.374 205.834 252.064 203.574 249.004V249.014Z" fill="#A1560E" stroke="black" stroke-width="9.17" stroke-miterlimit="10"/>
<path d="M166.884 253.194C166.024 253.204 161.384 251.554 158.254 254.484C155.124 257.414 154.724 268.384 155.934 272.404C157.154 276.424 164.644 276.304 169.524 274.784C174.404 273.264 166.884 253.194 166.884 253.194Z" fill="#A1560E" stroke="black" stroke-width="9.17" stroke-linecap="round" stroke-linejoin="round"/>
<path d="M235.474 231.654C235.474 231.654 233.874 240.044 228.154 243.304C222.434 246.564 216.684 247.804 216.684 247.804L212.214 238.644C212.214 238.644 213.584 232.654 221.034 230.724C230.514 228.274 235.464 231.654 235.464 231.654H235.474Z" fill="#FAA464"/>
<path d="M196.794 248.114C196.794 248.114 195.744 254.764 189.444 257.744C183.144 260.724 177.664 260.814 177.664 260.814C177.664 260.814 172.374 254.264 177.204 249.864C182.034 245.464 188.354 243.924 190.674 244.174C192.994 244.424 196.794 248.114 196.794 248.114Z" fill="#FAA464"/>
<path d="M165.594 263.304L159.864 265.704C159.864 265.704 160.324 258.484 162.334 257.884C164.344 257.284 165.594 263.314 165.594 263.314V263.304Z" fill="#FAA464"/>
</svg>
