<svg width="20" height="24" viewBox="0 0 20 24" fill="none" xmlns="http://www.w3.org/2000/svg">
<path d="M6.01537 23.4371C5.91824 23.4371 5.82337 23.4124 5.73753 23.363L1.49318 20.9675C1.36217 20.8934 1.2673 20.7722 1.22664 20.6285C1.18598 20.4848 1.20631 20.3322 1.28085 20.202L2.94336 17.2924C3.04274 17.1173 3.23249 17.0073 3.43352 17.0073H3.44256C3.65037 17.0117 3.83785 17.1262 3.93272 17.3081L5.11183 19.5442L7.64625 19.405C7.64625 19.405 7.66657 19.405 7.67787 19.405C7.87213 19.405 8.05509 19.506 8.15674 19.6699C8.26517 19.845 8.26968 20.065 8.16804 20.2424L6.50553 23.152C6.43099 23.2822 6.30902 23.3765 6.16445 23.4169C6.11476 23.4303 6.06506 23.4371 6.01537 23.4371Z" fill="white"/>
<path d="M3.43011 17.5703L4.67473 19.9321C4.70635 19.9905 4.75153 20.0376 4.808 20.069C4.85769 20.0982 4.91642 20.1139 4.97515 20.1139C4.98193 20.1139 4.98644 20.1139 4.99322 20.1139L7.6722 19.968L6.0097 22.8776L1.76535 20.4821L3.42785 17.5725M3.42785 16.45C3.02126 16.45 2.64629 16.6655 2.44526 17.018L0.782758 19.9276C0.475556 20.4664 0.665298 21.1512 1.20742 21.4587L5.45176 23.8542C5.62344 23.9507 5.81544 24.0001 6.0097 24.0001C6.10908 24.0001 6.21073 23.9866 6.31012 23.9597C6.59925 23.8811 6.8432 23.6903 6.99229 23.4321L8.65479 20.5225C8.85808 20.1656 8.85131 19.7255 8.6322 19.3776C8.42665 19.0453 8.06072 18.8455 7.6722 18.8455C7.65187 18.8455 7.63154 18.8455 7.60895 18.8455L5.43595 18.9645L4.42625 17.0494C4.23425 16.6858 3.85703 16.4545 3.44592 16.4478C3.43914 16.4478 3.43237 16.4478 3.42559 16.4478L3.42785 16.45Z" fill="black"/>
<path d="M6.9128 16.2514C6.70498 16.2469 6.5175 16.1324 6.42263 15.9505L4.75335 12.7828C4.67655 12.6391 4.66752 12.4685 4.7285 12.318L8.96382 1.55978C9.04062 1.3667 9.21906 1.22975 9.42688 1.2073L15.1824 0.56522C15.2027 0.562975 15.2253 0.56073 15.2456 0.56073C15.4331 0.56073 15.6116 0.655022 15.7177 0.812175C15.8352 0.987289 15.842 1.21404 15.7381 1.39813L7.412 15.9662C7.31261 16.1414 7.12287 16.2514 6.92183 16.2514H6.9128Z" fill="white"/>
<path d="M15.246 1.12221L6.92216 15.6903L5.25289 12.5226L9.49045 1.76429L15.246 1.12221ZM15.246 -0.000312805C15.2324 -0.000312805 15.2211 -0.000312805 15.2076 -0.000312805C15.1714 -0.000312805 15.1375 0.00417731 15.1037 0.0086674L9.36396 0.648506C8.94834 0.695652 8.59144 0.967303 8.43784 1.3557L4.20027 12.1117C4.08055 12.4148 4.09862 12.7538 4.25222 13.0412L5.9215 16.2089C6.1135 16.5726 6.49073 16.8039 6.90183 16.8106C6.90861 16.8106 6.91539 16.8106 6.92216 16.8106C7.32875 16.8106 7.70372 16.5951 7.90475 16.2426L16.2105 1.70592C16.3144 1.5353 16.3754 1.33549 16.3754 1.12221C16.3754 0.509313 15.8807 0.0109124 15.2663 -0.000312805C15.2595 -0.000312805 15.2527 -0.000312805 15.246 -0.000312805Z" fill="black"/>
<path d="M7.51458 16.5843C7.32032 16.5843 7.13735 16.4833 7.03571 16.3194C6.92728 16.1443 6.92277 15.9243 7.02441 15.7469L15.346 1.17882C15.4476 1.00371 15.6351 0.8937 15.8361 0.8937C15.8452 0.8937 15.8542 0.8937 15.861 0.8937C16.0733 0.90268 16.2608 1.03065 16.3489 1.22148L18.7432 6.46366C18.8291 6.65225 18.8042 6.87451 18.6755 7.04064L11.5511 16.169C11.4517 16.297 11.3004 16.3755 11.1355 16.3845L7.54169 16.5821C7.54169 16.5821 7.52136 16.5821 7.51006 16.5821L7.51458 16.5843Z" fill="white"/>
<path d="M15.8375 1.45674L18.2318 6.69893L11.1075 15.8273L7.51368 16.0249L15.8375 1.45674ZM15.8375 0.334221C15.4331 0.334221 15.0559 0.549746 14.8549 0.902218L6.53109 15.4681C6.32779 15.825 6.33457 16.2651 6.55368 16.6131C6.75923 16.9453 7.12516 17.1451 7.51368 17.1451C7.53401 17.1451 7.55434 17.1451 7.57693 17.1451L11.1707 16.9476C11.4983 16.9296 11.8009 16.7725 12.002 16.5143L19.1263 7.38592C19.3838 7.05589 19.4358 6.61362 19.2619 6.23421L16.8675 0.99202C16.6913 0.608117 16.3141 0.354426 15.8894 0.334221C15.8714 0.334221 15.8555 0.334221 15.8375 0.334221Z" fill="black"/>
<path d="M5.17853 19.9884C4.96846 19.9884 4.77646 19.8739 4.67933 19.6876L1.5915 13.8325C1.50341 13.6641 1.50567 13.4598 1.60054 13.2959L3.13429 10.6131C3.23367 10.438 3.42342 10.328 3.62445 10.328H3.63349C3.8413 10.3325 4.02878 10.447 4.12365 10.6288L7.04207 16.1651L13.3194 15.8216C13.3194 15.8216 13.3397 15.8216 13.351 15.8216C13.5452 15.8216 13.7282 15.9226 13.8299 16.0865C13.9383 16.2616 13.9428 16.4816 13.8412 16.659L12.3074 19.3418C12.2125 19.508 12.0386 19.6135 11.8466 19.6247L5.20564 19.9884C5.20564 19.9884 5.18531 19.9884 5.17401 19.9884H5.17853Z" fill="white"/>
<path d="M3.62552 10.8895L6.60943 16.5515C6.66816 16.6638 6.78562 16.7334 6.90986 16.7334C6.91664 16.7334 6.92115 16.7334 6.92793 16.7334L13.3498 16.3809L11.816 19.0637L5.17508 19.4274L2.08951 13.5723L3.62326 10.8895M3.62552 9.76699C3.21893 9.76699 2.84396 9.98252 2.64293 10.335L1.10918 13.0178C0.919436 13.3501 0.912659 13.7542 1.09111 14.0932L4.17667 19.9483C4.37319 20.3187 4.75945 20.55 5.17733 20.55C5.19766 20.55 5.21799 20.55 5.24058 20.55L11.8815 20.1863C12.2656 20.1661 12.6112 19.9528 12.8009 19.6205L14.3166 16.9669C14.4205 16.7962 14.4815 16.5964 14.4815 16.3831C14.4815 15.7658 13.98 15.2629 13.3588 15.2606C13.3566 15.2606 13.3543 15.2606 13.352 15.2606C13.3453 15.2606 13.3408 15.2606 13.334 15.2606C13.3159 15.2606 13.2978 15.2606 13.2798 15.2606L7.37518 15.5839L4.62618 10.3687C4.43418 10.005 4.05695 9.77373 3.64585 9.76699C3.63907 9.76699 3.63229 9.76699 3.62552 9.76699Z" fill="black"/>
</svg>
