<svg width="22" height="24" viewBox="0 0 22 24" fill="none" xmlns="http://www.w3.org/2000/svg">
<path d="M11.1721 23.4554C11.0777 23.4554 10.9833 23.4467 10.8911 23.427C10.7682 23.403 10.6497 23.3638 10.5377 23.3092C4.15842 20.2219 1.04341 12.2059 0.784375 5.62995C0.769009 5.24595 0.905112 4.8794 1.16854 4.59795C1.43196 4.31649 1.78978 4.15504 2.17614 4.14413C5.16383 4.04813 7.73003 2.99431 10.0196 0.919403C10.2853 0.679403 10.6277 0.546312 10.9877 0.546312C11.3543 0.548494 11.6946 0.681585 11.958 0.919403C14.241 2.98995 16.8116 4.04377 19.8147 4.13758C20.1988 4.15068 20.5567 4.30995 20.8201 4.58922C21.0835 4.86849 21.2218 5.23504 21.2087 5.61686C20.9584 12.8758 17.4153 19.6198 11.9602 23.2176C11.7253 23.3725 11.4531 23.4532 11.1721 23.4532V23.4554ZM2.77543 6.07068C2.96861 9.14267 3.81157 12.2801 5.17041 14.9616C6.33826 17.2678 7.85077 19.1441 9.58279 20.4423V3.74704C7.53246 5.12377 5.24944 5.90268 2.77763 6.07068H2.77543Z" fill="white"/>
<path d="M10.9912 1.09093C10.9912 1.09093 10.9956 1.09093 10.9978 1.09093C11.2107 1.09093 11.4215 1.16947 11.5905 1.3222C13.9174 3.43202 16.6351 4.58402 19.8006 4.6822C20.2945 4.69747 20.6809 5.10765 20.6633 5.59856C20.435 12.2618 17.3244 19.0277 11.6585 22.7629C11.5115 22.8589 11.3424 22.9069 11.1734 22.9069C11.1141 22.9069 11.057 22.9004 11 22.8895C10.9253 22.8742 10.8507 22.8502 10.7805 22.8153C4.78751 19.9157 1.59347 12.1833 1.33663 5.60511C1.31688 5.11202 1.70323 4.70183 2.19935 4.68438C5.35168 4.58402 8.06497 3.42765 10.3941 1.31565C10.5631 1.16293 10.7783 1.08438 10.9934 1.08438M10.1329 21.4713V2.67274C7.81252 4.4902 5.15631 5.45893 2.2257 5.55056C2.21911 5.55056 2.21472 5.55056 2.20813 5.55711C2.20155 5.56365 2.20155 5.56802 2.20155 5.57456C2.33106 8.88438 3.21135 12.3055 4.67995 15.2051C6.08927 17.9869 7.9574 20.1317 10.1307 21.4778M10.9912 1.71661e-05C10.4951 1.71661e-05 10.0187 0.18329 9.65211 0.514926C7.46348 2.4982 5.01362 3.50838 2.16203 3.59783C1.6286 3.61529 1.13248 3.83784 0.77027 4.2262C0.405864 4.61456 0.217073 5.12074 0.239025 5.65093C0.379518 9.23565 1.33444 12.9404 2.92597 16.0844C4.748 19.68 7.29664 22.3484 10.2975 23.7993C10.4512 23.8735 10.6158 23.928 10.7848 23.9629C10.9122 23.9891 11.0439 24 11.1734 24C11.5641 24 11.9417 23.8866 12.2666 23.6727C15.127 21.7855 17.5198 19.0517 19.1815 15.768C20.7467 12.6742 21.6402 9.1702 21.7609 5.63565C21.7785 5.10547 21.5897 4.60147 21.2253 4.21529C20.8609 3.82911 20.3691 3.60874 19.8357 3.59129C16.9666 3.50183 14.5123 2.49383 12.3303 0.514926C11.9681 0.185472 11.4983 0.00219898 11.0066 1.71661e-05C11.0044 1.71661e-05 10.9934 1.71661e-05 10.9912 1.71661e-05ZM3.36282 6.56729C5.389 6.35565 7.28566 5.74256 9.03305 4.73238V19.2764C7.73349 18.0917 6.58759 16.5447 5.66121 14.7142C4.41433 12.2509 3.61088 9.39274 3.36282 6.56511V6.56729Z" fill="#231F20"/>
</svg>
