<svg width="57" height="77" viewBox="0 0 57 77" fill="none" xmlns="http://www.w3.org/2000/svg">
<path d="M30.4761 56.531C30.1396 56.3768 29.747 56.482 29.3964 56.6152C27.3563 57.3723 25.4914 58.8584 24.7552 60.9124C23.956 63.1486 25.26 67.5089 28.2046 67.3267C28.4429 67.3127 28.8075 67.4669 28.9197 67.6562C29.2422 68.1819 29.6979 68.1959 30.1816 68.1118C31.6469 67.8454 33.1122 67.558 34.5775 67.2776C34.6476 67.2636 34.7107 67.2356 34.7738 67.2075C38.791 65.3708 41.9319 62.686 43.1167 58.2415C44.5119 52.9769 41.2869 49.2405 37.6622 45.7915C37.0032 45.1676 36.3372 44.5367 35.552 44.081C33.8834 43.1206 31.8642 43.0575 29.9433 42.9524C27.833 42.8332 25.7087 42.6369 23.6124 42.9103C20.4996 43.3239 17.7163 45.0554 16.223 47.8525C15.7182 48.7988 15.5079 49.8013 15.5359 50.8668C15.5359 51.1122 15.585 51.3505 15.578 51.5959C15.5359 52.6334 15.4308 53.6078 14.5895 54.421C13.4327 55.5426 12.8438 56.9867 12.7316 58.6131C12.7106 58.8865 12.6895 59.1809 12.5633 59.4192C11.6239 61.1928 11.6379 63.0785 12.1497 64.9012C12.5984 66.5135 12.5773 68.3782 12.5984 70.0256C7.99223 70.334 4.63403 62.4406 3.86984 58.8935C3.54033 57.3512 3.54033 55.795 3.79973 54.2317C4.15728 52.1006 5.23695 50.4182 6.92657 49.1213C8.27967 48.0838 9.0018 48.0628 8.72136 46.2051C7.96419 41.1578 10.6213 38.8795 12.8297 34.9327C13.3696 33.9653 13.629 32.8788 14.0286 31.8413C15.1714 28.876 18.4665 27.6632 18.8731 24.2072C19.0764 22.4477 19.0904 20.6741 19.2377 18.9075C19.2867 18.3327 19.441 17.7438 19.6653 17.2041C19.9388 16.5451 20.4716 16.1736 21.2288 16.2226C21.9439 16.2717 22.3715 16.7133 22.6099 17.3302C22.9745 18.2906 23.1147 19.3141 22.8342 20.2955C21.8667 23.7235 26.1995 24.3474 26.6131 27.495C26.7814 28.7918 26.1644 30.0467 25.7788 31.3015C24.7903 34.5191 26.9076 35.2903 29.137 36.8746C29.2702 36.9657 29.4175 37.0638 29.5717 37.0498C29.8311 37.0288 29.9783 36.7414 30.0625 36.496C30.8617 34.1055 30.6864 31.4066 31.8713 29.1774C32.1867 28.5886 32.6004 28.0207 32.6635 27.3548C32.7406 26.5626 32.2989 25.8125 31.8643 25.1466C30.8266 23.5623 29.7119 22.006 29.0319 20.2324C28.0363 17.6387 29.1931 15.8651 29.0879 13.3765C29.0248 11.9534 29.3754 10.6355 29.9082 9.33164C30.2167 8.57454 30.392 7.75436 30.5743 6.94819C30.7565 6.128 31.0229 5.41998 31.9414 5.1606C32.1587 5.09751 32.341 4.90122 32.5233 4.75401C32.9159 4.43855 33.3506 4.37546 33.7852 4.62081C34.1778 4.84514 34.3531 5.23771 34.29 5.68636C33.9815 7.76137 34.5985 9.6471 35.4047 11.5258C37.2626 15.8861 40.4035 19.3842 42.9414 23.3309C44.7923 26.2051 46.1454 29.6891 45.3111 32.9979C45.234 33.2924 45.1569 33.6359 45.3532 33.8742C45.5144 34.0705 45.8019 34.0985 46.0402 34.1897C46.9166 34.5262 47.0638 35.7109 46.8885 36.6292C46.8325 36.9026 46.2926 40.5268 46.7133 40.625C46.7834 40.639 46.8605 40.66 46.9306 40.6741C47.0849 40.4778 47.2461 40.2815 47.3933 40.0782C47.9472 39.3001 48.6062 38.6481 49.5106 38.2906C50.415 37.9331 51.2984 37.9541 52.0415 38.6411C52.7496 39.3001 52.8969 40.1273 52.5884 41.0316C52.3851 41.6204 52.1747 42.2093 51.9083 42.7771C51.2703 44.1441 51.1091 45.5812 51.3405 47.0533C51.684 49.2755 51.5368 51.4206 50.436 53.4255C50.2047 53.8462 50.3099 54.2177 50.422 54.6243C51.3895 58.1925 50.7165 61.305 48.494 64.2843C45.4724 68.3151 40.9223 71.1683 35.9796 72.1286C33.007 72.7105 29.9503 72.6194 26.9216 72.5352C24.9445 72.4792 22.7782 72.346 21.3269 71.007C19.6092 69.4297 16.4333 65.448 16.251 63.0855C16.1669 61.9779 16.5595 60.8914 16.9732 59.8539C18.0668 57.0708 19.2727 54.3369 20.5908 51.659C21.2288 50.3621 21.9228 49.0372 23.0586 48.1399C24.4678 47.0183 26.3747 46.7098 28.1765 46.7729C32.6565 46.9201 39.2958 49.4578 38.805 54.9958C38.6858 56.3418 38.0619 57.5826 37.3888 58.7533C35.9586 61.2419 33.9675 63.7515 31.1491 64.2843C30.2237 64.4595 29.1581 64.3614 28.499 63.6884C27.833 63.0154 27.8891 61.6695 28.7584 61.298C29.3193 61.0596 29.9923 61.2839 30.5672 61.0876C31.9133 60.639 31.6469 58.6691 31.1071 57.3582C30.9739 57.0428 30.8266 56.6993 30.5182 56.538C30.5112 56.538 30.4971 56.531 30.4901 56.524L30.4761 56.531Z" fill="white"/>
<path d="M33.2523 4.47969C33.4276 4.47969 33.6099 4.52876 33.7922 4.63391C34.1848 4.85824 34.3601 5.2508 34.297 5.69945C33.9885 7.77446 34.6054 9.6602 35.4117 11.5389C37.2696 15.8992 40.4104 19.3973 42.9484 23.344C44.7993 26.2182 46.1524 29.7022 45.3181 33.011C45.2409 33.3055 45.1638 33.649 45.3601 33.8873C45.5214 34.0836 45.8088 34.1116 46.0472 34.2028C46.9236 34.5392 47.0708 35.724 46.8955 36.6423C46.8394 36.9157 46.2996 40.5399 46.7202 40.6381C46.7903 40.6521 46.8675 40.6731 46.9376 40.6872C47.0918 40.4909 47.2531 40.2946 47.4003 40.0913C47.9542 39.3132 48.6132 38.6612 49.5176 38.3037C49.8891 38.1565 50.2537 38.0724 50.6113 38.0724C51.1231 38.0724 51.6068 38.2476 52.0485 38.6542C52.7566 39.3132 52.9038 40.1404 52.5954 41.0447C52.392 41.6335 52.1817 42.2224 51.9153 42.7902C51.2773 44.1572 51.1161 45.5943 51.3474 47.0664C51.6909 49.2886 51.5437 51.4337 50.443 53.4386C50.2117 53.8592 50.3168 54.2308 50.429 54.6374C51.3965 58.2055 50.7234 61.3181 48.494 64.2974C45.4723 68.3282 40.9222 71.1814 35.9796 72.1417C34.0796 72.5133 32.1446 72.6114 30.2026 72.6114C29.1089 72.6114 28.0152 72.5834 26.9215 72.5483C24.9445 72.4922 22.7781 72.359 21.3269 71.0201C19.6092 69.4428 16.4333 65.4611 16.251 63.0986C16.1668 61.991 16.5595 60.9044 16.9731 59.8669C18.0668 57.0839 19.2727 54.35 20.5907 51.6721C21.2287 50.3752 21.9228 49.0503 23.0585 48.153C24.3626 47.1155 26.0802 46.779 27.7558 46.779C27.896 46.779 28.0363 46.779 28.1765 46.786C32.6564 46.9332 39.2957 49.4709 38.805 55.0089C38.6858 56.3549 38.0618 57.5957 37.3888 58.7664C35.9585 61.255 33.9675 63.7646 31.1491 64.2974C30.8897 64.3464 30.6233 64.3745 30.3569 64.3745C29.6628 64.3745 28.9757 64.1922 28.499 63.7015C27.8329 63.0285 27.889 61.6826 28.7584 61.311C29.0108 61.2059 29.2842 61.1919 29.5646 61.1919C29.6558 61.1919 29.7539 61.1919 29.8451 61.1919C30.0904 61.1919 30.3358 61.1779 30.5672 61.1007C31.9133 60.6521 31.6469 58.6822 31.107 57.3713C30.9738 57.0559 30.8266 56.7124 30.5181 56.5511C30.5111 56.5511 30.4971 56.5441 30.4901 56.5371C30.3709 56.481 30.2517 56.46 30.1185 56.46C29.8801 56.46 29.6347 56.5371 29.4104 56.6213C27.3702 57.3783 25.5053 58.8645 24.7762 60.9185C23.998 63.1126 25.2319 67.3398 28.0433 67.3398C28.0994 67.3398 28.1625 67.3398 28.2185 67.3398C28.2326 67.3398 28.2396 67.3398 28.2536 67.3398C28.492 67.3398 28.8285 67.487 28.9407 67.6693C29.172 68.0478 29.4805 68.16 29.81 68.16C29.9362 68.16 30.0694 68.1459 30.2026 68.1179C31.6679 67.8515 33.1332 67.5641 34.5984 67.2837C34.6685 67.2697 34.7316 67.2416 34.7947 67.2136C38.812 65.3769 41.9528 62.692 43.1377 58.2476C44.5328 52.983 41.3078 49.2466 37.6832 45.8046C37.0242 45.1807 36.3582 44.5498 35.5729 44.0941C33.9044 43.1337 31.8852 43.0706 29.9642 42.9655C28.6392 42.8883 27.3071 42.7832 25.9751 42.7832C25.1898 42.7832 24.4116 42.8182 23.6334 42.9234C20.5206 43.337 17.7373 45.0685 16.244 47.8656C15.7392 48.8119 15.5289 49.8144 15.5569 50.8799C15.5569 51.1253 15.606 51.3636 15.599 51.609C15.5569 52.6465 15.4517 53.6209 14.6104 54.4341C13.4536 55.5557 12.8647 56.9998 12.7526 58.6262C12.7315 58.8996 12.7105 59.194 12.5843 59.4323C11.6448 61.2059 11.6589 63.0916 12.1707 64.9143C12.6194 66.5266 12.5983 68.3913 12.6194 70.0387C12.5352 70.0387 12.4441 70.0457 12.3599 70.0457C7.89402 70.0457 4.64098 62.3836 3.89082 58.9066C3.56131 57.3643 3.5613 55.8081 3.82071 54.2448C4.17826 52.1137 5.25794 50.4313 6.94756 49.1344C8.30066 48.0969 9.02278 48.0759 8.74234 46.2182C7.98517 41.1709 10.6423 38.8926 12.8507 34.9458C13.3906 33.9784 13.6499 32.8919 14.0496 31.8544C15.1923 28.8891 18.4875 27.6763 18.8941 24.2203C19.0974 22.4607 19.1114 20.6872 19.2586 18.9206C19.3077 18.3458 19.462 17.7569 19.6863 17.2171C19.9387 16.6003 20.4295 16.2287 21.1165 16.2287C21.1586 16.2287 21.2077 16.2287 21.2497 16.2287C21.9648 16.2778 22.3925 16.7194 22.6309 17.3363C22.9954 18.2967 23.1357 19.3202 22.8552 20.3016C21.8877 23.7296 26.2204 24.3535 26.6341 27.501C26.8023 28.7979 26.1854 30.0527 25.7998 31.3076C24.8113 34.5252 26.9285 35.2963 29.158 36.8806C29.2842 36.9718 29.4174 37.0629 29.5646 37.0629C29.5716 37.0629 29.5857 37.0629 29.5927 37.0629C29.8521 37.0419 29.9993 36.7545 30.0834 36.5091C30.8827 34.1186 30.7074 31.4197 31.8922 29.1905C32.2077 28.6016 32.6214 28.0338 32.6845 27.3679C32.7616 26.5757 32.3199 25.8256 31.8852 25.1597C30.8476 23.5754 29.7329 22.0191 29.0528 20.2455C28.0573 17.6518 29.2141 15.8782 29.1089 13.3896C29.0458 11.9665 29.3964 10.6486 29.9292 9.34474C30.2377 8.58764 30.4129 7.76745 30.5952 6.96129C30.7775 6.1411 31.0439 5.43307 31.9623 5.17369C32.1797 5.1106 32.362 4.91432 32.5443 4.76711C32.7756 4.57783 33.021 4.47969 33.2664 4.47969M33.2664 0.974609C32.2218 0.974609 31.2122 1.33914 30.3569 2.02613C28.7093 2.71313 27.6437 4.11516 27.1739 6.19718L27.1459 6.33738C27.0057 6.97531 26.8654 7.58519 26.6902 8.02683C25.8769 10.0177 25.5334 11.7703 25.6105 13.5508C25.6315 14.0556 25.5544 14.5813 25.4633 15.1702C24.6009 13.7401 23.1707 12.8498 21.4881 12.7377C21.3619 12.7306 21.2427 12.7236 21.1235 12.7236C19.0413 12.7236 17.2535 13.9364 16.4543 15.8852C16.0897 16.7755 15.8514 17.7219 15.7742 18.6192C15.7041 19.4183 15.6621 20.2035 15.627 20.9606C15.5779 21.956 15.5218 22.9024 15.4167 23.8137C15.3326 24.5498 14.8769 25.0966 13.7832 26.2673C12.7806 27.3398 11.5257 28.6717 10.7895 30.5925C10.6283 31.0061 10.5021 31.3987 10.3759 31.7772C10.1866 32.3381 10.0113 32.8708 9.80799 33.2283C9.35929 34.0275 8.86853 34.7846 8.39881 35.5137C6.6531 38.2056 4.68304 41.241 5.20185 46.064C5.08266 46.1481 4.95646 46.2462 4.82326 46.3444C2.36945 48.2301 0.876142 50.6906 0.371359 53.6559C0.027826 55.7099 0.0558691 57.7218 0.46951 59.6356C1.24772 63.2458 5.09669 73.5438 12.367 73.5438C12.5282 73.5438 12.6965 73.5438 12.8577 73.5297C14.5684 73.4176 15.9215 72.0857 16.1108 70.4243C17.2255 71.8754 18.3332 73.039 18.9572 73.6069C21.453 75.8992 24.8183 75.9973 26.8234 76.0604C27.9171 76.0955 29.0528 76.1235 30.2096 76.1235C32.7406 76.1235 34.7877 75.9553 36.6596 75.5907C42.4436 74.4691 47.7789 71.1182 51.3123 66.4074C54.0957 62.692 54.9861 58.6121 53.9555 54.2658C54.9861 51.9735 55.2665 49.4358 54.8178 46.5336C54.6846 45.6854 54.7757 44.9704 55.0982 44.2764C55.4277 43.5683 55.6801 42.8603 55.9115 42.2084C56.6897 39.9581 56.1429 37.6728 54.4392 36.0955C53.3666 35.1071 52.0485 34.5813 50.6183 34.5813C50.5271 34.5813 50.429 34.5813 50.3308 34.5813C50.1205 33.6069 49.6718 32.7446 49.0268 32.0717C49.3283 28.7559 48.2626 25.1176 45.9 21.4513C45.0236 20.0913 44.0912 18.7944 43.1868 17.5396C41.413 15.079 39.7374 12.7517 38.6367 10.1719C37.9707 8.60867 37.5921 7.40292 37.7673 6.22522C38.0478 4.36051 37.1784 2.5519 35.5519 1.61254C34.8438 1.20595 34.0516 0.988627 33.2594 0.988627L33.2664 0.974609Z" fill="#231F20"/>
<path d="M14.8699 18.7044C14.947 18.1085 14.968 17.4776 15.1223 16.8888C15.3045 16.1878 15.7813 15.8443 16.3632 15.8232C16.9521 15.8022 17.4429 16.1247 17.6882 16.7976C18.3753 18.6483 18.2281 20.478 17.3658 22.2305C17.0082 22.9596 16.0407 22.9666 15.578 22.2656C15.3747 21.9571 15.2415 21.5786 15.1854 21.207C15.0452 20.3939 14.975 19.5596 14.8769 18.7044H14.8699Z" fill="white"/>
<path d="M16.4123 15.8156C16.9732 15.8156 17.4499 16.1381 17.6883 16.79C18.3753 18.6407 18.2281 20.4704 17.3658 22.2229C17.1835 22.5944 16.847 22.7767 16.4964 22.7767C16.1459 22.7767 15.8023 22.6015 15.571 22.258C15.3677 21.9495 15.2345 21.571 15.1784 21.1994C15.0382 20.3863 14.968 19.552 14.8699 18.6968C14.947 18.1009 14.968 17.47 15.1223 16.8812C15.3046 16.1802 15.7813 15.8367 16.3632 15.8156C16.3772 15.8156 16.3983 15.8156 16.4123 15.8156ZM16.4123 12.3105C16.3562 12.3105 16.3071 12.3105 16.251 12.3105C14.0636 12.3806 12.2899 13.8247 11.729 15.9979C11.5538 16.6779 11.4907 17.2948 11.4416 17.7995C11.4276 17.9467 11.4135 18.1009 11.3925 18.2482C11.3575 18.5356 11.3504 18.83 11.3925 19.1174C11.4205 19.3558 11.4486 19.5941 11.4696 19.8254C11.5397 20.4564 11.6098 21.1013 11.722 21.7813C11.8272 22.3982 12.0726 23.3235 12.6545 24.1998C13.5238 25.5037 14.961 26.2818 16.4964 26.2818C18.2071 26.2818 19.7495 25.3214 20.5136 23.7722C21.8177 21.1153 21.9789 18.2832 20.9834 15.5773C20.2402 13.5654 18.4875 12.3176 16.4193 12.3176L16.4123 12.3105Z" fill="#231F20"/>
</svg>
