<svg width="22" height="24" viewBox="0 0 22 24" fill="none" xmlns="http://www.w3.org/2000/svg">
<path d="M21.0245 9.62643H14.3146V2.92055H7.68502V9.62643H0.977539V16.2544H7.68502V22.9627H14.3146V16.2544H21.0245V9.62643Z" fill="white"/>
<path d="M14.3144 23.5712H7.68479C7.34881 23.5712 7.07613 23.2986 7.07613 22.9627V16.8629H0.974875C0.638893 16.8629 0.366211 16.5903 0.366211 16.2544V9.62641C0.366211 9.2905 0.638893 9.01789 0.974875 9.01789H7.07613V2.91809C7.07613 2.58219 7.34881 2.30957 7.68479 2.30957H14.3144C14.6503 2.30957 14.923 2.58219 14.923 2.91809V9.01789H21.0243C21.3603 9.01789 21.6329 9.2905 21.6329 9.62641V16.2544C21.6329 16.5903 21.3603 16.8629 21.0243 16.8629H14.923V22.9627C14.923 23.2986 14.6503 23.5712 14.3144 23.5712ZM8.29345 22.3542H13.7057V16.2544C13.7057 15.9185 13.9784 15.6459 14.3144 15.6459H20.4156V10.2349H14.3144C13.9784 10.2349 13.7057 9.96231 13.7057 9.62641V3.52661H8.29345V9.62641C8.29345 9.96231 8.02077 10.2349 7.68479 10.2349H1.58354V15.6459H7.68479C8.02077 15.6459 8.29345 15.9185 8.29345 16.2544V22.3542Z" fill="#231F20"/>
<path d="M3.6335 3.86984L4.44424 1.91041L5.25498 3.86984L6.76933 4.68039L5.25498 5.4885L4.44424 7.44793L3.6335 5.4885L2.11914 4.68039L3.6335 3.86984Z" fill="white"/>
<path d="M4.44433 1.91043L5.25507 3.86743L6.77186 4.67797L5.25507 5.48852L4.44433 7.44552L3.63359 5.48852L2.1168 4.67797L3.63359 3.86743L4.44433 1.91043ZM4.44433 -0.000320435L3.76993 1.63051L3.05901 3.34654L1.77351 4.03294L0.568359 4.67797L1.77351 5.323L3.05901 6.00941L3.76993 7.72544L4.44433 9.35627L5.11873 7.72544L5.82965 6.00941L7.11515 5.323L8.32031 4.67797L7.11515 4.03294L5.82965 3.34654L5.11873 1.63051L4.44433 -0.000320435Z" fill="#231F20"/>
<path d="M7.70688 3.24921L8.11103 2.26827L8.51519 3.24921L9.2748 3.65326L8.51519 4.05732L8.11103 5.03825L7.70688 4.05732L6.94727 3.65326L7.70688 3.24921Z" fill="white"/>
<path d="M8.11017 2.26823L8.51432 3.24673L9.2715 3.65078L8.51432 4.05484L8.11017 5.03334L7.70601 4.05484L6.94884 3.65078L7.70601 3.24673L8.11017 2.26823ZM8.11017 0.357475L7.43577 1.98831L7.13144 2.72583L6.60555 3.00818L5.40039 3.65322L6.60555 4.29825L7.13144 4.5806L7.43577 5.31813L8.11017 6.94896L8.78457 5.31813L9.0889 4.5806L9.61478 4.29825L10.8199 3.65322L9.61478 3.00818L9.0889 2.72583L8.78457 1.98831L8.11017 0.357475Z" fill="#231F20"/>
<path d="M16.4937 19.6718L17.0391 18.3501L17.5869 19.6718L18.6095 20.2195L17.5869 20.7647L17.0391 22.0864L16.4937 20.7647L15.4688 20.2195L16.4937 19.6718Z" fill="white"/>
<path d="M17.0397 18.3501L17.5875 19.6718L18.61 20.2195L17.5875 20.7672L17.0397 22.0889L16.4919 20.7672L15.4693 20.2195L16.4919 19.6718L17.0397 18.3501ZM17.0397 16.4394L16.3653 18.0702L15.9173 19.151L15.1261 19.5745L13.9209 20.2195L15.1261 20.8645L15.9173 21.2881L16.3653 22.3688L17.0397 23.9996L17.7141 22.3688L18.1621 21.2881L18.9533 20.8645L20.1585 20.2195L18.9533 19.5745L18.1621 19.151L17.7141 18.0702L17.0397 16.4394Z" fill="#231F20"/>
</svg>
