<svg width="20" height="24" viewBox="0 0 20 24" fill="none" xmlns="http://www.w3.org/2000/svg">
<path d="M10.639 23.4401C10.2741 23.4401 9.91597 23.4289 9.56682 23.42C8.96314 23.402 8.05086 23.3752 7.40437 22.7841C6.87052 22.2961 5.67216 20.8856 5.59332 19.8848C5.55728 19.4214 5.69919 19.0139 5.86138 18.6042C6.21728 17.7042 6.61598 16.8086 7.04397 15.9444C7.27823 15.4743 7.54178 14.9839 7.99004 14.6302C8.46082 14.2586 9.08703 14.0705 9.84839 14.0705C9.9002 14.0705 9.95201 14.0705 10.0038 14.0727C11.0085 14.1063 12.4816 14.4847 13.3353 15.4407C13.8061 15.969 14.0224 16.6161 13.9616 17.3079C13.9143 17.8474 13.68 18.3131 13.4322 18.7385C12.7362 19.9385 11.9568 20.6035 11.0445 20.7736C10.9229 20.796 10.8035 20.8072 10.6841 20.8072C10.6255 20.8072 10.5692 20.805 10.5151 20.7983C10.5467 20.8206 10.5782 20.8475 10.6075 20.8766C10.9364 20.8184 11.263 20.7535 11.5919 20.6908L11.8915 20.6326C13.2092 20.0259 13.9525 19.2355 14.2454 18.143C14.5878 16.8623 13.9188 15.9175 12.6506 14.7175C12.4569 14.5362 12.2766 14.3638 12.0807 14.2518C11.6887 14.028 11.1706 13.9988 10.6233 13.9697L10.2223 13.9474C9.8957 13.9272 9.5871 13.9093 9.2785 13.9093C9.02621 13.9093 8.80546 13.9227 8.60048 13.9496C7.73775 14.0638 7.0282 14.5317 6.64977 15.2369C6.53939 15.4451 6.48758 15.6668 6.49659 15.9198C6.49659 15.9399 6.49885 15.9623 6.5011 15.9825C6.50786 16.0519 6.51236 16.1213 6.51011 16.1884C6.49434 16.5982 6.44253 17.0683 6.02131 17.4736C5.76451 17.7198 5.6226 18.0489 5.59557 18.4475C5.58882 18.5594 5.5753 18.7475 5.47844 18.9288C5.27346 19.3117 5.24417 19.7505 5.39059 20.2676C5.54151 20.8027 5.54827 21.3826 5.55503 21.8931V22.0475C5.56179 22.3453 5.32977 22.5938 5.03244 22.614C4.99189 22.6162 4.95134 22.6184 4.9108 22.6184C3.09524 22.6184 1.92391 19.9251 1.64009 18.6198C1.52296 18.078 1.51395 17.5071 1.61306 16.9206C1.74822 16.119 2.15818 15.4496 2.82944 14.9369C2.92179 14.8675 3.00289 14.8093 3.07722 14.7601C3.12002 14.731 3.17183 14.6951 3.20562 14.6705C3.20562 14.6459 3.20336 14.6011 3.1921 14.5339C2.97135 13.0787 3.548 12.1943 4.10664 11.3391C4.26431 11.0973 4.4265 10.8488 4.57967 10.5779C4.66978 10.4167 4.7351 10.2241 4.80493 10.0182C4.84547 9.8995 4.88602 9.78084 4.93107 9.66442C5.1293 9.15396 5.47394 8.78678 5.77803 8.46663C6.12492 8.09722 6.39974 7.80616 6.45154 7.36511C6.48759 7.05839 6.50335 6.74718 6.52137 6.42031C6.53489 6.17628 6.54615 5.93224 6.56868 5.69044C6.58895 5.45984 6.64977 5.21357 6.74663 4.98296C6.91782 4.56878 7.28499 4.32026 7.72649 4.32026C7.75352 4.32026 7.78055 4.32026 7.80758 4.3225C8.23782 4.35161 8.57795 4.61131 8.74014 5.0367C8.91359 5.49342 8.94287 5.93 8.82799 6.333C8.75591 6.58823 8.83925 6.70017 9.22444 7.06286C9.55781 7.3763 9.97228 7.76363 10.0579 8.40842C10.1187 8.86291 9.97904 9.26142 9.85515 9.61292C9.82587 9.69576 9.79659 9.7786 9.77181 9.86144C9.64341 10.2801 9.69973 10.3876 10.1908 10.7189C10.2178 10.5779 10.2403 10.4346 10.2651 10.2846C10.344 9.7786 10.4273 9.25471 10.6954 8.75544C10.7201 8.71066 10.7449 8.66589 10.7719 8.62111C10.8215 8.53603 10.8823 8.43081 10.8868 8.38379C10.8936 8.30543 10.7629 8.10393 10.7179 8.03677L10.5647 7.80616C10.2674 7.36063 9.95877 6.89943 9.75379 6.36434C9.49925 5.70612 9.5871 5.17774 9.66594 4.70982C9.70648 4.46803 9.74477 4.23966 9.73351 3.99787C9.71324 3.51427 9.8101 3.02844 10.0376 2.47097C10.1142 2.28514 10.1615 2.07021 10.2133 1.84185L10.2223 1.79931C10.2696 1.58886 10.3913 1.04034 10.9837 0.83436C10.9837 0.83436 11.0242 0.800778 11.0422 0.785106C11.2179 0.644057 11.4184 0.570175 11.6279 0.570175C11.7856 0.570175 11.9388 0.612713 12.0829 0.695551C12.4073 0.881376 12.5762 1.2284 12.5199 1.60229C12.4456 2.10603 12.592 2.59186 12.8375 3.16501C13.216 4.04712 13.7701 4.81281 14.358 5.62552C14.6441 6.01956 14.9392 6.42703 15.214 6.85017C15.9753 8.02557 16.2749 9.16963 16.0925 10.1749C16.4709 10.4055 16.6579 10.8891 16.57 11.4421C16.5948 11.4309 16.6173 11.4219 16.6421 11.4107C16.8313 11.3368 17.0205 11.2988 17.2007 11.2988C17.5161 11.2988 17.8067 11.4152 18.0454 11.6324C18.4284 11.9861 18.5478 12.4809 18.3698 12.9891C18.3 13.1861 18.2256 13.3944 18.131 13.5981C17.9801 13.9205 17.9351 14.2608 17.9959 14.6414C18.1355 15.5302 18.0319 16.2914 17.6783 16.9653C17.6805 16.9743 17.6828 16.9832 17.685 16.9922C18.0409 18.2952 17.8067 19.4617 16.9732 20.5654C15.9213 21.9602 14.331 22.952 12.6078 23.2856C12.0446 23.3953 11.4207 23.4446 10.6435 23.4446L10.639 23.4401ZM9.41365 19.9318C9.44969 20.1064 9.51727 20.2833 9.61863 20.4244C9.7673 20.6348 9.9002 20.6348 9.943 20.6348C9.94751 20.6348 9.95426 20.6348 9.96327 20.6348C9.86191 20.5788 9.77181 20.5094 9.69072 20.4288C9.55556 20.2923 9.46096 20.1199 9.4159 19.9341L9.41365 19.9318ZM10.4498 18.3489C9.94525 18.5661 9.56682 18.9288 9.42041 19.334C9.38887 19.4191 9.37536 19.5355 9.37986 19.6609C9.37986 19.5915 9.38662 19.5221 9.40013 19.4527C9.46321 19.1325 9.66368 18.8796 9.94976 18.7587C10.1255 18.6848 10.2921 18.6736 10.4318 18.6736H10.5061C10.5061 18.6019 10.4926 18.4855 10.4521 18.3512L10.4498 18.3489Z" fill="white"/>
<path d="M11.6217 1.12161C11.678 1.12161 11.7366 1.13728 11.7952 1.17086C11.9213 1.24251 11.9776 1.36788 11.9573 1.51117C11.8582 2.17387 12.0565 2.77612 12.3155 3.37614C12.9124 4.76871 13.9216 5.8859 14.737 7.14637C15.3317 8.0643 15.7664 9.17702 15.4984 10.2338C15.4736 10.3278 15.4488 10.4375 15.5119 10.5136C15.5637 10.5763 15.656 10.5853 15.7326 10.6144C16.0142 10.7218 16.0615 11.1002 16.0052 11.3935C15.9872 11.4808 15.8137 12.6383 15.9489 12.6696C15.9714 12.6741 15.9962 12.6808 16.0187 12.6853C16.0683 12.6226 16.1201 12.5599 16.1674 12.495C16.3453 12.2465 16.5571 12.0383 16.8476 11.9241C16.967 11.8771 17.0842 11.8502 17.199 11.8502C17.3635 11.8502 17.5189 11.9062 17.6608 12.036C17.8883 12.2465 17.9356 12.5107 17.8343 12.7995C17.7689 12.9876 17.7014 13.1756 17.6158 13.357C17.4108 13.7935 17.359 14.2525 17.4333 14.7227C17.5437 15.4324 17.4964 16.1175 17.1427 16.7578C17.0684 16.8921 17.1022 17.0108 17.1382 17.1406C17.4491 18.2802 17.2328 19.2743 16.5188 20.2258C15.5479 21.5131 14.086 22.4243 12.498 22.7311C11.8875 22.8497 11.2658 22.8811 10.6419 22.8811C10.2905 22.8811 9.9368 22.8721 9.58766 22.8609C8.95244 22.843 8.2564 22.8005 7.79012 22.3728C7.23825 21.8691 6.21784 20.5974 6.15927 19.8429C6.13224 19.4892 6.25839 19.1422 6.39129 18.8108C6.74269 17.922 7.13012 17.0488 7.5536 16.1936C7.75858 15.7794 7.98159 15.3563 8.3465 15.0697C8.76548 14.7383 9.31735 14.6309 9.85571 14.6309C9.90076 14.6309 9.94582 14.6309 9.99087 14.6331C11.4302 14.6801 13.5634 15.4906 13.4057 17.2593C13.3674 17.6892 13.167 18.0854 12.9507 18.4593C12.4912 19.2541 11.8515 20.0556 10.9459 20.2258C10.8626 20.2415 10.777 20.2504 10.6914 20.2504C10.4684 20.2504 10.2477 20.1922 10.0945 20.0355C9.88049 19.8205 9.89851 19.3907 10.1778 19.272C10.2589 19.2384 10.3468 19.234 10.4369 19.234C10.4662 19.234 10.4977 19.234 10.527 19.234C10.6058 19.234 10.6847 19.2295 10.759 19.2049C11.1915 19.0616 11.1059 18.4325 10.9324 18.0138C10.8896 17.913 10.8423 17.8033 10.7432 17.7518C10.741 17.7518 10.7365 17.7496 10.7342 17.7474C10.6959 17.7295 10.6576 17.7227 10.6148 17.7227C10.5382 17.7227 10.4594 17.7474 10.3873 17.7742C9.73182 18.016 9.13264 18.4907 8.89838 19.1467C8.64834 19.8452 9.04479 21.1974 9.94807 21.1974C9.96609 21.1974 9.98636 21.1974 10.0044 21.1974C10.0089 21.1974 10.0111 21.1974 10.0156 21.1974C10.0922 21.1974 10.2004 21.2445 10.2364 21.3027C10.3107 21.4236 10.4098 21.4594 10.5157 21.4594C10.5563 21.4594 10.5991 21.4549 10.6419 21.446C11.1126 21.3609 11.5834 21.2691 12.0542 21.1795C12.0767 21.1751 12.097 21.1661 12.1173 21.1571C13.408 20.5706 14.4171 19.7131 14.7978 18.2936C15.2461 16.6123 14.2099 15.419 13.0453 14.3174C12.8336 14.1182 12.6196 13.9167 12.3673 13.7712C11.8312 13.4644 11.1825 13.4443 10.5653 13.4107C10.1395 13.3861 9.71155 13.3525 9.28356 13.3525C9.03128 13.3525 8.78125 13.3637 8.53121 13.3973C7.53108 13.5294 6.63681 14.0824 6.15702 14.9757C5.99484 15.2779 5.92726 15.5981 5.93627 15.9384C5.93627 16.0167 5.95204 16.0928 5.94979 16.1712C5.93627 16.5026 5.90248 16.8138 5.63218 17.0735C5.2605 17.4317 5.07129 17.8929 5.03525 18.4123C5.02849 18.4996 5.02173 18.5937 4.98119 18.6698C4.67935 19.2362 4.68385 19.8385 4.84829 20.4206C4.99245 20.9355 4.98569 21.531 4.99245 22.0572C4.96542 22.0572 4.93614 22.0594 4.90911 22.0594C3.47423 22.0594 2.42905 19.6123 2.18802 18.5019C2.08215 18.0093 2.08215 17.5123 2.1655 17.013C2.28038 16.3324 2.62727 15.7951 3.17014 15.3809C3.60488 15.0495 3.83689 15.0428 3.74679 14.4495C3.50351 12.8375 4.35723 12.1099 5.06679 10.8494C5.24023 10.5405 5.32358 10.1935 5.45197 9.86211C5.81914 8.91507 6.87784 8.52775 7.00849 7.42399C7.07381 6.86204 7.07832 6.29561 7.12562 5.73141C7.14139 5.54783 7.19094 5.35976 7.26302 5.18737C7.34412 4.99035 7.50179 4.87169 7.72254 4.87169C7.73606 4.87169 7.75183 4.87169 7.76534 4.87169C7.9951 4.88737 8.13251 5.02841 8.2091 5.22543C8.32623 5.53216 8.37128 5.85903 8.28118 6.17247C7.97033 7.26727 9.3624 7.46653 9.49531 8.47178C9.54937 8.88597 9.35114 9.28672 9.22725 9.68748C8.90964 10.7151 9.58991 10.9614 10.3062 11.4674C10.3468 11.4965 10.3896 11.5256 10.4369 11.5256C10.4391 11.5256 10.4436 11.5256 10.4459 11.5256C10.5292 11.5189 10.5765 11.4271 10.6036 11.3487C10.8604 10.5853 10.804 9.7233 11.1847 9.01134C11.2861 8.82328 11.419 8.64193 11.4393 8.42924C11.464 8.17625 11.3221 7.93669 11.1825 7.724C10.8491 7.21802 10.4909 6.72099 10.2724 6.15456C9.95257 5.32618 10.3242 4.75975 10.2905 3.96496C10.2702 3.51047 10.3828 3.08956 10.554 2.67314C10.6531 2.43134 10.7094 2.16939 10.768 1.91192C10.8266 1.64998 10.9122 1.42385 11.2072 1.34101C11.2771 1.32087 11.3356 1.25818 11.3942 1.21116C11.4685 1.15071 11.5474 1.11937 11.6262 1.11937M11.6262 -6.10352e-05C11.2906 -6.10352e-05 10.9662 0.11636 10.6914 0.335768C10.1621 0.555176 9.81967 1.00295 9.66875 1.66789L9.65974 1.71267C9.61469 1.9164 9.56964 2.11118 9.51333 2.25223C9.25203 2.88807 9.14165 3.44778 9.16643 4.01645C9.17319 4.17765 9.14841 4.34556 9.11913 4.53363C8.84207 4.0769 8.38254 3.79256 7.84193 3.75674C7.80138 3.7545 7.76309 3.75226 7.7248 3.75226C7.05579 3.75226 6.48139 4.13959 6.2246 4.76199C6.10747 5.04632 6.03088 5.34857 6.0061 5.63514C5.98357 5.89037 5.97006 6.14113 5.9588 6.38292C5.94303 6.70084 5.92501 7.00309 5.89122 7.29414C5.86419 7.52922 5.71777 7.70385 5.36638 8.07774C5.04426 8.42028 4.64105 8.84567 4.40454 9.45911C4.35273 9.59121 4.31218 9.71658 4.27164 9.83748C4.21082 10.0166 4.1545 10.1867 4.08918 10.3009C3.94502 10.5562 3.78733 10.7979 3.63641 11.0308C3.07553 11.8905 2.44256 12.8599 2.6115 14.4003C2.57321 14.4271 2.53266 14.4585 2.48987 14.4898C1.70147 15.0921 1.22168 15.8779 1.05949 16.825C0.949118 17.4809 0.958128 18.1235 1.09103 18.7347C1.34106 19.8877 2.57771 23.1766 4.91361 23.1766C4.96542 23.1766 5.01948 23.1766 5.07129 23.1721C5.62091 23.1363 6.05566 22.7109 6.11648 22.1803C6.47463 22.6437 6.83053 23.0154 7.03101 23.1967C7.83292 23.9289 8.91415 23.9602 9.55838 23.9803C9.90977 23.9915 10.2724 24.0005 10.6464 24.0005C11.4595 24.0005 12.1173 23.9468 12.7187 23.8303C14.5771 23.4721 16.2913 22.4019 17.4265 20.8974C18.3208 19.7108 18.6069 18.4078 18.2758 17.0197C18.6069 16.2876 18.697 15.4772 18.5528 14.5503C18.51 14.2816 18.5393 14.051 18.6429 13.8294C18.7488 13.601 18.8299 13.3771 18.9042 13.1667C19.1542 12.448 18.9786 11.7204 18.4312 11.2144C18.0865 10.8987 17.6631 10.7308 17.2035 10.7308C17.1743 10.7308 17.1427 10.7308 17.1112 10.7308C17.0436 10.4196 16.8994 10.1442 16.6922 9.92927C16.7891 8.87029 16.4467 7.70833 15.6876 6.5374C15.406 6.10307 15.1064 5.68888 14.8158 5.28812C14.2459 4.50228 13.7076 3.75898 13.3539 2.93508C13.1399 2.43582 13.0183 2.05073 13.0746 1.6746C13.1647 1.07907 12.8854 0.499204 12.3628 0.201436C12.1353 0.0715824 11.8808 0.00217782 11.6262 0.00217782V-6.10352e-05Z" fill="#231F20"/>
<path d="M6.2395 7.52839C5.9354 7.52839 5.64933 7.37167 5.47363 7.11196C5.34073 6.9127 5.28441 6.70001 5.25964 6.55672C5.22585 6.35522 5.20332 6.15373 5.1808 5.95895L5.15377 5.73058C5.14926 5.68581 5.14926 5.63879 5.15377 5.59177C5.16053 5.54028 5.16503 5.48655 5.17179 5.43282C5.18755 5.28505 5.20333 5.1149 5.24838 4.94251C5.36776 4.48802 5.72141 4.19697 6.17643 4.18353C6.18318 4.18353 6.20346 4.18353 6.21021 4.18353C6.63369 4.18353 6.99411 4.44324 7.14953 4.85967C7.41533 5.5761 7.37253 6.32836 7.02113 7.03584C6.87247 7.33808 6.57062 7.52615 6.23725 7.52615L6.2395 7.52839Z" fill="white"/>
<path d="M6.21296 4.74353C6.39316 4.74353 6.54634 4.84652 6.62292 5.05473C6.84367 5.64579 6.79637 6.23013 6.51931 6.78984C6.46074 6.9085 6.35262 6.96671 6.23999 6.96671C6.12736 6.96671 6.01699 6.91074 5.94265 6.80104C5.87733 6.70253 5.83453 6.58163 5.81651 6.46297C5.77146 6.20326 5.74893 5.93684 5.7174 5.6637C5.74218 5.4734 5.74893 5.2719 5.79849 5.08384C5.85706 4.85995 6.01023 4.75025 6.19719 4.74353C6.2017 4.74353 6.20845 4.74353 6.21296 4.74353ZM6.21296 3.6241C6.19494 3.6241 6.17917 3.6241 6.16115 3.6241C5.45835 3.64649 4.88846 4.10769 4.70825 4.80174C4.65194 5.01891 4.63167 5.21593 4.6159 5.37713C4.6114 5.42414 4.60689 5.4734 4.60013 5.52041C4.58887 5.61221 4.58662 5.70624 4.60013 5.79803C4.60914 5.87415 4.61815 5.95027 4.62716 6.02416C4.64969 6.22565 4.67221 6.43163 4.70825 6.64656C4.74204 6.84358 4.82088 7.13911 5.00784 7.41896C5.28716 7.83539 5.74893 8.0839 6.24224 8.0839C6.79186 8.0839 7.28743 7.77718 7.53296 7.28239C7.95193 6.43387 8.00374 5.52937 7.68388 4.66517C7.44511 4.02262 6.88197 3.6241 6.21746 3.6241H6.21296Z" fill="#231F20"/>
</svg>
