<svg width="20" height="24" viewBox="0 0 20 24" fill="none" xmlns="http://www.w3.org/2000/svg">
<g clip-path="url(#clip0_2194_1607)">
<path d="M8.94531 2.55853L9.18973 1.23961L10.0722 0.48143L14.0598 1.0789L14.6077 2.02419L14.3656 3.70756L8.94531 2.55853Z" fill="white" stroke="black" stroke-width="1.05424" stroke-linecap="round" stroke-linejoin="round"/>
<path d="M7.44111 5.37664C7.31661 5.41796 3.04156 8.44896 3.04156 8.44896L0.730469 14.1293L3.78859 21.2777C3.78859 21.2777 10.0138 23.395 10.1383 23.4369C10.2628 23.4788 16.4055 20.6137 16.4055 20.6137L19.2691 14.8014L17.277 8.53218L14.8282 6.373L15.2281 5.0294L14.6205 3.46713L8.81009 2.59531L7.56504 3.46713L7.44054 5.37664H7.44111Z" fill="white" stroke="black" stroke-width="1.23267" stroke-linecap="round" stroke-linejoin="round"/>
<path d="M4.88486 10.7721C5.03174 10.1397 5.66058 9.39239 4.94969 9.45725C4.33176 9.51349 3.75628 10.1488 3.48432 10.9449C3.20433 11.7639 3.47686 12.2104 3.89398 12.2816C4.79593 12.436 4.69782 11.5814 4.88543 10.7727L4.88486 10.7721Z" fill="black"/>
<path d="M3.6085 12.9641C4.10251 13.3171 4.24078 14.4225 4.46053 15.0584C4.92298 16.398 5.62927 17.0311 6.96842 16.9823C8.52616 16.9255 9.07984 15.3816 9.07984 15.3816C9.07984 15.3816 8.94672 15.6697 8.39248 15.6255C7.83823 15.5813 7.61676 15.2266 7.70512 15.0045C7.79348 14.7824 8.44239 15.1474 9.02418 14.6303C9.61171 14.108 9.92154 13.6523 10.3874 12.4103C10.8527 11.1688 12.0943 9.63869 14.3549 10.0824C16.6155 10.526 18.0838 13.1225 17.2702 15.7414C16.4635 18.3379 14.5896 19.5002 13.3973 20.1958C12.3072 20.8317 11.0048 21.1428 11.0289 20.8822C11.0673 20.4673 12.2573 20.3433 13.9476 18.9038C14.8312 18.1514 15.8174 16.9593 16.1273 15.4298C16.4371 13.9002 15.9913 12.1112 14.3245 11.7497C12.7249 11.403 11.695 12.3437 11.2739 13.231C10.8527 14.1177 10.9543 15.4969 11.9612 15.847C12.702 16.1053 13.3314 15.6794 13.5299 15.2272C13.7118 14.8134 13.5712 14.3192 13.3641 14.5482C13.2057 14.7233 13.0496 15.3265 12.3709 15.0613C11.5871 14.7554 11.8958 12.8952 13.4519 12.7793C14.9746 12.6657 16.2449 15.0481 14.5827 17.1763C12.9206 19.305 10.7179 20.5166 8.20601 20.2027C5.3183 19.8417 3.81506 18.0705 3.22696 16.3114C2.54304 14.2647 2.92631 12.4757 3.6085 12.963V12.9641Z" fill="black"/>
<path d="M9.10091 20.873C9.16632 20.7238 9.36139 20.8242 9.78196 20.8357C10.1268 20.8449 10.5502 20.7651 10.5278 20.9941C10.5089 21.1898 10.0522 21.246 9.64196 21.1714C9.21107 21.0928 9.04296 21.0056 9.10091 20.873Z" fill="black"/>
<path d="M7.89733 5.00297C7.89733 5.00297 13.251 6.1652 13.1265 6.1652C13.002 6.1652 7.35742 5.75024 7.35742 5.75024L7.89675 5.00297H7.89733Z" fill="black"/>
<path d="M14.1853 7.22239L16.2887 8.94709L13.6592 7.52428L14.1853 7.22239Z" fill="black"/>
<path d="M3.46973 19.6431C3.62292 19.7452 8.81024 21.8671 8.81024 21.8671L3.83521 20.648L3.4703 19.6431H3.46973Z" fill="black"/>
</g>
<defs>
<clipPath id="clip0_2194_1607">
<rect width="19.6649" height="24" fill="white" transform="translate(0.167969 -0.00012207)"/>
</clipPath>
</defs>
</svg>
