<svg width="63" height="78" viewBox="0 0 63 78" fill="none" xmlns="http://www.w3.org/2000/svg">
<path d="M56.4368 37.4276H39.9403V20.9326C39.9403 19.3343 38.6292 18.0234 37.0308 18.0234H26.0798C24.4813 18.0234 23.1703 19.3343 23.1703 20.9326V37.4276H6.67369C5.07521 37.4276 3.76416 38.7385 3.76416 40.3368V51.2866C3.76416 52.885 5.07521 54.1959 6.67369 54.1959H23.1703V70.6908C23.1703 72.2891 24.4813 73.6 26.0798 73.6H37.0308C38.6292 73.6 39.9403 72.2891 39.9403 70.6908V54.1959H56.4368C58.0353 54.1959 59.3464 52.885 59.3464 51.2866V40.3368C59.3464 38.7385 58.0353 37.4276 56.4368 37.4276Z" fill="white"/>
<path d="M37.0307 18.0168C38.6292 18.0168 39.9402 19.3277 39.9402 20.926V37.4209H56.4368C58.0353 37.4209 59.3463 38.7318 59.3463 40.3301V51.28C59.3463 52.8783 58.0353 54.1892 56.4368 54.1892H39.9402V70.6841C39.9402 72.2824 38.6292 73.5933 37.0307 73.5933H26.0797C24.4812 73.5933 23.1702 72.2824 23.1702 70.6841V54.1892H6.67363C5.07515 54.1892 3.7641 52.8783 3.7641 51.28V40.3301C3.7641 38.7318 5.07515 37.4209 6.67363 37.4209H23.1702V20.926C23.1702 19.3277 24.4812 18.0168 26.0797 18.0168H37.0307ZM37.0307 14.5117H26.0797C22.5392 14.5117 19.6648 17.3929 19.6648 20.926V33.9158H6.67363C3.13314 33.9158 0.258667 36.797 0.258667 40.3301V51.28C0.258667 54.8201 3.14015 57.6943 6.67363 57.6943H19.6648V70.6841C19.6648 74.2243 22.5462 77.0984 26.0797 77.0984H37.0307C40.5712 77.0984 43.4456 74.2172 43.4456 70.6841V57.6943H56.4368C59.9773 57.6943 62.8518 54.8131 62.8518 51.28V40.3301C62.8518 36.79 59.9703 33.9158 56.4368 33.9158H43.4456V20.926C43.4456 17.3859 40.5642 14.5117 37.0307 14.5117Z" fill="#231F20"/>
<path d="M4.33903 15.6384C7.66919 17.6083 9.36583 19.6412 10.9152 23.651C11.3008 24.6535 12.7311 24.6535 13.1167 23.651C14.6661 19.6412 16.3627 17.6153 19.6928 15.6384C20.471 15.1757 20.471 14.0611 19.6928 13.5984C16.3627 11.6286 14.6661 9.59563 13.1167 5.58582C12.7311 4.58337 11.3008 4.58337 10.9152 5.58582C9.36583 9.59563 7.66919 11.6216 4.33903 13.5984C3.56082 14.0611 3.56082 15.1757 4.33903 15.6384Z" fill="white"/>
<path d="M12.0159 4.8293C12.4716 4.8293 12.9203 5.08166 13.1166 5.57938C14.666 9.5892 16.3626 11.6151 19.6928 13.592C20.471 14.0547 20.471 15.1693 19.6928 15.632C16.3626 17.6018 14.666 19.6348 13.1166 23.6446C12.9203 24.1493 12.4716 24.3946 12.0159 24.3946C11.5602 24.3946 11.1115 24.1423 10.9152 23.6446C9.3658 19.6348 7.66916 17.6088 4.339 15.632C3.56079 15.1693 3.56079 14.0547 4.339 13.592C7.66916 11.6221 9.3658 9.5892 10.9152 5.57938C11.1115 5.07465 11.5602 4.8293 12.0159 4.8293ZM12.0159 1.32422C10.0669 1.32422 8.34922 2.50192 7.64813 4.31755C6.38618 7.58429 5.24342 8.98632 2.55825 10.5776C1.11401 11.4329 0.258667 12.9401 0.258667 14.6155C0.258667 16.2909 1.12102 17.7981 2.55825 18.6533C5.24342 20.2446 6.38618 21.6467 7.64813 24.9134C8.34922 26.729 10.0669 27.9067 12.0159 27.9067C13.9649 27.9067 15.6826 26.729 16.3837 24.9134C17.6456 21.6467 18.7884 20.2446 21.4736 18.6533C22.9178 17.7981 23.7731 16.2909 23.7731 14.6155C23.7731 12.9401 22.9108 11.4329 21.4736 10.5776C18.7884 8.98632 17.6456 7.58429 16.3837 4.31755C15.6826 2.50192 13.9649 1.32422 12.0159 1.32422Z" fill="#231F20"/>
<path d="M56.1703 65.5515C53.9759 64.1915 52.8612 62.7825 51.8376 60.0205C51.5852 59.3265 50.6388 59.3265 50.3864 60.0205C49.3628 62.7895 48.248 64.1915 46.0536 65.5515C45.5419 65.867 45.5419 66.6451 46.0536 66.9606C48.248 68.3205 49.3628 69.7296 50.3864 72.4916C50.6388 73.1856 51.5852 73.1856 51.8376 72.4916C52.8612 69.7226 53.9759 68.3205 56.1703 66.9606C56.6821 66.6451 56.6821 65.867 56.1703 65.5515Z" fill="white"/>
<path d="M51.1085 59.4953C51.41 59.4953 51.7044 59.6706 51.8377 60.0141C52.8612 62.7831 53.976 64.1851 56.1704 65.5451C56.6822 65.8605 56.6822 66.6387 56.1704 66.9541C53.976 68.3141 52.8612 69.7231 51.8377 72.4851C51.7115 72.8286 51.41 73.0039 51.1085 73.0039C50.8071 73.0039 50.5126 72.8286 50.3794 72.4851C49.3558 69.7161 48.2411 68.3141 46.0467 66.9541C45.5349 66.6387 45.5349 65.8605 46.0467 65.5451C48.2411 64.1851 49.3558 62.7761 50.3794 60.0141C50.5056 59.6706 50.8071 59.4953 51.1085 59.4953ZM51.1085 55.9902C49.2997 55.9902 47.7223 57.0908 47.0913 58.8013C46.278 61.0025 45.5699 61.7175 44.1958 62.5728C42.9198 63.3649 42.1556 64.7459 42.1556 66.2531C42.1556 67.7603 42.9198 69.1413 44.1958 69.9334C45.5699 70.7887 46.278 71.4967 47.0913 73.7049C47.7223 75.4154 49.2997 76.516 51.1085 76.516C52.9173 76.516 54.4948 75.4154 55.1258 73.7049C55.939 71.5037 56.6471 70.7887 58.0212 69.9334C59.2972 69.1413 60.0614 67.7603 60.0614 66.2531C60.0614 64.7459 59.2972 63.3649 58.0212 62.5728C56.6471 61.7175 55.939 61.0095 55.1258 58.8013C54.4948 57.0908 52.9173 55.9902 51.1085 55.9902Z" fill="#231F20"/>
<path d="M19.2933 8.11173C20.7726 8.95295 21.5228 9.8152 22.2098 11.5257C22.3851 11.9533 23.0161 11.9533 23.1843 11.5257C23.8714 9.8152 24.6216 8.95295 26.1008 8.11173C26.4444 7.91545 26.4444 7.43876 26.1008 7.24247C24.6216 6.40125 23.8714 5.53901 23.1843 3.82853C23.009 3.40091 22.3781 3.40091 22.2098 3.82853C21.5228 5.53901 20.7726 6.40125 19.2933 7.24247C18.9498 7.43876 18.9498 7.91545 19.2933 8.11173Z" fill="white"/>
<path d="M22.7005 3.50508C22.9038 3.50508 23.1001 3.61024 23.1913 3.82755C23.8783 5.53803 24.6285 6.40028 26.1078 7.2415C26.4513 7.43778 26.4513 7.91447 26.1078 8.11076C24.6285 8.95198 23.8783 9.81422 23.1913 11.5247C23.1072 11.742 22.9038 11.8472 22.7005 11.8472C22.4972 11.8472 22.3009 11.742 22.2098 11.5247C21.5227 9.81422 20.7725 8.95198 19.2932 8.11076C18.9497 7.91447 18.9497 7.43778 19.2932 7.2415C20.7725 6.40028 21.5227 5.53803 22.2098 3.82755C22.2939 3.61024 22.4972 3.50508 22.7005 3.50508ZM22.7005 0C21.0459 0 19.5737 0.988435 18.9637 2.51665C18.5571 3.52611 18.3117 3.76446 17.5685 4.19208C16.3136 4.90711 15.5354 6.23904 15.5354 7.67613C15.5354 9.11321 16.3136 10.4451 17.5685 11.1602C18.3187 11.5878 18.5571 11.8261 18.9637 12.8356C19.5807 14.3638 21.046 15.3522 22.7075 15.3522C24.3691 15.3522 25.8344 14.3638 26.4513 12.8356C26.858 11.8261 27.0963 11.5878 27.8465 11.1602C29.1014 10.4451 29.8796 9.11321 29.8796 7.67613C29.8796 6.23904 29.1014 4.90711 27.8465 4.19208C27.0963 3.76446 26.851 3.52611 26.4513 2.51665C25.8344 0.988435 24.3691 0 22.7075 0H22.7005Z" fill="#231F20"/>
</svg>
