<svg width="128" height="144" viewBox="0 0 128 144" fill="none" xmlns="http://www.w3.org/2000/svg">
<g clip-path="url(#clip0_4154_3447)">
<path d="M128 107.999V36.001L63.9979 0L0 36.001V107.999L63.9979 144L128 107.999Z" fill="black"/>
<path d="M63.9979 4.82324L4.28516 38.4126L63.9979 71.9979V4.82324Z" fill="#4C4C4C"/>
<path d="M123.711 38.4126L63.998 4.82324V71.9979L123.711 38.4126Z" fill="#606060"/>
<path d="M4.28516 38.4131V105.588L63.9979 71.9984L4.28516 38.4131Z" fill="#232323"/>
<path d="M63.998 71.9984L123.711 105.588V38.4131L63.998 71.9984Z" fill="#232323"/>
<path d="M4.28516 105.587L63.9979 139.177V71.998L4.28516 105.587Z" fill="#606060"/>
<path d="M63.998 139.177L123.711 105.587L63.998 71.998V139.177Z" fill="#4C4C4C"/>
<path d="M63.9982 15.1016L13.4238 43.5497L63.9982 71.9979V15.1016Z" fill="#353535"/>
<path d="M114.577 43.5497L63.998 15.1016V71.9979L114.577 43.5497Z" fill="#353535"/>
<path d="M13.4238 43.5498V100.446L63.9982 71.998L13.4238 43.5498Z" fill="#565656"/>
<path d="M63.998 71.998L114.577 100.446V43.5498L63.998 71.998Z" fill="#565656"/>
<path d="M13.4238 100.446L63.9982 128.894V71.998L13.4238 100.446Z" fill="#353535"/>
<path d="M63.998 128.894L114.577 100.446L63.998 71.998V128.894Z" fill="#353535"/>
<path d="M111.999 99.0005V44.9989L63.9977 17.9961L15.9961 44.9989V99.0005L63.9977 125.999L111.999 99.0005Z" fill="#FFE39D"/>
<path style="mix-blend-mode:multiply" opacity="0.48" d="M109.291 97.4726V46.5228L63.9979 21.0479L18.709 46.5228V97.4726L63.9979 122.952L109.291 97.4726Z" fill="url(#paint0_linear_4154_3447)"/>
<path d="M61.9748 18.1095L61.8321 18.2485C61.7932 18.2822 61.7673 18.3243 61.7543 18.3706C61.7284 18.4169 61.7197 18.4633 61.7197 18.5138C61.7197 18.5643 61.7284 18.6149 61.7543 18.657C61.7716 18.7033 61.7975 18.7454 61.8321 18.7791L61.9099 18.8381C61.9704 18.8718 62.0353 18.8886 62.1044 18.8886L62.2082 18.876C62.273 18.8591 62.3292 18.8254 62.3768 18.7791L62.5194 18.6401C62.5583 18.6064 62.5842 18.5643 62.5972 18.518C62.6232 18.4717 62.6318 18.4254 62.6318 18.3748C62.6318 18.3243 62.6232 18.2737 62.5972 18.2316C62.5799 18.1853 62.554 18.1432 62.5194 18.1095L62.4416 18.0505C62.3811 18.0168 62.3162 18 62.2471 18L62.1433 18.0126C62.0785 18.0295 62.0223 18.0632 61.9748 18.1095Z" fill="#353535"/>
<path d="M56.159 46.4358C55.8896 46.4358 55.6248 46.351 55.4026 46.1863C55.048 45.9275 54.8494 45.4993 54.8825 45.0617L55.4877 36.9536C55.5302 36.3983 55.9274 35.9324 56.4758 35.8054C56.5751 35.7819 56.6697 35.7725 56.769 35.7725C57.2134 35.7725 57.6389 36.0077 57.8753 36.3983L61.9982 43.3582C62.2204 43.7346 62.2346 44.1958 62.036 44.5817C61.8374 44.9676 61.4544 45.2311 61.0242 45.2734C60.3008 45.3487 59.6294 45.457 58.9722 45.6075C58.1874 45.7911 57.4025 46.0358 56.6413 46.3369C56.49 46.3981 56.3293 46.4263 56.1685 46.4263L56.159 46.4358Z" fill="white"/>
<path d="M56.7377 37.0122L60.9343 44.0328C60.1836 44.1088 59.4328 44.2274 58.682 44.3983C57.7965 44.6024 56.9447 44.8683 56.1217 45.191L56.7377 37.0122ZM56.7377 34.4395C56.5404 34.4395 56.3431 34.4632 56.1458 34.5059C55.0341 34.7622 54.2207 35.7021 54.1341 36.8224L53.5181 45.0012C53.4507 45.8841 53.8502 46.7432 54.5769 47.2701C55.0293 47.5977 55.5731 47.7686 56.1217 47.7686C56.449 47.7686 56.7762 47.7069 57.0891 47.5882C57.8013 47.3081 58.5377 47.0803 59.274 46.9094C59.8852 46.767 60.5157 46.6673 61.199 46.5961C62.0846 46.5059 62.8594 45.979 63.2637 45.1958C63.6631 44.4125 63.6342 43.4822 63.1818 42.7274L58.9852 35.7069C58.5088 34.9094 57.6473 34.4395 56.7377 34.4395Z" fill="black"/>
<path d="M69.0787 46.4358C68.9246 46.4358 68.7658 46.4072 68.6166 46.3547C67.2158 45.8299 65.7524 45.4959 64.2745 45.3576C63.8172 45.3146 63.4177 45.0379 63.2155 44.6277C63.0181 44.2174 63.0518 43.7355 63.3021 43.3539L67.6875 36.7941C67.933 36.4267 68.347 36.2168 68.7754 36.2168C68.891 36.2168 69.0113 36.2311 69.1268 36.2645C69.6708 36.4172 70.0559 36.899 70.08 37.4572L70.3832 45.0904C70.4025 45.5246 70.1955 45.9348 69.8441 46.1925C69.6178 46.3547 69.3531 46.4358 69.0787 46.4358Z" fill="white"/>
<path d="M68.7968 37.4848L69.1038 45.1628C67.5879 44.6014 65.9941 44.2319 64.3612 44.0831C65.9892 41.6645 68.8016 37.4848 68.8016 37.4848M68.8016 34.8838C67.9291 34.8838 67.0957 35.3109 66.5985 36.0499L62.1581 42.6483C61.6463 43.4113 61.578 44.3854 61.9777 45.2108C62.3774 46.0362 63.1914 46.5929 64.1175 46.6793C65.4969 46.804 66.8617 47.116 68.1729 47.6006C68.4751 47.711 68.7919 47.7686 69.1087 47.7686C69.6546 47.7686 70.1957 47.6006 70.6538 47.2791C71.3752 46.7704 71.7847 45.9354 71.7505 45.0669L71.4435 37.3888C71.3996 36.261 70.6197 35.2869 69.5133 34.9846C69.2793 34.9174 69.0356 34.8886 68.8016 34.8886V34.8838Z" fill="black"/>
<path d="M76.0504 51.3178C75.6712 51.3178 75.307 51.1632 75.0475 50.8877C74.1045 49.8826 73.0418 48.9887 71.8892 48.2252C71.49 47.9594 71.2655 47.5101 71.3004 47.0413C71.3354 46.5726 71.6297 46.1619 72.0688 45.9589L78.4853 43.0065C78.6699 42.9195 78.8695 42.8809 79.0641 42.8809C79.4184 42.8809 79.7726 43.0161 80.0321 43.2771C80.4362 43.6782 80.531 44.2822 80.2766 44.7799L77.2629 50.5978C77.0633 50.9844 76.6791 51.2501 76.2351 51.3081C76.1752 51.3178 76.1103 51.3226 76.0504 51.3226V51.3178Z" fill="white"/>
<path d="M79.1648 44.0728L76.2612 49.6816C75.2805 48.6334 74.1797 47.7064 72.9875 46.9191L79.1696 44.0728M79.1696 41.5479C79.0975 41.5479 79.0253 41.5479 78.9532 41.5572C78.6119 41.5851 78.2898 41.6736 78.0014 41.8181L71.8722 44.6411C71.0309 45.0278 70.4637 45.8244 70.3916 46.7281C70.3195 47.6319 70.7521 48.503 71.5213 49.0108C72.55 49.6909 73.497 50.4875 74.3383 51.3819C74.8383 51.913 75.5401 52.2111 76.266 52.2111C76.3814 52.2111 76.5016 52.2018 76.6217 52.1879C77.4726 52.0761 78.2129 51.5636 78.5975 50.8183L81.4674 45.284C81.6693 44.9253 81.7847 44.5153 81.7847 44.0774C81.7847 42.6985 80.6502 41.5805 79.2369 41.5525H79.1696V41.5479Z" fill="black"/>
<path d="M80.6224 59.3199C80.4594 59.3199 80.2917 59.2855 80.1383 59.2217C79.7501 59.0597 79.4577 58.716 79.3619 58.2938C79.0935 57.1499 78.7244 56.0354 78.2547 54.9848C78.0582 54.5479 78.111 54.0373 78.3842 53.6495C78.6286 53.3009 79.0216 53.0996 79.4338 53.0996C79.4817 53.0996 79.5296 53.0996 79.5776 53.1094L85.1899 53.7526C85.7363 53.8164 86.1868 54.2239 86.3114 54.7737C86.436 55.3236 86.2108 55.8931 85.7459 56.1975L81.3221 59.1038C81.1112 59.2413 80.8668 59.3149 80.6224 59.3149V59.3199Z" fill="white"/>
<path d="M79.2883 54.4339L84.7311 55.0823L80.441 57.9903C80.1621 56.7475 79.7717 55.5588 79.2883 54.4388M79.2883 51.7764C78.4842 51.7764 77.7266 52.1792 77.2478 52.8768C76.7133 53.6529 76.6204 54.6746 76.9968 55.544C77.4152 56.5166 77.7498 57.5482 77.9915 58.6092C78.1821 59.4492 78.7445 60.1369 79.5021 60.4611C79.8042 60.5888 80.1249 60.6527 80.4456 60.6527C80.9197 60.6527 81.3938 60.5102 81.8075 60.2302L86.0976 57.3223C86.9946 56.7131 87.4362 55.5735 87.1898 54.4732C86.9481 53.3729 86.079 52.5575 85.0146 52.4297L79.5718 51.7813C79.4788 51.7715 79.3812 51.7666 79.2883 51.7666V51.7764Z" fill="black"/>
<path d="M45.3846 67.7622C45.3372 67.7622 45.2898 67.7623 45.2424 67.7526L40.0609 67.1609C39.5204 67.0984 39.0748 66.6991 38.9515 66.1603C38.8283 65.6215 39.0511 65.0634 39.5109 64.7652L44.1426 61.7488C44.3512 61.6093 44.5929 61.542 44.8347 61.542C45.0338 61.542 45.2377 61.5901 45.4226 61.6863C45.8303 61.898 46.0957 62.3117 46.1194 62.7783C46.1763 63.8271 46.3185 64.8614 46.5461 65.8524C46.5603 65.9053 46.5745 65.9582 46.5935 66.0064L46.6125 66.0593C46.7405 66.4826 46.6551 66.9396 46.3754 67.2812C46.1289 67.5842 45.7639 67.7574 45.3846 67.7574V67.7622Z" fill="white"/>
<path d="M44.8673 62.707C44.925 63.7513 45.0742 64.8094 45.3341 65.8629C45.3582 65.9641 45.3918 66.0561 45.4207 66.1527L40.1607 65.5869L44.8625 62.7024M44.8625 60.209C44.3716 60.209 43.8807 60.3424 43.4524 60.6046L38.7507 63.4891C37.8219 64.0595 37.3647 65.1268 37.6198 66.1573C37.87 67.1878 38.7699 67.9515 39.872 68.0711L45.132 68.6369C45.2282 68.6461 45.3245 68.6508 45.4255 68.6508C46.2003 68.6508 46.9414 68.3195 47.4419 67.7445C48.005 67.0912 48.1831 66.2171 47.9184 65.4121L47.8991 65.3614C47.8895 65.3338 47.8799 65.3108 47.8751 65.2832C47.6681 64.4276 47.5334 63.5121 47.4804 62.5782C47.4323 61.6903 46.8933 60.8944 46.0656 60.4896C45.6902 60.3056 45.2812 60.2136 44.8769 60.2136H44.8625V60.209Z" fill="black"/>
<path d="M45.2331 58.4322C44.9608 58.4322 44.6886 58.3463 44.4633 58.1835L39.4222 54.5129C38.9904 54.1964 38.8121 53.6494 38.981 53.1522C39.15 52.6549 39.6288 52.3159 40.1732 52.3068C40.1732 52.3068 46.7585 52.2119 46.7679 52.2119C47.2091 52.2119 47.6222 52.4334 47.8521 52.7996C48.0868 53.1703 48.1009 53.6314 47.8897 54.0156C47.2748 55.1277 46.7961 56.303 46.4628 57.5145C46.3548 57.9078 46.0498 58.2288 45.6461 58.3598C45.51 58.4051 45.3692 58.4276 45.2284 58.4276H45.2331V58.4322Z" fill="white"/>
<path d="M46.8253 53.3959C46.1573 54.6104 45.6324 55.9037 45.265 57.2526C42.9841 55.5792 40.1402 53.4933 40.1402 53.4933L46.8253 53.3959ZM46.8253 50.8835H46.7776L40.102 50.9763C38.995 50.9902 38.0216 51.6855 37.678 52.7099C37.3345 53.7343 37.6971 54.8515 38.5751 55.4958L43.6999 59.2551C44.1532 59.5888 44.7067 59.765 45.2602 59.765C45.5465 59.765 45.828 59.7186 46.1048 59.6259C46.9207 59.3524 47.541 58.7035 47.7605 57.8923C48.0659 56.7705 48.5049 55.6766 49.068 54.6382C49.2827 54.272 49.4067 53.8456 49.4067 53.3913C49.4067 52.0007 48.2472 50.8789 46.8205 50.8789L46.8253 50.8835Z" fill="black"/>
<path d="M49.3848 50.8782C49.3161 50.8782 49.2473 50.8736 49.1786 50.8643C48.7318 50.7992 48.3538 50.5204 48.1672 50.1301L44.9612 43.3182C44.7255 42.8164 44.8581 42.2309 45.2901 41.8685C45.5405 41.6547 45.8597 41.5479 46.1788 41.5479C46.4095 41.5479 46.6403 41.6036 46.8465 41.7198L53.7594 45.53C54.157 45.7484 54.4074 46.1526 54.4222 46.5894C54.432 47.0262 54.2012 47.4397 53.8134 47.6767C52.5467 48.4527 51.388 49.3913 50.3766 50.46C50.1213 50.7295 49.758 50.8782 49.3848 50.8782Z" fill="white"/>
<path d="M46.1547 42.7636L53.1082 46.6197C51.7205 47.4756 50.471 48.5007 49.3796 49.6576L46.1547 42.7636ZM46.1547 40.2148C45.5077 40.2148 44.8706 40.4359 44.3669 40.8685C43.5026 41.6068 43.2359 42.7918 43.71 43.8029L46.935 50.6968C47.3054 51.4868 48.0708 52.0465 48.9697 52.1781C49.108 52.1969 49.2462 52.211 49.3845 52.211C50.1401 52.211 50.871 51.9054 51.3797 51.3599C52.3181 50.3629 53.3897 49.4883 54.5651 48.7641C55.3454 48.2844 55.8097 47.4474 55.7899 46.5633C55.7702 45.6792 55.2664 44.8657 54.4614 44.4189L47.5078 40.5628C47.0881 40.3324 46.6238 40.2148 46.1596 40.2148H46.1547Z" fill="black"/>
<path d="M68.0422 85.5334C67.5987 85.5334 67.174 85.3107 66.9428 84.9289L62.8097 78.1874C62.5833 77.8237 62.5738 77.3692 62.7767 76.9919C62.9796 76.6146 63.3712 76.3645 63.81 76.3327C64.6262 76.2691 65.4378 76.1463 66.221 75.9736C66.8768 75.8281 67.5232 75.6372 68.2073 75.3917C68.3536 75.3417 68.5045 75.3145 68.6508 75.3145C68.9245 75.3145 69.1934 75.4008 69.4199 75.5599C69.769 75.8145 69.9577 76.2191 69.9247 76.6373L69.3161 84.3925C69.2736 84.9289 68.8773 85.3789 68.33 85.5016C68.2309 85.5244 68.1365 85.5334 68.0374 85.5334H68.0422Z" fill="white"/>
<path d="M68.6905 76.4883L68.0712 84.3613L63.8653 77.5174C64.7439 77.4482 65.6273 77.319 66.5108 77.1206C67.2598 76.9544 67.9847 76.7375 68.6905 76.4837M68.6905 73.9824C68.3832 73.9824 68.076 74.0332 67.7831 74.1393C67.1397 74.3701 66.5348 74.5454 65.9202 74.6839C65.1856 74.85 64.4222 74.9608 63.6588 75.0208C62.7658 75.09 61.9688 75.5976 61.5559 76.3637C61.143 77.1298 61.167 78.0481 61.6231 78.7911L65.829 85.6351C66.3043 86.4104 67.1637 86.8672 68.0712 86.8672C68.268 86.8672 68.4649 86.8441 68.6617 86.8026C69.7708 86.5534 70.5822 85.6443 70.6686 84.5552L71.288 76.6821C71.3552 75.833 70.9663 75.0069 70.2557 74.4947C69.7996 74.1624 69.2475 73.9916 68.6905 73.9916V73.9824Z" fill="black"/>
<path d="M78.6339 80.1968C78.4052 80.1968 78.1764 80.1408 77.972 80.0242L71.0409 76.1707C70.637 75.9468 70.3887 75.5363 70.3839 75.0931C70.379 74.6452 70.6175 74.23 71.0166 74.0014C72.2967 73.2503 73.4746 72.3313 74.5113 71.2723C74.7644 71.0157 75.1149 70.8711 75.4751 70.8711C75.5481 70.8711 75.6211 70.8711 75.6941 70.8897C76.1321 70.9597 76.5021 71.235 76.6821 71.6222L79.8459 78.4194C80.0795 78.9185 79.9481 79.511 79.5247 79.8749C79.2764 80.0895 78.96 80.2015 78.6437 80.2015H78.6339V80.1968Z" fill="white"/>
<path d="M75.4738 72.0979L78.6636 78.9737C78.6636 78.9737 74.2372 76.5009 71.6755 75.0757C73.0839 74.2451 74.3598 73.2399 75.4738 72.0979ZM75.4738 69.54C74.7426 69.54 74.0409 69.8279 73.5305 70.3518C72.5687 71.3381 71.4743 72.197 70.2868 72.8954C69.4869 73.3673 69.006 74.2073 69.0158 75.1087C69.0256 76.0101 69.531 76.8406 70.3407 77.2937L77.3288 81.1917C77.7459 81.423 78.2072 81.5362 78.6636 81.5362C79.3064 81.5362 79.9444 81.3144 80.4449 80.8803C81.3037 80.1394 81.5687 78.9501 81.0976 77.9355L77.9078 71.0596C77.5447 70.2762 76.7988 69.7194 75.9204 69.5778C75.7731 69.5542 75.6259 69.54 75.4787 69.54H75.4738Z" fill="black"/>
<path d="M78.0266 69.979C77.5814 69.979 77.1733 69.7365 76.946 69.3339C76.7141 68.9265 76.7095 68.422 76.9321 68.0146C77.5721 66.8359 78.0776 65.5748 78.4393 64.27C78.5553 63.8529 78.8567 63.5231 79.2509 63.3872C79.3808 63.3436 79.5152 63.3193 79.6497 63.3193C79.9187 63.3193 80.1831 63.4115 80.4057 63.5861L85.3865 67.5102C85.8178 67.8497 85.994 68.4318 85.827 68.9702C85.6601 69.5037 85.187 69.8675 84.6491 69.8772C84.6491 69.8772 78.0358 69.9839 78.0312 69.9839H78.0266V69.979Z" fill="white"/>
<path d="M79.6183 64.9411L84.6988 68.695L77.9674 68.7971C78.6675 67.586 79.2209 66.296 79.6183 64.9457M79.6183 62.4307C79.3439 62.4307 79.0696 62.4724 78.8047 62.5606C78.0052 62.8251 77.3855 63.4561 77.1537 64.2496C76.8131 65.4051 76.3354 66.5187 75.7346 67.5581C75.2805 68.3423 75.2899 69.3075 75.7582 70.0824C76.2218 70.8481 77.0591 71.3167 77.9626 71.3167H78.0005L84.7319 71.2146C85.8294 71.1961 86.7944 70.5 87.1303 69.4792C87.4709 68.4583 87.1113 67.3354 86.2362 66.6904L81.1557 62.9365C80.7063 62.6024 80.1623 62.4307 79.6136 62.4307H79.6183Z" fill="black"/>
<path d="M80.3417 60.6529C80.1373 60.6529 79.9281 60.6049 79.738 60.5043C79.3292 60.2839 79.0631 59.8622 79.0536 59.3925C79.0203 58.2712 78.8777 57.1354 78.6258 56.0236C78.5307 55.6115 78.6448 55.185 78.9205 54.8687C79.1676 54.5908 79.5194 54.4326 79.8806 54.4326C79.9281 54.4326 79.9757 54.4326 80.0232 54.4422L85.1995 55.0221C85.7413 55.0844 86.1881 55.4821 86.3117 56.0188C86.4353 56.5556 86.2119 57.1114 85.7508 57.4086L81.0356 60.4468C80.8265 60.581 80.5841 60.6529 80.3417 60.6529Z" fill="white"/>
<path d="M79.8427 55.5908L85.0974 56.146L80.3108 59.0547C80.277 57.9077 80.1226 56.747 79.8427 55.5863M79.8427 53.0996C79.0997 53.0996 78.3904 53.3978 77.8885 53.93C77.324 54.531 77.102 55.3569 77.2902 56.1414C77.5266 57.1324 77.6618 58.1371 77.6955 59.1281C77.7245 60.0228 78.2553 60.8348 79.09 61.2523C79.4712 61.445 79.891 61.5414 80.3108 61.5414C80.803 61.5414 81.2903 61.4083 81.7198 61.1514L86.5064 58.2427C87.4424 57.6738 87.896 56.6094 87.6451 55.5817C87.3942 54.554 86.4871 53.7924 85.3869 53.6731L80.1323 53.118C80.0357 53.1088 79.9392 53.1042 79.8427 53.1042V53.0996Z" fill="black"/>
<path d="M45.8104 67.7623C45.762 67.7623 45.7136 67.7623 45.6652 67.7531L40.0848 67.1677C39.533 67.1083 39.0781 66.7287 38.9522 66.2165C38.8264 65.7043 39.0539 65.1738 39.5234 64.8903L44.0051 62.183C44.2181 62.0549 44.4649 61.9863 44.7118 61.9863C44.8957 61.9863 45.0796 62.0229 45.249 62.0961C45.6507 62.2699 45.9363 62.622 46.0089 63.0336L46.0186 63.0885C46.0282 63.1388 46.0331 63.1891 46.0476 63.2394C46.2799 64.1769 46.609 65.119 47.0204 66.029C47.2043 66.436 47.1463 66.9025 46.8704 67.2546C46.6235 67.5702 46.2267 67.7577 45.8153 67.7577H45.8104V67.7623Z" fill="white"/>
<path d="M44.4307 63.1872C44.4447 63.2901 44.4588 63.3883 44.4822 63.4912C44.7306 64.5622 45.0774 65.5818 45.4946 66.5593L40.0908 65.9606L44.4307 63.1919M44.4307 60.657C43.9526 60.657 43.4746 60.7926 43.0621 61.0545L38.7222 63.8233C37.813 64.4032 37.3725 65.4882 37.6162 66.5359C37.8599 67.5835 38.741 68.3598 39.8096 68.4814L45.2134 69.0801C45.3071 69.0895 45.4008 69.0941 45.4946 69.0941C46.2913 69.0941 47.0552 68.72 47.538 68.0699C48.0769 67.345 48.1894 66.3909 47.8332 65.5584C47.463 64.6932 47.1677 63.7999 46.9615 62.916C46.9615 62.9113 46.9615 62.8832 46.9521 62.8552L46.9428 62.799C46.8115 61.9525 46.2585 61.2276 45.4758 60.8768C45.1431 60.7272 44.7869 60.6523 44.4307 60.6523V60.657Z" fill="black"/>
<path d="M45.6891 78.4252C45.3439 78.4252 45.0082 78.2895 44.7589 78.0278C44.3706 77.6256 44.2795 77.0198 44.5288 76.5158L47.4295 70.7055C47.6261 70.313 48 70.0464 48.4267 69.9931C48.4795 69.9931 48.537 69.9834 48.5898 69.9834C48.9637 69.9834 49.3185 70.1433 49.5679 70.4341C50.4357 71.4421 51.4281 72.3483 52.5117 73.1333C52.8857 73.4047 53.0918 73.8554 53.0487 74.3206C53.0055 74.7858 52.7274 75.1929 52.3103 75.3916L46.2452 78.2992C46.0678 78.3864 45.8761 78.4252 45.6891 78.4252Z" fill="white"/>
<path d="M48.5844 71.6252C49.5404 72.6803 50.6227 73.614 51.7923 74.4217L45.6531 77.2229C45.6531 77.2229 47.2789 74.1182 48.5892 71.6252M48.5892 69.0947C48.4776 69.0947 48.3708 69.0947 48.2592 69.1134C47.3905 69.2208 46.6334 69.7343 46.2403 70.486L43.3042 76.0838C42.7994 77.0502 42.9838 78.2173 43.7701 78.9923C44.2748 79.4919 44.9591 79.758 45.6531 79.758C46.0365 79.758 46.4199 79.6787 46.779 79.5153L52.9182 76.714C53.7626 76.3312 54.3305 75.5468 54.413 74.6505C54.4955 73.7587 54.083 72.8857 53.321 72.3675C52.3067 71.6672 51.3798 70.8595 50.5644 69.9631C50.0597 69.4075 49.3366 69.0947 48.5844 69.0947H48.5892Z" fill="black"/>
<path d="M56.0379 85.0891C55.9216 85.0891 55.8005 85.0748 55.6841 85.0414C55.1365 84.8887 54.7488 84.4069 54.7246 83.8439L54.4241 76.2155C54.4047 75.7766 54.6179 75.3615 54.9814 75.1087C55.2043 74.9512 55.4709 74.8701 55.7375 74.8701C55.9022 74.8701 56.067 74.8987 56.2269 74.9608C57.6179 75.5094 59.0718 75.872 60.5548 76.039C61.0104 76.0914 61.403 76.3729 61.5968 76.7784C61.7907 77.1887 61.7519 77.6658 61.4999 78.0379L57.1381 84.5023C56.8909 84.8697 56.4741 85.0795 56.0428 85.0795V85.0891H56.0379Z" fill="white"/>
<path d="M55.7167 76.4993C57.2154 77.0694 58.8023 77.4541 60.4284 77.6302L56.0155 83.9107L55.7118 76.4993M55.7118 73.9871C55.173 73.9871 54.6343 74.1446 54.1788 74.4459C53.4441 74.9372 53.018 75.7484 53.0572 76.5966L53.3608 84.008C53.4049 85.0973 54.1886 86.0382 55.2955 86.3302C55.5355 86.3951 55.7755 86.4229 56.0155 86.4229C56.8873 86.4229 57.7248 86.015 58.2293 85.3012L62.6422 79.0207C63.1565 78.293 63.23 77.366 62.8382 76.5688C62.4512 75.7762 61.6529 75.2292 60.7321 75.1319C59.3509 74.9836 57.9991 74.6545 56.7012 74.1632C56.3828 74.0427 56.0449 73.9824 55.7118 73.9824V73.9871Z" fill="black"/>
<path d="M62.5032 76.4892C71.4192 76.4892 78.6491 69.4454 78.6491 60.7588C78.6491 52.0722 71.4192 45.0283 62.5032 45.0283C53.5873 45.0283 46.3574 52.0722 46.3574 60.7588C46.3574 69.4454 53.5873 76.4892 62.5032 76.4892Z" fill="white"/>
<path d="M62.5072 77.7613C52.8851 77.7613 45.0596 70.1371 45.0596 60.7625C45.0596 51.3879 52.8851 43.7637 62.5072 43.7637C72.1294 43.7637 79.9549 51.3879 79.9549 60.7625C79.9549 70.1371 72.1294 77.7613 62.5072 77.7613ZM62.5072 46.3004C54.3214 46.3004 47.6633 52.7873 47.6633 60.7625C47.6633 68.7377 54.3214 75.2245 62.5072 75.2245C70.693 75.2245 77.3512 68.7377 77.3512 60.7625C77.3512 52.7873 70.693 46.3004 62.5072 46.3004Z" fill="black"/>
<path d="M89.9954 62.4307L67.0289 64.18C67.0289 64.18 58.5216 100.934 58.5264 100.639C58.5311 100.344 97.2894 100.639 97.2894 100.639L89.9954 62.4401V62.4307Z" fill="white"/>
<path d="M87.195 65.929L93.1905 97.1471C87.3622 97.1096 76.5416 97.0439 68.5778 97.0439C66.1844 97.0439 64.3165 97.0439 62.8451 97.0439C63.8531 92.7671 65.8548 84.2697 69.8199 67.2374L87.1998 65.915M89.9993 62.4307L67.03 64.1798C67.03 64.1798 58.7222 100.078 58.5264 100.641C58.6649 100.542 62.9263 100.641 68.573 100.641H97.2894L89.9945 62.4401V62.4307H89.9993Z" fill="black"/>
<path d="M73.6869 82.8682L69.4717 100.64C69.4717 100.64 96.6602 99.9145 96.8292 99.4291C96.9982 98.9484 92.4644 84.1406 92.4644 84.1406L73.6917 82.8682H73.6869Z" fill="white"/>
<path d="M76.336 86.3277L89.8301 87.2524C91.2432 90.9325 92.6467 94.6596 93.6047 97.3023C92.8048 97.3023 91.8324 97.3164 90.6779 97.3164C85.3081 97.3164 78.2042 97.2319 73.7446 97.1709L76.336 86.3324V86.3277ZM73.6535 82.8682L69.4717 100.569H90.6779C94.9316 100.569 98.1411 100.729 98.1986 100.569C98.3662 100.091 92.2827 84.1355 92.2827 84.1355L73.6583 82.8682H73.6535Z" fill="black"/>
<path d="M40.9112 78.4248L53.9668 82.5322L53.4165 100.64H29.3408L40.9063 78.4248H40.9112Z" fill="white"/>
<path d="M42.6837 82.4016L50.4119 84.8306L50.0321 97.1807H34.9166L42.6837 82.397V82.4016ZM40.9014 78.4248L29.3408 100.64H53.4165L53.9668 82.5322L40.9112 78.4248H40.9014Z" fill="black"/>
<path d="M71.7234 100.636H61.7197L70.239 85.6636L73.5767 83.3125L71.7234 100.64V100.636Z" fill="black"/>
<path d="M66.7357 64.207L60.866 65.1303L51.2305 82.6203L51.437 100.64H59.4202L66.7357 64.207Z" fill="black"/>
<path d="M40.2852 98.8642C40.6509 98.1469 43.3872 90.8159 43.3872 90.8159L46.3039 90.2803L48.4938 84.2021" fill="white"/>
<path d="M40.7836 99.3027L39.373 98.628C39.6413 98.1197 41.4392 93.4873 42.5816 90.494L42.7355 90.0902L45.7801 89.5438L47.9158 83.7568L49.4058 84.2605L46.9622 90.8741L43.9077 91.4205C43.267 93.0929 41.1362 98.6328 40.7836 99.3075V99.3027Z" fill="black"/>
<path d="M87.4399 85.452L85.9795 85.8887L90.168 99.1864L91.6284 98.7498L87.4399 85.452Z" fill="black"/>
<path d="M68.5596 97.0856C68.7589 96.2703 71.9398 80.011 71.9398 80.011L75.1205 76.5553L76.3122 65.9844" fill="white"/>
<path d="M69.139 97.0856L67.6475 96.7238C67.8068 96.0989 70.0127 85.4045 71.1567 79.8317L71.2001 79.6202L74.4873 76.2183L75.6989 65.9844L77.2242 66.1535L75.9547 76.8762L72.6193 80.3251C72.2138 82.3033 69.3321 96.301 69.1342 97.0763L69.139 97.0856Z" fill="black"/>
<path d="M81.5405 65.5197L80.0244 65.7021L82.492 85.1693L84.0081 84.9869L81.5405 65.5197Z" fill="black"/>
</g>
<defs>
<linearGradient id="paint0_linear_4154_3447" x1="18.709" y1="71.9977" x2="109.291" y2="71.9977" gradientUnits="userSpaceOnUse">
<stop stop-opacity="0"/>
<stop offset="1" stop-opacity="0.5"/>
</linearGradient>
<clipPath id="clip0_4154_3447">
<rect width="128" height="144" fill="white"/>
</clipPath>
</defs>
</svg>
