<svg width="128" height="144" viewBox="0 0 128 144" fill="none" xmlns="http://www.w3.org/2000/svg">
<g clip-path="url(#clip0_4154_3450)">
<path d="M128 107.999V36.001L63.9979 0L0 36.001V107.999L63.9979 144L128 107.999Z" fill="black"/>
<path d="M63.9979 4.82324L4.28516 38.4126L63.9979 71.9979V4.82324Z" fill="#4C4C4C"/>
<path d="M123.711 38.4126L63.998 4.82324V71.9979L123.711 38.4126Z" fill="#606060"/>
<path d="M4.28516 38.4131V105.588L63.9979 71.9984L4.28516 38.4131Z" fill="#232323"/>
<path d="M63.998 71.9984L123.711 105.588V38.4131L63.998 71.9984Z" fill="#232323"/>
<path d="M4.28516 105.587L63.9979 139.177V71.998L4.28516 105.587Z" fill="#606060"/>
<path d="M63.998 139.177L123.711 105.587L63.998 71.998V139.177Z" fill="#4C4C4C"/>
<path d="M63.9982 15.1016L13.4238 43.5497L63.9982 71.9979V15.1016Z" fill="#353535"/>
<path d="M114.577 43.5497L63.998 15.1016V71.9979L114.577 43.5497Z" fill="#353535"/>
<path d="M13.4238 43.5498V100.446L63.9982 71.998L13.4238 43.5498Z" fill="#565656"/>
<path d="M63.998 71.998L114.577 100.446V43.5498L63.998 71.998Z" fill="#565656"/>
<path d="M13.4238 100.446L63.9982 128.894V71.998L13.4238 100.446Z" fill="#353535"/>
<path d="M63.998 128.894L114.577 100.446L63.998 71.998V128.894Z" fill="#353535"/>
<path d="M111.999 99.0005V44.9989L63.9977 17.9961L15.9961 44.9989V99.0005L63.9977 125.999L111.999 99.0005Z" fill="#7E45F8"/>
<path style="mix-blend-mode:multiply" opacity="0.48" d="M109.291 97.4726V46.5228L63.9979 21.0479L18.709 46.5228V97.4726L63.9979 122.952L109.291 97.4726Z" fill="url(#paint0_linear_4154_3450)"/>
<path d="M61.2346 54.0626C60.8126 54.0626 60.405 53.876 60.1316 53.5458C59.8103 53.163 59.7144 52.6462 59.8726 52.1724L62.774 43.4917C62.9706 42.9031 63.5173 42.5107 64.1407 42.5107C64.7641 42.5107 65.3108 42.9079 65.5074 43.4917L68.3896 52.115C68.543 52.5792 68.4519 53.096 68.1402 53.474C67.8669 53.809 67.4544 54.0004 67.0276 54.0004C66.9701 54.0004 66.9125 54.0004 66.855 53.9909C66.0014 53.8904 65.1669 53.8377 64.3709 53.8377C63.4022 53.8377 62.4239 53.9095 61.4504 54.0435C61.3832 54.0531 61.3161 54.0579 61.249 54.0579H61.2346V54.0626Z" fill="white"/>
<path d="M63.9073 44.0081L66.8692 52.5085C65.9723 52.4047 65.0655 52.3481 64.1389 52.3481C63.0498 52.3481 61.9754 52.4236 60.9306 52.5651L63.9122 44.0081M63.9122 41.1777C62.6407 41.1777 61.5072 41.9561 61.108 43.1118L58.1263 51.6688C57.8011 52.5981 58.0031 53.6218 58.6586 54.3765C59.2254 55.0275 60.0583 55.3955 60.9306 55.3955C61.0686 55.3955 61.2066 55.386 61.3446 55.3672C62.2711 55.2398 63.2124 55.1785 64.1389 55.1785C64.9078 55.1785 65.6864 55.2256 66.5193 55.32C66.6376 55.3341 66.7559 55.3388 66.8742 55.3388C67.7563 55.3388 68.5991 54.9615 69.1658 54.2963C69.8065 53.5463 69.9987 52.5321 69.6784 51.6122L66.7165 43.1118C66.3123 41.9561 65.1837 41.1777 63.9122 41.1777Z" fill="black"/>
<path d="M75.8272 57.1673C75.5597 57.1673 75.297 57.091 75.063 56.948C73.6062 56.0327 72.0299 55.3081 70.382 54.7932C69.8901 54.6407 69.5175 54.2307 69.4076 53.7301C69.2978 53.2248 69.4697 52.7004 69.8566 52.3619L76.5676 46.422C76.8351 46.1836 77.1742 46.0645 77.5181 46.0645C77.7665 46.0645 78.0101 46.1264 78.2346 46.2551C78.7695 46.565 79.0466 47.1752 78.9224 47.7806L77.2315 56.0279C77.136 56.4856 76.8207 56.8717 76.3908 57.0576C76.2093 57.1339 76.0183 57.172 75.8272 57.172V57.1673Z" fill="white"/>
<path d="M77.4804 47.552L75.8079 55.6816C74.2819 54.7277 72.6141 53.957 70.8424 53.4072C73.2755 51.2643 77.4804 47.552 77.4804 47.552ZM77.4804 44.7324H77.4095C76.7103 44.7512 76.0772 45.0191 75.5906 45.4514L68.962 51.2972C68.1967 51.9739 67.8565 53.0031 68.0691 53.9993C68.2817 54.9955 69.0187 55.7944 69.9967 56.0998C71.5133 56.5698 72.959 57.2323 74.296 58.0735C74.7543 58.3602 75.2787 58.5058 75.8079 58.5058C76.1858 58.5058 76.5638 58.4306 76.9229 58.2803C77.778 57.9184 78.4016 57.1572 78.5859 56.2549L80.2395 48.2239C80.2915 48.0125 80.3198 47.7916 80.3198 47.5613C80.3198 46.02 79.0725 44.7653 77.5276 44.7418H77.4851V44.7324H77.4804Z" fill="black"/>
<path d="M82.5528 63.8317C82.5086 63.8317 82.4595 63.8317 82.4153 63.8271C81.9491 63.7857 81.527 63.5374 81.2865 63.1603C80.5012 61.9186 79.549 60.7597 78.4594 59.7157C78.0815 59.3524 77.944 58.8281 78.106 58.3453C78.2631 57.8624 78.6901 57.4991 79.2201 57.3979L87.2155 55.8665C87.3136 55.8481 87.4118 55.8389 87.51 55.8389C88.0303 55.8389 88.5161 56.0964 88.7861 56.5287C89.1051 57.0438 89.0315 57.6876 88.6143 58.1337L83.6571 63.3718C83.3773 63.6708 82.9749 63.8363 82.5577 63.8363L82.5528 63.8317Z" fill="white"/>
<path d="M87.443 56.913L82.5624 62.3243C81.7265 60.937 80.7165 59.6543 79.5665 58.4998L87.4382 56.9178M87.4382 54.0673C87.3705 54.0673 87.3028 54.0673 87.2352 54.0673C87.0854 54.0768 86.9404 54.1005 86.8003 54.129L78.9866 55.7015C77.9477 55.9106 77.1069 56.6612 76.7976 57.6589C76.4883 58.6566 76.7541 59.7398 77.4983 60.4857C78.4889 61.4834 79.3538 62.5904 80.0738 63.7733C80.5474 64.5572 81.3689 65.0703 82.2918 65.1558C82.3836 65.1653 82.4755 65.1701 82.5673 65.1701C83.3936 65.1701 84.1812 64.8233 84.7369 64.2104L89.5837 58.8371C90.0572 58.3288 90.352 57.6494 90.352 56.9083C90.352 55.3832 89.1391 54.1385 87.6073 54.0625H87.4382V54.0673Z" fill="black"/>
<path d="M85.3871 73.1675C85.0896 73.1675 84.7969 73.0793 84.5474 72.9076C84.1731 72.6477 83.9476 72.23 83.9476 71.7845C83.9428 70.5639 83.8084 69.3525 83.5445 68.183C83.4342 67.6957 83.6069 67.1852 83.9908 66.8557C84.2595 66.6236 84.6002 66.5029 84.9504 66.5029C85.104 66.5029 85.2575 66.5261 85.4063 66.5725L91.6488 68.5821C92.239 68.7724 92.6324 69.3015 92.6324 69.9048C92.6324 70.5081 92.2342 71.0372 91.6488 71.2275L85.8429 73.0979C85.6942 73.1443 85.5406 73.1675 85.3871 73.1675Z" fill="white"/>
<path d="M84.9822 67.6095L91.1509 69.6921L85.4137 71.6259C85.4042 70.2487 85.2619 68.9099 84.9869 67.6095M84.9869 64.7304C84.2947 64.7304 83.6166 64.9847 83.0903 65.4646C82.3317 66.1555 81.9903 67.2017 82.2084 68.2142C82.4455 69.3274 82.5688 70.4791 82.5735 71.6403C82.5782 72.5617 83.0192 73.4254 83.7589 73.9628C84.2473 74.3179 84.8305 74.5003 85.4184 74.5003C85.7219 74.5003 86.0253 74.4523 86.3193 74.3515L92.0565 72.4177C93.2181 72.0242 94.0005 70.9253 94.0005 69.6873C94.0005 68.4493 93.2181 67.3456 92.0565 66.9569L85.8878 64.8743C85.5938 64.7736 85.2904 64.7256 84.9869 64.7256V64.7304Z" fill="black"/>
<path d="M42.9656 73.6062C42.8105 73.6062 42.6554 73.5829 42.5052 73.5364L36.6215 71.6529C36.0302 71.4622 35.6279 70.932 35.6279 70.3274C35.6279 69.7228 36.0302 69.1926 36.6215 69.0019L42.8347 67.0161C42.985 66.9696 43.1401 66.9463 43.2952 66.9463C43.6441 66.9463 43.9834 67.0672 44.2499 67.2904C44.6377 67.616 44.817 68.1136 44.7249 68.602C44.5117 69.6995 44.4002 70.7971 44.4002 71.8761C44.4002 71.9319 44.405 71.9877 44.4099 72.0435V72.104C44.4535 72.5691 44.2451 73.0248 43.8622 73.3132C43.6005 73.5085 43.2855 73.6108 42.9656 73.6108V73.6062Z" fill="white"/>
<path d="M43.2504 68.0561C43.0259 69.2443 42.9064 70.4613 42.9064 71.712C42.9064 71.8275 42.916 71.9429 42.9256 72.0584L37.1261 70.1102L43.2504 68.0561ZM43.2504 65.1699H43.1119C42.8205 65.1844 42.5434 65.2421 42.2806 65.3383L36.2184 67.3731C35.048 67.7675 34.2598 68.8691 34.2598 70.1102C34.2598 71.3513 35.048 72.4576 36.2184 72.8473L42.0179 74.7955C42.3141 74.8965 42.6198 74.9446 42.9256 74.9446C43.5561 74.9446 44.1819 74.7329 44.6931 74.3289C45.4527 73.7324 45.8587 72.7944 45.7823 71.8275V71.765C45.7727 71.7409 45.7727 71.712 45.7727 71.688C45.7727 70.7018 45.8683 69.6869 46.0498 68.6815C46.0928 68.4795 46.1167 68.2726 46.1167 68.0561C46.1167 66.4783 44.8555 65.194 43.2934 65.1699H43.2504Z" fill="black"/>
<path d="M45.5015 64.2758C45.0971 64.2758 44.7071 64.101 44.4359 63.7855L39.6361 58.2612C39.227 57.7903 39.1604 57.1107 39.4696 56.567C39.7264 56.1107 40.2021 55.8389 40.7064 55.8389C40.8015 55.8389 40.8967 55.8486 40.9918 55.868L48.6221 57.4602C49.1264 57.567 49.5402 57.9408 49.6972 58.4457C49.8542 58.9457 49.7352 59.4991 49.3832 59.8826C48.3605 61.0039 47.4757 62.2321 46.7526 63.5379C46.5242 63.9457 46.1199 64.2224 45.6585 64.2709C45.6061 64.2709 45.5586 64.2806 45.5062 64.2806H45.5015V64.2758Z" fill="white"/>
<path d="M40.7298 57.3564L48.2929 58.9147C47.2131 60.0834 46.2701 61.3709 45.4921 62.7629C43.375 60.3542 40.7346 57.3564 40.7346 57.3564M40.7346 54.5059C39.7397 54.5059 38.7966 55.038 38.2874 55.9311C37.6791 56.9953 37.8112 58.3303 38.6222 59.2473L43.3798 64.6538C43.922 65.2666 44.6906 65.6135 45.4968 65.6135C45.5959 65.6135 45.6949 65.6135 45.7986 65.5992C46.7086 65.5042 47.5149 64.9673 47.9628 64.1644C48.623 62.9862 49.434 61.8745 50.3723 60.8578C51.0701 60.1024 51.3106 59.0287 50.9994 58.0453C50.6882 57.0618 49.8725 56.3254 48.8729 56.1212L41.3098 54.5629C41.1212 54.5249 40.9279 54.5059 40.744 54.5059H40.7346Z" fill="black"/>
<path d="M52.0095 57.1639C51.8216 57.1639 51.6338 57.1274 51.4555 57.0589C51.0123 56.8855 50.6896 56.5157 50.5932 56.0684L48.8831 48.1531C48.7579 47.5734 49.0373 46.9891 49.5768 46.6924C49.8032 46.5691 50.0489 46.5098 50.2994 46.5098C50.6462 46.5098 50.9883 46.6285 51.258 46.8567L57.9443 52.4759C58.3297 52.8 58.5031 53.293 58.4019 53.7723C58.3008 54.2516 57.9347 54.6396 57.4481 54.7994C55.8006 55.3243 54.2399 56.0501 52.8043 56.9448C52.5635 57.0955 52.2889 57.1731 52.0095 57.1731V57.1639Z" fill="white"/>
<path d="M50.4471 47.5444L57.2952 53.3232C55.4746 53.91 53.7626 54.7081 52.1986 55.6892L50.4471 47.5491M50.4471 44.7324C49.9389 44.7324 49.4308 44.8545 48.967 45.108C47.8618 45.7135 47.2895 46.9247 47.5461 48.1124L49.2975 56.2525C49.4949 57.1679 50.156 57.9331 51.0638 58.2899C51.4289 58.4354 51.8138 58.5058 52.1986 58.5058C52.7709 58.5058 53.3383 58.3509 53.8268 58.0411C55.1885 57.1867 56.6736 56.4966 58.2425 55.9943C59.2441 55.6751 59.9891 54.8677 60.1963 53.8865C60.4035 52.9054 60.0483 51.8867 59.2589 51.2201L52.4108 45.4413C51.8582 44.9718 51.1527 44.7324 50.4471 44.7324Z" fill="black"/>
<path d="M64.1305 74.5014C59.2879 74.5014 54.7694 74.4176 51.4091 74.264C45.7324 74.0033 44.293 73.7613 44.293 72.1553C44.293 61.9329 53.1918 53.6191 64.1305 53.6191C75.0693 53.6191 83.9681 61.9329 83.9681 72.1553C83.9681 73.7613 82.5287 74.0033 76.8519 74.264C73.4917 74.4176 68.9732 74.5014 64.1305 74.5014Z" fill="white"/>
<path d="M64.3585 55.0631C74.5854 55.0631 82.91 62.7119 82.91 72.1108C82.91 72.7404 73.6343 73.0553 64.3585 73.0553C55.0827 73.0553 45.807 72.7404 45.807 72.1108C45.807 62.7119 54.1268 55.0631 64.3585 55.0631ZM64.3585 52.2852C52.5416 52.2852 42.9248 61.1794 42.9248 72.1108C42.9248 72.4858 43.0497 74.398 45.4899 75.0184C45.8934 75.1202 46.3882 75.2036 47.0559 75.2823C48.1031 75.4027 49.5874 75.5091 51.4704 75.5925C54.8762 75.7453 59.454 75.8333 64.3585 75.8333C69.263 75.8333 73.8408 75.7499 77.2466 75.5925C79.1248 75.5091 80.6091 75.4027 81.6611 75.2823C82.324 75.2036 82.8236 75.1202 83.2271 75.0184C83.6546 74.9119 85.7922 74.2591 85.7922 72.1108C85.7922 61.1794 76.1754 52.2852 64.3585 52.2852Z" fill="black"/>
<path d="M95.5847 73.4668H31.626V76.7945H95.5847V73.4668Z" fill="white"/>
<path d="M99.0073 70.1299H28.1934V80.1363H99.0073V70.1299Z" fill="black"/>
<path d="M90.7998 83.8096H37.7314V86.3416H90.7998V83.8096Z" fill="white"/>
<path d="M93.4425 81.2354H35.0898V88.9157H93.4425V81.2354Z" fill="black"/>
<path d="M81.5066 92.168H47.0244V93.6984H81.5066V92.168Z" fill="white"/>
<path d="M83.4004 90.3213H45.1279V95.5445H83.4004V90.3213Z" fill="black"/>
<path d="M72.2881 99.6816H56.2432V101.32H72.2881V99.6816Z" fill="white"/>
<path d="M74.1497 97.8633H54.377V103.133H74.1497V97.8633Z" fill="black"/>
<path d="M95.3695 73.6113H31.5244V76.7215H95.3695V73.6113Z" fill="white"/>
<path d="M90.8084 83.8301H37.9082V86.4959H90.8084V83.8301Z" fill="white"/>
<path d="M81.688 92.2725H47.0293V93.6054H81.688V92.2725Z" fill="white"/>
<path d="M72.1107 99.8262H56.1494V101.159H72.1107V99.8262Z" fill="white"/>
</g>
<defs>
<linearGradient id="paint0_linear_4154_3450" x1="18.709" y1="71.9977" x2="109.291" y2="71.9977" gradientUnits="userSpaceOnUse">
<stop stop-opacity="0"/>
<stop offset="1" stop-opacity="0.5"/>
</linearGradient>
<clipPath id="clip0_4154_3450">
<rect width="128" height="144" fill="white"/>
</clipPath>
</defs>
</svg>
