<svg width="128" height="144" viewBox="0 0 128 144" fill="none" xmlns="http://www.w3.org/2000/svg">
<g clip-path="url(#clip0_4154_3451)">
<path d="M128 107.999V36.001L63.9979 0L0 36.001V107.999L63.9979 144L128 107.999Z" fill="black"/>
<path d="M63.9979 4.82324L4.28516 38.4126L63.9979 71.9979V4.82324Z" fill="#4C4C4C"/>
<path d="M123.711 38.4126L63.998 4.82324V71.9979L123.711 38.4126Z" fill="#606060"/>
<path d="M4.28516 38.4131V105.588L63.9979 71.9984L4.28516 38.4131Z" fill="#232323"/>
<path d="M63.998 71.9984L123.711 105.588V38.4131L63.998 71.9984Z" fill="#232323"/>
<path d="M4.28516 105.587L63.9979 139.177V71.998L4.28516 105.587Z" fill="#606060"/>
<path d="M63.998 139.177L123.711 105.587L63.998 71.998V139.177Z" fill="#4C4C4C"/>
<path d="M63.9982 15.1016L13.4238 43.5497L63.9982 71.9979V15.1016Z" fill="#353535"/>
<path d="M114.577 43.5497L63.998 15.1016V71.9979L114.577 43.5497Z" fill="#353535"/>
<path d="M13.4238 43.5498V100.446L63.9982 71.998L13.4238 43.5498Z" fill="#565656"/>
<path d="M63.998 71.998L114.577 100.446V43.5498L63.998 71.998Z" fill="#565656"/>
<path d="M13.4238 100.446L63.9982 128.894V71.998L13.4238 100.446Z" fill="#353535"/>
<path d="M63.998 128.894L114.577 100.446L63.998 71.998V128.894Z" fill="#353535"/>
<path d="M111.999 99.0005V44.9989L63.9977 17.9961L15.9961 44.9989V99.0005L63.9977 125.999L111.999 99.0005Z" fill="#98BD48"/>
<path style="mix-blend-mode:multiply" opacity="0.48" d="M109.291 97.4726V46.5228L63.9979 21.0479L18.709 46.5228V97.4726L63.9979 122.952L109.291 97.4726Z" fill="url(#paint0_linear_4154_3451)"/>
<path d="M49.8896 104.66C50.7351 102.732 52.9689 95.3789 52.9689 95.3789C52.9689 95.3789 68.2981 91.0216 67.9858 83.814C67.6736 76.6063 60.977 73.7467 60.977 73.7467L60.3621 69.1787H71.363L77.0748 78.9605L73.688 96.9515L82.7001 104.665H49.8896V104.66Z" fill="white"/>
<path d="M82.6925 106.215H49.8821C49.003 106.215 48.292 105.522 48.292 104.666C48.292 104.455 48.3352 104.245 48.4217 104.053C49.0846 102.541 50.8236 96.9622 51.4385 94.9403C51.5923 94.4349 52.0006 94.0417 52.5194 93.8919C56.1848 92.8482 66.6044 88.7623 66.393 83.8808C66.1288 77.7637 60.5659 75.2691 60.3305 75.1661C59.8261 74.9461 59.4706 74.4828 59.3986 73.9492L58.7837 69.3813C58.726 68.9367 58.8653 68.492 59.1632 68.1597C59.4658 67.8228 59.903 67.6309 60.3593 67.6309H71.3602C71.9319 67.6309 72.4603 67.9304 72.7437 68.4125L78.4555 78.1943C78.6381 78.5125 78.7053 78.8823 78.6381 79.238L75.4147 96.3631L83.7494 103.496C84.249 103.922 84.4219 104.6 84.1865 105.204C83.9511 105.808 83.3603 106.206 82.6973 106.206L82.6925 106.215ZM52.1495 103.117H78.4747L72.6332 98.1182C72.2153 97.7579 72.0183 97.2103 72.1192 96.6767L75.4003 79.2427L70.433 70.7339H62.1704L62.4442 72.7511C64.433 73.8556 69.2897 77.202 69.5732 83.7544C69.895 91.1446 57.8325 95.4926 54.2488 96.6205C53.8165 98.0199 52.9037 100.95 52.1543 103.121L52.1495 103.117Z" fill="black"/>
<path d="M63.3936 103.54L63.7334 98.1951L69.3357 93.6565L70.6901 90.416L69.8454 94.6301L65.4325 98.6819L64.9228 104.189" fill="black"/>
<path d="M37.7967 68.59C37.7967 68.59 31.2442 65.5291 31.0616 64.9955C30.8791 64.462 32.3443 55.897 32.3443 55.897C32.3443 55.897 37.3019 53.9454 38.4836 53.8518C39.6654 53.7581 43.5133 54.8252 43.5133 54.8252C43.5133 54.8252 44.0609 50.1871 44.4308 50.0092C44.8007 49.8314 49.1915 48.4039 49.1915 48.4039L52.3044 49.1153L55.9649 43.2275H63.1035L67.3165 39.6611L73.5423 40.3725L74.6424 43.0497L82.1508 40.9108L86.5464 45.0154C86.5464 45.0154 85.6288 48.5818 86.1813 48.4039C86.7337 48.2261 92.2246 50.5428 92.2246 50.5428L93.3246 53.5756L93.4255 56.2247C93.4255 56.2247 96.0725 59.8191 96.0725 60.3527C96.0725 60.8862 95.5248 65.1687 95.5248 65.1687L90.9467 70.3404L88.5688 74.9785L82.343 76.406L76.1172 71.2343L70.8089 73.5511L67.5134 73.3732L63.6703 70.8739L60.5574 74.2625L55.2491 74.0846L52.3956 71.3326L46.093 76.2235L39.3195 74.4403L37.8159 68.5806L37.7967 68.59Z" fill="white"/>
<path d="M82.3434 78.0844C81.9398 78.0844 81.5411 77.944 81.2289 77.6866L75.8293 73.2029L71.5106 75.0891C71.2608 75.1967 70.987 75.2482 70.7132 75.2342L67.4177 75.0563C67.1103 75.0376 66.8124 74.944 66.5578 74.7755L63.9541 73.0812L61.8356 75.3886C61.4946 75.7584 61.0094 75.9549 60.4954 75.9456L55.1871 75.7677C54.7547 75.7537 54.3464 75.5805 54.0389 75.2856L52.2711 73.5773L47.1646 77.5415C46.7371 77.8738 46.175 77.9862 45.6466 77.8504L38.8731 76.0672C38.2726 75.9081 37.8067 75.4448 37.6529 74.8597L36.3511 69.7816C29.8322 66.7067 29.6545 66.1872 29.4335 65.5366C29.2846 65.1013 29.1165 64.6099 30.6537 55.6331C30.7546 55.0575 31.1485 54.5754 31.7057 54.3554C33.267 53.7376 37.0476 52.2961 38.3495 52.1931C39.2046 52.1276 40.7322 52.4178 42.0581 52.7314C42.5865 49.0433 42.9997 48.8467 43.677 48.5191C43.9893 48.3693 45.6658 47.7983 48.6538 46.8248C48.9565 46.7265 49.2783 46.7125 49.5906 46.7827L51.4881 47.218L54.5001 42.3692C54.8124 41.8684 55.3696 41.5642 55.9701 41.5642H62.4649L66.1928 38.4097C66.5578 38.1008 67.0382 37.9557 67.5186 38.0119L73.7444 38.7233C74.3689 38.7935 74.907 39.196 75.1376 39.7623L75.6564 41.0306L81.6708 39.3177C82.2617 39.1492 82.8958 39.3036 83.3426 39.7155L87.7381 43.8201C88.1849 44.2366 88.3674 44.8544 88.2137 45.4348C88.0696 45.9871 87.9399 46.5815 87.8534 47.0682C88.8766 47.3865 90.4379 47.9762 92.9119 49.0199C93.349 49.2024 93.6901 49.5581 93.8486 49.9981L94.9487 53.0309C95.0064 53.19 95.04 53.3585 95.0448 53.527L95.1265 55.6752C97.7926 59.3352 97.7926 59.9062 97.7926 60.3649C97.7926 60.9218 97.4419 63.7487 97.2306 65.3868C97.1873 65.7145 97.048 66.0234 96.8271 66.2714L92.3883 71.284L90.1064 75.7349C89.8806 76.1796 89.4579 76.5025 88.9631 76.6148L82.7373 78.0423C82.6076 78.0704 82.4731 78.0891 82.3434 78.0891V78.0844ZM76.1176 69.5663C76.5163 69.5663 76.915 69.7021 77.232 69.9642L82.7949 74.5883L87.3922 73.5352L89.4099 69.5991C89.4723 69.4774 89.554 69.3604 89.6453 69.2528L93.8823 64.4648C94.0792 62.8969 94.2714 61.2682 94.3338 60.6036C93.9928 59.9811 92.9311 58.4366 92.028 57.2057C91.831 56.9389 91.7205 56.6207 91.7061 56.293L91.6148 53.8967L90.851 51.7953C88.9679 51.0184 86.8974 50.2368 86.2393 50.0823C85.7589 50.1104 85.2737 49.9419 84.9134 49.6143C84.2457 49.0105 84.0295 48.2336 84.6444 45.5612L81.6756 42.7904L75.1183 44.6579C74.2729 44.9012 73.3697 44.4753 73.0431 43.675L72.3225 41.9199L67.8645 41.4097L64.2232 44.4894C63.9109 44.7561 63.5122 44.9012 63.0991 44.9012H56.9261L53.7651 49.984C53.3808 50.6018 52.6266 50.9107 51.906 50.7469L49.2687 50.1432C47.938 50.5784 46.5689 51.0324 45.7763 51.3039C45.5986 52.137 45.368 53.7049 45.2142 55.02C45.1566 55.5068 44.8828 55.9467 44.4648 56.2182C44.0469 56.4896 43.5233 56.5692 43.0381 56.4381C41.1742 55.9233 39.1085 55.4927 38.6137 55.5208C38.0901 55.577 35.8995 56.3305 33.8723 57.1027C33.3967 59.9343 32.9451 62.8735 32.801 64.198C33.8675 64.8205 36.2406 66.0046 38.3255 66.9828C38.3927 67.0015 38.4552 67.0249 38.5176 67.053C38.9932 67.2636 39.3487 67.6755 39.4736 68.1716L40.7322 73.0765L45.6946 74.3823L51.32 70.0203C52.0021 69.4914 52.9773 69.5429 53.597 70.1373L55.9749 72.4307L59.8084 72.557L62.3833 69.7535C62.9549 69.1311 63.9061 69.0141 64.6171 69.4774L68.0711 71.7239L70.4826 71.855L75.4114 69.7021C75.6372 69.6038 75.8774 69.557 76.1127 69.557L76.1176 69.5663Z" fill="black"/>
<path d="M64.3055 66.4188L60.0456 65.4526L59.2891 60.2031L63.0514 61.6662L64.3055 66.4234V66.4188ZM60.7463 64.8913L63.2595 65.4618L62.3913 62.1677L60.2334 61.3303L60.7463 64.8913Z" fill="black"/>
<path d="M44.6975 65.9744L43.3271 62.2492L47.6757 58.8701L48.3435 62.4906L44.6975 65.979V65.9744ZM44.2028 62.4724L45.0092 64.672L47.5372 62.2583L47.1562 60.1771L44.2028 62.4724Z" fill="black"/>
<path d="M83.7774 69.5336L82.5469 65.775L85.6182 61.5361L87.5633 65.3094L83.7724 69.5336H83.7774ZM83.3805 65.9024L84.085 68.0635L86.6553 65.1918L85.5041 62.9671L83.3755 65.9024H83.3805Z" fill="black"/>
<path d="M71.6024 57.0932L68.088 55.9497L67.498 49.9844L70.6225 51.7378L71.6024 57.0932ZM68.7755 55.4494L70.6686 56.0688L69.9555 52.1618L68.36 51.2661L68.7755 55.4494Z" fill="black"/>
<path d="M77.7079 60.2037L77.0742 57.1412L80.5967 54.8721L80.7225 57.7823L77.7079 60.2037ZM77.6939 57.3995L78.0667 59.2075L80.1587 57.5333L80.0888 55.8591L77.6986 57.3995H77.6939Z" fill="black"/>
</g>
<defs>
<linearGradient id="paint0_linear_4154_3451" x1="18.709" y1="71.9977" x2="109.291" y2="71.9977" gradientUnits="userSpaceOnUse">
<stop stop-opacity="0"/>
<stop offset="1" stop-opacity="0.5"/>
</linearGradient>
<clipPath id="clip0_4154_3451">
<rect width="128" height="144" fill="white"/>
</clipPath>
</defs>
</svg>
