<svg width="128" height="144" viewBox="0 0 128 144" fill="none" xmlns="http://www.w3.org/2000/svg">
<g clip-path="url(#clip0_4154_3452)">
<path d="M128 107.999V36.001L63.9979 0L0 36.001V107.999L63.9979 144L128 107.999Z" fill="black"/>
<path d="M63.9979 4.82324L4.28516 38.4126L63.9979 71.9979V4.82324Z" fill="#4C4C4C"/>
<path d="M123.711 38.4126L63.998 4.82324V71.9979L123.711 38.4126Z" fill="#606060"/>
<path d="M4.28516 38.4131V105.588L63.9979 71.9984L4.28516 38.4131Z" fill="#232323"/>
<path d="M63.998 71.9984L123.711 105.588V38.4131L63.998 71.9984Z" fill="#232323"/>
<path d="M4.28516 105.587L63.9979 139.177V71.998L4.28516 105.587Z" fill="#606060"/>
<path d="M63.998 139.177L123.711 105.587L63.998 71.998V139.177Z" fill="#4C4C4C"/>
<path d="M63.9982 15.1016L13.4238 43.5497L63.9982 71.9979V15.1016Z" fill="#353535"/>
<path d="M114.577 43.5497L63.998 15.1016V71.9979L114.577 43.5497Z" fill="#353535"/>
<path d="M13.4238 43.5498V100.446L63.9982 71.998L13.4238 43.5498Z" fill="#565656"/>
<path d="M63.998 71.998L114.577 100.446V43.5498L63.998 71.998Z" fill="#565656"/>
<path d="M13.4238 100.446L63.9982 128.894V71.998L13.4238 100.446Z" fill="#353535"/>
<path d="M63.998 128.894L114.577 100.446L63.998 71.998V128.894Z" fill="#353535"/>
<path d="M111.999 99.0005V44.9989L63.9977 17.9961L15.9961 44.9989V99.0005L63.9977 125.999L111.999 99.0005Z" fill="#F55320"/>
<path style="mix-blend-mode:multiply" opacity="0.48" d="M109.291 97.4726V46.5228L63.9979 21.0479L18.709 46.5228V97.4726L63.9979 122.952L109.291 97.4726Z" fill="url(#paint0_linear_4154_3452)"/>
<path d="M35.667 104.941L63.1403 74.8604L65.158 91.8638L57.8849 104.613L35.667 104.941Z" fill="white"/>
<path d="M35.6691 106.457C35.0638 106.457 34.5113 106.111 34.2567 105.573C34.0021 105.025 34.0982 104.384 34.5066 103.935L61.9799 73.8546C62.3883 73.41 63.0272 73.2415 63.6085 73.4193C64.1945 73.5972 64.6125 74.098 64.6845 74.6877L66.7021 91.6912C66.7405 92.0047 66.6733 92.323 66.5148 92.5991L59.2417 105.348C58.9727 105.821 58.4635 106.12 57.9063 106.125L35.6883 106.453C35.6883 106.453 35.6739 106.453 35.6643 106.453L35.6691 106.457ZM61.9991 78.3945L39.1807 103.378L56.9647 103.116L63.5604 91.5554L61.9991 78.3945Z" fill="black"/>
<path d="M63.933 67.655C61.9106 68.6378 66.359 91.5244 66.359 91.5244L59.0859 104.601H77.2686L80.9051 95.4465L84.5176 86.4978L73.2285 67.332L63.9378 67.6596L63.933 67.655Z" fill="white"/>
<path d="M77.2723 106.121H59.0896C58.542 106.121 58.0328 105.84 57.7542 105.381C57.4755 104.923 57.4611 104.356 57.7205 103.884L64.7342 91.2798C64.4364 89.7212 63.5572 84.9661 62.8511 80.1781C61.1072 68.323 61.9143 66.9517 63.2401 66.3058C63.4803 66.1888 63.7446 66.1373 63.9992 66.1466L73.1698 65.8237C73.751 65.7909 74.2891 66.0952 74.5725 66.5819L85.8616 85.7477C86.097 86.1455 86.1306 86.6276 85.9625 87.0535L82.35 96.0022L78.7183 105.147C78.4877 105.732 77.9112 106.116 77.2675 106.116L77.2723 106.121ZM61.6981 103.093H76.2058L79.458 94.907L82.8016 86.6276L72.3531 68.8846L64.9839 69.142C64.6765 72.0204 66.1705 82.3966 67.8903 91.247C67.9576 91.5887 67.8999 91.9444 67.7318 92.2486L61.7029 103.088L61.6981 103.093Z" fill="black"/>
<path d="M76.4346 104.38L83.8806 85.8271L92.3258 104.431L76.4346 104.38Z" fill="white"/>
<path d="M92.3221 106.189H92.3173L76.4261 106.137C75.8304 106.137 75.2732 105.847 74.9417 105.37C74.6054 104.892 74.5382 104.279 74.7544 103.741L82.2004 85.1883C82.4646 84.5283 83.1131 84.0884 83.8432 84.0697C84.5542 84.0416 85.2364 84.4675 85.5342 85.118L93.9795 103.722C94.2245 104.265 94.1716 104.897 93.8401 105.393C93.5087 105.889 92.937 106.189 92.3317 106.189H92.3221ZM79.0682 102.632L89.5454 102.664L83.9778 90.3974L79.0682 102.632Z" fill="black"/>
<path d="M71.3632 66.7915L65.6899 57.8756L72.2328 51.4729L63.2831 47.0126L69.8212 39.4961H35.4062L47.7955 46.4557L47.4495 52.0299L58.4648 57.5994L56.0533 60.6603L65.4833 66.8102L71.3632 66.7915Z" fill="white"/>
<path d="M65.4906 68.3048C65.188 68.3048 64.8901 68.2159 64.6355 68.0521L55.2055 61.9022C54.85 61.6729 54.6147 61.3078 54.5426 60.9006C54.4705 60.4934 54.581 60.0722 54.8404 59.7446L56.1327 58.1018L46.7459 53.356C46.2079 53.0846 45.8812 52.5276 45.9197 51.9379L46.2079 47.2904L34.6402 40.7941C34.0397 40.4571 33.7419 39.7645 33.9244 39.1092C34.1022 38.454 34.7122 38 35.4088 38H69.8237C70.4242 38 70.9671 38.337 71.2169 38.8659C71.4667 39.3947 71.3802 40.0172 70.9959 40.4665L65.7116 46.5415L72.9366 50.1407C73.3738 50.3559 73.6764 50.7678 73.7533 51.2405C73.8301 51.7132 73.6717 52.1953 73.3258 52.5323L67.6428 58.0971L72.6772 66.0068C72.9703 66.4701 72.9847 67.0458 72.7157 67.5232C72.4467 67.9959 71.9326 68.2908 71.3754 68.2955L65.4955 68.3142H65.4906V68.3048ZM58.28 60.3015L65.9566 65.3094L68.618 65.3001L64.3953 58.6634C64.0206 58.0737 64.1119 57.3108 64.6116 56.8194L69.6652 51.8724L62.5939 48.3481C62.176 48.1422 61.8781 47.7584 61.7869 47.3091C61.6956 46.8598 61.8157 46.3964 62.1231 46.0454L66.5187 40.9954H41.1638L48.5762 45.1608C49.0806 45.4463 49.3785 45.9799 49.3448 46.5509L49.0614 51.1516L59.188 56.2718C59.5915 56.4777 59.8797 56.8428 59.9806 57.2781C60.0815 57.7087 59.9806 58.1627 59.6972 58.5137L58.2848 60.3062L58.28 60.3015Z" fill="black"/>
<path d="M50.0233 71.4665C51.2846 71.4665 52.3035 70.5731 52.3035 69.4671C52.3035 68.3612 51.2846 67.4678 50.0233 67.4678C48.7621 67.4678 47.7432 68.3612 47.7432 69.4671C47.7432 70.5731 48.7621 71.4665 50.0233 71.4665Z" fill="black"/>
<path d="M51.1635 60.8035C51.7941 60.8035 52.3036 60.3072 52.3036 59.6928C52.3036 59.0784 51.7941 58.582 51.1635 58.582C50.5329 58.582 50.0234 59.0784 50.0234 59.6928C50.0234 60.3072 50.5329 60.8035 51.1635 60.8035Z" fill="black"/>
<path d="M76.2456 63.4685C77.3779 63.4685 78.2977 62.5723 78.2977 61.4691C78.2977 60.3658 77.3779 59.4697 76.2456 59.4697C75.1132 59.4697 74.1934 60.3658 74.1934 61.4691C74.1934 62.5723 75.1132 63.4685 76.2456 63.4685Z" fill="black"/>
<path d="M41.8153 50.5838C42.5721 50.5838 43.1835 49.9881 43.1835 49.2509C43.1835 48.5136 42.5721 47.918 41.8153 47.918C41.0586 47.918 40.4473 48.5136 40.4473 49.2509C40.4473 49.9881 41.0586 50.5838 41.8153 50.5838Z" fill="black"/>
<path d="M71.685 46.5867C72.3156 46.5867 72.8251 45.9911 72.8251 45.2538C72.8251 44.5165 72.3156 43.9209 71.685 43.9209C71.0544 43.9209 70.5449 44.5165 70.5449 45.2538C70.5449 45.9911 71.0544 46.5867 71.685 46.5867Z" fill="black"/>
</g>
<defs>
<linearGradient id="paint0_linear_4154_3452" x1="18.709" y1="71.9977" x2="109.291" y2="71.9977" gradientUnits="userSpaceOnUse">
<stop stop-opacity="0"/>
<stop offset="1" stop-opacity="0.5"/>
</linearGradient>
<clipPath id="clip0_4154_3452">
<rect width="128" height="144" fill="white"/>
</clipPath>
</defs>
</svg>
