<svg width="128" height="144" viewBox="0 0 128 144" fill="none" xmlns="http://www.w3.org/2000/svg">
<g clip-path="url(#clip0_4154_3448)">
<path d="M128 107.999V36.001L63.9979 0L0 36.001V107.999L63.9979 144L128 107.999Z" fill="black"/>
<path d="M63.9979 4.82324L4.28516 38.4126L63.9979 71.9979V4.82324Z" fill="#4C4C4C"/>
<path d="M123.711 38.4126L63.998 4.82324V71.9979L123.711 38.4126Z" fill="#606060"/>
<path d="M4.28516 38.4131V105.588L63.9979 71.9984L4.28516 38.4131Z" fill="#232323"/>
<path d="M63.998 71.9984L123.711 105.588V38.4131L63.998 71.9984Z" fill="#232323"/>
<path d="M4.28516 105.587L63.9979 139.177V71.998L4.28516 105.587Z" fill="#606060"/>
<path d="M63.998 139.177L123.711 105.587L63.998 71.998V139.177Z" fill="#4C4C4C"/>
<path d="M63.9982 15.1016L13.4238 43.5497L63.9982 71.9979V15.1016Z" fill="#353535"/>
<path d="M114.577 43.5497L63.998 15.1016V71.9979L114.577 43.5497Z" fill="#353535"/>
<path d="M13.4238 43.5498V100.446L63.9982 71.998L13.4238 43.5498Z" fill="#565656"/>
<path d="M63.998 71.998L114.577 100.446V43.5498L63.998 71.998Z" fill="#565656"/>
<path d="M13.4238 100.446L63.9982 128.894V71.998L13.4238 100.446Z" fill="#353535"/>
<path d="M63.998 128.894L114.577 100.446L63.998 71.998V128.894Z" fill="#353535"/>
<path d="M111.999 99.0005V44.9989L63.9977 17.9961L15.9961 44.9989V99.0005L63.9977 125.999L111.999 99.0005Z" fill="#47CA80"/>
<path style="mix-blend-mode:multiply" opacity="0.48" d="M109.291 97.4726V46.5228L63.9979 21.0479L18.709 46.5228V97.4726L63.9979 122.952L109.291 97.4726Z" fill="url(#paint0_linear_4154_3448)"/>
<path d="M59.3137 60.6559C57.6577 57.1295 55.0451 51.5953 53.6603 48.6651C53.075 47.4306 51.7663 46.4896 50.1436 46.1356L38.7749 43.662C36.1195 43.0797 33.3452 44.2163 32.4267 46.2474L31.2085 48.9353C30.5185 50.454 31.0276 52.1496 32.5171 53.2723C35.9482 55.8577 41.811 60.2506 41.9633 60.3018C42.1156 60.3531 47.8308 63.4835 51.3714 65.4261C53.0512 66.3531 55.2688 66.4137 57.039 65.6031C59.2281 64.5922 60.1893 62.5146 59.3137 60.6466V60.6559Z" fill="white"/>
<path d="M37.2158 43.2064C37.6862 43.2064 38.1662 43.258 38.6463 43.3564L50.2307 45.8447C51.8842 46.2008 53.2177 47.1427 53.8141 48.3893C55.2252 51.3321 57.8873 56.8993 59.5748 60.4514C60.467 62.3305 59.4875 64.4205 57.257 65.4374C56.4181 65.817 55.4774 66.0091 54.5463 66.0091C53.4698 66.0091 52.3982 65.7561 51.4817 65.2593C47.874 63.3052 42.0503 60.1561 41.8951 60.1046C41.7303 60.053 35.7659 55.6293 32.2698 53.0332C30.752 51.9085 30.2331 50.2028 30.9363 48.6704L32.1776 45.9665C32.9535 44.2795 35.0046 43.2158 37.2158 43.2158M37.2158 40.3994C33.7681 40.3994 30.7471 42.138 29.5106 44.8325L28.2693 47.5364C27.0231 50.2497 27.9153 53.3659 30.495 55.2732C38.7578 61.412 40.0913 62.3961 40.6732 62.6679C40.9641 62.8132 42.4528 63.6004 50.0561 67.7242C51.3944 68.4459 52.951 68.8349 54.5512 68.8349C55.9283 68.8349 57.2957 68.5443 58.5032 67.996C62.1933 66.3231 63.7935 62.5742 62.2321 59.2798C60.5398 55.7137 57.8922 50.1841 56.4617 47.213C55.4919 45.184 53.3971 43.6469 50.8659 43.1033L39.2815 40.615C38.6075 40.4697 37.9092 40.3994 37.2158 40.3994Z" fill="black"/>
<path d="M38.5791 60.3933L37.29 60.327L37.7069 52.0202L44.4828 43.5098L45.4987 44.3054L38.9816 52.4985L38.5791 60.3933Z" fill="black"/>
<path d="M42.8595 46.1758L41.8496 46.9837L58.6251 66.1694L59.635 65.3615L42.8595 46.1758Z" fill="black"/>
<path d="M52.9872 57.7266L40.0264 60.433L40.2906 61.7253L53.2514 59.0188L52.9872 57.7266Z" fill="black"/>
<path d="M38.0494 52.8306C35.6541 49.7696 31.7113 44.7836 31.3613 44.4319L32.2928 43.5098C32.7462 43.9328 38.0543 50.7012 39.1139 52.0606L38.0445 52.8401V52.8306H38.0494Z" fill="black"/>
<path d="M69.0777 60.6559C70.7337 57.1295 73.3463 51.5953 74.7311 48.6651C75.3164 47.4306 76.6251 46.4896 78.2478 46.1356L89.6165 43.662C92.2719 43.0797 95.0462 44.2163 95.9647 46.2474L97.1829 48.9353C97.8729 50.454 97.3638 52.1496 95.8743 53.2723C92.4432 55.8577 86.5804 60.2506 86.4281 60.3018C86.2758 60.3531 80.5606 63.4835 77.0201 65.4261C75.3402 66.3531 73.1226 66.4137 71.3524 65.6031C69.1633 64.5922 68.2021 62.5146 69.0777 60.6466V60.6559Z" fill="white"/>
<path d="M91.175 43.2294C93.3861 43.2294 95.442 44.3023 96.2129 45.9797L97.4542 48.6831C98.1573 50.2106 97.6385 51.916 96.1208 53.0452C92.6248 55.6456 86.6511 60.0639 86.4959 60.1154C86.3407 60.1669 80.5173 63.3155 76.9098 65.2693C75.9934 65.7659 74.9218 66.0189 73.8454 66.0189C72.9144 66.0189 71.9737 65.8269 71.1349 65.4473C68.9044 64.4306 67.925 62.3409 68.8172 60.4621C70.5046 56.92 73.1666 51.3491 74.5776 48.402C75.174 47.1604 76.5074 46.2139 78.1608 45.8579L89.7446 43.3699C90.2246 43.2669 90.7047 43.22 91.175 43.22M91.175 40.4041C90.4816 40.4041 89.7834 40.4791 89.1094 40.6196L77.5256 43.1076C74.9945 43.6511 72.8999 45.1878 71.9301 47.2166C70.5045 50.1918 67.8571 55.7205 66.16 59.2814C64.5987 62.5705 66.1988 66.3188 69.8887 67.9962C71.0961 68.5397 72.4635 68.8349 73.8405 68.8349C75.4406 68.8349 76.9971 68.4553 78.3354 67.7244C85.9141 63.6154 87.422 62.8235 87.7178 62.6689C88.2997 62.3972 89.6185 61.4179 97.9003 55.2707C100.475 53.3638 101.367 50.248 100.126 47.5352L98.8846 44.8318C97.653 42.1377 94.6274 40.3994 91.1799 40.3994L91.175 40.4041Z" fill="black"/>
<path d="M89.8051 60.3933L89.4078 52.4985L82.8936 44.3054L83.9178 43.5098L90.6858 52.0202L91.1022 60.327L89.8051 60.3933Z" fill="black"/>
<path d="M85.5316 46.1758L68.7559 65.3615L69.7655 66.1694L86.5413 46.9837L85.5316 46.1758Z" fill="black"/>
<path d="M75.4048 57.7266L75.1406 59.0188L88.1015 61.7253L88.3657 60.433L75.4048 57.7266Z" fill="black"/>
<path d="M90.3478 52.8401L89.2783 52.0606C90.338 50.7107 95.646 43.9375 96.0994 43.5098L97.0309 44.4319C96.6712 44.7836 92.7332 49.7791 90.3429 52.8306V52.8401H90.3478Z" fill="black"/>
<path d="M62.4858 84.0191L59.2605 87.1614C57.9366 88.4513 57.9366 90.537 59.2605 91.8269L62.4858 94.9692C63.8097 96.259 65.9505 96.259 67.2744 94.9692L70.4997 91.8269C71.8236 90.537 71.8236 88.4513 70.4997 87.1614L67.2744 84.0191C65.9505 82.7293 63.8097 82.7293 62.4858 84.0191Z" fill="white"/>
<path d="M64.88 82.8048C65.7784 82.8048 66.6817 83.1377 67.3702 83.8081L70.7199 87.0699C72.0968 88.4108 72.0968 90.5838 70.7199 91.9199L67.3702 95.1817C66.6817 95.8522 65.7784 96.185 64.88 96.185C63.9815 96.185 63.0782 95.8522 62.3897 95.1817L59.0401 91.9199C57.6631 90.579 57.6631 88.4061 59.0401 87.0699L62.3897 83.8081C63.0782 83.1377 63.9815 82.8048 64.88 82.8048ZM64.88 79.9424C63.1563 79.9424 61.5303 80.5986 60.3145 81.7825L56.9649 85.0444C54.4453 87.4979 54.4453 91.4919 56.9649 93.9455L60.3145 97.2073C61.5352 98.396 63.1563 99.0474 64.88 99.0474C66.6036 99.0474 68.2296 98.3912 69.4454 97.2073L72.7951 93.9455C75.3146 91.4919 75.3146 87.4979 72.7951 85.0444L69.4454 81.7825C68.2247 80.5938 66.6036 79.9424 64.88 79.9424Z" fill="black"/>
<path d="M62.4858 51.5856L59.2605 54.7279C57.9366 56.0177 57.9366 58.1034 59.2605 59.3933L62.4858 62.5356C63.8097 63.8254 65.9505 63.8254 67.2744 62.5356L70.4997 59.3933C71.8236 58.1034 71.8236 56.0177 70.4997 54.7279L67.2744 51.5856C65.9505 50.2957 63.8097 50.2957 62.4858 51.5856Z" fill="white"/>
<path d="M64.88 50.3702C65.7784 50.3702 66.6817 50.7031 67.3702 51.3735L70.7199 54.6354C72.0968 55.9762 72.0968 58.1492 70.7199 59.4853L67.3702 62.7472C66.6817 63.4176 65.7784 63.7504 64.88 63.7504C63.9815 63.7504 63.0782 63.4176 62.3897 62.7472L59.0401 59.4853C57.6631 58.1445 57.6631 55.9715 59.0401 54.6354L62.3897 51.3735C63.0782 50.7031 63.9815 50.3702 64.88 50.3702ZM64.88 47.5078C63.1563 47.5078 61.5303 48.164 60.3145 49.3479L56.9649 52.6098C54.4453 55.0633 54.4453 59.0574 56.9649 61.5109L60.3145 64.7727C61.5352 65.9615 63.1563 66.6129 64.88 66.6129C66.6036 66.6129 68.2296 65.9567 69.4454 64.7727L72.7951 61.5109C75.3146 59.0574 75.3146 55.0633 72.7951 52.6098L69.4454 49.3479C68.2247 48.1592 66.6036 47.5078 64.88 47.5078Z" fill="black"/>
<path d="M76.805 57.2832H53.4107C51.8087 57.2832 50.5146 58.5292 50.5146 60.0613V62.5026C50.5146 64.0393 51.8135 65.2807 53.4107 65.2807H76.805C78.4069 65.2807 79.701 64.0347 79.701 62.5026V60.0613C79.701 58.5246 78.4021 57.2832 76.805 57.2832Z" fill="white"/>
<path d="M76.698 56.9951C78.2805 56.9951 79.5675 58.2651 79.5675 59.8163V62.2954C79.5675 63.8513 78.2757 65.1166 76.698 65.1166H53.5175C51.9349 65.1166 50.6479 63.8466 50.6479 62.2954V59.8163C50.6479 58.2604 51.9397 56.9951 53.5175 56.9951H76.698ZM76.698 54.1738H53.5175C50.3476 54.1738 47.7783 56.7045 47.7783 59.821V62.3001C47.7783 65.4165 50.3524 67.9472 53.5175 67.9472H76.698C79.8631 67.9472 82.4371 65.4165 82.4371 62.3001V59.821C82.4371 56.7045 79.8631 54.1738 76.698 54.1738Z" fill="black"/>
<path d="M76.805 80.8311H53.4107C51.8087 80.8311 50.5146 82.0771 50.5146 83.6092V86.0504C50.5146 87.5871 51.8135 88.8285 53.4107 88.8285H76.805C78.4069 88.8285 79.701 87.5825 79.701 86.0504V83.6092C79.701 82.0724 78.4021 80.8311 76.805 80.8311Z" fill="white"/>
<path d="M76.698 80.5429C78.2805 80.5429 79.5675 81.8129 79.5675 83.3642V85.8433C79.5675 87.3992 78.2757 88.6645 76.698 88.6645H53.5175C51.9349 88.6645 50.6479 87.3945 50.6479 85.8433V83.3642C50.6479 81.8083 51.9397 80.5429 53.5175 80.5429H76.698ZM76.698 77.7217H53.5175C50.3476 77.7217 47.7783 80.2524 47.7783 83.3688V85.848C47.7783 88.9644 50.3524 91.4951 53.5175 91.4951H76.698C79.8631 91.4951 82.4371 88.9644 82.4371 85.848V83.3688C82.4371 80.2524 79.8631 77.7217 76.698 77.7217Z" fill="black"/>
<path d="M79.6608 67.502H50.0984C47.555 67.502 45.498 69.4519 45.498 71.853V74.2585C45.498 76.6641 47.5598 78.6095 50.0984 78.6095H79.6608C82.2042 78.6095 84.2611 76.6596 84.2611 74.2585V71.853C84.2611 69.4474 82.1994 67.502 79.6608 67.502Z" fill="white"/>
<path d="M79.5569 67.2566C82.0673 67.2566 84.1234 69.303 84.1234 71.8015V74.319C84.1234 76.8176 82.0673 78.864 79.5569 78.864H50.202C47.6916 78.864 45.6355 76.8176 45.6355 74.319V71.8015C45.6355 69.303 47.6916 67.2566 50.202 67.2566H79.5569ZM79.5569 64.3916H50.202C46.0993 64.3916 42.7617 67.7134 42.7617 71.7967V74.3143C42.7617 78.3976 46.0993 81.7194 50.202 81.7194H79.5569C83.6596 81.7194 86.9972 78.3976 86.9972 74.3143V71.7967C86.9972 67.7134 83.6596 64.3916 79.5569 64.3916Z" fill="black"/>
<path d="M64.7284 66.7421C65.7259 66.7839 66.4979 67.6816 66.7425 68.6258C66.9823 69.57 66.8336 70.5515 66.7425 71.5143C66.6514 72.4771 66.6657 73.5097 67.1693 74.3423C67.4138 74.7469 67.8454 75.105 68.3249 75.0492C68.7853 74.9934 69.1114 74.5795 69.2936 74.1608C69.6485 73.3562 69.7156 72.4306 69.4614 71.584C69.2936 71.0119 68.9819 70.491 68.7949 69.9282C68.6079 69.37 68.5311 68.7189 68.8189 68.1979C69.1449 67.6212 69.8451 67.3281 70.5116 67.2304C71.1782 67.1281 71.8735 67.1886 72.5449 67.0816C72.8997 67.0258 73.3217 66.8351 73.3169 66.4909C73.3169 66.1049 72.799 65.956 72.401 65.9234C69.941 65.7234 67.4666 65.6723 65.0018 65.7793C64.599 65.7979 62.5274 65.6676 62.3931 66.2072C62.1342 67.2444 64.3448 66.7235 64.7236 66.7421H64.7284Z" fill="black"/>
<path d="M68.3008 65.8885C70.6355 67.1923 72.0104 69.8511 71.6454 72.3614C71.5254 73.2105 71.2205 74.0272 71.1405 74.8717C71.0605 75.7208 71.2354 76.6535 71.9104 77.2382C73.0202 78.194 75.015 77.6326 75.765 76.4076C76.5149 75.1826 76.2849 73.6235 75.665 72.3382C75.32 71.6283 74.86 70.9323 74.855 70.1574C74.85 69.2804 75.445 68.473 76.2099 67.958C76.9748 67.4429 77.8897 67.1599 78.7896 66.8861C76.1499 65.7817 73.1452 65.4477 70.3056 65.9581" fill="black"/>
<path d="M60.7215 83.9272C60.847 84.4189 61.307 84.8056 61.8042 84.8295C62.3015 84.8533 62.7987 84.5239 62.9752 84.0561C63.2726 83.2732 62.7383 82.3566 63.0078 81.5689C63.2912 80.7431 64.2717 80.4566 65.1082 80.2896C64.1138 80.4853 60.9957 78.7142 60.1917 79.9267C59.7968 80.5282 60.689 80.9531 60.8516 81.5117C61.0979 82.328 60.5124 83.1204 60.7215 83.9368V83.9272Z" fill="black"/>
<path d="M61.7104 85.7182H61.608C60.7841 85.6738 60.0534 85.042 59.8393 84.1929C59.6904 83.5907 59.8067 83.0329 59.9091 82.5837C59.9836 82.2431 60.0487 81.942 59.9836 81.7198C59.965 81.6606 59.8393 81.5125 59.7555 81.4138C59.4763 81.0781 58.8339 80.2982 59.4158 79.3948C60.2349 78.1262 62.0036 78.6741 63.4326 79.1085C63.9027 79.2566 64.6148 79.4639 64.8242 79.4343L65.1082 81.0041C64.5217 81.1225 63.7304 81.3397 63.5722 81.8037C63.5024 82.0259 63.5489 82.3467 63.5955 82.6923C63.6699 83.2057 63.7537 83.7931 63.5303 84.4002C63.2417 85.1901 62.511 85.7182 61.7151 85.7182H61.7011H61.7104ZM60.7655 80.2143C60.8028 80.2587 60.8493 80.313 60.8772 80.3525C61.0681 80.5795 61.3008 80.8658 61.4125 81.241C61.594 81.8778 61.4684 82.4652 61.3706 82.9391C61.3008 83.2748 61.2403 83.5611 61.2868 83.7832C61.3287 83.956 61.5149 84.1189 61.6825 84.1238C61.8593 84.1436 62.0548 83.9955 62.1107 83.8276C62.1852 83.6154 62.1433 83.2797 62.0921 82.9342C62.0223 82.4306 61.9431 81.8729 62.1339 81.2854C62.2363 80.9794 62.3853 80.7227 62.5761 80.5154C61.9664 80.3327 61.0913 80.1155 60.7609 80.2192H60.7655V80.2143Z" fill="black"/>
<path d="M74.6848 91.9963H73.2208C73.182 92.02 73.1432 92.0484 73.1044 92.0721C72.7312 92.2711 72.3579 92.4653 71.9846 92.6548C71.6162 92.8491 71.2575 93.0339 70.889 93.2186C70.5206 93.4129 70.1474 93.6024 69.7789 93.7966C69.4105 93.9814 69.0518 94.1756 68.6834 94.3604C68.2034 94.6115 67.7187 94.8626 67.2388 95.1042C66.8655 95.289 66.5116 95.5069 66.1238 95.6632C65.9202 95.7485 65.7117 95.8385 65.4936 95.8433C65.1736 95.8622 64.8488 95.867 64.5289 95.8196C64.1605 95.7627 63.8454 95.6064 63.5303 95.4406C63.3218 95.3316 63.1231 95.2084 62.9146 95.0947C62.7353 95 62.5608 94.9005 62.3911 94.801C62.1875 94.692 61.9887 94.5783 61.7851 94.4599C61.6058 94.3557 61.4264 94.2609 61.247 94.1567C61.058 94.0477 60.8641 93.934 60.675 93.8298C60.4908 93.7255 60.3017 93.6308 60.1175 93.5266C59.8509 93.375 59.5843 93.2186 59.3177 93.067C59.1141 92.9533 58.9056 92.8491 58.702 92.7401C58.4209 92.5885 58.1397 92.4274 57.8634 92.2664C57.7131 92.1763 57.5628 92.0816 57.4174 91.9916H55.9873C56.0746 92.1147 56.2103 92.1716 56.3364 92.2427C56.4478 92.309 56.5157 92.3943 56.5157 92.5269C56.5157 92.5696 56.5157 92.6122 56.5206 92.6548C56.5787 92.9059 56.6369 93.1476 56.6999 93.3987C56.7775 93.7398 56.8454 94.0761 56.9375 94.4125C57.0877 94.981 57.1992 95.559 57.4562 96.1038C57.5434 96.2839 57.6113 96.4639 57.7519 96.6108C57.7664 96.6155 57.7713 96.625 57.7858 96.6297C58.1009 96.6676 58.3578 96.5539 58.5614 96.3218C58.799 96.047 58.8765 95.7106 58.9008 95.3648C58.9008 95.3506 58.9201 95.3458 58.925 95.3316V95.2369C58.925 95.2369 58.9492 95.2179 58.9589 95.2037C58.9589 95.1705 58.9589 95.1374 58.9589 95.1089C58.9638 95.0947 58.9735 95.09 58.9832 95.0758C58.9832 95.0568 58.9832 95.0331 58.988 95.0094C58.988 94.9952 59.0074 94.9905 59.0122 94.9763L59.0559 94.891C59.1625 94.692 59.3176 94.5831 59.5552 94.5973C59.6618 94.5973 59.7733 94.6162 59.8751 94.621C60.0981 94.6447 60.3066 94.7157 60.5005 94.8247C60.9416 95.0805 61.1937 95.4785 61.3779 95.9333C61.4118 96.0233 61.4215 96.1181 61.4652 96.2033C61.5524 96.3786 61.5815 96.5634 61.5961 96.7529C61.6106 96.7719 61.6155 96.7908 61.63 96.8192C61.6494 96.9045 61.6688 96.9945 61.6833 97.0751C61.7221 97.4162 61.7706 97.7525 61.7803 98.0937C61.7997 98.5816 61.7803 99.0696 61.7803 99.5576V99.5908C61.7803 99.7945 61.7609 100.003 61.756 100.207C61.7415 100.519 61.7318 100.842 61.7173 101.154V101.424C61.6979 101.727 61.6639 102.021 61.6639 102.32C61.6639 102.831 61.6833 103.348 61.6833 103.859C61.6833 104.092 61.7367 104.309 61.7948 104.527C61.8385 104.707 61.9306 104.869 62.076 104.996C62.0905 105.001 62.0954 105.011 62.1099 105.015C62.2263 105.091 62.3572 105.053 62.4929 105.053C62.6965 105.053 62.8274 104.94 62.871 104.731C62.8759 104.717 62.8855 104.712 62.8952 104.698V104.504C62.8952 104.504 62.9146 104.485 62.9195 104.471C62.9195 104.362 62.934 104.248 62.9195 104.139C62.8322 103.632 62.7353 103.125 62.6577 102.613C62.6044 102.291 62.5801 101.964 62.5414 101.647C62.5365 101.581 62.5414 101.519 62.5414 101.453C62.5753 101.239 62.6092 101.022 62.6383 100.813C62.6383 100.799 62.6577 100.794 62.6626 100.78C62.6626 100.761 62.6626 100.737 62.6626 100.714C62.6626 100.699 62.6819 100.695 62.6868 100.68C62.8371 100.335 63.0891 100.079 63.4333 99.9177C63.4479 99.9177 63.4527 99.9034 63.4673 99.894C63.5254 99.875 63.5933 99.8608 63.6515 99.8371C63.8696 99.7518 64.0975 99.7092 64.3253 99.695C64.7664 99.6713 65.1979 99.676 65.639 99.7518C66.0608 99.8229 66.4341 99.984 66.754 100.254C67.137 100.576 67.3357 100.998 67.4618 101.457C67.5781 101.893 67.6314 102.334 67.6266 102.793C67.6266 103.253 67.6072 103.713 67.5926 104.172C67.5926 104.409 67.5732 104.646 67.5538 104.883C67.5345 105.191 67.5054 105.503 67.5005 105.811C67.5005 106.029 67.5248 106.242 67.5199 106.46C67.5199 106.764 67.5975 107.038 67.7187 107.313C67.8447 107.597 68.0677 107.773 68.344 107.882C68.5234 107.957 68.7318 107.939 68.9209 107.905C69.0566 107.886 69.1972 107.839 69.3136 107.773C69.6141 107.593 69.7402 107.299 69.7838 106.963C69.7838 106.948 69.7983 106.944 69.808 106.929V106.768C69.808 106.768 69.8274 106.749 69.8323 106.735C69.8468 106.479 69.8565 106.228 69.8662 105.972C69.8662 105.75 69.8662 105.522 69.8613 105.304C69.8274 104.902 69.7838 104.494 69.7353 104.092C69.7111 103.836 69.6917 103.58 69.6626 103.324C69.6238 102.964 69.5753 102.599 69.5463 102.239C69.5075 101.822 69.4735 101.405 69.4493 100.993C69.4299 100.652 69.4154 100.306 69.4154 99.9603C69.4154 99.7092 69.4348 99.4676 69.4396 99.2165C69.4396 99.1407 69.4396 99.0554 69.4445 98.9796C69.4784 98.648 69.5123 98.3211 69.5366 97.9847C69.5414 97.9705 69.5559 97.9657 69.5608 97.9515C69.5996 97.7573 69.6384 97.5678 69.6868 97.3736C69.7208 97.2125 69.7595 97.0608 69.7983 96.9045L69.8226 96.8714C69.8226 96.8714 69.8226 96.8287 69.8226 96.805C69.8226 96.7908 69.842 96.7861 69.8468 96.7719C69.8468 96.7529 69.8468 96.7292 69.8468 96.7055C69.8468 96.6913 69.8662 96.6866 69.871 96.6724C69.8856 96.6392 69.8904 96.6155 69.905 96.5823C70.0892 96.0896 70.3267 95.6206 70.6612 95.2037C70.7921 95.0379 70.9424 94.8815 71.0927 94.7299C71.4466 94.3699 71.8101 94.0098 72.1688 93.6592C72.3531 93.4792 72.547 93.3181 72.7457 93.1523C72.8718 93.0433 72.9929 92.9296 73.1335 92.8444C73.4438 92.6643 73.7637 92.5175 74.074 92.3422C74.2776 92.2285 74.4957 92.1195 74.6508 91.9395V91.9631L74.6654 91.9963H74.6848ZM65.0864 98.1789C65.067 98.3637 65.0282 98.5485 64.9701 98.7285C64.9119 98.9085 64.8052 98.9322 64.6501 98.8327C64.495 98.7285 64.3883 98.5816 64.3011 98.4206C64.1556 98.1316 64.0247 97.8378 63.889 97.5441C63.8648 97.4873 63.8454 97.4304 63.8163 97.3688C63.8018 97.3356 63.7969 97.3025 63.7824 97.2741H63.7581V97.3688C63.7048 97.601 63.6515 97.8284 63.5885 98.0558C63.5691 98.1268 63.5206 98.1884 63.477 98.25C63.3267 98.4348 63.0649 98.4158 62.934 98.2121C62.8565 98.0889 62.8371 97.9563 62.8177 97.8189C62.7983 97.6199 62.8032 97.4162 62.8565 97.2219C62.9437 96.8998 63.0407 96.5871 63.1328 96.2744C63.1473 96.2365 63.1667 96.1986 63.1861 96.1465C63.2297 96.1607 63.2782 96.1654 63.3121 96.1844C63.6272 96.3597 63.9617 96.4734 64.3156 96.5492C64.4271 96.5729 64.5435 96.5824 64.6647 96.5918H64.6986C64.9022 96.5966 64.941 96.6155 64.9797 96.8145C65.0331 97.0751 65.0912 97.3451 65.1058 97.6246C65.1058 97.8094 65.1058 97.9895 65.0912 98.1742H65.0815L65.0864 98.1789Z" fill="#030303"/>
<path d="M68.669 109.266C68.4283 109.266 68.1539 109.228 67.8747 109.114C67.0996 108.79 66.729 108.252 66.5605 107.852C66.3535 107.361 66.2524 106.923 66.2668 106.47C66.2668 106.394 66.2668 106.323 66.2668 106.251C66.262 106.104 66.2524 105.956 66.2524 105.808C66.2524 105.585 66.2716 105.365 66.2909 105.137L66.315 104.722C66.3294 104.527 66.3342 104.341 66.339 104.151C66.3535 103.698 66.3631 103.241 66.3727 102.789C66.3727 102.441 66.3342 102.112 66.2476 101.803C66.1513 101.441 66.0406 101.308 65.9491 101.236C65.8239 101.127 65.6699 101.06 65.4629 101.022C65.1885 100.969 64.8852 100.965 64.4664 100.984C64.3557 100.984 64.269 101.003 64.2064 101.027C64.1535 101.046 64.1005 101.065 64.0524 101.079C64.0331 101.093 64.0139 101.103 63.9994 101.117L63.9802 101.269L63.9416 101.322C63.9272 101.408 63.9176 101.484 63.9031 101.565L63.9224 101.727C63.9465 101.96 63.9657 102.184 64.009 102.408C64.0572 102.684 64.1005 102.955 64.1438 103.232C64.1823 103.465 64.2305 103.694 64.2594 103.932C64.2835 104.08 64.2835 104.237 64.2835 104.389V104.88L64.2449 104.946V105.132L64.0909 105.337C63.8261 105.951 63.2388 106.337 62.5552 106.337C62.3867 106.351 61.9149 106.385 61.4624 106.08L61.2988 105.956C60.9666 105.67 60.7403 105.299 60.6152 104.846C60.5381 104.551 60.4611 104.222 60.4611 103.841C60.4611 103.603 60.4611 103.365 60.4563 103.127C60.4563 102.851 60.4418 102.574 60.4418 102.293C60.4418 102.06 60.4611 101.836 60.4755 101.612L60.567 99.0738C60.567 98.7499 60.567 98.4213 60.5622 98.1022C60.5622 97.8831 60.5285 97.6592 60.5044 97.4401L60.4804 97.2163L60.4274 97.121L60.3889 96.7971C60.3889 96.7257 60.3745 96.7066 60.3745 96.7066C60.3167 96.5923 60.2782 96.4542 60.2445 96.3209C60.2204 96.2542 60.1915 96.2066 60.1675 96.1589C60.076 96.4638 59.9219 96.7924 59.6668 97.102C59.1806 97.6735 58.4825 97.9545 57.7364 97.864L57.409 97.8259L56.8939 97.4258C56.634 97.1401 56.4944 96.8448 56.3981 96.6257C56.1333 96.0446 55.9985 95.5064 55.883 95.0206L55.7963 94.6729C55.7386 94.4348 55.6856 94.1967 55.6326 93.9585L55.4256 93.044C55.2957 92.9393 55.1609 92.8107 55.0405 92.6297L53.707 90.6245H57.9289L58.3911 90.9198C58.4777 90.977 58.5596 91.0294 58.651 91.0818C58.9254 91.2437 59.1902 91.3913 59.4646 91.539C59.5513 91.5914 59.6427 91.6342 59.7246 91.6819C59.8497 91.7486 59.9653 91.8105 60.0904 91.8772C60.2397 91.9629 60.3889 92.0534 60.5333 92.1343L60.8848 92.3391C60.9618 92.382 61.0484 92.4297 61.1399 92.4725C61.2362 92.5249 61.3421 92.5773 61.4383 92.6344C61.5539 92.7011 61.6646 92.7678 61.785 92.8345L63.8887 94.0252C63.9994 94.0919 64.1149 94.1586 64.2353 94.2205C64.4567 94.33 64.6638 94.4396 64.8274 94.4634C65.0296 94.4967 65.2655 94.4872 65.511 94.4776C65.5303 94.4634 65.5977 94.43 65.6651 94.4062C65.901 94.311 66.108 94.2014 66.3246 94.0776C66.4546 94.0061 66.5845 93.9347 66.7145 93.8728C67.0467 93.7061 67.374 93.5299 67.7062 93.3632L71.4178 91.4247C71.7885 91.2294 72.1544 91.0389 72.5251 90.8389L72.8524 90.6245L73.2712 90.6055H74.7106L77.4209 90.7007L75.7119 92.744C75.4135 93.0917 75.0668 93.2774 74.8213 93.4203C74.6528 93.5156 74.5084 93.587 74.364 93.6632C74.2003 93.749 74.0367 93.8299 73.8826 93.9252C73.8585 93.9442 73.8152 93.9776 73.7863 94.0157L73.6082 94.1681C73.4638 94.2919 73.3145 94.4205 73.1798 94.5539C72.8283 94.9016 72.4769 95.2588 72.1303 95.6112C72.0148 95.735 71.8944 95.8541 71.7837 95.9922C71.5767 96.2542 71.3986 96.5876 71.2349 97.0258L71.2204 97.0591L71.1627 97.3735L71.0905 97.464L70.8931 98.3784L70.8064 99.5263C70.8064 99.6691 70.792 99.8168 70.792 99.9597C70.792 100.284 70.8064 100.603 70.8257 100.927C70.8498 101.331 70.8835 101.731 70.9172 102.136C70.9364 102.336 70.9557 102.536 70.9846 102.736L71.0375 103.213C71.052 103.36 71.0616 103.508 71.076 103.665L71.1483 104.418C71.1723 104.689 71.206 104.965 71.2253 105.242C71.2445 105.504 71.2445 105.775 71.2397 106.042C71.2397 106.237 71.2253 106.428 71.2156 106.623L71.1627 107.394L71.0712 107.523C70.869 108.285 70.4213 108.695 70.0555 108.914C69.8099 109.061 69.5067 109.171 69.1889 109.219C69.0445 109.238 68.8808 109.257 68.7075 109.257H68.6834L68.6738 109.266H68.669ZM66.3968 98.5975C66.8637 98.7404 67.2874 98.969 67.6533 99.2786C67.841 99.4405 68.0047 99.612 68.1539 99.812C68.1539 99.6787 68.1587 99.5405 68.1732 99.3977L68.1876 99.1738C68.1876 99.0405 68.1876 98.9547 68.202 98.869L68.332 97.4592L68.4091 97.3687L68.6642 96.1828L68.7942 96.0303C68.8471 95.8875 68.9049 95.7541 68.9723 95.616L68.9001 95.6541C68.5631 95.8303 68.2309 96.0065 67.8892 96.178C67.7784 96.2351 67.6677 96.2923 67.5618 96.3542C67.3018 96.4971 67.0082 96.659 66.676 96.7876C66.5894 96.821 66.4979 96.8591 66.4016 96.8972C66.4401 97.102 66.469 97.302 66.4786 97.5306C66.4931 97.7688 66.4786 98.0069 66.4594 98.2546C66.4449 98.3641 66.4353 98.4784 66.4161 98.5975H66.3968ZM58.2611 93.849H58.2563L58.2611 93.8537V93.849Z" fill="#030303"/>
<path d="M79.1345 96.8317V96.8107C79.1095 96.7606 79.0795 96.7145 79.0545 96.6644C78.9645 96.5221 78.8495 96.3924 78.7095 96.2837C78.5344 96.154 78.3445 96.0411 78.0994 96.0118C78.0844 96.0118 78.0794 95.995 78.0644 95.9909C77.9344 95.9741 77.8144 95.9448 77.6844 95.9407C77.3344 95.9197 77.0194 96.0034 76.7394 96.1666C76.4194 96.3548 76.2044 96.61 76.0894 96.9195C76.0744 96.9362 76.0694 96.953 76.0544 96.9781C76.0544 97.045 76.0544 97.1077 76.0544 97.1747C76.0544 97.3629 76.0344 97.5428 76.1344 97.7227C76.2344 97.9109 76.3244 98.1075 76.5194 98.2372C76.7644 98.4087 77.0244 98.5593 77.3744 98.5886C77.6794 98.6178 77.9694 98.6095 78.2545 98.5091C78.4495 98.4421 78.6345 98.3459 78.7845 98.2163C79.2195 97.8189 79.3545 97.3545 79.1545 96.8358H79.1395L79.1345 96.8317Z" fill="#030303"/>
<path d="M77.4376 99.9361C77.2795 99.9361 77.14 99.9226 77.0237 99.9135C76.3866 99.8412 75.9355 99.5472 75.5821 99.2668C75.1961 98.9593 75.0241 98.5884 74.9078 98.3442L74.8752 98.2764C74.6799 97.8648 74.6846 97.494 74.6846 97.2678V96.9603L74.6985 96.7025L74.8055 96.4447C75.0055 95.8794 75.3589 95.4226 75.8565 95.0789C76.3681 94.7307 76.9493 94.5633 77.5539 94.6131C77.6841 94.6176 77.819 94.6448 77.9492 94.6674L78.3538 94.7352L78.4375 94.8031C78.7909 94.9252 79.056 95.1287 79.2374 95.287C79.4745 95.4905 79.6791 95.7392 79.8419 96.0377C79.8838 96.1236 79.9303 96.205 79.9675 96.2864L80.0419 96.4583L80.0558 96.5668C80.3116 97.4894 80.0791 98.3894 79.3955 99.1176C79.1583 99.3753 78.8421 99.5834 78.4701 99.7371C78.0934 99.8909 77.7353 99.9316 77.433 99.9316H77.4376V99.9361ZM77.2423 97.4261C77.3074 97.4759 77.3353 97.4894 77.3446 97.494C77.4562 97.4985 77.5028 97.494 77.5028 97.494C77.5493 97.4759 77.5679 97.4623 77.5679 97.4623C77.6702 97.3538 77.6609 97.304 77.6237 97.191C77.6004 97.1548 77.5865 97.1367 77.5865 97.1367L77.5725 97.1231L77.3074 97.0915C77.2656 97.1231 77.233 97.1548 77.2005 97.2136V97.3402C77.2144 97.3719 77.2237 97.4035 77.2377 97.4261H77.2423Z" fill="#030303"/>
<path d="M53.0251 96.8316C52.3829 96.8316 51.8365 97.3271 51.8872 97.9369C51.8253 98.563 52.428 99.0584 53.0138 99.0475C53.5602 99.0475 54.163 98.5739 54.163 97.9369C54.163 97.3924 53.6673 96.8262 53.0195 96.8262H53.0251V96.8316Z" fill="#030303"/>
<path d="M53.0107 100.371C52.4426 100.371 51.8701 100.1 51.4842 99.6369C51.1329 99.2207 50.9508 98.6875 50.9724 98.145C50.9551 97.5931 51.1372 97.074 51.4885 96.6578C51.8745 96.1947 52.4382 95.9375 53.0194 95.9375C53.5615 95.9375 54.0689 96.1714 54.4635 96.597C54.8581 97.0226 55.0793 97.5978 55.075 98.1731C55.062 99.361 54.1252 100.376 53.0194 100.381H53.0064V100.371H53.0107ZM53.0107 97.841C52.7635 97.841 52.7331 98.0515 52.7331 98.145C52.7331 98.2011 52.7375 98.3087 52.8025 98.3788C52.8546 98.435 52.924 98.4817 53.0237 98.4677C53.0757 98.4677 53.1538 98.449 53.2189 98.3742C53.2666 98.318 53.3012 98.2432 53.3143 98.159C53.3012 98.0748 53.2666 97.9953 53.2189 97.9392C53.2015 97.9158 53.1408 97.8457 53.0064 97.8457L53.0107 97.841Z" fill="#030303"/>
<path d="M74.2882 106.623C74.2882 106.623 74.2702 106.602 74.2567 106.602C74.2432 106.602 74.2387 106.606 74.2252 106.623C74.0724 106.623 73.9331 106.662 73.8117 106.723C73.6904 106.784 73.5735 106.87 73.4791 106.987C73.2858 107.221 73.2948 107.481 73.3532 107.746C73.3892 107.928 73.4971 108.084 73.6589 108.197C73.8297 108.318 74.005 108.379 74.2252 108.379C74.5579 108.379 74.8096 108.244 74.9849 107.984C75.358 107.455 75.0343 106.684 74.2927 106.623H74.2882Z" fill="#030303"/>
<path d="M74.2358 109.711H74.2166C73.7059 109.711 73.253 109.552 72.8387 109.264C72.4099 108.956 72.116 108.509 72.01 108.011C71.957 107.745 71.7884 106.935 72.4002 106.176C72.6267 105.896 72.8965 105.682 73.2096 105.538C73.2867 105.5 73.3638 105.468 73.4457 105.445L73.571 105.268L74.2599 105.286C74.4141 105.286 74.5683 105.309 74.708 105.361C75.397 105.505 75.9799 105.943 76.2882 106.562C76.6351 107.27 76.5677 108.099 76.1196 108.742C75.6764 109.366 75.0067 109.711 74.2358 109.711Z" fill="#030303"/>
</g>
<defs>
<linearGradient id="paint0_linear_4154_3448" x1="18.709" y1="71.9977" x2="109.291" y2="71.9977" gradientUnits="userSpaceOnUse">
<stop stop-opacity="0"/>
<stop offset="1" stop-opacity="0.5"/>
</linearGradient>
<clipPath id="clip0_4154_3448">
<rect width="128" height="144" fill="white"/>
</clipPath>
</defs>
</svg>
