<svg width="128" height="144" viewBox="0 0 128 144" fill="none" xmlns="http://www.w3.org/2000/svg">
<g clip-path="url(#clip0_4154_3449)">
<path d="M128 107.999V36.001L63.9979 0L0 36.001V107.999L63.9979 144L128 107.999Z" fill="black"/>
<path d="M63.9979 4.82324L4.28516 38.4126L63.9979 71.9979V4.82324Z" fill="#4C4C4C"/>
<path d="M123.711 38.4126L63.998 4.82324V71.9979L123.711 38.4126Z" fill="#606060"/>
<path d="M4.28516 38.4131V105.588L63.9979 71.9984L4.28516 38.4131Z" fill="#232323"/>
<path d="M63.998 71.9984L123.711 105.588V38.4131L63.998 71.9984Z" fill="#232323"/>
<path d="M4.28516 105.587L63.9979 139.177V71.998L4.28516 105.587Z" fill="#606060"/>
<path d="M63.998 139.177L123.711 105.587L63.998 71.998V139.177Z" fill="#4C4C4C"/>
<path d="M63.9982 15.1016L13.4238 43.5497L63.9982 71.9979V15.1016Z" fill="#353535"/>
<path d="M114.577 43.5497L63.998 15.1016V71.9979L114.577 43.5497Z" fill="#353535"/>
<path d="M13.4238 43.5498V100.446L63.9982 71.998L13.4238 43.5498Z" fill="#565656"/>
<path d="M63.998 71.998L114.577 100.446V43.5498L63.998 71.998Z" fill="#565656"/>
<path d="M13.4238 100.446L63.9982 128.894V71.998L13.4238 100.446Z" fill="#353535"/>
<path d="M63.998 128.894L114.577 100.446L63.998 71.998V128.894Z" fill="#353535"/>
<path d="M111.999 99.0005V44.9989L63.9977 17.9961L15.9961 44.9989V99.0005L63.9977 125.999L111.999 99.0005Z" fill="#56D2BE"/>
<path style="mix-blend-mode:multiply" opacity="0.48" d="M109.291 97.4726V46.5228L63.9979 21.0479L18.709 46.5228V97.4726L63.9979 122.952L109.291 97.4726Z" fill="url(#paint0_linear_4154_3449)"/>
<path d="M56.0435 105.366C56.0435 105.366 60.2613 90.82 58.652 85.9197C57.0427 81.0195 50.7928 75.8337 50.7928 75.8337C50.7928 75.8337 46.1235 74.5326 43.001 71.8555C39.8784 69.1784 31.3516 55.0813 31.3516 55.0813L36.4869 52.3247L39.5374 56.0127L48.3957 66.768L51.8737 65.0737L46.306 46.582L52.0466 44.064C52.0466 44.064 59.363 68.4202 60.6168 72.2767C61.8706 76.1333 66.4727 82.2551 66.4727 82.2551L69.5952 71.1862L66.146 60.4309C66.146 60.4309 62.6872 53.8458 61.9907 51.0844C61.2941 48.323 60.3381 40.0249 60.3381 40.0249L65.387 38.9297L68.1925 49.3152L78.295 41.9344L80.769 45.6365L72.6312 53.2888L77.7282 64.0722C77.7282 64.0722 83.3055 62.4809 85.4144 58.498C87.5184 54.515 89.93 44.3588 89.93 44.3588L95.0413 44.9298C95.0413 44.9298 93.1534 58.8817 90.9148 62.4294C88.6762 65.977 77.8386 71.9772 77.8386 71.9772L75.4847 84.8433C75.4847 84.8433 86.5961 83.0414 87.8307 81.8385C89.0653 80.6357 91.7603 75.5529 91.7603 75.5529L96.5305 79.3814C96.5305 79.3814 93.2447 86.8886 89.5169 89.4955C85.7891 92.1024 66.146 95.4114 66.146 95.4114L64.7433 105.357H56.0483V105.366H56.0435Z" fill="white"/>
<path d="M66.2028 106.984H56.0522V105.51L54.4381 104.925C55.5718 101.008 58.2572 90.051 57.061 86.4191C55.788 82.5485 51.0994 78.2848 49.9609 77.2926C48.7263 76.9088 44.7679 75.5421 41.9 73.085C38.6718 70.3143 30.8031 57.3826 29.9143 55.913L29.04 54.4668L36.9088 50.2405L40.8384 54.991L48.856 64.7213L49.8792 64.2252L44.2971 45.6772L53.117 41.8067L53.6551 43.6039C53.7271 43.8473 60.981 67.9882 62.2156 71.7839C62.8545 73.7449 64.483 76.422 65.8233 78.4346L67.8601 71.2176L64.5983 61.052C64.0987 60.0925 61.0627 54.2047 60.3757 51.4761C59.6599 48.6445 58.7232 40.5523 58.6847 40.2107L58.5166 38.7551L66.6015 37L69.186 46.5618L78.7313 39.5882L82.9299 45.8738L74.6528 53.6571L78.6016 62.0114C80.1869 61.3375 82.7618 59.9615 83.9339 57.7477C85.9179 53.9894 88.2814 44.086 88.3054 43.9877L88.6417 42.5695L96.9236 43.4962L96.7026 45.139C96.5056 46.6039 94.6994 59.5449 92.3407 63.2798C90.2126 66.6543 81.9499 71.5265 79.351 73.0054L77.5544 82.834C81.6713 82.0945 85.8218 81.1585 86.7009 80.6343C87.4551 79.8386 89.2326 76.7777 90.2798 74.8027L91.231 73.0101L98.5617 78.8979L98.0717 80.0212C97.9324 80.3441 94.5553 87.9777 90.496 90.8186C86.9988 93.2664 72.2653 95.995 67.6392 96.8094L66.2028 106.989V106.984ZM58.2236 103.727H63.2869L64.656 94.0105L65.8617 93.8093C73.3125 92.555 86.0572 89.9153 88.5408 88.1742C90.8707 86.5455 93.2774 82.2958 94.4784 79.848L92.2734 78.0789C91.3175 79.7731 89.9243 82.1086 89.0116 82.9932C87.6809 84.2943 81.066 85.5907 75.7577 86.4519L73.423 86.831L76.3294 70.9414L77.0115 70.5623C81.0564 68.3205 88.022 63.8976 89.4872 61.5762C90.9668 59.2313 92.456 50.9098 93.1477 46.3559L91.207 46.1406C90.4528 49.1219 88.6129 56.002 86.8979 59.2454C84.4863 63.7993 78.4527 65.5638 78.1933 65.6387L76.8098 66.0318L70.6128 52.9223L78.6112 45.4011L77.8666 44.2825L67.2068 52.0705L64.1804 40.8612L62.1724 41.2965C62.475 43.7771 63.1235 48.7522 63.6135 50.6945C64.1467 52.8053 66.6976 57.9021 67.6344 59.69L67.7016 59.8117L71.3381 71.1567L67.1684 85.937L65.1267 83.2178C64.9298 82.9604 60.3469 76.8339 59.0258 72.7667C57.9642 69.5093 52.7087 52.0518 50.9841 46.3138L48.3228 47.4792L53.8761 65.9148L47.9385 68.8072L36.0681 54.406L33.6758 55.6884C36.486 60.2423 41.9673 68.7885 44.1098 70.6278C46.9008 73.0242 51.2147 74.2504 51.258 74.2644L51.6038 74.3627L51.8825 74.592C52.1515 74.8167 58.5166 80.1382 60.2508 85.4222C61.6343 89.6345 59.3813 99.3414 58.2284 103.727H58.2236Z" fill="black"/>
<path d="M74.9177 92.409C74.0613 92.409 67.6211 88.4941 67.6211 88.4941L73.9194 94.7144L74.9128 92.4044L74.9177 92.409Z" fill="black"/>
<path d="M82.6057 90.7155L81.3018 86.7168L84.95 90.7155H82.6057Z" fill="black"/>
<path d="M89.9666 86.5252L85.4062 85.3848L88.4465 89.3835L89.9666 86.5252Z" fill="black"/>
<path d="M38.4975 55.1709L36.1543 58.281H40.2586L38.4975 55.1709Z" fill="black"/>
<path d="M38.6851 66.2782L43.907 64.0566L37.5225 64.8891L38.6851 66.2782Z" fill="black"/>
<path d="M52.8921 49.3945L48.4668 51.7658L53.4832 52.0604L52.8921 49.3945Z" fill="black"/>
<path d="M54.4626 56.0596L51.6592 57.3925H55.3075L54.4626 56.0596Z" fill="black"/>
<path d="M53.6078 69.5492L55.8829 69.8327L59.8678 68.6937L58.7279 65.834L55.8829 68.4053L51.6592 69.4221" fill="black"/>
<path d="M62.222 103.861C62.222 103.861 63.0354 97.8437 63.06 97.399C63.0847 96.9544 61.9657 91.6045 61.9657 91.6045L61.3939 97.9004L60.3242 104.045L62.222 103.865V103.861Z" fill="black"/>
<path d="M86.2088 64.0574C85.885 63.5232 85.4062 61.3916 85.4062 61.3916L88.1425 63.8811" fill="black"/>
<path d="M73.3812 59.1701L70.6775 61.0974L68.9883 61.3912L70.8449 59.6152L73.5486 56.5039L73.3812 59.1701Z" fill="black"/>
<path d="M71.7253 54.2822L69.5175 56.948L64.4287 55.8506L69.0076 55.5351L71.7253 54.2822Z" fill="black"/>
<path d="M75.3728 81.0338L74.318 82.2733L69.9004 80.0518" fill="black"/>
<path d="M56.2153 104.647C56.2153 104.647 51.2742 98.2755 46.9057 94.9007C42.5373 91.5259 44.6245 82.7178 44.0565 82.7178C43.4886 82.7178 39.3047 89.276 41.2074 93.9625C43.11 98.6489 47.0998 99.209 50.1383 102.21C53.1768 105.207 54.3175 106.71 54.3175 106.71L56.2201 104.647H56.2153Z" fill="black"/>
<path d="M56.6466 102.853C56.8408 101.927 56.0639 97.1138 54.1118 93.7852C52.1598 90.4521 53.9176 85.8281 53.9176 85.8281C53.9176 85.8281 49.0423 88.7878 51.3828 93.9743C52.6551 96.7911 56.6466 103.6 56.6466 103.6" fill="black"/>
<path d="M65.7959 105.288C65.7959 105.288 67.5208 101.535 69.7967 101.231C73.5916 100.724 74.5163 97.3789 74.5163 97.3789C74.5163 97.3789 75.5417 99.7103 74.3103 101.132C73.0789 102.554 70.4148 102.35 69.1834 103.463C67.952 104.577 65.8007 106.709 65.8007 106.709V105.288H65.7959Z" fill="black"/>
</g>
<defs>
<linearGradient id="paint0_linear_4154_3449" x1="18.709" y1="71.9977" x2="109.291" y2="71.9977" gradientUnits="userSpaceOnUse">
<stop stop-opacity="0"/>
<stop offset="1" stop-opacity="0.5"/>
</linearGradient>
<clipPath id="clip0_4154_3449">
<rect width="128" height="144" fill="white"/>
</clipPath>
</defs>
</svg>
