<svg width="128" height="144" viewBox="0 0 128 144" fill="none" xmlns="http://www.w3.org/2000/svg">
<g clip-path="url(#clip0_4154_3446)">
<path d="M128 107.999V36.001L63.9979 0L0 36.001V107.999L63.9979 144L128 107.999Z" fill="black"/>
<path d="M63.9979 4.82324L4.28516 38.4126L63.9979 71.9979V4.82324Z" fill="#4C4C4C"/>
<path d="M123.711 38.4126L63.998 4.82324V71.9979L123.711 38.4126Z" fill="#606060"/>
<path d="M4.28516 38.4131V105.588L63.9979 71.9984L4.28516 38.4131Z" fill="#232323"/>
<path d="M63.998 71.9984L123.711 105.588V38.4131L63.998 71.9984Z" fill="#232323"/>
<path d="M4.28516 105.587L63.9979 139.177V71.998L4.28516 105.587Z" fill="#606060"/>
<path d="M63.998 139.177L123.711 105.587L63.998 71.998V139.177Z" fill="#4C4C4C"/>
<path d="M63.9982 15.1016L13.4238 43.5497L63.9982 71.9979V15.1016Z" fill="#353535"/>
<path d="M114.577 43.5497L63.998 15.1016V71.9979L114.577 43.5497Z" fill="#353535"/>
<path d="M13.4238 43.5498V100.446L63.9982 71.998L13.4238 43.5498Z" fill="#565656"/>
<path d="M63.998 71.998L114.577 100.446V43.5498L63.998 71.998Z" fill="#565656"/>
<path d="M13.4238 100.446L63.9982 128.894V71.998L13.4238 100.446Z" fill="#353535"/>
<path d="M63.998 128.894L114.577 100.446L63.998 71.998V128.894Z" fill="#353535"/>
<path d="M111.999 99.0005V44.9989L63.9977 17.9961L15.9961 44.9989V99.0005L63.9977 125.999L111.999 99.0005Z" fill="#C1FBE6"/>
<path style="mix-blend-mode:multiply" opacity="0.48" d="M109.291 97.4726V46.5228L63.9979 21.0479L18.709 46.5228V97.4726L63.9979 122.952L109.291 97.4726Z" fill="url(#paint0_linear_4154_3446)"/>
<path d="M29.7927 50.6407C29.3075 50.65 27.2033 47.8511 27.3138 47.3784C27.4243 46.9057 28.1257 45.2394 28.1257 45.2394L29.5621 44.2706L30.1242 41.7806L32.8817 40.1986L36.0331 40.3812L38.6513 37.7414L42.2687 37.0908L46.0639 39.5059L46.5827 41.5045L49.1192 41.3453L51.4492 43.1941L51.8239 43.8962L54.495 44.4438L55.8737 47.252L55.1915 49.625L53.0345 50.7249L29.7927 50.6407Z" fill="white"/>
<path d="M53.0333 52.2392H53.0285L29.7963 52.155H29.7866C28.9507 52.155 28.3022 51.5793 27.5288 50.6573C25.5159 48.2515 25.7129 47.4044 25.7993 47.044C25.9242 46.5057 26.4623 45.1999 26.6881 44.6663C26.8034 44.3948 26.9955 44.1608 27.2405 43.997L28.1725 43.3652L28.6049 41.4555C28.6961 41.0437 28.9604 40.688 29.3351 40.4773L32.0926 38.8953C32.3568 38.7409 32.6642 38.6707 32.9717 38.6894L35.4122 38.8298L37.5355 36.6909C37.7613 36.4662 38.0544 36.3118 38.3714 36.2556L41.9889 35.605C42.3828 35.5348 42.7863 35.6144 43.1226 35.825L46.9178 38.2401C47.2445 38.446 47.4799 38.769 47.5759 39.1387L47.7777 39.9157L49.022 39.8361C49.4063 39.8127 49.8002 39.9344 50.1029 40.1731L52.4328 42.0219C52.5961 42.1529 52.7306 42.3121 52.8315 42.4946L52.8652 42.5601L54.8156 42.958C55.2912 43.0563 55.6899 43.3605 55.8965 43.7864L57.2752 46.5947C57.4386 46.927 57.4722 47.3014 57.3713 47.6571L56.6892 50.0301C56.5739 50.4326 56.2904 50.7696 55.9157 50.9615L53.7587 52.0614C53.5377 52.1737 53.2879 52.2346 53.0381 52.2346L53.0333 52.2392ZM30.2767 49.1268L52.6538 49.2063L53.874 48.5838L54.2199 47.3903L53.4225 45.7709L51.5008 45.3777C51.0445 45.2841 50.6553 44.9986 50.4439 44.5961L50.2182 44.1702L48.6088 42.8924L46.6824 43.0141C45.933 43.0562 45.2604 42.5835 45.0779 41.8721L44.708 40.4446L41.9408 38.6847L39.4235 39.1387L37.1512 41.4275C36.8342 41.7457 36.3922 41.9142 35.9406 41.8861L33.2599 41.7317L31.4969 42.7427L31.0789 44.5867C30.9925 44.9612 30.7667 45.2888 30.4448 45.5041L29.3927 46.2155C29.2246 46.6274 29.0564 47.0533 28.9459 47.3529C29.2342 47.8537 29.8779 48.7055 30.2767 49.1174V49.1268Z" fill="black"/>
<path d="M24.2715 57.4131H99.5505L89.4957 80.4501L84.0624 76.7433L66.667 107.723L50.905 81.5079L43.8382 86.0105L24.2715 57.4131Z" fill="white"/>
<path d="M66.6684 109.24C66.116 109.24 65.6068 108.954 65.3282 108.491L50.3924 83.6469L44.6901 87.279C43.9743 87.733 43.0183 87.5411 42.5475 86.853L22.9807 58.2556C22.6636 57.7923 22.6348 57.1932 22.9038 56.7017C23.1729 56.2103 23.7013 55.9014 24.273 55.9014H99.552C100.076 55.9014 100.561 56.1541 100.849 56.58C101.137 57.0059 101.185 57.5395 100.984 58.0076L90.9287 81.0446C90.7462 81.4659 90.3763 81.7841 89.9247 81.9058C89.4731 82.0322 88.9879 81.9526 88.6036 81.6905L84.5923 78.9525L68.028 108.449C67.759 108.926 67.2497 109.23 66.6877 109.235C66.6781 109.235 66.6732 109.235 66.6636 109.235L66.6684 109.24ZM50.9065 79.9962C51.0266 79.9962 51.1467 80.0102 51.262 80.0383C51.6751 80.1319 52.0306 80.3894 52.2468 80.7451L66.6204 104.653L82.6995 76.0178C82.9108 75.6387 83.2807 75.3673 83.7083 75.269C84.1358 75.1707 84.5923 75.2549 84.9526 75.503L88.815 78.1381L97.198 58.9296H27.1698L44.2721 83.9231L50.0514 80.2443C50.306 80.0805 50.6038 79.9962 50.9017 79.9962H50.9065Z" fill="black"/>
<path d="M43.7153 85.8289L43.4805 68.9453L52.1452 80.9405L43.7153 85.8289Z" fill="black"/>
<path d="M84.9797 75.731L78.0245 69.3906L66.7383 107.601L84.9797 75.731Z" fill="black"/>
<path d="M33.9033 57.3945C33.9033 58.0623 36.1839 68.2797 36.1839 68.2797L39.6049 65.3938L43.9361 84.9414" fill="white"/>
<path d="M43.9672 85.8299C43.5625 85.8299 43.1964 85.5537 43.1049 85.1559L39.0627 66.9764L36.7453 68.9235C36.5092 69.1201 36.1816 69.181 35.8877 69.0873C35.5938 68.9937 35.3722 68.7503 35.3047 68.4555C34.611 65.3475 32.9922 58.0505 32.9922 57.3624C32.9922 56.8897 33.3872 56.5059 33.8738 56.5059C34.3604 56.5059 34.7458 56.8803 34.7555 57.3437C34.7988 57.9241 35.8733 62.8996 36.7164 66.6768L39.0338 64.7297C39.2698 64.5331 39.5926 64.4676 39.8914 64.5659C40.1852 64.6595 40.4068 64.9029 40.4743 65.1978L44.8297 84.7908C44.9308 85.2542 44.6273 85.7082 44.1552 85.8112C44.0925 85.8252 44.0299 85.8299 43.9672 85.8299Z" fill="black"/>
<path d="M64.9936 57.3945L63.5459 77.462L70.3864 75.674L67.4191 107.601" fill="white"/>
<path d="M67.4315 108.489C67.4025 108.489 67.3783 108.489 67.3493 108.489C66.8611 108.447 66.5033 108.029 66.5468 107.554L69.4232 76.8182L63.7477 78.2887C63.4722 78.3592 63.1773 78.2981 62.9549 78.1196C62.7325 77.9411 62.6165 77.6733 62.6359 77.3961L64.0958 57.3061C64.1297 56.8316 64.5406 56.4792 65.0385 56.5074C65.5268 56.5403 65.8942 56.9538 65.8603 57.4236L64.4874 76.3108L70.1871 74.8308C70.4675 74.7556 70.7624 74.8214 70.9847 75.0046C71.2071 75.1879 71.3231 75.4604 71.2941 75.7423L68.3017 107.705C68.2582 108.151 67.8762 108.485 67.4218 108.485L67.4315 108.489Z" fill="black"/>
<path d="M95.0122 57.3945L89.6085 68.9668L85.6785 66.3112L81.7871 74.2781" fill="white"/>
<path d="M81.7582 75.162C81.6325 75.162 81.5068 75.1388 81.3859 75.0832C80.9411 74.884 80.7526 74.379 80.9605 73.9574L84.8668 65.9518C84.978 65.7248 85.1908 65.558 85.4422 65.4932C85.6984 65.4283 85.9642 65.4746 86.1818 65.6183L89.247 67.6938L94.2314 57.0057C94.4297 56.5795 94.9567 56.3896 95.4014 56.5795C95.8462 56.7695 96.0493 57.2744 95.8462 57.7007L90.4218 69.3292C90.3154 69.5608 90.1027 69.7322 89.8465 69.8017C89.5902 69.8666 89.3195 69.8203 89.1019 69.6767L86.0223 67.5919L82.5655 74.6802C82.4157 74.9906 82.0966 75.1666 81.763 75.1666L81.7582 75.162Z" fill="black"/>
<path d="M51.312 69.835C50.9157 69.835 50.5649 69.5427 50.492 69.1232L48.5104 57.5189C48.4284 57.0475 48.7336 56.6045 49.1846 56.5196C49.6402 56.4348 50.0729 56.7506 50.1504 57.2172L52.132 68.8216C52.214 69.2929 51.9088 69.736 51.4578 69.8208C51.4077 69.8303 51.3621 69.835 51.312 69.835Z" fill="black"/>
<path d="M77.7898 61.8328C77.7342 61.8328 77.6787 61.8328 77.6231 61.8235C77.0678 61.749 76.6957 61.3111 76.7846 60.8453L77.4899 57.2214C77.5787 56.7556 78.1063 56.4388 78.656 56.518C79.2114 56.5925 79.5834 57.0304 79.4946 57.4962L78.7893 61.1202C78.706 61.5394 78.2785 61.8375 77.7898 61.8375V61.8328Z" fill="black"/>
<path d="M81.9739 95.6523L81.3445 91.8799L84.275 88.5146C84.275 88.5146 87.6234 88.4117 87.9405 88.3087C88.2575 88.2057 90.453 89.7362 90.453 89.7362L91.188 91.0608L94.8534 89.9375L98.0961 91.5709L98.9321 94.0188L99.1434 94.9362L102.386 95.6523L103.433 98.1001L102.91 100.141L101.55 101.058H83.6505L81.3493 98.9145L81.0371 97.1828L81.9787 95.6523H81.9739Z" fill="white"/>
<path d="M101.547 102.575H83.647C83.2483 102.575 82.864 102.425 82.5709 102.153L80.2698 100.01C80.0296 99.785 79.8711 99.4949 79.8134 99.1766L79.5011 97.4448C79.4387 97.0844 79.506 96.7147 79.6981 96.4058L80.3418 95.3574L79.8038 92.1232C79.7317 91.6879 79.8566 91.2386 80.1545 90.9016L83.0849 87.5364C83.3684 87.2087 83.7815 87.0168 84.2187 87.0028C85.5398 86.9607 87.1443 86.8905 87.5575 86.839C88.2397 86.6471 88.9266 86.8156 91.3527 88.5052C91.5448 88.6409 91.7033 88.8141 91.8138 89.0154L91.9387 89.24L94.3792 88.4912C94.7731 88.3695 95.1959 88.4069 95.561 88.5895L98.8037 90.2229C99.164 90.4055 99.4378 90.7144 99.5627 91.0888L100.399 93.5367C100.413 93.5788 100.427 93.6209 100.437 93.6677L102.724 94.1732C103.214 94.2809 103.622 94.6132 103.814 95.0672L104.862 97.515C104.991 97.8146 105.015 98.1469 104.934 98.4652L104.41 100.506C104.319 100.862 104.098 101.175 103.785 101.386L102.426 102.303C102.166 102.481 101.859 102.575 101.542 102.575H101.547ZM84.2716 99.5463H101.062L101.542 99.2234L101.797 98.2218L101.259 96.9581L98.7989 96.4151C98.2128 96.2841 97.7564 95.8394 97.6267 95.2684L97.4298 94.426L96.8197 92.6333L94.7059 91.5709L91.6505 92.507C90.9395 92.7223 90.1708 92.4227 89.8153 91.7815L89.2533 90.7705C88.6912 90.3914 88.1147 90.031 87.7929 89.8578C87.3365 89.9047 86.5294 89.9561 85.0113 90.0076L82.9889 92.3291L83.4837 95.2965C83.5798 95.6803 83.5173 96.0875 83.3059 96.4339L82.6622 97.4776L82.7871 98.1656L84.2667 99.5463H84.2716ZM87.4998 86.8577C87.4998 86.8577 87.4614 86.8717 87.447 86.8764C87.4662 86.8717 87.4854 86.8624 87.4998 86.8577Z" fill="black"/>
</g>
<defs>
<linearGradient id="paint0_linear_4154_3446" x1="18.709" y1="71.9977" x2="109.291" y2="71.9977" gradientUnits="userSpaceOnUse">
<stop stop-opacity="0"/>
<stop offset="1" stop-opacity="0.5"/>
</linearGradient>
<clipPath id="clip0_4154_3446">
<rect width="128" height="144" fill="white"/>
</clipPath>
</defs>
</svg>
