<svg width="128" height="144" viewBox="0 0 128 144" fill="none" xmlns="http://www.w3.org/2000/svg">
<g clip-path="url(#clip0_4154_3445)">
<path d="M128 107.999V36.001L63.9979 0L0 36.001V107.999L63.9979 144L128 107.999Z" fill="black"/>
<path d="M63.9979 4.82324L4.28516 38.4126L63.9979 71.9979V4.82324Z" fill="#4C4C4C"/>
<path d="M123.711 38.4126L63.998 4.82324V71.9979L123.711 38.4126Z" fill="#606060"/>
<path d="M4.28516 38.4131V105.588L63.9979 71.9984L4.28516 38.4131Z" fill="#232323"/>
<path d="M63.998 71.9984L123.711 105.588V38.4131L63.998 71.9984Z" fill="#232323"/>
<path d="M4.28516 105.587L63.9979 139.177V71.998L4.28516 105.587Z" fill="#606060"/>
<path d="M63.998 139.177L123.711 105.587L63.998 71.998V139.177Z" fill="#4C4C4C"/>
<path d="M63.9982 15.1016L13.4238 43.5497L63.9982 71.9979V15.1016Z" fill="#353535"/>
<path d="M114.577 43.5497L63.998 15.1016V71.9979L114.577 43.5497Z" fill="#353535"/>
<path d="M13.4238 43.5498V100.446L63.9982 71.998L13.4238 43.5498Z" fill="#565656"/>
<path d="M63.998 71.998L114.577 100.446V43.5498L63.998 71.998Z" fill="#565656"/>
<path d="M13.4238 100.446L63.9982 128.894V71.998L13.4238 100.446Z" fill="#353535"/>
<path d="M63.998 128.894L114.577 100.446L63.998 71.998V128.894Z" fill="#353535"/>
<path d="M111.999 99.0005V44.9989L63.9977 17.9961L15.9961 44.9989V99.0005L63.9977 125.999L111.999 99.0005Z" fill="#A5A3A3"/>
<path style="mix-blend-mode:multiply" opacity="0.48" d="M109.291 97.4726V46.5228L63.9979 21.0479L18.709 46.5228V97.4726L63.9979 122.952L109.291 97.4726Z" fill="url(#paint0_linear_4154_3445)"/>
<path d="M38.9833 97.7373H100.305L85.3551 71.2562L76.1845 61.4932C76.1845 61.4932 67.1821 62.1531 66.4999 62.1531C65.8178 62.1531 52.0595 74.8975 52.0595 74.8975L38.9785 97.7373H38.9833Z" fill="white"/>
<path d="M100.305 99.7327H38.9789C38.2535 99.7327 37.5809 99.3582 37.211 98.7451C36.8411 98.1367 36.8363 97.3785 37.187 96.7607L50.268 73.9209C50.3688 73.743 50.4938 73.5839 50.6475 73.4482C65.0015 60.1562 65.5011 60.1562 66.5003 60.1562C67.0623 60.1468 72.6444 59.749 76.0311 59.5009C76.6604 59.4588 77.2706 59.6928 77.6981 60.1421L86.8687 69.9052C86.9792 70.0222 87.0753 70.1533 87.1521 70.289L102.102 96.77C102.452 97.3878 102.438 98.1414 102.068 98.7498C101.698 99.3582 101.031 99.728 100.305 99.728V99.7327ZM42.4665 95.7404H96.8367L83.6741 72.4279L75.3394 63.5541C73.0095 63.7226 68.7821 64.0268 67.1296 64.1204C65.5011 65.3607 59.2848 70.9583 53.6931 76.1347L42.4665 95.7404ZM66.5483 64.1485C66.5483 64.1485 66.5147 64.1485 66.5051 64.1485C66.5195 64.1485 66.5339 64.1485 66.5483 64.1485Z" fill="black"/>
<path d="M31.3985 82.3113L28.6123 97.6907H84.0922C84.0922 97.6907 55.538 85.4799 53.9143 85.2505C52.2906 85.0212 47.1841 80.2754 47.1841 80.2754L31.3985 82.3113Z" fill="white"/>
<path d="M84.0915 99.6846H28.6116C28.0063 99.6846 27.4299 99.4225 27.0408 98.9732C26.6516 98.5239 26.4883 97.9248 26.594 97.3444L29.3802 81.965C29.534 81.1085 30.2449 80.4486 31.1288 80.3316L46.9144 78.2957C47.5293 78.2161 48.149 78.4127 48.5957 78.8292C50.8824 80.9541 53.5341 83.0275 54.2979 83.2896C56.4453 83.7529 74.3253 91.335 84.913 95.8608C85.8017 96.2399 86.2965 97.176 86.0948 98.098C85.8978 99.02 85.0571 99.6846 84.0915 99.6846ZM31.052 95.6923H74.2724C64.9001 91.7328 54.908 87.5767 53.5341 87.2116C51.8143 86.9074 48.884 84.5532 46.4868 82.3769L33.1561 84.0946L31.0568 95.6923H31.052ZM53.5629 87.2163C53.5629 87.2163 53.6014 87.221 53.6206 87.2257C53.6014 87.2257 53.5821 87.221 53.5629 87.2163ZM54.2067 83.2755C54.2067 83.2755 54.2595 83.2849 54.2883 83.2896C54.2595 83.2802 54.2307 83.2802 54.2067 83.2755Z" fill="black"/>
<path d="M31.9893 83.6143C32.6886 83.6143 44.5719 88.3729 44.5719 88.3729L49.2306 92.2219L74.4006 95.1662" fill="white"/>
<path d="M74.1989 96.0537L48.8904 93.0485L44.161 89.0811C39.8156 87.313 32.7719 84.5164 31.9893 84.3742C32.0229 84.3789 32.0517 84.3789 32.0757 84.3789V82.7246C32.6471 82.7246 36.9684 84.3647 44.9244 87.5974L45.0444 87.6448L49.5914 91.4606L74.4006 94.4089L74.1989 96.049V96.0537Z" fill="black"/>
<path d="M36.5296 82.7219C36.5296 82.7219 35.761 76.3755 38.4463 68.3441C41.1317 60.3174 46.3055 55.6465 46.3055 55.6465C42.741 67.0898 42.6641 67.2442 42.6641 73.1975C42.6641 80.1056 44.5809 83.0917 44.5809 83.0917C44.5809 83.0917 42.6786 84.6923 40.3631 84.3975C35.9531 83.8358 37.2982 81.9684 36.5296 82.7172V82.7219Z" fill="white"/>
<path d="M40.9353 85.5629C40.6999 85.5629 40.4597 85.5488 40.2147 85.5161C37.8032 85.2072 36.7367 84.5098 36.1987 83.7984C35.7712 83.6721 35.4397 83.3117 35.382 82.853C35.3484 82.5815 34.6134 76.1649 37.3468 67.9931C40.0946 59.7839 45.2972 55.0194 45.5182 54.8181C45.9025 54.4718 46.4742 54.4203 46.9162 54.6871C47.3581 54.9585 47.5599 55.4827 47.4109 55.9695L47.2476 56.489C43.8801 67.2957 43.8177 67.5017 43.8177 73.1976C43.8177 79.6189 45.547 82.4739 45.5615 82.502C45.8545 82.97 45.7584 83.5831 45.3309 83.9435C45.2444 84.0137 43.3805 85.5582 40.9305 85.5582L40.9353 85.5629ZM37.6158 81.7531C37.8176 81.9497 37.9137 82.1744 37.9569 82.2773C38.2019 82.867 39.4846 83.1479 40.5126 83.2789C41.531 83.41 42.487 83.0355 43.1067 82.7032C42.487 81.2617 41.507 78.1868 41.507 73.1976C41.507 68.2084 41.5982 67.0758 43.5054 60.7855C42.1219 62.8027 40.6183 65.4704 39.5422 68.6905C37.5294 74.714 37.5198 79.8061 37.6158 81.7485V81.7531Z" fill="black"/>
<path d="M39.9468 84.0578C39.9468 84.0578 38.8928 80.5791 38.8324 77.7168C38.7814 75.102 39.5753 72.5059 39.5753 72.5059C39.5753 72.5059 39.8029 77.0958 40.2022 79.4912C40.6572 82.2414 42.0223 83.9597 42.0223 83.9597L39.9468 84.0578Z" fill="black"/>
<path d="M76.1149 61.9527C76.1149 61.9527 75.8411 54.408 71.1573 45.5249C66.4735 36.6417 59.4551 32.1299 59.4551 32.1299C59.4551 32.1299 65.9595 45.1083 67.0548 51.9509C68.3422 60.0103 66.6273 63.8435 66.6273 63.8435C66.6273 63.8435 69.1877 65.3693 71.8779 64.6064C77.0084 63.1555 75.0677 61.2225 76.1149 61.9527Z" fill="white"/>
<path d="M70.3036 65.9433C67.9737 65.9433 66.1194 64.8574 66.0233 64.8013C65.5333 64.5064 65.3364 63.9073 65.567 63.3925C65.5814 63.3644 67.1186 59.681 65.9128 52.1224C64.856 45.5232 58.4813 32.7507 58.414 32.6196C58.1834 32.1657 58.2987 31.6134 58.6878 31.2811C59.0818 30.9441 59.6534 30.9067 60.0857 31.1875C60.3836 31.3794 67.4117 35.966 72.1819 45.0084C76.9281 54.0132 77.2548 61.5906 77.2644 61.9089C77.2788 62.3394 77.0434 62.7373 76.6543 62.9385C76.6159 62.9572 76.5774 62.976 76.5342 62.9947C76.0682 63.898 74.9922 64.8902 72.1915 65.6859C71.543 65.8684 70.9041 65.9433 70.294 65.9433H70.3036ZM68.0362 63.2474C68.8624 63.561 70.2123 63.9073 71.5574 63.5236C73.3877 63.004 74.4013 62.405 74.5694 61.7357C74.6031 61.6 74.6751 61.3191 74.8865 61.0758C74.6463 58.8433 73.7047 52.8151 70.1306 46.038C67.844 41.7041 64.9665 38.4279 62.6846 36.2515C64.7071 40.7072 67.4981 47.3906 68.1995 51.776C69.1555 57.7668 68.5021 61.5485 68.0362 63.2474Z" fill="black"/>
<path d="M71.2848 64.2378C71.2848 64.2378 71.9881 59.9973 71.479 56.6552C71.0119 53.6064 69.4164 50.7344 69.4164 50.7344C69.4164 50.7344 70.0462 56.1106 70.0042 58.9733C69.957 62.2549 68.4717 64.5078 68.4717 64.5078L71.2795 64.2378H71.2848Z" fill="black"/>
<path d="M66.1924 64.9531C66.1924 64.9531 78.0531 73.417 77.5452 73.586C77.0372 73.7503 73.8168 78.5667 74.3248 78.5667C74.8327 78.5667 97.2028 95.1658 97.2028 95.1658" fill="white"/>
<path d="M96.6406 96.0497C88.0878 89.7753 75.0598 80.3027 73.7361 79.5701C73.4161 79.4714 73.1737 79.2084 73.1155 78.8703C73.0719 78.5979 72.9992 78.1846 74.6865 75.6909C75.3168 74.7563 75.7677 74.1598 76.1022 73.7747C74.5555 72.4832 69.6924 68.9469 65.2803 65.8332L66.2742 64.5088C78.2647 72.967 78.2113 73.3051 78.1144 73.9156L77.5325 74.5872C77.6344 74.5543 77.6925 74.5074 77.6974 74.5074C77.2319 74.8784 75.5301 77.3581 74.958 78.4335C76.6598 79.4996 81.6877 83.0266 97.6588 94.7488L96.6358 96.0544L96.6406 96.0497Z" fill="black"/>
<path d="M90.4751 83.5379C90.4751 83.5379 92.1948 78.4879 91.3926 71.5002C90.5904 64.5126 87.1748 59.8604 87.1748 59.8604C87.1748 59.8604 88.1308 69.9885 87.1171 74.7717C85.9258 80.4068 83.8457 82.527 83.8457 82.527C83.8457 82.527 85.1235 84.1464 87.0595 84.2821C90.7489 84.5489 89.9803 82.8031 90.4751 83.5379Z" fill="white"/>
<path d="M87.7661 85.4387C87.5211 85.4387 87.2521 85.4294 86.9687 85.4107C84.5475 85.2422 82.9911 83.2998 82.9238 83.2203C82.5779 82.7803 82.6116 82.1578 83.0055 81.7553C83.0151 81.7413 84.8886 79.7194 85.9791 74.5524C86.9447 69.9891 86.0271 60.0716 86.0175 59.9733C85.9695 59.4678 86.2769 58.9951 86.7669 58.8173C87.2569 58.6394 87.8045 58.8032 88.1072 59.2151C88.2561 59.4164 91.7053 64.1902 92.5316 71.3838C93.353 78.5353 91.638 83.6836 91.5612 83.9036C91.4219 84.3108 91.0616 84.6056 90.6244 84.6618C90.1104 85.0877 89.2649 85.4434 87.7565 85.4434L87.7661 85.4387ZM85.369 82.42C85.7917 82.7523 86.4162 83.1126 87.1416 83.1641C87.5595 83.1922 88.9431 83.2624 89.2265 82.8459C89.3322 82.6914 89.4523 82.565 89.582 82.4667C89.9951 80.8708 90.8358 76.7802 90.2449 71.6272C89.9663 69.1841 89.3466 67.0359 88.674 65.2901C88.7941 68.5195 88.7894 72.4463 88.2465 75.0017C87.4155 78.9238 86.152 81.2639 85.369 82.42Z" fill="black"/>
<path d="M87.5451 84.0569C87.5451 84.0569 89.0381 81.4077 89.5823 79.0891C90.0783 76.9707 89.8568 74.7266 89.8568 74.7266C89.8568 74.7266 88.8695 78.4187 88.1182 80.2996C87.2562 82.46 85.8018 83.6239 85.8018 83.6239L87.5403 84.0523H87.5451V84.0569Z" fill="black"/>
</g>
<defs>
<linearGradient id="paint0_linear_4154_3445" x1="18.709" y1="71.9977" x2="109.291" y2="71.9977" gradientUnits="userSpaceOnUse">
<stop stop-opacity="0"/>
<stop offset="1" stop-opacity="0.5"/>
</linearGradient>
<clipPath id="clip0_4154_3445">
<rect width="128" height="144" fill="white"/>
</clipPath>
</defs>
</svg>
