<svg width="20" height="20" viewBox="0 0 20 20" fill="none" xmlns="http://www.w3.org/2000/svg">
<path d="M11.5593 11.0626V11.6229C11.5593 12.6758 10.7061 13.5289 9.65332 13.5289C8.60058 13.5289 7.74733 12.6758 7.74733 11.6229V10.3022C7.74733 8.98198 8.69283 7.82695 9.99577 7.55592C10.7904 7.39061 11.345 6.6779 11.3141 5.86239C11.2818 5.01359 10.5651 4.29821 9.71635 4.26759C9.39513 4.25518 9.07721 4.33621 8.80111 4.50084C8.52501 4.66548 8.30259 4.90667 8.16081 5.19517C7.69524 6.13927 6.55215 6.52694 5.60805 6.06087C4.66446 5.5953 4.27691 4.45222 4.74248 3.50812C5.69496 1.57837 7.70413 0.381032 9.85282 0.458034C12.7 0.56083 15.0155 2.87088 15.1231 5.71728C15.215 8.12225 13.7532 10.254 11.5593 11.0626Z" fill="white"/>
<path d="M11.5608 17.542C11.5608 18.5948 10.7071 19.448 9.65485 19.448C8.60211 19.448 7.74886 18.5948 7.74886 17.542V16.4852C7.74886 15.4325 8.60211 14.5792 9.65485 14.5792C10.7071 14.5792 11.5608 15.4325 11.5608 16.4852V17.542Z" fill="white"/>
</svg>
