<svg width="21" height="20" viewBox="0 0 21 20" fill="none" xmlns="http://www.w3.org/2000/svg">
<path d="M20.9707 10C20.9707 13.31 18.2807 16 14.9707 16C14.2262 16 13.51 15.8643 12.8518 15.6141C12.5331 15.4929 12.4737 15.0851 12.6955 14.8262C13.8375 13.4938 14.4707 11.786 14.4707 10C14.4707 8.20821 13.8319 6.49432 12.6986 5.17467C12.4759 4.91543 12.5349 4.50621 12.8544 4.38494C13.5118 4.13537 14.2272 4 14.9707 4C18.2807 4 20.9707 6.69 20.9707 10Z" fill="white"/>
<path d="M12.9707 10C12.9707 11.77 12.2007 13.37 10.9707 14.46C9.9107 15.42 8.5107 16 6.9707 16C3.6607 16 0.970703 13.31 0.970703 10C0.970703 6.69 3.6607 4 6.9707 4C8.5107 4 9.9107 4.58 10.9707 5.54C12.2007 6.63 12.9707 8.23 12.9707 10Z" fill="white"/>
</svg>
