<svg width="36" height="36" viewBox="0 0 36 36" fill="none" xmlns="http://www.w3.org/2000/svg">
<path d="M33 7.27453V25.1095C33 26.5645 31.815 27.8995 30.36 28.0795L29.895 28.1395C27.435 28.4695 23.97 29.4895 21.18 30.6595C20.205 31.0645 19.125 30.3295 19.125 29.2645V8.39953C19.125 7.84453 19.44 7.33453 19.935 7.06453C22.68 5.57953 26.835 4.25953 29.655 4.01953H29.745C31.545 4.01953 33 5.47453 33 7.27453Z" fill="white"/>
<path d="M16.0649 7.06453C13.3199 5.57953 9.16486 4.25953 6.34486 4.01953H6.23986C4.43986 4.01953 2.98486 5.47453 2.98486 7.27453V25.1095C2.98486 26.5645 4.16986 27.8995 5.62486 28.0795L6.08986 28.1395C8.54986 28.4695 12.0149 29.4895 14.8049 30.6595C15.7799 31.0645 16.8599 30.3295 16.8599 29.2645V8.39953C16.8599 7.82953 16.5599 7.33453 16.0649 7.06453ZM7.49986 11.6095H10.8749C11.4899 11.6095 11.9999 12.1195 11.9999 12.7345C11.9999 13.3645 11.4899 13.8595 10.8749 13.8595H7.49986C6.88486 13.8595 6.37486 13.3645 6.37486 12.7345C6.37486 12.1195 6.88486 11.6095 7.49986 11.6095ZM11.9999 18.3595H7.49986C6.88486 18.3595 6.37486 17.8645 6.37486 17.2345C6.37486 16.6195 6.88486 16.1095 7.49986 16.1095H11.9999C12.6149 16.1095 13.1249 16.6195 13.1249 17.2345C13.1249 17.8645 12.6149 18.3595 11.9999 18.3595Z" fill="white"/>
</svg>
