<svg width="367" height="463" viewBox="0 0 367 463" fill="none" xmlns="http://www.w3.org/2000/svg">
<mask id="path-1-inside-1_112_3843" fill="white">
<path d="M192 466C320.682 466 425 361.682 425 233C425 104.318 320.682 -1.58096e-05 192 -1.01848e-05C63.3176 -4.55987e-06 -41 104.318 -41 233C-41 361.682 63.3177 466 192 466ZM192 93.2C269.209 93.2 331.8 155.791 331.8 233C331.8 310.209 269.209 372.8 192 372.8C114.791 372.8 52.2 310.209 52.2 233C52.2 155.791 114.791 93.2 192 93.2Z"/>
</mask>
<path d="M192 466C320.682 466 425 361.682 425 233C425 104.318 320.682 -1.58096e-05 192 -1.01848e-05C63.3176 -4.55987e-06 -41 104.318 -41 233C-41 361.682 63.3177 466 192 466ZM192 93.2C269.209 93.2 331.8 155.791 331.8 233C331.8 310.209 269.209 372.8 192 372.8C114.791 372.8 52.2 310.209 52.2 233C52.2 155.791 114.791 93.2 192 93.2Z" fill="url(#paint0_radial_112_3843)" fill-opacity="0.65"/>
<path d="M192 466C320.682 466 425 361.682 425 233C425 104.318 320.682 -1.58096e-05 192 -1.01848e-05C63.3176 -4.55987e-06 -41 104.318 -41 233C-41 361.682 63.3177 466 192 466ZM192 93.2C269.209 93.2 331.8 155.791 331.8 233C331.8 310.209 269.209 372.8 192 372.8C114.791 372.8 52.2 310.209 52.2 233C52.2 155.791 114.791 93.2 192 93.2Z" stroke="url(#paint1_linear_112_3843)" stroke-opacity="0.5" stroke-width="1.31744" style="mix-blend-mode:overlay" mask="url(#path-1-inside-1_112_3843)"/>
<g opacity="0.45">
<path d="M192 466C320.682 466 425 361.682 425 233C425 104.318 320.682 -1.58096e-05 192 -1.01848e-05C63.3176 -4.55987e-06 -41 104.318 -41 233C-41 361.682 63.3177 466 192 466ZM192 52.2251C291.839 52.2251 372.775 133.161 372.775 233C372.775 332.839 291.839 413.775 192 413.775C92.1608 413.775 11.2251 332.839 11.2251 233C11.2251 133.161 92.1608 52.2251 192 52.2251Z" fill="white" style="mix-blend-mode:soft-light"/>
</g>
<defs>
<radialGradient id="paint0_radial_112_3843" cx="0" cy="0" r="1" gradientUnits="userSpaceOnUse" gradientTransform="translate(192 -1.01848e-05) rotate(90) scale(233)">
<stop stop-color="#007D83"/>
<stop offset="1" stop-color="#003434"/>
</radialGradient>
<linearGradient id="paint1_linear_112_3843" x1="334.389" y1="233" x2="46.0265" y2="233.004" gradientUnits="userSpaceOnUse">
<stop stop-color="white"/>
<stop offset="1" stop-color="white" stop-opacity="0.1"/>
</linearGradient>
</defs>
</svg>
