<svg viewBox="0 0 363 342" xmlns="http://www.w3.org/2000/svg"><mask id="mask0_2621_14259" style="mask-type:luminance" maskUnits="userSpaceOnUse" x="0" y="0" width="347" height="332"><path d="M346.31 0H0V331.074H346.31V0Z" fill="#fff"/></mask><g fill="#fff" mask="url(#mask0_2621_14259)"><path d="M137.746 0L55.2318 164.886L110.456 133.6L63.6724 228.104L162.44 174.007L102.016 331.074L280.048 82.1154L168.938 117.307L207.926 38.4499L127.354 78.8568L137.746 0Z" /><path d="M0 291.644L113.384 242.542L90.9634 331.072L28.2654 319.993L53.6042 299.463L0 291.644Z" /><path d="M116.953 331.074L232.61 198.776L343.075 152.498L256.982 231.031L293.687 236.571L116.953 331.074Z" /><path d="M290.949 121.892L247.126 176.398L346.308 104.169L290.949 121.892Z" /></g></svg>