<svg width="20" height="20" viewBox="0 0 20 20" fill="none" xmlns="http://www.w3.org/2000/svg">
<g clip-path="url(#clip0_249_1979)">
<path fill-rule="evenodd" clip-rule="evenodd" d="M17.5411 17.542C18.152 16.9311 18.152 15.9406 17.5411 15.3297L11.7053 9.49407L9.49296 11.7063L15.3287 17.542C15.9396 18.1529 16.9301 18.1529 17.5411 17.542ZM7.87022 1.45855L1.45764 7.87127C1.16203 8.16685 0.999266 8.55984 0.999266 8.9779C0.999266 9.39593 1.16203 9.78895 1.45764 10.0845L4.4752 13.102C4.77068 13.3977 5.16374 13.5606 5.58183 13.5606C5.99996 13.5606 6.39301 13.3977 6.68859 13.1019L13.1013 6.68957C13.3969 6.394 13.5597 6.00101 13.5597 5.58295C13.5597 5.16489 13.3969 4.77189 13.1013 4.47632L10.0835 1.45855C9.7879 1.16294 9.39488 1.00018 8.97685 1.00018C8.55879 1.00018 8.16576 1.16294 7.87022 1.45855Z" fill="white"/>
</g>
<defs>
<clipPath id="clip0_249_1979">
<rect width="17" height="17" fill="white" transform="translate(1 1)"/>
</clipPath>
</defs>
</svg>
