<svg width="36" height="36" viewBox="0 0 36 36" fill="none" xmlns="http://www.w3.org/2000/svg">
<path d="M31.3599 23.427L27.1866 13.667C26.4266 11.8804 25.2933 10.867 23.9999 10.8004C22.7199 10.7337 21.4799 11.627 20.5333 13.3337L17.9999 17.8804C17.4666 18.8404 16.7066 19.4137 15.8799 19.4804C15.0399 19.5604 14.1999 19.1204 13.5199 18.2537L13.2266 17.8804C12.2799 16.6937 11.1066 16.1204 9.90661 16.2404C8.70661 16.3604 7.67994 17.187 6.99994 18.5337L4.69327 23.1337C3.86661 24.8004 3.94661 26.7337 4.91994 28.307C5.89327 29.8804 7.58661 30.827 9.43994 30.827H26.4533C28.2399 30.827 29.9066 29.9337 30.8933 28.4404C31.9066 26.947 32.0666 25.067 31.3599 23.427Z" fill="white"/>
<path d="M11.2933 12.1735C13.7823 12.1735 15.8 10.1558 15.8 7.66682C15.8 5.17786 13.7823 3.16016 11.2933 3.16016C8.80432 3.16016 6.78662 5.17786 6.78662 7.66682C6.78662 10.1558 8.80432 12.1735 11.2933 12.1735Z" fill="white"/>
</svg>
