<svg width="30" height="30" viewBox="0 0 30 30" fill="none" xmlns="http://www.w3.org/2000/svg">
<path d="M16.4426 6.90786C16.4391 6.90239 16.4379 6.89903 16.4375 6.89759V3.12024C20.6457 3.81193 23.875 7.47553 23.875 11.875V18.125C23.875 23.0113 19.8864 27 15 27C10.1136 27 6.125 23.0113 6.125 18.125V11.875C6.125 9.43818 7.1183 7.2138 8.72855 5.60354C10.0124 4.31965 11.6894 3.42943 13.5625 3.1207V6.89761C13.5621 6.89903 13.5609 6.90236 13.5575 6.90777C13.5501 6.91956 13.5351 6.93624 13.5113 6.95092C12.7025 7.4494 12.15 8.34549 12.15 9.37499V11.875C12.15 13.4369 13.4221 14.725 15 14.725C16.5671 14.725 17.8375 13.4352 17.8375 11.875V9.37499C17.8375 8.34984 17.2986 7.45234 16.4893 6.95162C16.4652 6.93669 16.45 6.9198 16.4426 6.90786ZM16.4374 6.8974C16.4373 6.89692 16.4373 6.89672 16.4373 6.89679L16.4374 6.8974Z" fill="#98FEFE" stroke="#98FEFE"/>
</svg>
