<svg viewBox="0 0 342 282" xmlns="http://www.w3.org/2000/svg"><path d="M305.863 86.288C263.089 47.287 194.572 44.4569 122.544 40.5141C53.8889 36.7597 0 0 0 0C0 0 4.67749 25.8971 21.9777 54.8369C30.9333 67.3436 42.9286 76.9302 64.0425 86.8767C64.0425 86.8767 35.7412 86.4596 19.5737 78.9425C21.7822 89.0935 28.5131 102.337 35.2361 112.807C47.9239 123.645 79.3788 135.988 161.993 126.663C253.627 116.324 313.556 146.72 324.791 192.322C324.791 192.322 352.556 128.855 305.863 86.288Z" fill="#fff"/><path d="M199.203 209.915C256.564 200.828 290.292 209.081 308.905 225.965C308.945 225.898 308.985 225.842 309.035 225.775C317.623 213.106 316.36 196.198 305.945 184.918C286.52 163.872 254.436 140.723 162.313 151.022C102.378 157.721 71.99 155.758 50.6969 149.958C51.5282 151.373 52.3675 152.772 53.2394 154.154C69.8223 180.534 79.6011 195.02 101.538 205.532C114.731 211.847 139.846 215.871 154.514 215.331C167.846 214.84 183.052 212.467 199.203 209.915Z" fill="#fff"/><path d="M248.028 228.46C232.562 230.636 216.508 236.606 186.447 236.501C191.858 244.852 200.341 250.799 211.203 253.727C228.716 258.447 237.068 255.419 239.603 260.622C242.039 265.62 237.565 270.406 229.611 274.823C228.032 275.705 228.895 278.134 230.671 277.784C247.938 274.38 280.917 264.991 296.212 241.327C297.5 239.331 296.995 236.787 295.202 235.2C287.445 228.353 271.749 225.122 248.028 228.46Z" fill="#fff"/></svg>