<svg width="72" height="57" viewBox="0 0 72 57" fill="none" xmlns="http://www.w3.org/2000/svg">
<g style="mix-blend-mode:overlay">
<mask id="path-1-outside-1_112_2327" maskUnits="userSpaceOnUse" x="0" y="0" width="72" height="57" fill="black">
<rect fill="white" width="72" height="57"/>
<path d="M15 2.25538C16.4 0.655374 18 0.655374 19.4 1.85538L21.6 4.25538C16 10.4554 14.2 17.0554 14.2 22.4554C14.2 23.0554 14.2 23.8554 14.6 24.8554C15.6 24.6554 16.6 24.4554 18.2 24.4554C27.8 24.4554 33.6 32.2554 33.6 39.4554C33.6 48.0554 26.6 55.0554 17.4 55.0554C6.8 55.0554 1 45.8554 1 34.4554C1 20.2554 8.2 9.05537 15 2.25538ZM52.4 2.25538C53.8 0.655374 55.4 0.655374 56.8 1.85538L59 4.25538C53.4 10.4554 51.6 17.0554 51.6 22.4554C51.6 23.0554 51.6 23.8554 52 24.8554C53 24.6554 54 24.4554 55.6 24.4554C65.2 24.4554 71 32.2554 71 39.4554C71 48.0554 64 55.0554 54.8 55.0554C44.2 55.0554 38.4 45.8554 38.4 34.4554C38.4 20.2554 45.6 9.05537 52.4 2.25538Z"/>
</mask>
<path d="M15 2.25538C16.4 0.655374 18 0.655374 19.4 1.85538L21.6 4.25538C16 10.4554 14.2 17.0554 14.2 22.4554C14.2 23.0554 14.2 23.8554 14.6 24.8554C15.6 24.6554 16.6 24.4554 18.2 24.4554C27.8 24.4554 33.6 32.2554 33.6 39.4554C33.6 48.0554 26.6 55.0554 17.4 55.0554C6.8 55.0554 1 45.8554 1 34.4554C1 20.2554 8.2 9.05537 15 2.25538ZM52.4 2.25538C53.8 0.655374 55.4 0.655374 56.8 1.85538L59 4.25538C53.4 10.4554 51.6 17.0554 51.6 22.4554C51.6 23.0554 51.6 23.8554 52 24.8554C53 24.6554 54 24.4554 55.6 24.4554C65.2 24.4554 71 32.2554 71 39.4554C71 48.0554 64 55.0554 54.8 55.0554C44.2 55.0554 38.4 45.8554 38.4 34.4554C38.4 20.2554 45.6 9.05537 52.4 2.25538Z" fill="url(#paint0_linear_112_2327)"/>
<path d="M15 2.25538L15.7071 2.96248L15.7307 2.93894L15.7526 2.91388L15 2.25538ZM19.4 1.85538L20.1372 1.17966L20.0965 1.13529L20.0508 1.09613L19.4 1.85538ZM21.6 4.25538L22.3421 4.92566L22.952 4.2504L22.3372 3.57965L21.6 4.25538ZM14.6 24.8554L13.6715 25.2268L13.9805 25.9991L14.7961 25.836L14.6 24.8554ZM52.4 2.25538L53.1071 2.96248L53.1307 2.93894L53.1526 2.91388L52.4 2.25538ZM56.8 1.85538L57.5372 1.17966L57.4965 1.13529L57.4508 1.09613L56.8 1.85538ZM59 4.25538L59.7421 4.92566L60.352 4.2504L59.7372 3.57965L59 4.25538ZM52 24.8554L51.0715 25.2268L51.3804 25.9991L52.1961 25.836L52 24.8554ZM15.7526 2.91388C16.329 2.25506 16.8497 2.03095 17.2665 2.00316C17.6871 1.97512 18.1891 2.13451 18.7492 2.61464L20.0508 1.09613C19.2109 0.376249 18.2129 -0.0643675 17.1335 0.00759012C16.0503 0.0797989 15.071 0.655693 14.2474 1.59687L15.7526 2.91388ZM18.6628 2.53111L20.8628 4.9311L22.3372 3.57965L20.1372 1.17966L18.6628 2.53111ZM20.8579 3.58509C15.0805 9.98147 13.2 16.8252 13.2 22.4554H15.2C15.2 17.2855 16.9195 10.9293 22.3421 4.92566L20.8579 3.58509ZM13.2 22.4554C13.2 23.0779 13.1968 24.0398 13.6715 25.2268L15.5285 24.484C15.2032 23.6709 15.2 23.0329 15.2 22.4554H13.2ZM14.7961 25.836C15.7786 25.6395 16.7009 25.4554 18.2 25.4554V23.4554C16.4991 23.4554 15.4214 23.6713 14.4039 23.8748L14.7961 25.836ZM18.2 25.4554C27.1804 25.4554 32.6 32.7379 32.6 39.4554H34.6C34.6 31.7729 28.4196 23.4554 18.2 23.4554V25.4554ZM32.6 39.4554C32.6 47.4786 26.0726 54.0554 17.4 54.0554V56.0554C27.1274 56.0554 34.6 48.6322 34.6 39.4554H32.6ZM17.4 54.0554C12.4271 54.0554 8.62 51.9137 6.02693 48.433C3.41207 44.9229 2 39.9997 2 34.4554H0C0 40.3111 1.48793 45.6878 4.42307 49.6278C7.38 53.597 11.7729 56.0554 17.4 56.0554V54.0554ZM2 34.4554C2 20.6029 9.02704 9.64254 15.7071 2.96248L14.2929 1.54827C7.37296 8.4682 0 19.9078 0 34.4554H2ZM53.1526 2.91388C53.729 2.25506 54.2497 2.03095 54.6665 2.00316C55.0871 1.97512 55.5891 2.13451 56.1492 2.61464L57.4508 1.09613C56.6109 0.376249 55.6129 -0.0643675 54.5335 0.00759012C53.4503 0.0797989 52.471 0.655693 51.6474 1.59687L53.1526 2.91388ZM56.0629 2.53111L58.2629 4.9311L59.7372 3.57965L57.5372 1.17966L56.0629 2.53111ZM58.2579 3.58509C52.4805 9.98147 50.6 16.8252 50.6 22.4554H52.6C52.6 17.2855 54.3195 10.9293 59.7421 4.92566L58.2579 3.58509ZM50.6 22.4554C50.6 23.0779 50.5968 24.0398 51.0715 25.2268L52.9285 24.484C52.6033 23.6709 52.6 23.0329 52.6 22.4554H50.6ZM52.1961 25.836C53.1786 25.6395 54.1009 25.4554 55.6 25.4554V23.4554C53.8991 23.4554 52.8214 23.6713 51.8039 23.8748L52.1961 25.836ZM55.6 25.4554C64.5804 25.4554 70 32.7379 70 39.4554H72C72 31.7729 65.8196 23.4554 55.6 23.4554V25.4554ZM70 39.4554C70 47.4786 63.4726 54.0554 54.8 54.0554V56.0554C64.5274 56.0554 72 48.6322 72 39.4554H70ZM54.8 54.0554C49.8271 54.0554 46.02 51.9137 43.4269 48.433C40.8121 44.9229 39.4 39.9997 39.4 34.4554H37.4C37.4 40.3111 38.8879 45.6878 41.8231 49.6278C44.78 53.597 49.1729 56.0554 54.8 56.0554V54.0554ZM39.4 34.4554C39.4 20.6029 46.427 9.64254 53.1071 2.96248L51.6929 1.54827C44.773 8.4682 37.4 19.9078 37.4 34.4554H39.4Z" fill="white" style="mix-blend-mode:overlay" mask="url(#path-1-outside-1_112_2327)"/>
</g>
<defs>
<linearGradient id="paint0_linear_112_2327" x1="27" y1="1.05664" x2="27" y2="55.0566" gradientUnits="userSpaceOnUse">
<stop stop-color="white"/>
<stop offset="1" stop-color="white" stop-opacity="0"/>
</linearGradient>
</defs>
</svg>
