<svg width="24" height="24" viewBox="0 0 24 24" fill="none" xmlns="http://www.w3.org/2000/svg">
<path d="M17.39 15.6665L13.35 11.9965H10.64L6.59998 15.6665C5.46998 16.6865 5.09998 18.2565 5.64998 19.6765C6.19998 21.0865 7.53998 21.9965 9.04998 21.9965H14.94C16.46 21.9965 17.79 21.0865 18.34 19.6765C18.89 18.2565 18.52 16.6865 17.39 15.6665ZM13.82 18.1365H10.18C9.79998 18.1365 9.49998 17.8265 9.49998 17.4565C9.49998 17.0865 9.80998 16.7765 10.18 16.7765H13.82C14.2 16.7765 14.5 17.0865 14.5 17.4565C14.5 17.8265 14.19 18.1365 13.82 18.1365Z" fill="white"/>
<path d="M18.3502 4.31805C17.8002 2.90805 16.4602 1.99805 14.9502 1.99805H9.05016C7.54016 1.99805 6.20016 2.90805 5.65016 4.31805C5.11016 5.73805 5.48016 7.30805 6.61016 8.32805L10.6502 11.998H13.3602L17.4002 8.32805C18.5202 7.30805 18.8902 5.73805 18.3502 4.31805ZM13.8202 7.22805H10.1802C9.80016 7.22805 9.50016 6.91805 9.50016 6.54805C9.50016 6.17805 9.81016 5.86805 10.1802 5.86805H13.8202C14.2002 5.86805 14.5002 6.17805 14.5002 6.54805C14.5002 6.91805 14.1902 7.22805 13.8202 7.22805Z" fill="white"/>
</svg>
