<svg width="70" height="83" viewBox="0 10 70 83" fill="none" xmlns="http://www.w3.org/2000/svg">
<path d="M33.2609 0.109502L33.1182 0.248473C33.0793 0.282165 33.0534 0.324283 33.0404 0.370609C33.0145 0.416934 33.0059 0.463259 33.0059 0.513796C33.0059 0.564333 33.0145 0.614869 33.0404 0.656983C33.0577 0.703309 33.0837 0.745427 33.1182 0.779119L33.196 0.838072C33.2566 0.871764 33.3214 0.888607 33.3906 0.888607L33.4943 0.875974C33.5591 0.859128 33.6153 0.825445 33.6629 0.779119L33.8055 0.640134C33.8444 0.606443 33.8704 0.564337 33.8833 0.518012C33.9093 0.471686 33.9179 0.425361 33.9179 0.374824C33.9179 0.324287 33.9093 0.273738 33.8833 0.231624C33.8661 0.185298 33.8401 0.143193 33.8055 0.109502L33.7277 0.0505352C33.6672 0.0168437 33.6024 0 33.5332 0L33.4295 0.0126338C33.3646 0.0294796 33.3084 0.0631757 33.2609 0.109502Z" fill="#06343D"/>
<path d="M27.4442 28.4358C27.1747 28.4358 26.9099 28.351 26.6877 28.1863C26.3331 27.9275 26.1345 27.4993 26.1676 27.0617L26.7728 18.9536C26.8154 18.3983 27.2125 17.9324 27.761 17.8054C27.8603 17.7819 27.9548 17.7725 28.0541 17.7725C28.4986 17.7725 28.9241 18.0077 29.1605 18.3983L33.2833 25.3582C33.5055 25.7346 33.5197 26.1958 33.3211 26.5817C33.1226 26.9676 32.7396 27.2311 32.3094 27.2734C31.586 27.3487 30.9146 27.457 30.2574 27.6075C29.4725 27.7911 28.6877 28.0358 27.9265 28.3369C27.7752 28.3981 27.6144 28.4263 27.4537 28.4263L27.4442 28.4358Z" fill="#4DBCC0"/>
<path d="M28.0239 19.0122L32.2205 26.0328C31.4697 26.1088 30.7189 26.2274 29.9682 26.3983C29.0827 26.6024 28.2308 26.8683 27.4079 27.191L28.0239 19.0122ZM28.0239 16.4395C27.8266 16.4395 27.6292 16.4632 27.4319 16.5059C26.3202 16.7622 25.5069 17.7021 25.4202 18.8224L24.8042 27.0012C24.7368 27.8841 25.1363 28.7432 25.863 29.2701C26.3154 29.5977 26.8592 29.7686 27.4079 29.7686C27.7351 29.7686 28.0624 29.7069 28.3752 29.5882C29.0875 29.3081 29.8238 29.0803 30.5601 28.9094C31.1713 28.767 31.8018 28.6673 32.4852 28.5961C33.3707 28.5059 34.1455 27.979 34.5498 27.1958C34.9492 26.4125 34.9204 25.4822 34.468 24.7274L30.2714 17.7069C29.7949 16.9094 28.9335 16.4395 28.0239 16.4395Z" fill="#06343D"/>
<path d="M40.3638 28.4358C40.2098 28.4358 40.051 28.4072 39.9017 28.3547C38.5009 27.8299 37.0375 27.4959 35.5597 27.3576C35.1024 27.3146 34.7028 27.0379 34.5006 26.6277C34.3033 26.2174 34.337 25.7355 34.5873 25.3539L38.9727 18.7941C39.2182 18.4267 39.6322 18.2168 40.0606 18.2168C40.1761 18.2168 40.2965 18.2311 40.412 18.2645C40.9559 18.4172 41.341 18.899 41.3651 19.4572L41.6684 27.0904C41.6876 27.5246 41.4807 27.9348 41.1292 28.1925C40.903 28.3547 40.6382 28.4358 40.3638 28.4358Z" fill="#4DBCC0"/>
<path d="M40.0829 19.4848L40.39 27.1628C38.8741 26.6014 37.2802 26.2319 35.6473 26.0831C37.2753 23.6645 40.0878 19.4848 40.0878 19.4848M40.0878 16.8838C39.2153 16.8838 38.3818 17.3109 37.8846 18.0499L33.4442 24.6483C32.9324 25.4113 32.8642 26.3854 33.2638 27.2108C33.6635 28.0362 34.4775 28.5929 35.4036 28.6793C36.783 28.804 38.1478 29.116 39.459 29.6006C39.7612 29.711 40.078 29.7686 40.3948 29.7686C40.9408 29.7686 41.4818 29.6006 41.94 29.2791C42.6614 28.7704 43.0708 27.9354 43.0367 27.0669L42.7296 19.3888C42.6857 18.261 41.9059 17.2869 40.7994 16.9846C40.5654 16.9174 40.3217 16.8886 40.0878 16.8886V16.8838Z" fill="#06343D"/>
<path d="M47.3356 33.3178C46.9564 33.3178 46.5922 33.1632 46.3327 32.8877C45.3897 31.8826 44.3269 30.9887 43.1743 30.2252C42.7752 29.9594 42.5507 29.5101 42.5856 29.0413C42.6205 28.5726 42.9149 28.1619 43.354 27.9589L49.7705 25.0065C49.9551 24.9195 50.1547 24.8809 50.3493 24.8809C50.7035 24.8809 51.0578 25.0161 51.3172 25.2771C51.7214 25.6782 51.8162 26.2822 51.5617 26.7799L48.548 32.5978C48.3485 32.9844 47.9643 33.2501 47.5202 33.3081C47.4603 33.3178 47.3955 33.3226 47.3356 33.3226V33.3178Z" fill="#4DBCC0"/>
<path d="M50.4509 26.0728L47.5473 31.6816C46.5667 30.6334 45.4658 29.7064 44.2736 28.9191L50.4557 26.0728M50.4557 23.5479C50.3836 23.5479 50.3115 23.5479 50.2394 23.5572C49.8981 23.5851 49.576 23.6736 49.2875 23.8181L43.1583 26.6411C42.3171 27.0278 41.7498 27.8244 41.6777 28.7281C41.6056 29.6319 42.0383 30.503 42.8074 31.0108C43.8362 31.6909 44.7832 32.4875 45.6244 33.3819C46.1244 33.913 46.8262 34.2111 47.5521 34.2111C47.6675 34.2111 47.7877 34.2018 47.9079 34.1879C48.7588 34.0761 49.4991 33.5636 49.8836 32.8183L52.7536 27.284C52.9555 26.9253 53.0708 26.5153 53.0708 26.0774C53.0708 24.6985 51.9363 23.5805 50.523 23.5525H50.4557V23.5479Z" fill="#06343D"/>
<path d="M51.9075 41.3199C51.7446 41.3199 51.5768 41.2855 51.4235 41.2217C51.0352 41.0597 50.7429 40.716 50.647 40.2938C50.3786 39.1499 50.0096 38.0354 49.5399 36.9848C49.3434 36.5479 49.3961 36.0373 49.6693 35.6495C49.9137 35.3009 50.3067 35.0996 50.7189 35.0996C50.7669 35.0996 50.8148 35.0996 50.8627 35.1094L56.4751 35.7526C57.0215 35.8164 57.472 36.2239 57.5966 36.7737C57.7212 37.3236 57.4959 37.8931 57.031 38.1975L52.6073 41.1038C52.3964 41.2413 52.152 41.3149 51.9075 41.3149V41.3199Z" fill="#4DBCC0"/>
<path d="M50.5744 36.4339L56.0172 37.0823L51.7271 39.9903C51.4482 38.7475 51.0578 37.5588 50.5744 36.4388M50.5744 33.7764C49.7703 33.7764 49.0127 34.1792 48.534 34.8768C47.9994 35.6529 47.9065 36.6746 48.283 37.544C48.7013 38.5166 49.0359 39.5482 49.2776 40.6092C49.4682 41.4492 50.0306 42.1369 50.7882 42.4611C51.0903 42.5888 51.411 42.6527 51.7318 42.6527C52.2059 42.6527 52.6799 42.5102 53.0936 42.2302L57.3837 39.3223C58.2807 38.7131 58.7223 37.5735 58.476 36.4732C58.2343 35.3729 57.3651 34.5575 56.3007 34.4297L50.8579 33.7813C50.765 33.7715 50.6674 33.7666 50.5744 33.7666V33.7764Z" fill="#06343D"/>
<path d="M16.6698 49.7622C16.6224 49.7622 16.575 49.7623 16.5276 49.7526L11.346 49.1609C10.8056 49.0984 10.36 48.6991 10.2367 48.1603C10.1134 47.6215 10.3362 47.0634 10.7961 46.7652L15.4277 43.7488C15.6363 43.6093 15.8781 43.542 16.1199 43.542C16.319 43.542 16.5228 43.5901 16.7077 43.6863C17.1154 43.898 17.3809 44.3117 17.4046 44.7783C17.4615 45.8271 17.6037 46.8614 17.8312 47.8524C17.8455 47.9053 17.8597 47.9582 17.8787 48.0063L17.8976 48.0593C18.0256 48.4826 17.9403 48.9396 17.6606 49.2812C17.4141 49.5842 17.049 49.7574 16.6698 49.7574V49.7622Z" fill="#4DBCC0"/>
<path d="M16.1534 44.707C16.2112 45.7513 16.3604 46.8094 16.6202 47.8629C16.6443 47.9641 16.678 48.0561 16.7068 48.1527L11.4469 47.5869L16.1486 44.7024M16.1486 42.209C15.6577 42.209 15.1669 42.3424 14.7386 42.6046L10.0368 45.4891C9.10801 46.0595 8.65083 47.1268 8.90589 48.1573C9.15614 49.1878 10.0561 49.9515 11.1581 50.0711L16.4181 50.6369C16.5144 50.6461 16.6106 50.6508 16.7117 50.6508C17.4865 50.6508 18.2276 50.3195 18.7281 49.7445C19.2911 49.0912 19.4692 48.2171 19.2045 47.4121L19.1853 47.3614C19.1756 47.3338 19.166 47.3108 19.1612 47.2832C18.9543 46.4276 18.8195 45.5121 18.7666 44.5782C18.7184 43.6903 18.1795 42.8944 17.3517 42.4896C16.9763 42.3056 16.5673 42.2136 16.163 42.2136H16.1486V42.209Z" fill="#06343D"/>
<path d="M16.5182 40.4322C16.246 40.4322 15.9737 40.3463 15.7484 40.1835L10.7074 36.5129C10.2756 36.1964 10.0972 35.6494 10.2662 35.1522C10.4352 34.6549 10.9139 34.3159 11.4584 34.3068C11.4584 34.3068 18.0437 34.2119 18.0531 34.2119C18.4943 34.2119 18.9073 34.4334 19.1373 34.7996C19.372 35.1703 19.3861 35.6314 19.1748 36.0156C18.56 37.1277 18.0812 38.303 17.748 39.5145C17.64 39.9078 17.3349 40.2288 16.9313 40.3598C16.7951 40.4051 16.6543 40.4276 16.5135 40.4276H16.5182V40.4322Z" fill="#4DBCC0"/>
<path d="M18.1114 35.3959C17.4434 36.6104 16.9185 37.9037 16.5511 39.2526C14.2702 37.5792 11.4263 35.4933 11.4263 35.4933L18.1114 35.3959ZM18.1114 32.8835H18.0637L11.3882 32.9763C10.2812 32.9902 9.30774 33.6855 8.96418 34.7099C8.62062 35.7343 8.98327 36.8515 9.86125 37.4958L14.986 41.2551C15.4393 41.5888 15.9928 41.765 16.5463 41.765C16.8326 41.765 17.1141 41.7186 17.3909 41.6259C18.2068 41.3524 18.8272 40.7035 19.0467 39.8923C19.352 38.7705 19.791 37.6766 20.3541 36.6382C20.5688 36.272 20.6929 35.8456 20.6929 35.3913C20.6929 34.0007 19.5334 32.8789 18.1066 32.8789L18.1114 32.8835Z" fill="#06343D"/>
<path d="M20.6719 32.8782C20.6032 32.8782 20.5345 32.8736 20.4657 32.8643C20.0189 32.7992 19.6409 32.5204 19.4543 32.1301L16.2483 25.3182C16.0126 24.8164 16.1452 24.2309 16.5772 23.8685C16.8276 23.6547 17.1468 23.5479 17.4659 23.5479C17.6967 23.5479 17.9274 23.6036 18.1336 23.7198L25.0465 27.53C25.4441 27.7484 25.6945 28.1526 25.7093 28.5894C25.7191 29.0262 25.4883 29.4397 25.1005 29.6767C23.8338 30.4527 22.6751 31.3913 21.6637 32.46C21.4084 32.7295 21.0451 32.8782 20.6719 32.8782Z" fill="#4DBCC0"/>
<path d="M17.4408 24.7636L24.3944 28.6197C23.0066 29.4756 21.7571 30.5007 20.6657 31.6576L17.4408 24.7636ZM17.4408 22.2148C16.7938 22.2148 16.1567 22.4359 15.653 22.8685C14.7887 23.6068 14.5221 24.7918 14.9962 25.8029L18.2211 32.6968C18.5915 33.4868 19.357 34.0465 20.2558 34.1781C20.3941 34.1969 20.5324 34.211 20.6706 34.211C21.4263 34.211 22.1572 33.9054 22.6659 33.3599C23.6042 32.3629 24.6759 31.4883 25.8513 30.7641C26.6316 30.2844 27.0958 29.4474 27.076 28.5633C27.0563 27.6792 26.5525 26.8657 25.7476 26.4189L18.794 22.5628C18.3742 22.3324 17.91 22.2148 17.4457 22.2148H17.4408Z" fill="#06343D"/>
<path d="M39.3283 67.5334C38.8848 67.5334 38.4602 67.3107 38.229 66.9289L34.0959 60.1874C33.8694 59.8237 33.86 59.3692 34.0629 58.9919C34.2657 58.6146 34.6573 58.3645 35.0961 58.3327C35.9124 58.2691 36.7239 58.1463 37.5071 57.9736C38.1629 57.8281 38.8093 57.6372 39.4934 57.3917C39.6397 57.3417 39.7907 57.3145 39.9369 57.3145C40.2106 57.3145 40.4795 57.4008 40.706 57.5599C41.0551 57.8145 41.2439 58.2191 41.2108 58.6373L40.6022 66.3925C40.5597 66.9289 40.1634 67.3789 39.6161 67.5016C39.517 67.5244 39.4227 67.5334 39.3236 67.5334H39.3283Z" fill="#4DBCC0"/>
<path d="M39.9767 58.4883L39.3573 66.3613L35.1514 59.5174C36.03 59.4482 36.9135 59.319 37.7969 59.1206C38.5459 58.9544 39.2709 58.7375 39.9767 58.4837M39.9767 55.9824C39.6694 55.9824 39.3621 56.0332 39.0692 56.1393C38.4259 56.3701 37.8209 56.5454 37.2063 56.6839C36.4717 56.85 35.7084 56.9608 34.945 57.0208C34.0519 57.09 33.2549 57.5976 32.842 58.3637C32.4291 59.1298 32.4531 60.0481 32.9092 60.7911L37.1151 67.6351C37.5904 68.4104 38.4499 68.8672 39.3573 68.8672C39.5542 68.8672 39.751 68.8441 39.9479 68.8026C41.0569 68.5534 41.8684 67.6443 41.9548 66.5552L42.5741 58.6821C42.6414 57.833 42.2525 57.0069 41.5419 56.4947C41.0857 56.1624 40.5336 55.9916 39.9767 55.9916V55.9824Z" fill="#06343D"/>
<path d="M49.9201 62.1968C49.6913 62.1968 49.4625 62.1408 49.2581 62.0242L42.3271 58.1707C41.9231 57.9468 41.6749 57.5363 41.67 57.0931C41.6651 56.6452 41.9036 56.23 42.3027 56.0014C43.5828 55.2503 44.7607 54.3313 45.7975 53.2723C46.0506 53.0157 46.401 52.8711 46.7612 52.8711C46.8342 52.8711 46.9072 52.8711 46.9802 52.8897C47.4183 52.9597 47.7882 53.235 47.9683 53.6222L51.132 60.4194C51.3657 60.9185 51.2342 61.511 50.8108 61.8749C50.5626 62.0895 50.2462 62.2015 49.9298 62.2015H49.9201V62.1968Z" fill="#4DBCC0"/>
<path d="M46.7609 54.0979L49.9507 60.9737C49.9507 60.9737 45.5243 58.5009 42.9626 57.0757C44.371 56.2451 45.6469 55.2399 46.7609 54.0979ZM46.7609 51.54C46.0297 51.54 45.328 51.8279 44.8176 52.3518C43.8558 53.3381 42.7614 54.197 41.5739 54.8954C40.774 55.3673 40.2931 56.2073 40.3029 57.1087C40.3127 58.0101 40.8181 58.8406 41.6279 59.2937L48.6159 63.1917C49.033 63.423 49.4943 63.5362 49.9507 63.5362C50.5935 63.5362 51.2315 63.3144 51.732 62.8803C52.5908 62.1394 52.8558 60.9501 52.3847 59.9355L49.1949 53.0596C48.8318 52.2762 48.0859 51.7194 47.2075 51.5778C47.0603 51.5542 46.913 51.54 46.7658 51.54H46.7609Z" fill="#06343D"/>
<path d="M49.3127 51.979C48.8675 51.979 48.4594 51.7365 48.2321 51.3339C48.0003 50.9265 47.9956 50.422 48.2182 50.0146C48.8582 48.8359 49.3637 47.5748 49.7255 46.27C49.8414 45.8529 50.1428 45.5231 50.537 45.3872C50.6669 45.3436 50.8014 45.3193 50.9359 45.3193C51.2049 45.3193 51.4692 45.4115 51.6918 45.5861L56.6726 49.5102C57.1039 49.8497 57.2801 50.4318 57.1132 50.9702C56.9462 51.5037 56.4732 51.8675 55.9352 51.8772C55.9352 51.8772 49.322 51.9839 49.3173 51.9839H49.3127V51.979Z" fill="#4DBCC0"/>
<path d="M50.9054 46.9411L55.9859 50.695L49.2545 50.7971C49.9546 49.586 50.5081 48.296 50.9054 46.9457M50.9054 44.4307C50.631 44.4307 50.3567 44.4724 50.0918 44.5606C49.2923 44.8251 48.6726 45.4561 48.4408 46.2496C48.1002 47.4051 47.6225 48.5187 47.0217 49.5581C46.5676 50.3423 46.577 51.3075 47.0454 52.0824C47.5089 52.8481 48.3462 53.3167 49.2497 53.3167H49.2876L56.019 53.2146C57.1165 53.1961 58.0815 52.5 58.4174 51.4792C58.758 50.4583 58.3985 49.3354 57.5233 48.6904L52.4428 44.9365C51.9934 44.6024 51.4494 44.4307 50.9007 44.4307H50.9054Z" fill="#06343D"/>
<path d="M51.6278 42.6529C51.4234 42.6529 51.2143 42.6049 51.0241 42.5043C50.6154 42.2839 50.3492 41.8622 50.3397 41.3925C50.3064 40.2712 50.1638 39.1354 49.9119 38.0236C49.8168 37.6115 49.9309 37.185 50.2066 36.8687C50.4538 36.5908 50.8055 36.4326 51.1667 36.4326C51.2143 36.4326 51.2618 36.4326 51.3093 36.4422L56.4856 37.0221C57.0275 37.0844 57.4743 37.4821 57.5979 38.0188C57.7214 38.5556 57.498 39.1114 57.037 39.4086L52.3218 42.4468C52.1126 42.581 51.8702 42.6529 51.6278 42.6529Z" fill="#4DBCC0"/>
<path d="M51.1299 37.5908L56.3845 38.146L51.5979 41.0547C51.5641 39.9077 51.4097 38.747 51.1299 37.5863M51.1299 35.0996C50.3868 35.0996 49.6775 35.3978 49.1756 35.93C48.6111 36.531 48.3891 37.3569 48.5773 38.1414C48.8138 39.1324 48.9489 40.1371 48.9826 41.1281C49.0116 42.0228 49.5424 42.8348 50.3771 43.2523C50.7583 43.445 51.1781 43.5414 51.5979 43.5414C52.0901 43.5414 52.5774 43.4083 53.0069 43.1514L57.7935 40.2427C58.7296 39.6738 59.1831 38.6094 58.9322 37.5817C58.6813 36.554 57.7742 35.7924 56.674 35.6731L51.4194 35.118C51.3229 35.1088 51.2264 35.1042 51.1299 35.1042V35.0996Z" fill="#06343D"/>
<path d="M17.0956 49.7623C17.0472 49.7623 16.9988 49.7623 16.9504 49.7531L11.3699 49.1677C10.8182 49.1083 10.3632 48.7287 10.2374 48.2165C10.1116 47.7043 10.339 47.1738 10.8085 46.8903L15.2903 44.183C15.5033 44.0549 15.7501 43.9863 15.9969 43.9863C16.1808 43.9863 16.3648 44.0229 16.5342 44.0961C16.9359 44.2699 17.2214 44.622 17.294 45.0336L17.3037 45.0885C17.3134 45.1388 17.3182 45.1891 17.3327 45.2394C17.5651 46.1769 17.8942 47.119 18.3056 48.029C18.4895 48.436 18.4314 48.9025 18.1555 49.2546C17.9087 49.5702 17.5118 49.7577 17.1004 49.7577H17.0956V49.7623Z" fill="#4DBCC0"/>
<path d="M15.7168 45.1872C15.7309 45.2901 15.7449 45.3883 15.7684 45.4912C16.0168 46.5622 16.3636 47.5818 16.7807 48.5593L11.3769 47.9606L15.7168 45.1919M15.7168 42.657C15.2388 42.657 14.7607 42.7926 14.3483 43.0545L10.0084 45.8233C9.09915 46.4032 8.6586 47.4882 8.90231 48.5359C9.14602 49.5835 10.0271 50.3598 11.0957 50.4814L16.4995 51.0801C16.5932 51.0895 16.687 51.0941 16.7807 51.0941C17.5774 51.0941 18.3414 50.72 18.8241 50.0699C19.3631 49.345 19.4756 48.3909 19.1194 47.5584C18.7491 46.6932 18.4538 45.7999 18.2476 44.916C18.2476 44.9113 18.2476 44.8832 18.2383 44.8552L18.2289 44.799C18.0977 43.9525 17.5446 43.2276 16.7619 42.8768C16.4292 42.7272 16.073 42.6523 15.7168 42.6523V42.657Z" fill="#06343D"/>
<path d="M16.9752 60.4252C16.63 60.4252 16.2944 60.2895 16.0451 60.0278C15.6567 59.6256 15.5656 59.0198 15.8149 58.5158L18.7156 52.7055C18.9122 52.313 19.2862 52.0464 19.7129 51.9931C19.7656 51.9931 19.8232 51.9834 19.8759 51.9834C20.2499 51.9834 20.6047 52.1433 20.854 52.4341C21.7218 53.4421 22.7143 54.3483 23.7978 55.1333C24.1718 55.4047 24.378 55.8554 24.3348 56.3206C24.2917 56.7858 24.0136 57.1929 23.5965 57.3916L17.5314 60.2992C17.354 60.3864 17.1622 60.4252 16.9752 60.4252Z" fill="#4DBCC0"/>
<path d="M19.8705 53.6252C20.8266 54.6803 21.9088 55.614 23.0784 56.4217L16.9392 59.2229C16.9392 59.2229 18.565 56.1182 19.8753 53.6252M19.8753 51.0947C19.7637 51.0947 19.657 51.0947 19.5453 51.1134C18.6766 51.2208 17.9195 51.7343 17.5264 52.486L14.5903 58.0838C14.0856 59.0502 14.27 60.2173 15.0562 60.9923C15.5609 61.4919 16.2452 61.758 16.9392 61.758C17.3226 61.758 17.706 61.6787 18.0651 61.5153L24.2043 58.714C25.0488 58.3312 25.6166 57.5468 25.6991 56.6505C25.7816 55.7587 25.3691 54.8857 24.6071 54.3675C23.5928 53.6672 22.6659 52.8595 21.8506 51.9631C21.3458 51.4075 20.6227 51.0947 19.8705 51.0947H19.8753Z" fill="#06343D"/>
<path d="M27.3241 67.0891C27.2078 67.0891 27.0866 67.0748 26.9703 67.0414C26.4226 66.8887 26.0349 66.4069 26.0107 65.8439L25.7102 58.2155C25.6908 57.7766 25.9041 57.3615 26.2675 57.1087C26.4905 56.9512 26.757 56.8701 27.0236 56.8701C27.1884 56.8701 27.3531 56.8987 27.5131 56.9608C28.904 57.5094 30.358 57.872 31.841 58.039C32.2965 58.0914 32.6891 58.3729 32.883 58.7784C33.0768 59.1887 33.038 59.6658 32.786 60.0379L28.4242 66.5023C28.177 66.8697 27.7603 67.0796 27.3289 67.0796V67.0891H27.3241Z" fill="#4DBCC0"/>
<path d="M27.0019 58.4993C28.5006 59.0694 30.0875 59.4541 31.7136 59.6302L27.3006 65.9107L26.997 58.4993M26.997 55.9871C26.4582 55.9871 25.9194 56.1446 25.4639 56.4459C24.7293 56.9372 24.3031 57.7484 24.3423 58.5966L24.646 66.008C24.6901 67.0973 25.4737 68.0382 26.5806 68.3302C26.8206 68.3951 27.0606 68.4229 27.3006 68.4229C28.1724 68.4229 29.01 68.015 29.5144 67.3012L33.9274 61.0207C34.4417 60.293 34.5151 59.366 34.1233 58.5688C33.7364 57.7762 32.938 57.2292 32.0172 57.1319C30.6361 56.9836 29.2842 56.6545 27.9863 56.1632C27.668 56.0427 27.33 55.9824 26.997 55.9824V55.9871Z" fill="#06343D"/>
<path d="M33.7903 58.4892C42.7063 58.4892 49.9362 51.4454 49.9362 42.7588C49.9362 34.0722 42.7063 27.0283 33.7903 27.0283C24.8744 27.0283 17.6445 34.0722 17.6445 42.7588C17.6445 51.4454 24.8744 58.4892 33.7903 58.4892Z" fill="#4DBCC0"/>
<path d="M33.7934 59.7613C24.1712 59.7613 16.3457 52.1371 16.3457 42.7625C16.3457 33.3879 24.1712 25.7637 33.7934 25.7637C43.4155 25.7637 51.241 33.3879 51.241 42.7625C51.241 52.1371 43.4155 59.7613 33.7934 59.7613ZM33.7934 28.3004C25.6076 28.3004 18.9494 34.7873 18.9494 42.7625C18.9494 50.7377 25.6076 57.2245 33.7934 57.2245C41.9792 57.2245 48.6373 50.7377 48.6373 42.7625C48.6373 34.7873 41.9792 28.3004 33.7934 28.3004Z" fill="#06343D"/>
<path d="M61.2815 44.4307L38.3151 46.18C38.3151 46.18 29.8077 82.9345 29.8125 82.639C29.8173 82.3435 68.5756 82.639 68.5756 82.639L61.2815 44.4401V44.4307Z" fill="#4DBCC0"/>
<path d="M58.4811 47.929L64.4766 79.1471C58.6483 79.1096 47.8277 79.0439 39.864 79.0439C37.4705 79.0439 35.6026 79.0439 34.1312 79.0439C35.1392 74.7671 37.1409 66.2697 41.1061 49.2374L58.4859 47.915M61.2854 44.4307L38.3161 46.1798C38.3161 46.1798 30.0084 82.078 29.8125 82.6408C29.951 82.5423 34.2124 82.6408 39.8592 82.6408H68.5756L61.2806 44.4401V44.4307H61.2854Z" fill="#06343D"/>
<path d="M44.973 64.8682L40.7578 82.6403C40.7578 82.6403 67.9464 81.9145 68.1154 81.4291C68.2844 80.9484 63.7505 66.1406 63.7505 66.1406L44.9778 64.8682H44.973Z" fill="#4DBCC0"/>
<path d="M47.6222 68.3277L61.1162 69.2524C62.5293 72.9325 63.9328 76.6596 64.8909 79.3023C64.0909 79.3023 63.1185 79.3164 61.9641 79.3164C56.5942 79.3164 49.4904 79.2319 45.0307 79.1709L47.6222 68.3324V68.3277ZM44.9397 64.8682L40.7578 82.5694H61.9641C66.2178 82.5694 69.4272 82.729 69.4847 82.5694C69.6523 82.0906 63.5688 66.1355 63.5688 66.1355L44.9445 64.8682H44.9397Z" fill="#06343D"/>
<path d="M12.1973 60.4248L25.2529 64.5322L24.7026 82.64H0.626953L12.1924 60.4248H12.1973Z" fill="#4DBCC0"/>
<path d="M13.9699 64.4016L21.698 66.8306L21.3182 79.1807H6.20273L13.9699 64.397V64.4016ZM12.1876 60.4248L0.626953 82.64H24.7026L25.2529 64.5322L12.1973 60.4248H12.1876Z" fill="#06343D"/>
<path d="M43.0096 82.6357H33.0059L41.5251 67.6636L44.8628 65.3125L43.0096 82.6403V82.6357Z" fill="#06343D"/>
<path d="M38.0209 46.207L32.1512 47.1303L22.5156 64.6203L22.7222 82.6399H30.7053L38.0209 46.207Z" fill="#06343D"/>
<path d="M11.5723 80.8642C11.938 80.1469 14.6743 72.8159 14.6743 72.8159L17.591 72.2803L19.7809 66.2021" fill="#4DBCC0"/>
<path d="M12.0707 81.3027L10.6602 80.6281C10.9284 80.1197 12.7263 75.4873 13.8687 72.494L14.0226 72.0902L17.0672 71.5438L19.2029 65.7568L20.693 66.2605L18.2493 72.8741L15.1948 73.4205C14.5541 75.0929 12.4233 80.6328 12.0707 81.3075V81.3027Z" fill="#06343D"/>
<path d="M58.726 67.452L57.2656 67.8887L61.4541 81.1864L62.9145 80.7498L58.726 67.452Z" fill="#06343D"/>
<path d="M39.8457 79.0856C40.0451 78.2703 43.2259 62.011 43.2259 62.011L46.4067 58.5553L47.5983 47.9844" fill="#4DBCC0"/>
<path d="M40.4251 79.0856L38.9336 78.7238C39.0929 78.0989 41.2988 67.4045 42.4428 61.8317L42.4863 61.6202L45.7734 58.2183L46.985 47.9844L48.5104 48.1535L47.2409 58.8762L43.9054 62.3251C43.4999 64.3033 40.6182 78.301 40.4203 79.0763L40.4251 79.0856Z" fill="#06343D"/>
<path d="M52.8267 47.5197L51.3105 47.7021L53.7781 67.1693L55.2942 66.9869L52.8267 47.5197Z" fill="#06343D"/>
</svg>
