<svg width="72" height="63" viewBox="0 0 72 63" fill="none" xmlns="http://www.w3.org/2000/svg">
<path d="M33.5227 13.0626C33.1007 13.0626 32.693 12.876 32.4197 12.5458C32.0984 12.163 32.0025 11.6462 32.1607 11.1724L35.0621 2.49174C35.2587 1.90314 35.8054 1.51074 36.4288 1.51074C37.0522 1.51074 37.5989 1.90792 37.7955 2.49174L40.6776 11.115C40.8311 11.5792 40.74 12.096 40.4283 12.474C40.1549 12.809 39.7425 13.0004 39.3157 13.0004C39.2582 13.0004 39.2006 13.0004 39.1431 12.9909C38.2895 12.8904 37.455 12.8377 36.659 12.8377C35.6903 12.8377 34.712 12.9095 33.7385 13.0435C33.6713 13.0531 33.6042 13.0579 33.5371 13.0579H33.5227V13.0626Z" fill="#4DBCC0"/>
<path d="M36.1954 3.00807L39.1573 11.5085C38.2604 11.4047 37.3536 11.3481 36.427 11.3481C35.3379 11.3481 34.2635 11.4236 33.2187 11.5651L36.2003 3.00807M36.2003 0.177734C34.9288 0.177734 33.7953 0.95608 33.3961 2.1118L30.4144 10.6688C30.0892 11.5981 30.2912 12.6218 30.9467 13.3765C31.5135 14.0275 32.3463 14.3955 33.2187 14.3955C33.3567 14.3955 33.4947 14.386 33.6326 14.3672C34.5592 14.2398 35.5005 14.1785 36.427 14.1785C37.1958 14.1785 37.9745 14.2256 38.8074 14.32C38.9257 14.3341 39.044 14.3388 39.1623 14.3388C40.0444 14.3388 40.8872 13.9615 41.4539 13.2963C42.0946 12.5463 42.2868 11.5321 41.9665 10.6122L39.0045 2.1118C38.6004 0.95608 37.4718 0.177734 36.2003 0.177734Z" fill="#06343D"/>
<path d="M48.1143 16.1673C47.8468 16.1673 47.5841 16.091 47.3501 15.948C45.8933 15.0327 44.317 14.3081 42.6691 13.7932C42.1772 13.6407 41.8046 13.2307 41.6947 12.7301C41.5849 12.2248 41.7568 11.7004 42.1437 11.3619L48.8547 5.42199C49.1222 5.18363 49.4613 5.06445 49.8052 5.06445C50.0536 5.06445 50.2972 5.12642 50.5217 5.25514C51.0566 5.56501 51.3337 6.1752 51.2095 6.78064L49.5186 15.0279C49.4231 15.4856 49.1078 15.8717 48.678 16.0576C48.4965 16.1339 48.3054 16.172 48.1143 16.172V16.1673Z" fill="#4DBCC0"/>
<path d="M49.7665 6.55195L48.094 14.6816C46.568 13.7277 44.9002 12.957 43.1285 12.4072C45.5617 10.2643 49.7665 6.55195 49.7665 6.55195ZM49.7665 3.73242H49.6956C48.9964 3.75122 48.3633 4.01907 47.8767 4.4514L41.2482 10.2972C40.4828 10.9739 40.1426 12.0031 40.3552 12.9993C40.5678 13.9955 41.3049 14.7944 42.2828 15.0998C43.7994 15.5698 45.2451 16.2323 46.5822 17.0735C47.0405 17.3602 47.5649 17.5058 48.094 17.5058C48.472 17.5058 48.8499 17.4306 49.209 17.2803C50.0641 16.9184 50.6878 16.1572 50.872 15.2549L52.5256 7.22394C52.5776 7.01247 52.6059 6.79161 52.6059 6.56135C52.6059 5.02 51.3587 3.76531 49.8137 3.74182H49.7712V3.73242H49.7665Z" fill="#06343D"/>
<path d="M54.8399 22.8317C54.7957 22.8317 54.7466 22.8317 54.7024 22.8271C54.2362 22.7857 53.8141 22.5374 53.5736 22.1603C52.7883 20.9186 51.8361 19.7597 50.7465 18.7157C50.3686 18.3524 50.2311 17.8281 50.3931 17.3453C50.5502 16.8624 50.9772 16.4991 51.5073 16.3979L59.5026 14.8665C59.6008 14.8481 59.6989 14.8389 59.7971 14.8389C60.3174 14.8389 60.8033 15.0964 61.0732 15.5287C61.3922 16.0438 61.3186 16.6876 60.9014 17.1337L55.9442 22.3718C55.6644 22.6708 55.262 22.8363 54.8448 22.8363L54.8399 22.8317Z" fill="#4DBCC0"/>
<path d="M59.7311 15.913L54.8505 21.3243C54.0145 19.937 53.0046 18.6543 51.8545 17.4998L59.7262 15.9178M59.7262 13.0673C59.6586 13.0673 59.5909 13.0673 59.5233 13.0673C59.3735 13.0768 59.2285 13.1005 59.0884 13.129L51.2747 14.7015C50.2357 14.9106 49.3949 15.6612 49.0857 16.6589C48.7764 17.6566 49.0422 18.7398 49.7864 19.4857C50.777 20.4834 51.6419 21.5904 52.3619 22.7733C52.8355 23.5572 53.657 24.0703 54.5799 24.1558C54.6717 24.1653 54.7635 24.1701 54.8554 24.1701C55.6817 24.1701 56.4693 23.8233 57.025 23.2104L61.8718 17.8371C62.3453 17.3288 62.6401 16.6494 62.6401 15.9083C62.6401 14.3832 61.4272 13.1385 59.8954 13.0625H59.7262V13.0673Z" fill="#06343D"/>
<path d="M57.6742 32.1675C57.3767 32.1675 57.084 32.0793 56.8345 31.9076C56.4602 31.6477 56.2347 31.23 56.2347 30.7845C56.2299 29.5639 56.0956 28.3525 55.8316 27.183C55.7213 26.6957 55.894 26.1852 56.2779 25.8557C56.5466 25.6236 56.8873 25.5029 57.2375 25.5029C57.3911 25.5029 57.5446 25.5261 57.6934 25.5725L63.9359 27.5821C64.5261 27.7724 64.9195 28.3015 64.9195 28.9048C64.9195 29.5081 64.5213 30.0372 63.9359 30.2275L58.13 32.0979C57.9813 32.1443 57.8277 32.1675 57.6742 32.1675Z" fill="#4DBCC0"/>
<path d="M57.2703 26.6095L63.4389 28.6921L57.7017 30.6259C57.6923 29.2487 57.55 27.9099 57.275 26.6095M57.275 23.7304C56.5828 23.7304 55.9047 23.9847 55.3784 24.4646C54.6198 25.1555 54.2784 26.2017 54.4965 27.2142C54.7336 28.3274 54.8569 29.4791 54.8616 30.6403C54.8663 31.5617 55.3073 32.4254 56.047 32.9628C56.5353 33.3179 57.1185 33.5003 57.7065 33.5003C58.0099 33.5003 58.3134 33.4523 58.6074 33.3515L64.3446 31.4177C65.5062 31.0242 66.2886 29.9253 66.2886 28.6873C66.2886 27.4493 65.5062 26.3456 64.3446 25.9569L58.1759 23.8743C57.8819 23.7736 57.5785 23.7256 57.275 23.7256V23.7304Z" fill="#06343D"/>
<path d="M15.2537 32.6062C15.0986 32.6062 14.9435 32.5829 14.7933 32.5364L8.90957 30.6529C8.31829 30.4622 7.91602 29.932 7.91602 29.3274C7.91602 28.7228 8.31829 28.1926 8.90957 28.0019L15.1228 26.0161C15.2731 25.9696 15.4282 25.9463 15.5833 25.9463C15.9322 25.9463 16.2715 26.0672 16.538 26.2904C16.9257 26.616 17.1051 27.1136 17.013 27.602C16.7997 28.6995 16.6883 29.7971 16.6883 30.8761C16.6883 30.9319 16.6931 30.9877 16.698 31.0435V31.104C16.7416 31.5691 16.5332 32.0248 16.1503 32.3132C15.8886 32.5085 15.5736 32.6108 15.2537 32.6108V32.6062Z" fill="#4DBCC0"/>
<path d="M15.5375 27.0561C15.313 28.2443 15.1936 29.4613 15.1936 30.712C15.1936 30.8275 15.2031 30.9429 15.2127 31.0584L9.41318 29.1102L15.5375 27.0561ZM15.5375 24.1699H15.399C15.1076 24.1844 14.8305 24.2421 14.5677 24.3383L8.50552 26.3731C7.33511 26.7675 6.54688 27.8691 6.54688 29.1102C6.54688 30.3513 7.33511 31.4576 8.50552 31.8473L14.305 33.7955C14.6012 33.8965 14.9069 33.9446 15.2127 33.9446C15.8433 33.9446 16.4691 33.7329 16.9802 33.3289C17.7398 32.7324 18.1458 31.7944 18.0694 30.8275V30.765C18.0599 30.7409 18.0599 30.712 18.0599 30.688C18.0599 29.7018 18.1554 28.6869 18.3369 27.6815C18.3799 27.4795 18.4038 27.2726 18.4038 27.0561C18.4038 25.4783 17.1426 24.194 15.5805 24.1699H15.5375Z" fill="#06343D"/>
<path d="M17.7896 23.2758C17.3852 23.2758 16.9951 23.101 16.724 22.7855L11.9241 17.2612C11.515 16.7903 11.4484 16.1107 11.7576 15.567C12.0145 15.1107 12.4902 14.8389 12.9945 14.8389C13.0896 14.8389 13.1848 14.8486 13.2799 14.868L20.9102 16.4602C21.4144 16.567 21.8283 16.9408 21.9853 17.4457C22.1423 17.9457 22.0233 18.4991 21.6713 18.8826C20.6485 20.0039 19.7637 21.2321 19.0407 22.5379C18.8123 22.9457 18.408 23.2224 17.9466 23.2709C17.8942 23.2709 17.8467 23.2806 17.7943 23.2806H17.7896V23.2758Z" fill="#4DBCC0"/>
<path d="M13.0169 16.3564L20.58 17.9147C19.5003 19.0834 18.5572 20.3709 17.7792 21.7629C15.6621 19.3542 13.0217 16.3564 13.0217 16.3564M13.0217 13.5059C12.0268 13.5059 11.0837 14.038 10.5745 14.9311C9.96625 15.9953 10.0983 17.3303 10.9093 18.2473L15.6669 23.6538C16.2091 24.2666 16.9777 24.6135 17.7839 24.6135C17.883 24.6135 17.982 24.6135 18.0857 24.5992C18.9957 24.5042 19.802 23.9673 20.25 23.1644C20.9101 21.9862 21.7211 20.8745 22.6594 19.8578C23.3572 19.1024 23.5977 18.0287 23.2865 17.0453C22.9753 16.0618 22.1596 15.3254 21.16 15.1212L13.5969 13.5629C13.4083 13.5249 13.215 13.5059 13.0311 13.5059H13.0217Z" fill="#06343D"/>
<path d="M24.2966 16.1639C24.1087 16.1639 23.9209 16.1274 23.7426 16.0589C23.2995 15.8855 22.9767 15.5157 22.8804 15.0684L21.1703 7.15308C21.045 6.57336 21.3244 5.98906 21.8639 5.69235C22.0903 5.5691 22.336 5.50977 22.5865 5.50977C22.9334 5.50977 23.2754 5.62845 23.5451 5.85669L30.2314 11.4759C30.6168 11.8 30.7902 12.293 30.689 12.7723C30.5879 13.2516 30.2218 13.6396 29.7352 13.7994C28.0877 14.3243 26.527 15.0501 25.0914 15.9448C24.8506 16.0955 24.576 16.1731 24.2966 16.1731V16.1639Z" fill="#4DBCC0"/>
<path d="M22.7333 6.54437L29.5813 12.3232C27.7608 12.91 26.0488 13.7081 24.4847 14.6892L22.7333 6.54907M22.7333 3.73242C22.2251 3.73242 21.7169 3.85447 21.2531 4.10797C20.148 4.71355 19.5756 5.92471 19.8322 7.11239L21.5837 15.2525C21.781 16.1679 22.4422 16.9331 23.35 17.2899C23.7151 17.4354 24.0999 17.5058 24.4847 17.5058C25.0571 17.5058 25.6244 17.3509 26.1129 17.0411C27.4746 16.1867 28.9597 15.4966 30.5286 14.9943C31.5302 14.6751 32.2752 13.8677 32.4824 12.8865C32.6896 11.9054 32.3344 10.8867 31.545 10.2201L24.6969 4.44127C24.1443 3.97183 23.4388 3.73242 22.7333 3.73242Z" fill="#06343D"/>
<path d="M36.4176 33.5014C31.575 33.5014 27.0565 33.4176 23.6962 33.264C18.0195 33.0033 16.5801 32.7613 16.5801 31.1553C16.5801 20.9329 25.4789 12.6191 36.4176 12.6191C47.3564 12.6191 56.2552 20.9329 56.2552 31.1553C56.2552 32.7613 54.8158 33.0033 49.1391 33.264C45.7788 33.4176 41.2603 33.5014 36.4176 33.5014Z" fill="#4DBCC0"/>
<path d="M36.6446 14.0631C46.8715 14.0631 55.1962 21.7119 55.1962 31.1108C55.1962 31.7404 45.9204 32.0553 36.6446 32.0553C27.3689 32.0553 18.0931 31.7404 18.0931 31.1108C18.0931 21.7119 26.4129 14.0631 36.6446 14.0631ZM36.6446 11.2852C24.8278 11.2852 15.2109 20.1794 15.2109 31.1108C15.2109 31.4858 15.3358 33.398 17.7761 34.0184C18.1796 34.1202 18.6743 34.2036 19.342 34.2823C20.3892 34.4027 21.8735 34.5091 23.7565 34.5925C27.1623 34.7453 31.7402 34.8333 36.6446 34.8333C41.5491 34.8333 46.127 34.7499 49.5327 34.5925C51.4109 34.5091 52.8952 34.4027 53.9472 34.2823C54.6101 34.2036 55.1097 34.1202 55.5132 34.0184C55.9407 33.9119 58.0783 33.2591 58.0783 31.1108C58.0783 20.1794 48.4615 11.2852 36.6446 11.2852Z" fill="#06343D"/>
<path d="M67.8709 32.4668H3.91211V35.7945H67.8709V32.4668Z" fill="#4DBCC0"/>
<path d="M71.2944 29.1299H0.480469V39.1363H71.2944V29.1299Z" fill="#06343D"/>
<path d="M63.086 42.8096H10.0176V45.3416H63.086V42.8096Z" fill="#4DBCC0"/>
<path d="M65.7296 40.2354H7.37695V47.9157H65.7296V40.2354Z" fill="#06343D"/>
<path d="M53.7947 51.168H19.3125V52.6984H53.7947V51.168Z" fill="#4DBCC0"/>
<path d="M55.6885 49.3213H17.416V54.5445H55.6885V49.3213Z" fill="#06343D"/>
<path d="M44.5742 58.6816H28.5293V60.3197H44.5742V58.6816Z" fill="#4DBCC0"/>
<path d="M46.4368 56.8633H26.6641V62.1333H46.4368V56.8633Z" fill="#06343D"/>
<path d="M67.6556 32.6113H3.81055V35.7215H67.6556V32.6113Z" fill="#4DBCC0"/>
<path d="M63.0955 42.8301H10.1953V45.4959H63.0955V42.8301Z" fill="#4DBCC0"/>
<path d="M53.9752 51.2725H19.3164V52.6054H53.9752V51.2725Z" fill="#4DBCC0"/>
<path d="M44.3988 58.8262H28.4375V60.1591H44.3988V58.8262Z" fill="#4DBCC0"/>
</svg>
