<svg width="70" height="69" viewBox="0 0 70 69" fill="none" xmlns="http://www.w3.org/2000/svg">
<path d="M21.1758 66.6599C22.0213 64.7317 24.2551 57.3789 24.2551 57.3789C24.2551 57.3789 39.5842 53.0216 39.272 45.814C38.9597 38.6063 32.2631 35.7467 32.2631 35.7467L31.6482 31.1787H42.6491L48.3609 40.9605L44.9742 58.9515L53.9862 66.6646H21.1758V66.6599Z" fill="#4DBCC0"/>
<path d="M53.9787 68.2151H21.1682C20.2891 68.2151 19.5781 67.5224 19.5781 66.666C19.5781 66.4553 19.6214 66.2447 19.7078 66.0528C20.3708 64.5411 22.1098 58.9622 22.7247 56.9403C22.8784 56.4349 23.2867 56.0417 23.8055 55.8919C27.4709 54.8482 37.8905 50.7623 37.6791 45.8808C37.4149 39.7637 31.852 37.2691 31.6166 37.1661C31.1122 36.9461 30.7568 36.4828 30.6847 35.9492L30.0698 31.3813C30.0121 30.9367 30.1515 30.492 30.4493 30.1597C30.7519 29.8228 31.1891 29.6309 31.6455 29.6309H42.6463C43.218 29.6309 43.7464 29.9304 44.0299 30.4125L49.7417 40.1943C49.9242 40.5125 49.9915 40.8823 49.9242 41.238L46.7008 58.3631L55.0355 65.4959C55.5351 65.9218 55.7081 66.6004 55.4727 67.2042C55.2373 67.8079 54.6464 68.2058 53.9835 68.2058L53.9787 68.2151ZM23.4356 65.1168H49.7609L43.9194 60.1182C43.5014 59.7579 43.3045 59.2103 43.4053 58.6767L46.6864 41.2427L41.7192 32.7339H33.4565L33.7303 34.7511C35.7192 35.8556 40.5759 39.202 40.8593 45.7544C41.1812 53.1446 29.1186 57.4926 25.5349 58.6205C25.1026 60.0199 24.1898 62.9498 23.4404 65.1215L23.4356 65.1168Z" fill="#06343D"/>
<path d="M34.6797 65.5404L35.0195 60.1951L40.6218 55.6565L41.9763 52.416L41.1316 56.6301L36.7187 60.6819L36.2089 66.1894" fill="#06343D"/>
<path d="M9.0828 30.59C9.0828 30.59 2.53032 27.5291 2.34777 26.9955C2.16523 26.462 3.6304 17.897 3.6304 17.897C3.6304 17.897 8.588 15.9454 9.76975 15.8518C10.9515 15.7581 14.7994 16.8252 14.7994 16.8252C14.7994 16.8252 15.347 12.1871 15.7169 12.0092C16.0868 11.8314 20.4776 10.4039 20.4776 10.4039L23.5905 11.1153L27.2511 5.22751H34.3896L38.6026 1.66113L44.8284 2.37253L45.9285 5.04966L53.437 2.91077L57.8325 7.01538C57.8325 7.01538 56.915 10.5818 57.4674 10.4039C58.0199 10.2261 63.5107 12.5428 63.5107 12.5428L64.6108 15.5756L64.7117 18.2247C64.7117 18.2247 67.3586 21.8191 67.3586 22.3527C67.3586 22.8862 66.8109 27.1687 66.8109 27.1687L62.2328 32.3404L59.855 36.9786L53.6291 38.406L47.4033 33.2343L42.095 35.5511L38.7996 35.3732L34.9565 32.8739L31.8436 36.2625L26.5353 36.0846L23.6818 33.3326L17.3791 38.2235L10.6056 36.4403L9.10202 30.5806L9.0828 30.59Z" fill="#4DBCC0"/>
<path d="M53.6295 40.0844C53.226 40.0844 52.8273 39.944 52.515 39.6866L47.1155 35.2029L42.7968 37.0891C42.547 37.1967 42.2732 37.2482 41.9993 37.2342L38.7039 37.0563C38.3964 37.0376 38.0986 36.944 37.844 36.7755L35.2403 35.0812L33.1218 37.3886C32.7807 37.7584 32.2955 37.9549 31.7815 37.9456L26.4732 37.7677C26.0409 37.7537 25.6325 37.5805 25.3251 37.2856L23.5573 35.5773L18.4507 39.5415C18.0232 39.8738 17.4611 39.9862 16.9327 39.8504L10.1593 38.0672C9.55878 37.9081 9.0928 37.4448 8.93908 36.8597L7.63723 31.7816C1.11838 28.7067 0.940624 28.1872 0.719646 27.5366C0.570725 27.1013 0.402594 26.6099 1.93983 17.6331C2.04071 17.0575 2.43463 16.5754 2.99188 16.3554C4.55314 15.7376 8.33378 14.2961 9.63563 14.1931C10.4907 14.1276 12.0184 14.4178 13.3442 14.7314C13.8726 11.0433 14.2858 10.8467 14.9631 10.5191C15.2754 10.3693 16.9519 9.79833 19.9399 8.82483C20.2426 8.72655 20.5645 8.71251 20.8767 8.78271L22.7742 9.21798L25.7863 4.36921C26.0985 3.86841 26.6558 3.5642 27.2562 3.5642H33.7511L37.4789 0.409686C37.844 0.100787 38.3244 -0.0443047 38.8047 0.0118587L45.0306 0.723264C45.6551 0.793468 46.1931 1.19597 46.4237 1.76229L46.9425 3.03064L52.957 1.31766C53.5478 1.14917 54.1819 1.30362 54.6287 1.71549L59.0242 5.82009C59.471 6.23664 59.6535 6.85443 59.4998 7.43479C59.3557 7.98706 59.226 8.58146 59.1395 9.06821C60.1628 9.38647 61.724 9.97618 64.198 11.0199C64.6352 11.2024 64.9763 11.5581 65.1348 11.9981L66.2349 15.0309C66.2925 15.19 66.3261 15.3585 66.3309 15.527L66.4126 17.6752C69.0787 21.3352 69.0787 21.9062 69.0787 22.3649C69.0787 22.9218 68.7281 25.7487 68.5167 27.3868C68.4735 27.7145 68.3342 28.0234 68.1132 28.2714L63.6744 33.284L61.3925 37.7349C61.1668 38.1796 60.744 38.5025 60.2492 38.6148L54.0234 40.0423C53.8937 40.0704 53.7592 40.0891 53.6295 40.0891V40.0844ZM47.4037 31.5663C47.8024 31.5663 48.2011 31.7021 48.5182 31.9642L54.0811 36.5883L58.6784 35.5352L60.696 31.5991C60.7585 31.4774 60.8401 31.3604 60.9314 31.2528L65.1684 26.4648C65.3654 24.8969 65.5575 23.2682 65.62 22.6036C65.2789 21.9811 64.2172 20.4366 63.3141 19.2057C63.1171 18.9389 63.0067 18.6207 62.9922 18.293L62.901 15.8967L62.1372 13.7953C60.2541 13.0184 58.1836 12.2368 57.5254 12.0823C57.0451 12.1104 56.5599 11.9419 56.1996 11.6143C55.5318 11.0105 55.3157 10.2336 55.9306 7.56116L52.9618 4.79043L46.4045 6.65786C45.559 6.90124 44.6559 6.47533 44.3292 5.675L43.6086 3.9199L39.1506 3.40975L35.5093 6.48937C35.197 6.75615 34.7983 6.90124 34.3852 6.90124H28.2122L25.0513 11.984C24.667 12.6018 23.9127 12.9107 23.1922 12.7469L20.5548 12.1432C19.2242 12.5784 17.8551 13.0324 17.0624 13.3039C16.8847 14.137 16.6541 15.7049 16.5004 17.02C16.4427 17.5068 16.1689 17.9467 15.751 18.2182C15.333 18.4896 14.8094 18.5692 14.3242 18.4381C12.4603 17.9233 10.3947 17.4927 9.89985 17.5208C9.37623 17.577 7.18567 18.3305 5.15843 19.1027C4.68285 21.9343 4.23128 24.8735 4.08716 26.198C5.15362 26.8205 7.52674 28.0046 9.61162 28.9828C9.67887 29.0015 9.74132 29.0249 9.80377 29.053C10.2794 29.2636 10.6348 29.6755 10.7598 30.1716L12.0184 35.0765L16.9808 36.3823L22.6061 32.0203C23.2882 31.4914 24.2634 31.5429 24.8831 32.1373L27.261 34.4307L31.0945 34.557L33.6694 31.7535C34.2411 31.1311 35.1922 31.0141 35.9032 31.4774L39.3572 33.7239L41.7687 33.855L46.6975 31.7021C46.9233 31.6038 47.1635 31.557 47.3989 31.557L47.4037 31.5663Z" fill="#06343D"/>
<path d="M35.5906 28.4188L31.3307 27.4526L30.5742 22.2031L34.3365 23.6662L35.5906 28.4234V28.4188ZM32.0314 26.8913L34.5447 27.4618L33.6765 24.1677L31.5186 23.3303L32.0314 26.8913Z" fill="#06343D"/>
<path d="M15.9836 27.9744L14.6133 24.2492L18.9618 20.8701L19.6297 24.4906L15.9836 27.979V27.9744ZM15.4889 24.4724L16.2953 26.672L18.8233 24.2583L18.4424 22.1771L15.4889 24.4724Z" fill="#06343D"/>
<path d="M55.0626 31.5336L53.832 27.775L56.9034 23.5361L58.8484 27.3094L55.0576 31.5336H55.0626ZM54.6656 27.9024L55.3702 30.0635L57.9404 27.1918L56.7893 24.9671L54.6607 27.9024H54.6656Z" fill="#06343D"/>
<path d="M42.8875 19.0932L39.3732 17.9497L38.7832 11.9844L41.9076 13.7378L42.8875 19.0932ZM40.0607 17.4494L41.9538 18.0688L41.2407 14.1618L39.6451 13.2661L40.0607 17.4494Z" fill="#06343D"/>
<path d="M48.9931 22.2037L48.3594 19.1412L51.8819 16.8721L52.0077 19.7823L48.9931 22.2037ZM48.9791 19.3995L49.3518 21.2075L51.4439 19.5333L51.374 17.8591L48.9837 19.3995H48.9791Z" fill="#06343D"/>
</svg>
