<svg width="61" height="69" viewBox="0 0 61 69" fill="none" xmlns="http://www.w3.org/2000/svg">
<path d="M1.95312 66.9405L29.4264 36.8604L31.4441 53.8638L24.171 66.6129L1.95312 66.9405Z" fill="#4DBCC0"/>
<path d="M1.95524 68.4575C1.34996 68.4575 0.797479 68.1111 0.542874 67.5729C0.288269 67.0253 0.384356 66.3841 0.792685 65.9348L28.2661 35.8546C28.6744 35.41 29.3133 35.2415 29.8946 35.4193C30.4807 35.5972 30.8986 36.098 30.9706 36.6877L32.9883 53.6912C33.0267 54.0047 32.9594 54.323 32.8009 54.5991L25.5278 67.3482C25.2588 67.8209 24.7496 68.1205 24.1924 68.1252L1.97448 68.4528C1.97448 68.4528 1.96004 68.4528 1.95043 68.4528L1.95524 68.4575ZM28.2852 40.3945L5.46684 65.3778L23.2508 65.1157L29.8465 53.5554L28.2852 40.3945Z" fill="#06343D"/>
<path d="M30.2201 29.655C28.1977 30.6378 32.6461 53.5244 32.6461 53.5244L25.373 66.6011H43.5557L47.1922 57.4465L50.8047 48.4978L39.5156 29.332L30.2249 29.6596L30.2201 29.655Z" fill="#4DBCC0"/>
<path d="M43.5594 68.121H25.3768C24.8291 68.121 24.3199 67.8401 24.0413 67.3815C23.7626 66.9228 23.7482 66.3565 24.0076 65.8838L31.0213 53.2798C30.7235 51.7212 29.8443 46.9661 29.1382 42.1781C27.3944 30.323 28.2014 28.9517 29.5272 28.3058C29.7674 28.1888 30.0317 28.1373 30.2863 28.1466L39.4569 27.8237C40.0381 27.7909 40.5762 28.0952 40.8596 28.5819L52.1487 47.7477C52.3841 48.1455 52.4177 48.6276 52.2496 49.0535L48.6371 58.0022L45.0054 67.1475C44.7748 67.7325 44.1983 68.1163 43.5546 68.1163L43.5594 68.121ZM27.9852 65.0928H42.493L45.7451 56.907L49.0887 48.6276L38.6402 30.8846L31.2711 31.142C30.9636 34.0204 32.4576 44.3966 34.1774 53.247C34.2447 53.5887 34.1871 53.9444 34.0189 54.2486L27.99 65.0881L27.9852 65.0928Z" fill="#06343D"/>
<path d="M42.7207 66.3798L50.1667 47.8271L58.6119 66.4313L42.7207 66.3798Z" fill="#4DBCC0"/>
<path d="M58.6082 68.1887H58.6034L42.7122 68.1372C42.1165 68.1372 41.5593 67.847 41.2278 67.3696C40.8916 66.8923 40.8243 66.2791 41.0405 65.7409L48.4865 47.1883C48.7507 46.5283 49.3992 46.0884 50.1294 46.0697C50.8403 46.0416 51.5225 46.4675 51.8203 47.118L60.2656 65.7222C60.5106 66.2651 60.4577 66.8969 60.1263 67.393C59.7948 67.8892 59.2231 68.1887 58.6178 68.1887H58.6082ZM45.3544 64.6317L55.8316 64.6644L50.2639 52.3974L45.3544 64.6317Z" fill="#06343D"/>
<path d="M37.6503 28.7915L31.977 19.8756L38.5199 13.4729L29.5703 9.01263L36.1083 1.49609H1.69336L14.0826 8.45567L13.7366 14.0299L24.752 19.5994L22.3404 22.6603L31.7704 28.8102L37.6503 28.7915Z" fill="#4DBCC0"/>
<path d="M31.7778 30.3048C31.4751 30.3048 31.1773 30.2159 30.9226 30.0521L21.4926 23.9022C21.1372 23.6729 20.9018 23.3078 20.8297 22.9006C20.7576 22.4934 20.8681 22.0722 21.1275 21.7446L22.4198 20.1018L13.033 15.356C12.495 15.0846 12.1683 14.5276 12.2068 13.9379L12.495 9.29037L0.92729 2.79413C0.326806 2.45715 0.0289707 1.76446 0.211518 1.10922C0.389261 0.453985 0.999337 0 1.6959 0H36.1109C36.7113 0 37.2542 0.336983 37.504 0.865855C37.7538 1.39473 37.6673 2.0172 37.283 2.4665L31.9987 8.54152L39.2238 12.1407C39.6609 12.3559 39.9635 12.7678 40.0404 13.2405C40.1173 13.7132 39.9588 14.1953 39.6129 14.5323L33.9299 20.0971L38.9643 28.0068C39.2574 28.4701 39.2718 29.0458 39.0028 29.5232C38.7338 29.9959 38.2197 30.2908 37.6625 30.2955L31.7826 30.3142H31.7778V30.3048ZM24.5671 22.3015L32.2437 27.3094L34.9051 27.3001L30.6825 20.6634C30.3078 20.0737 30.3991 19.3108 30.8987 18.8194L35.9523 13.8724L28.881 10.3481C28.4631 10.1422 28.1653 9.75838 28.074 9.30908C27.9827 8.85977 28.1028 8.39643 28.4102 8.04541L32.8058 2.99538H7.45093L14.8633 7.16083C15.3677 7.44633 15.6656 7.97988 15.6319 8.55087L15.3485 13.1516L25.4751 18.2718C25.8786 18.4777 26.1668 18.8428 26.2677 19.2781C26.3686 19.7087 26.2677 20.1627 25.9843 20.5137L24.5719 22.3062L24.5671 22.3015Z" fill="#06343D"/>
<path d="M16.3114 33.4665C17.5727 33.4665 18.5916 32.5731 18.5916 31.4671C18.5916 30.3612 17.5727 29.4678 16.3114 29.4678C15.0502 29.4678 14.0312 30.3612 14.0312 31.4671C14.0312 32.5731 15.0502 33.4665 16.3114 33.4665Z" fill="#06343D"/>
<path d="M17.4506 22.8035C18.0812 22.8035 18.5907 22.3072 18.5907 21.6928C18.5907 21.0784 18.0812 20.582 17.4506 20.582C16.82 20.582 16.3105 21.0784 16.3105 21.6928C16.3105 22.3072 16.82 22.8035 17.4506 22.8035Z" fill="#06343D"/>
<path d="M42.5327 25.4685C43.665 25.4685 44.5848 24.5723 44.5848 23.4691C44.5848 22.3658 43.665 21.4697 42.5327 21.4697C41.4003 21.4697 40.4805 22.3658 40.4805 23.4691C40.4805 24.5723 41.4003 25.4685 42.5327 25.4685Z" fill="#06343D"/>
<path d="M8.10245 12.5838C8.85916 12.5838 9.47059 11.9881 9.47059 11.2509C9.47059 10.5136 8.85916 9.91797 8.10245 9.91797C7.34575 9.91797 6.73438 10.5136 6.73438 11.2509C6.73438 11.9881 7.34575 12.5838 8.10245 12.5838Z" fill="#06343D"/>
<path d="M37.9721 8.58672C38.6027 8.58672 39.1122 7.99105 39.1122 7.2538C39.1122 6.51655 38.6027 5.9209 37.9721 5.9209C37.3415 5.9209 36.832 6.51655 36.832 7.2538C36.832 7.99105 37.3415 8.58672 37.9721 8.58672Z" fill="#06343D"/>
</svg>
