<svg width="73" height="70" viewBox="0 0 73 70" fill="none" xmlns="http://www.w3.org/2000/svg">
<path d="M31.6018 20.6559C29.9458 17.1295 27.3332 11.5953 25.9484 8.66512C25.3631 7.43064 24.0544 6.48964 22.4317 6.1356L11.063 3.66198C8.40762 3.07968 5.63325 4.21633 4.71481 6.2474L3.49657 8.93531C2.80655 10.454 3.31573 12.1496 4.80523 13.2723C8.23629 15.8577 14.0991 20.2506 14.2514 20.3018C14.4036 20.3531 20.1189 23.4835 23.6594 25.4261C25.3393 26.3531 27.5569 26.4137 29.3271 25.6031C31.5161 24.5922 32.4774 22.5146 31.6018 20.6466V20.6559Z" fill="#4DBCC0"/>
<path d="M9.50291 3.2064C9.97327 3.2064 10.4533 3.25795 10.9334 3.35636L22.5178 5.84469C24.1713 6.20084 25.5048 7.14275 26.1012 8.38926C27.5123 11.3321 30.1744 16.8993 31.8619 20.4514C32.7541 22.3305 31.7747 24.4205 29.5441 25.4374C28.7052 25.817 27.7645 26.0091 26.8334 26.0091C25.757 26.0091 24.6853 25.7561 23.7688 25.2593C20.1611 23.3052 14.3374 20.1561 14.1822 20.1046C14.0174 20.053 8.05304 15.6293 4.55686 13.0332C3.03911 11.9085 2.52026 10.2028 3.22337 8.67043L4.46473 5.96654C5.24058 4.27953 7.29174 3.21578 9.50291 3.21578M9.50291 0.399414C6.05523 0.399414 3.03426 2.13796 1.79775 4.83249L0.556388 7.53639C-0.68982 10.2497 0.20242 13.3659 2.78212 15.2732C11.0449 21.412 12.3784 22.3961 12.9603 22.6679C13.2512 22.8132 14.7399 23.6004 22.3432 27.7242C23.6816 28.4459 25.2381 28.8349 26.8383 28.8349C28.2154 28.8349 29.5829 28.5443 30.7903 27.996C34.4804 26.3231 36.0806 22.5742 34.5192 19.2798C32.8269 15.7137 30.1793 10.1841 28.7488 7.21305C27.779 5.18395 25.6842 3.6469 23.153 3.1033L11.5686 0.614972C10.8946 0.469702 10.1963 0.399414 9.50291 0.399414Z" fill="#06343D"/>
<path d="M10.8652 20.3933L9.57617 20.327L9.99307 12.0202L16.7689 3.50977L17.7848 4.30541L11.2677 12.4985L10.8652 20.3933Z" fill="#06343D"/>
<path d="M15.1467 6.17578L14.1367 6.98371L30.9122 26.1694L31.9221 25.3615L15.1467 6.17578Z" fill="#06343D"/>
<path d="M25.2733 17.7266L12.3125 20.433L12.5767 21.7253L25.5375 19.0188L25.2733 17.7266Z" fill="#06343D"/>
<path d="M10.3365 12.8306C7.94122 9.76963 3.99837 4.78359 3.64844 4.43186L4.57991 3.50977C5.03334 3.93279 10.3414 10.7012 11.4011 12.0606L10.3316 12.8401V12.8306H10.3365Z" fill="#06343D"/>
<path d="M41.3648 20.6559C43.0208 17.1295 45.6334 11.5953 47.0182 8.66512C47.6035 7.43064 48.9122 6.48964 50.5349 6.1356L61.9036 3.66198C64.559 3.07968 67.3334 4.21633 68.2518 6.2474L69.47 8.93531C70.1601 10.454 69.6509 12.1496 68.1614 13.2723C64.7303 15.8577 58.8675 20.2506 58.7152 20.3018C58.5629 20.3531 52.8477 23.4835 49.3072 25.4261C47.6273 26.3531 45.4097 26.4137 43.6395 25.6031C41.4504 24.5922 40.4892 22.5146 41.3648 20.6466V20.6559Z" fill="#4DBCC0"/>
<path d="M63.4621 3.22936C65.6732 3.22936 67.7291 4.30231 68.5 5.97967L69.7413 8.68313C70.4444 10.2106 69.9256 11.916 68.4079 13.0452C64.9119 15.6456 58.9382 20.0639 58.783 20.1154C58.6279 20.1669 52.8045 23.3155 49.1969 25.2693C48.2805 25.7659 47.2089 26.0189 46.1325 26.0189C45.2015 26.0189 44.2608 25.8269 43.422 25.4473C41.1915 24.4306 40.2121 22.3409 41.1043 20.4621C42.7917 16.92 45.4537 11.3491 46.8647 8.402C47.4611 7.16038 48.7945 6.21394 50.4479 5.85786L62.0317 3.36993C62.5118 3.26685 62.9918 3.22 63.4621 3.22M63.4621 0.40409C62.7687 0.40409 62.0705 0.479066 61.3965 0.619627L49.8127 3.10755C47.2816 3.65105 45.187 5.18785 44.2172 7.21661C42.7917 10.1918 40.1442 15.7205 38.4471 19.2814C36.8858 22.5705 38.4859 26.3188 42.1758 27.9962C43.3832 28.5397 44.7506 28.8349 46.1276 28.8349C47.7277 28.8349 49.2842 28.4553 50.6225 27.7244C58.2012 23.6154 59.7091 22.8235 60.0049 22.6689C60.5868 22.3972 61.9057 21.4179 70.1874 15.2707C72.7621 13.3638 73.6543 10.248 72.413 7.53521L71.1717 4.83176C69.9401 2.13768 66.9145 0.399414 63.467 0.399414L63.4621 0.40409Z" fill="#06343D"/>
<path d="M62.0912 20.3933L61.694 12.4985L55.1797 4.30541L56.204 3.50977L62.9719 12.0202L63.3883 20.327L62.0912 20.3933Z" fill="#06343D"/>
<path d="M57.8187 6.17578L41.043 25.3615L42.0526 26.1694L58.8284 6.9837L57.8187 6.17578Z" fill="#06343D"/>
<path d="M47.6919 17.7266L47.4277 19.0188L60.3886 21.7253L60.6528 20.433L47.6919 17.7266Z" fill="#06343D"/>
<path d="M62.6339 12.8401L61.5645 12.0606C62.6241 10.7107 67.9321 3.93755 68.3856 3.50977L69.3171 4.43187C68.9573 4.7836 65.0194 9.77914 62.629 12.8306V12.8401H62.6339Z" fill="#06343D"/>
<path d="M34.7729 44.0191L31.5476 47.1614C30.2237 48.4513 30.2237 50.537 31.5476 51.8269L34.7729 54.9692C36.0968 56.259 38.2376 56.259 39.5615 54.9692L42.7868 51.8269C44.1107 50.537 44.1107 48.4513 42.7868 47.1614L39.5615 44.0191C38.2376 42.7293 36.0968 42.7293 34.7729 44.0191Z" fill="#4DBCC0"/>
<path d="M37.1681 42.8048C38.0665 42.8048 38.9698 43.1377 39.6583 43.8081L43.008 47.0699C44.3849 48.4108 44.3849 50.5838 43.008 51.9199L39.6583 55.1817C38.9698 55.8522 38.0665 56.185 37.1681 56.185C36.2696 56.185 35.3663 55.8522 34.6778 55.1817L31.3282 51.9199C29.9512 50.579 29.9512 48.4061 31.3282 47.0699L34.6778 43.8081C35.3663 43.1377 36.2696 42.8048 37.1681 42.8048ZM37.1681 39.9424C35.4444 39.9424 33.8184 40.5986 32.6026 41.7825L29.2529 45.0444C26.7334 47.4979 26.7334 51.4919 29.2529 53.9455L32.6026 57.2073C33.8233 58.396 35.4444 59.0474 37.1681 59.0474C38.8917 59.0474 40.5177 58.3912 41.7335 57.2073L45.0832 53.9455C47.6027 51.4919 47.6027 47.4979 45.0832 45.0444L41.7335 41.7825C40.5128 40.5938 38.8917 39.9424 37.1681 39.9424Z" fill="#06343D"/>
<path d="M34.7729 11.5856L31.5476 14.7279C30.2237 16.0177 30.2237 18.1034 31.5476 19.3933L34.7729 22.5356C36.0968 23.8254 38.2376 23.8254 39.5615 22.5356L42.7868 19.3933C44.1107 18.1034 44.1107 16.0177 42.7868 14.7279L39.5615 11.5856C38.2376 10.2957 36.0968 10.2957 34.7729 11.5856Z" fill="#4DBCC0"/>
<path d="M37.1681 10.3702C38.0665 10.3702 38.9698 10.7031 39.6583 11.3735L43.008 14.6354C44.3849 15.9762 44.3849 18.1492 43.008 19.4853L39.6583 22.7472C38.9698 23.4176 38.0665 23.7504 37.1681 23.7504C36.2696 23.7504 35.3663 23.4176 34.6778 22.7472L31.3282 19.4853C29.9512 18.1445 29.9512 15.9715 31.3282 14.6354L34.6778 11.3735C35.3663 10.7031 36.2696 10.3702 37.1681 10.3702ZM37.1681 7.50781C35.4444 7.50781 33.8184 8.16398 32.6026 9.34794L29.2529 12.6098C26.7334 15.0633 26.7334 19.0574 29.2529 21.5109L32.6026 24.7727C33.8233 25.9615 35.4444 26.6129 37.1681 26.6129C38.8917 26.6129 40.5177 25.9567 41.7335 24.7727L45.0832 21.5109C47.6027 19.0574 47.6027 15.0633 45.0832 12.6098L41.7335 9.34794C40.5128 8.15923 38.8917 7.50781 37.1681 7.50781Z" fill="#06343D"/>
<path d="M49.093 17.2832H25.6988C24.0968 17.2832 22.8027 18.5292 22.8027 20.0613V22.5026C22.8027 24.0393 24.1016 25.2807 25.6988 25.2807H49.093C50.695 25.2807 51.989 24.0347 51.989 22.5026V20.0613C51.989 18.5246 50.6902 17.2832 49.093 17.2832Z" fill="#4DBCC0"/>
<path d="M48.986 16.9951C50.5686 16.9951 51.8556 18.2651 51.8556 19.8163V22.2954C51.8556 23.8513 50.5638 25.1166 48.986 25.1166H25.8055C24.223 25.1166 22.936 23.8466 22.936 22.2954V19.8163C22.936 18.2604 24.2278 16.9951 25.8055 16.9951H48.986ZM48.986 14.1738H25.8055C22.6357 14.1738 20.0664 16.7045 20.0664 19.821V22.3001C20.0664 25.4165 22.6404 27.9472 25.8055 27.9472H48.986C52.1511 27.9472 54.7252 25.4165 54.7252 22.3001V19.821C54.7252 16.7045 52.1511 14.1738 48.986 14.1738Z" fill="#06343D"/>
<path d="M49.093 40.8311H25.6988C24.0968 40.8311 22.8027 42.0771 22.8027 43.6092V46.0504C22.8027 47.5871 24.1016 48.8285 25.6988 48.8285H49.093C50.695 48.8285 51.989 47.5825 51.989 46.0504V43.6092C51.989 42.0724 50.6902 40.8311 49.093 40.8311Z" fill="#4DBCC0"/>
<path d="M48.986 40.5429C50.5686 40.5429 51.8556 41.8129 51.8556 43.3642V45.8433C51.8556 47.3992 50.5638 48.6645 48.986 48.6645H25.8055C24.223 48.6645 22.936 47.3945 22.936 45.8433V43.3642C22.936 41.8083 24.2278 40.5429 25.8055 40.5429H48.986ZM48.986 37.7217H25.8055C22.6357 37.7217 20.0664 40.2524 20.0664 43.3688V45.848C20.0664 48.9644 22.6404 51.4951 25.8055 51.4951H48.986C52.1511 51.4951 54.7252 48.9644 54.7252 45.848V43.3688C54.7252 40.2524 52.1511 37.7217 48.986 37.7217Z" fill="#06343D"/>
<path d="M51.9479 27.502H22.3855C19.8421 27.502 17.7852 29.4519 17.7852 31.853V34.2585C17.7852 36.6641 19.8469 38.6095 22.3855 38.6095H51.9479C54.4913 38.6095 56.5482 36.6596 56.5482 34.2585V31.853C56.5482 29.4474 54.4865 27.502 51.9479 27.502Z" fill="#4DBCC0"/>
<path d="M51.844 27.2566C54.3544 27.2566 56.4105 29.303 56.4105 31.8015V34.319C56.4105 36.8176 54.3544 38.864 51.844 38.864H22.4892C19.9788 38.864 17.9226 36.8176 17.9226 34.319V31.8015C17.9226 29.303 19.9788 27.2566 22.4892 27.2566H51.844ZM51.844 24.3916H22.4892C18.3865 24.3916 15.0488 27.7134 15.0488 31.7967V34.3143C15.0488 38.3976 18.3865 41.7194 22.4892 41.7194H51.844C55.9467 41.7194 59.2843 38.3976 59.2843 34.3143V31.7967C59.2843 27.7134 55.9467 24.3916 51.844 24.3916Z" fill="#06343D"/>
<path d="M37.0146 26.7421C38.012 26.7839 38.7841 27.6816 39.0286 28.6258C39.2684 29.57 39.1197 30.5515 39.0286 31.5143C38.9375 32.4771 38.9519 33.5097 39.4554 34.3423C39.6999 34.7469 40.1315 35.105 40.6111 35.0492C41.0714 34.9934 41.3975 34.5795 41.5798 34.1608C41.9346 33.3562 42.0017 32.4306 41.7476 31.584C41.5797 31.0119 41.268 30.491 41.081 29.9282C40.894 29.37 40.8173 28.7189 41.105 28.1979C41.4311 27.6212 42.1312 27.3281 42.7978 27.2304C43.4643 27.1281 44.1596 27.1886 44.831 27.0816C45.1858 27.0258 45.6078 26.8351 45.603 26.4909C45.603 26.1049 45.0851 25.956 44.6871 25.9234C42.2271 25.7234 39.7527 25.6723 37.2879 25.7793C36.8851 25.7979 34.8135 25.6676 34.6792 26.2072C34.4203 27.2444 36.6309 26.7235 37.0098 26.7421H37.0146Z" fill="#06343D"/>
<path d="M40.5879 25.8885C42.9226 27.1923 44.2975 29.8511 43.9325 32.3614C43.8125 33.2105 43.5076 34.0272 43.4276 34.8717C43.3476 35.7208 43.5226 36.6535 44.1975 37.2382C45.3074 38.194 47.3021 37.6326 48.0521 36.4076C48.802 35.1826 48.572 33.6235 47.9521 32.3382C47.6071 31.6283 47.1472 30.9323 47.1422 30.1574C47.1372 29.2804 47.7321 28.473 48.497 27.958C49.2619 27.4429 50.1768 27.1599 51.0767 26.8861C48.437 25.7817 45.4324 25.4477 42.5927 25.9581" fill="#06343D"/>
<path d="M33.0086 43.9272C33.1341 44.4189 33.5941 44.8056 34.0913 44.8295C34.5886 44.8533 35.0858 44.5239 35.2624 44.0561C35.5598 43.2732 35.0254 42.3566 35.2949 41.5689C35.5783 40.7431 36.5589 40.4566 37.3953 40.2896C36.4009 40.4853 33.2828 38.7142 32.4789 39.9267C32.0839 40.5282 32.9761 40.9531 33.1387 41.5117C33.385 42.328 32.7995 43.1204 33.0086 43.9368V43.9272Z" fill="#06343D"/>
<path d="M33.9975 45.7182H33.8951C33.0713 45.6738 32.3405 45.042 32.1264 44.1929C31.9775 43.5907 32.0938 43.0329 32.1962 42.5837C32.2707 42.2431 32.3359 41.942 32.2707 41.7198C32.2521 41.6606 32.1264 41.5125 32.0426 41.4138C31.7634 41.0781 31.1211 40.2982 31.7029 39.3948C32.522 38.1262 34.2907 38.6741 35.7197 39.1085C36.1898 39.2566 36.9019 39.4639 37.1114 39.4343L37.3953 41.0041C36.8088 41.1225 36.0175 41.3397 35.8593 41.8037C35.7895 42.0259 35.836 42.3467 35.8826 42.6923C35.957 43.2057 36.0408 43.7931 35.8174 44.4002C35.5288 45.1901 34.7981 45.7182 34.0022 45.7182H33.9882H33.9975ZM33.0526 40.2143C33.0899 40.2587 33.1364 40.313 33.1643 40.3525C33.3552 40.5795 33.5879 40.8658 33.6996 41.241C33.8811 41.8778 33.7555 42.4652 33.6577 42.9391C33.5879 43.2748 33.5274 43.5611 33.5739 43.7832C33.6158 43.956 33.802 44.1189 33.9696 44.1238C34.1465 44.1436 34.3419 43.9955 34.3978 43.8276C34.4723 43.6154 34.4304 43.2797 34.3792 42.9342C34.3094 42.4306 34.2302 41.8729 34.4211 41.2854C34.5235 40.9794 34.6724 40.7227 34.8632 40.5154C34.2535 40.3327 33.3784 40.1155 33.048 40.2192H33.0526V40.2143Z" fill="#06343D"/>
<path d="M46.9729 51.9963H45.5089C45.4701 52.02 45.4313 52.0484 45.3925 52.0721C45.0193 52.2711 44.646 52.4653 44.2727 52.6548C43.9043 52.8491 43.5456 53.0339 43.1771 53.2186C42.8087 53.4129 42.4354 53.6024 42.067 53.7966C41.6986 53.9814 41.3399 54.1756 40.9714 54.3604C40.4915 54.6115 40.0068 54.8626 39.5269 55.1042C39.1536 55.289 38.7997 55.5069 38.4119 55.6632C38.2083 55.7485 37.9998 55.8385 37.7817 55.8433C37.4617 55.8622 37.1369 55.867 36.817 55.8196C36.4486 55.7627 36.1335 55.6064 35.8184 55.4406C35.6099 55.3316 35.4112 55.2084 35.2027 55.0947C35.0234 55 34.8488 54.9005 34.6792 54.801C34.4756 54.692 34.2768 54.5783 34.0732 54.4599C33.8939 54.3557 33.7145 54.2609 33.5351 54.1567C33.3461 54.0477 33.1522 53.934 32.9631 53.8298C32.7789 53.7255 32.5898 53.6308 32.4056 53.5266C32.139 53.375 31.8724 53.2186 31.6057 53.067C31.4021 52.9533 31.1937 52.8491 30.9901 52.7401C30.7089 52.5885 30.4278 52.4274 30.1514 52.2664C30.0012 52.1763 29.8509 52.0816 29.7055 51.9916H28.2754C28.3626 52.1147 28.4984 52.1716 28.6244 52.2427C28.7359 52.309 28.8038 52.3943 28.8038 52.5269C28.8038 52.5696 28.8038 52.6122 28.8087 52.6548C28.8668 52.9059 28.925 53.1476 28.988 53.3987C29.0656 53.7398 29.1334 54.0761 29.2255 54.4125C29.3758 54.981 29.4873 55.559 29.7442 56.1038C29.8315 56.2839 29.8994 56.4639 30.04 56.6108C30.0545 56.6155 30.0593 56.625 30.0739 56.6297C30.389 56.6676 30.6459 56.5539 30.8495 56.3218C31.087 56.047 31.1646 55.7106 31.1888 55.3648C31.1888 55.3506 31.2082 55.3458 31.2131 55.3316V55.2369C31.2131 55.2369 31.2373 55.2179 31.247 55.2037C31.247 55.1705 31.247 55.1374 31.247 55.1089C31.2519 55.0947 31.2616 55.09 31.2712 55.0758C31.2712 55.0568 31.2713 55.0331 31.2761 55.0094C31.2761 54.9952 31.2955 54.9905 31.3003 54.9763L31.344 54.891C31.4506 54.692 31.6057 54.5831 31.8433 54.5973C31.9499 54.5973 32.0614 54.6162 32.1632 54.621C32.3862 54.6447 32.5947 54.7157 32.7886 54.8247C33.2297 55.0805 33.4818 55.4785 33.666 55.9333C33.6999 56.0233 33.7096 56.1181 33.7533 56.2033C33.8405 56.3786 33.8696 56.5634 33.8842 56.7529C33.8987 56.7719 33.9035 56.7908 33.9181 56.8192C33.9375 56.9045 33.9569 56.9945 33.9714 57.0751C34.0102 57.4162 34.0587 57.7525 34.0684 58.0937C34.0878 58.5816 34.0684 59.0696 34.0684 59.5576V59.5908C34.0684 59.7945 34.049 60.0029 34.0441 60.2067C34.0296 60.5193 34.0199 60.8415 34.0053 61.1542V61.4242C33.986 61.7275 33.952 62.0212 33.952 62.3197C33.952 62.8313 33.9714 63.3477 33.9714 63.8594C33.9714 64.0915 34.0248 64.3095 34.0829 64.5274C34.1266 64.7074 34.2186 64.8685 34.3641 64.9964C34.3786 65.0012 34.3835 65.0107 34.398 65.0154C34.5143 65.0912 34.6453 65.0533 34.781 65.0533C34.9846 65.0533 35.1155 64.9396 35.1591 64.7311C35.1639 64.7169 35.1736 64.7122 35.1833 64.6979V64.5037C35.1833 64.5037 35.2027 64.4848 35.2076 64.4705C35.2076 64.3616 35.2221 64.2479 35.2076 64.1389C35.1203 63.632 35.0234 63.1251 34.9458 62.6134C34.8925 62.2912 34.8682 61.9643 34.8295 61.6469C34.8246 61.5806 34.8295 61.519 34.8295 61.4527C34.8634 61.2395 34.8973 61.0215 34.9264 60.8131C34.9264 60.7989 34.9458 60.7941 34.9506 60.7799C34.9506 60.761 34.9506 60.7373 34.9506 60.7136C34.9506 60.6994 34.97 60.6946 34.9749 60.6804C35.1252 60.3346 35.3772 60.0788 35.7214 59.9177C35.736 59.9177 35.7408 59.9034 35.7553 59.894C35.8135 59.875 35.8814 59.8608 35.9396 59.8371C36.1577 59.7518 36.3856 59.7092 36.6134 59.695C37.0545 59.6713 37.486 59.676 37.9271 59.7518C38.3489 59.8229 38.7221 59.984 39.0421 60.254C39.425 60.5762 39.6238 60.9979 39.7499 61.4574C39.8662 61.8933 39.9195 62.3339 39.9147 62.7934C39.9147 63.253 39.8953 63.7125 39.8807 64.1721C39.8807 64.409 39.8613 64.6458 39.8419 64.8827C39.8225 65.1907 39.7935 65.5034 39.7886 65.8113C39.7886 66.0292 39.8129 66.2424 39.808 66.4604C39.808 66.7636 39.8856 67.0384 40.0068 67.3131C40.1328 67.5974 40.3558 67.7727 40.6321 67.8817C40.8115 67.9575 41.0199 67.9385 41.209 67.9053C41.3447 67.8864 41.4853 67.839 41.6016 67.7727C41.9022 67.5926 42.0283 67.2989 42.0719 66.9626C42.0719 66.9483 42.0864 66.9436 42.0961 66.9294V66.7683C42.0961 66.7683 42.1155 66.7493 42.1203 66.7351C42.1349 66.4793 42.1446 66.2282 42.1543 65.9724C42.1543 65.7497 42.1543 65.5223 42.1494 65.3044C42.1155 64.9017 42.0719 64.4942 42.0234 64.0915C41.9991 63.8357 41.9798 63.5799 41.9507 63.324C41.9119 62.964 41.8634 62.5992 41.8343 62.2391C41.7956 61.8222 41.7616 61.4053 41.7374 60.9931C41.718 60.652 41.7035 60.3061 41.7035 59.9603C41.7035 59.7092 41.7228 59.4676 41.7277 59.2165C41.7277 59.1407 41.7277 59.0554 41.7325 58.9796C41.7665 58.648 41.8004 58.3211 41.8246 57.9847C41.8295 57.9705 41.844 57.9657 41.8489 57.9515C41.8877 57.7573 41.9264 57.5678 41.9749 57.3736C42.0089 57.2125 42.0476 57.0608 42.0864 56.9045L42.1107 56.8714C42.1107 56.8714 42.1107 56.8287 42.1107 56.805C42.1107 56.7908 42.1301 56.7861 42.1349 56.7719C42.1349 56.7529 42.1349 56.7292 42.1349 56.7055C42.1349 56.6913 42.1543 56.6866 42.1591 56.6724C42.1737 56.6392 42.1785 56.6155 42.1931 56.5823C42.3773 56.0896 42.6148 55.6206 42.9493 55.2037C43.0802 55.0379 43.2305 54.8815 43.3808 54.7299C43.7346 54.3699 44.0982 54.0098 44.4569 53.6592C44.6411 53.4792 44.835 53.3181 45.0338 53.1523C45.1598 53.0433 45.281 52.9296 45.4216 52.8444C45.7319 52.6643 46.0518 52.5175 46.3621 52.3422C46.5657 52.2285 46.7838 52.1195 46.9389 51.9395V51.9631L46.9535 51.9963H46.9729ZM37.3745 58.1789C37.3551 58.3637 37.3163 58.5485 37.2581 58.7285C37.2 58.9085 37.0933 58.9322 36.9382 58.8327C36.7831 58.7285 36.6764 58.5816 36.5892 58.4206C36.4437 58.1316 36.3128 57.8378 36.1771 57.5441C36.1529 57.4873 36.1335 57.4304 36.1044 57.3688C36.0899 57.3356 36.085 57.3025 36.0705 57.2741H36.0462V57.3688C35.9929 57.601 35.9396 57.8284 35.8765 58.0558C35.8571 58.1268 35.8087 58.1884 35.7651 58.25C35.6148 58.4348 35.353 58.4158 35.2221 58.2121C35.1446 58.0889 35.1252 57.9563 35.1058 57.8189C35.0864 57.6199 35.0912 57.4162 35.1446 57.2219C35.2318 56.8998 35.3288 56.5871 35.4209 56.2744C35.4354 56.2365 35.4548 56.1986 35.4742 56.1465C35.5178 56.1607 35.5663 56.1654 35.6002 56.1844C35.9153 56.3597 36.2498 56.4734 36.6037 56.5492C36.7152 56.5729 36.8315 56.5824 36.9527 56.5918H36.9867C37.1903 56.5966 37.229 56.6155 37.2678 56.8145C37.3211 57.0751 37.3793 57.3451 37.3939 57.6246C37.3939 57.8094 37.3939 57.9895 37.3793 58.1742H37.3696L37.3745 58.1789Z" fill="#06343D"/>
<path d="M40.9561 69.2662C40.7154 69.2662 40.441 69.2281 40.1618 69.1138C39.3867 68.79 39.0161 68.2518 38.8476 67.8517C38.6406 67.3611 38.5395 66.9229 38.5539 66.4704C38.5539 66.3942 38.5539 66.3228 38.5539 66.2514C38.5491 66.1037 38.5395 65.9561 38.5395 65.8084C38.5395 65.5846 38.5587 65.3655 38.578 65.1369L38.6021 64.7225C38.6165 64.5272 38.6213 64.3415 38.6261 64.151C38.6406 63.6985 38.6502 63.2413 38.6598 62.7888C38.6598 62.4411 38.6213 62.1125 38.5347 61.8029C38.4384 61.4409 38.3277 61.3075 38.2362 61.2361C38.111 61.1266 37.957 61.0599 37.75 61.0218C37.4756 60.9694 37.1723 60.9646 36.7535 60.9837C36.6428 60.9837 36.5561 61.0027 36.4935 61.0265C36.4406 61.0456 36.3876 61.0647 36.3395 61.079C36.3202 61.0932 36.301 61.1027 36.2865 61.117L36.2673 61.2694L36.2288 61.3218C36.2143 61.4076 36.2047 61.4838 36.1902 61.5647L36.2095 61.7267C36.2336 61.9601 36.2528 62.1839 36.2962 62.4078C36.3443 62.684 36.3876 62.9555 36.4309 63.2317C36.4694 63.4651 36.5176 63.6937 36.5465 63.9319C36.5706 64.0795 36.5706 64.2367 36.5706 64.3891V64.8797L36.532 64.9464V65.1321L36.378 65.3369C36.1132 65.9513 35.5259 66.3371 34.8423 66.3371C34.6738 66.3514 34.202 66.3847 33.7495 66.0799L33.5859 65.9561C33.2537 65.6703 33.0274 65.2988 32.9023 64.8463C32.8253 64.551 32.7482 64.2224 32.7482 63.8414C32.7482 63.6032 32.7482 63.3651 32.7434 63.127C32.7434 62.8507 32.729 62.5745 32.729 62.2935C32.729 62.0601 32.7482 61.8362 32.7627 61.6124L32.8541 59.0738C32.8541 58.7499 32.8541 58.4213 32.8493 58.1022C32.8493 57.8831 32.8156 57.6592 32.7915 57.4401L32.7675 57.2163L32.7145 57.121L32.676 56.7971C32.676 56.7257 32.6616 56.7066 32.6616 56.7066C32.6038 56.5923 32.5653 56.4542 32.5316 56.3209C32.5075 56.2542 32.4786 56.2066 32.4546 56.1589C32.3631 56.4638 32.209 56.7924 31.9539 57.102C31.4677 57.6735 30.7696 57.9545 30.0235 57.864L29.6961 57.8259L29.181 57.4258C28.9211 57.1401 28.7815 56.8448 28.6852 56.6257C28.4204 56.0446 28.2856 55.5064 28.1701 55.0206L28.0834 54.6729C28.0257 54.4348 27.9727 54.1967 27.9197 53.9585L27.7127 53.044C27.5828 52.9393 27.448 52.8107 27.3276 52.6297L25.9941 50.6245H30.216L30.6782 50.9198C30.7649 50.977 30.8467 51.0294 30.9382 51.0818C31.2125 51.2437 31.4773 51.3913 31.7517 51.539C31.8384 51.5914 31.9298 51.6342 32.0117 51.6819C32.1368 51.7486 32.2524 51.8105 32.3775 51.8772C32.5268 51.9629 32.676 52.0534 32.8204 52.1343L33.1719 52.3391C33.2489 52.382 33.3355 52.4297 33.427 52.4725C33.5233 52.5249 33.6292 52.5773 33.7255 52.6344C33.841 52.7011 33.9517 52.7678 34.0721 52.8345L36.1758 54.0252C36.2865 54.0919 36.4021 54.1586 36.5224 54.2205C36.7438 54.33 36.9509 54.4396 37.1145 54.4634C37.3167 54.4967 37.5526 54.4872 37.7981 54.4777C37.8174 54.4634 37.8848 54.43 37.9522 54.4062C38.1881 54.311 38.3951 54.2014 38.6117 54.0776C38.7417 54.0061 38.8717 53.9347 39.0016 53.8728C39.3338 53.7061 39.6612 53.5299 39.9933 53.3632L43.7049 51.4247C44.0756 51.2294 44.4415 51.0389 44.8122 50.8389L45.1395 50.6245L45.5583 50.6055H46.9977L49.708 50.7007L47.999 52.744C47.7006 53.0917 47.3539 53.2774 47.1084 53.4203C46.9399 53.5156 46.7955 53.587 46.6511 53.6632C46.4874 53.749 46.3238 53.8299 46.1697 53.9252C46.1457 53.9442 46.1023 53.9776 46.0734 54.0157L45.8953 54.1681C45.7509 54.2919 45.6017 54.4205 45.4669 54.5539C45.1154 54.9016 44.764 55.2588 44.4174 55.6112C44.3019 55.735 44.1815 55.8541 44.0708 55.9922C43.8638 56.2542 43.6857 56.5876 43.522 57.0258L43.5076 57.0591L43.4498 57.3735L43.3776 57.464L43.1802 58.3784L43.0936 59.5263C43.0936 59.6691 43.0791 59.8168 43.0791 59.9597C43.0791 60.2835 43.0935 60.6027 43.1128 60.9265C43.1369 61.3314 43.1706 61.7314 43.2043 62.1363C43.2235 62.3363 43.2428 62.5364 43.2717 62.7364L43.3246 63.2127C43.3391 63.3603 43.3487 63.508 43.3631 63.6652L43.4354 64.4177C43.4594 64.6892 43.4931 64.9654 43.5124 65.2417C43.5316 65.5036 43.5316 65.7751 43.5268 66.0418C43.5268 66.2371 43.5124 66.4276 43.5027 66.6229L43.4498 67.3944L43.3583 67.523C43.1561 68.2851 42.7084 68.6947 42.3426 68.9138C42.0971 69.0614 41.7938 69.171 41.4761 69.2186C41.3316 69.2377 41.168 69.2567 40.9946 69.2567H40.9706L40.9609 69.2662H40.9561ZM38.6839 58.5975C39.1509 58.7404 39.5745 58.969 39.9404 59.2786C40.1281 59.4405 40.2918 59.612 40.441 59.812C40.441 59.6787 40.4458 59.5405 40.4603 59.3977L40.4747 59.1738C40.4747 59.0405 40.4747 58.9547 40.4892 58.869L40.6191 57.4592L40.6962 57.3687L40.9513 56.1828L41.0813 56.0303C41.1343 55.8875 41.192 55.7541 41.2594 55.616L41.1872 55.6541C40.8502 55.8303 40.5181 56.0065 40.1763 56.178C40.0655 56.2351 39.9548 56.2923 39.8489 56.3542C39.589 56.4971 39.2953 56.659 38.9631 56.7876C38.8765 56.821 38.785 56.8591 38.6887 56.8972C38.7272 57.102 38.7561 57.302 38.7658 57.5306C38.7802 57.7688 38.7657 58.0069 38.7465 58.2546C38.732 58.3641 38.7224 58.4784 38.7032 58.5975H38.6839ZM30.5482 53.849H30.5434L30.5482 53.8537V53.849Z" fill="#06343D"/>
<path d="M51.4216 56.8317V56.8107C51.3966 56.7606 51.3666 56.7145 51.3416 56.6644C51.2516 56.5221 51.1366 56.3924 50.9966 56.2837C50.8216 56.154 50.6316 56.0411 50.3866 56.0118C50.3716 56.0118 50.3666 55.995 50.3516 55.9909C50.2215 55.9741 50.1015 55.9448 49.9715 55.9407C49.6215 55.9197 49.3065 56.0034 49.0265 56.1666C48.7065 56.3548 48.4915 56.61 48.3765 56.9195C48.3615 56.9362 48.3565 56.953 48.3415 56.9781C48.3415 57.045 48.3415 57.1077 48.3415 57.1747C48.3415 57.3629 48.3215 57.5428 48.4215 57.7227C48.5215 57.9109 48.6115 58.1075 48.8065 58.2372C49.0515 58.4087 49.3115 58.5593 49.6615 58.5886C49.9665 58.6178 50.2566 58.6095 50.5416 58.5091C50.7366 58.4421 50.9216 58.3459 51.0716 58.2163C51.5066 57.8189 51.6416 57.3545 51.4416 56.8358H51.4266L51.4216 56.8317Z" fill="#06343D"/>
<path d="M49.7238 59.9361C49.5657 59.9361 49.4261 59.9226 49.3099 59.9135C48.6728 59.8412 48.2217 59.5472 47.8682 59.2668C47.4823 58.9593 47.3102 58.5884 47.1939 58.3442L47.1614 58.2764C46.966 57.8648 46.9707 57.494 46.9707 57.2678V56.9603L46.9846 56.7025L47.0916 56.4447C47.2916 55.8794 47.645 55.4226 48.1426 55.0789C48.6542 54.7307 49.2355 54.5633 49.84 54.6131C49.9702 54.6176 50.1051 54.6448 50.2353 54.6674L50.6399 54.7352L50.7236 54.8031C51.0771 54.9252 51.3421 55.1287 51.5235 55.287C51.7607 55.4905 51.9653 55.7392 52.128 56.0377C52.1699 56.1236 52.2164 56.205 52.2536 56.2864L52.328 56.4583L52.342 56.5668C52.5977 57.4894 52.3652 58.3894 51.6816 59.1176C51.4444 59.3753 51.1282 59.5834 50.7562 59.7371C50.3795 59.8909 50.0214 59.9316 49.7191 59.9316H49.7238V59.9361ZM49.5285 57.4261C49.5936 57.4759 49.6215 57.4894 49.6308 57.494C49.7424 57.4985 49.7889 57.494 49.7889 57.494C49.8354 57.4759 49.854 57.4623 49.854 57.4623C49.9563 57.3538 49.947 57.304 49.9098 57.191C49.8865 57.1548 49.8726 57.1367 49.8726 57.1367L49.8587 57.1231L49.5936 57.0915C49.5517 57.1231 49.5191 57.1548 49.4866 57.2136V57.3402C49.5005 57.3719 49.5099 57.4035 49.5238 57.4261H49.5285Z" fill="#06343D"/>
<path d="M25.3122 56.8316C24.67 56.8316 24.1236 57.3271 24.1743 57.9369C24.1124 58.563 24.7151 59.0584 25.3009 59.0475C25.8473 59.0475 26.4501 58.5739 26.4501 57.9369C26.4501 57.3924 25.9544 56.8262 25.3066 56.8262H25.3122V56.8316Z" fill="#06343D"/>
<path d="M25.2978 60.3712C24.7297 60.3712 24.1572 60.0999 23.7713 59.6369C23.42 59.2207 23.2379 58.6875 23.2595 58.145C23.2422 57.5931 23.4243 57.074 23.7756 56.6578C24.1616 56.1947 24.7253 55.9375 25.3065 55.9375C25.8486 55.9375 26.356 56.1714 26.7506 56.597C27.1453 57.0226 27.3664 57.5978 27.3621 58.1731C27.3491 59.361 26.4123 60.3759 25.3065 60.3805H25.2935V60.3712H25.2978ZM25.2978 57.841C25.0506 57.841 25.0203 58.0515 25.0203 58.145C25.0203 58.2011 25.0246 58.3087 25.0896 58.3788C25.1417 58.435 25.2111 58.4817 25.3108 58.4677C25.3629 58.4677 25.4409 58.449 25.506 58.3742C25.5537 58.318 25.5884 58.2432 25.6014 58.159C25.5884 58.0748 25.5537 57.9953 25.506 57.9392C25.4886 57.9158 25.4279 57.8457 25.2935 57.8457L25.2978 57.841Z" fill="#06343D"/>
<path d="M46.5753 66.6233C46.5753 66.6233 46.5573 66.6016 46.5438 66.6016C46.5303 66.6016 46.5258 66.6059 46.5123 66.6233C46.3595 66.6233 46.2202 66.6623 46.0988 66.7229C45.9775 66.7836 45.8606 66.8703 45.7662 66.9874C45.5729 67.2214 45.5819 67.4815 45.6403 67.7459C45.6763 67.928 45.7842 68.084 45.946 68.1967C46.1168 68.3181 46.2921 68.3788 46.5123 68.3788C46.845 68.3788 47.0967 68.2444 47.272 67.9843C47.6451 67.4555 47.3214 66.6839 46.5798 66.6233H46.5753Z" fill="#06343D"/>
<path d="M46.5239 69.7106H46.5047C45.994 69.7106 45.5411 69.5523 45.1268 69.2635C44.698 68.9561 44.4041 68.509 44.2981 68.0107C44.2451 67.7452 44.0765 66.9349 44.6883 66.1757C44.9148 65.8963 45.1846 65.6821 45.4977 65.5377C45.5748 65.5004 45.6519 65.4678 45.7338 65.4446L45.8591 65.2676L46.548 65.2862C46.7022 65.2862 46.8564 65.3095 46.9961 65.3607C47.685 65.5051 48.268 65.9429 48.5763 66.5623C48.9232 67.2702 48.8558 68.0992 48.4077 68.7419C47.9645 69.366 47.2948 69.7106 46.5239 69.7106Z" fill="#06343D"/>
</svg>
