<svg width="70" height="70" viewBox="0 0 70 70" fill="none" xmlns="http://www.w3.org/2000/svg">
<path d="M27.3306 68.3663C27.3306 68.3663 31.5484 53.82 29.9391 48.9197C28.3298 44.0195 22.0799 38.8337 22.0799 38.8337C22.0799 38.8337 17.4106 37.5326 14.2881 34.8555C11.1655 32.1784 2.63867 18.0813 2.63867 18.0813L7.77401 15.3247L10.8245 19.0127L19.6828 29.768L23.1608 28.0738L17.5931 9.58195L23.3338 7.06396C23.3338 7.06396 30.6501 31.4202 31.9039 35.2767C33.1577 39.1333 37.7598 45.2551 37.7598 45.2551L40.8823 34.1862L37.4331 23.4309C37.4331 23.4309 33.9743 16.8458 33.2778 14.0844C32.5812 11.323 31.6252 3.02487 31.6252 3.02487L36.6741 1.92969L39.4796 12.3152L49.5821 4.93443L52.0561 8.63654L43.9184 16.2888L49.0153 27.0722C49.0153 27.0722 54.5926 25.4809 56.7015 21.498C58.8056 17.515 61.2171 7.35882 61.2171 7.35882L66.3284 7.92981C66.3284 7.92981 64.4405 21.8817 62.2019 25.4294C59.9633 28.977 49.1258 34.9772 49.1258 34.9772L46.7719 47.8433C46.7719 47.8433 57.8832 46.0414 59.1178 44.8385C60.3524 43.6357 63.0474 38.5529 63.0474 38.5529L67.8176 42.3814C67.8176 42.3814 64.5318 49.8886 60.804 52.4955C57.0762 55.1024 37.4331 58.4114 37.4331 58.4114L36.0304 68.357H27.3354V68.3663H27.3306Z" fill="#4DBCC0"/>
<path d="M37.4909 69.9843H27.3403V68.51L25.7262 67.925C26.8599 64.0076 29.5453 53.051 28.3491 49.4191C27.0761 45.5485 22.3875 41.2848 21.249 40.2926C20.0144 39.9088 16.056 38.5421 13.1881 36.085C9.95989 33.3143 2.09115 20.3826 1.20243 18.913L0.328125 17.4668L8.19687 13.2405L12.1264 17.991L20.1441 27.7213L21.1673 27.2252L15.5852 8.67725L24.4051 4.80665L24.9432 6.60388C25.0152 6.84726 32.2691 30.9882 33.5037 34.7839C34.1426 36.7449 35.7711 39.422 37.1114 41.4346L39.1482 34.2176L35.8864 24.052C35.3868 23.0925 32.3507 17.2047 31.6638 14.4761C30.948 11.6445 30.0113 3.55234 29.9728 3.21068L29.8047 1.75511L37.8896 0L40.4741 9.56182L50.0194 2.5882L54.218 8.87382L45.9409 16.6571L49.8897 25.0114C51.475 24.3375 54.0498 22.9615 55.222 20.7477C57.206 16.9894 59.5695 7.08595 59.5935 6.98766L59.9298 5.56954L68.2117 6.49624L67.9907 8.13901C67.7937 9.60394 65.9875 22.5449 63.6288 26.2798C61.5006 29.6543 53.238 34.5265 50.6391 36.0054L48.8424 45.834C52.9594 45.0945 57.1099 44.1585 57.989 43.6343C58.7432 42.8386 60.5207 39.7777 61.5679 37.8027L62.5191 36.0101L69.8498 41.8979L69.3598 43.0212C69.2205 43.3441 65.8433 50.9777 61.7841 53.8186C58.2869 56.2664 43.5534 58.995 38.9272 59.8094L37.4909 69.989V69.9843ZM29.5117 66.7268H34.5749L35.944 57.0105L37.1498 56.8093C44.6006 55.555 57.3453 52.9153 59.8289 51.1742C62.1588 49.5455 64.5655 45.2958 65.7665 42.848L63.5615 41.0789C62.6055 42.7731 61.2124 45.1086 60.2997 45.9932C58.969 47.2943 52.3541 48.5907 47.0458 49.4519L44.7111 49.831L47.6175 33.9414L48.2996 33.5623C52.3445 31.3205 59.3101 26.8976 60.7753 24.5762C62.2549 22.2313 63.7441 13.9098 64.4358 9.35589L62.495 9.14059C61.7408 12.1219 59.901 19.002 58.186 22.2454C55.7744 26.7993 49.7408 28.5638 49.4814 28.6387L48.0978 29.0318L41.9008 15.9223L49.8993 8.40111L49.1547 7.28252L38.4949 15.0705L35.4685 3.86123L33.4604 4.2965C33.7631 6.77705 34.4116 11.7522 34.9016 13.6945C35.4348 15.8053 37.9857 20.9021 38.9224 22.69L38.9897 22.8117L42.6262 34.1567L38.4565 48.9371L36.4148 46.2178C36.2179 45.9604 31.635 39.8339 30.3139 35.7667C29.2522 32.5093 23.9968 15.0518 22.2722 9.31377L19.6109 10.4792L25.1641 28.9148L19.2266 31.8072L7.35619 17.406L4.96386 18.6884C7.77413 23.2423 13.2553 31.7885 15.3979 33.6278C18.1889 36.0242 22.5028 37.2504 22.546 37.2644L22.8919 37.3627L23.1705 37.592C23.4396 37.8167 29.8047 43.1382 31.5389 48.4222C32.9224 52.6345 30.6694 62.3414 29.5165 66.7268H29.5117Z" fill="#06343D"/>
<path d="M46.2048 55.409C45.3484 55.409 38.9082 51.4941 38.9082 51.4941L45.2065 57.7144L46.1999 55.4044L46.2048 55.409Z" fill="#06343D"/>
<path d="M53.8938 53.7155L52.5898 49.7168L56.2381 53.7155H53.8938Z" fill="#06343D"/>
<path d="M61.2537 49.5252L56.6934 48.3848L59.7336 52.3835L61.2537 49.5252Z" fill="#06343D"/>
<path d="M9.78458 18.1709L7.44141 21.281H11.5457L9.78458 18.1709Z" fill="#06343D"/>
<path d="M9.97317 29.2782L15.1951 27.0566L8.81055 27.8891L9.97317 29.2782Z" fill="#06343D"/>
<path d="M24.1812 12.3945L19.7559 14.7658L24.7723 15.0604L24.1812 12.3945Z" fill="#06343D"/>
<path d="M25.7507 19.0596L22.9473 20.3925H26.5956L25.7507 19.0596Z" fill="#06343D"/>
<path d="M24.8959 32.5492L27.1709 32.8327L31.1559 31.6937L30.016 28.834L27.1709 31.4053L22.9473 32.4221" fill="#06343D"/>
<path d="M33.5091 66.8605C33.5091 66.8605 34.3225 60.8437 34.3471 60.399C34.3718 59.9544 33.2528 54.6045 33.2528 54.6045L32.681 60.9004L31.6113 67.045L33.5091 66.8653V66.8605Z" fill="#06343D"/>
<path d="M57.4959 27.0574C57.1721 26.5232 56.6934 24.3916 56.6934 24.3916L59.4296 26.8811" fill="#06343D"/>
<path d="M44.6703 22.1701L41.9666 24.0974L40.2773 24.3912L42.134 22.6152L44.8377 19.5039L44.6703 22.1701Z" fill="#06343D"/>
<path d="M43.0134 17.2822L40.8056 19.948L35.7168 18.8506L40.2957 18.5351L43.0134 17.2822Z" fill="#06343D"/>
<path d="M46.6619 44.0338L45.6071 45.2733L41.1895 43.0518" fill="#06343D"/>
<path d="M27.5024 67.647C27.5024 67.647 22.5613 61.2755 18.1929 57.9007C13.8244 54.5259 15.9116 45.7178 15.3437 45.7178C14.7757 45.7178 10.5918 52.276 12.4945 56.9625C14.3971 61.6489 18.3869 62.209 21.4254 65.2104C24.4639 68.2071 25.6046 69.7102 25.6046 69.7102L27.5072 67.647H27.5024Z" fill="#06343D"/>
<path d="M27.9347 65.8534C28.1289 64.9268 27.352 60.1138 25.3999 56.7852C23.4479 53.4521 25.2057 48.8281 25.2057 48.8281C25.2057 48.8281 20.3304 51.7878 22.6709 56.9743C23.9431 59.7911 27.9347 66.6003 27.9347 66.6003" fill="#06343D"/>
<path d="M37.084 68.2877C37.084 68.2877 38.8089 64.5347 41.0848 64.2314C44.8797 63.7244 45.8044 60.3789 45.8044 60.3789C45.8044 60.3789 46.8298 62.7103 45.5984 64.1319C44.367 65.5535 41.7029 65.3497 40.4715 66.4633C39.2401 67.5769 37.0888 69.7093 37.0888 69.7093V68.2877H37.084Z" fill="#06343D"/>
</svg>
