<svg width="83" height="75" viewBox="0 0 83 75" fill="none" xmlns="http://www.w3.org/2000/svg">
<path d="M7.07879 15.6407C6.59358 15.65 4.48941 12.8511 4.5999 12.3784C4.71039 11.9057 5.41181 10.2394 5.41181 10.2394L6.84821 9.27059L7.4103 6.78061L10.1678 5.19862L13.3192 5.38116L15.9374 2.7414L19.5548 2.09082L23.35 4.50592L23.8689 6.50446L26.4054 6.34533L28.7354 8.1941L29.11 8.89616L31.7811 9.44377L33.1598 12.252L32.4776 14.625L30.3206 15.7249L7.07879 15.6407Z" fill="#4DBCC0"/>
<path d="M30.3204 17.2392H30.3156L7.08336 17.155H7.07375C6.23785 17.155 5.58933 16.5793 4.81588 15.6573C2.803 13.2515 2.99997 12.4044 3.08644 12.044C3.21135 11.5057 3.74939 10.1999 3.97518 9.66631C4.09047 9.39485 4.28265 9.16083 4.52765 8.99701L5.4596 8.36516L5.89198 6.45554C5.98325 6.04366 6.24748 5.68795 6.6222 5.47733L9.3797 3.89535C9.64392 3.7409 9.95136 3.67069 10.2588 3.68941L12.6993 3.82982L14.8226 1.69087C15.0484 1.46621 15.3415 1.31175 15.6585 1.25559L19.276 0.605006C19.6699 0.5348 20.0734 0.614368 20.4097 0.824987L24.2049 3.24009C24.5316 3.44603 24.767 3.76898 24.863 4.13873L25.0648 4.91568L26.3091 4.83611C26.6934 4.81271 27.0873 4.9344 27.39 5.1731L29.7199 7.02188C29.8832 7.15293 30.0177 7.31206 30.1186 7.4946L30.1523 7.56012L32.1027 7.95796C32.5783 8.05625 32.977 8.36048 33.1836 8.7864L34.5623 11.5947C34.7257 11.927 34.7593 12.3014 34.6585 12.6571L33.9763 15.0301C33.861 15.4326 33.5775 15.7696 33.2028 15.9615L31.0458 17.0614C30.8248 17.1737 30.575 17.2346 30.3252 17.2346L30.3204 17.2392ZM7.56377 14.1268L29.9409 14.2063L31.1611 13.5838L31.507 12.3903L30.7096 10.7709L28.788 10.3777C28.3316 10.2841 27.9424 9.99863 27.731 9.59611L27.5053 9.17019L25.8959 7.89243L23.9695 8.01412C23.2201 8.05625 22.5475 7.58353 22.365 6.8721L21.9951 5.44457L19.2279 3.68473L16.7106 4.13873L14.4383 6.42746C14.1213 6.74573 13.6793 6.91423 13.2277 6.88614L10.547 6.73169L8.78401 7.74266L8.36606 9.58675C8.27959 9.96118 8.05376 10.2888 7.7319 10.5041L6.67984 11.2155C6.5117 11.6274 6.34354 12.0533 6.23304 12.3529C6.52128 12.8537 7.16503 13.7055 7.56377 14.1174V14.1268Z" fill="#06343D"/>
<path d="M1.55859 22.4131H76.8376L66.7828 45.4501L61.3495 41.7433L43.9541 72.723L28.1921 46.5079L21.1254 51.0105L1.55859 22.4131Z" fill="#4DBCC0"/>
<path d="M43.9556 74.2395C43.4031 74.2395 42.8939 73.954 42.6153 73.4907L27.6795 48.6469L21.9772 52.279C21.2614 52.733 20.3054 52.5411 19.8346 51.853L0.267824 23.2556C-0.0492416 22.7923 -0.0780821 22.1932 0.190943 21.7017C0.459968 21.2103 0.988399 20.9014 1.56008 20.9014H76.8391C77.3627 20.9014 77.8479 21.1541 78.1362 21.58C78.4244 22.0059 78.4725 22.5395 78.2707 23.0076L68.2158 46.0446C68.0333 46.4659 67.6634 46.7841 67.2118 46.9058C66.7602 47.0322 66.275 46.9526 65.8907 46.6905L61.8794 43.9525L45.3151 73.4485C45.0461 73.9259 44.5369 74.2302 43.9748 74.2348C43.9652 74.2348 43.9604 74.2348 43.9507 74.2348L43.9556 74.2395ZM28.1936 44.9962C28.3137 44.9962 28.4338 45.0102 28.5491 45.0383C28.9622 45.1319 29.3177 45.3894 29.5339 45.7451L43.9075 69.6527L59.9866 41.0178C60.1979 40.6387 60.5678 40.3673 60.9954 40.269C61.423 40.1707 61.8794 40.2549 62.2397 40.503L66.1021 43.1381L74.4851 23.9296H4.45692L21.5592 48.9231L27.3385 45.2443C27.5931 45.0805 27.8909 44.9962 28.1888 44.9962H28.1936Z" fill="#06343D"/>
<path d="M21.0024 50.8289L20.7676 33.9453L29.4323 45.9405L21.0024 50.8289Z" fill="#06343D"/>
<path d="M62.2668 40.731L55.3116 34.3906L44.0254 72.6007L62.2668 40.731Z" fill="#06343D"/>
<path d="M11.1914 22.3945C11.1914 23.0623 13.472 33.2797 13.472 33.2797L16.893 30.3938L21.2242 49.9414" fill="#4DBCC0"/>
<path d="M21.2544 50.8299C20.8497 50.8299 20.4835 50.5537 20.392 50.1559L16.3498 31.9764L14.0324 33.9235C13.7963 34.1201 13.4687 34.181 13.1748 34.0873C12.8809 33.9937 12.6593 33.7503 12.5918 33.4555C11.8981 30.3475 10.2793 23.0505 10.2793 22.3624C10.2793 21.8897 10.6743 21.5059 11.1609 21.5059C11.6476 21.5059 12.033 21.8803 12.0426 22.3437C12.086 22.9241 13.1604 27.8996 14.0035 31.6768L16.3209 29.7297C16.5569 29.5331 16.8798 29.4676 17.1785 29.5659C17.4724 29.6595 17.694 29.9029 17.7614 30.1978L22.1168 49.7908C22.218 50.2542 21.9144 50.7082 21.4423 50.8112C21.3796 50.8252 21.317 50.8299 21.2544 50.8299Z" fill="#06343D"/>
<path d="M42.2817 22.3945L40.834 42.462L47.6745 40.674L44.7072 72.6008" fill="#4DBCC0"/>
<path d="M44.7196 73.4894C44.6906 73.4894 44.6664 73.4894 44.6374 73.4894C44.1491 73.4471 43.7914 73.029 43.8349 72.5544L46.7113 41.8182L41.0358 43.2887C40.7603 43.3592 40.4654 43.2981 40.243 43.1196C40.0206 42.9411 39.9046 42.6733 39.924 42.3961L41.3839 22.3061C41.4178 21.8316 41.8287 21.4792 42.3266 21.5074C42.8149 21.5403 43.1822 21.9538 43.1484 22.4236L41.7755 41.3108L47.4752 39.8308C47.7555 39.7556 48.0504 39.8214 48.2728 40.0046C48.4952 40.1879 48.6112 40.4604 48.5822 40.7423L45.5898 72.7048C45.5462 73.1511 45.1643 73.4847 44.7099 73.4847L44.7196 73.4894Z" fill="#06343D"/>
<path d="M72.2993 22.3945L66.8956 33.9668L62.9656 31.3112L59.0742 39.2781" fill="#4DBCC0"/>
<path d="M59.0443 40.162C58.9186 40.162 58.7929 40.1388 58.672 40.0832C58.2273 39.884 58.0387 39.379 58.2466 38.9574L62.1529 30.9518C62.2641 30.7248 62.4769 30.558 62.7283 30.4932C62.9845 30.4283 63.2504 30.4746 63.4679 30.6183L66.5331 32.6938L71.5176 22.0057C71.7158 21.5795 72.2428 21.3896 72.6876 21.5795C73.1324 21.7695 73.3354 22.2744 73.1324 22.7007L67.7079 34.3292C67.6015 34.5608 67.3888 34.7322 67.1326 34.8017C66.8764 34.8666 66.6056 34.8203 66.3881 34.6767L63.3084 32.5919L59.8517 39.6802C59.7018 39.9906 59.3827 40.1666 59.0492 40.1666L59.0443 40.162Z" fill="#06343D"/>
<path d="M28.5981 34.835C28.2018 34.835 27.8511 34.5427 27.7782 34.1232L25.7965 22.5189C25.7145 22.0475 26.0197 21.6045 26.4707 21.5196C26.9263 21.4348 27.3591 21.7506 27.4365 22.2172L29.4182 33.8216C29.5002 34.2929 29.195 34.736 28.744 34.8208C28.6938 34.8303 28.6483 34.835 28.5981 34.835Z" fill="#06343D"/>
<path d="M55.0769 26.8328C55.0213 26.8328 54.9658 26.8328 54.9103 26.8235C54.3549 26.749 53.9828 26.3111 54.0717 25.8453L54.777 22.2214C54.8658 21.7556 55.3934 21.4388 55.9432 21.518C56.4985 21.5925 56.8706 22.0304 56.7817 22.4962L56.0764 26.1202C55.9931 26.5394 55.5656 26.8375 55.0769 26.8375V26.8328Z" fill="#06343D"/>
<path d="M59.261 60.6523L58.6316 56.8799L61.5621 53.5146C61.5621 53.5146 64.9105 53.4117 65.2276 53.3087C65.5447 53.2057 67.7401 54.7362 67.7401 54.7362L68.4751 56.0608L72.1405 54.9375L75.3832 56.5709L76.2192 59.0188L76.4305 59.9362L79.6733 60.6523L80.7206 63.1001L80.1969 65.1408L78.8374 66.0582H60.9376L58.6364 63.9145L58.3242 62.1828L59.2658 60.6523H59.261Z" fill="#4DBCC0"/>
<path d="M78.8339 67.5746H60.9341C60.5354 67.5746 60.1511 67.4248 59.858 67.1533L57.5569 65.0097C57.3167 64.785 57.1582 64.4949 57.1005 64.1766L56.7882 62.4448C56.7258 62.0844 56.7931 61.7147 56.9852 61.4058L57.6289 60.3574L57.0909 57.1232C57.0188 56.6879 57.1437 56.2386 57.4416 55.9016L60.372 52.5364C60.6555 52.2087 61.0687 52.0168 61.5058 52.0028C62.8269 51.9607 64.4314 51.8905 64.8446 51.839C65.5268 51.6471 66.2138 51.8156 68.6398 53.5052C68.8319 53.6409 68.9905 53.8141 69.1009 54.0154L69.2259 54.24L71.6663 53.4912C72.0602 53.3695 72.483 53.4069 72.8481 53.5895L76.0908 55.2229C76.4511 55.4055 76.7249 55.7144 76.8498 56.0888L77.6857 58.5367C77.7001 58.5788 77.7146 58.6209 77.7242 58.6677L80.0109 59.1732C80.5009 59.2809 80.9092 59.6132 81.1014 60.0672L82.1487 62.515C82.2784 62.8146 82.3024 63.1469 82.2208 63.4652L81.6971 65.5058C81.6058 65.8615 81.3848 66.1751 81.0726 66.3857L79.713 67.3031C79.4536 67.481 79.1462 67.5746 78.8291 67.5746H78.8339ZM61.5587 64.5463H78.3487L78.8291 64.2234L79.0837 63.2218L78.5457 61.9581L76.086 61.4151C75.4999 61.2841 75.0435 60.8394 74.9138 60.2684L74.7169 59.426L74.1068 57.6333L71.993 56.5709L68.9376 57.507C68.2266 57.7223 67.458 57.4227 67.1025 56.7815L66.5404 55.7705C65.9784 55.3914 65.4019 55.031 65.08 54.8578C64.6236 54.9047 63.8165 54.9561 62.2984 55.0076L60.276 57.3291L60.7708 60.2965C60.8669 60.6803 60.8044 61.0875 60.593 61.4339L59.9493 62.4776L60.0742 63.1656L61.5539 64.5463H61.5587ZM64.7869 51.8577C64.7869 51.8577 64.7485 51.8717 64.7341 51.8764C64.7533 51.8717 64.7725 51.8624 64.7869 51.8577Z" fill="#06343D"/>
</svg>
