<svg width="77" height="69" viewBox="0 0 77 69" fill="none" xmlns="http://www.w3.org/2000/svg">
<path d="M13.2704 66.7373H74.5919L59.6422 40.2562L50.4716 30.4932C50.4716 30.4932 41.4692 31.1531 40.787 31.1531C40.1049 31.1531 26.3466 43.8975 26.3466 43.8975L13.2656 66.7373H13.2704Z" fill="#4DBCC0"/>
<path d="M74.5913 68.7327H13.265C12.5396 68.7327 11.8671 68.3582 11.4972 67.7451C11.1273 67.1367 11.1225 66.3785 11.4732 65.7607L24.5541 42.9209C24.655 42.743 24.7799 42.5839 24.9336 42.4482C39.2876 29.1562 39.7872 29.1562 40.7864 29.1562C41.3485 29.1468 46.9305 28.749 50.3173 28.5009C50.9466 28.4588 51.5567 28.6928 51.9842 29.1421L61.1548 38.9052C61.2653 39.0222 61.3614 39.1533 61.4383 39.289L76.3879 65.77C76.7386 66.3878 76.7242 67.1414 76.3543 67.7498C75.9844 68.3582 75.3166 68.728 74.5913 68.728V68.7327ZM16.7526 64.7404H71.1228L57.9603 41.4279L49.6255 32.5541C47.2956 32.7226 43.0682 33.0268 41.4157 33.1204C39.7872 34.3607 33.571 39.9583 27.9793 45.1347L16.7526 64.7404ZM40.8344 33.1485C40.8344 33.1485 40.8008 33.1485 40.7912 33.1485C40.8056 33.1485 40.82 33.1485 40.8344 33.1485Z" fill="#06343D"/>
<path d="M5.68468 51.3113L2.89844 66.6907H58.3784C58.3784 66.6907 29.8241 54.4799 28.2004 54.2505C26.5767 54.0212 21.4702 49.2754 21.4702 49.2754L5.68468 51.3113Z" fill="#4DBCC0"/>
<path d="M58.3786 68.6846H2.89871C2.29343 68.6846 1.71698 68.4225 1.32787 67.9732C0.938754 67.5239 0.775397 66.9248 0.881082 66.3444L3.66735 50.965C3.82108 50.1085 4.53203 49.4486 5.41594 49.3316L21.2015 47.2957C21.8164 47.2161 22.4361 47.4127 22.8828 47.8292C25.1695 49.9541 27.8212 52.0275 28.585 52.2896C30.7324 52.7529 48.6124 60.335 59.2001 64.8608C60.0888 65.2399 60.5836 66.176 60.3819 67.098C60.1849 68.02 59.3442 68.6846 58.3786 68.6846ZM5.33909 64.6923H48.5595C39.1872 60.7328 29.1951 56.5767 27.8212 56.2116C26.1014 55.9074 23.1711 53.5532 20.7739 51.3769L7.44319 53.0946L5.3439 64.6923H5.33909ZM27.85 56.2163C27.85 56.2163 27.8885 56.221 27.9077 56.2257C27.8885 56.2257 27.8692 56.221 27.85 56.2163ZM28.4938 52.2755C28.4938 52.2755 28.5466 52.2849 28.5754 52.2896C28.5466 52.2802 28.5178 52.2802 28.4938 52.2755Z" fill="#06343D"/>
<path d="M6.27734 52.6143C6.97664 52.6143 18.8599 57.3729 18.8599 57.3729L23.5187 61.2219L48.6887 64.1662" fill="#4DBCC0"/>
<path d="M48.487 65.0537L23.1785 62.0485L18.4491 58.0811C14.1037 56.313 7.05998 53.5164 6.27734 53.3742C6.31095 53.3789 6.33976 53.3789 6.36377 53.3789V51.7246C6.93514 51.7246 11.2565 53.3647 19.2125 56.5974L19.3325 56.6448L23.8795 60.4606L48.6887 63.4089L48.487 65.049V65.0537Z" fill="#06343D"/>
<path d="M10.8167 51.7219C10.8167 51.7219 10.0481 45.3755 12.7335 37.3441C15.4188 29.3174 20.5926 24.6465 20.5926 24.6465C17.0281 36.0898 16.9512 36.2442 16.9512 42.1976C16.9512 49.1057 18.868 52.0917 18.868 52.0917C18.868 52.0917 16.9657 53.6923 14.6502 53.3975C10.2402 52.8358 11.5853 50.9684 10.8167 51.7172V51.7219Z" fill="#4DBCC0"/>
<path d="M15.2224 54.5629C14.987 54.5629 14.7469 54.5488 14.5019 54.5161C12.0903 54.2072 11.0239 53.5098 10.4858 52.7984C10.0583 52.6721 9.72681 52.3117 9.66916 51.853C9.63553 51.5815 8.90052 45.1649 11.6339 36.9931C14.3817 28.7839 19.5843 24.0194 19.8053 23.8181C20.1896 23.4718 20.7613 23.4203 21.2033 23.6871C21.6452 23.9585 21.847 24.4827 21.698 24.9695L21.5347 25.489C18.1672 36.2957 18.1048 36.5017 18.1048 42.1976C18.1048 48.6189 19.8342 51.4739 19.8486 51.502C20.1416 51.97 20.0455 52.5831 19.618 52.9435C19.5315 53.0137 17.6676 54.5582 15.2176 54.5582L15.2224 54.5629ZM11.9029 50.7531C12.1047 50.9497 12.2008 51.1744 12.244 51.2773C12.489 51.867 13.7717 52.1479 14.7997 52.2789C15.8181 52.41 16.7741 52.0355 17.3938 51.7032C16.7741 50.2617 15.7941 47.1868 15.7941 42.1976C15.7941 37.2084 15.8854 36.0758 17.7925 29.7855C16.409 31.8027 14.9054 34.4704 13.8293 37.6905C11.8165 43.714 11.8069 48.8061 11.9029 50.7485V50.7531Z" fill="#06343D"/>
<path d="M14.2339 53.0578C14.2339 53.0578 13.1799 49.5791 13.1196 46.7168C13.0685 44.102 13.8625 41.5059 13.8625 41.5059C13.8625 41.5059 14.09 46.0958 14.4893 48.4912C14.9443 51.2414 16.3094 52.9597 16.3094 52.9597L14.2339 53.0578Z" fill="#06343D"/>
<path d="M50.404 30.9527C50.404 30.9527 50.1301 23.408 45.4464 14.5249C40.7626 5.64168 33.7441 1.12988 33.7441 1.12988C33.7441 1.12988 40.2486 14.1083 41.3439 20.9509C42.6313 29.0103 40.9163 32.8435 40.9163 32.8435C40.9163 32.8435 43.4768 34.3693 46.167 33.6064C51.2975 32.1555 49.3567 30.2225 50.404 30.9527Z" fill="#4DBCC0"/>
<path d="M44.5917 34.9433C42.2618 34.9433 40.4075 33.8574 40.3114 33.8013C39.8214 33.5064 39.6245 32.9073 39.855 32.3925C39.8695 32.3644 41.4067 28.681 40.2009 21.1224C39.1441 14.5232 32.7693 1.75069 32.7021 1.61964C32.4715 1.16566 32.5868 0.613382 32.9759 0.281081C33.3698 -0.055899 33.9415 -0.0933435 34.3738 0.187474C34.6717 0.379365 41.6997 4.96604 46.47 14.0084C51.2162 23.0132 51.5429 30.5906 51.5525 30.9089C51.5669 31.3394 51.3315 31.7373 50.9424 31.9385C50.904 31.9572 50.8655 31.976 50.8223 31.9947C50.3563 32.898 49.2803 33.8902 46.4796 34.6859C45.8311 34.8684 45.1922 34.9433 44.5821 34.9433H44.5917ZM42.3242 32.2474C43.1505 32.561 44.5004 32.9073 45.8455 32.5236C47.6758 32.004 48.6894 31.405 48.8575 30.7357C48.8912 30.6 48.9632 30.3191 49.1746 30.0758C48.9344 27.8433 47.9928 21.8151 44.4187 15.038C42.1321 10.7041 39.2546 7.42787 36.9727 5.25154C38.9951 9.70717 41.7862 16.3906 42.4876 20.776C43.4436 26.7668 42.7902 30.5485 42.3242 32.2474Z" fill="#06343D"/>
<path d="M45.5729 33.2378C45.5729 33.2378 46.2761 28.9973 45.7671 25.6552C45.3 22.6064 43.7045 19.7344 43.7045 19.7344C43.7045 19.7344 44.3343 25.1106 44.2923 27.9733C44.2451 31.2549 42.7598 33.5078 42.7598 33.5078L45.5676 33.2378H45.5729Z" fill="#06343D"/>
<path d="M40.4785 33.9531C40.4785 33.9531 52.3393 42.417 51.8313 42.586C51.3233 42.7503 48.1029 47.5667 48.6109 47.5667C49.1189 47.5667 71.489 64.1658 71.489 64.1658" fill="#4DBCC0"/>
<path d="M70.9268 65.0497C62.3739 58.7753 49.3459 49.3027 48.0223 48.5701C47.7023 48.4714 47.4598 48.2084 47.4017 47.8703C47.358 47.5979 47.2853 47.1846 48.9726 44.6909C49.6029 43.7563 50.0538 43.1598 50.3884 42.7747C48.8417 41.4832 43.9786 37.9469 39.5664 34.8332L40.5604 33.5088C52.5508 41.967 52.4975 42.3051 52.4005 42.9156L51.8187 43.5872C51.9205 43.5543 51.9787 43.5074 51.9835 43.5074C51.5181 43.8784 49.8162 46.3581 49.2441 47.4335C50.9459 48.4996 55.9739 52.0266 71.945 63.7488L70.9219 65.0544L70.9268 65.0497Z" fill="#06343D"/>
<path d="M64.7622 52.5379C64.7622 52.5379 66.482 47.4879 65.6797 40.5002C64.8775 33.5126 61.4619 28.8604 61.4619 28.8604C61.4619 28.8604 62.4179 38.9885 61.4042 43.7717C60.2129 49.4068 58.1328 51.527 58.1328 51.527C58.1328 51.527 59.4106 53.1464 61.3466 53.2821C65.036 53.5489 64.2674 51.8031 64.7622 52.5379Z" fill="#4DBCC0"/>
<path d="M62.0532 54.4387C61.8082 54.4387 61.5392 54.4294 61.2558 54.4107C58.8346 54.2422 57.2782 52.2998 57.2109 52.2203C56.8651 51.7803 56.8987 51.1578 57.2926 50.7553C57.3022 50.7413 59.1757 48.7194 60.2662 43.5524C61.2318 38.9891 60.3142 29.0716 60.3046 28.9733C60.2566 28.4678 60.564 27.9951 61.054 27.8173C61.544 27.6394 62.0917 27.8032 62.3943 28.2151C62.5432 28.4164 65.9924 33.1902 66.8187 40.3838C67.6401 47.5353 65.9252 52.6836 65.8483 52.9036C65.709 53.3108 65.3487 53.6056 64.9115 53.6618C64.3975 54.0877 63.552 54.4434 62.0436 54.4434L62.0532 54.4387ZM59.6561 51.42C60.0788 51.7523 60.7033 52.1126 61.4287 52.1641C61.8467 52.1922 63.2302 52.2624 63.5136 51.8459C63.6193 51.6914 63.7394 51.565 63.8691 51.4667C64.2822 49.8708 65.1229 45.7802 64.532 40.6272C64.2534 38.1841 63.6337 36.0359 62.9612 34.2901C63.0813 37.5195 63.0765 41.4463 62.5336 44.0017C61.7026 47.9238 60.4391 50.2639 59.6561 51.42Z" fill="#06343D"/>
<path d="M61.8313 53.0569C61.8313 53.0569 63.3242 50.4077 63.8684 48.0891C64.3644 45.9707 64.1429 43.7266 64.1429 43.7266C64.1429 43.7266 63.1556 47.4187 62.4044 49.2996C61.5423 51.46 60.0879 52.6239 60.0879 52.6239L61.8264 53.0523H61.8313V53.0569Z" fill="#06343D"/>
</svg>
