<svg width="68" height="29" viewBox="0 0 68 29" fill="none" xmlns="http://www.w3.org/2000/svg">
<path d="M33.2455 6.20325V6.17954C33.2455 6.13212 33.2455 6.10841 33.2215 6.061C33.2215 6.01358 33.1975 5.94245 33.1975 5.89503C33.1975 5.84762 33.1736 5.82391 33.1736 5.82391V5.8002C33.1256 5.61053 33.0297 5.44457 32.8859 5.32602C32.814 5.23119 32.7181 5.13635 32.6223 5.06522C31.3998 4.14058 30.3452 3.40561 29.1228 2.55209L29.0509 2.50467C28.2359 1.93566 27.3011 1.27181 26.1506 0.442004C25.863 0.228624 25.5274 0.133789 25.1679 0.133789C25.0481 0.133789 24.9522 0.133789 24.8323 0.157498C21.1651 0.91618 18.8641 4.42509 19.5592 8.14737C20.1344 11.1821 22.6272 13.553 25.6713 13.956C25.9589 14.0035 26.2465 14.0035 26.5341 14.0035C26.9176 14.0035 27.3012 13.9797 27.6607 13.9086C27.8524 13.8849 28.0682 13.8375 28.2599 13.7901C28.4037 14.0272 28.6434 14.2168 28.955 14.2405C29.0029 14.2405 29.0269 14.2405 29.0749 14.2405C29.1468 14.2405 29.2187 14.2405 29.2906 14.2168C29.3625 14.1931 29.6741 14.122 30.1295 13.8612C30.2733 14.0746 30.513 14.1931 30.7767 14.2405C30.8246 14.2405 30.8486 14.2405 30.8965 14.2405C31.0403 14.2405 31.1841 14.2168 31.304 14.1457C31.4957 14.0509 32.4785 13.5293 32.9818 11.6563C33.629 9.23798 33.3893 7.05677 33.2455 6.20325ZM30.8725 13.6478C30.8486 13.6478 30.8486 13.6478 30.8246 13.6478C30.7047 13.6241 30.6089 13.5767 30.5609 13.4581C30.4651 13.2922 30.537 13.0788 30.7287 13.0077C30.7287 13.0077 31.304 12.6995 31.6635 11.514C31.6395 11.5614 31.5916 11.6089 31.5676 11.6563C30.3932 13.3396 29.1947 13.6241 29.1468 13.6478C29.1228 13.6478 29.0988 13.6478 29.0749 13.6478C29.0509 13.6478 29.0509 13.6478 29.0269 13.6478C28.9071 13.6241 28.7872 13.5293 28.7633 13.4107C28.7153 13.2448 28.8352 13.0788 29.0029 13.0314C29.0029 13.0314 29.6501 12.8654 30.4171 12.0356C29.6261 12.6758 28.6434 13.1262 27.5648 13.2922C27.2292 13.3396 26.8697 13.387 26.5341 13.387C26.2705 13.387 26.0068 13.3633 25.7432 13.3396C23.0107 12.984 20.6857 10.8739 20.1584 8.02883C19.5112 4.61476 21.6445 1.39036 24.9762 0.702801C25.0481 0.679092 25.12 0.679092 25.1919 0.679092C25.4076 0.679092 25.6473 0.750219 25.8151 0.892471C26.9896 1.74599 27.9483 2.40984 28.7872 3.00256C29.9857 3.85607 31.0403 4.59105 32.2627 5.51569C32.3346 5.56311 32.4065 5.63424 32.4545 5.70536C32.5264 5.75278 32.5743 5.82391 32.5743 5.89503C32.5743 5.89503 32.5743 5.94245 32.5983 6.01358C32.5983 6.061 32.6223 6.0847 32.6223 6.13212C32.6223 6.17954 32.6462 6.22696 32.6462 6.27438C32.79 7.10418 33.0058 9.19056 32.3826 11.4903C31.9511 13.1262 31.1122 13.553 31.0163 13.6004C30.9924 13.6478 30.9205 13.6478 30.8725 13.6478Z" fill="#46DEDE"/>
<path d="M31.2077 6.15659L31.0159 6.01433C30.0092 5.25565 29.1943 4.68664 28.1636 3.95167C27.5165 3.5012 26.7015 2.93219 25.7188 2.19721L25.5031 2.03125L25.2394 2.07867C22.6747 2.62397 21.0448 5.13711 21.5482 7.81621C22.0036 10.2582 24.0889 12.0364 26.5098 12.0364C26.7734 12.0364 27.0371 12.0127 27.3007 11.9653C29.9134 11.5385 31.6631 9.07277 31.2556 6.36997L31.2077 6.15659Z" fill="#46DEDE"/>
<path d="M39.836 1.55691C39.7401 1.5332 39.6443 1.5332 39.5484 1.5332C39.2608 1.5332 38.9492 1.62804 38.7095 1.794C37.8466 2.41043 37.1515 2.90832 36.5283 3.33507L36.4564 3.38249C35.5456 4.02263 34.7546 4.59164 33.8198 5.2792C33.7479 5.35033 33.652 5.42145 33.6041 5.49258C33.4842 5.61112 33.3884 5.75338 33.3644 5.91934L33.3404 5.99046C33.3164 6.03788 33.3164 6.0853 33.3164 6.13272C33.3164 6.15643 33.3164 6.20384 33.2925 6.22755V6.25126C33.1966 6.8914 33.0048 8.57473 33.5082 10.424C33.9157 11.894 34.7066 12.3444 34.8505 12.4156C34.9703 12.463 35.0902 12.4867 35.234 12.4867C35.2819 12.4867 35.3059 12.4867 35.3538 12.4867C35.5456 12.463 35.7373 12.3681 35.8572 12.2496C36.1688 12.4156 36.3845 12.463 36.4324 12.4867C36.5043 12.5104 36.5523 12.5104 36.6242 12.5104C36.6721 12.5104 36.6961 12.5104 36.744 12.5104C36.9837 12.4867 37.1755 12.3681 37.3193 12.1785C37.4391 12.2022 37.559 12.2259 37.6788 12.2496C37.9664 12.297 38.2541 12.3207 38.5657 12.3207C38.7814 12.3207 39.0211 12.297 39.2368 12.2733C41.5857 11.9651 43.5512 10.1158 43.9826 7.76863C44.51 4.87615 42.6883 2.14963 39.836 1.55691ZM43.3595 7.67379C42.952 9.83129 41.1783 11.4435 39.1169 11.7043C38.9252 11.728 38.7095 11.7517 38.5177 11.7517C38.2541 11.7517 37.9904 11.728 37.7507 11.6806C36.9358 11.5383 36.1927 11.2064 35.5935 10.7322C36.1927 11.3487 36.6721 11.4672 36.6721 11.4672C36.8159 11.4909 36.8878 11.6332 36.8639 11.7517C36.8399 11.8465 36.744 11.9177 36.6481 11.9177H36.6242C36.6002 11.9177 36.5762 11.9177 36.5762 11.9177C36.5283 11.9177 35.6414 11.6806 34.7546 10.424C34.7306 10.4003 34.7066 10.3529 34.6827 10.3055C34.9703 11.2064 35.3778 11.4435 35.3778 11.4435C35.5216 11.5146 35.5695 11.6569 35.4976 11.7991C35.4497 11.8703 35.3778 11.9177 35.2819 11.9414C35.2579 11.9414 35.2579 11.9414 35.234 11.9414C35.186 11.9414 35.1621 11.9414 35.1141 11.9177C35.0422 11.894 34.419 11.562 34.0835 10.3292C33.6041 8.57473 33.7958 7.00994 33.8917 6.3698C33.8917 6.32239 33.8917 6.29868 33.9157 6.27497C33.9157 6.25126 33.9157 6.22755 33.9396 6.18013C33.9396 6.13272 33.9636 6.10901 33.9636 6.0853C33.9876 6.01417 34.0115 5.96675 34.0595 5.94305C34.1074 5.89563 34.1554 5.8245 34.2033 5.80079C35.1141 5.11324 35.9051 4.54422 36.8399 3.90409C37.4871 3.45362 38.2061 2.95573 39.093 2.29189C39.2368 2.19705 39.4046 2.12592 39.5724 2.12592C39.6203 2.12592 39.6922 2.12592 39.7401 2.14963C42.2569 2.67123 43.8628 5.08953 43.3595 7.67379Z" fill="#46DEDE"/>
<path d="M39.5728 3.50054L39.3092 3.45312L39.0935 3.61909C38.4223 4.09326 37.8711 4.49631 37.4396 4.80453C36.7445 5.30241 36.1932 5.68175 35.5221 6.20335L35.3303 6.3456L35.3064 6.58269C35.0187 8.50311 36.2651 10.2576 38.1347 10.5658C38.3265 10.5895 38.5182 10.6132 38.71 10.6132C40.4357 10.6132 41.9218 9.35662 42.2574 7.62588C42.569 5.68175 41.3945 3.87988 39.5728 3.50054Z" fill="#46DEDE"/>
<path d="M30.944 20.0732C30.5605 20.0732 30.2249 20.1918 29.9373 20.4289C29.6497 20.666 29.5298 20.9505 29.5059 21.3061C29.5059 22.207 29.5059 23.1317 29.5059 24.0326C29.5059 24.3645 29.6497 24.6728 29.9373 24.9098C30.2249 25.1469 30.5605 25.2655 30.944 25.2655C31.3275 25.2655 31.6631 25.1469 31.9507 24.9098C32.2383 24.6728 32.3582 24.3645 32.3821 24.0326C32.3821 23.1317 32.3821 22.2307 32.3821 21.3298C32.3821 20.9979 32.2383 20.6897 31.9507 20.4526C31.6631 20.1918 31.3275 20.0732 30.944 20.0732ZM31.1837 23.8192C31.1837 23.8904 31.1597 23.9378 31.1118 23.9615C31.0638 24.0089 31.0159 24.0326 30.944 24.0326C30.8721 24.0326 30.8242 24.0089 30.7762 23.9615C30.7283 23.9141 30.7043 23.8667 30.7043 23.8192C30.7043 23.0368 30.7043 22.2782 30.7043 21.4958C30.7043 21.4484 30.7283 21.3772 30.7762 21.3535C30.8242 21.3061 30.8721 21.2824 30.944 21.2824C31.0159 21.2824 31.0638 21.3061 31.1118 21.3535C31.1597 21.4009 31.1837 21.4484 31.1837 21.4958C31.1837 22.2782 31.1837 23.0606 31.1837 23.8192Z" fill="#46DEDE"/>
<path d="M32.55 25.1703C32.9336 25.1703 33.3171 25.1703 33.7006 25.1703C33.7006 24.6724 33.7006 24.1745 33.7006 23.6766C34.0841 23.6766 34.4676 23.6766 34.8511 23.6766C34.8511 23.3447 34.8511 23.0128 34.8511 22.6808C34.4676 22.6808 34.0841 22.6808 33.7006 22.6808C33.7006 22.1829 33.7006 21.6851 33.7006 21.1872C34.156 21.1872 34.6114 21.1872 35.0668 21.1872C35.0668 20.8553 35.0668 20.5233 35.0668 20.1914C34.2279 20.1914 33.389 20.1914 32.55 20.1914C32.55 21.8273 32.55 23.5106 32.55 25.1703Z" fill="#46DEDE"/>
<path d="M5.77653 24.9811C5.70462 24.4358 5.46493 23.9617 5.08142 23.5112C5.53683 22.9896 5.77653 22.3732 5.77653 21.6856C5.77653 20.9506 5.77653 20.2157 5.77653 19.457C5.77653 18.6983 5.4889 18.0582 4.93761 17.5366C4.38632 17.015 3.69122 16.7305 2.90025 16.7305C1.94149 16.7305 0.958759 16.7305 0 16.7305C0 20.5239 0 24.341 0 28.1344C0.767007 28.087 1.53401 28.0159 2.30102 27.9685C2.30102 26.8541 2.30102 25.7161 2.30102 24.6018C2.46881 24.6018 2.61262 24.5781 2.7804 24.5781C2.92422 24.5781 3.06803 24.6255 3.21184 24.7203C3.33169 24.8152 3.42756 24.9574 3.45153 25.0997C3.45153 25.1234 3.45153 25.1708 3.45153 25.1945C3.57138 26.0717 3.71519 26.9727 3.83504 27.8499C4.60204 27.8025 5.36905 27.7551 6.13606 27.7077C6.01621 26.8067 5.8724 25.9295 5.75256 25.0286C5.77653 25.0049 5.77653 24.9811 5.77653 24.9811ZM3.4755 21.7567C3.4755 21.9227 3.42756 22.0412 3.30772 22.1598C3.18787 22.2783 3.06803 22.3258 2.90025 22.3495C2.7085 22.3495 2.51674 22.3732 2.32499 22.3732C2.32499 21.2589 2.32499 20.1208 2.32499 19.0065C2.51674 19.0065 2.7085 19.0065 2.90025 19.0065C3.06803 19.0065 3.18787 19.0539 3.30772 19.1725C3.42756 19.291 3.4755 19.4096 3.4755 19.5518C3.4755 20.2631 3.4755 20.9981 3.4755 21.7567Z" fill="#46DEDE"/>
<path d="M6.51929 27.6839C8.22108 27.5891 9.89891 27.4706 11.6007 27.3994C11.6007 26.6882 11.6007 25.9769 11.6007 25.2656C10.6899 25.3131 9.7551 25.3368 8.84428 25.3842C8.84428 25.0286 8.84428 24.6492 8.84428 24.2936C9.61129 24.2699 10.3783 24.2225 11.1453 24.1988C11.1453 23.4875 11.1453 22.7762 11.1453 22.065C10.3783 22.0887 9.61129 22.1124 8.84428 22.1361C8.84428 21.0455 8.84428 19.9786 8.84428 18.888C9.7551 18.888 10.6899 18.8643 11.6007 18.8643C11.6007 18.153 11.6007 17.4417 11.6007 16.7305C9.89891 16.7305 8.22108 16.7305 6.51929 16.7305C6.51929 20.3816 6.51929 24.0328 6.51929 27.6839Z" fill="#46DEDE"/>
<path d="M12.2961 27.376C13.0631 27.3286 13.8302 27.3049 14.5972 27.2575C14.5972 23.7486 14.5972 20.2159 14.5972 16.707C13.8302 16.707 13.0631 16.707 12.2961 16.707C12.2961 20.2634 12.2961 23.8197 12.2961 27.376Z" fill="#46DEDE"/>
<path d="M18.4803 16.4932C18.4323 16.4932 18.4083 16.4932 18.3604 16.4932C17.5694 16.4932 16.8983 16.754 16.323 17.2518C15.7718 17.7734 15.4841 18.3899 15.4841 19.1011C15.4841 20.9741 15.4841 22.8708 15.4841 24.7438C15.4841 25.4551 15.7718 26.0715 16.323 26.5694C16.8743 27.0436 17.5455 27.2807 18.3604 27.257C18.4083 27.257 18.4323 27.257 18.4803 27.257C19.415 27.1858 20.3259 27.1147 21.2607 27.0436C21.2607 25.3603 21.2607 23.6769 21.2607 21.9936C20.3019 22.0173 19.3671 22.0173 18.4083 22.041C18.4083 22.7286 18.4083 23.4161 18.4083 24.1274C18.6001 24.1274 18.7679 24.1274 18.9596 24.1037C18.9596 24.4593 18.9596 24.7913 18.9596 25.1469C18.7679 25.1469 18.5761 25.1469 18.3844 25.1706C18.2166 25.1706 18.0968 25.1232 17.9769 25.0283C17.8571 24.9335 17.8091 24.815 17.8091 24.6727C17.8091 22.8234 17.8091 20.9504 17.8091 19.1011C17.8091 19.0774 17.8091 19.0537 17.8091 19.0537C17.8091 19.0537 17.8091 19.0537 17.8091 19.03C17.8091 19.0063 17.8091 19.0063 17.8091 18.9826C17.8091 18.9826 17.8091 18.9826 17.8091 18.9589C17.8091 18.9352 17.8091 18.9352 17.8091 18.9352V18.9115C17.8091 18.8878 17.8331 18.8878 17.8331 18.8878C17.8331 18.864 17.8331 18.864 17.8571 18.8403L17.881 18.8166C17.881 18.7929 17.905 18.7929 17.905 18.7692C17.905 18.7692 17.929 18.7455 17.9529 18.7218C17.9529 18.6981 17.9769 18.6981 18.0009 18.6744C18.0968 18.6032 18.2406 18.5558 18.3604 18.5558C18.5042 18.5558 18.648 18.6033 18.7679 18.6981C18.8877 18.7929 18.9357 18.9115 18.9357 19.0774C18.9357 19.4331 18.9357 19.7887 18.9357 20.1443C19.7027 20.1443 20.4697 20.1206 21.2367 20.1206C21.2367 19.765 21.2367 19.4331 21.2367 19.0774C21.2367 18.3899 20.973 17.7972 20.4217 17.2756C19.8944 16.7777 19.2473 16.5169 18.4803 16.4932Z" fill="#46DEDE"/>
<path d="M25.5509 19.149C25.1674 18.3666 24.7839 17.5605 24.4004 16.7544C24.4004 16.7307 24.4004 16.7307 24.4004 16.707C23.6334 16.707 22.8664 16.707 22.0994 16.707C22.0994 20.1211 22.0994 23.5352 22.0994 26.973C22.8664 26.9492 23.6334 26.9255 24.4004 26.9255C24.4004 24.934 24.4004 22.9425 24.4004 20.9272C24.7839 21.7096 25.1674 22.5157 25.5509 23.2981C25.5509 24.4835 25.5509 25.6927 25.5509 26.8781C26.3179 26.8544 27.0849 26.8544 27.8519 26.8307C27.8519 23.464 27.8519 20.0737 27.8519 16.707C27.0849 16.707 26.3179 16.707 25.5509 16.707C25.5509 17.5368 25.5509 18.3429 25.5509 19.149Z" fill="#46DEDE"/>
<path d="M36.145 18.746C36.7203 18.746 37.2955 18.746 37.8468 18.746C37.8468 21.4488 37.8468 24.1279 37.8468 26.8307C38.6138 26.8307 39.3808 26.8544 40.1478 26.8544C40.1478 24.1516 40.1478 21.4488 40.1478 18.746C40.9149 18.746 41.6819 18.746 42.4489 18.746C42.4489 18.0584 42.4489 17.3946 42.4489 16.707C40.3396 16.707 38.2543 16.707 36.145 16.707C36.145 17.3946 36.145 18.0584 36.145 18.746Z" fill="#46DEDE"/>
<path d="M41.2991 26.8782C42.0661 26.9019 42.8331 26.9019 43.6001 26.9256C43.6001 24.4362 43.6001 21.9467 43.6001 19.4573C42.8331 19.4573 42.0661 19.4573 41.2991 19.4336C41.2991 21.923 41.2991 24.4124 41.2991 26.8782Z" fill="#46DEDE"/>
<path d="M43.3601 18.7457C43.8155 18.7457 44.2949 18.7457 44.7503 18.7457C44.7503 21.4722 44.7503 24.1988 44.7503 26.9253C45.5173 26.949 46.2843 26.9727 47.0513 26.9964C47.0513 24.2462 47.0513 21.4959 47.0513 18.7694C47.6266 18.7694 48.2258 18.7694 48.8011 18.7931C48.8011 18.1056 48.8011 17.418 48.8011 16.7305C46.9794 16.7305 45.1818 16.7305 43.3601 16.7305C43.3601 17.3943 43.3601 18.0819 43.3601 18.7457Z" fill="#46DEDE"/>
<path d="M51.9405 16.4932C51.1495 16.4932 50.4544 16.754 49.9031 17.2518C49.3518 17.7497 49.0642 18.3662 49.0642 19.0774C49.0642 21.7328 49.0642 24.4119 49.0642 27.0673C49.8312 27.091 50.5982 27.1147 51.3652 27.1621C51.3652 26.4746 51.3652 25.7633 51.3652 25.0758C51.7487 25.0995 52.1322 25.0995 52.5157 25.1232C52.5157 25.8344 52.5157 26.522 52.5157 27.2333C53.2827 27.257 54.0498 27.3044 54.8168 27.3281C54.8168 24.6016 54.8168 21.8751 54.8168 19.1486C54.8168 18.4136 54.5291 17.7734 53.9779 17.2756C53.4026 16.754 52.7315 16.4932 51.9405 16.4932ZM52.5157 23.0131C52.1322 23.0131 51.7487 22.9894 51.3652 22.9894C51.3652 21.7091 51.3652 20.4051 51.3652 19.1248C51.3652 18.9826 51.4132 18.864 51.533 18.7455C51.6529 18.6507 51.7727 18.6033 51.9405 18.6033C52.0843 18.6033 52.2281 18.6507 52.348 18.7692C52.4678 18.864 52.5157 19.0063 52.5157 19.1486C52.5157 20.4288 52.5157 21.7091 52.5157 23.0131Z" fill="#46DEDE"/>
<path d="M59.131 19.3147C58.7475 18.4612 58.364 17.6077 57.9805 16.7779C57.9805 16.7542 57.9805 16.7542 57.9805 16.7305C57.2135 16.7305 56.4465 16.7305 55.6794 16.7305C55.6794 20.2631 55.6794 23.8194 55.6794 27.352C56.4465 27.3994 57.2135 27.4232 57.9805 27.4706C57.9805 25.3605 57.9805 23.2741 57.9805 21.164C58.364 22.0175 58.7475 22.8711 59.131 23.7246C59.131 25.0049 59.131 26.2614 59.131 27.5417C59.898 27.5891 60.665 27.6365 61.432 27.6839C61.432 24.0328 61.432 20.3816 61.432 16.7305C60.665 16.7305 59.898 16.7305 59.131 16.7305C59.131 17.584 59.131 18.4612 59.131 19.3147Z" fill="#46DEDE"/>
<path d="M68.0002 20.5244C68.0002 20.145 68.0002 19.742 68.0002 19.3626C68.0002 18.604 67.7365 17.9401 67.1852 17.3711C66.6339 16.8258 65.9868 16.5413 65.2198 16.5176C65.1718 16.5176 65.1478 16.5176 65.0999 16.5176C64.3089 16.5176 63.6378 16.8021 63.0625 17.3237C62.5113 17.8453 62.2236 18.4854 62.2236 19.2441C62.2236 20.0502 62.2236 20.88 62.2236 21.6861C62.2236 22.4211 62.5113 23.0612 63.0386 23.6302C63.5659 24.1755 64.237 24.5075 64.9801 24.5549C65.028 24.5549 65.052 24.5549 65.0999 24.5549C65.2677 24.5549 65.3875 24.626 65.5074 24.7445C65.6272 24.8631 65.6752 25.0053 65.6752 25.1476C65.6752 25.2898 65.6272 25.4321 65.5074 25.5269C65.3875 25.6218 65.2677 25.6692 65.0999 25.6692C64.1412 25.6218 63.1824 25.5744 62.2236 25.5032C62.2236 26.2382 62.2236 26.9732 62.2236 27.7081C63.1824 27.7793 64.1412 27.8267 65.0999 27.8978C65.8909 27.9452 66.586 27.7319 67.1373 27.2103C67.6886 26.6887 67.9762 26.0485 67.9762 25.2661C67.9762 24.5075 67.7125 23.8199 67.1612 23.2509C66.61 22.6819 65.9628 22.3737 65.1958 22.3262C65.1718 22.3262 65.1239 22.3262 65.0999 22.3262C64.9561 22.3262 64.8123 22.2551 64.6924 22.1603C64.5726 22.0417 64.5246 21.9232 64.5246 21.7572C64.5246 20.9274 64.5246 20.1213 64.5246 19.2915C64.5246 19.2678 64.5246 19.2678 64.5246 19.2441V19.2204C64.5246 19.1967 64.5246 19.1967 64.5246 19.1967V19.173V19.1493V19.1256V19.1018C64.5246 19.1018 64.5486 19.0781 64.5486 19.0544C64.5486 19.0544 64.5726 19.0307 64.5726 19.007C64.5726 19.007 64.5966 18.9833 64.5966 18.9596C64.5966 18.9359 64.6205 18.9359 64.6205 18.9122C64.6205 18.8885 64.6445 18.8885 64.6685 18.8648C64.7643 18.7936 64.8842 18.7462 65.028 18.7462C65.1958 18.7462 65.3156 18.8173 65.4355 18.9122C65.5553 19.0307 65.6033 19.1493 65.6033 19.3152C65.6033 19.6946 65.6033 20.0739 65.6033 20.477C66.4661 20.477 67.2331 20.5007 68.0002 20.5244Z" fill="#46DEDE"/>
</svg>
